<?xml version="1.0" standalone="no"?>
<!DOCTYPE svg PUBLIC "-//W3C//DTD SVG 1.1//EN" "http://www.w3.org/Graphics/SVG/1.1/DTD/svg11.dtd" >
<svg xmlns="http://www.w3.org/2000/svg">
<metadata>Generated by IcoMoon</metadata>
<defs>
<font id="icomoon" horiz-adv-x="1024">
<font-face units-per-em="1024" ascent="960" descent="-64" />
<missing-glyph horiz-adv-x="1024" />
<glyph unicode="&#x20;" horiz-adv-x="512" d="" />
<glyph unicode="&#xe900;" glyph-name="ic_favoriteline" horiz-adv-x="1138" d="M884.096 922.805c-121.534 29.086-246.017-21.572-313.529-122.037-68.206 101.71-194.548 152.539-317.297 121.963-105.245-25.128-188.129-106.477-215.050-211.302-14.249-52.599-12.929-108.527 3.855-160.714 9.716-66.633 171.055-276.328 492.918-573.188 9.452-8.566 21.54-13.174 34.047-13.086 12.779 0.080 25.063 5.123 34.227 14.074 191.253 178.94 322.949 320.371 405.352 428.396 53.479 70.107 78.611 115.622 85.946 141.62 18.038 51.509 19.744 109.065 4.375 163.218-26.68 104.714-109.438 186.016-214.842 211.054zM173.832 440.822c-29.010 38.429-49.873 70.234-63.544 95.265-7.103 13.006-11.792 24.333-11.792 20.596l-1.466 9.014c-14.173 42.419-15.496 88.057-3.805 131.22 21.765 84.736 88.512 150.247 173.526 170.546 114.024 28.401 231.569-29.783 277.655-137.194 9.854-22.967 42.413-22.973 52.276-0.010 45.62 106.216 161.458 164.195 274.219 137.208 84.993-20.19 151.632-85.74 172.993-170.096l0.223-0.827c12.274-42.988 10.952-88.7-3.785-130.913-1.937-6.67-6.106-16.462-14.455-31.583-13.44-24.341-33.823-55.051-62.491-92.633-79.635-104.396-207.783-242.172-394.817-417.462-184.812 170.793-313.394 309.116-394.737 416.868z" />
<glyph unicode="&#xe901;" glyph-name="ic-add" d="M810.667 448c0-13.738-11.137-24.875-24.875-24.875v0h-248.917v-248.917c0-13.738-11.137-24.875-24.875-24.875s-24.875 11.137-24.875 24.875v0 248.917h-248.917c-13.738 0-24.875 11.137-24.875 24.875s11.137 24.875 24.875 24.875v0h248.917v248.917c0 13.738 11.137 24.875 24.875 24.875s24.875-11.137 24.875-24.875v0-248.917h248.917c13.739 0 24.875-11.093 24.875-24.875z" />
<glyph unicode="&#xe902;" glyph-name="ic-arrowback" horiz-adv-x="1069" d="M890.435 423.869c0-17.319-13.357-31.343-29.785-31.343h-583.101l256-269.357c5.376-5.782 8.675-13.558 8.675-22.105s-3.299-16.323-8.693-22.125l0.018 0.020c-5.275-5.724-12.784-9.319-21.134-9.394h-0.014c-8.364 0.075-15.873 3.671-21.129 9.374l-0.018 0.020-306.577 322.649c-2.606 2.819-4.715 6.144-6.159 9.804l-0.074 0.214c-0.144 0.662-0.226 1.424-0.226 2.204s0.082 1.541 0.239 2.275l-0.013-0.071c-0.217 1.178-0.341 2.533-0.341 3.918s0.124 2.74 0.361 4.056l-0.021-0.138c0 8.192 3.117 16.072 8.637 21.905l309.871 328.57c5.089 4.667 11.901 7.527 19.381 7.527 8.281 0 15.744-3.505 20.985-9.113l0.015-0.016c5.406-5.789 8.725-13.586 8.725-22.159 0-7.736-2.703-14.84-7.215-20.421l0.048 0.061-261.343-275.055h583.101c16.473 0 29.785-14.024 29.785-31.299z" />
<glyph unicode="&#xe903;" glyph-name="ic-arrowdropdown" d="M720.725 509.227l-199.765-185.557c-2.347-2.278-5.554-3.682-9.088-3.682s-6.741 1.404-9.091 3.685l0.003-0.003-199.765 185.557c-2.687 2.575-4.356 6.193-4.356 10.201 0 1.825 0.346 3.568 0.976 5.169l-0.033-0.096c1.998 5.187 6.93 8.806 12.711 8.832h399.576c5.787-0.059 10.706-3.708 12.641-8.823l0.031-0.094c0.502-1.399 0.793-3.013 0.793-4.694 0-4.144-1.763-7.876-4.581-10.487l-0.009-0.008z" />
<glyph unicode="&#xe904;" glyph-name="ic-arrowdropup" d="M720.725 344.107l-199.765 185.557c-2.347 2.278-5.554 3.682-9.088 3.682s-6.741-1.404-9.091-3.685l0.003 0.003-199.765-185.557c-2.687-2.575-4.356-6.193-4.356-10.201 0-1.825 0.346-3.568 0.976-5.169l-0.033 0.096c1.992-5.174 6.905-8.788 12.667-8.832h399.578c5.787 0.059 10.706 3.708 12.641 8.823l0.031 0.094c0.502 1.399 0.793 3.013 0.793 4.694 0 4.144-1.763 7.876-4.581 10.487l-0.009 0.008z" />
<glyph unicode="&#xe905;" glyph-name="ic-arrowforward" d="M853.205 450.773c0.073-0.894 0.115-1.936 0.115-2.987s-0.042-2.093-0.124-3.123l0.009 0.136c-1.112-5.981-3.835-11.197-7.696-15.335l0.016 0.018-299.179-314.112c-5.068-5.365-12.232-8.704-20.175-8.704-0.002 0-0.005 0-0.007 0v0c-11.974 0.23-22.121 7.811-26.132 18.407l-0.065 0.196c-1.348 3.356-2.129 7.246-2.129 11.319 0 8.236 3.197 15.726 8.417 21.295l-0.016-0.017 249.728 262.955h-556.843c-15.744 0-28.459 13.397-28.459 29.952 0 16.512 12.715 29.952 28.459 29.952h556.8l-243.925 257.536c-5.125 5.529-8.27 12.957-8.27 21.12s3.144 15.591 8.288 21.14l-0.018-0.020c5.052 5.414 12.218 8.798 20.175 8.832h0.006c7.969-0.046 15.135-3.445 20.166-8.857l0.016-0.017 292.949-308.437c3.839-4.11 6.56-9.309 7.65-15.085l0.030-0.189c0.178-1.394 0.279-3.006 0.279-4.642 0-0.468-0.008-0.934-0.025-1.398l0.002 0.067z" />
<glyph unicode="&#xe906;" glyph-name="ic-check" d="M368.469 162.859c-8.541 0.012-16.252 3.556-21.752 9.25l-0.008 0.009-209.707 214.741c-5.569 5.751-9.002 13.6-9.002 22.251s3.433 16.5 9.010 22.259l-0.008-0.009c5.503 5.709 13.218 9.255 21.76 9.255s16.257-3.546 21.751-9.246l0.009-0.009 187.947-192.427 445.184 455.808c5.514 5.688 13.225 9.218 21.76 9.218s16.246-3.53 21.752-9.21l0.008-0.008c5.582-5.753 9.023-13.611 9.023-22.272s-3.441-16.519-9.030-22.28l0.008 0.008-466.944-478.080c-5.508-5.703-13.219-9.247-21.758-9.259h-0.002z" />
<glyph unicode="&#xe907;" glyph-name="ic-chevronleft" d="M642.133 192c-0.007 0-0.014 0-0.022 0-5.823 0-11.102 2.328-14.958 6.105l0.004-0.004-236.8 232.533c-3.923 3.871-6.353 9.246-6.353 15.189 0 5.901 2.396 11.242 6.267 15.104v0l236.757 236.8c3.885 4.018 9.323 6.513 15.345 6.513 11.782 0 21.333-9.551 21.333-21.333 0-6.021-2.495-11.46-6.507-15.339l-221.574-221.574 221.44-217.429c3.949-3.875 6.397-9.267 6.397-15.232 0-11.781-9.549-21.332-21.33-21.333v0z" />
<glyph unicode="&#xe908;" glyph-name="ic-chevronright" d="M405.333 192c5.816 0.006 11.087 2.333 14.937 6.105l-0.004-0.004 236.8 232.533c3.936 3.873 6.375 9.257 6.375 15.21 0 5.89-2.387 11.223-6.247 15.083l-236.8 236.8c-3.911 4.233-9.49 6.875-15.686 6.875-11.782 0-21.333-9.551-21.333-21.333 0-6.207 2.651-11.795 6.882-15.693l0.015-0.014 221.568-221.568-221.44-217.429c-3.949-3.875-6.397-9.267-6.397-15.232 0-11.781 9.549-21.332 21.33-21.333v0z" />
<glyph unicode="&#xe909;" glyph-name="ic-close" d="M803.308 192.020c4.71-4.671 7.359-11.030 7.359-17.664s-2.649-12.992-7.359-17.664c-4.671-4.71-11.029-7.359-17.663-7.359s-12.992 2.649-17.663 7.359l-255.983 256.001-255.983-256.001c-4.671-4.71-11.029-7.359-17.663-7.359s-12.992 2.649-17.663 7.359c-4.71 4.671-7.359 11.030-7.359 17.664s2.649 12.992 7.359 17.664l255.983 256.001-255.983 256.001c-9.755 9.755-9.755 25.572 0 35.328s25.57 9.755 35.325 0l255.983-256.001 255.983 256.001c9.755 9.755 25.57 9.755 35.325 0s9.755-25.572 0-35.328l-255.983-256.001 255.983-256.001z" />
<glyph unicode="&#xe90a;" glyph-name="ic-edit-1" d="M824.448 759.595c-18.117 18.372-43.281 29.753-71.104 29.753s-52.987-11.381-71.093-29.741l-0.011-0.012-15.36-14.251h-345.899c-91.307 0-150.187-56.875-150.187-142.208v-358.656c-0.102-1.953-0.159-4.24-0.159-6.54 0-36.689 14.72-69.94 38.576-94.17l-0.017 0.017c27.136-24.321 63.181-39.191 102.699-39.191 3.002 0 5.983 0.086 8.943 0.255l-0.41-0.019h312.875c2.622-0.159 5.688-0.25 8.774-0.25 39.525 0 75.575 14.875 102.859 39.333l-0.145-0.128c26.496 26.624 40.661 63.147 38.955 100.693v336.469c21.077 19.072 36.437 32.725 40.107 36.395 18.603 18.645 29.056 43.947 29.013 70.272 0 26.709-10.197 52.48-28.416 71.979zM726.869 244.48c0.121-1.634 0.19-3.54 0.19-5.462 0-21.068-8.299-40.198-21.806-54.299l0.027 0.028c-17.15-14.516-39.521-23.341-63.954-23.341-2.719 0-5.413 0.109-8.077 0.324l0.351-0.023h-312.875c-2.313-0.192-5.007-0.301-7.726-0.301-24.432 0-46.803 8.825-64.099 23.461l0.146-0.12c-13.648 14.106-22.059 33.351-22.059 54.561 0 1.82 0.062 3.625 0.184 5.414l-0.013-0.242v360.107c0 73.387 58.581 85.333 93.269 85.333h284.416l-138.24-121.472c-5.494-5.586-9.847-12.312-12.67-19.79l-0.13-0.392-36.096-107.819c-1.666-4.746-2.629-10.218-2.629-15.915 0-27.334 22.159-49.493 49.493-49.493 0.024 0 0.048 0 0.072 0h-0.004c0.389-0.014 0.846-0.022 1.305-0.022 5.052 0 9.883 0.947 14.325 2.674l-0.27-0.092 107.52 35.243c6.699 1.92 12.843 5.461 17.92 10.24l121.429 107.264v-285.867zM783.744 657.749c-10.496-10.539-179.456-160.128-214.443-191.147l-92.715-30.421 31.019 92.16c69.12 60.843 204.8 180.907 215.040 190.848 7.772 8.055 18.662 13.057 30.72 13.057s22.948-5.002 30.708-13.044l0.012-0.013c7.68-8.704 11.904-19.968 11.947-31.573 0-0.039 0-0.085 0-0.132 0-11.654-4.802-22.187-12.536-29.727l-0.009-0.008h0.256z" />
<glyph unicode="&#xe90b;" glyph-name="ic-edit-2" d="M273.109 214.272h0.853c-0.228-0.003-0.497-0.005-0.766-0.005-32.707 0-59.221 26.514-59.221 59.221 0 6.734 1.124 13.206 3.195 19.238l-0.124-0.417 53.248 155.435c3.2 10.155 9.088 19.2 17.067 26.197 144.64 127.573 300.117 265.643 310.357 275.925 23.894 24.37 57.159 39.475 93.952 39.475s70.058-15.106 93.931-39.454l0.021-0.021c25.173-25.387 39.381-59.648 39.595-95.403-0.317-36.372-15.541-69.128-39.851-92.503l-0.043-0.041c-19.627-19.328-312.619-278.443-315.733-281.003-5.938-5.298-13.069-9.397-20.93-11.839l-0.404-0.108-156.587-51.541c-5.973-2.048-12.245-3.072-18.56-3.157zM324.096 431.232l-53.803-157.141 3.413-2.859 157.44 52.096c58.368 51.541 297.515 263.68 313.173 279.339 14.549 13.568 22.869 32.469 23.040 52.352-0.384 20.565-8.533 40.149-22.741 54.955-13.958 13.839-33.145 22.424-54.337 22.528h-0.020c-20.82-0.162-39.577-8.86-52.97-22.761l-0.022-0.023c-17.365-17.664-310.059-275.925-313.173-278.485zM821.205 133.163c0-0.013 0-0.028 0-0.043 0-15.717-12.741-28.459-28.459-28.459 0 0 0 0 0 0v0l-550.955 1.451c-15.717 0-28.459 12.741-28.459 28.459s12.741 28.459 28.459 28.459h550.955c0.010 0 0.023 0 0.035 0 15.717 0 28.459-12.741 28.459-28.459 0-0.495-0.013-0.988-0.038-1.477l0.003 0.069z" />
<glyph unicode="&#xe90c;" glyph-name="ic-expandless" d="M267.733 329.6c0 5.419 2.048 10.795 6.101 14.933l232.533 236.8c3.873 3.936 9.257 6.375 15.21 6.375 5.89 0 11.223-2.387 15.083-6.247l236.8-236.8c4.233-3.911 6.875-9.49 6.875-15.686 0-11.782-9.551-21.333-21.333-21.333-6.207 0-11.795 2.651-15.693 6.882l-0.014 0.015-221.568 221.568-217.429-221.44c-3.875-3.949-9.267-6.397-15.232-6.397-11.781 0-21.332 9.549-21.333 21.33v0z" />
<glyph unicode="&#xe90d;" glyph-name="ic-expandmore" d="M779.733 566.4c-0.006-5.816-2.333-11.087-6.105-14.937l0.004 0.004-232.533-236.8c-3.873-3.936-9.257-6.375-15.21-6.375-5.89 0-11.223 2.387-15.083 6.247l-236.8 236.8c-4.375 3.924-7.116 9.594-7.116 15.905 0 11.782 9.551 21.333 21.333 21.333 6.311 0 11.982-2.74 15.887-7.096l0.018-0.020 221.568-221.568 217.472 221.44c3.875 3.949 9.267 6.397 15.232 6.397 11.781 0 21.332-9.549 21.333-21.33v0z" />
<glyph unicode="&#xe90e;" glyph-name="ic-export" d="M494.379 285.568l-199.125 199.125c-5.196 5.159-8.412 12.305-8.412 20.203 0 15.721 12.744 28.465 28.465 28.465 7.823 0 14.91-3.156 20.055-8.265l150.739-150.782v386.56c0 15.717 12.741 28.459 28.459 28.459s28.459-12.741 28.459-28.459v0-384.256l147.883 148.181c5.159 5.196 12.305 8.412 20.203 8.412 15.721 0 28.465-12.744 28.465-28.465 0-7.823-3.156-14.91-8.265-20.055l-195.411-195.411c-5.23-5.937-12.844-9.668-21.33-9.685h-0.003c-1.071-0.207-2.303-0.326-3.563-0.326s-2.491 0.119-3.685 0.345l0.122-0.019c-0.596-0.135-1.281-0.212-1.984-0.212s-1.388 0.077-2.046 0.224l0.062-0.012c-3.527 1.469-6.544 3.486-9.093 5.979l0.005-0.005zM824.875 305.792c15.744 0 28.459-12.757 28.459-28.459v-142.208c0-15.717-12.741-28.459-28.459-28.459v0h-625.749c-15.717 0-28.459 12.741-28.459 28.459v0 142.208c0.609 15.236 13.107 27.357 28.437 27.357s27.829-12.121 28.436-27.302l0.002-0.055v-113.792h568.917v113.792c0 15.701 12.715 28.459 28.416 28.459z" />
<glyph unicode="&#xe90f;" glyph-name="ic-favoritefill" d="M888.917 640.256c-18.491 71.089-73.94 125.757-144.104 142.827l-1.347 0.277c-14.015 3.509-30.104 5.523-46.664 5.523-81.794 0-152.114-49.127-183.062-119.484l-0.503-1.282c-31.545 71.885-102.099 121.184-184.167 121.184-17.268 0-34.026-2.183-50.013-6.287l1.39 0.303c-71.533-17.433-127.030-72.021-145.481-141.681l-0.311-1.38c-4.233-15.020-6.667-32.27-6.667-50.088 0-21.707 3.612-42.571 10.268-62.022l-0.401 1.348c0-4.779 41.131-121.6 363.179-418.645 2.838-2.562 6.616-4.13 10.761-4.13 4.299 0 8.205 1.687 11.091 4.435l-0.007-0.006c324.309 303.445 359.936 407.808 362.837 418.048 12.501 35.84 13.653 74.581 3.2 111.061z" />
<glyph unicode="&#xe910;" glyph-name="ic-fullscreenexit" d="M824.875 349.568c0.329 0.014 0.714 0.021 1.102 0.021 15.717 0 28.459-12.741 28.459-28.459s-12.741-28.459-28.459-28.459c-0.387 0-0.773 0.008-1.157 0.023l0.055-0.002h-157.568v-157.568c-0.609-15.236-13.107-27.357-28.437-27.357s-27.829 12.121-28.436 27.302l-0.002 0.055v186.027c0 15.701 12.715 28.416 28.416 28.416h186.027zM385.408 349.568c0 0 0 0 0 0 15.702 0 28.434-12.717 28.459-28.414v-186.029c-0.609-15.236-13.107-27.357-28.437-27.357s-27.829 12.121-28.436 27.302l-0.002 0.055v157.568h-157.867c-0.329-0.014-0.714-0.021-1.102-0.021-15.717 0-28.459 12.741-28.459 28.459s12.741 28.459 28.459 28.459c0.387 0 0.773-0.008 1.157-0.023l-0.055 0.002h186.283zM385.408 789.333c15.717 0 28.459-12.741 28.459-28.459v0-186.027c-0.024-15.699-12.756-28.416-28.459-28.416 0 0 0 0 0 0h-186.283c-0.329-0.014-0.714-0.021-1.102-0.021-15.717 0-28.459 12.741-28.459 28.459s12.741 28.459 28.459 28.459c0.387 0 0.773-0.008 1.157-0.023l-0.055 0.002h157.867v157.568c0 15.744 12.715 28.459 28.416 28.459zM638.848 546.432c-15.684 0.024-28.392 12.732-28.416 28.414v186.029c-0.014 0.329-0.021 0.714-0.021 1.102 0 15.717 12.741 28.459 28.459 28.459s28.459-12.741 28.459-28.459c0-0.387-0.008-0.773-0.023-1.157l0.002 0.055v-157.568h157.568c0.329 0.014 0.714 0.021 1.102 0.021 15.717 0 28.459-12.741 28.459-28.459s-12.741-28.459-28.459-28.459c-0.387 0-0.773 0.008-1.157 0.023l0.055-0.002h-186.027z" />
<glyph unicode="&#xe911;" glyph-name="ic-fullscreen" d="M385.152 789.333c15.236-0.609 27.357-13.107 27.357-28.437s-12.121-27.829-27.302-28.436l-0.055-0.002h-157.611v-157.611c0.014-0.329 0.021-0.714 0.021-1.102 0-15.717-12.741-28.459-28.459-28.459s-28.459 12.741-28.459 28.459c0 0.387 0.008 0.773 0.023 1.157l-0.002-0.055v186.027c0 15.744 12.715 28.459 28.459 28.459h186.027zM385.152 163.541c0.329 0.014 0.714 0.021 1.102 0.021 15.717 0 28.459-12.741 28.459-28.459s-12.741-28.459-28.459-28.459c-0.387 0-0.773 0.008-1.157 0.023l0.055-0.002h-186.027c-15.717 0-28.459 12.741-28.459 28.459v0 186.027c0.609 15.236 13.107 27.357 28.437 27.357s27.829-12.121 28.436-27.302l0.002-0.055v-157.611h157.611zM824.875 350.165c15.744 0 28.459-12.757 28.459-28.459v-186.581c0-15.717-12.741-28.459-28.459-28.459v0h-186.88c-15.236 0.609-27.357 13.107-27.357 28.437s12.121 27.829 27.302 28.436l0.055 0.002h158.464v158.165c0 15.701 12.715 28.459 28.416 28.459zM824.875 789.333c15.744 0 28.459-12.715 28.459-28.459v-186.88c0.014-0.329 0.021-0.714 0.021-1.102 0-15.717-12.741-28.459-28.459-28.459s-28.459 12.741-28.459 28.459c0 0.387 0.008 0.773 0.023 1.157l-0.002-0.055v158.464h-158.464c-15.236 0.609-27.357 13.107-27.357 28.437s12.121 27.829 27.302 28.436l0.055 0.002h186.88z" />
<glyph unicode="&#xe912;" glyph-name="ic-apps" d="M689.493 529.92h163.84v-163.84h-163.84v163.84zM689.493 270.507h163.84v-163.84h-163.84v163.84zM689.493 789.333h163.84v-164.139h-163.84v164.139zM170.667 789.333h164.139v-164.139h-164.139v164.139zM430.080 789.333h164.139v-164.139h-164.139v164.139zM170.667 529.92h164.139v-163.84h-164.139v163.84zM170.667 270.507h164.139v-163.84h-164.139v163.84zM430.080 270.507h164.139v-163.84h-164.139v163.84zM430.080 529.92h164.139v-163.84h-164.139v163.84z" />
<glyph unicode="&#xe914;" glyph-name="ic-import" d="M335.36 544.128c-5.143-5.108-12.229-8.266-20.053-8.266s-14.91 3.157-20.055 8.267l0.002-0.002c-5.108 5.143-8.266 12.229-8.266 20.053s3.157 14.91 8.267 20.055l-0.002-0.002 196.565 197.419c2.544 2.487 5.561 4.505 8.9 5.904l0.188 0.070c1.571 0.821 3.397 1.42 5.327 1.696l0.091 0.011h5.675c7.467 0 14.592-2.987 19.925-8.235l199.083-199.125c5.196-5.159 8.412-12.305 8.412-20.203 0-15.721-12.744-28.465-28.465-28.465-7.823 0-14.91 3.156-20.055 8.265l0.002-0.002-150.443 150.784v-386.56c0-15.717-12.741-28.459-28.459-28.459s-28.459 12.741-28.459 28.459v0 386.56l-148.181-148.224zM824.875 305.792c15.744 0 28.459-12.757 28.459-28.459v-142.208c0-15.717-12.741-28.459-28.459-28.459v0h-625.749c-15.717 0-28.459 12.741-28.459 28.459v0 142.208c0.609 15.236 13.107 27.357 28.437 27.357s27.829-12.121 28.436-27.302l0.002-0.055v-113.792h568.917v113.792c0 15.701 12.715 28.459 28.416 28.459z" />
<glyph unicode="&#xe915;" glyph-name="ic-list" d="M239.232 455.083c0-31.531-26.197-34.091-32.725-34.091h-3.115c-6.827 0-32.725 2.56-32.725 34.133 0 31.829 25.6 34.133 32.427 34.133h3.413c6.528 0 32.725-2.859 32.725-34.133zM282.453 625.749c0 15.701 12.501 28.459 28.459 28.459h513.707c15.616 0 28.416-12.8 28.416-28.459 0-15.915-12.8-28.416-28.416-28.416h-513.707c-0.089-0.001-0.194-0.002-0.3-0.002-15.552 0-28.16 12.608-28.16 28.16 0 0.091 0 0.181 0.001 0.271v-0.014zM852.779 283.563c0-15.616-12.8-28.416-28.459-28.416h-513.707c-15.708 0.024-28.434 12.751-28.459 28.456v0.002c0 15.915 12.8 28.459 28.459 28.459h513.707c15.659 0 28.459-12.544 28.459-28.459zM852.779 455.083c0-15.616-12.8-28.416-28.459-28.416h-513.707c-0.038 0-0.083 0-0.128 0-15.647 0-28.331 12.684-28.331 28.331 0 0.030 0 0.060 0 0.090v-0.005c0 15.701 12.544 28.459 28.459 28.459h513.707c15.659 0 28.459-12.8 28.459-28.459zM241.792 625.493c0-32.683-27.051-35.285-33.877-35.285h-3.115c-7.125 0-34.133 2.56-34.133 35.584 0 32.981 26.752 35.541 33.835 35.541h3.413c6.827-0.299 33.877-3.115 33.877-35.84zM239.232 283.605c0-31.573-25.899-34.133-32.427-34.133h-3.157c-6.827 0-32.683 2.56-32.683 34.432 0 31.573 25.6 33.792 32.427 33.792 1.109 0.341 2.261 0 3.115 0 6.827 0 32.725-2.816 32.725-34.133z" />
<glyph unicode="&#xe916;" glyph-name="ic-menu" d="M199.125 640c-15.744 0-28.459 14.336-28.459 32s12.715 32 28.459 32h625.749c15.744 0 28.459-14.336 28.459-32s-12.715-32-28.459-32h-625.749zM824.875 480c15.744 0 28.459-14.336 28.459-32s-12.715-32-28.459-32h-625.749c-15.744 0-28.459 14.336-28.459 32s12.715 32 28.459 32h625.749zM824.875 256c15.744 0 28.459-14.336 28.459-32s-12.715-32-28.459-32h-625.749c-15.744 0-28.459 14.336-28.459 32s12.715 32 28.459 32h625.749z" />
<glyph unicode="&#xe917;" glyph-name="ic-more" d="M597.333 448c0-47.232-38.4-85.333-85.333-85.333-47.232 0-85.333 38.101-85.333 85.333s38.101 85.333 85.333 85.333c46.933 0 85.333-38.101 85.333-85.333zM426.667 704c0 47.232 38.101 85.333 85.333 85.333 46.933 0 85.333-38.101 85.333-85.333s-38.4-85.333-85.333-85.333c-47.232 0-85.333 38.101-85.333 85.333zM597.333 192c0-47.232-38.4-85.333-85.333-85.333-47.232 0-85.333 38.101-85.333 85.333s38.101 85.333 85.333 85.333c46.933 0 85.333-38.101 85.333-85.333z" />
<glyph unicode="&#xe918;" glyph-name="ic-refresh" d="M842.325 787.029c-2.589 1.22-5.623 1.932-8.824 1.932-5.688 0-10.852-2.249-14.649-5.906l0.007 0.006-82.091-80.811c-59.697 54.008-139.24 87.059-226.503 87.059-64.72 0-125.193-18.181-176.592-49.713l1.473 0.84c-99.281-61.058-164.484-169.104-164.484-292.379 0-29.199 3.658-57.544 10.541-84.601l-0.51 2.366c36.006-143.554 159.822-249.684 309.808-258.601l0.934-0.044c5.504-0.319 11.941-0.5 18.421-0.5 145.684 0 269.939 91.751 318.133 220.62l0.768 2.344c1.13 2.954 1.784 6.372 1.784 9.942 0 12.167-7.601 22.559-18.314 26.685l-0.196 0.066c-2.939 1.129-6.338 1.783-9.891 1.783-12.136 0-22.489-7.63-26.525-18.355l-0.064-0.195c-49.621-135.68-192.64-212.395-332.373-178.261-139.819 34.133-231.851 168.277-213.973 311.723 17.835 143.445 139.947 250.624 283.733 249.088 0.14 0 0.306 0 0.471 0 70.667 0 135.191-26.297 184.322-69.638l-0.303 0.262-89.387-87.339c-3.936-3.793-6.38-9.111-6.38-14.999 0-3.115 0.684-6.071 1.911-8.725l-0.053 0.129c3.371-7.808 11.051-12.8 19.499-12.8l198.101 7.381c10.957 0.33 19.784 9.009 20.35 19.874l0.002 0.051 11.605 199.083c0.167 0.989 0.262 2.129 0.262 3.291 0 7.902-4.411 14.773-10.904 18.287l-0.11 0.054z" />
</font>
</defs>
</svg>
