
<svg width="301px" height="47px" viewBox="0 0 301 47" version="1.1" xmlns="http://www.w3.org/2000/svg" xmlns:xlink="http://www.w3.org/1999/xlink">
    <!-- Generator: Sketch 49.1 (51147) - http://www.bohemiancoding.com/sketch -->
    <desc>Created with Sketch.</desc>
    <defs></defs>
    <g id="Page-1" stroke="none" stroke-width="1" fill="none" fill-rule="evenodd">
        <g id="Brand" transform="translate(-842.000000, -723.000000)" fill="#2C2C2C">
            <g id="endoso_luca_ai" transform="translate(842.000000, 723.000000)">
                <g id="Shape">
                    <path d="M203,1.79108108 L204.711818,1.79108108 L210.089091,17.7837838 L208.612727,17.7837838 L207.187273,13.4077027 L200.740909,13.4077027 L199.410909,17.7837838 L198.004545,17.7837838 L203,1.79108108 Z M206.818182,12.22 L203.859091,3.23918919 L201.090909,12.22 L206.818182,12.22 Z" fill-rule="nonzero"></path>
                    <polygon fill-rule="nonzero" points="212.691818 1.79108108 214.098182 1.79108108 214.098182 17.7837838 212.691818 17.7837838"></polygon>
                    <path d="M222.905455,1.79108108 L227.36,1.79108108 C228.191873,1.77308283 229.02238,1.8670823 229.829091,2.07054054 C230.480905,2.24106415 231.075896,2.58071531 231.553636,3.055 C231.952197,3.46553499 232.248634,3.96371819 232.419091,4.50945946 C232.632172,5.17212153 232.735349,5.86507741 232.724545,6.56094595 C232.724545,8.25463964 232.325758,9.52490991 231.528182,10.3717568 C230.730606,11.2186036 229.496061,11.642027 227.824545,11.642027 L224.311818,11.642027 L224.311818,17.7837838 L222.905455,17.7837838 L222.905455,1.79108108 Z M227.264545,10.3908108 C227.930074,10.4131285 228.595617,10.3469162 229.243636,10.1939189 C230.142319,9.96038671 230.842263,9.25692577 231.07,8.35837838 C231.215608,7.78577849 231.281982,7.19597721 231.267273,6.60540541 C231.336297,5.64922052 231.053467,4.7007438 230.471818,3.93783784 C230.161401,3.56963639 229.746519,3.30391569 229.281818,3.17567568 C228.605046,3.02710807 227.91272,2.96099492 227.22,2.97878378 L224.311818,2.97878378 L224.311818,10.3908108 L227.264545,10.3908108 Z" fill-rule="nonzero"></path>
                    <path d="M234.105455,12.0675676 C234.105455,8.02810811 235.753636,6.00837838 239.05,6.00837838 C242.346364,6.00837838 243.994545,8.02810811 243.994545,12.0675676 C243.994545,16.107027 242.346364,18.1246396 239.05,18.1204054 C235.753636,18.1161712 234.105455,16.0985586 234.105455,12.0675676 Z M241.741818,15.7386486 C242.373598,14.6223528 242.667584,13.3471931 242.588182,12.0675676 C242.67532,10.7904413 242.390211,9.51544147 241.767273,8.39648649 C241.077688,7.62125735 240.08867,7.17762187 239.05,7.17762187 C238.01133,7.17762187 237.022312,7.62125735 236.332727,8.39648649 C235.709789,9.51544147 235.42468,10.7904413 235.511818,12.0675676 C235.42468,13.3446939 235.709789,14.6196937 236.332727,15.7386486 C237.024455,16.5101693 238.012678,16.951125 239.05,16.951125 C240.087322,16.951125 241.075545,16.5101693 241.767273,15.7386486 L241.741818,15.7386486 Z" fill-rule="nonzero"></path>
                    <polygon fill-rule="nonzero" points="245.28 6.35135135 246.686364 6.35135135 249.454545 16.2848649 252.120909 6.35135135 253.552727 6.35135135 256.62 16.45 259.165455 6.35135135 260.438182 6.35135135 257.370909 17.7837838 255.818182 17.7837838 252.84 8.07891892 250.199091 17.7837838 248.627273 17.7837838"></polygon>
                    <path d="M263.040909,16.577027 C262.162727,15.5417568 261.73,14.0364865 261.73,12.0802703 C261.637637,10.510049 262.052519,8.95168126 262.913636,7.63432432 C263.727927,6.53426085 265.046013,5.9219361 266.413636,6.00837838 C269.43,6.00837838 270.938182,8.0513964 270.938182,12.1374324 L270.938182,12.347027 C270.942987,12.4183661 270.920213,12.4888299 270.874545,12.5439189 C270.809782,12.5894676 270.730563,12.6097991 270.651818,12.6010811 L263.155455,12.6010811 C263.092417,13.776732 263.446127,14.9370003 264.154545,15.8783784 C264.782424,16.6066667 265.823939,16.9729279 267.279091,16.9771622 C268.258401,16.9677368 269.233686,16.8505877 270.187273,16.6278378 L270.301818,17.7266216 C269.81852,17.8669333 269.324859,17.9688728 268.825455,18.0314865 C268.28118,18.1044546 267.73279,18.1426405 267.183636,18.1458108 C265.293636,18.1331081 263.912727,17.6186486 263.040909,16.577027 Z M269.601818,11.4959459 C269.66703,10.3700017 269.392141,9.25043997 268.812727,8.28216216 C268.273517,7.50121515 267.361704,7.06187928 266.413636,7.12621622 C265.456025,7.06718055 264.535305,7.50385793 263.976364,8.28216216 C263.375431,9.24324157 263.082402,10.3643544 263.136364,11.4959459 L269.601818,11.4959459 Z" fill-rule="nonzero"></path>
                    <path d="M273.865455,6.35135135 L274.940909,6.35135135 L275.055455,7.33581081 C275.555016,6.91430879 276.123234,6.5813396 276.735455,6.35135135 C277.282235,6.13273849 277.864672,6.01647596 278.453636,6.00837838 C278.676364,6.00837838 278.860909,6.00837838 279.02,6.00837838 L279.02,7.27864865 C278.765455,7.27864865 278.504545,7.27864865 278.224545,7.27864865 C277.147399,7.27643648 276.096756,7.61190425 275.220909,8.2377027 L275.220909,17.7837838 L273.865455,17.7837838 L273.865455,6.35135135 Z" fill-rule="nonzero"></path>
                    <path d="M281.476364,16.577027 C280.602424,15.5396396 280.165455,14.0407207 280.165455,12.0802703 C280.07579,10.5103219 280.490452,8.95278138 281.349091,7.63432432 C282.164149,6.53519841 283.481692,5.92312566 284.849091,6.00837838 C287.865455,6.00837838 289.373636,8.0513964 289.373636,12.1374324 L289.373636,12.347027 C289.380227,12.4175294 289.359757,12.4879001 289.316364,12.5439189 C289.251601,12.5894676 289.172381,12.6097991 289.093636,12.6010811 L281.597273,12.6010811 C281.538342,13.7752413 281.889181,14.9334665 282.59,15.8783784 C283.226364,16.6087838 284.263636,16.9771622 285.720909,16.9771622 C286.69814,16.9680469 287.67135,16.8508907 288.622727,16.6278378 L288.743636,17.7266216 C288.260162,17.8662251 287.766558,17.968153 287.267273,18.0314865 C286.722955,18.1040293 286.174592,18.1422133 285.625455,18.1458108 C283.735455,18.1331081 282.354545,17.6186486 281.476364,16.577027 Z M288.037273,11.4959459 C288.09936,10.3711086 287.827051,9.25303866 287.254545,8.28216216 C286.713286,7.50018423 285.799109,7.06087469 284.849091,7.12621622 C283.891479,7.06718055 282.97076,7.50385793 282.411818,8.28216216 C281.813862,9.244518 281.521078,10.3646917 281.571818,11.4959459 L288.037273,11.4959459 Z" fill-rule="nonzero"></path>
                    <path d="M291.740909,12.0993243 C291.658386,10.5318627 292.06769,8.97773321 292.911818,7.65337838 C293.731684,6.55312904 295.053424,5.94133139 296.424545,6.02743243 C297.532628,6.04113762 298.622182,6.31300037 299.606364,6.82135135 L299.606364,1.10513514 L301,1.10513514 L301,17.7837838 L299.924545,17.7837838 L299.854545,17.0787838 C299.353881,17.4003454 298.809535,17.6484645 298.238182,17.8155405 C297.662712,18.0033209 297.06178,18.1018549 296.456364,18.1077027 C293.308485,18.1077027 291.736667,16.1049099 291.740909,12.0993243 Z M298.066364,16.7104054 C298.600963,16.5789393 299.119515,16.3893839 299.612727,16.1451351 L299.612727,7.88837838 C298.699618,7.44212792 297.701681,7.1952907 296.685455,7.16432432 C295.626414,7.06767344 294.593695,7.53005495 293.961818,8.38378378 C293.341076,9.50800483 293.058266,10.7870147 293.147273,12.0675676 C293.147273,13.7189189 293.408182,14.9383784 293.942727,15.7259459 C294.524718,16.5382641 295.490779,16.9866153 296.488182,16.9072973 C297.020316,16.9061004 297.550308,16.8399793 298.066364,16.7104054 Z" fill-rule="nonzero"></path>
                    <path d="M198.004545,29.1145946 L201.778182,29.1145946 C202.953309,29.0830976 204.127082,29.2156403 205.265455,29.5083784 C206.119942,29.7452553 206.895483,30.2057346 207.511818,30.8421622 C208.67,32.1124324 209.249091,34.1787387 209.249091,37.0410811 C209.280639,38.4296701 209.09163,39.8144835 208.689091,41.1440541 C208.408272,42.1025116 207.892044,42.9757863 207.187273,43.6845946 C206.190303,44.6245946 204.582424,45.0945946 202.363636,45.0945946 L198.03,45.0945946 L198.004545,29.1145946 Z M202.198182,43.8687838 C204.056364,43.8687838 205.390606,43.4707658 206.200909,42.6747297 C206.80877,42.0677365 207.241787,41.3086783 207.454545,40.4771622 C207.733022,39.353608 207.861407,38.1982324 207.836364,37.0410811 C207.861357,35.9381734 207.74372,34.8366541 207.486364,33.7637838 C207.297354,32.9796909 206.911982,32.2563285 206.366364,31.6614865 C205.859406,31.1707466 205.231561,30.8223734 204.546364,30.6516216 C203.63797,30.4349197 202.705615,30.3346077 201.771818,30.3531081 L199.43,30.3531081 L199.43,43.8687838 L202.198182,43.8687838 Z" fill-rule="nonzero"></path>
                    <path d="M213.111818,43.9005405 C212.237879,42.8631532 211.800909,41.3621171 211.800909,39.3974324 C211.710797,37.8274386 212.125495,36.2697612 212.984545,34.9514865 C213.801626,33.8513315 215.121538,33.2392715 216.490909,33.3255405 C219.50303,33.3255405 221.009091,35.3664414 221.009091,39.4482432 L221.009091,39.6578378 C221.01669,39.7303981 220.996199,39.8031119 220.951818,39.8610811 C220.887055,39.9066298 220.807835,39.9269613 220.729091,39.9182432 L213.232727,39.9182432 C213.175285,41.0902577 213.526049,42.2459908 214.225455,43.1891892 C214.861818,43.9195946 215.899091,44.287973 217.356364,44.287973 C218.333388,44.2757213 219.306258,44.1586062 220.258182,43.9386486 L220.379091,45.0374324 C219.895617,45.1770359 219.402012,45.2789638 218.902727,45.3422973 C218.358409,45.4148402 217.810047,45.4530242 217.260909,45.4566216 C215.39,45.4566216 214.00697,44.9379279 213.111818,43.9005405 Z M219.672727,38.8194595 C219.736789,37.7029208 219.471282,36.5921527 218.909091,35.6247297 C218.369881,34.8437827 217.458068,34.4044469 216.51,34.4687838 C215.55215,34.4085181 214.630864,34.8454646 214.072727,35.6247297 C213.453915,36.580058 213.143011,37.7015865 213.181818,38.8385135 L219.672727,38.8194595 Z" fill-rule="nonzero"></path>
                    <path d="M224.757273,43.9704054 C223.828182,43.0007658 223.363636,41.5081982 223.363636,39.4927027 C223.363636,37.4772072 223.819697,35.9380631 224.731818,34.8752703 C225.765759,33.7891676 227.23048,33.218843 228.728182,33.3191892 C229.635044,33.3054386 230.538,33.4406205 231.400909,33.7193243 L231.305455,34.8371622 C230.525508,34.6219993 229.721743,34.5046542 228.912727,34.4878378 C227.398182,34.4878378 226.337576,34.8816216 225.730909,35.6691892 C225.124242,36.4567568 224.812424,37.727027 224.795455,39.48 C224.795455,41.1758108 225.132727,42.407973 225.800909,43.1637838 C226.469091,43.9195946 227.608182,44.2943243 229.199091,44.2943243 C229.57549,44.2901379 229.951432,44.2668194 230.325455,44.2244595 C230.678354,44.1896816 231.02894,44.1345444 231.375455,44.0593243 L231.496364,45.1835135 C230.643042,45.3798282 229.769269,45.4736467 228.893636,45.462973 C227.054545,45.4312162 225.68,44.9485135 224.757273,43.9704054 Z" fill-rule="nonzero"></path>
                    <path d="M233.965455,30.422973 L233.965455,30.3531081 C233.965455,29.717973 234.245455,29.4385135 234.811818,29.4385135 L234.900909,29.4385135 C235.467273,29.4385135 235.747273,29.7433784 235.747273,30.3531081 L235.747273,30.422973 C235.747273,31.0581081 235.467273,31.3312162 234.900909,31.3312162 L234.818182,31.3312162 C234.245455,31.3312162 233.965455,31.0263514 233.965455,30.422973 Z M234.181818,33.6621622 L235.543636,33.6621622 L235.543636,45.0945946 L234.181818,45.0945946 L234.181818,33.6621622 Z" fill-rule="nonzero"></path>
                    <path d="M240.042727,45.3168919 C239.555775,45.2547645 239.074762,45.1527997 238.604545,45.012027 L238.719091,43.9386486 C239.676999,44.1876938 240.662853,44.3136224 241.652727,44.3133784 C242.473221,44.3626686 243.290595,44.1752561 244.007273,43.7735135 C244.534863,43.4292956 244.841913,42.833273 244.815455,42.2047297 C244.830932,41.7890281 244.692779,41.3821495 244.427273,41.0614865 C244.167005,40.7629143 243.843006,40.526352 243.479091,40.3691892 C242.967091,40.1545439 242.442124,39.9721147 241.907273,39.822973 C241.273958,39.6251931 240.651573,39.3941042 240.042727,39.1306757 C239.578612,38.9161504 239.174358,38.5911906 238.865455,38.1843243 C238.516465,37.7039114 238.341439,37.1193768 238.369091,36.5266216 C238.3096,35.5956023 238.717392,34.6959077 239.457273,34.1258108 C240.364474,33.5362058 241.437603,33.2534109 242.518182,33.3191892 C243.007912,33.3229277 243.496859,33.3589974 243.981818,33.4271622 C244.445765,33.4832175 244.903688,33.5810025 245.35,33.7193243 L245.28,34.7672973 C244.381646,34.5646466 243.464562,34.4560861 242.543636,34.4433784 C241.792298,34.3948453 241.042973,34.5647176 240.386364,34.9324324 C239.894488,35.2763747 239.619184,35.8524339 239.660909,36.4504054 C239.641667,36.8413664 239.77642,37.2243296 240.036364,37.5174324 C240.296613,37.7905641 240.610811,38.0068335 240.959091,38.1525676 C241.459295,38.3658756 241.971349,38.5503679 242.492727,38.7051351 C243.146065,38.8993006 243.784161,39.1413088 244.401818,39.4291892 C244.87677,39.6635636 245.292328,40.0023176 245.617273,40.42 C245.972251,40.9122238 246.149479,41.5100532 246.12,42.1158108 C246.178871,43.071734 245.759408,43.9946735 245,44.5801351 C244.03691,45.207596 242.895842,45.5062418 241.748182,45.4312162 C241.177734,45.4324597 240.607885,45.3942601 240.042727,45.3168919 Z" fill-rule="nonzero"></path>
                    <path d="M248.582727,30.422973 L248.582727,30.3531081 C248.582727,29.717973 248.862727,29.4385135 249.429091,29.4385135 L249.518182,29.4385135 C250.084545,29.4385135 250.364545,29.7433784 250.364545,30.3531081 L250.364545,30.422973 C250.364545,31.0581081 250.084545,31.3312162 249.518182,31.3312162 L249.454545,31.3312162 C248.862727,31.3312162 248.582727,31.0263514 248.582727,30.422973 Z M248.818182,33.6621622 L250.18,33.6621622 L250.18,45.0945946 L248.818182,45.0945946 L248.818182,33.6621622 Z" fill-rule="nonzero"></path>
                    <path d="M253.081818,39.3783784 C253.081818,35.3389189 254.73,33.3191892 258.026364,33.3191892 C261.322727,33.3191892 262.970909,35.3389189 262.970909,39.3783784 C262.970909,43.4093694 261.322727,45.426982 258.026364,45.4312162 C254.73,45.4354505 253.081818,43.4178378 253.081818,39.3783784 Z M260.718182,43.0494595 C261.342644,41.9309068 261.629926,40.656072 261.545455,39.3783784 C261.633326,38.1011966 261.348171,36.8259912 260.724545,35.7072973 C260.03496,34.9320682 259.045943,34.4884327 258.007273,34.4884327 C256.968603,34.4884327 255.979585,34.9320682 255.29,35.7072973 C254.672996,36.8279807 254.394498,38.1030689 254.488182,39.3783784 C254.401774,40.6554492 254.686838,41.9302446 255.309091,43.0494595 C256.000819,43.8209801 256.989042,44.2619358 258.026364,44.2619358 C259.063685,44.2619358 260.051908,43.8209801 260.743636,43.0494595 L260.718182,43.0494595 Z" fill-rule="nonzero"></path>
                    <path d="M265.853636,33.6621622 L266.929091,33.6621622 L267.024545,34.5259459 C268.229964,33.7619572 269.624898,33.3484638 271.052727,33.3318919 C271.616117,33.3246426 272.176979,33.4082879 272.713636,33.5795946 C273.172058,33.7189963 273.590799,33.9649671 273.935455,34.2972973 C274.2628,34.631937 274.510712,35.0356439 274.660909,35.4786486 C274.829935,36.0363855 274.909404,36.6173183 274.896364,37.1998649 L274.896364,45.0945946 L273.534545,45.0945946 L273.534545,37.5301351 C273.547999,37.0532989 273.496622,36.5768431 273.381818,36.1137838 C273.2921,35.7835199 273.11901,35.4817427 272.879091,35.2372973 C272.319561,34.7465422 271.58548,34.5015578 270.842727,34.5577027 C270.232973,34.5624451 269.626072,34.6413606 269.035455,34.7927027 C268.402324,34.9477867 267.789417,35.1758509 267.209091,35.4722973 L267.209091,45.0945946 L265.853636,45.0945946 L265.853636,33.6621622 Z" fill-rule="nonzero"></path>
                    <path d="M279.287273,45.3168919 C278.798241,45.2547125 278.315118,45.1527516 277.842727,45.012027 L277.963636,43.9386486 C278.919297,44.1881163 279.903102,44.3140564 280.890909,44.3133784 C281.711403,44.3626686 282.528777,44.1752561 283.245455,43.7735135 C283.776021,43.4319801 284.084014,42.8341269 284.053636,42.2047297 C284.07217,41.788589 283.933655,41.3806438 283.665455,41.0614865 C283.406388,40.7616126 283.082067,40.5248152 282.717273,40.3691892 C282.207114,40.1553981 281.684317,39.9729847 281.151818,39.822973 C280.518134,39.6262716 279.895691,39.3951614 279.287273,39.1306757 C278.815663,38.9197206 278.404399,38.5944011 278.090909,38.1843243 C277.743717,37.7033196 277.570907,37.1186911 277.600909,36.5266216 C277.550293,35.5886736 277.973036,34.6876108 278.727273,34.1258108 C279.632136,33.5362781 280.70324,33.253429 281.781818,33.3191892 C282.271559,33.3226847 282.760521,33.3587557 283.245455,33.4271622 C283.71159,33.4825967 284.171681,33.58039 284.62,33.7193243 L284.55,34.7672973 C283.649498,34.5646182 282.730301,34.45606 281.807273,34.4433784 C281.055935,34.3948453 280.306609,34.5647176 279.65,34.9324324 C279.158125,35.2763747 278.88282,35.8524339 278.924545,36.4504054 C278.908635,36.840876 279.042964,37.2226333 279.3,37.5174324 C279.561426,37.7891874 279.875319,38.0052473 280.222727,38.1525676 C280.725161,38.3657167 281.239323,38.5502032 281.762727,38.7051351 C282.415831,38.8999903 283.053877,39.1419796 283.671818,39.4291892 C284.149005,39.660084 284.565298,39.9994369 284.887273,40.42 C285.244509,40.9114075 285.424002,41.5093076 285.396364,42.1158108 C285.447305,43.0663003 285.026027,43.9808711 284.27,44.5610811 C283.304194,45.1877618 282.16139,45.4862777 281.011818,45.4121622 C280.43544,45.4209213 279.859161,45.3890855 279.287273,45.3168919 Z" fill-rule="nonzero"></path>
                    <path d="M11.3272727,46.4474324 C10.134717,46.4500704 8.99003993,45.9793739 8.14545455,45.1390541 L1.31090909,38.2986486 C0.465364382,37.4580898 -0.00688903738,36.3140565 -4.94545268e-16,35.122973 L-4.94545268e-16,1.30202703 C-6.51266692e-16,0.600476129 0.569819409,0.0317567568 1.27272727,0.0317567568 L10.43,0.0317567568 C11.1329079,0.0317567568 11.7027273,0.600476129 11.7027273,1.30202703 L11.7027273,33.6240541 C11.6698353,34.0459633 11.823501,34.4611213 12.1233164,34.7603579 C12.4231318,35.0595945 12.8390929,35.2129636 13.2618182,35.1801351 L29.9090909,35.1801351 C30.6119988,35.1801351 31.1818182,35.7488545 31.1818182,36.4504054 L31.1818182,45.1898649 C31.1818182,45.8914158 30.6119988,46.4601351 29.9090909,46.4601351 L11.3272727,46.4474324 Z" fill-rule="nonzero"></path>
                    <path d="M70.8209091,46.4474324 C72.0142965,46.4543082 73.1605426,45.9829664 74.0027273,45.1390541 L80.8181818,38.2986486 C81.6637265,37.4580898 82.1359799,36.3140565 82.1290909,35.122973 L82.1290909,1.30202703 C82.1290909,0.600476129 81.5592715,0.0317567568 80.8563636,0.0317567568 L71.7118182,0.0317567568 C71.0089103,0.0317567568 70.4390909,0.600476129 70.4390909,1.30202703 L70.4390909,33.6240541 C70.4719829,34.0459633 70.3183171,34.4611213 70.0185017,34.7603579 C69.7186863,35.0595945 69.3027253,35.2129636 68.88,35.1801351 L56.3309091,35.1801351 C55.9081838,35.2129636 55.4922227,35.0595945 55.1924073,34.7603579 C54.8925919,34.4611213 54.7389262,34.0459633 54.7718182,33.6240541 L54.7718182,1.30202703 C54.7718182,0.600476129 54.2019988,0.0317567568 53.4990909,0.0317567568 L44.3418182,0.0317567568 C43.6389103,0.0317567568 43.0690909,0.600476129 43.0690909,1.30202703 L43.0690909,35.1356757 C43.0622019,36.3267592 43.5344553,37.4707925 44.38,38.3113514 L51.2336364,45.1390541 C52.0782217,45.9793739 53.2228988,46.4500704 54.4154545,46.4474324 L70.8209091,46.4474324 Z" fill-rule="nonzero"></path>
                    <path d="M94.0227273,35.142027 C94.0200842,36.3322806 94.4916911,37.4747478 95.3336364,38.3177027 L102.187273,45.1454054 C103.029457,45.9893178 104.175704,46.4606595 105.369091,46.4537838 L128.278182,46.4537838 C128.98109,46.4537838 129.550909,45.8850644 129.550909,45.1835135 L129.550909,36.4377027 C129.550909,35.7361518 128.98109,35.1674324 128.278182,35.1674324 L107.246364,35.1674324 C106.8247,35.1983058 106.410518,35.0440713 106.112167,34.7450762 C105.813816,34.4460811 105.660979,34.0320715 105.693636,33.6113514 L105.693636,12.8678378 C105.660979,12.4471177 105.813816,12.0331081 106.112167,11.734113 C106.410518,11.4351179 106.8247,11.2808834 107.246364,11.3117568 L128.278182,11.3117568 C128.98109,11.3117568 129.550909,10.7430374 129.550909,10.0414865 L129.550909,1.27027027 C129.550909,0.568719372 128.98109,-5.79221458e-16 128.278182,-6.22182969e-16 L105.369091,-6.22182969e-16 C104.175704,-0.00687573808 103.029457,0.464465995 102.187273,1.30837838 L95.3336364,8.13608108 C94.4916911,8.97903599 94.0200842,10.1215032 94.0227273,11.3117568 L94.0227273,35.142027 Z" fill-rule="nonzero"></path>
                    <path d="M179.072727,8.18689189 C178.029091,7.14527027 173.230909,2.34364865 172.231818,1.35283784 C171.389634,0.508925454 170.243387,0.0375837214 169.05,0.0444594595 L152.650909,0.0444594595 C151.457522,0.0375837214 150.311276,0.508925454 149.469091,1.35283784 C148.476364,2.34364865 143.678182,7.14527027 142.628182,8.18689189 C141.786237,9.0298468 141.31463,10.172314 141.317273,11.3625676 L141.317273,45.1898649 C141.317273,45.8914158 141.887092,46.4601351 142.59,46.4601351 L151.76,46.4601351 C152.462908,46.4601351 153.032727,45.8914158 153.032727,45.1898649 L153.032727,31.852027 C152.999835,31.4301178 153.153501,31.0149598 153.453316,30.7157232 C153.753132,30.4164866 154.169093,30.2631175 154.591818,30.2959459 L167.16,30.2959459 C167.581664,30.2650726 167.995846,30.4193071 168.294196,30.7183022 C168.592547,31.0172973 168.745385,31.4313069 168.712727,31.852027 L168.712727,45.1898649 C168.712727,45.8914158 169.282547,46.4601351 169.985455,46.4601351 L179.149091,46.4601351 C179.851999,46.4601351 180.421818,45.8914158 180.421818,45.1898649 L180.421818,11.3498649 C180.415226,10.1576496 179.929149,9.01803076 179.072727,8.18689189 Z M168.693636,20.4640541 C168.726294,20.8847742 168.573456,21.2987838 168.275106,21.5977789 C167.976755,21.896774 167.562573,22.0510085 167.140909,22.0201351 L154.572727,22.0201351 C154.150002,22.0529636 153.734041,21.8995945 153.434226,21.6003579 C153.13441,21.3011213 152.980744,20.8859633 153.013636,20.4640541 L153.013636,12.8424324 C152.982703,12.4215825 153.137236,12.0082003 153.43681,11.7104256 C153.736383,11.4126508 154.151193,11.2601083 154.572727,11.2927027 L167.140909,11.2927027 C167.561948,11.2598541 167.976304,11.4125473 168.274932,11.7105987 C168.57356,12.0086502 168.726549,12.422206 168.693636,12.8424324 L168.693636,20.4640541 Z" fill-rule="nonzero"></path>
                    <path d="M179.072727,8.18689189 C178.029091,7.14527027 173.230909,2.34364865 172.231818,1.35283784 C171.389634,0.508925454 170.243387,0.0375837214 169.05,0.0444594595 L152.650909,0.0444594595 C151.457522,0.0375837214 150.311276,0.508925454 149.469091,1.35283784 C148.476364,2.34364865 143.678182,7.14527027 142.628182,8.18689189 C141.786237,9.0298468 141.31463,10.172314 141.317273,11.3625676 L141.317273,45.1898649 C141.317273,45.8914158 141.887092,46.4601351 142.59,46.4601351 L151.76,46.4601351 C152.462908,46.4601351 153.032727,45.8914158 153.032727,45.1898649 L153.032727,31.852027 C152.999835,31.4301178 153.153501,31.0149598 153.453316,30.7157232 C153.753132,30.4164866 154.169093,30.2631175 154.591818,30.2959459 L167.16,30.2959459 C167.581664,30.2650726 167.995846,30.4193071 168.294196,30.7183022 C168.592547,31.0172973 168.745385,31.4313069 168.712727,31.852027 L168.712727,45.1898649 C168.712727,45.8914158 169.282547,46.4601351 169.985455,46.4601351 L179.149091,46.4601351 C179.851999,46.4601351 180.421818,45.8914158 180.421818,45.1898649 L180.421818,11.3498649 C180.415226,10.1576496 179.929149,9.01803076 179.072727,8.18689189 Z M168.693636,20.4640541 C168.726294,20.8847742 168.573456,21.2987838 168.275106,21.5977789 C167.976755,21.896774 167.562573,22.0510085 167.140909,22.0201351 L154.572727,22.0201351 C154.150002,22.0529636 153.734041,21.8995945 153.434226,21.6003579 C153.13441,21.3011213 152.980744,20.8859633 153.013636,20.4640541 L153.013636,12.8424324 C152.982703,12.4215825 153.137236,12.0082003 153.43681,11.7104256 C153.736383,11.4126508 154.151193,11.2601083 154.572727,11.2927027 L167.140909,11.2927027 C167.561948,11.2598541 167.976304,11.4125473 168.274932,11.7105987 C168.57356,12.0086502 168.726549,12.422206 168.693636,12.8424324 L168.693636,20.4640541 Z" fill-rule="nonzero"></path>
                </g>
            </g>
        </g>
    </g>
</svg>
