
<svg width="102px" height="125px" viewBox="0 0 102 125" version="1.1" xmlns="http://www.w3.org/2000/svg" xmlns:xlink="http://www.w3.org/1999/xlink">
    <!-- Generator: Sketch 49.1 (51147) - http://www.bohemiancoding.com/sketch -->
    <desc>Created with Sketch.</desc>
    <defs></defs>
    <g id="Page-1" stroke="none" stroke-width="1" fill="none" fill-rule="evenodd">
        <g id="Brand" transform="translate(-458.000000, -1916.000000)">
            <g id="35-mm" transform="translate(458.000000, 1908.000000)">
                <g transform="translate(0.000000, 50.000000)" fill-rule="evenodd" stroke-width="1">
                    <g transform="translate(0.000000, 61.000000)">
                        <rect id="ruler-end" fill="#CCCCCC" x="99" y="8" width="1" height="5"></rect>
                        <rect id="ruler-end" fill="#CCCCCC" x="0" y="8" width="1" height="5"></rect>
                        <rect id="ruler-line" fill="#CCCCCC" x="0" y="10" width="100" height="1"></rect>
                        <rect id="label-box" fill="#CCCCCC" x="28" y="0" width="42" height="22" rx="2"></rect>
                        <text id="35mm" font-family="HelveticaNeue-Medium, Helvetica Neue" font-size="12" font-weight="400" fill="#FFFFFF">
                            <tspan x="31.888" y="15">35mm</tspan>
                        </text>
                    </g>
                    <g id="LUCA-AI-Copy-2" fill="#2C2C2C">
                        <path d="M2.73295775,31.5617391 L3.5765493,31.5617391 L6.2328169,39.4747826 L5.50077465,39.4747826 L4.80359155,37.3113043 L1.60700704,37.3113043 L0.944683099,39.4747826 L0.2475,39.4747826 L2.73295775,31.5617391 Z M4.59792254,36.72 L3.13732394,32.2782609 L1.79176056,36.72 L4.59792254,36.72 Z" id="Shape" fill-rule="nonzero"></path>
                        <polygon id="Shape" fill-rule="nonzero" points="7.52957746 31.5617391 8.22676056 31.5617391 8.22676056 39.4747826 7.52957746 39.4747826"></polygon>
                        <path d="M12.6085563,31.5617391 L14.8116549,31.5617391 C15.2239026,31.5534134 15.6354114,31.600206 16.0352113,31.7008696 C16.3568065,31.7855104 16.6502483,31.9535089 16.8857746,32.1878261 C17.0823662,32.3916715 17.2291039,32.6380782 17.3145423,32.9078261 C17.4193107,33.2348454 17.4699397,33.576722 17.4644366,33.92 C17.5171151,34.5972814 17.3061143,35.2687591 16.8753169,35.7947826 C16.3802121,36.2534559 15.7152357,36.484299 15.0417254,36.4313043 L13.2987676,36.4313043 L13.2987676,39.4747826 L12.6015845,39.4747826 L12.6085563,31.5617391 Z M14.7628521,35.826087 C15.0924186,35.8363474 15.4218743,35.8024213 15.7423944,35.7252174 C15.9596724,35.6687771 16.158114,35.5559738 16.3175704,35.3982609 C16.4756273,35.2358583 16.5896006,35.035945 16.6487324,34.8173913 C16.7166878,34.5315945 16.74484,34.2378155 16.7323944,33.9443478 C16.7654996,33.4718203 16.6255232,33.0033727 16.3384859,32.626087 C16.1801342,32.4537714 15.9737587,32.3326406 15.7458803,32.2782609 C15.4121179,32.2027254 15.0700593,32.1699973 14.727993,32.1808696 L13.3022535,32.1808696 L13.3022535,35.826087 L14.7628521,35.826087 Z" id="Shape" fill-rule="nonzero"></path>
                        <path d="M18.1616197,36.64 C18.1616197,34.6434783 18.975,33.6452174 20.6017606,33.6452174 C22.2285211,33.6452174 23.0419014,34.6434783 23.0419014,36.64 C23.0419014,38.6365217 22.2285211,39.6347826 20.6017606,39.6347826 C18.975,39.6347826 18.1616197,38.6365217 18.1616197,36.64 Z M21.9612676,38.4556522 C22.2709637,37.902767 22.4126785,37.2718891 22.3691197,36.64 C22.4126785,36.0081109 22.2709637,35.377233 21.9612676,34.8243478 C21.6501289,34.4034164 21.1412224,34.1752411 20.6191901,34.2226087 C20.0960841,34.1746822 19.5858789,34.4028472 19.2736268,34.8243478 C18.9639307,35.377233 18.8222158,36.0081109 18.8657746,36.64 C18.8222158,37.2718891 18.9639307,37.902767 19.2736268,38.4556522 C19.5858789,38.8771528 20.0960841,39.1053178 20.6191901,39.0573913 C21.1412224,39.1047589 21.6501289,38.8765836 21.9612676,38.4556522 Z" id="Shape" fill-rule="nonzero"></path>
                        <polygon id="Shape" fill-rule="nonzero" points="23.7042254 33.8052174 24.4014085 33.8052174 25.7678873 38.733913 27.0925352 33.8052174 27.7897183 33.8052174 29.3095775 38.8034783 30.5610211 33.8052174 31.1989437 33.8052174 29.6790845 39.4747826 28.9330986 39.4747826 27.4620423 34.6747826 26.1443662 39.4747826 25.3600352 39.4747826"></polygon>
                        <path d="M32.4991901,38.8765217 C32.0669366,38.3663768 31.8508099,37.6243478 31.8508099,36.6504348 C31.8082725,35.8765228 32.013356,35.1091484 32.4364437,34.4591304 C32.8431391,33.9135343 33.4994121,33.611002 34.1794014,33.6556522 C35.6713732,33.6556522 36.4173592,34.6655072 36.4173592,36.6852174 L36.4173592,36.7895652 C36.4203199,36.8243402 36.4103978,36.8589913 36.3894718,36.8869565 C36.3578215,36.9115439 36.3177775,36.9227816 36.2779225,36.9182609 L32.5584507,36.9182609 C32.531085,37.4945146 32.7047859,38.0624127 33.0499648,38.5252174 C33.3636972,38.8869565 33.8796127,39.0678261 34.5977113,39.0678261 C35.082621,39.063873 35.5655483,39.0055356 36.0373944,38.893913 L36.093169,39.44 C35.8548924,39.5099225 35.6112004,39.55995 35.3646127,39.5895652 C35.0954288,39.6266781 34.8241263,39.6464293 34.5523944,39.6486957 C33.618169,39.6510145 32.9337676,39.3936232 32.4991901,38.8765217 Z M35.7480634,36.3721739 C35.7784206,35.8154443 35.6425459,35.2622446 35.3576408,34.7826087 C35.0889525,34.3940143 34.6337896,34.1768633 34.1619718,34.2121739 C33.6913268,34.1878983 33.2402398,34.4024792 32.9628169,34.7826087 C32.6673911,35.2587428 32.5228161,35.8127401 32.547993,36.3721739 L35.7480634,36.3721739 Z" id="Shape" fill-rule="nonzero"></path>
                        <path d="M37.8675,33.8052174 L38.4008451,33.8052174 L38.4601056,34.2921739 C38.7078186,34.087022 38.9882568,33.924772 39.2897535,33.8121739 C39.5608231,33.7056562 39.84901,33.6490881 40.1403169,33.6452174 C40.2483803,33.6452174 40.3425,33.6452174 40.4191901,33.6452174 L40.4191901,34.2678261 C40.2936972,34.2678261 40.1647183,34.2678261 40.0252817,34.2678261 C39.4931642,34.2684711 38.9743395,34.4337416 38.5402817,34.7408696 L38.5402817,39.4747826 L37.8675,39.4747826 L37.8675,33.8052174 Z" id="Shape" fill-rule="nonzero"></path>
                        <path d="M41.6462324,38.8765217 C41.2139789,38.3663768 40.9978521,37.6243478 40.9978521,36.6504348 C40.9553148,35.8765228 41.1603983,35.1091484 41.5834859,34.4591304 C41.9901813,33.9135343 42.6464543,33.611002 43.3264437,33.6556522 C44.8184155,33.6556522 45.5644014,34.6655072 45.5644014,36.6852174 L45.5644014,36.7895652 C45.5673622,36.8243402 45.5574401,36.8589913 45.5365141,36.8869565 C45.5048638,36.9115439 45.4648198,36.9227816 45.4249648,36.9182609 L41.705493,36.9182609 C41.6763675,37.4947329 41.8502462,38.063212 42.197007,38.5252174 C42.5107394,38.8869565 43.0266549,39.0678261 43.7447535,39.0678261 C44.2296633,39.063873 44.7125906,39.0055356 45.1844366,38.893913 L45.2402113,39.44 C45.0019347,39.5099225 44.7582426,39.55995 44.5116549,39.5895652 C44.242458,39.6265541 43.9711634,39.6463047 43.6994366,39.6486957 C42.7652113,39.6521739 42.0784859,39.3913043 41.6462324,38.8765217 Z M44.8951056,36.3721739 C44.9254629,35.8154443 44.7895882,35.2622446 44.5046831,34.7826087 C44.2372924,34.3962541 43.7853966,34.1793973 43.3159859,34.2121739 C42.8429245,34.185493 42.3886558,34.4003383 42.1098592,34.7826087 C41.8144334,35.2587428 41.6698584,35.8127401 41.6950352,36.3721739 L44.8951056,36.3721739 Z" id="Shape" fill-rule="nonzero"></path>
                        <path d="M46.735669,36.6608696 C46.6892296,35.8761159 46.8930187,35.0968427 47.3178169,34.4347826 C47.7232462,33.887633 48.3804205,33.5846852 49.0607746,33.6313043 C49.6108552,33.6361591 50.1519753,33.7708441 50.6398944,34.0243478 L50.6398944,31.2034783 L51.3126761,31.2034783 L51.3126761,39.4747826 L50.779331,39.4747826 L50.7444718,39.1269565 C50.4949006,39.2841293 50.2252134,39.4069771 49.9427113,39.4921739 C49.6573767,39.5827946 49.3601884,39.6308498 49.0607746,39.6347826 C47.5107042,39.6463768 46.735669,38.6550725 46.735669,36.6608696 Z M49.872993,38.9426087 C50.1378185,38.8773377 50.3949077,38.784056 50.6398944,38.6643478 L50.6398944,34.5913043 C50.1863468,34.3750664 49.6922459,34.2565529 49.1897535,34.2434783 C48.6667638,34.1962481 48.1568858,34.4242668 47.8441901,34.8452174 C47.5373972,35.3991084 47.397011,36.0294589 47.4398239,36.6608696 C47.3937074,37.2901583 47.5304765,37.919364 47.8337324,38.4730435 C48.1199886,38.8782427 48.6007038,39.1008472 49.0956338,39.0573913 C49.3555752,39.0550123 49.614265,39.0211411 49.8660211,38.9565217 L49.872993,38.9426087 Z" id="Shape" fill-rule="nonzero"></path>
                        <path d="M55.4992606,31.5617391 L57.3677113,31.5617391 C57.9551652,31.5453667 58.5419814,31.6121168 59.110669,31.76 C59.5345768,31.8736252 59.9191732,32.1009892 60.2226761,32.4173913 C60.7943662,33.0434783 61.0836972,34.0626087 61.0836972,35.4817391 C61.0985372,36.1692699 61.0044191,36.8548229 60.8048239,37.5130435 C60.668972,37.9910882 60.413457,38.426784 60.0623239,38.7791304 C59.5673239,39.2428986 58.7678873,39.4747826 57.6640141,39.4747826 L55.5166901,39.4747826 L55.4992606,31.5617391 Z M57.5908099,38.866087 C58.5076056,38.866087 59.1699296,38.6713043 59.5708099,38.2782609 C59.8672992,37.975751 60.0778379,37.6000145 60.1808451,37.1895652 C60.3194409,36.6334891 60.3839055,36.0615982 60.3725704,35.4886957 C60.3836552,34.9443625 60.3250836,34.4008428 60.1982746,33.8713043 C60.1046362,33.4816904 59.9126297,33.1224687 59.6405282,32.8278261 C59.3897712,32.5860263 59.0795579,32.4144639 58.741162,32.3304348 C58.2916325,32.2222161 57.8300528,32.1719513 57.3677113,32.1808696 L56.2103873,32.1808696 L56.2103873,38.866087 L57.5908099,38.866087 Z" id="Shape" fill-rule="nonzero"></path>
                        <path d="M62.990493,38.8765217 C62.5559155,38.3663768 62.3386268,37.6243478 62.3386268,36.6504348 C62.2960894,35.8765228 62.5011729,35.1091484 62.9242606,34.4591304 C63.330956,33.9135343 63.987229,33.611002 64.6672183,33.6556522 C66.1591901,33.6556522 66.9051761,34.6655072 66.9051761,36.6852174 L66.9051761,36.7895652 C66.9081368,36.8243402 66.8982147,36.8589913 66.8772887,36.8869565 C66.8456384,36.9115439 66.8055944,36.9227816 66.7657394,36.9182609 L63.0462676,36.9182609 C63.0203432,37.4943338 63.1938997,38.0617596 63.5377817,38.5252174 C63.8515141,38.8869565 64.3685915,39.0678261 65.0890141,39.0678261 C65.572759,39.0636421 66.0545058,39.0053061 66.5252113,38.893913 L66.5809859,39.44 C66.3427093,39.5099225 66.0990173,39.55995 65.8524296,39.5895652 C65.5832457,39.6266781 65.3119432,39.6464293 65.0402113,39.6486957 C64.1059859,39.6510145 63.4227465,39.3936232 62.990493,38.8765217 Z M66.2358803,36.3721739 C66.2683739,35.8152475 66.1323483,35.2614334 65.8454577,34.7826087 C65.578067,34.3962541 65.1261712,34.1793973 64.6567606,34.2121739 C64.180389,34.1783389 63.7207393,34.3944798 63.443662,34.7826087 C63.1455906,35.2577428 62.9996754,35.8122161 63.0253521,36.3721739 L66.2358803,36.3721739 Z" id="Shape" fill-rule="nonzero"></path>
                        <path d="M68.763169,38.9113043 C68.2983803,38.4313043 68.0659859,37.6927536 68.0659859,36.6956522 C68.0659859,35.6985507 68.2983803,34.937971 68.763169,34.413913 C69.2741119,33.8763341 69.9989144,33.5944476 70.7396831,33.6452174 C71.1878173,33.6370804 71.6342187,33.7028946 72.0608451,33.84 L72.0155282,34.3965217 C71.6308411,34.2876799 71.2336015,34.2292187 70.8338028,34.2226087 C70.083169,34.2226087 69.5533099,34.4173913 69.2442254,34.8069565 C68.9351408,35.1965217 68.7805986,35.8191304 68.7805986,36.6747826 C68.7805986,37.5118841 68.9467606,38.1194203 69.2790845,38.4973913 C69.6114085,38.8753623 70.1714789,39.062029 70.9592958,39.0573913 C71.1457289,39.0565676 71.3319572,39.0449538 71.5170423,39.0226087 C71.6914508,39.0049597 71.8648196,38.9782569 72.0364437,38.9426087 L72.0957042,39.4956522 C71.6739967,39.5928421 71.2421853,39.6395481 70.8094014,39.6347826 C69.8995775,39.6521739 69.216338,39.3947826 68.763169,38.9113043 Z" id="Shape" fill-rule="nonzero"></path>
                        <path d="M73.3297183,32.2086957 L73.3297183,32.173913 C73.3297183,31.8747826 73.4691549,31.7252174 73.7480282,31.7252174 L73.7933451,31.7252174 C74.0722183,31.7252174 74.2116549,31.8747826 74.2116549,32.173913 L74.2116549,32.2086957 C74.2116549,32.5113043 74.0722183,32.6608696 73.7933451,32.6608696 L73.7480282,32.6608696 C73.4691549,32.6608696 73.3297183,32.5113043 73.3297183,32.2086957 Z M73.4342958,33.8052174 L74.1070775,33.8052174 L74.1070775,39.4747826 L73.4342958,39.4747826 L73.4342958,33.8052174 Z" id="Shape" fill-rule="nonzero"></path>
                        <path d="M76.3415493,39.5791304 C76.1056701,39.5454531 75.8726315,39.4942971 75.6443662,39.426087 L75.7001408,38.893913 C76.1732817,39.0191621 76.6607733,39.0823033 77.1502817,39.0817391 C77.5562238,39.1073268 77.9608351,39.014253 78.3145775,38.813913 C78.5779734,38.6458338 78.7309492,38.3498451 78.7154577,38.0382609 C78.7246297,37.8320334 78.6562505,37.6298273 78.5237324,37.4713043 C78.395332,37.3212525 78.2344061,37.2023098 78.0531338,37.1234783 C77.8002112,37.0193336 77.541884,36.9287693 77.2792606,36.8521739 C76.9647598,36.7544331 76.6563029,36.6382898 76.355493,36.5043478 C76.1252654,36.3971152 75.9243689,36.2360349 75.7698592,36.0347826 C75.5985164,35.7962302 75.5125701,35.5071047 75.5258451,35.213913 C75.4978356,34.7536372 75.7001984,34.3094166 76.066162,34.0278261 C76.5152509,33.7382234 77.0452971,33.5993004 77.5790493,33.6313043 C77.8216328,33.6326012 78.0638599,33.6500312 78.3041197,33.6834783 C78.5336244,33.7091388 78.7601023,33.7568975 78.9803873,33.826087 L78.9455282,34.3478261 C78.5005279,34.2459749 78.046013,34.1911798 77.589507,34.1843478 C77.2177073,34.1593674 76.8467544,34.2440396 76.5228169,34.4278261 C76.2843148,34.6013308 76.1525042,34.8854166 76.1742254,35.1791304 C76.1656299,35.3720428 76.2332173,35.5606221 76.3624648,35.7043478 C76.4908631,35.8431323 76.6462374,35.9543774 76.8191197,36.0313043 C77.0673693,36.1352741 77.3210459,36.2258398 77.5790493,36.3026087 C77.8974538,36.3955315 78.2085463,36.5117897 78.5097887,36.6504348 C78.7465653,36.7644745 78.9531469,36.9324747 79.1128521,37.1408696 C79.2894544,37.3837599 79.3779677,37.679383 79.363838,37.9791304 C79.3898338,38.4497879 79.1810674,38.9028577 78.8060915,39.1895652 C78.329761,39.5193839 77.7571778,39.6820955 77.178169,39.6521739 C76.8979275,39.6473677 76.6183687,39.62296 76.3415493,39.5791304 Z" id="Shape" fill-rule="nonzero"></path>
                        <path d="M80.5873944,32.2086957 L80.5873944,32.173913 C80.5873944,31.8747826 80.7233451,31.7252174 81.0022183,31.7252174 L81.0510211,31.7252174 C81.3264085,31.7252174 81.4658451,31.8747826 81.4658451,32.173913 L81.4658451,32.2086957 C81.4658451,32.5113043 81.3264085,32.6608696 81.0510211,32.6608696 L81.0022183,32.6608696 C80.7233451,32.6608696 80.5873944,32.5113043 80.5873944,32.2086957 Z M80.6919718,33.8052174 L81.3612676,33.8052174 L81.3612676,39.4747826 L80.6919718,39.4747826 L80.6919718,33.8052174 Z" id="Shape" fill-rule="nonzero"></path>
                        <path d="M82.8218662,36.64 C82.8218662,34.6434783 83.6352465,33.6452174 85.262007,33.6452174 C86.8887676,33.6452174 87.7021479,34.6434783 87.7021479,36.64 C87.7021479,38.6365217 86.8887676,39.6347826 85.262007,39.6347826 C83.6352465,39.6347826 82.8218662,38.6365217 82.8218662,36.64 Z M86.6145423,38.4556522 C86.9228386,37.9023299 87.0633247,37.2715307 87.0189085,36.64 C87.0633247,36.0084693 86.9228386,35.3776701 86.6145423,34.8243478 C86.2725798,34.4414072 85.78301,34.2223913 85.2689789,34.2223913 C84.7549478,34.2223913 84.2653779,34.4414072 83.9234155,34.8243478 C83.6166225,35.3782388 83.4762363,36.0085894 83.5190493,36.64 C83.4762363,37.2714106 83.6166225,37.9017612 83.9234155,38.4556522 C84.2653779,38.8385928 84.7549478,39.0576087 85.2689789,39.0576087 C85.78301,39.0576087 86.2725798,38.8385928 86.6145423,38.4556522 Z" id="Shape" fill-rule="nonzero"></path>
                        <path d="M89.1522887,33.8052174 L89.6856338,33.8052174 L89.7309507,34.2330435 C90.3280531,33.856274 91.018456,33.6527393 91.7248944,33.6452174 C92.004788,33.6412422 92.2835712,33.6811486 92.5510563,33.7634783 C92.7748101,33.8324479 92.9798635,33.9514032 93.1506338,34.1113043 C93.3106608,34.2764878 93.4300006,34.4765384 93.4992254,34.6956522 C93.5827099,34.9706138 93.6215463,35.2571369 93.6142606,35.5443478 L93.6142606,39.4678261 L92.9414789,39.4678261 L92.9414789,35.7252174 C92.9484442,35.4909038 92.9226323,35.2567655 92.8647887,35.0295652 C92.8214661,34.8656763 92.736175,34.7158456 92.6172887,34.5947826 C92.3400331,34.3493976 91.9762807,34.2242412 91.6063732,34.2469565 C91.3054248,34.2501403 91.0058984,34.2886663 90.7139789,34.3617391 C90.4002191,34.441389 90.0971203,34.5581586 89.8111268,34.7095652 L89.8111268,39.4782609 L89.1383451,39.4782609 L89.1522887,33.8052174 Z" id="Shape" fill-rule="nonzero"></path>
                        <path d="M95.8138732,39.5791304 C95.5722192,39.5457319 95.3333659,39.4945784 95.0992606,39.426087 L95.1585211,38.893913 C95.6304183,39.0194495 96.1167961,39.0825983 96.6051761,39.0817391 C97.0121845,39.1067997 97.4177633,39.0137819 97.7729577,38.813913 C98.0344705,38.6444841 98.1858602,38.3489949 98.1703521,38.0382609 C98.1788451,37.832715 98.1119169,37.6311345 97.9821127,37.4713043 C97.8522823,37.3227897 97.6917293,37.2041227 97.5115141,37.1234783 C97.2573807,37.0194019 96.9978969,36.92884 96.7341549,36.8521739 C96.4205459,36.7551437 96.1132066,36.6389829 95.8138732,36.5043478 C95.5825131,36.3989391 95.3812079,36.2375312 95.2282394,36.0347826 C95.0553901,35.7969684 94.9692841,35.5073055 94.9842254,35.213913 C94.9584382,34.7603012 95.156247,34.3227014 95.5140845,34.0417391 C95.9633718,33.7525855 96.4932681,33.6137018 97.0269718,33.6452174 C97.2695601,33.6463895 97.5117956,33.6638201 97.7520423,33.6973913 C97.9826824,33.7230877 98.2103135,33.7708435 98.4317958,33.84 L98.3969366,34.3617391 C97.9519009,34.2600907 97.4974075,34.2052982 97.0409155,34.1982609 C96.6691158,34.1732805 96.2981628,34.2579526 95.9742254,34.4417391 C95.7346439,34.6143579 95.6025372,34.8990816 95.6256338,35.1930435 C95.6157105,35.3855308 95.6820734,35.5741874 95.8103873,35.7182609 C95.9387856,35.8570453 96.0941599,35.9682905 96.2670423,36.0452174 C96.5152918,36.1491871 96.7689684,36.2397528 97.0269718,36.3165217 C97.3462787,36.4101337 97.6584807,36.5263711 97.9611972,36.6643478 C98.1966834,36.7804006 98.4028397,36.9480549 98.5642606,37.1547826 C98.7381373,37.398845 98.8252541,37.6939019 98.8117606,37.9930435 C98.8373506,38.4628446 98.6301925,38.9152515 98.2575,39.2034783 C97.779374,39.5144509 97.2129943,39.662143 96.6435211,39.6243478 C96.3662533,39.6286054 96.0890268,39.6134961 95.8138732,39.5791304 Z" id="Shape" fill-rule="nonzero"></path>
                        <path d="M6.20492958,25.4365217 C5.55166336,25.4379664 4.92462449,25.1801937 4.46197183,24.72 L0.718098592,20.973913 C0.254920428,20.5135885 -0.00377372319,19.8870689 -2.70887913e-16,19.2347826 L-2.70887913e-16,0.713043478 C-3.56736396e-16,0.328845391 0.312139505,0.0173913043 0.697183099,0.0173913043 L5.71341549,0.0173913043 C6.09845909,0.0173913043 6.41059859,0.328845391 6.41059859,0.713043478 L6.41059859,18.413913 C6.3925808,18.6449679 6.47675685,18.8723255 6.64099175,19.0361997 C6.80522664,19.200074 7.03308459,19.2840652 7.26464789,19.266087 L16.3838028,19.266087 C16.7688464,19.266087 17.0809859,19.577541 17.0809859,19.9617391 L17.0809859,24.7478261 C17.0809859,25.1320242 16.7688464,25.4434783 16.3838028,25.4434783 L6.20492958,25.4365217 Z" id="Shape" fill-rule="nonzero"></path>
                        <path d="M38.7947535,25.4365217 C39.4484753,25.4402872 40.0763737,25.1821611 40.5377113,24.72 L44.2711268,20.973913 C44.7343049,20.5135885 44.9929991,19.8870689 44.9892254,19.2347826 L44.9892254,0.713043478 C44.9892254,0.328845391 44.6770858,0.0173913043 44.2920423,0.0173913043 L39.2827817,0.0173913043 C38.8977381,0.0173913043 38.5855986,0.328845391 38.5855986,0.713043478 L38.5855986,18.413913 C38.6036164,18.6449679 38.5194403,18.8723255 38.3552054,19.0361997 C38.1909705,19.200074 37.9631126,19.2840652 37.7315493,19.266087 L30.8573239,19.266087 C30.6257606,19.2840652 30.3979027,19.200074 30.2336678,19.0361997 C30.0694329,18.8723255 29.9852569,18.6449679 30.0032746,18.413913 L30.0032746,0.713043478 C30.0032746,0.328845391 29.6911351,0.0173913043 29.3060915,0.0173913043 L24.2898592,0.0173913043 C23.9048156,0.0173913043 23.5926761,0.328845391 23.5926761,0.713043478 L23.5926761,19.2417391 C23.5889023,19.8940254 23.8475965,20.520545 24.3107746,20.9808696 L28.0651056,24.72 C28.5277583,25.1801937 29.1547972,25.4379664 29.8080634,25.4365217 L38.7947535,25.4365217 Z" id="Shape" fill-rule="nonzero"></path>
                        <path d="M51.5044014,19.2452174 C51.5029536,19.8970491 51.7612936,20.5227111 52.2225,20.9843478 L55.976831,24.7234783 C56.4381686,25.1856393 57.066067,25.4437654 57.7197887,25.44 L70.2690845,25.44 C70.6541281,25.44 70.9662676,25.1285459 70.9662676,24.7443478 L70.9662676,19.9547826 C70.9662676,19.5705845 70.6541281,19.2591304 70.2690845,19.2591304 L58.7481338,19.2591304 C58.5171519,19.276038 58.2902686,19.1915728 58.126836,19.0278308 C57.9634035,18.8640888 57.8796811,18.6373602 57.8975704,18.4069565 L57.8975704,7.04695652 C57.8796811,6.81655287 57.9634035,6.58982424 58.126836,6.42608224 C58.2902686,6.26234023 58.5171519,6.17787507 58.7481338,6.19478261 L70.2690845,6.19478261 C70.6541281,6.19478261 70.9662676,5.88332852 70.9662676,5.49913043 L70.9662676,0.695652174 C70.9662676,0.311454087 70.6541281,-3.17217227e-16 70.2690845,-3.40744414e-16 L57.7197887,-3.40744414e-16 C57.066067,-0.00376543658 56.4381686,0.254360656 55.976831,0.716521739 L52.2225,4.45565217 C51.7612936,4.91728891 51.5029536,5.54295088 51.5044014,6.19478261 L51.5044014,19.2452174 Z" id="Shape" fill-rule="nonzero"></path>
                        <path d="M98.093662,4.48347826 C97.5219718,3.91304348 94.8935915,1.28347826 94.3463028,0.740869565 C93.8849652,0.278708482 93.2570668,0.0205823895 92.6033451,0.0243478261 L83.6201408,0.0243478261 C82.9664191,0.0205823895 82.3385207,0.278708482 81.8771831,0.740869565 C81.3333803,1.28347826 78.705,3.91304348 78.1298239,4.48347826 C77.6686175,4.94511499 77.4102775,5.57077697 77.4117254,6.2226087 L77.4117254,24.7478261 C77.4117254,25.1320242 77.7238649,25.4434783 78.1089085,25.4434783 L83.1321127,25.4434783 C83.5171563,25.4434783 83.8292958,25.1320242 83.8292958,24.7478261 L83.8292958,17.4434783 C83.811278,17.2124234 83.895454,16.9850658 84.0596889,16.8211916 C84.2239238,16.6573173 84.4517818,16.5733261 84.6833451,16.5913043 L91.5680282,16.5913043 C91.7990101,16.5743968 92.0258934,16.658862 92.1893259,16.822604 C92.3527585,16.986346 92.4364809,17.2130746 92.4185915,17.4434783 L92.4185915,24.7478261 C92.4185915,25.1320242 92.7307311,25.4434783 93.1157746,25.4434783 L98.135493,25.4434783 C98.5205366,25.4434783 98.8326761,25.1320242 98.8326761,24.7478261 L98.8326761,6.21565217 C98.829065,5.56274612 98.5627983,4.93864404 98.093662,4.48347826 Z M92.4081338,11.2069565 C92.4260231,11.4373602 92.3423007,11.6640888 92.1788682,11.8278308 C92.0154356,11.9915728 91.7885524,12.076038 91.5575704,12.0591304 L84.6728873,12.0591304 C84.441324,12.0771087 84.2134661,11.9931174 84.0492312,11.8292432 C83.8849963,11.6653689 83.8008202,11.4380113 83.818838,11.2069565 L83.818838,7.03304348 C83.8018933,6.80256875 83.8865443,6.57618368 84.0506467,6.41311002 C84.214749,6.25003635 84.4419766,6.1664978 84.6728873,6.18434783 L91.5575704,6.18434783 C91.7882101,6.16635857 92.0151887,6.24997965 92.1787731,6.41320486 C92.3423575,6.57643006 92.4261626,6.80291021 92.4081338,7.03304348 L92.4081338,11.2069565 Z" id="Shape" fill-rule="nonzero"></path>
                        <path d="M98.093662,4.48347826 C97.5219718,3.91304348 94.8935915,1.28347826 94.3463028,0.740869565 C93.8849652,0.278708482 93.2570668,0.0205823895 92.6033451,0.0243478261 L83.6201408,0.0243478261 C82.9664191,0.0205823895 82.3385207,0.278708482 81.8771831,0.740869565 C81.3333803,1.28347826 78.705,3.91304348 78.1298239,4.48347826 C77.6686175,4.94511499 77.4102775,5.57077697 77.4117254,6.2226087 L77.4117254,24.7478261 C77.4117254,25.1320242 77.7238649,25.4434783 78.1089085,25.4434783 L83.1321127,25.4434783 C83.5171563,25.4434783 83.8292958,25.1320242 83.8292958,24.7478261 L83.8292958,17.4434783 C83.811278,17.2124234 83.895454,16.9850658 84.0596889,16.8211916 C84.2239238,16.6573173 84.4517818,16.5733261 84.6833451,16.5913043 L91.5680282,16.5913043 C91.7990101,16.5743968 92.0258934,16.658862 92.1893259,16.822604 C92.3527585,16.986346 92.4364809,17.2130746 92.4185915,17.4434783 L92.4185915,24.7478261 C92.4185915,25.1320242 92.7307311,25.4434783 93.1157746,25.4434783 L98.135493,25.4434783 C98.5205366,25.4434783 98.8326761,25.1320242 98.8326761,24.7478261 L98.8326761,6.21565217 C98.829065,5.56274612 98.5627983,4.93864404 98.093662,4.48347826 Z M92.4081338,11.2069565 C92.4260231,11.4373602 92.3423007,11.6640888 92.1788682,11.8278308 C92.0154356,11.9915728 91.7885524,12.076038 91.5575704,12.0591304 L84.6728873,12.0591304 C84.441324,12.0771087 84.2134661,11.9931174 84.0492312,11.8292432 C83.8849963,11.6653689 83.8008202,11.4380113 83.818838,11.2069565 L83.818838,7.03304348 C83.8018933,6.80256875 83.8865443,6.57618368 84.0506467,6.41311002 C84.214749,6.25003635 84.4419766,6.1664978 84.6728873,6.18434783 L91.5575704,6.18434783 C91.7882101,6.16635857 92.0151887,6.24997965 92.1787731,6.41320486 C92.3423575,6.57643006 92.4261626,6.80291021 92.4081338,7.03304348 L92.4081338,11.2069565 Z" id="Shape" fill-rule="nonzero"></path>
                    </g>
                </g>
                <text id="printed-applications" font-family="Telefonica-Regular, Telefonica" font-size="12" font-weight="normal" line-spacing="24" fill="#999999">
                    <tspan x="2" y="12">printed applications</tspan>
                </text>
            </g>
        </g>
    </g>
</svg>
