
<svg width="402px" height="139px" viewBox="0 0 402 139" version="1.1" xmlns="http://www.w3.org/2000/svg" xmlns:xlink="http://www.w3.org/1999/xlink">
    <!-- Generator: Sketch 49.1 (51147) - http://www.bohemiancoding.com/sketch -->
    <desc>Created with Sketch.</desc>
    <defs></defs>
    <g id="Page-1" stroke="none" stroke-width="1" fill="none" fill-rule="evenodd">
        <g id="Brand" transform="translate(-209.000000, -1435.000000)">
            <g id="Logo-claim-2-Copy" transform="translate(209.000000, 1435.000000)">
                <g transform="translate(0.000000, 28.000000)">
                    <path d="M15.2744374,60.9498218 C13.6791046,60.9632706 12.143364,60.3617852 11.0038578,59.2772141 L1.72223519,50.1782287 C0.60563144,49.0714121 -0.0136187727,47.5797283 0.000227291974,46.0301618 L0.000227291974,1.67260762 C0.000227291974,0.74885194 0.77119649,1.69691166e-16 1.72223519,0 L14.0690318,0 C15.0200705,5.6563722e-17 15.7910397,0.74885194 15.7910397,1.67260762 L15.7910397,44.1233891 C15.7494956,44.6759709 15.957456,45.2187787 16.3608018,45.6105534 C16.7641476,46.0023282 17.3229872,46.2043227 17.8918894,46.1639704 L40.2779921,46.1639704 C41.2290308,46.1639704 42,46.9128223 42,47.836578 L42,59.3273924 C42,60.2511481 41.2290308,61 40.2779921,61 L15.2744374,60.9498218 Z" id="Shape" fill="#1D1D1B" fill-rule="nonzero"></path>
                    <path d="M93.2521152,60.999779 C94.7976797,61.0132389 96.285511,60.4112605 97.3894691,59.3258005 L106.331492,50.2193571 C107.413262,49.1116333 108.013194,47.6187268 107.99978,46.0678902 L107.99978,1.67397857 C107.99978,0.749465734 107.252862,5.66100842e-17 106.331492,0 L94.4199167,0 C93.4985468,-5.66100842e-17 92.7516288,0.749465734 92.7516288,1.67397857 L92.7516288,44.1595546 C92.791877,44.7125893 92.5904041,45.2558421 92.1996412,45.6479379 C91.8088782,46.0400338 91.2674723,46.2421939 90.7163177,46.2018085 L74.333731,46.2018085 C73.7825763,46.2421939 73.2411704,46.0400338 72.8504075,45.6479379 C72.4596445,45.2558421 72.2581717,44.7125893 72.2984198,44.1595546 L72.2984198,1.67397857 C72.2984198,0.749465734 71.5515019,5.66100842e-17 70.6301319,0 L58.6685081,0 C57.7471381,-5.66100842e-17 57.0002202,0.749465734 57.0002202,1.67397857 L57.0002202,46.1515891 C56.9868061,47.7024258 57.5867381,49.1953322 58.6685081,50.303056 L67.6105309,59.2755811 C68.714489,60.3610412 70.2023203,60.9630196 71.7478848,60.9495597 L93.2521152,60.999779 Z" id="Shape" fill="#1D1D1B" fill-rule="nonzero"></path>
                    <path d="M123.000218,46.1897619 C122.986933,47.741861 123.581112,49.2359828 124.652509,50.3446083 L133.541835,59.3244376 C134.635207,60.4107812 136.108772,61.0132497 137.639516,60.9997789 L167.29814,60.9997789 C168.210675,60.9997789 168.950431,60.249703 168.950431,59.3244376 L168.950431,47.89861 C168.950431,46.9733446 168.210675,46.2232687 167.29814,46.2232687 L140.150999,46.2232687 C139.605129,46.263687 139.068915,46.0613623 138.681899,45.6689473 C138.294883,45.2765322 138.095342,44.7328372 138.135204,44.1793523 L138.135204,16.9047962 C138.100365,16.3541171 138.302129,15.8150728 138.68853,15.4264925 C139.074931,15.0379123 139.608201,14.8377779 140.150999,14.8776332 L167.347709,14.8776332 C168.260244,14.8776332 169,14.1275574 169,13.202292 L169,1.6759439 C169,0.750678455 168.260244,0.000602611577 167.347709,0.000602611577 L137.672562,0.000602611577 C136.130412,-0.0218019417 134.643326,0.581330799 133.541835,1.6759439 L124.702078,10.68928 C123.630681,11.7979055 123.036501,13.2920273 123.049787,14.8441264 L123.000218,46.1897619 Z" id="Shape" fill="#1D1D1B" fill-rule="nonzero"></path>
                    <path d="M234.248863,10.6613532 L225.309726,1.67649987 C224.206124,0.589548416 222.718773,-0.0132571154 221.173707,0.000221256055 L199.743126,0.000221256055 C198.19806,-0.0132571154 196.710709,0.589548416 195.607107,1.67649987 L186.66797,10.6613532 C185.586549,11.770599 184.98681,13.2655567 185.00022,14.8185242 L185.00022,59.3237214 C185.00022,60.2495045 185.746897,61 186.66797,61 L198.642411,61 C199.563484,61 200.310161,60.2495045 200.310161,59.3237214 L200.310161,41.8066099 C200.278081,41.2826869 200.461831,40.7685685 200.818279,40.3849326 C201.174728,40.0012968 201.672487,39.781926 202.194718,39.7783128 L218.605373,39.7783128 C219.161529,39.7228741 219.713784,39.9161985 220.115348,40.3069003 C220.516912,40.697602 220.727105,41.2461025 220.69006,41.8066099 L220.69006,59.3237214 C220.69006,60.2495045 221.436736,61 222.357809,61 L234.33225,61 C235.253323,61 236,60.2495045 236,59.3237214 L236,14.835287 C235.995752,13.2644522 235.364965,11.7609359 234.248863,10.6613532 Z M220.69006,26.8039163 C220.730295,27.3577108 220.528887,27.90171 220.13825,28.2943446 C219.747613,28.6869792 219.206382,28.8894171 218.655405,28.8489762 L202.194718,28.8489762 C201.643741,28.8894171 201.10251,28.6869792 200.711873,28.2943446 C200.321236,27.90171 200.119828,27.3577108 200.160063,26.8039163 L200.160063,16.7462446 C200.139754,16.2037699 200.34995,15.6782145 200.738167,15.3008056 C201.126384,14.9233966 201.65598,14.7297566 202.194718,14.7682358 L218.605373,14.7682358 C219.156349,14.7277949 219.697581,14.9302328 220.088218,15.3228674 C220.478854,15.715502 220.680262,16.2595012 220.640027,16.8132957 L220.69006,26.8039163 Z" id="Shape" fill="#1D1D1B" fill-rule="nonzero"></path>
                    <path d="M256,2 L260.983252,2 C262.861009,2 264.39827,2.17834824 265.595082,2.53505007 C266.791893,2.8917519 267.782344,3.48974306 268.566462,4.32904149 C270.093429,6.0286208 270.856901,8.80875514 270.856901,12.6695279 C270.856901,14.8307213 270.609288,16.6719046 270.114056,18.193133 C269.618823,19.7143614 268.958523,20.8631339 268.133135,21.639485 C266.812515,22.8984326 264.676857,23.527897 261.726097,23.527897 L256,23.527897 L256,2 Z M261.540386,21.8597997 C263.995914,21.8597997 265.760153,21.324755 266.833157,20.2546495 C267.576005,19.5202634 268.117658,18.5341025 268.45813,17.2961373 C268.798603,16.0581722 268.968836,14.5159844 268.968836,12.6695279 C268.968836,10.9070012 268.814078,9.43825099 268.504558,8.26323319 C268.195038,7.08821539 267.699813,6.14401883 267.018868,5.43061516 C266.399827,4.80114134 265.600245,4.35002521 264.620098,4.07725322 C263.63995,3.80448123 262.417363,3.66809728 260.9523,3.66809728 L257.857113,3.66809728 L257.857113,21.8597997 L261.540386,21.8597997 Z M279.213907,23.9685265 C277.68694,23.9685265 276.459195,23.5593746 275.530634,22.7410587 C274.602073,21.9227427 274.137799,20.7372514 274.137799,19.1845494 C274.137799,17.7787245 274.529853,16.698144 275.313971,15.9427754 C275.829838,15.4391963 276.479821,15.0772543 277.263939,14.8569385 C278.048057,14.6366226 279.02819,14.5264664 280.204367,14.5264664 L283.856689,14.5264664 L283.856689,13.267525 C283.856689,11.8197353 283.55749,10.7916101 282.959084,10.1831187 C282.381313,9.57462738 281.359911,9.27038627 279.894848,9.27038627 C278.512324,9.27038627 277.098869,9.43824343 275.654441,9.7739628 L275.530634,8.26323319 C277.036966,7.86456644 278.543276,7.66523605 280.049608,7.66523605 C282.092442,7.66523605 283.547165,8.11635219 284.413822,9.018598 C285.23921,9.89986134 285.651897,11.2322276 285.651897,13.0157368 L285.651897,23.527897 L284.197159,23.527897 L284.104304,22.4892704 C283.34082,22.9508845 282.536079,23.3128265 281.690057,23.5751073 C280.844035,23.8373881 280.01866,23.9685265 279.213907,23.9685265 Z M279.523426,22.3633763 C280.225005,22.3633763 280.97816,22.2584655 281.782913,22.0486409 C282.587666,21.8388163 283.278917,21.5660484 283.856689,21.230329 L283.856689,16.0057225 L280.482934,16.0057225 C279.533738,16.0057225 278.770266,16.07916 278.192495,16.2260372 C277.614724,16.3729144 277.15045,16.593227 276.799661,16.8869814 C276.22189,17.3905605 275.933008,18.1459177 275.933008,19.1530758 C275.933008,20.2441638 276.242524,21.0519764 276.861565,21.5765379 C277.480605,22.1010994 278.367883,22.3633763 279.523426,22.3633763 Z M295.154123,23.9685265 C293.750965,23.9685265 292.729563,23.6433032 292.089888,22.9928469 C291.739098,22.6361451 291.481168,22.1692923 291.316091,21.5922747 C291.151013,21.015257 291.068476,20.2861274 291.068476,19.4048641 L291.068476,9.55364807 L288.282807,9.55364807 L288.282807,8.45207439 L291.068476,8.10586552 L291.068476,4.54935622 C291.687516,4.36051408 292.285913,4.2346212 292.863685,4.17167382 L292.863685,8.10586552 L296.887428,8.10586552 L296.887428,9.55364807 L292.863685,9.55364807 L292.863685,18.8383405 C292.863685,19.635674 292.899795,20.2389107 292.972016,20.6480687 C293.044238,21.0572267 293.193837,21.3981865 293.420818,21.6709585 C293.833512,22.1325726 294.504129,22.3633763 295.43269,22.3633763 C296.154904,22.3633763 296.928693,22.2689566 297.754081,22.0801144 L297.877888,23.5593705 C297.073136,23.8321425 296.165223,23.9685265 295.154123,23.9685265 Z M304.99682,23.9685265 C303.469853,23.9685265 302.242108,23.5593746 301.313547,22.7410587 C300.384986,21.9227427 299.920712,20.7372514 299.920712,19.1845494 C299.920712,17.7787245 300.312765,16.698144 301.096884,15.9427754 C301.612751,15.4391963 302.262734,15.0772543 303.046852,14.8569385 C303.83097,14.6366226 304.811103,14.5264664 305.98728,14.5264664 L309.639601,14.5264664 L309.639601,13.267525 C309.639601,11.8197353 309.340403,10.7916101 308.741997,10.1831187 C308.164226,9.57462738 307.142824,9.27038627 305.677761,9.27038627 C304.295237,9.27038627 302.881782,9.43824343 301.437354,9.7739628 L301.313547,8.26323319 C302.819879,7.86456644 304.326188,7.66523605 305.832521,7.66523605 C307.875355,7.66523605 309.330078,8.11635219 310.196735,9.018598 C311.022123,9.89986134 311.43481,11.2322276 311.43481,13.0157368 L311.43481,23.527897 L309.980072,23.527897 L309.887216,22.4892704 C309.123733,22.9508845 308.318992,23.3128265 307.47297,23.5751073 C306.626948,23.8373881 305.801573,23.9685265 304.99682,23.9685265 Z M305.306339,22.3633763 C306.007918,22.3633763 306.761073,22.2584655 307.565826,22.0486409 C308.370579,21.8388163 309.06183,21.5660484 309.639601,21.230329 L309.639601,16.0057225 L306.265847,16.0057225 C305.316651,16.0057225 304.553179,16.07916 303.975408,16.2260372 C303.397637,16.3729144 302.933363,16.593227 302.582574,16.8869814 C302.004802,17.3905605 301.715921,18.1459177 301.715921,19.1530758 C301.715921,20.2441638 302.025437,21.0519764 302.644477,21.5765379 C303.263518,22.1010994 304.150796,22.3633763 305.306339,22.3633763 Z M315.675217,14.5579399 L321.401314,14.5579399 L321.401314,16.1630901 L315.675217,16.1630901 L315.675217,14.5579399 Z M326.167903,2 L331.151155,2 C333.028912,2 334.566173,2.17834824 335.762985,2.53505007 C336.959797,2.8917519 337.950247,3.48974306 338.734365,4.32904149 C340.261332,6.0286208 341.024804,8.80875514 341.024804,12.6695279 C341.024804,14.8307213 340.777191,16.6719046 340.281959,18.193133 C339.786726,19.7143614 339.126426,20.8631339 338.301039,21.639485 C336.980419,22.8984326 334.844761,23.527897 331.894,23.527897 L326.167903,23.527897 L326.167903,2 Z M331.708289,21.8597997 C334.163817,21.8597997 335.928056,21.324755 337.00106,20.2546495 C337.743909,19.5202634 338.285561,18.5341025 338.626033,17.2961373 C338.966506,16.0581722 339.136739,14.5159844 339.136739,12.6695279 C339.136739,10.9070012 338.981982,9.43825099 338.672461,8.26323319 C338.362941,7.08821539 337.867716,6.14401883 337.186771,5.43061516 C336.567731,4.80114134 335.768148,4.35002521 334.788001,4.07725322 C333.807853,3.80448123 332.585266,3.66809728 331.120204,3.66809728 L328.025016,3.66809728 L328.025016,21.8597997 L331.708289,21.8597997 Z M345.172355,8.10586552 L346.596142,8.10586552 L346.750901,9.42775393 C347.431846,8.8612275 348.169525,8.42584797 348.96396,8.12160229 C349.758396,7.81735661 350.516709,7.66523605 351.238923,7.66523605 C351.527809,7.66523605 351.775421,7.67572712 351.981768,7.69670959 L351.981768,9.3962804 C351.651613,9.37529794 351.300829,9.36480687 350.929404,9.36480687 C349.505611,9.36480687 348.185011,9.79494086 346.967564,10.6552217 L346.967564,23.527897 L345.172355,23.527897 L345.172355,8.10586552 Z M355.788849,4.98998569 C355.046,4.98998569 354.674581,4.58083385 354.674581,3.76251788 L354.674581,3.66809728 C354.674581,2.84978132 355.046,2.44062947 355.788849,2.44062947 L355.912656,2.44062947 C356.655505,2.44062947 357.026924,2.84978132 357.026924,3.66809728 L357.026924,3.76251788 C357.026924,4.58083385 356.655505,4.98998569 355.912656,4.98998569 L355.788849,4.98998569 Z M354.953148,8.10586552 L356.748357,8.10586552 L356.748357,23.527897 L354.953148,23.527897 L354.953148,8.10586552 Z M359.688785,8.10586552 L361.57685,8.10586552 L366.03392,21.6080114 L370.398134,8.10586552 L372.224295,8.10586552 L366.962476,23.527897 L365.04346,23.527897 L359.688785,8.10586552 Z M381.200339,24 C378.703542,24 376.8774,23.3023436 375.721857,21.90701 C374.566315,20.5116764 373.988552,18.4921448 373.988552,15.8483548 C373.988552,13.3304595 374.50957,11.3424012 375.551622,9.88412017 C376.593674,8.42583916 378.136093,7.69670959 380.178927,7.69670959 C384.161422,7.69670959 386.152639,10.4453707 386.152639,15.9427754 L386.152639,16.2260372 C386.152639,16.351932 386.126846,16.4411061 386.07526,16.4935622 C386.023673,16.5460184 385.92566,16.5722461 385.781217,16.5722461 L375.876616,16.5722461 C375.917886,18.5026324 376.356366,19.9608916 377.192071,20.9470672 C378.027776,21.9332429 379.405121,22.4263233 381.324147,22.4263233 C382.500324,22.4263233 383.779655,22.2689572 385.162179,21.9542203 L385.316939,23.4334764 C384.801072,23.6013361 384.151089,23.73772 383.366971,23.8426323 C382.582852,23.9475446 381.860649,24 381.200339,24 Z M384.388382,15.09299 C384.388382,13.2465334 384.042757,11.8040109 383.351495,10.7653791 C382.660233,9.72674731 381.602721,9.2074392 380.178927,9.2074392 C378.755134,9.2074392 377.682146,9.72674731 376.959932,10.7653791 C376.237718,11.8040109 375.866299,13.2465334 375.845665,15.09299 L384.388382,15.09299 Z M390.052576,8.10586552 L391.476362,8.10586552 L391.60017,9.27038627 C393.333483,8.20028077 395.10804,7.66523605 396.923892,7.66523605 C397.728645,7.66523605 398.461166,7.77539232 399.121476,7.99570815 C399.781786,8.21602399 400.318279,8.53600172 400.730973,8.95565093 C401.164302,9.3962826 401.484134,9.92608179 401.690481,10.5450644 C401.896828,11.164047 402,11.9351408 402,12.8583691 L402,23.527897 L400.204791,23.527897 L400.204791,13.3304721 C400.204791,12.5331386 400.137729,11.8984287 400.003604,11.4263233 C399.869479,10.954218 399.647659,10.5608027 399.338139,10.2460658 C398.739733,9.63757445 397.842137,9.33333333 396.645325,9.33333333 C395.902477,9.33333333 395.108053,9.43824406 394.262031,9.64806867 C393.416009,9.85789328 392.611268,10.1621344 391.847785,10.5608011 L391.847785,23.527897 L390.052576,23.527897 L390.052576,8.10586552 Z" id="Data-Driven" fill="#4A4A4A"></path>
                    <path d="M256,39 L260.998929,39 C262.882593,39 264.424691,39.1783482 265.625268,39.5350501 C266.825845,39.8917519 267.819411,40.4897431 268.605996,41.3290415 C270.137766,43.0286208 270.90364,45.8087551 270.90364,49.6695279 C270.90364,51.8307213 270.655249,53.6719046 270.158458,55.193133 C269.661668,56.7143614 268.99929,57.8631339 268.171306,58.639485 C266.846532,59.8984326 264.704155,60.527897 261.744111,60.527897 L256,60.527897 L256,39 Z M261.557816,58.8597997 C264.021069,58.8597997 265.790858,58.324755 266.867238,57.2546495 C267.612423,56.5202634 268.15578,55.5341025 268.497323,54.2961373 C268.838867,53.0581722 269.009636,51.5159844 269.009636,49.6695279 C269.009636,47.9070012 268.854391,46.438251 268.543897,45.2632332 C268.233403,44.0882154 267.73662,43.1440188 267.053533,42.4306152 C266.432545,41.8011413 265.630447,41.3500252 264.647216,41.0772532 C263.663985,40.8044812 262.437552,40.6680973 260.96788,40.6680973 L257.862955,40.6680973 L257.862955,58.8597997 L261.557816,58.8597997 Z M281.553533,61 C279.048881,61 277.216994,60.3023436 276.057816,58.90701 C274.898638,57.5116764 274.319058,55.4921448 274.319058,52.8483548 C274.319058,50.3304595 274.841715,48.3424012 275.887045,46.8841202 C276.932375,45.4258392 278.479647,44.6967096 280.528908,44.6967096 C284.523931,44.6967096 286.521413,47.4453707 286.521413,52.9427754 L286.521413,53.2260372 C286.521413,53.351932 286.495539,53.4411061 286.44379,53.4935622 C286.392041,53.5460184 286.293719,53.5722461 286.148822,53.5722461 L276.213062,53.5722461 C276.254461,55.5026324 276.694321,56.9608916 277.532655,57.9470672 C278.370989,58.9332429 279.752667,59.4263233 281.67773,59.4263233 C282.857608,59.4263233 284.140964,59.2689572 285.527837,58.9542203 L285.683084,60.4334764 C285.165593,60.6013361 284.513566,60.73772 283.726981,60.8426323 C282.940396,60.9475446 282.215921,61 281.553533,61 Z M284.751606,52.09299 C284.751606,50.2465334 284.404893,48.8040109 283.711456,47.7653791 C283.018019,46.7267473 281.957181,46.2074392 280.528908,46.2074392 C279.100635,46.2074392 278.024272,46.7267473 277.299786,47.7653791 C276.5753,48.8040109 276.202712,50.2465334 276.182013,52.09299 L284.751606,52.09299 Z M296.985011,60.9685265 C294.563157,60.9685265 292.741619,60.3128344 291.520343,59.0014306 C290.299066,57.6900268 289.688437,55.6809864 289.688437,52.9742489 C289.688437,50.2255466 290.293891,48.1535597 291.504818,46.758226 C292.715745,45.3628924 294.48036,44.6652361 296.798715,44.6652361 C298.12349,44.6652361 299.30335,44.8435843 300.33833,45.2002861 L300.214133,46.7110157 C299.034255,46.3962788 297.978591,46.2389127 297.047109,46.2389127 C295.039248,46.2389127 293.621346,46.7687119 292.793362,47.8283262 C291.965378,48.8879404 291.551392,50.5822487 291.551392,52.9113019 C291.551392,55.1983901 291.996427,56.8507341 292.88651,57.8683834 C293.776593,58.8860327 295.277291,59.3948498 297.388651,59.3948498 C297.823343,59.3948498 298.320126,59.3633766 298.879015,59.3004292 C299.437904,59.2374818 299.903638,59.1640443 300.276231,59.0801144 L300.431478,60.5908441 C299.396497,60.8426336 298.247687,60.9685265 296.985011,60.9685265 Z M304.87152,41.9899857 C304.126335,41.9899857 303.753747,41.5808338 303.753747,40.7625179 L303.753747,40.6680973 C303.753747,39.8497813 304.126335,39.4406295 304.87152,39.4406295 L304.995717,39.4406295 C305.740903,39.4406295 306.11349,39.8497813 306.11349,40.6680973 L306.11349,40.7625179 C306.11349,41.5808338 305.740903,41.9899857 304.995717,41.9899857 L304.87152,41.9899857 Z M304.033191,45.1058655 L305.834047,45.1058655 L305.834047,60.527897 L304.033191,60.527897 L304.033191,45.1058655 Z M314.062099,60.9685265 C313.316913,60.9685265 312.576913,60.9160711 311.842077,60.8111588 C311.107241,60.7062465 310.470738,60.5698625 309.932548,60.4020029 L310.087794,58.9542203 C311.35047,59.2899397 312.644176,59.4577969 313.968951,59.4577969 C315.335125,59.4577969 316.375264,59.2165022 317.0894,58.7339056 C317.803537,58.251309 318.1606,57.5484071 318.1606,56.6251788 C318.1606,55.995705 317.98983,55.4816424 317.648287,55.0829757 C317.306743,54.6843089 316.887583,54.3748223 316.390792,54.1545064 C315.894002,53.9341906 315.200575,53.6876504 314.310493,53.4148784 C313.275512,53.079159 312.452715,52.7696724 311.842077,52.4864092 C311.231439,52.2031459 310.708782,51.7782575 310.27409,51.211731 C309.839398,50.6452046 309.622056,49.9003384 309.622056,48.9771102 C309.622056,47.5503028 310.103314,46.4749679 311.065846,45.751073 C312.028377,45.0271781 313.379006,44.6652361 315.117773,44.6652361 C315.718062,44.6652361 316.364914,44.7124459 317.058351,44.806867 C317.751788,44.901288 318.357242,45.0324264 318.874732,45.2002861 L318.781585,46.6165951 C317.43611,46.3228407 316.225202,46.1759657 315.148822,46.1759657 C313.886146,46.1759657 312.933979,46.3962782 312.292291,46.8369099 C311.650604,47.2775415 311.329764,47.9594613 311.329764,48.8826896 C311.329764,49.4701985 311.495359,49.9475423 311.826552,50.3147353 C312.157746,50.6819284 312.566557,50.9756784 313.052998,51.1959943 C313.539439,51.4163101 314.21734,51.6628503 315.086724,51.9356223 C316.121704,52.2713417 316.954851,52.5965649 317.586188,52.9113019 C318.217526,53.2260388 318.755708,53.6719094 319.200749,54.248927 C319.645791,54.8259447 319.868308,55.5865475 319.868308,56.5307582 C319.868308,57.9575656 319.371525,59.0538827 318.377944,59.8197425 C317.384363,60.5856023 315.945762,60.9685265 314.062099,60.9685265 Z M324.308351,41.9899857 C323.563165,41.9899857 323.190578,41.5808338 323.190578,40.7625179 L323.190578,40.6680973 C323.190578,39.8497813 323.563165,39.4406295 324.308351,39.4406295 L324.432548,39.4406295 C325.177734,39.4406295 325.550321,39.8497813 325.550321,40.6680973 L325.550321,40.7625179 C325.550321,41.5808338 325.177734,41.9899857 324.432548,41.9899857 L324.308351,41.9899857 Z M323.470021,45.1058655 L325.270878,45.1058655 L325.270878,60.527897 L323.470021,60.527897 L323.470021,45.1058655 Z M335.734475,60.9685265 C331.366859,60.9685265 329.183084,58.2513386 329.183084,52.8168813 C329.183084,47.3824239 331.366859,44.6652361 335.734475,44.6652361 C340.102092,44.6652361 342.285867,47.3824239 342.285867,52.8168813 C342.285867,58.2513386 340.102092,60.9685265 335.734475,60.9685265 Z M335.734475,59.3948498 C337.411143,59.3948498 338.611702,58.849314 339.336188,57.758226 C340.060675,56.6671381 340.422912,55.0200396 340.422912,52.8168813 C340.422912,50.6137229 340.060675,48.9666244 339.336188,47.8755365 C338.611702,46.7844485 337.411143,46.2389127 335.734475,46.2389127 C334.057807,46.2389127 332.857248,46.7844485 332.132762,47.8755365 C331.408276,48.9666244 331.046039,50.6137229 331.046039,52.8168813 C331.046039,55.0200396 331.408276,56.6671381 332.132762,57.758226 C332.857248,58.849314 334.057807,59.3948498 335.734475,59.3948498 Z M346.135974,45.1058655 L347.56424,45.1058655 L347.688437,46.2703863 C349.427204,45.2002808 351.207343,44.6652361 353.028908,44.6652361 C353.836192,44.6652361 354.571017,44.7753923 355.233405,44.9957082 C355.895792,45.216024 356.433974,45.5360017 356.847966,45.9556509 C357.282657,46.3962826 357.603496,46.9260818 357.810493,47.5450644 C358.017489,48.164047 358.120985,48.9351408 358.120985,49.8583691 L358.120985,60.527897 L356.320128,60.527897 L356.320128,50.3304721 C356.320128,49.5331386 356.252856,48.8984287 356.118308,48.4263233 C355.983761,47.954218 355.761244,47.5608027 355.450749,47.2460658 C354.850461,46.6375744 353.950042,46.3333333 352.749465,46.3333333 C352.004279,46.3333333 351.207356,46.4382441 350.358672,46.6480687 C349.509989,46.8578933 348.702716,47.1621344 347.936831,47.5608011 L347.936831,60.527897 L346.135974,60.527897 L346.135974,45.1058655 Z M366.19379,60.9685265 C365.448604,60.9685265 364.708605,60.9160711 363.973769,60.8111588 C363.238933,60.7062465 362.60243,60.5698625 362.06424,60.4020029 L362.219486,58.9542203 C363.482162,59.2899397 364.775868,59.4577969 366.100642,59.4577969 C367.466816,59.4577969 368.506956,59.2165022 369.221092,58.7339056 C369.935228,58.251309 370.292291,57.5484071 370.292291,56.6251788 C370.292291,55.995705 370.121522,55.4816424 369.779979,55.0829757 C369.438435,54.6843089 369.019274,54.3748223 368.522484,54.1545064 C368.025693,53.9341906 367.332267,53.6876504 366.442184,53.4148784 C365.407204,53.079159 364.584407,52.7696724 363.973769,52.4864092 C363.36313,52.2031459 362.840473,51.7782575 362.405782,51.211731 C361.97109,50.6452046 361.753747,49.9003384 361.753747,48.9771102 C361.753747,47.5503028 362.235006,46.4749679 363.197537,45.751073 C364.160069,45.0271781 365.510698,44.6652361 367.249465,44.6652361 C367.849753,44.6652361 368.496606,44.7124459 369.190043,44.806867 C369.88348,44.901288 370.488934,45.0324264 371.006424,45.2002861 L370.913276,46.6165951 C369.567802,46.3228407 368.356893,46.1759657 367.280514,46.1759657 C366.017838,46.1759657 365.065671,46.3962782 364.423983,46.8369099 C363.782295,47.2775415 363.461456,47.9594613 363.461456,48.8826896 C363.461456,49.4701985 363.62705,49.9475423 363.958244,50.3147353 C364.289438,50.6819284 364.698249,50.9756784 365.18469,51.1959943 C365.67113,51.4163101 366.349032,51.6628503 367.218415,51.9356223 C368.253396,52.2713417 369.086542,52.5965649 369.71788,52.9113019 C370.349218,53.2260388 370.8874,53.6719094 371.332441,54.248927 C371.777483,54.8259447 372,55.5865475 372,56.5307582 C372,57.9575656 371.503217,59.0538827 370.509636,59.8197425 C369.516055,60.5856023 368.077454,60.9685265 366.19379,60.9685265 Z" id="Decisions" fill="#4A4A4A"></path>
                </g>
                <g id="rulers" transform="translate(169.000000, 0.000000)" fill="#FBA6D9">
                    <rect id="ruler-line-copy-3" transform="translate(0.500000, 69.500000) rotate(-90.000000) translate(-0.500000, -69.500000) " x="-69" y="69" width="139" height="1"></rect>
                    <rect id="ruler-line-copy-4" transform="translate(15.500000, 69.500000) rotate(-90.000000) translate(-15.500000, -69.500000) " x="-54" y="69" width="139" height="1"></rect>
                    <text id="1,5-X" font-family="HelveticaNeue-Medium, Helvetica Neue" font-size="7" font-weight="400">
                        <tspan x="68.894" y="128">1,5 X</tspan>
                    </text>
                    <text id="X-Copy-2" font-family="HelveticaNeue-Medium, Helvetica Neue" font-size="7" font-weight="400">
                        <tspan x="6.232" y="128">X</tspan>
                    </text>
                    <rect id="ruler-line-copy-3" transform="translate(67.500000, 69.500000) rotate(-90.000000) translate(-67.500000, -69.500000) " x="-2" y="69" width="139" height="1"></rect>
                    <rect id="ruler-line-copy-4" transform="translate(86.500000, 69.500000) rotate(-90.000000) translate(-86.500000, -69.500000) " x="17" y="69" width="139" height="1"></rect>
                </g>
            </g>
        </g>
    </g>
</svg>
