
<svg width="177px" height="71px" viewBox="0 0 177 71" version="1.1" xmlns="http://www.w3.org/2000/svg" xmlns:xlink="http://www.w3.org/1999/xlink">
    <!-- Generator: Sketch 49.1 (51147) - http://www.bohemiancoding.com/sketch -->
    <desc>Created with Sketch.</desc>
    <defs></defs>
    <g id="Page-1" stroke="none" stroke-width="1" fill="none" fill-rule="evenodd">
        <g id="Brand" transform="translate(-478.000000, -391.000000)">
            <g id="Logo-claim-1" transform="translate(477.000000, 391.000000)">
                <g>
                    <g id="LUCA" transform="translate(2.000000, 0.000000)" fill="#1D1D1B" fill-rule="nonzero">
                        <path d="M11.2659737,44.9753964 C10.0891679,44.9872052 8.95561475,44.544778 8.11409912,43.745216 L1.26605024,37.0899399 C0.443328522,36.2721129 -0.0119137127,35.1704693 0.000237134652,34.0267906 L0.000237134652,1.23018043 C0.000237134652,0.550770537 0.566960964,1.24805572e-16 1.26605024,0 L10.3799046,0 C11.0789938,4.16018573e-17 11.6457177,0.550770537 11.6457177,1.23018043 L11.6457177,32.5628759 C11.6151794,32.9692924 11.7680469,33.3685202 12.0645382,33.6566653 C12.3610295,33.9448104 12.7718212,34.0933746 13.1900097,34.063696 L29.7341869,34.063696 C30.4332762,34.063696 31,34.6144665 31,35.2938764 L31,43.7698196 C31,44.4492295 30.4332762,45 29.7341869,45 L11.2659737,44.9753964 Z" id="Shape"></path>
                        <path d="M69.0331267,44.9997694 C70.1838612,45.0115846 71.2923013,44.5689177 72.1151738,43.7689223 L78.7619982,37.146965 C79.5664931,36.3286949 80.0116498,35.2264543 79.9997681,34.0821558 L79.9997681,1.23084708 C79.9997681,0.55106901 79.4455997,4.16244021e-17 78.7619982,0 L69.8500549,0 C69.1664534,-4.16244021e-17 68.6122849,0.55106901 68.6122849,1.23084708 L68.6122849,32.5805223 C68.6421466,32.987159 68.4926658,33.3866033 68.2027431,33.6749045 C67.9128203,33.9632057 67.5111295,34.1118505 67.1022057,34.0821558 L54.9473051,34.0821558 C54.5302114,34.1272804 54.1145554,33.9854964 53.8131395,33.6952814 C53.5117235,33.4050665 53.3558113,32.9965228 53.3877151,32.5805223 L53.3877151,1.23084708 C53.3877151,0.55106901 52.8335466,4.16244021e-17 52.1499451,0 L43.2380018,0 C42.5544003,-4.16244021e-17 42.0002319,0.55106901 42.0002319,1.23084708 L42.0002319,34.0452304 C41.9883502,35.1895288 42.4335069,36.2917695 43.2380018,37.1100396 L49.8848262,43.7319969 C50.7076987,44.5319923 51.8161388,44.9746592 52.9668733,44.962844 L69.0331267,44.9997694 Z" id="Shape"></path>
                        <path d="M92.0002353,34.0855642 C91.9881803,35.2307965 92.4398294,36.3339367 93.2560575,37.1528746 L100.012381,43.7679176 C100.847255,44.5685659 101.971861,45.0115941 103.139378,44.9997692 L125.744178,44.9997692 C126.437749,44.9997692 127,44.4482505 127,43.7679176 L127,35.3297343 C127,34.6494014 126.437749,34.0978827 125.744178,34.0978827 L105.060786,34.0978827 C104.637906,34.1464812 104.214916,34.0079266 103.906656,33.7198361 C103.598396,33.4317455 103.436856,33.024015 103.465892,32.6073423 L103.465892,12.4788873 C103.435595,12.0719188 103.587256,11.6721486 103.881407,11.3836121 C104.175558,11.0950756 104.583107,10.9463095 104.997995,10.9760284 L125.744178,10.9760284 C126.437749,10.9760284 127,10.4245097 127,9.74417682 L127,1.23208236 C127,0.551749514 126.437749,0.000230772377 125.744178,0.000230772377 L103.139378,0.000230772377 C101.971861,-0.0115940702 100.847255,0.431434105 100.012381,1.23208236 L93.3062904,7.89639944 C92.4900623,8.71533738 92.0384132,9.81847754 92.0504682,10.9637099 L92.0002353,34.0855642 Z" id="Shape"></path>
                        <path d="M174.651262,7.86594402 L168.006561,1.23310135 C167.183952,0.431790921 166.075866,-0.011603659 164.925499,0.000230963236 L148.963369,0.000230963236 C147.813002,-0.011603659 146.704916,0.431790921 145.882307,1.23310135 L139.237606,7.86594402 C138.433368,8.68555925 137.988354,9.78961176 138.000232,10.9357913 L138.000232,43.7671296 C138.000232,44.4480251 138.554223,45 139.237606,45 L148.146702,45 C148.830085,45 149.384076,44.4480251 149.384076,43.7671296 L149.384076,30.846648 C149.354224,30.4393428 149.503657,30.039242 149.793487,29.7504669 C150.083318,29.4616917 150.48488,29.3128026 150.893673,29.3425461 L163.106559,29.3425461 C163.515352,29.3128026 163.916914,29.4616917 164.206744,29.7504669 C164.496575,30.039242 164.646008,30.4393428 164.616155,30.846648 L164.616155,43.7671296 C164.616155,44.4480251 165.170147,45 165.85353,45 L174.762626,45 C175.446009,45 176,44.4480251 176,43.7671296 L176,10.9357913 C175.982465,9.77355686 175.496394,8.66721585 174.651262,7.86594402 Z M163.996308,19.9635125 C164.025691,20.3844287 163.878607,20.7978997 163.593334,21.0963249 C163.30806,21.3947501 162.91281,21.5486147 162.510444,21.5178772 L150.489556,21.5178772 C150.08719,21.5486147 149.69194,21.3947501 149.406666,21.0963249 C149.121393,20.7978997 148.974309,20.3844287 149.003692,19.9635125 L149.003692,12.3190961 C148.974309,11.89818 149.121393,11.484709 149.406666,11.1862838 C149.69194,10.8878586 150.08719,10.733994 150.489556,10.7647315 L162.510444,10.7647315 C162.91281,10.733994 163.30806,10.8878586 163.593334,11.1862838 C163.878607,11.484709 164.025691,11.89818 163.996308,12.3190961 L163.996308,19.9635125 Z" id="Shape"></path>
                    </g>
                    <text id="Data-Driven-Decision" font-family="Telefonica-Light, Telefonica" font-size="20" font-weight="300" fill="#4A4A4A">
                        <tspan x="0" y="70">Data-Driven Decisions</tspan>
                    </text>
                </g>
            </g>
        </g>
    </g>
</svg>
