
<svg width="390px" height="139px" viewBox="0 0 390 139" version="1.1" xmlns="http://www.w3.org/2000/svg" xmlns:xlink="http://www.w3.org/1999/xlink">
    <!-- Generator: Sketch 49.1 (51147) - http://www.bohemiancoding.com/sketch -->
    <desc>Created with Sketch.</desc>
    <defs></defs>
    <g id="Page-1" stroke="none" stroke-width="1" fill="none" fill-rule="evenodd">
        <g id="Brand" transform="translate(-132.000000, -1245.000000)">
            <g id="rulers" transform="translate(132.000000, 1245.000000)">
                <g transform="translate(168.000000, 0.000000)" fill="#FBA6D9">
                    <rect id="ruler-line-copy-3" transform="translate(0.500000, 69.500000) rotate(-90.000000) translate(-0.500000, -69.500000) " x="-69" y="69" width="139" height="1"></rect>
                    <rect id="ruler-line-copy-4" transform="translate(14.500000, 69.500000) rotate(-90.000000) translate(-14.500000, -69.500000) " x="-55" y="69" width="139" height="1"></rect>
                    <text id="1,5-Y" font-family="HelveticaNeue-Bold, Helvetica Neue" font-size="7" font-weight="bold">
                        <tspan x="68.8275" y="128">1,5 Y</tspan>
                    </text>
                    <text id="Y" font-family="HelveticaNeue-Bold, Helvetica Neue" font-size="7" font-weight="bold">
                        <tspan x="5.1655" y="128">Y</tspan>
                    </text>
                    <rect id="ruler-line-copy-3" transform="translate(66.500000, 69.500000) rotate(-90.000000) translate(-66.500000, -69.500000) " x="-3" y="69" width="139" height="1"></rect>
                    <rect id="ruler-line-copy-4" transform="translate(88.500000, 69.500000) rotate(-90.000000) translate(-88.500000, -69.500000) " x="19" y="69" width="139" height="1"></rect>
                </g>
                <g id="endoso_luca_ai-copy" transform="translate(0.000000, 28.000000)" fill="#2C2C2C">
                    <path d="M263.023256,2.32459459 L265.241226,2.32459459 L272.208457,23.0810811 L270.29556,23.0810811 L268.448626,17.4014865 L260.096195,17.4014865 L258.372939,23.0810811 L256.55074,23.0810811 L263.023256,2.32459459 Z M267.970402,15.86 L264.136364,4.20405405 L260.549683,15.86 L267.970402,15.86 Z" id="Shape" fill-rule="nonzero"></path>
                    <polygon id="Shape" fill-rule="nonzero" points="275.580761 2.32459459 277.40296 2.32459459 277.40296 23.0810811 275.580761 23.0810811"></polygon>
                    <path d="M288.814376,2.32459459 L294.586047,2.32459459 C295.663888,2.30123517 296.739961,2.42323447 297.785201,2.6872973 C298.629745,2.90861517 299.400662,3.34943901 300.019662,3.965 C300.53607,4.49782201 300.920157,5.14440021 301.141015,5.8527027 C301.417099,6.71275348 301.550784,7.61212175 301.536786,8.51527027 C301.536786,10.7134685 301.020085,12.3621171 299.986681,13.4612162 C298.953277,14.5603153 297.3537,15.1098649 295.187949,15.1098649 L290.636575,15.1098649 L290.636575,23.0810811 L288.814376,23.0810811 L288.814376,2.32459459 Z M294.462368,13.4859459 C295.32468,13.5149114 296.187012,13.4289763 297.026638,13.2304054 C298.191044,12.9273104 299.097948,12.0143079 299.393023,10.8481081 C299.581685,10.1049466 299.667684,9.33945978 299.648626,8.57297297 C299.73806,7.33196706 299.371601,6.10096536 298.61797,5.11081081 C298.215769,4.63293234 297.678214,4.28806079 297.07611,4.12162162 C296.199229,3.92879984 295.302195,3.84299341 294.404651,3.86608108 L290.636575,3.86608108 L290.636575,13.4859459 L294.462368,13.4859459 Z" id="Shape" fill-rule="nonzero"></path>
                    <path d="M303.326004,15.6621622 C303.326004,10.4194595 305.461522,7.79810811 309.732558,7.79810811 C314.003594,7.79810811 316.139112,10.4194595 316.139112,15.6621622 C316.139112,20.9048649 314.003594,23.5234685 309.732558,23.517973 C305.461522,23.5124775 303.326004,20.8938739 303.326004,15.6621622 Z M313.220296,20.4267568 C314.038881,18.9779473 314.419794,17.3229528 314.316913,15.6621622 C314.429817,14.0046153 314.060406,12.3498283 313.253277,10.8975676 C312.359794,9.89141911 311.078343,9.31563689 309.732558,9.31563689 C308.386773,9.31563689 307.105322,9.89141911 306.211839,10.8975676 C305.40471,12.3498283 305.0353,14.0046153 305.148203,15.6621622 C305.0353,17.3197091 305.40471,18.974496 306.211839,20.4267568 C307.108098,21.4280921 308.38852,22.0003963 309.732558,22.0003963 C311.076596,22.0003963 312.357018,21.4280921 313.253277,20.4267568 L313.220296,20.4267568 Z" id="Shape" fill-rule="nonzero"></path>
                    <polygon id="Shape" fill-rule="nonzero" points="317.804651 8.24324324 319.62685 8.24324324 323.213531 21.1356757 326.668288 8.24324324 328.523467 8.24324324 332.497674 21.35 335.795772 8.24324324 337.44482 8.24324324 333.470613 23.0810811 331.458774 23.0810811 327.6 10.4854054 324.178224 23.0810811 322.141649 23.0810811"></polygon>
                    <path d="M340.817125,21.5148649 C339.679281,20.1712162 339.118605,18.2175676 339.118605,15.6786486 C338.998932,13.6407019 339.536486,11.6181395 340.65222,9.90837838 C341.707281,8.48063642 343.4151,7.68591707 345.187104,7.79810811 C349.095349,7.79810811 351.049471,10.4496847 351.049471,15.7528378 L351.049471,16.0248649 C351.055697,16.1174538 351.026189,16.2089069 350.967019,16.2804054 C350.883107,16.3395218 350.780463,16.3659095 350.678436,16.3545946 L340.965539,16.3545946 C340.883862,17.8804394 341.342158,19.3863196 342.260042,20.6081081 C343.073573,21.5533333 344.423044,22.0286937 346.308457,22.0341892 C347.57733,22.0219562 348.840988,21.8699118 350.076533,21.5808108 L350.224947,23.0068919 C349.598747,23.1889986 348.95912,23.321303 348.312051,23.4025676 C347.606844,23.4972709 346.896306,23.5468313 346.184778,23.5509459 C343.735941,23.5344595 341.946723,22.8667568 340.817125,21.5148649 Z M349.31797,14.9202703 C349.402464,13.4589383 349.046295,12.0058902 348.29556,10.7491892 C347.596916,9.73561967 346.415497,9.16541779 345.187104,9.24891892 C343.946344,9.17229816 342.753386,9.73904966 342.029175,10.7491892 C341.250559,11.9965476 340.870886,13.4516089 340.940803,14.9202703 L349.31797,14.9202703 Z" id="Shape" fill-rule="nonzero"></path>
                    <path d="M354.842283,8.24324324 L356.235729,8.24324324 L356.384144,9.52094595 C357.031416,8.97389013 357.767646,8.54173864 358.560888,8.24324324 C359.269341,7.95951165 360.023993,7.80861774 360.787104,7.79810811 C361.075687,7.79810811 361.314799,7.79810811 361.52093,7.79810811 L361.52093,9.44675676 C361.191121,9.44675676 360.853066,9.44675676 360.490275,9.44675676 C359.094637,9.44388564 357.733339,9.87927999 356.59852,10.6914865 L356.59852,23.0810811 L354.842283,23.0810811 L354.842283,8.24324324 Z" id="Shape" fill-rule="nonzero"></path>
                    <path d="M364.703594,21.5148649 C363.571247,20.1684685 363.005074,18.2230631 363.005074,15.6786486 C362.888898,13.641056 363.426167,11.6195673 364.538689,9.90837838 C365.594744,8.48185326 367.301861,7.68746096 369.073573,7.79810811 C372.981818,7.79810811 374.935941,10.4496847 374.935941,15.7528378 L374.935941,16.0248649 C374.94448,16.1163679 374.917958,16.2077002 374.861734,16.2804054 C374.777821,16.3395218 374.675178,16.3659095 374.57315,16.3545946 L364.860254,16.3545946 C364.783899,17.8785047 365.238473,19.3817331 366.146512,20.6081081 C366.971036,21.5560811 368.315011,22.0341892 370.203171,22.0341892 C371.469351,22.0223588 372.730321,21.870305 373.963002,21.5808108 L374.119662,23.0068919 C373.493233,23.1880793 372.853679,23.3203688 372.206765,23.4025676 C371.501503,23.4967189 370.791,23.5462769 370.079493,23.5509459 C367.630655,23.5344595 365.841438,22.8667568 364.703594,21.5148649 Z M373.20444,14.9202703 C373.284885,13.460375 372.932059,12.0092629 372.190275,10.7491892 C371.488975,9.73428165 370.304493,9.16411396 369.073573,9.24891892 C367.832814,9.17229816 366.639855,9.73904966 365.915645,10.7491892 C365.140885,11.9982042 364.761529,13.4520466 364.827273,14.9202703 L373.20444,14.9202703 Z" id="Shape" fill-rule="nonzero"></path>
                    <path d="M378.003171,15.7033784 C377.896247,13.6690133 378.426575,11.6519516 379.520296,9.93310811 C380.58258,8.50512492 382.295134,7.71108968 384.07167,7.82283784 C385.507391,7.84062543 386.919106,8.19346856 388.194292,8.85324324 L388.194292,1.43432432 L390,1.43432432 L390,23.0810811 L388.606554,23.0810811 L388.515856,22.1660811 C387.867155,22.5834269 387.161856,22.9054539 386.421564,23.1222973 C385.67594,23.3660122 384.897323,23.4938968 384.112896,23.5014865 C380.034249,23.5014865 377.997674,20.9021171 378.003171,15.7033784 Z M386.198943,21.687973 C386.891614,21.5173467 387.563491,21.271328 388.202537,20.9543243 L388.202537,10.2381081 C387.019438,9.65893198 385.726431,9.33856879 384.409725,9.29837838 C383.037547,9.17293787 381.699472,9.77305004 380.880761,10.8810811 C380.076478,12.3401765 379.710046,14.0001681 379.82537,15.6621622 C379.82537,17.8054054 380.163425,19.3881081 380.856025,20.4102703 C381.610099,21.4645556 382.861806,22.0464582 384.154123,21.9435135 C384.843599,21.9419601 385.530299,21.8561434 386.198943,21.687973 Z" id="Shape" fill-rule="nonzero"></path>
                    <path d="M256.55074,37.787027 L261.440169,37.787027 C262.962759,37.7461479 264.483594,37.9181715 265.958562,38.2981081 C267.065706,38.6055441 268.07056,39.2031875 268.869133,40.0291892 C270.369767,41.6778378 271.120085,44.3596396 271.120085,48.0745946 C271.16096,49.8768059 270.916066,51.6741169 270.394503,53.3997297 C270.030652,54.6436853 269.361784,55.7770843 268.448626,56.697027 C267.156871,57.917027 265.073573,58.527027 262.198732,58.527027 L256.583721,58.527027 L256.55074,37.787027 Z M261.984355,56.9360811 C264.391966,56.9360811 266.120719,56.4195045 267.170613,55.3863514 C267.958207,54.5985517 268.519259,53.613391 268.794926,52.5341892 C269.155742,51.0759593 269.322089,49.5764292 269.289641,48.0745946 C269.322024,46.6431612 269.169604,45.2135298 268.836152,43.8210811 C268.591256,42.8034286 268.091937,41.8645966 267.384989,41.0925676 C266.728134,40.4556499 265.914647,40.0035059 265.02685,39.7818919 C263.849861,39.5006405 262.641827,39.3704482 261.431924,39.3944595 L258.397674,39.3944595 L258.397674,56.9360811 L261.984355,56.9360811 Z" id="Shape" fill-rule="nonzero"></path>
                    <path d="M276.124947,56.9772973 C274.9926,55.6309009 274.426427,53.6827477 274.426427,51.1328378 C274.309671,49.0951863 274.846987,47.0735199 275.960042,45.3625676 C277.018718,43.9347069 278.728903,43.1403311 280.503171,43.2522973 C284.40592,43.2522973 286.357294,45.9011261 286.357294,51.1987838 L286.357294,51.4708108 C286.367139,51.5649848 286.34059,51.659358 286.283087,51.7345946 C286.199174,51.793711 286.096531,51.8200987 285.994503,51.8087838 L276.281607,51.8087838 C276.207181,53.3299089 276.661658,54.829903 277.567865,56.0540541 C278.392389,57.002027 279.736364,57.4801351 281.624524,57.4801351 C282.890437,57.4642341 284.150965,57.3122335 285.384355,57.0267568 L285.541015,58.4528378 C284.914586,58.6340253 284.275032,58.7663147 283.628118,58.8485135 C282.922856,58.9426649 282.212353,58.9922228 281.500846,58.9968919 C279.076744,58.9968919 277.284778,58.3236937 276.124947,56.9772973 Z M284.625793,50.3827027 C284.708796,48.9335781 284.364784,47.4919428 283.636364,46.2363514 C282.937719,45.2227818 281.7563,44.65258 280.527907,44.7360811 C279.28684,44.6578639 278.093146,45.2249647 277.369979,46.2363514 C276.568196,47.4762454 276.165363,48.9318463 276.215645,50.4074324 L284.625793,50.3827027 Z" id="Shape" fill-rule="nonzero"></path>
                    <path d="M291.213742,57.067973 C290.009937,55.8095045 289.408034,53.8723423 289.408034,51.2564865 C289.408034,48.6406306 289.998943,46.643018 291.180761,45.2636486 C292.520418,43.854026 294.41823,43.1138175 296.358774,43.2440541 C297.533778,43.2262076 298.703721,43.4016564 299.821776,43.7633784 L299.698097,45.2141892 C298.687536,44.9349353 297.646112,44.7826363 296.597886,44.7608108 C294.635518,44.7608108 293.261311,45.2718919 292.475264,46.2940541 C291.689218,47.3162162 291.285201,48.9648649 291.263214,51.24 C291.263214,53.4409459 291.700211,55.0401351 292.565962,56.0210811 C293.431712,57.002027 294.907611,57.4883784 296.968922,57.4883784 C297.456615,57.4829449 297.943716,57.4526805 298.42833,57.3977027 C298.885575,57.3525655 299.339823,57.2810044 299.788795,57.1833784 L299.945455,58.6424324 C298.839821,58.8972238 297.707691,59.0189883 296.57315,59.0051351 C294.190275,58.9639189 292.409302,58.3374324 291.213742,57.067973 Z" id="Shape" fill-rule="nonzero"></path>
                    <path d="M303.144609,39.4851351 L303.144609,39.3944595 C303.144609,38.5701351 303.5074,38.2074324 304.241226,38.2074324 L304.35666,38.2074324 C305.090486,38.2074324 305.453277,38.6031081 305.453277,39.3944595 L305.453277,39.4851351 C305.453277,40.3094595 305.090486,40.6639189 304.35666,40.6639189 L304.249471,40.6639189 C303.5074,40.6639189 303.144609,40.2682432 303.144609,39.4851351 Z M303.424947,43.6891892 L305.189429,43.6891892 L305.189429,58.527027 L303.424947,58.527027 L303.424947,43.6891892 Z" id="Shape" fill-rule="nonzero"></path>
                    <path d="M311.018816,58.8155405 C310.387881,58.7349071 309.764642,58.6025698 309.155391,58.4198649 L309.303805,57.0267568 C310.544949,57.3499856 311.822301,57.5134248 313.104863,57.5131081 C314.167961,57.5770805 315.227017,57.333843 316.155603,56.8124324 C316.839191,56.3656815 317.23703,55.5921203 317.202748,54.7763514 C317.222803,54.2368237 317.0438,53.7087472 316.699789,53.2925676 C316.362565,52.905059 315.942765,52.5980313 315.471247,52.3940541 C314.807859,52.1154718 314.127669,51.878702 313.434672,51.6851351 C312.614098,51.4284421 311.807685,51.1285183 311.018816,50.7866216 C310.417471,50.5081952 309.893686,50.0864389 309.493446,49.5583784 C309.041267,48.9348637 308.814489,48.1762124 308.850317,47.4068919 C308.773236,46.1985476 309.301604,45.0308589 310.260254,44.2909459 C311.435697,43.5257139 312.82613,43.1586823 314.226216,43.2440541 C314.86075,43.2489061 315.494269,43.29572 316.122622,43.3841892 C316.723749,43.4569418 317.317071,43.5838543 317.895349,43.7633784 L317.804651,45.1235135 C316.640671,44.8604988 315.452422,44.7196011 314.259197,44.7031081 C313.285702,44.6401184 312.314815,44.8605909 311.464059,45.3378378 C310.826746,45.784231 310.470039,46.5318823 310.524101,47.307973 C310.49917,47.8153904 310.673767,48.3124277 311.010571,48.6928378 C311.347772,49.0473278 311.754871,49.328018 312.206131,49.5171622 C312.854237,49.7940088 313.517694,50.0334562 314.193235,50.2343243 C315.039752,50.4863263 315.866521,50.800422 316.666808,51.1740541 C317.282193,51.4782421 317.820625,51.9179015 318.241649,52.46 C318.701588,53.0988437 318.931219,53.8747499 318.893023,54.6609459 C318.969301,55.9016122 318.425811,57.0994699 317.44186,57.8593243 C316.194003,58.6736884 314.715542,59.0612926 313.228541,58.9639189 C312.489423,58.9655328 311.75108,58.9159546 311.018816,58.8155405 Z" id="Shape" fill-rule="nonzero"></path>
                    <path d="M322.083932,39.4851351 L322.083932,39.3944595 C322.083932,38.5701351 322.446723,38.2074324 323.18055,38.2074324 L323.295983,38.2074324 C324.02981,38.2074324 324.3926,38.6031081 324.3926,39.3944595 L324.3926,39.4851351 C324.3926,40.3094595 324.02981,40.6639189 323.295983,40.6639189 L323.213531,40.6639189 C322.446723,40.6639189 322.083932,40.2682432 322.083932,39.4851351 Z M322.389006,43.6891892 L324.153488,43.6891892 L324.153488,58.527027 L322.389006,58.527027 L322.389006,43.6891892 Z" id="Shape" fill-rule="nonzero"></path>
                    <path d="M327.913319,51.1081081 C327.913319,45.8654054 330.048837,43.2440541 334.319873,43.2440541 C338.590909,43.2440541 340.726427,45.8654054 340.726427,51.1081081 C340.726427,56.3398198 338.590909,58.9584234 334.319873,58.9639189 C330.048837,58.9694144 327.913319,56.3508108 327.913319,51.1081081 Z M337.807611,55.8727027 C338.616715,54.4209641 338.988941,52.7663913 338.879493,51.1081081 C338.993347,49.4504892 338.623876,47.7954353 337.815856,46.3435135 C336.922374,45.3373651 335.640922,44.7615828 334.295137,44.7615828 C332.949353,44.7615828 331.667901,45.3373651 330.774419,46.3435135 C329.974978,47.7980175 329.614133,49.4529193 329.735518,51.1081081 C329.623561,52.765583 329.992913,54.4201047 330.799154,55.8727027 C331.695413,56.874038 332.975835,57.4463423 334.319873,57.4463423 C335.663911,57.4463423 336.944333,56.874038 337.840592,55.8727027 L337.807611,55.8727027 Z" id="Shape" fill-rule="nonzero"></path>
                    <path d="M344.461522,43.6891892 L345.854968,43.6891892 L345.978647,44.8102703 C347.540485,43.8187104 349.347874,43.2820487 351.197886,43.2605405 C351.927859,43.2511319 352.654558,43.3596928 353.349894,43.582027 C353.943863,43.7629527 354.486417,44.0821913 354.932981,44.5135135 C355.357116,44.9478331 355.678331,45.4717931 355.872939,46.0467568 C356.091942,46.770628 356.194908,47.5246046 356.178013,48.2806757 L356.178013,58.527027 L354.413531,58.527027 L354.413531,48.7093243 C354.430963,48.0904517 354.364394,47.472073 354.215645,46.8710811 C354.099399,46.4424407 353.875129,46.0507724 353.564271,45.7335135 C352.839299,45.096576 351.888164,44.7786175 350.925793,44.8514865 C350.135746,44.8576415 349.349396,44.9600637 348.584144,45.1564865 C347.763808,45.3577657 346.969676,45.653764 346.217759,46.0385135 L346.217759,58.527027 L344.461522,58.527027 L344.461522,43.6891892 Z" id="Shape" fill-rule="nonzero"></path>
                    <path d="M361.86723,58.8155405 C361.233601,58.7348397 360.607628,58.6025074 359.99556,58.4198649 L360.15222,57.0267568 C361.390452,57.350534 362.665149,57.5139881 363.945032,57.5131081 C365.00813,57.5770805 366.067186,57.333843 366.995772,56.8124324 C367.683217,56.3691657 368.082277,55.5932285 368.042918,54.7763514 C368.066932,54.2362538 367.88746,53.706793 367.539958,53.2925676 C367.204291,52.9033696 366.784073,52.5960367 366.311416,52.3940541 C365.650413,52.1165805 364.973036,51.8798312 364.283087,51.6851351 C363.462034,51.4298418 362.655547,51.1298903 361.86723,50.7866216 C361.256175,50.5128288 360.723308,50.0906057 360.317125,49.5583784 C359.867274,48.9340957 359.643368,48.1753225 359.682241,47.4068919 C359.616659,46.189555 360.164398,45.0200907 361.141649,44.2909459 C362.314064,43.5258077 363.701872,43.1587058 365.099366,43.2440541 C365.733913,43.2485908 366.367453,43.2954063 366.995772,43.3841892 C367.599735,43.4561362 368.195866,43.5830593 368.776744,43.7633784 L368.686047,45.1235135 C367.519283,44.8604619 366.328297,44.7195673 365.132347,44.7031081 C364.158852,44.6401184 363.187965,44.8605909 362.337209,45.3378378 C361.699896,45.784231 361.343189,46.5318823 361.397252,47.307973 C361.376636,47.8147539 361.550684,48.3102262 361.883721,48.6928378 C362.222445,49.045541 362.62915,49.3259593 363.079281,49.5171622 C363.730276,49.7938026 364.396465,50.0332424 365.07463,50.2343243 C365.920844,50.4872215 366.747548,50.8012926 367.548203,51.1740541 C368.166484,51.4737261 368.705868,51.9141628 369.123044,52.46 C369.585909,53.0977841 369.818474,53.8737822 369.782664,54.6609459 C369.848668,55.89456 369.302825,57.081556 368.323256,57.8345946 C367.07188,58.6479462 365.59117,59.0353818 364.101691,58.9391892 C363.354889,58.9505574 362.608216,58.9092386 361.86723,58.8155405 Z" id="Shape" fill-rule="nonzero"></path>
                    <path d="M14.6765328,60.2828378 C13.1313608,60.2862616 11.6482245,59.6753576 10.5539112,58.5847297 L1.69852008,49.7067568 C0.602963817,48.6158187 -0.00892599527,47.1310095 -6.40777036e-16,45.5851351 L-6.40777036e-16,1.68986486 C-8.43848103e-16,0.779341358 0.738304218,0.0412162162 1.64904863,0.0412162162 L13.5139535,0.0412162162 C14.4246979,0.0412162162 15.1630021,0.779341358 15.1630021,1.68986486 L15.1630021,43.6397297 C15.1203846,44.187314 15.3194864,44.7261362 15.7079515,45.1145071 C16.0964167,45.502878 16.6353695,45.7019315 17.1830867,45.6593243 L38.7526427,45.6593243 C39.6633871,45.6593243 40.4016913,46.3974495 40.4016913,47.307973 L40.4016913,58.6506757 C40.4016913,59.5611992 39.6633871,60.2993243 38.7526427,60.2993243 L14.6765328,60.2828378 Z" id="Shape" fill-rule="nonzero"></path>
                    <path d="M91.7613108,60.2828378 C93.3075602,60.2917617 94.7927296,59.6800203 95.8839323,58.5847297 L104.714588,49.7067568 C105.810144,48.6158187 106.422034,47.1310095 106.413108,45.5851351 L106.413108,1.68986486 C106.413108,0.779341358 105.674804,0.0412162162 104.764059,0.0412162162 L92.9156448,0.0412162162 C92.0049004,0.0412162162 91.2665962,0.779341358 91.2665962,1.68986486 L91.2665962,43.6397297 C91.3092137,44.187314 91.1101119,44.7261362 90.7216468,45.1145071 C90.3331816,45.502878 89.7942288,45.7019315 89.2465116,45.6593243 L72.9868922,45.6593243 C72.439175,45.7019315 71.9002222,45.502878 71.511757,45.1145071 C71.1232919,44.7261362 70.9241901,44.187314 70.9668076,43.6397297 L70.9668076,1.68986486 C70.9668076,0.779341358 70.2285034,0.0412162162 69.317759,0.0412162162 L57.4528541,0.0412162162 C56.5421097,0.0412162162 55.8038055,0.779341358 55.8038055,1.68986486 L55.8038055,45.6016216 C55.7948795,47.147496 56.4067693,48.6323052 57.5023256,49.7232432 L66.3824524,58.5847297 C67.4767657,59.6753576 68.9599021,60.2862616 70.505074,60.2828378 L91.7613108,60.2828378 Z" id="Shape" fill-rule="nonzero"></path>
                    <path d="M121.823467,45.6098649 C121.820043,47.154662 122.431095,48.6374386 123.521987,49.7314865 L132.402114,58.592973 C133.493317,59.6882635 134.978486,60.3000049 136.524736,60.2910811 L166.207611,60.2910811 C167.118355,60.2910811 167.85666,59.5529559 167.85666,58.6424324 L167.85666,47.2914865 C167.85666,46.380963 167.118355,45.6428378 166.207611,45.6428378 L138.957082,45.6428378 C138.41074,45.6829076 137.874093,45.4827308 137.487526,45.0946733 C137.100958,44.7066159 136.902929,44.1692843 136.945243,43.6232432 L136.945243,16.7008108 C136.902929,16.1547697 137.100958,15.6174382 137.487526,15.2293807 C137.874093,14.8413232 138.41074,14.6411465 138.957082,14.6812162 L166.207611,14.6812162 C167.118355,14.6812162 167.85666,13.9430911 167.85666,13.0325676 L167.85666,1.64864865 C167.85666,0.738125142 167.118355,-7.51772234e-16 166.207611,-8.07527331e-16 L136.524736,-8.07527331e-16 C134.978486,-0.00892383027 133.493317,0.602817568 132.402114,1.69810811 L123.521987,10.5595946 C122.431095,11.6536425 121.820043,13.1364191 121.823467,14.6812162 L121.823467,45.6098649 Z" id="Shape" fill-rule="nonzero"></path>
                    <path d="M232.021142,10.6255405 C230.668922,9.27364865 224.452008,3.04175676 223.157505,1.75581081 C222.066303,0.660520271 220.581133,0.0487788724 219.034884,0.0577027027 L197.786892,0.0577027027 C196.240643,0.0487788724 194.755473,0.660520271 193.664271,1.75581081 C192.378013,3.04175676 186.161099,9.27364865 184.800634,10.6255405 C183.709742,11.7195884 183.09869,13.202365 183.102114,14.7471622 L183.102114,58.6506757 C183.102114,59.5611992 183.840418,60.2993243 184.751163,60.2993243 L196.632558,60.2993243 C197.543303,60.2993243 198.281607,59.5611992 198.281607,58.6506757 L198.281607,41.3398649 C198.238989,40.7922806 198.438091,40.2534584 198.826556,39.8650875 C199.215021,39.4767166 199.753974,39.2776631 200.301691,39.3202703 L216.586047,39.3202703 C217.132389,39.2802005 217.669036,39.4803773 218.055603,39.8684348 C218.442171,40.2564922 218.640199,40.7938238 218.597886,41.3398649 L218.597886,58.6506757 C218.597886,59.5611992 219.33619,60.2993243 220.246934,60.2993243 L232.120085,60.2993243 C233.030829,60.2993243 233.769133,59.5611992 233.769133,58.6506757 L233.769133,14.7306757 C233.760592,13.1833324 233.130791,11.7042527 232.021142,10.6255405 Z M218.57315,26.5597297 C218.615464,27.1057708 218.417435,27.6431024 218.030868,28.0311598 C217.6443,28.4192173 217.107653,28.619394 216.561311,28.5793243 L200.276956,28.5793243 C199.729238,28.6219315 199.190286,28.422878 198.80182,28.0345071 C198.413355,27.6461362 198.214254,27.107314 198.256871,26.5597297 L198.256871,16.6678378 C198.216792,16.1216283 198.417017,15.585111 198.805169,15.1986374 C199.19332,14.8121638 199.730782,14.6141831 200.276956,14.6564865 L216.561311,14.6564865 C217.106843,14.6138532 217.643716,14.8120295 218.030643,15.1988622 C218.417569,15.5856949 218.615794,16.1224375 218.57315,16.6678378 L218.57315,26.5597297 Z" id="Shape" fill-rule="nonzero"></path>
                    <path d="M232.021142,10.6255405 C230.668922,9.27364865 224.452008,3.04175676 223.157505,1.75581081 C222.066303,0.660520271 220.581133,0.0487788724 219.034884,0.0577027027 L197.786892,0.0577027027 C196.240643,0.0487788724 194.755473,0.660520271 193.664271,1.75581081 C192.378013,3.04175676 186.161099,9.27364865 184.800634,10.6255405 C183.709742,11.7195884 183.09869,13.202365 183.102114,14.7471622 L183.102114,58.6506757 C183.102114,59.5611992 183.840418,60.2993243 184.751163,60.2993243 L196.632558,60.2993243 C197.543303,60.2993243 198.281607,59.5611992 198.281607,58.6506757 L198.281607,41.3398649 C198.238989,40.7922806 198.438091,40.2534584 198.826556,39.8650875 C199.215021,39.4767166 199.753974,39.2776631 200.301691,39.3202703 L216.586047,39.3202703 C217.132389,39.2802005 217.669036,39.4803773 218.055603,39.8684348 C218.442171,40.2564922 218.640199,40.7938238 218.597886,41.3398649 L218.597886,58.6506757 C218.597886,59.5611992 219.33619,60.2993243 220.246934,60.2993243 L232.120085,60.2993243 C233.030829,60.2993243 233.769133,59.5611992 233.769133,58.6506757 L233.769133,14.7306757 C233.760592,13.1833324 233.130791,11.7042527 232.021142,10.6255405 Z M218.57315,26.5597297 C218.615464,27.1057708 218.417435,27.6431024 218.030868,28.0311598 C217.6443,28.4192173 217.107653,28.619394 216.561311,28.5793243 L200.276956,28.5793243 C199.729238,28.6219315 199.190286,28.422878 198.80182,28.0345071 C198.413355,27.6461362 198.214254,27.107314 198.256871,26.5597297 L198.256871,16.6678378 C198.216792,16.1216283 198.417017,15.585111 198.805169,15.1986374 C199.19332,14.8121638 199.730782,14.6141831 200.276956,14.6564865 L216.561311,14.6564865 C217.106843,14.6138532 217.643716,14.8120295 218.030643,15.1988622 C218.417569,15.5856949 218.615794,16.1224375 218.57315,16.6678378 L218.57315,26.5597297 Z" id="Shape" fill-rule="nonzero"></path>
                </g>
            </g>
        </g>
    </g>
</svg>
