
<svg width="293px" height="190px" viewBox="0 0 293 190" version="1.1" xmlns="http://www.w3.org/2000/svg" xmlns:xlink="http://www.w3.org/1999/xlink">
    <!-- Generator: Sketch 49.1 (51147) - http://www.bohemiancoding.com/sketch -->
    <desc>Created with Sketch.</desc>
    <defs></defs>
    <g id="Page-1" stroke="none" stroke-width="1" fill="none" fill-rule="evenodd">
        <g id="Brand" transform="translate(-131.000000, -3588.000000)">
            <g id="luca_telefonicadataunit" transform="translate(131.000000, 3588.000000)">
                <g transform="translate(32.000000, 45.000000)">
                    <path d="M13.8041393,55.9846785 C12.3486872,55.9909466 10.9516476,55.4196085 9.92659753,54.3989056 C8.72455958,53.2038304 2.87722658,47.4123119 1.59763779,46.1559508 C0.567209669,45.1421033 -0.00830478819,43.7622173 9.05784616e-05,42.3255814 L9.05784616e-05,1.53214774 C9.05784616e-05,0.68596591 0.694504413,1.54155454e-16 1.55110729,0 L12.7106725,0 C13.5672754,5.31570532e-17 14.2616892,0.68596591 14.2616892,1.53214774 L14.2616892,40.5176471 C14.2216052,41.0265366 14.4088709,41.5272832 14.7742427,41.88821 C15.1396146,42.2491369 15.646528,42.4341244 16.1616847,42.394528 L36.4489833,42.394528 C37.3055862,42.394528 38,43.080494 38,43.9266758 L38,54.4678523 C38,55.3140341 37.3055862,56 36.4489833,56 L13.8041393,55.9846785 Z" id="Shape" fill="#2C2C2C" fill-rule="nonzero"></path>
                    <path d="M85.3713399,55.9999489 C86.8074834,56.0062188 88.1859892,55.4347248 89.1974406,54.4137435 C90.3988362,53.2183423 96.1685961,47.4252441 97.4235571,46.1685403 C98.4403152,45.1544163 99.0081946,43.774154 98.9999106,42.3371262 L98.9999106,1.53256565 C98.9999106,0.686153015 98.3147092,5.31715523e-17 97.4694703,0 L86.4426481,0 C85.5974092,-5.31715523e-17 84.9122078,0.686153015 84.9122078,1.53256565 L84.9122078,40.5286987 C84.95176,41.037727 84.7669787,41.5386102 84.406454,41.8996355 C84.0459294,42.2606608 83.5457408,42.4456988 83.0374184,42.4060916 L67.9472772,42.4060916 C67.4389548,42.4456988 66.9387662,42.2606608 66.5782416,41.8996355 C66.2177169,41.5386102 66.0329356,41.037727 66.0724878,40.5286987 L66.0724878,1.53256565 C66.0724878,0.686153015 65.3872864,5.31715523e-17 64.5420475,0 L53.5305297,0 C52.6852908,-5.31715523e-17 52.0000894,0.686153015 52.0000894,1.53256565 L52.0000894,42.3524518 C51.9918054,43.7894796 52.5596848,45.1697419 53.5764429,46.1838659 L61.8178638,54.4137435 C62.8293152,55.4347248 64.207821,56.0062188 65.6439645,55.9999489 L85.3713399,55.9999489 Z" id="Shape" fill="#2C2C2C" fill-rule="nonzero"></path>
                    <path d="M113.000013,42.3636693 C112.996814,43.7985154 113.567603,45.1757553 114.586615,46.1919342 L122.881615,54.4150473 C123.899642,55.4351894 125.28711,56.0062137 126.73259,55.999949 L154.45961,55.999949 C155.310344,55.999949 156,55.31436 156,54.468643 L156,43.9256014 C156,43.0798844 155.310344,42.3942954 154.45961,42.3942954 L129.043175,42.3942954 C128.532833,42.4315131 128.031546,42.245584 127.67045,41.8851465 C127.309354,41.5247091 127.124374,41.0256221 127.163899,40.5184456 L127.163899,15.512219 C127.124374,15.0050424 127.309354,14.5059555 127.67045,14.145518 C128.031546,13.7850805 128.532833,13.5991514 129.043175,13.6363691 L154.45961,13.6363691 C155.310344,13.6363691 156,12.9507801 156,12.1050632 L156,1.5313954 C156,0.685678466 155.310344,8.94273663e-05 154.45961,8.94273663e-05 L126.73259,8.94273663e-05 C125.288226,-0.00819924872 123.900917,0.560001417 122.881615,1.57733458 L114.586615,9.80810421 C113.567603,10.8242831 112.996814,12.201523 113.000013,13.6363691 L113.000013,42.3636693 Z" id="Shape" fill="#2C2C2C" fill-rule="nonzero"></path>
                    <path d="M215.363489,9.82382859 C214.10934,8.56712562 208.343315,2.77403143 207.142697,1.57863104 C206.130635,0.560461698 204.753179,-0.00820598791 203.319073,8.95008692e-05 L183.589173,8.95008692e-05 C182.155067,-0.00820598791 180.777611,0.560461698 179.765549,1.57863104 L171.575346,9.82382859 C170.563572,10.8408428 169.996837,12.2192146 170.000013,13.6552401 L170.000013,54.4674354 C170.000013,55.3138475 170.684771,56 171.529463,56 L182.549147,56 C183.393839,56 184.078597,55.3138475 184.078597,54.4674354 L184.078597,38.3755071 C184.03907,37.8664791 184.223732,37.3655963 184.584023,37.0045712 C184.944315,36.6435461 185.444179,36.4585083 185.952173,36.4981155 L201.055488,36.4981155 C201.562206,36.4608671 202.059932,36.6469491 202.418463,37.0076828 C202.776995,37.3684165 202.960661,37.8679137 202.921416,38.3755071 L202.921416,54.4674354 C202.921416,55.3138475 203.606174,56 204.450866,56 L215.47055,56 C216.315242,56 217,55.3138475 217,54.4674354 L217,13.6399144 C216.988061,12.1992831 216.398287,10.8240232 215.363489,9.82382859 Z M202.890827,24.6360655 C202.930072,25.1436589 202.746406,25.643156 202.387874,26.0038898 C202.029343,26.3646235 201.531617,26.5507054 201.024899,26.5134571 L185.921584,26.5134571 C185.41359,26.5530642 184.913726,26.3680264 184.553434,26.0070013 C184.193143,25.6459762 184.008481,25.1450934 184.048008,24.6360655 L184.048008,15.4406779 C184.010835,14.9329278 184.196539,14.4341876 184.55654,14.0749262 C184.91654,13.7156649 185.415022,13.5316243 185.921584,13.570949 L201.024899,13.570949 C201.530866,13.5313176 202.028802,13.71554 202.387666,14.0751352 C202.74653,14.4347304 202.930378,14.9336801 202.890827,15.4406779 L202.890827,24.6360655 Z" id="Shape" fill="#2C2C2C" fill-rule="nonzero"></path>
                    <path d="M0,114.221979 C0,114.64211 29.1169124,115 57.7723841,115 C86.4278558,115 115.544768,114.62655 115.544768,114.221979 C115.544768,113.817408 86.4278558,113.443958 57.7723841,113.443958 C29.1169124,113.443958 0,113.794068 0,114.221979 Z M33.8851337,97.2222222 C32.1624215,99.7585704 29.7475482,102.053732 27.6710647,102.053732 C26.7943272,102.053732 26.4021026,101.571359 26.4174839,100.544372 C26.4348848,99.8955475 26.5251899,99.2508319 26.6866577,98.6226599 C28.8095341,97.6394596 30.7480366,96.291718 32.4162139,94.6391928 C33.3477098,93.7902323 33.9456454,92.6301571 34.1004727,91.371505 C34.1004727,90.3211768 33.469837,89.8154632 32.1778029,89.7610017 C30.2935864,89.7610017 28.0402173,91.036956 26.5789882,92.6163384 C24.6563184,94.7403355 23.1720172,97.7434962 23.1335638,100.396548 C23.1335638,102.279358 24.0026106,103.780938 26.4021026,103.695356 C28.9784802,103.617554 31.5087138,101.61026 32.8161293,100.163141 C32.6607018,100.712897 32.5728781,101.279944 32.5546462,101.851447 C32.4613016,103.426287 33.4935327,104.843714 35.0079729,105.220277 L35.3309814,105.072453 C35.1879523,104.5993 35.1383026,104.10231 35.1848585,103.609774 C35.477357,101.577297 36.0602481,99.5986044 36.9152614,97.735716 C38.7071897,93.1531729 41.3220207,87.9093119 42.4756227,84.8283491 L39.7300501,85.3496231 C39.3430614,85.4572344 39.0310127,85.7468503 38.891766,86.1276441 C37.5689692,88.9674204 36.2077189,92.0017019 34.5080787,95.9540481 C34.285049,96.3352784 34.1004727,96.7787503 33.8851337,97.2222222 Z M31.3241374,91.1225383 C31.7471248,91.1225383 31.9009384,91.4181862 31.9009384,91.7916363 C31.9009384,93.5810844 29.7167854,95.8606856 26.9481408,97.5256504 C27.640302,94.7714564 29.6091159,91.0991977 31.3241374,91.1225383 Z M86.13561,87.9404328 C87.0080176,87.8465043 87.7169514,87.186187 87.8813942,86.3143691 C88.0003652,85.9527611 87.9397806,85.5553122 87.7186548,85.2467605 C87.497529,84.9382087 87.1429665,84.756375 86.7662457,84.7583273 C85.8886812,84.8440513 85.1733546,85.5074007 85.0127708,86.384391 C84.9005849,86.7469695 84.9650311,87.1418875 85.1864619,87.4487486 C85.4078928,87.7556097 85.7600636,87.9380436 86.13561,87.9404328 Z M78.1988288,101.765864 C78.1988288,103.026258 78.9678967,103.804279 80.5060326,103.765378 C82.224168,103.591433 83.8195184,102.785856 84.9896987,101.501337 C85.2434911,102.862874 86.2125168,103.8354 88.1967121,103.788719 C90.2941014,103.560266 92.2230126,102.520467 93.5801877,100.886701 L93.5801877,101.322392 C93.5801877,102.73061 94.2954209,103.773158 95.8873915,103.773158 C97.5947224,103.773158 99.5558456,102.481644 101.109363,100.240943 L101.163198,100.240943 C100.985128,100.902377 100.871786,101.579922 100.824808,102.263798 C100.716133,103.701818 101.722441,104.981134 103.132012,105.196937 L103.470401,105.064673 C102.962817,103.84318 103.662668,100.801118 103.954914,99.7896912 C104.955357,96.6746435 106.155073,93.6287424 107.546462,90.6712862 C106.790744,90.2181218 105.925356,89.986461 105.046991,90.0021882 C101.501588,89.8699246 97.9254216,91.3481644 95.3259719,96.0085096 C94.8258965,96.8873576 94.391445,97.8027848 94.0262471,98.7471432 C93.7431569,99.135686 93.4348501,99.5047628 93.1033656,99.8519329 C92.1651027,100.769998 90.7961617,101.944809 89.4733648,101.96037 C88.7042969,101.96037 88.2736189,101.423535 88.2890002,100.451009 C88.2890002,96.7242888 91.557539,91.0525164 93.764764,91.0447362 C94.3723277,91.0447362 94.6261201,91.3092633 94.6261201,91.8227571 C94.5513768,92.6022421 94.1888795,93.3245639 93.6109504,93.8456115 L93.8724335,94.0790177 C95.3567346,93.5110625 96.7333663,92.4685145 96.7410569,91.3559446 C96.7410569,90.0877705 95.2952092,89.8543642 94.0108657,89.8621444 C91.8520102,89.9893802 89.8356215,90.993879 88.4197418,92.6474593 C86.5591251,94.6648968 85.3424078,97.2025733 84.9281733,99.929735 C83.9437663,101.096766 82.8363085,101.890348 82.1056939,101.898128 C81.9205243,101.929374 81.7313852,101.873386 81.5920719,101.74609 C81.4527586,101.618794 81.3785161,101.434119 81.3904607,101.24459 C81.485384,100.482922 81.6873823,99.7388793 81.9903337,99.0350109 C82.943978,96.6309263 84.2975376,93.6355458 86.0202498,90.0799903 C86.0202498,90.0799903 83.4361815,90.515682 83.0670289,90.6246049 C82.7038099,90.7582814 82.4188236,91.0494397 82.2902702,91.4181862 C81.1828124,93.752249 79.8753969,96.5297836 79.0524942,98.5681984 C78.6001881,99.580847 78.3119467,100.660544 78.1988288,101.765864 Z M102.370634,91.55823 C103.013788,91.2287883 103.746893,91.1247946 104.454808,91.2625821 C104.239469,91.7293946 103.247372,93.752249 102.470613,95.5728179 C101.247795,98.4359348 99.3943414,101.314612 97.7100826,101.726963 C97.1255909,101.898128 96.7795103,101.641381 96.787201,101.050085 C96.8410358,98.5215171 99.5866083,92.8808655 102.370634,91.55823 Z M11.4821844,92.7797228 L11.6744514,92.6163384 C11.4297981,92.1054126 11.3110556,91.5421607 11.3283708,90.9747143 C11.4283497,87.2013129 15.3659776,85.0617554 21.5262118,85.0617554 L24.9331828,85.0617554 C22.7016489,86.312575 20.9596034,88.2972497 19.9957666,90.6868466 C19.4497284,91.9394602 16.8348973,98.6926817 15.7735836,101.719183 C14.4507867,105.3292 13.604812,106.970824 12.5511889,107.5699 L12.7357652,107.896669 C15.6812954,108.083394 17.4501517,106.558473 18.5806816,103.734257 C19.6573767,101.073426 21.0878431,96.8254316 21.7876949,94.942621 C24.0564454,88.8662777 25.048543,86.3221493 26.8635434,85.0617554 L31.8086503,85.0617554 C34.5157694,84.9839533 35.65399,84.2837345 36.5230368,83.2411865 L36.3307698,83 C35.2392498,83.3688093 34.0878456,83.522004 32.9391801,83.4512521 L20.7648345,83.4512521 C13.8816764,83.4512521 9.6594934,85.7386336 8.97502293,89.1463652 C8.77511707,89.9703044 8.93570297,90.8414283 9.41573711,91.5370898 C9.89577124,92.2327513 10.6487362,92.6855376 11.4821844,92.7797228 Z M38.4533973,100.412108 C38.4533973,102.256018 39.3993509,103.796499 41.8603683,103.710917 C44.4982714,103.633115 46.905454,102.092633 48.9896282,99.8830537 C48.466662,101.299052 48.0206026,102.520545 47.7437381,103.181862 C46.9746701,105.126915 46.4055599,106.706297 45.2211952,107.624362 L45.3519368,107.857768 C48.8358146,108.060053 50.1355394,105.585947 51.5660058,101.548018 C52.9964722,97.51009 54.2115995,93.9934354 55.1575531,91.55823 C56.7913656,91.6304978 58.4282936,91.5549891 60.0488252,91.3326039 C56.8956467,92.748602 54.2115995,97.8446389 54.5269174,101.197909 C54.6730403,102.691709 55.5497777,103.710917 57.4186129,103.710917 C61.0409229,103.710917 64.0787413,99.3773401 65.2477245,96.5142232 C65.8854284,95.1113493 66.2832959,93.6092116 66.4243985,92.0717238 C67.2857546,91.9161196 68.116348,91.7682956 68.523954,91.706054 C69.2930219,91.597131 69.1622804,92.4840749 68.9161786,93.1531729 C67.4318775,97.3389254 64.8708813,103.407488 64.8554999,103.500851 L67.6779793,103.500851 C68.908488,100.925602 69.6698652,99.2684172 70.6388908,97.5178702 C71.8155648,95.4483345 74.4842306,92.0717238 75.4917096,92.0717238 C75.8685529,92.0717238 75.9685317,92.3129103 75.8685529,92.6707999 C75.6916673,94.0712375 72.3000776,99.4395818 72.3539124,102.084853 C72.2973414,103.62504 73.3636607,104.97511 74.8610739,105.259178 L75.1917731,105.072453 C75.0064408,104.628059 74.929929,104.144961 74.9687434,103.664235 C74.9687434,101.898128 76.3607564,98.8093849 76.9067946,97.6112327 C77.7758414,95.7284221 79.3370493,92.9431072 79.2139984,91.4570873 C79.1601637,90.6790664 78.6141254,90.0644299 77.3605447,90.0566496 C75.0533409,90.0566496 72.746137,92.3129103 70.8311578,95.3471918 L70.7850138,95.3471918 C71.5540817,93.5810844 72.1616454,91.9394602 72.1385733,91.1380987 C72.1155013,90.3367372 71.715586,90.1188913 70.8465392,90.1188913 C70.0848234,90.2048577 69.3328922,90.3637678 68.6008608,90.5934841 C67.4549496,90.889132 66.293657,91.2003404 64.947788,91.4882081 C64.132576,91.597131 63.8557116,91.744955 63.8787836,92.040603 C64.0479786,96.7087284 60.917872,102.154875 58.8413886,102.154875 C57.9415791,102.154875 57.7416214,101.493557 57.7416214,100.598833 C57.7416214,97.3933868 60.3410711,91.9939217 62.8943766,91.1380987 L63.4711776,90.9824945 L63.8018768,90.1111111 C62.9703295,90.2174248 62.1328727,90.2694006 61.2947153,90.2667153 L55.7420447,90.2667153 C57.2186552,86.7111597 59.287448,84.3926574 62.3252664,84.2603939 C64.2171735,84.1981522 65.4861356,84.9217116 65.5938051,86.0109409 C65.6888546,86.9305782 65.3496848,87.8417155 64.6786143,88.469487 L64.8939533,88.6795526 C66.5551401,87.9015317 67.7010513,86.5322149 67.7164327,85.567469 C67.7164327,84.1436907 66.0321739,83.2334063 63.317364,83.2878677 C59.8642489,83.2878677 55.6266845,84.0658886 52.6350102,90.3367372 C51.7301053,90.4397867 50.8907149,90.8643677 50.266281,91.5348894 L50.3893318,91.8071967 C50.9416485,91.6492649 51.5157386,91.5835666 52.088972,91.6126915 C51.681366,92.6318989 50.8584633,94.8492584 50.0278699,97.1288597 C47.5283991,100.47435 45.0135469,102.069292 43.1677838,102.069292 C42.1603048,102.069292 41.7526988,101.532458 41.7526988,100.559932 C41.7566496,99.9105667 41.8445565,99.2645146 42.0141819,98.6382203 C44.1372829,97.6513285 46.077722,96.304049 47.7514288,94.6547532 C48.6801769,93.8036426 49.2775446,92.6446692 49.4356876,91.3870654 C49.4356876,90.3367372 48.8127425,89.8310236 47.4976364,89.7765621 C45.6288012,89.7765621 43.3754322,91.0525164 41.8988217,92.6318989 C39.9915332,94.7403355 38.4918507,97.7434962 38.4533973,100.412108 Z M46.6285896,91.1225383 C47.0592676,91.1225383 47.2284626,91.4181862 47.2284626,91.7916363 C47.2284626,93.5810844 45.059691,95.8606856 42.252593,97.5256504 C42.9678261,94.7714564 44.9289494,91.0991977 46.6362803,91.1225383 L46.6285896,91.1225383 Z M119.013265,89.9788476 L122.927821,89.9788476 C124.904325,89.9788476 126.77316,90.3211768 127.857546,91.4959883 C128.706601,92.5361007 129.120542,93.8705462 129.011148,95.2149283 C129.094408,97.4730406 128.315002,99.6768819 126.834686,101.369074 C125.373457,102.862874 123.458477,103.360807 120.782121,103.360807 L116.690679,103.360807 L119.013265,89.9788476 Z M121.105129,101.135667 C122.735554,101.135667 123.82763,100.723316 124.673605,99.4784829 C125.477726,98.223789 125.897763,96.756843 125.881041,95.2616095 C125.951045,94.4567728 125.726648,93.6539318 125.250406,93.0053489 C124.608495,92.3968193 123.730805,92.1113187 122.858604,92.227328 L121.628096,92.227328 L120.08996,101.159008 L121.105129,101.135667 Z M135.432865,89.9788476 L138.755239,89.9788476 L141.216256,103.360807 L138.139984,103.360807 L137.609328,99.9997569 L133.325619,99.9997569 L131.718267,103.360807 L128.69583,103.360807 L135.432865,89.9788476 Z M137.247866,97.7590566 L136.594158,93.0909312 L134.410005,97.7590566 L137.247866,97.7590566 Z M147.184224,92.1573061 L143.085091,92.1573061 L143.469625,89.9477267 L154.828759,89.9477267 L154.198123,92.1573061 L150.206661,92.1573061 L148.268609,103.329686 L145.246172,103.329686 L147.184224,92.1573061 Z M159.135539,89.9477267 L162.465604,89.9477267 L164.926621,103.329686 L161.850349,103.329686 L161.327383,99.968636 L157.035984,99.968636 L155.436323,103.329686 L152.413886,103.329686 L159.135539,89.9477267 Z M160.95054,97.7279358 L160.296832,93.0598104 L158.112679,97.7279358 L160.95054,97.7279358 Z M173.047979,102.396061 C172.131146,101.570717 171.649998,100.358163 171.748254,99.1205932 C171.758901,98.396535 171.836141,97.6750508 171.978974,96.9654753 L173.224864,89.885485 L176.178085,89.885485 L174.809144,97.7512764 C174.725573,98.1901165 174.676711,98.6349971 174.663021,99.0816922 C174.645712,99.583221 174.788647,100.077039 175.070627,100.48991 C175.528993,101.006469 176.202609,101.272122 176.885628,101.205689 C177.669693,101.260778 178.437027,100.958262 178.977492,100.380987 C179.503766,99.6716167 179.825831,98.8288079 179.908065,97.9457817 L181.315459,89.885485 L184.022578,89.885485 L182.484442,98.8560661 C182.331491,100.1869 181.69899,101.413999 180.707895,102.302699 C179.592498,103.177044 178.20209,103.613669 176.793339,103.531972 C175.458836,103.655323 174.125391,103.28491 173.040288,102.489424 L173.047979,102.396061 Z M187.083469,89.885485 L189.259931,89.885485 L194.043533,98.6382203 L195.581669,89.885485 L198.234954,89.885485 L195.92775,103.267445 L193.559021,103.267445 L188.898469,94.942621 L187.452621,103.267445 L184.799337,103.267445 L187.083469,89.885485 Z M201.449658,89.885485 L204.472095,89.885485 L202.164891,103.267445 L199.188598,103.267445 L201.449658,89.885485 Z M210.355465,92.1962071 L206.256332,92.1962071 L206.640866,89.9866278 L218,89.9866278 L217.369364,92.1962071 L213.377902,92.1962071 L211.447541,103.368587 L208.417413,103.368587 L210.355465,92.1962071 Z" id="Shape" fill="#2C2C2C" fill-rule="nonzero"></path>
                    <path d="M11.4821844,66.7797228 L11.6744514,66.6163384 C11.4297981,66.1054126 11.3110556,65.5421607 11.3283708,64.9747143 C11.4283497,61.2013129 15.3659776,59.0617554 21.5262118,59.0617554 L24.9331828,59.0617554 C22.7016489,60.312575 20.9596034,62.2972497 19.9957666,64.6868466 C19.4497284,65.9394602 16.8348973,72.6926817 15.7735836,75.7191831 C14.4507867,79.3292001 13.604812,80.9708242 12.5511889,81.5699003 L12.7357652,81.8966691 C15.6812954,82.0833941 17.4501517,80.5584731 18.5806816,77.7342572 C19.6573767,75.0734257 21.0878431,70.8254316 21.7876949,68.942621 C24.0564454,62.8662777 25.048543,60.3221493 26.8635434,59.0617554 L31.8086503,59.0617554 C34.5157694,58.9839533 35.65399,58.2837345 36.5230368,57.2411865 L36.3307698,57 C35.2392498,57.3688093 34.0878456,57.522004 32.9391801,57.4512521 L20.7648345,57.4512521 C13.8816764,57.4512521 9.6594934,59.7386336 8.97502293,63.1463652 C8.77511707,63.9703044 8.93570297,64.8414283 9.41573711,65.5370898 C9.89577124,66.2327513 10.6487362,66.6855376 11.4821844,66.7797228 Z" id="Shape-Copy" stroke="#2C2C2C" stroke-width="0.5" stroke-dasharray="1" fill-rule="nonzero"></path>
                </g>
                <g id="protection-area" fill="#FBA6D9">
                    <rect id="Rectangle-2" opacity="0.2" x="1" y="15" width="31" height="175"></rect>
                    <rect id="Rectangle-2" opacity="0.2" x="250" y="15" width="30" height="175"></rect>
                    <rect id="Rectangle" opacity="0.2" x="1" y="15" width="279" height="29"></rect>
                    <rect id="Rectangle" opacity="0.2" x="1" y="161" width="279" height="29"></rect>
                    <text id="X-Copy-2" font-family="HelveticaNeue-Bold, Helvetica Neue" font-size="7" font-weight="bold">
                        <tspan x="286.1655" y="97">X</tspan>
                    </text>
                    <text id="2X" font-family="HelveticaNeue-Bold, Helvetica Neue" font-size="7" font-weight="bold">
                        <tspan x="283.7195" y="33">2X</tspan>
                    </text>
                    <text id="2X" font-family="HelveticaNeue-Bold, Helvetica Neue" font-size="7" font-weight="bold">
                        <tspan x="283.7195" y="178">2X</tspan>
                    </text>
                    <text id="2X" font-family="HelveticaNeue-Bold, Helvetica Neue" font-size="7" font-weight="bold">
                        <tspan x="259.7195" y="12">2X</tspan>
                    </text>
                    <text id="2X" font-family="HelveticaNeue-Bold, Helvetica Neue" font-size="7" font-weight="bold">
                        <tspan x="11.7195" y="12">2X</tspan>
                    </text>
                    <g id="medio" transform="translate(1.000000, 87.000000)">
                        <rect id="ruler-line-copy-3" x="0" y="40" width="292" height="1"></rect>
                        <rect id="ruler-line-copy-4" x="0" y="14" width="292" height="1"></rect>
                        <rect id="ruler-line-copy-5" x="0" y="0" width="292" height="1"></rect>
                    </g>
                    <g id="izq" transform="translate(0.000000, 2.000000)">
                        <rect id="ruler-line-copy-3" transform="translate(0.950000, 94.275000) rotate(-90.000000) translate(-0.950000, -94.275000) " x="-92.325" y="93.775" width="186.55" height="1"></rect>
                        <rect id="ruler-line-copy-3" transform="translate(16.450000, 100.025000) rotate(-90.000000) translate(-16.450000, -100.025000) " x="-71.025" y="99.025" width="174.95" height="1"></rect>
                        <rect id="ruler-line-copy-4" transform="translate(31.950000, 94.050000) rotate(-90.000000) translate(-31.950000, -94.050000) " x="-61.55" y="93.55" width="187" height="1"></rect>
                    </g>
                    <g id="dcha" transform="translate(249.000000, 0.000000)">
                        <rect id="ruler-line-copy-7" transform="translate(30.950000, 96.050000) rotate(-90.000000) translate(-30.950000, -96.050000) " x="-62.55" y="95.55" width="187" height="1"></rect>
                        <rect id="ruler-line-copy-6" transform="translate(15.950000, 103.050000) rotate(-90.000000) translate(-15.950000, -103.050000) " x="-70.55" y="102.55" width="173" height="1"></rect>
                        <rect id="ruler-line-copy-8" transform="translate(1.450002, 94.999999) rotate(-90.000000) translate(-1.450002, -94.999999) " x="-93.0499992" y="93.9999992" width="189.000002" height="1"></rect>
                    </g>
                    <g id="abajo" transform="translate(1.000000, 160.000000)">
                        <rect id="ruler-line-copy-3" x="0" y="29" width="292" height="1"></rect>
                        <rect id="ruler-line-copy-4" x="0" y="15" width="279" height="1"></rect>
                        <rect id="ruler-line-copy-5" x="0" y="0" width="292" height="1"></rect>
                    </g>
                    <g id="arriba" transform="translate(1.000000, 15.000000)">
                        <rect id="ruler-line-copy-3" x="0" y="29" width="292" height="1"></rect>
                        <rect id="ruler-line-copy-4" x="0" y="15" width="279" height="1"></rect>
                        <rect id="ruler-line-copy-5" x="0" y="0" width="292" height="1"></rect>
                    </g>
                </g>
            </g>
        </g>
    </g>
</svg>
