
<svg width="281px" height="94px" viewBox="0 0 281 94" version="1.1" xmlns="http://www.w3.org/2000/svg" xmlns:xlink="http://www.w3.org/1999/xlink">
    <!-- Generator: Sketch 49.1 (51147) - http://www.bohemiancoding.com/sketch -->
    <desc>Created with Sketch.</desc>
    <defs></defs>
    <g id="Page-1" stroke="none" stroke-width="1" fill="none" fill-rule="evenodd">
        <g id="Brand" transform="translate(-209.000000, -1084.000000)">
            <g id="Logo-claim-1" transform="translate(209.000000, 1084.000000)">
                <g>
                    <g id="LUCA" fill="#1D1D1B" fill-rule="nonzero">
                        <path d="M15.1066466,59.9671952 C13.528657,59.9829403 12.0086652,59.3930374 10.8802693,58.3269546 L1.69765827,49.4532531 C0.594463245,48.3628172 -0.0159752057,46.8939591 0.000317976011,45.3690541 L0.000317976011,1.64024057 C0.000317976011,0.734360717 0.760243111,1.66407429e-16 1.69765827,0 L13.9185084,0 C14.8559236,5.54691431e-17 15.6158487,0.734360717 15.6158487,1.64024057 L15.6158487,43.4171679 C15.5748997,43.9590565 15.7798811,44.4913603 16.177449,44.8755537 C16.5750169,45.2597471 17.1258511,45.4578328 17.6866039,45.4182613 L39.8708415,45.4182613 C40.8082567,45.4182613 41.5681818,46.1526221 41.5681818,47.0585019 L41.5681818,58.3597594 C41.5681818,59.2656393 40.8082567,60 39.8708415,60 L15.1066466,59.9671952 Z" id="Shape"></path>
                        <path d="M92.5671472,59.9996926 C94.1101776,60.0154462 95.596495,59.4252236 96.6998921,58.3585631 L105.612679,49.5292867 C106.691434,48.4382598 107.288349,46.9686057 107.272416,45.4428744 L107.272416,1.64112945 C107.272416,0.734758681 106.529327,5.54992028e-17 105.612679,0 L93.6625736,0 C92.7459262,-5.54992028e-17 92.0028366,0.734758681 92.0028366,1.64112945 L92.0028366,43.4406964 C92.0428785,43.9828787 91.8424383,44.515471 91.4536782,44.8998726 C91.0649182,45.2842743 90.5262872,45.4824673 89.9779576,45.4428744 L73.679341,45.4428744 C73.1200562,45.5030406 72.5626994,45.3139951 72.1585279,44.9270419 C71.7543565,44.5400887 71.5452925,43.9953637 71.5880725,43.4406964 L71.5880725,1.64112945 C71.5880725,0.734758681 70.8449829,5.54992028e-17 69.9283355,0 L57.9782297,0 C57.0615823,-5.54992028e-17 56.3184927,0.734758681 56.3184927,1.64112945 L56.3184927,45.3936405 C56.3025605,46.9193718 56.8994752,48.3890259 57.9782297,49.4800528 L66.891017,58.3093292 C67.9944141,59.3759897 69.4807315,59.9662123 71.0237619,59.9504587 L92.5671472,59.9996926 Z" id="Shape"></path>
                        <path d="M123.363952,45.4474189 C123.347787,46.9743954 123.953408,48.4452489 125.047895,49.5371662 L134.107511,58.3572235 C135.227,59.4247545 136.734995,60.0154588 138.30053,59.9996923 L168.611511,59.9996923 C169.541527,59.9996923 170.295455,59.264334 170.295455,58.3572235 L170.295455,47.1063124 C170.295455,46.1992019 169.541527,45.4638436 168.611511,45.4638436 L140.876963,45.4638436 C140.30992,45.5286416 139.742729,45.3439021 139.32938,44.9597814 C138.916032,44.5756607 138.69942,44.03202 138.738355,43.4764564 L138.738355,16.6385165 C138.697729,16.0958917 138.901093,15.5628648 139.295523,15.1781494 C139.689953,14.7934341 140.236439,14.5950793 140.792766,14.6347045 L168.611511,14.6347045 C169.541527,14.6347045 170.295455,13.8993462 170.295455,12.9922358 L170.295455,1.64277648 C170.295455,0.735666018 169.541527,0.000307696502 168.611511,0.000307696502 L138.30053,0.000307696502 C136.734995,-0.0154587602 135.227,0.575245474 134.107511,1.64277648 L125.115253,10.5285326 C124.020765,11.6204498 123.415145,13.0913034 123.43131,14.6182799 L123.363952,45.4474189 Z" id="Shape"></path>
                        <path d="M234.191465,10.4879254 L225.281525,1.64413513 C224.178481,0.575721228 222.692638,-0.0154715453 221.150101,0.000307950981 L199.746336,0.000307950981 C198.203798,-0.0154715453 196.717956,0.575721228 195.614911,1.64413513 L186.704972,10.4879254 C185.626562,11.5807457 185.029838,13.0528157 185.045765,14.581055 L185.045765,58.3561728 C185.045765,59.2640335 185.788617,60 186.704972,60 L198.651259,60 C199.567614,60 200.310466,59.2640335 200.310466,58.3561728 L200.310466,41.128864 C200.270437,40.5857904 200.470813,40.0523227 200.859449,39.6672892 C201.248085,39.2822556 201.786544,39.0837368 202.334698,39.1233948 L218.711067,39.1233948 C219.259222,39.0837368 219.797681,39.2822556 220.186316,39.6672892 C220.574952,40.0523227 220.775328,40.5857904 220.735299,41.128864 L220.735299,58.3561728 C220.735299,59.2640335 221.478151,60 222.394506,60 L234.340793,60 C235.257148,60 236,59.2640335 236,58.3561728 L236,14.581055 C235.976487,13.0314091 235.32471,11.5562878 234.191465,10.4879254 Z M219.904141,26.6180167 C219.94354,27.1792382 219.746314,27.730533 219.363788,28.1284332 C218.981262,28.5263335 218.451268,28.7314862 217.911731,28.690503 L201.792814,28.690503 C201.253277,28.7314862 200.723283,28.5263335 200.340757,28.1284332 C199.958231,27.730533 199.761005,27.1792382 199.800405,26.6180167 L199.800405,16.4254615 C199.761005,15.86424 199.958231,15.3129453 200.340757,14.915045 C200.723283,14.5171448 201.253277,14.3119921 201.792814,14.3529753 L217.911731,14.3529753 C218.451268,14.3119921 218.981262,14.5171448 219.363788,14.915045 C219.746314,15.3129453 219.94354,15.86424 219.904141,16.4254615 L219.904141,26.6180167 Z" id="Shape"></path>
                    </g>
                    <path d="M0,75 L4.31184748,75 C5.93660973,75 7.26675227,75.154028 8.30231502,75.4620887 C9.33787778,75.7701494 10.1948824,76.2865963 10.8733545,77.0114449 C12.1945898,78.4792634 12.8551975,80.8802885 12.8551975,84.2145923 C12.8551975,86.0810775 12.6409463,87.6711904 12.2124376,88.9849785 C11.7839289,90.2987667 11.2125925,91.2908884 10.4984113,91.9613734 C9.35572133,93.0486464 7.50780517,93.5922747 4.95460735,93.5922747 L0,93.5922747 L0,75 Z M4.79391739,92.1516452 C6.91860648,92.1516452 8.44514591,91.6895611 9.37358148,90.7653791 C10.0163446,90.1311366 10.485019,89.2794522 10.7796187,88.2103004 C11.0742184,87.1411487 11.2215161,85.8092593 11.2215161,84.2145923 C11.2215161,82.6924101 11.0876091,81.423944 10.8197912,80.4091559 C10.5519732,79.3943678 10.1234709,78.5789254 9.53427145,77.962804 C8.99863554,77.4191675 8.30678288,77.0295672 7.45869269,76.7939914 C6.61060251,76.5584156 5.55273746,76.4406295 4.28506582,76.4406295 L1.60689968,76.4406295 L1.60689968,92.1516452 L4.79391739,92.1516452 Z M20.086246,93.9728183 C18.7650108,93.9728183 17.7026822,93.6194599 16.8992283,92.9127325 C16.0957745,92.2060051 15.6940536,91.1821717 15.6940536,89.8412017 C15.6940536,88.6270802 16.0332845,87.6938516 16.7117567,87.0414878 C17.15812,86.6065787 17.7205292,86.2939924 18.3990014,86.1037196 C19.0774735,85.9134468 19.925551,85.8183119 20.9432592,85.8183119 L24.1034952,85.8183119 L24.1034952,84.7310443 C24.1034952,83.4806804 23.8446084,82.5927542 23.3268271,82.0672389 C22.8269002,81.5417236 21.9431142,81.27897 20.6754426,81.27897 C19.4791891,81.27897 18.2561721,81.4239375 17.006355,81.713877 L16.8992283,80.4091559 C18.202609,80.0648528 19.5059702,79.8927039 20.8093509,79.8927039 C22.5769494,79.8927039 23.8356749,80.2823042 24.5855651,81.0615165 C25.2997463,81.8226075 25.6568316,82.9732875 25.6568316,84.5135908 L25.6568316,93.5922747 L24.3980935,93.5922747 L24.3177485,92.695279 C23.6571309,93.0939457 22.9608147,93.406532 22.2287789,93.6330472 C21.4967432,93.8595624 20.7825727,93.9728183 20.086246,93.9728183 Z M20.3540626,92.5865522 C20.9611167,92.5865522 21.6127972,92.4959475 22.3091239,92.3147353 C23.0054506,92.1335232 23.6035684,91.8979509 24.1034952,91.6080114 L24.1034952,87.0958512 L21.1842941,87.0958512 C20.3629858,87.0958512 19.702378,87.1592745 19.2024512,87.286123 C18.7025244,87.4129715 18.3008035,87.6032415 17.9972764,87.8569385 C17.4973496,88.2918477 17.2473899,88.9442017 17.2473899,89.81402 C17.2473899,90.7563233 17.5152039,91.4539796 18.0508398,91.90701 C18.5864757,92.3600404 19.354209,92.5865522 20.3540626,92.5865522 Z M33.8788016,93.9728183 C32.6646936,93.9728183 31.7809076,93.6919437 31.2274172,93.130186 C30.9238901,92.8221253 30.7007119,92.4189343 30.5578756,91.9206009 C30.4150394,91.4222674 30.3436223,90.7925646 30.3436223,90.0314735 L30.3436223,81.5236052 L27.9332728,81.5236052 L27.9332728,80.5722461 L30.3436223,80.2732475 L30.3436223,77.2017167 C30.8792582,77.0386258 31.3970318,76.9299001 31.8969587,76.8755365 L31.8969587,80.2732475 L35.3785747,80.2732475 L35.3785747,81.5236052 L31.8969587,81.5236052 L31.8969587,89.5422031 C31.8969587,90.2308094 31.9282037,90.7517865 31.9906945,91.1051502 C32.0531854,91.4585139 32.1826288,91.7529793 32.3790286,91.9885551 C32.7361192,92.3872218 33.3163827,92.5865522 34.1198366,92.5865522 C34.7447451,92.5865522 35.41428,92.505008 36.1284612,92.341917 L36.2355878,93.6194564 C35.5392612,93.8550322 34.7536736,93.9728183 33.8788016,93.9728183 Z M42.39537,93.9728183 C41.0741347,93.9728183 40.0118061,93.6194599 39.2083522,92.9127325 C38.4048984,92.2060051 38.0031775,91.1821717 38.0031775,89.8412017 C38.0031775,88.6270802 38.3424085,87.6938516 39.0208806,87.0414878 C39.4672439,86.6065787 40.0296531,86.2939924 40.7081253,86.1037196 C41.3865974,85.9134468 42.2346749,85.8183119 43.2523831,85.8183119 L46.4126192,85.8183119 L46.4126192,84.7310443 C46.4126192,83.4806804 46.1537324,82.5927542 45.635951,82.0672389 C45.1360241,81.5417236 44.2522381,81.27897 42.9845665,81.27897 C41.788313,81.27897 40.565296,81.4239375 39.3154789,81.713877 L39.2083522,80.4091559 C40.511733,80.0648528 41.8150941,79.8927039 43.1184748,79.8927039 C44.8860733,79.8927039 46.1447988,80.2823042 46.8946891,81.0615165 C47.6088703,81.8226075 47.9659555,82.9732875 47.9659555,84.5135908 L47.9659555,93.5922747 L46.7072174,93.5922747 L46.6268724,92.695279 C45.9662548,93.0939457 45.2699386,93.406532 44.5379029,93.6330472 C43.8058671,93.8595624 43.0916966,93.9728183 42.39537,93.9728183 Z M42.6631866,92.5865522 C43.2702406,92.5865522 43.9219212,92.4959475 44.6182478,92.3147353 C45.3145745,92.1335232 45.9126923,91.8979509 46.4126192,91.6080114 L46.4126192,87.0958512 L43.4934181,87.0958512 C42.6721097,87.0958512 42.011502,87.1592745 41.5115751,87.286123 C41.0116483,87.4129715 40.6099274,87.6032415 40.3064004,87.8569385 C39.8064735,88.2918477 39.5565138,88.9442017 39.5565138,89.81402 C39.5565138,90.7563233 39.8243278,91.4539796 40.3599637,91.90701 C40.8955996,92.3600404 41.6633329,92.5865522 42.6631866,92.5865522 Z M51.6350431,85.8454936 L56.5896505,85.8454936 L56.5896505,87.2317597 L51.6350431,87.2317597 L51.6350431,85.8454936 Z M60.7140263,75 L65.0258738,75 C66.6506361,75 67.9807786,75.154028 69.0163414,75.4620887 C70.0519041,75.7701494 70.9089087,76.2865963 71.5873808,77.0114449 C72.9086161,78.4792634 73.5692238,80.8802885 73.5692238,84.2145923 C73.5692238,86.0810775 73.3549726,87.6711904 72.9264639,88.9849785 C72.4979552,90.2987667 71.9266188,91.2908884 71.2124376,91.9613734 C70.0697477,93.0486464 68.2218315,93.5922747 65.6686337,93.5922747 L60.7140263,93.5922747 L60.7140263,75 Z M65.5079437,92.1516452 C67.6326328,92.1516452 69.1591722,91.6895611 70.0876078,90.7653791 C70.7303709,90.1311366 71.1990453,89.2794522 71.493645,88.2103004 C71.7882448,87.1411487 71.9355424,85.8092593 71.9355424,84.2145923 C71.9355424,82.6924101 71.8016355,81.423944 71.5338175,80.4091559 C71.2659996,79.3943678 70.8374973,78.5789254 70.2482978,77.962804 C69.7126619,77.4191675 69.0208092,77.0295672 68.172719,76.7939914 C67.3246288,76.5584156 66.2667638,76.4406295 64.9990921,76.4406295 L62.320926,76.4406295 L62.320926,92.1516452 L65.5079437,92.1516452 Z M77.1579664,80.2732475 L78.3899228,80.2732475 L78.5238311,81.4148784 C79.1130306,80.9256056 79.7513205,80.549596 80.4387199,80.2868383 C81.1261193,80.0240807 81.7822635,79.8927039 82.407172,79.8927039 C82.6571355,79.8927039 82.8713866,79.9017643 83.0499319,79.9198856 L83.0499319,81.3876967 C82.7642594,81.3695755 82.460737,81.360515 82.1393554,81.360515 C80.9073928,81.360515 79.76472,81.7319944 78.7113028,82.4749642 L78.7113028,93.5922747 L77.1579664,93.5922747 L77.1579664,80.2732475 Z M86.3440763,77.5822604 C85.7013132,77.5822604 85.3799365,77.228902 85.3799365,76.5221745 L85.3799365,76.4406295 C85.3799365,75.733902 85.7013132,75.3805436 86.3440763,75.3805436 L86.4512029,75.3805436 C87.093966,75.3805436 87.4153427,75.733902 87.4153427,76.4406295 L87.4153427,76.5221745 C87.4153427,77.228902 87.093966,77.5822604 86.4512029,77.5822604 L86.3440763,77.5822604 Z M85.6209714,80.2732475 L87.1743078,80.2732475 L87.1743078,93.5922747 L85.6209714,93.5922747 L85.6209714,80.2732475 Z M89.7185656,80.2732475 L91.3522469,80.2732475 L95.2088062,91.9341917 L98.9850204,80.2732475 L100.565138,80.2732475 L96.012256,93.5922747 L94.351793,93.5922747 L89.7185656,80.2732475 Z M108.33182,94 C106.171422,94 104.59132,93.3974786 103.591466,92.1924177 C102.591612,90.9873569 102.091693,89.243216 102.091693,86.9599428 C102.091693,84.7853969 102.542513,83.0684374 103.444167,81.8090129 C104.345821,80.5495884 105.680427,79.9198856 107.448025,79.9198856 C110.89395,79.9198856 112.616886,82.2937292 112.616886,87.0414878 L112.616886,87.286123 C112.616886,87.3948503 112.594568,87.4718643 112.549932,87.5171674 C112.505296,87.5624704 112.420488,87.5851216 112.295506,87.5851216 L103.725374,87.5851216 C103.761084,89.2522735 104.140487,90.5116791 104.863595,91.3633763 C105.586704,92.2150734 106.778476,92.6409156 108.438947,92.6409156 C109.456655,92.6409156 110.563619,92.5050085 111.759873,92.2331903 L111.893781,93.5107296 C111.447418,93.6556993 110.885009,93.7734855 110.206537,93.8640916 C109.528064,93.9546976 108.903165,94 108.33182,94 Z M111.090331,86.3075823 C111.090331,84.7129153 110.791272,83.4671003 110.193146,82.5701001 C109.595019,81.6730999 108.679988,81.2246066 107.448025,81.2246066 C106.216063,81.2246066 105.287641,81.6730999 104.662733,82.5701001 C104.037824,83.4671003 103.716447,84.7129153 103.698593,86.3075823 L111.090331,86.3075823 Z M115.991375,80.2732475 L117.223332,80.2732475 L117.330458,81.27897 C118.830239,80.3547879 120.365706,79.8927039 121.936904,79.8927039 C122.633231,79.8927039 123.267057,79.9878388 123.838402,80.1781116 C124.409747,80.3683844 124.873958,80.6447288 125.231049,81.0071531 C125.605994,81.3876986 125.882735,81.8452525 126.06128,82.3798283 C126.239825,82.9144042 126.329097,83.5803489 126.329097,84.3776824 L126.329097,93.5922747 L124.77576,93.5922747 L124.77576,84.7854077 C124.77576,84.0968015 124.717734,83.548643 124.60168,83.1409156 C124.485625,82.7331882 124.293692,82.3934205 124.025874,82.1216023 C123.508092,81.596087 122.731432,81.3333333 121.695869,81.3333333 C121.053106,81.3333333 120.365717,81.4239381 119.633681,81.6051502 C118.901646,81.7863624 118.205329,82.0491161 117.544712,82.3934192 L117.544712,93.5922747 L115.991375,93.5922747 L115.991375,80.2732475 Z M135.943713,75 L140.255561,75 C141.880323,75 143.210465,75.154028 144.246028,75.4620887 C145.281591,75.7701494 146.138595,76.2865963 146.817068,77.0114449 C148.138303,78.4792634 148.798911,80.8802885 148.798911,84.2145923 C148.798911,86.0810775 148.584659,87.6711904 148.156151,88.9849785 C147.727642,90.2987667 147.156306,91.2908884 146.442124,91.9613734 C145.299434,93.0486464 143.451518,93.5922747 140.89832,93.5922747 L135.943713,93.5922747 L135.943713,75 Z M140.737631,92.1516452 C142.86232,92.1516452 144.388859,91.6895611 145.317295,90.7653791 C145.960058,90.1311366 146.428732,89.2794522 146.723332,88.2103004 C147.017932,87.1411487 147.165229,85.8092593 147.165229,84.2145923 C147.165229,82.6924101 147.031322,81.423944 146.763504,80.4091559 C146.495686,79.3943678 146.067184,78.5789254 145.477985,77.962804 C144.942349,77.4191675 144.250496,77.0295672 143.402406,76.7939914 C142.554316,76.5584156 141.496451,76.4406295 140.228779,76.4406295 L137.550613,76.4406295 L137.550613,92.1516452 L140.737631,92.1516452 Z M157.98502,94 C155.824622,94 154.24452,93.3974786 153.244666,92.1924177 C152.244813,90.9873569 151.744893,89.243216 151.744893,86.9599428 C151.744893,84.7853969 152.195713,83.0684374 153.097367,81.8090129 C153.999021,80.5495884 155.333627,79.9198856 157.101226,79.9198856 C160.54715,79.9198856 162.270086,82.2937292 162.270086,87.0414878 L162.270086,87.286123 C162.270086,87.3948503 162.247768,87.4718643 162.203132,87.5171674 C162.158496,87.5624704 162.073688,87.5851216 161.948706,87.5851216 L153.378575,87.5851216 C153.414284,89.2522735 153.793687,90.5116791 154.516795,91.3633763 C155.239904,92.2150734 156.431676,92.6409156 158.092147,92.6409156 C159.109855,92.6409156 160.21682,92.5050085 161.413073,92.2331903 L161.546981,93.5107296 C161.100618,93.6556993 160.538209,93.7734855 159.859737,93.8640916 C159.181265,93.9546976 158.556365,94 157.98502,94 Z M160.743532,86.3075823 C160.743532,84.7129153 160.444473,83.4671003 159.846346,82.5701001 C159.248219,81.6730999 158.333188,81.2246066 157.101226,81.2246066 C155.869263,81.2246066 154.940841,81.6730999 154.315933,82.5701001 C153.691024,83.4671003 153.369648,84.7129153 153.351793,86.3075823 L160.743532,86.3075823 Z M171.295506,93.9728183 C169.206526,93.9728183 167.635351,93.4065388 166.581934,92.2739628 C165.528516,91.1413868 165.001816,89.4063064 165.001816,87.0686695 C165.001816,84.6947902 165.524053,82.905347 166.568543,81.7002861 C167.613033,80.4952253 169.135109,79.8927039 171.134816,79.8927039 C172.277506,79.8927039 173.295199,80.0467319 174.187926,80.3547926 L174.080799,81.6595136 C173.063091,81.3876954 172.152523,81.2517883 171.349069,81.2517883 C169.61718,81.2517883 168.394163,81.7093421 167.679982,82.6244635 C166.965801,83.5395849 166.608715,85.0028512 166.608715,87.0143062 C166.608715,88.9895187 166.992582,90.4165431 167.760327,91.295422 C168.528072,92.174301 169.822506,92.6137339 171.643668,92.6137339 C172.018613,92.6137339 172.447115,92.5865525 172.929187,92.5321888 C173.41126,92.4778252 173.812981,92.4144019 174.134362,92.341917 L174.268271,93.6466381 C173.375544,93.8640926 172.384632,93.9728183 171.295506,93.9728183 Z M178.098048,77.5822604 C177.455285,77.5822604 177.133908,77.228902 177.133908,76.5221745 L177.133908,76.4406295 C177.133908,75.733902 177.455285,75.3805436 178.098048,75.3805436 L178.205175,75.3805436 C178.847938,75.3805436 179.169315,75.733902 179.169315,76.4406295 L179.169315,76.5221745 C179.169315,77.228902 178.847938,77.5822604 178.205175,77.5822604 L178.098048,77.5822604 Z M177.374943,80.2732475 L178.92828,80.2732475 L178.92828,93.5922747 L177.374943,93.5922747 L177.374943,80.2732475 Z M186.02542,93.9728183 C185.382657,93.9728183 184.744367,93.927516 184.110531,93.8369099 C183.476695,93.7463038 182.927677,93.6285177 182.463459,93.4835479 L182.597367,92.2331903 C183.686494,92.5231297 184.802385,92.6680973 185.945075,92.6680973 C187.123474,92.6680973 188.020651,92.4597064 188.636632,92.0429185 C189.252613,91.6261305 189.560599,91.0190789 189.560599,90.2217454 C189.560599,89.6781089 189.413302,89.2341457 189.118702,88.8898426 C188.824102,88.5455395 188.462553,88.2782556 188.034044,88.0879828 C187.605536,87.8977101 187.007418,87.684789 186.239673,87.4492132 C185.346947,87.1592737 184.63724,86.8919898 184.110531,86.6473534 C183.583822,86.4027169 183.133002,86.0357678 182.758057,85.546495 C182.383112,85.0572222 182.195642,84.4139286 182.195642,83.6165951 C182.195642,82.3843524 182.610754,81.4556541 183.44099,80.8304721 C184.271225,80.2052902 185.436216,79.8927039 186.935996,79.8927039 C187.453778,79.8927039 188.011723,79.933476 188.60985,80.0150215 C189.207977,80.0965669 189.730214,80.2098228 190.176577,80.3547926 L190.096232,81.5779685 C188.935688,81.3242715 187.891214,81.1974249 186.962778,81.1974249 C185.873652,81.1974249 185.052356,81.3876948 184.498865,81.7682403 C183.945375,82.1487859 183.668634,82.7377166 183.668634,83.5350501 C183.668634,84.0424441 183.811468,84.4546956 184.09714,84.7718169 C184.382813,85.0889382 184.735434,85.3426314 185.155016,85.5329041 C185.574597,85.7231769 186.159324,85.936098 186.909215,86.1716738 C187.801941,86.4616133 188.520575,86.7424879 189.065138,87.0143062 C189.609702,87.2861244 190.073912,87.6711945 190.457785,88.1695279 C190.841657,88.6678613 191.033591,89.3247456 191.033591,90.1402003 C191.033591,91.372443 190.605088,92.3192623 189.748071,92.9806867 C188.891053,93.6421111 187.650182,93.9728183 186.02542,93.9728183 Z M194.863368,77.5822604 C194.220605,77.5822604 193.899228,77.228902 193.899228,76.5221745 L193.899228,76.4406295 C193.899228,75.733902 194.220605,75.3805436 194.863368,75.3805436 L194.970495,75.3805436 C195.613258,75.3805436 195.934635,75.733902 195.934635,76.4406295 L195.934635,76.5221745 C195.934635,77.228902 195.613258,77.5822604 194.970495,77.5822604 L194.863368,77.5822604 Z M194.140263,80.2732475 L195.6936,80.2732475 L195.6936,93.5922747 L194.140263,93.5922747 L194.140263,80.2732475 Z M204.71902,93.9728183 C200.951714,93.9728183 199.068089,91.626156 199.068089,86.9327611 C199.068089,82.2393661 200.951714,79.8927039 204.71902,79.8927039 C208.486325,79.8927039 210.36995,82.2393661 210.36995,86.9327611 C210.36995,91.626156 208.486325,93.9728183 204.71902,93.9728183 Z M204.71902,92.6137339 C206.165236,92.6137339 207.200784,92.1425894 207.825692,91.2002861 C208.450601,90.2579829 208.76305,88.8354888 208.76305,86.9327611 C208.76305,85.0300334 208.450601,83.6075393 207.825692,82.6652361 C207.200784,81.7229328 206.165236,81.2517883 204.71902,81.2517883 C203.272803,81.2517883 202.237255,81.7229328 201.612347,82.6652361 C200.987438,83.6075393 200.674989,85.0300334 200.674989,86.9327611 C200.674989,88.8354888 200.987438,90.2579829 201.612347,91.2002861 C202.237255,92.1425894 203.272803,92.6137339 204.71902,92.6137339 Z M213.690876,80.2732475 L214.922833,80.2732475 L215.029959,81.27897 C216.52974,80.3547879 218.065206,79.8927039 219.636405,79.8927039 C220.332732,79.8927039 220.966558,79.9878388 221.537903,80.1781116 C222.109248,80.3683844 222.573459,80.6447288 222.930549,81.0071531 C223.305494,81.3876986 223.582235,81.8452525 223.760781,82.3798283 C223.939326,82.9144042 224.028597,83.5803489 224.028597,84.3776824 L224.028597,93.5922747 L222.475261,93.5922747 L222.475261,84.7854077 C222.475261,84.0968015 222.417235,83.548643 222.30118,83.1409156 C222.185126,82.7331882 221.993192,82.3934205 221.725374,82.1216023 C221.207593,81.596087 220.430933,81.3333333 219.39537,81.3333333 C218.752607,81.3333333 218.065218,81.4239381 217.333182,81.6051502 C216.601146,81.7863624 215.90483,82.0491161 215.244212,82.3934192 L215.244212,93.5922747 L213.690876,93.5922747 L213.690876,80.2732475 Z M230.991829,93.9728183 C230.349066,93.9728183 229.710776,93.927516 229.076941,93.8369099 C228.443105,93.7463038 227.894086,93.6285177 227.429868,93.4835479 L227.563777,92.2331903 C228.652903,92.5231297 229.768794,92.6680973 230.911484,92.6680973 C232.089883,92.6680973 232.98706,92.4597064 233.603041,92.0429185 C234.219023,91.6261305 234.527009,91.0190789 234.527009,90.2217454 C234.527009,89.6781089 234.379711,89.2341457 234.085111,88.8898426 C233.790511,88.5455395 233.428963,88.2782556 233.000454,88.0879828 C232.571945,87.8977101 231.973827,87.684789 231.206083,87.4492132 C230.313356,87.1592737 229.603649,86.8919898 229.076941,86.6473534 C228.550232,86.4027169 228.099412,86.0357678 227.724467,85.546495 C227.349522,85.0572222 227.162052,84.4139286 227.162052,83.6165951 C227.162052,82.3843524 227.577163,81.4556541 228.407399,80.8304721 C229.237635,80.2052902 230.402625,79.8927039 231.902406,79.8927039 C232.420187,79.8927039 232.978133,79.933476 233.57626,80.0150215 C234.174386,80.0965669 234.696624,80.2098228 235.142987,80.3547926 L235.062642,81.5779685 C233.902097,81.3242715 232.857623,81.1974249 231.929187,81.1974249 C230.840061,81.1974249 230.018765,81.3876948 229.465275,81.7682403 C228.911784,82.1487859 228.635043,82.7377166 228.635043,83.5350501 C228.635043,84.0424441 228.777877,84.4546956 229.06355,84.7718169 C229.349222,85.0889382 229.701844,85.3426314 230.121425,85.5329041 C230.541007,85.7231769 231.125734,85.936098 231.875624,86.1716738 C232.768351,86.4616133 233.486985,86.7424879 234.031548,87.0143062 C234.576111,87.2861244 235.040322,87.6711945 235.424194,88.1695279 C235.808067,88.6678613 236,89.3247456 236,90.1402003 C236,91.372443 235.571498,92.3192623 234.71448,92.9806867 C233.857463,93.6421111 232.616592,93.9728183 230.991829,93.9728183 Z" id="Data-Driven-Decision" fill="#4A4A4A"></path>
                    <g id="rulers" transform="translate(0.000000, 45.000000)" fill="#FBA6D9">
                        <rect id="ruler-line-copy-3" x="0" y="29" width="281" height="1"></rect>
                        <rect id="ruler-line-copy-4" x="0" y="15" width="281" height="1"></rect>
                        <rect id="ruler-line-copy-5" x="0" y="0" width="281" height="1"></rect>
                        <text id="X-Copy" font-family="HelveticaNeue-Medium, Helvetica Neue" font-size="7" font-weight="400">
                            <tspan x="273.232" y="26">X</tspan>
                        </text>
                        <text id="X-Copy-2" font-family="HelveticaNeue-Medium, Helvetica Neue" font-size="7" font-weight="400">
                            <tspan x="273.232" y="11">X</tspan>
                        </text>
                    </g>
                </g>
            </g>
        </g>
    </g>
</svg>
