
<svg width="100px" height="83px" viewBox="0 0 100 83" version="1.1" xmlns="http://www.w3.org/2000/svg" xmlns:xlink="http://www.w3.org/1999/xlink">
    <!-- Generator: Sketch 49.1 (51147) - http://www.bohemiancoding.com/sketch -->
    <desc>Created with Sketch.</desc>
    <defs></defs>
    <g id="Page-1" stroke="none" stroke-width="1" fill="none" fill-rule="evenodd">
        <g id="Brand" transform="translate(-596.000000, -2218.000000)">
            <g id="35-mm" transform="translate(596.000000, 2218.000000)">
                <g transform="translate(0.000000, 61.000000)">
                    <rect id="ruler-end" fill="#CCCCCC" x="99" y="8" width="1" height="5"></rect>
                    <rect id="ruler-end" fill="#CCCCCC" x="0" y="8" width="1" height="5"></rect>
                    <rect id="ruler-line" fill="#CCCCCC" x="0" y="10" width="100" height="1"></rect>
                    <rect id="label-box" fill="#CCCCCC" x="28" y="0" width="42" height="22" rx="2"></rect>
                    <text id="35mm" font-family="HelveticaNeue-Medium, Helvetica Neue" font-size="12" font-weight="400" fill="#FFFFFF">
                        <tspan x="31.888" y="15">35mm</tspan>
                    </text>
                </g>
                <g id="Logo-claim-1-Copy" transform="translate(1.000000, 0.000000)">
                    <g id="LUCA" transform="translate(1.106145, 0.000000)" fill="#1D1D1B" fill-rule="nonzero">
                        <path d="M6.23090168,25.186222 C5.58004259,25.1928349 4.95310537,24.9450757 4.4876861,24.4973209 L0.700217729,20.7703663 C0.24519287,20.3123832 -0.00658914838,19.6954628 0.000131152685,19.0550027 L0.000131152685,0.688901039 C0.000131152685,0.308431501 0.313570589,6.98911203e-17 0.700217729,0 L5.74084108,0 C6.12748821,2.32970401e-17 6.44092765,0.308431501 6.44092765,0.688901039 L6.44092765,18.2352105 C6.42403778,18.4628037 6.5085846,18.6863713 6.67256582,18.8477326 C6.83654705,19.0090938 7.06374467,19.0922898 7.29503327,19.0756698 L16.4451648,19.0756698 C16.831812,19.0756698 17.1452514,19.3841013 17.1452514,19.7645708 L17.1452514,24.511099 C17.1452514,24.8915685 16.831812,25.2 16.4451648,25.2 L6.23090168,25.186222 Z" id="Shape"></path>
                        <path d="M38.1803327,25.1998709 C38.8167724,25.2064874 39.4298203,24.9585939 39.8849285,24.5105965 L43.5611052,20.8023004 C44.0060493,20.3440691 44.2522532,19.7268144 44.2456818,19.0860072 L44.2456818,0.689274367 C44.2456818,0.308598646 43.9391864,2.33096652e-17 43.5611052,0 L38.6321532,0 C38.254072,-2.33096652e-17 37.9475766,0.308598646 37.9475766,0.689274367 L37.9475766,18.2450925 C37.9640923,18.4728091 37.8814185,18.6964978 37.7210702,18.8579465 C37.5607219,19.0193952 37.3385576,19.1026363 37.1123931,19.0860072 L30.3898503,19.0860072 C30.1591672,19.111277 29.9292793,19.031878 29.7625743,18.8693576 C29.5958694,18.7068372 29.5096387,18.4780528 29.5272837,18.2450925 L29.5272837,0.689274367 C29.5272837,0.308598646 29.2207883,2.33096652e-17 28.8427071,0 L23.9137552,0 C23.5356739,-2.33096652e-17 23.2291785,0.308598646 23.2291785,0.689274367 L23.2291785,19.065329 C23.2226071,19.7061362 23.4688111,20.3233909 23.9137552,20.7816222 L27.5899318,24.4899183 C28.04504,24.9379157 28.6580879,25.1858092 29.2945277,25.1791926 L38.1803327,25.1998709 Z" id="Shape"></path>
                        <path d="M50.8828117,19.0879159 C50.8761444,19.7292461 51.1259392,20.3470045 51.5773726,20.8056098 L55.3141101,24.5100339 C55.7758559,24.9583969 56.3978448,25.2064927 57.0435667,25.1998708 L69.5456626,25.1998708 C69.929258,25.1998708 70.2402235,24.8910203 70.2402235,24.5100339 L70.2402235,19.7846512 C70.2402235,19.4036648 69.929258,19.0948143 69.5456626,19.0948143 L58.1062449,19.0948143 C57.8723617,19.1220295 57.6384174,19.0444389 57.4679273,18.8831082 C57.2974371,18.7217775 57.2080934,18.4934484 57.2241525,18.2601117 L57.2241525,6.98817691 C57.207396,6.76027452 57.2912755,6.5364032 57.4539624,6.37482276 C57.6166494,6.21324232 57.8420537,6.12993332 58.0715168,6.14657591 L69.5456626,6.14657591 C69.929258,6.14657591 70.2402235,5.83772541 70.2402235,5.45673902 L70.2402235,0.689966121 C70.2402235,0.308979728 69.929258,0.000129232531 69.5456626,0.000129232531 L57.0435667,0.000129232531 C56.3978448,-0.00649267929 55.7758559,0.241603099 55.3141101,0.689966121 L51.605155,4.42198369 C51.1537216,4.88058893 50.9039269,5.49834742 50.9105941,6.13967754 L50.8828117,19.0879159 Z" id="Shape"></path>
                        <path d="M96.594832,4.40492865 L92.91983,0.690536755 C92.4648672,0.241802916 91.8520152,-0.00649804904 91.2157788,0.000129339412 L82.3875617,0.000129339412 C81.7513253,-0.00649804904 81.1384733,0.241802916 80.6835105,0.690536755 L77.0085085,4.40492865 C76.5637065,4.86391318 76.3175812,5.48218259 76.3241506,6.12404311 L76.3241506,24.5095926 C76.3241506,24.8908941 76.630548,25.2 77.0085085,25.2 L81.9358855,25.2 C82.3138459,25.2 82.6202434,24.8908941 82.6202434,24.5095926 L82.6202434,17.2741229 C82.603733,17.046032 82.6863803,16.8219755 82.8466774,16.6602614 C83.0069745,16.4985474 83.2290677,16.4151695 83.45516,16.4318258 L90.2097726,16.4318258 C90.4358649,16.4151695 90.6579582,16.4985474 90.8182553,16.6602614 C90.9785524,16.8219755 91.0611997,17.046032 91.0446893,17.2741229 L91.0446893,24.5095926 C91.0446893,24.8908941 91.3510868,25.2 91.7290472,25.2 L96.6564242,25.2 C97.0343846,25.2 97.3407821,24.8908941 97.3407821,24.5095926 L97.3407821,6.12404311 C97.3310839,5.47319184 97.0622513,4.85364088 96.594832,4.40492865 Z M90.7018688,11.179567 C90.7181197,11.4152801 90.6367716,11.6468239 90.4789946,11.813942 C90.3212175,11.9810601 90.1026158,12.0672242 89.8800778,12.0500112 L83.231654,12.0500112 C83.0091161,12.0672242 82.7905144,11.9810601 82.6327373,11.813942 C82.4749602,11.6468239 82.3936122,11.4152801 82.409863,11.179567 L82.409863,6.89869384 C82.3936122,6.66298081 82.4749602,6.43143702 82.6327373,6.26431892 C82.7905144,6.09720082 83.0091161,6.01103666 83.231654,6.02824963 L89.8800778,6.02824963 C90.1026158,6.01103666 90.3212175,6.09720082 90.4789946,6.26431892 C90.6367716,6.43143702 90.7181197,6.66298081 90.7018688,6.89869384 L90.7018688,11.179567 Z" id="Shape"></path>
                    </g>
                    <path d="M0.973407821,31.5392 L2.75430168,31.5392 C3.42536648,31.5392 3.97474646,31.602666 4.4024581,31.7296 C4.83016974,31.856534 5.18413268,32.0693318 5.46435754,32.368 C6.01005859,32.972803 6.28290503,33.9621265 6.28290503,35.336 C6.28290503,36.1050705 6.19441429,36.760264 6.01743017,37.3016 C5.84044604,37.842936 5.60447075,38.251732 5.30949721,38.528 C4.83753954,38.9760022 4.07430695,39.2 3.01977654,39.2 L0.973407821,39.2 L0.973407821,31.5392 Z M2.95340782,38.6064 C3.83095411,38.6064 4.4614506,38.4160019 4.8449162,38.0352 C5.11039239,37.7738654 5.30396587,37.4229355 5.42564246,36.9824 C5.54731904,36.5418645 5.60815642,35.99307 5.60815642,35.336 C5.60815642,34.7087969 5.55284972,34.1861354 5.44223464,33.768 C5.33161956,33.3498646 5.15463809,33.0138679 4.91128492,32.76 C4.69005476,32.5359989 4.40430343,32.3754672 4.05402235,32.2784 C3.70374127,32.1813328 3.26681826,32.1328 2.74324022,32.1328 L1.63709497,32.1328 L1.63709497,38.6064 L2.95340782,38.6064 Z M9.26949721,39.3568 C8.72379615,39.3568 8.28502959,39.2112015 7.95318436,38.92 C7.62133912,38.6287985 7.45541899,38.2069361 7.45541899,37.6544 C7.45541899,37.1541308 7.59552933,36.7696013 7.87575419,36.5008 C8.06011265,36.3215991 8.29240083,36.1928004 8.5726257,36.1144 C8.85285056,36.0359996 9.20312639,35.9968 9.62346369,35.9968 L10.9287151,35.9968 L10.9287151,35.5488 C10.9287151,35.0335974 10.8217888,34.6677344 10.607933,34.4512 C10.4014515,34.2346656 10.0364272,34.1264 9.51284916,34.1264 C9.01876848,34.1264 8.51363387,34.1861327 7.99743017,34.3056 L7.95318436,33.768 C8.49151107,33.6261326 9.02982971,33.5552 9.56815642,33.5552 C10.2982159,33.5552 10.818099,33.7157317 11.1278212,34.0368 C11.4227948,34.3504016 11.5702793,34.8245302 11.5702793,35.4592 L11.5702793,39.2 L11.0503911,39.2 L11.0172067,38.8304 C10.7443562,38.9946675 10.4567613,39.1234662 10.1544134,39.2168 C9.85206553,39.3101338 9.55709641,39.3568 9.26949721,39.3568 Z M9.38011173,38.7856 C9.63083924,38.7856 9.89999856,38.748267 10.1875978,38.6736 C10.475197,38.598933 10.7222336,38.5018673 10.9287151,38.3824 L10.9287151,36.5232 L9.72301676,36.5232 C9.38379719,36.5232 9.11095075,36.5493331 8.90446927,36.6016 C8.69798779,36.6538669 8.53206767,36.7322661 8.40670391,36.8368 C8.20022243,37.0160009 8.09698324,37.2847982 8.09698324,37.6432 C8.09698324,38.0314686 8.20759666,38.3189324 8.42882682,38.5056 C8.65005697,38.6922676 8.96714877,38.7856 9.38011173,38.7856 Z M14.9661453,39.3568 C14.4646902,39.3568 14.0996659,39.2410678 13.8710615,39.0096 C13.7456977,38.882666 13.6535198,38.7165344 13.5945251,38.5112 C13.5355304,38.3058656 13.5060335,38.0464016 13.5060335,37.7328 L13.5060335,34.2272 L12.5105028,34.2272 L12.5105028,33.8352 L13.5060335,33.712 L13.5060335,32.4464 C13.7272637,32.3791997 13.9411163,32.3344001 14.1475978,32.312 L14.1475978,33.712 L15.5855866,33.712 L15.5855866,34.2272 L14.1475978,34.2272 L14.1475978,37.5312 C14.1475978,37.8149348 14.1605027,38.0295993 14.1863128,38.1752 C14.212123,38.3208007 14.2655862,38.4421328 14.3467039,38.5392 C14.4941907,38.7034675 14.7338531,38.7856 15.0656983,38.7856 C15.3238002,38.7856 15.6003337,38.7520003 15.8953073,38.6848 L15.9395531,39.2112 C15.6519539,39.3082672 15.3274878,39.3568 14.9661453,39.3568 Z M18.4836872,39.3568 C17.9379861,39.3568 17.4992195,39.2112015 17.1673743,38.92 C16.8355291,38.6287985 16.6696089,38.2069361 16.6696089,37.6544 C16.6696089,37.1541308 16.8097193,36.7696013 17.0899441,36.5008 C17.2743026,36.3215991 17.5065908,36.1928004 17.7868156,36.1144 C18.0670405,36.0359996 18.4173163,35.9968 18.8376536,35.9968 L20.142905,35.9968 L20.142905,35.5488 C20.142905,35.0335974 20.0359787,34.6677344 19.8221229,34.4512 C19.6156414,34.2346656 19.2506171,34.1264 18.7270391,34.1264 C18.2329584,34.1264 17.7278238,34.1861327 17.2116201,34.3056 L17.1673743,33.768 C17.705701,33.6261326 18.2440197,33.5552 18.7823464,33.5552 C19.5124059,33.5552 20.032289,33.7157317 20.3420112,34.0368 C20.6369847,34.3504016 20.7844693,34.8245302 20.7844693,35.4592 L20.7844693,39.2 L20.264581,39.2 L20.2313966,38.8304 C19.9585461,38.9946675 19.6709512,39.1234662 19.3686034,39.2168 C19.0662555,39.3101338 18.7712864,39.3568 18.4836872,39.3568 Z M18.5943017,38.7856 C18.8450292,38.7856 19.1141885,38.748267 19.4017877,38.6736 C19.6893869,38.598933 19.9364235,38.5018673 20.142905,38.3824 L20.142905,36.5232 L18.9372067,36.5232 C18.5979871,36.5232 18.3251407,36.5493331 18.1186592,36.6016 C17.9121777,36.6538669 17.7462576,36.7322661 17.6208939,36.8368 C17.4144124,37.0160009 17.3111732,37.2847982 17.3111732,37.6432 C17.3111732,38.0314686 17.4217866,38.3189324 17.6430168,38.5056 C17.8642469,38.6922676 18.1813387,38.7856 18.5943017,38.7856 Z M22.2998883,36.008 L24.346257,36.008 L24.346257,36.5792 L22.2998883,36.5792 L22.2998883,36.008 Z M26.0497207,31.5392 L27.8306145,31.5392 C28.5016793,31.5392 29.0510593,31.602666 29.4787709,31.7296 C29.9064826,31.856534 30.2604455,32.0693318 30.5406704,32.368 C31.0863714,32.972803 31.3592179,33.9621265 31.3592179,35.336 C31.3592179,36.1050705 31.2707271,36.760264 31.093743,37.3016 C30.9167589,37.842936 30.6807836,38.251732 30.3858101,38.528 C29.9138524,38.9760022 29.1506198,39.2 28.0960894,39.2 L26.0497207,39.2 L26.0497207,31.5392 Z M28.0297207,38.6064 C28.907267,38.6064 29.5377634,38.4160019 29.9212291,38.0352 C30.1867052,37.7738654 30.3802787,37.4229355 30.5019553,36.9824 C30.6236319,36.5418645 30.6844693,35.99307 30.6844693,35.336 C30.6844693,34.7087969 30.6291626,34.1861354 30.5185475,33.768 C30.4079324,33.3498646 30.2309509,33.0138679 29.9875978,32.76 C29.7663676,32.5359989 29.4806163,32.3754672 29.1303352,32.2784 C28.7800541,32.1813328 28.3431311,32.1328 27.8195531,32.1328 L26.7134078,32.1328 L26.7134078,38.6064 L28.0297207,38.6064 Z M32.8414525,33.712 L33.3502793,33.712 L33.4055866,34.1824 C33.6489398,33.980799 33.9125684,33.8258672 34.1964804,33.7176 C34.4803925,33.6093328 34.7513954,33.5552 35.0094972,33.5552 C35.1127379,33.5552 35.2012287,33.5589333 35.2749721,33.5664 L35.2749721,34.1712 C35.1569827,34.1637333 35.0316208,34.16 34.8988827,34.16 C34.3900533,34.16 33.9181027,34.3130651 33.4830168,34.6192 L33.4830168,39.2 L32.8414525,39.2 L32.8414525,33.712 Z M36.6355307,32.6032 C36.3700545,32.6032 36.2373184,32.4576015 36.2373184,32.1664 L36.2373184,32.1328 C36.2373184,31.8415985 36.3700545,31.696 36.6355307,31.696 L36.6797765,31.696 C36.9452527,31.696 37.0779888,31.8415985 37.0779888,32.1328 L37.0779888,32.1664 C37.0779888,32.4576015 36.9452527,32.6032 36.6797765,32.6032 L36.6355307,32.6032 Z M36.3368715,33.712 L36.9784358,33.712 L36.9784358,39.2 L36.3368715,39.2 L36.3368715,33.712 Z M38.0292737,33.712 L38.7040223,33.712 L40.2968715,38.5168 L41.8565363,33.712 L42.509162,33.712 L40.6287151,39.2 L39.942905,39.2 L38.0292737,33.712 Z M45.7169832,39.368 C44.8246883,39.368 44.1720691,39.1197358 43.7591061,38.6232 C43.3461432,38.1266642 43.1396648,37.4080047 43.1396648,36.4672 C43.1396648,35.5711955 43.3258641,34.8637359 43.6982682,34.3448 C44.0706723,33.8258641 44.6218958,33.5664 45.3519553,33.5664 C46.7752026,33.5664 47.4868156,34.5445236 47.4868156,36.5008 L47.4868156,36.6016 C47.4868156,36.6464002 47.4775979,36.6781332 47.459162,36.6968 C47.4407262,36.7154668 47.4056986,36.7248 47.3540782,36.7248 L43.8144134,36.7248 C43.8291621,37.4117368 43.9858644,37.9306649 44.2845251,38.2816 C44.5831859,38.6325351 45.0754156,38.808 45.7612291,38.808 C46.1815663,38.808 46.6387685,38.7520006 47.1328492,38.64 L47.1881564,39.1664 C47.003798,39.2261336 46.7715098,39.2746665 46.4912849,39.312 C46.2110601,39.3493335 45.9529621,39.368 45.7169832,39.368 Z M46.8563128,36.1984 C46.8563128,35.54133 46.7327945,35.0280018 46.4857542,34.6584 C46.2387138,34.2887982 45.8607847,34.104 45.3519553,34.104 C44.8431259,34.104 44.4596661,34.2887982 44.2015642,34.6584 C43.9434624,35.0280018 43.8107263,35.54133 43.803352,36.1984 L46.8563128,36.1984 Z M48.8805587,33.712 L49.3893855,33.712 L49.4336313,34.1264 C50.0530757,33.7455981 50.6872593,33.5552 51.3362011,33.5552 C51.6238003,33.5552 51.8855854,33.5943996 52.1215642,33.6728 C52.3575431,33.7512004 52.549273,33.8650659 52.6967598,34.0144 C52.8516209,34.1712008 52.9659214,34.3597322 53.0396648,34.58 C53.1134082,34.8002678 53.1502793,35.074665 53.1502793,35.4032 L53.1502793,39.2 L52.5087151,39.2 L52.5087151,35.5712 C52.5087151,35.2874652 52.4847488,35.0616008 52.4368156,34.8936 C52.3888824,34.7255992 52.3096095,34.5856006 52.1989944,34.4736 C51.9851386,34.2570656 51.6643597,34.1488 51.236648,34.1488 C50.9711719,34.1488 50.6872641,34.186133 50.3849162,34.2608 C50.0825683,34.335467 49.7949734,34.4437326 49.5221229,34.5856 L49.5221229,39.2 L48.8805587,39.2 L48.8805587,33.712 Z M57.1213408,31.5392 L58.9022346,31.5392 C59.5732994,31.5392 60.1226794,31.602666 60.5503911,31.7296 C60.9781027,31.856534 61.3320656,32.0693318 61.6122905,32.368 C62.1579916,32.972803 62.430838,33.9621265 62.430838,35.336 C62.430838,36.1050705 62.3423473,36.760264 62.1653631,37.3016 C61.988379,37.842936 61.7524037,38.251732 61.4574302,38.528 C60.9854725,38.9760022 60.2222399,39.2 59.1677095,39.2 L57.1213408,39.2 L57.1213408,31.5392 Z M59.1013408,38.6064 C59.9788871,38.6064 60.6093836,38.4160019 60.9928492,38.0352 C61.2583253,37.7738654 61.4518988,37.4229355 61.5735754,36.9824 C61.695252,36.5418645 61.7560894,35.99307 61.7560894,35.336 C61.7560894,34.7087969 61.7007827,34.1861354 61.5901676,33.768 C61.4795525,33.3498646 61.302571,33.0138679 61.0592179,32.76 C60.8379877,32.5359989 60.5522364,32.3754672 60.2019553,32.2784 C59.8516742,32.1813328 59.4147512,32.1328 58.8911732,32.1328 L57.7850279,32.1328 L57.7850279,38.6064 L59.1013408,38.6064 Z M66.2249162,39.368 C65.3326212,39.368 64.6800021,39.1197358 64.2670391,38.6232 C63.8540761,38.1266642 63.6475978,37.4080047 63.6475978,36.4672 C63.6475978,35.5711955 63.833797,34.8637359 64.2062011,34.3448 C64.5786052,33.8258641 65.1298288,33.5664 65.8598883,33.5664 C67.2831356,33.5664 67.9947486,34.5445236 67.9947486,36.5008 L67.9947486,36.6016 C67.9947486,36.6464002 67.9855308,36.6781332 67.967095,36.6968 C67.9486591,36.7154668 67.9136315,36.7248 67.8620112,36.7248 L64.3223464,36.7248 C64.337095,37.4117368 64.4937974,37.9306649 64.7924581,38.2816 C65.0911188,38.6325351 65.5833485,38.808 66.269162,38.808 C66.6894993,38.808 67.1467014,38.7520006 67.6407821,38.64 L67.6960894,39.1664 C67.5117309,39.2261336 67.2794427,39.2746665 66.9992179,39.312 C66.718993,39.3493335 66.460895,39.368 66.2249162,39.368 Z M67.3642458,36.1984 C67.3642458,35.54133 67.2407275,35.0280018 66.9936872,34.6584 C66.7466468,34.2887982 66.3687176,34.104 65.8598883,34.104 C65.3510589,34.104 64.9675991,34.2887982 64.7094972,34.6584 C64.4513954,35.0280018 64.3186593,35.54133 64.3112849,36.1984 L67.3642458,36.1984 Z M71.7224581,39.3568 C70.8596605,39.3568 70.2107284,39.123469 69.7756425,38.6568 C69.3405565,38.190131 69.1230168,37.4752048 69.1230168,36.512 C69.1230168,35.5338618 69.3387129,34.7965358 69.7701117,34.3 C70.2015105,33.8034642 70.8301635,33.5552 71.6560894,33.5552 C72.1280471,33.5552 72.548378,33.618666 72.917095,33.7456 L72.8728492,34.2832 C72.4525119,34.1711994 72.0764262,34.1152 71.744581,34.1152 C71.0292702,34.1152 70.5241356,34.3037314 70.229162,34.6808 C69.9341885,35.0578686 69.7867039,35.6607959 69.7867039,36.4896 C69.7867039,37.3034707 69.9452498,37.8914649 70.2623464,38.2536 C70.5794429,38.6157351 71.1140745,38.7968 71.866257,38.7968 C72.0211181,38.7968 72.1980996,38.7856001 72.3972067,38.7632 C72.5963138,38.7407999 72.762234,38.7146668 72.8949721,38.6848 L72.9502793,39.2224 C72.5815624,39.3120004 72.1722928,39.3568 71.7224581,39.3568 Z M74.532067,32.6032 C74.2665909,32.6032 74.1338547,32.4576015 74.1338547,32.1664 L74.1338547,32.1328 C74.1338547,31.8415985 74.2665909,31.696 74.532067,31.696 L74.5763128,31.696 C74.841789,31.696 74.9745251,31.8415985 74.9745251,32.1328 L74.9745251,32.1664 C74.9745251,32.4576015 74.841789,32.6032 74.5763128,32.6032 L74.532067,32.6032 Z M74.2334078,33.712 L74.8749721,33.712 L74.8749721,39.2 L74.2334078,39.2 L74.2334078,33.712 Z M77.806257,39.3568 C77.5407808,39.3568 77.2771521,39.3381335 77.0153631,39.3008 C76.7535741,39.2634665 76.5268166,39.2149336 76.3350838,39.1552 L76.3903911,38.64 C76.8402257,38.7594673 77.301115,38.8192 77.7730726,38.8192 C78.259779,38.8192 78.6303339,38.7333342 78.8847486,38.5616 C79.1391633,38.3898658 79.2663687,38.139735 79.2663687,37.8112 C79.2663687,37.5871989 79.2055313,37.4042674 79.0838547,37.2624 C78.9621782,37.1205326 78.81285,37.0104004 78.6358659,36.932 C78.4588818,36.8535996 78.2118452,36.7658672 77.8947486,36.6688 C77.5260317,36.5493327 77.2329061,36.4392005 77.0153631,36.3384 C76.7978201,36.2375995 76.6116209,36.086401 76.4567598,35.8848 C76.3018987,35.683199 76.2244693,35.418135 76.2244693,35.0896 C76.2244693,34.5818641 76.3959201,34.1992013 76.7388268,33.9416 C77.0817336,33.6839987 77.5629019,33.5552 78.1823464,33.5552 C78.3962022,33.5552 78.6266468,33.5719998 78.8736872,33.6056 C79.1207275,33.6392002 79.3364237,33.6858664 79.5207821,33.7456 L79.4875978,34.2496 C79.0082658,34.1450661 78.5768734,34.0928 78.1934078,34.0928 C77.7435732,34.0928 77.4043587,34.1711992 77.1757542,34.328 C76.9471497,34.4848008 76.8328492,34.727465 76.8328492,35.056 C76.8328492,35.2650677 76.891843,35.4349327 77.0098324,35.5656 C77.1278218,35.6962673 77.2734628,35.8007996 77.4467598,35.8792 C77.6200567,35.9576004 77.8615627,36.0453328 78.1712849,36.1424 C78.5400018,36.2618673 78.8368145,36.3775994 79.0617318,36.4896 C79.2866492,36.6016006 79.4783791,36.7602656 79.6369274,36.9656 C79.7954757,37.1709344 79.8747486,37.4415983 79.8747486,37.7776 C79.8747486,38.2853359 79.6977671,38.6754653 79.3437989,38.948 C78.9898306,39.2205347 78.4773218,39.3568 77.806257,39.3568 Z M81.4565363,32.6032 C81.1910601,32.6032 81.058324,32.4576015 81.058324,32.1664 L81.058324,32.1328 C81.058324,31.8415985 81.1910601,31.696 81.4565363,31.696 L81.5007821,31.696 C81.7662583,31.696 81.8989944,31.8415985 81.8989944,32.1328 L81.8989944,32.1664 C81.8989944,32.4576015 81.7662583,32.6032 81.5007821,32.6032 L81.4565363,32.6032 Z M81.1578771,33.712 L81.7994413,33.712 L81.7994413,39.2 L81.1578771,39.2 L81.1578771,33.712 Z M85.5271508,39.3568 C83.9711654,39.3568 83.1931844,38.3898763 83.1931844,36.456 C83.1931844,34.5221237 83.9711654,33.5552 85.5271508,33.5552 C87.0831363,33.5552 87.8611173,34.5221237 87.8611173,36.456 C87.8611173,38.3898763 87.0831363,39.3568 85.5271508,39.3568 Z M85.5271508,38.7968 C86.1244723,38.7968 86.5521775,38.6026686 86.8102793,38.2144 C87.0683812,37.8261314 87.1974302,37.2400039 87.1974302,36.456 C87.1974302,35.6719961 87.0683812,35.0858686 86.8102793,34.6976 C86.5521775,34.3093314 86.1244723,34.1152 85.5271508,34.1152 C84.9298294,34.1152 84.5021242,34.3093314 84.2440223,34.6976 C83.9859205,35.0858686 83.8568715,35.6719961 83.8568715,36.456 C83.8568715,37.2400039 83.9859205,37.8261314 84.2440223,38.2144 C84.5021242,38.6026686 84.9298294,38.7968 85.5271508,38.7968 Z M89.2327374,33.712 L89.7415642,33.712 L89.7858101,34.1264 C90.4052545,33.7455981 91.0394381,33.5552 91.6883799,33.5552 C91.9759791,33.5552 92.2377642,33.5943996 92.473743,33.6728 C92.7097219,33.7512004 92.9014518,33.8650659 93.0489385,34.0144 C93.2037997,34.1712008 93.3181002,34.3597322 93.3918436,34.58 C93.465587,34.8002678 93.5024581,35.074665 93.5024581,35.4032 L93.5024581,39.2 L92.8608939,39.2 L92.8608939,35.5712 C92.8608939,35.2874652 92.8369276,35.0616008 92.7889944,34.8936 C92.7410612,34.7255992 92.6617883,34.5856006 92.5511732,34.4736 C92.3373174,34.2570656 92.0165385,34.1488 91.5888268,34.1488 C91.3233506,34.1488 91.0394429,34.186133 90.737095,34.2608 C90.4347471,34.335467 90.1471522,34.4437326 89.8743017,34.5856 L89.8743017,39.2 L89.2327374,39.2 L89.2327374,33.712 Z M96.3784358,39.3568 C96.1129596,39.3568 95.8493309,39.3381335 95.5875419,39.3008 C95.3257529,39.2634665 95.0989954,39.2149336 94.9072626,39.1552 L94.9625698,38.64 C95.4124045,38.7594673 95.8732937,38.8192 96.3452514,38.8192 C96.8319577,38.8192 97.2025127,38.7333342 97.4569274,38.5616 C97.7113421,38.3898658 97.8385475,38.139735 97.8385475,37.8112 C97.8385475,37.5871989 97.7777101,37.4042674 97.6560335,37.2624 C97.5343569,37.1205326 97.3850288,37.0104004 97.2080447,36.932 C97.0310606,36.8535996 96.7840239,36.7658672 96.4669274,36.6688 C96.0982104,36.5493327 95.8050849,36.4392005 95.5875419,36.3384 C95.3699989,36.2375995 95.1837997,36.086401 95.0289385,35.8848 C94.8740774,35.683199 94.796648,35.418135 94.796648,35.0896 C94.796648,34.5818641 94.9680988,34.1992013 95.3110056,33.9416 C95.6539123,33.6839987 96.1350807,33.5552 96.7545251,33.5552 C96.968381,33.5552 97.1988256,33.5719998 97.4458659,33.6056 C97.6929063,33.6392002 97.9086024,33.6858664 98.0929609,33.7456 L98.0597765,34.2496 C97.5804445,34.1450661 97.1490522,34.0928 96.7655866,34.0928 C96.3157519,34.0928 95.9765375,34.1711992 95.747933,34.328 C95.5193285,34.4848008 95.4050279,34.727465 95.4050279,35.056 C95.4050279,35.2650677 95.4640218,35.4349327 95.5820112,35.5656 C95.7000006,35.6962673 95.8456416,35.8007996 96.0189385,35.8792 C96.1922355,35.9576004 96.4337415,36.0453328 96.7434637,36.1424 C97.1121806,36.2618673 97.4089933,36.3775994 97.6339106,36.4896 C97.8588279,36.6016006 98.0505579,36.7602656 98.2091061,36.9656 C98.3676544,37.1709344 98.4469274,37.4415983 98.4469274,37.7776 C98.4469274,38.2853359 98.2699459,38.6754653 97.9159777,38.948 C97.5620094,39.2205347 97.0495006,39.3568 96.3784358,39.3568 Z" id="Data-Driven-Decision" fill="#4A4A4A"></path>
                </g>
            </g>
        </g>
    </g>
</svg>
