
<svg width="130px" height="83px" viewBox="0 0 130 83" version="1.1" xmlns="http://www.w3.org/2000/svg" xmlns:xlink="http://www.w3.org/1999/xlink">
    <!-- Generator: Sketch 49.1 (51147) - http://www.bohemiancoding.com/sketch -->
    <desc>Created with Sketch.</desc>
    <defs></defs>
    <g id="Page-1" stroke="none" stroke-width="1" fill="none" fill-rule="evenodd">
        <g id="Brand" transform="translate(-270.000000, -2218.000000)">
            <g id="130-px" transform="translate(270.000000, 2218.000000)">
                <g transform="translate(0.000000, 61.000000)">
                    <rect id="ruler-end" fill="#CCCCCC" x="129" y="8" width="1" height="5"></rect>
                    <rect id="ruler-end" fill="#CCCCCC" x="0" y="8" width="1" height="5"></rect>
                    <rect id="ruler-line" fill="#CCCCCC" x="1" y="10" width="129" height="1"></rect>
                    <rect id="label-box" fill="#CCCCCC" x="42" y="0" width="42" height="22" rx="2"></rect>
                    <text id="130px" font-family="HelveticaNeue-Medium, Helvetica Neue" font-size="12" font-weight="400" fill="#FFFFFF">
                        <tspan x="46.104" y="15">130px</tspan>
                    </text>
                </g>
                <g id="Logo-claim-1">
                    <g id="LUCA" transform="translate(1.452514, 0.000000)" fill="#1D1D1B" fill-rule="nonzero">
                        <path d="M8.1819921,33.5816293 C7.32732866,33.5904465 6.50407775,33.2601009 5.89292115,32.6630946 L0.919477825,27.6938218 C0.321970435,27.0831776 -0.00865241706,26.2606171 0.000172220697,25.4066703 L0.000172220697,0.918534718 C0.000172220697,0.411242001 0.411759359,9.31881603e-17 0.919477825,0 L7.53847818,0 C8.04619665,3.10627201e-17 8.45778378,0.411242001 8.45778378,0.918534718 L8.45778378,24.313614 C8.43560517,24.6170716 8.54662624,24.9151618 8.76195512,25.1303101 C8.97728401,25.3454584 9.27562432,25.4563864 9.57933662,25.4342264 L21.5946609,25.4342264 C22.1023793,25.4342264 22.5139665,25.8454684 22.5139665,26.3527611 L22.5139665,32.6814653 C22.5139665,33.188758 22.1023793,33.6 21.5946609,33.6 L8.1819921,33.5816293 Z" id="Shape"></path>
                        <path d="M50.1357904,33.5998278 C50.9715193,33.6086498 51.7765317,33.2781252 52.3741486,32.6807953 L57.2014512,27.7364005 C57.7857213,27.1254255 58.1090194,26.3024192 58.1003903,25.4480096 L58.1003903,0.91903249 C58.1003903,0.411464861 57.6979215,3.10795536e-17 57.2014512,0 L50.7290901,0 C50.2326198,-3.10795536e-17 49.8301511,0.411464861 49.8301511,0.91903249 L49.8301511,24.32679 C49.8518383,24.6304121 49.7432769,24.9286638 49.5327184,25.1439287 C49.32216,25.3591936 49.0304292,25.4701817 48.7334454,25.4480096 L39.9058641,25.4480096 C39.6029468,25.4817027 39.3010738,25.3758373 39.0821683,25.1591435 C38.8632629,24.9424497 38.7500306,24.6374037 38.7732009,24.32679 L38.7732009,0.91903249 C38.7732009,0.411464861 38.3707322,3.10795536e-17 37.8742618,0 L31.4019007,0 C30.9054304,-3.10795536e-17 30.5029617,0.411464861 30.5029617,0.91903249 L30.5029617,25.4204387 C30.4943326,26.2748482 30.8176307,27.0978545 31.4019007,27.7088296 L36.2292034,32.6532244 C36.8268203,33.2505542 37.6318326,33.5810789 38.4675616,33.5722569 L50.1357904,33.5998278 Z" id="Shape"></path>
                        <path d="M66.8158133,25.4505546 C66.8070583,26.3056614 67.1350716,27.1293394 67.727863,27.7408131 L72.63469,32.6800452 C73.2410229,33.2778625 74.057776,33.6086569 74.9056937,33.5998277 L91.3225872,33.5998277 C91.8262983,33.5998277 92.2346369,33.188027 92.2346369,32.6800452 L92.2346369,26.3795349 C92.2346369,25.8715531 91.8262983,25.4597524 91.3225872,25.4597524 L76.3011296,25.4597524 C75.9940103,25.4960393 75.6868108,25.3925852 75.4629348,25.1774776 C75.2390589,24.96237 75.1217388,24.6579312 75.1428266,24.3468156 L75.1428266,9.31756922 C75.120823,9.01369935 75.2309678,8.71520427 75.4445971,8.49976368 C75.6582264,8.28432309 75.954212,8.17324442 76.2555271,8.19543454 L91.3225872,8.19543454 C91.8262983,8.19543454 92.2346369,7.78363388 92.2346369,7.27565203 L92.2346369,0.919954828 C92.2346369,0.41197297 91.8262983,0.000172310041 91.3225872,0.000172310041 L74.9056937,0.000172310041 C74.057776,-0.00865690572 73.2410229,0.322137465 72.63469,0.919954828 L67.7643449,5.89597825 C67.1715536,6.50745191 66.8435403,7.33112989 66.8522953,8.18623672 L66.8158133,25.4505546 Z" id="Shape"></path>
                        <path d="M126.841699,5.8732382 L122.015938,0.920715673 C121.418512,0.322403888 120.613757,-0.00866406538 119.778295,0.00017245255 L108.185687,0.00017245255 C107.350225,-0.00866406538 106.54547,0.322403888 105.948044,0.920715673 L101.122284,5.8732382 C100.5382,6.48521758 100.215006,7.30957678 100.223632,8.16539082 L100.223632,32.6794568 C100.223632,33.1878588 100.625972,33.6 101.122284,33.6 L107.592577,33.6 C108.088889,33.6 108.491229,33.1878588 108.491229,32.6794568 L108.491229,23.0321638 C108.469548,22.7280427 108.578075,22.4293007 108.788566,22.2136819 C108.999057,21.9980632 109.290695,21.8868926 109.587584,21.9091011 L118.457277,21.9091011 C118.754166,21.8868926 119.045804,21.9980632 119.256295,22.2136819 C119.466786,22.4293007 119.575313,22.7280427 119.553632,23.0321638 L119.553632,32.6794568 C119.553632,33.1878588 119.955973,33.6 120.452284,33.6 L126.922577,33.6 C127.418889,33.6 127.821229,33.1878588 127.821229,32.6794568 L127.821229,8.16539082 C127.808494,7.29758912 127.455481,6.47152117 126.841699,5.8732382 Z M119.103464,14.9060894 C119.124804,15.2203734 119.017983,15.5290985 118.810801,15.7519226 C118.603619,15.9747467 118.316566,16.0896323 118.024345,16.0666817 L109.294091,16.0666817 C109.00187,16.0896323 108.714817,15.9747467 108.507635,15.7519226 C108.300453,15.5290985 108.193632,15.2203734 108.214972,14.9060894 L108.214972,9.19825846 C108.193632,8.88397441 108.300453,8.57524936 108.507635,8.35242522 C108.714817,8.12960109 109.00187,8.01471555 109.294091,8.03766617 L118.024345,8.03766617 C118.316566,8.01471555 118.603619,8.12960109 118.810801,8.35242522 C119.017983,8.57524936 119.124804,8.88397441 119.103464,9.19825846 L119.103464,14.9060894 Z" id="Shape"></path>
                    </g>
                    <path d="M1.27821229,42.0522667 L3.61675978,42.0522667 C4.49795599,42.0522667 5.21936404,42.136888 5.78100559,42.3061333 C6.34264713,42.4753786 6.80744695,42.7591091 7.17541899,43.1573333 C7.89199613,43.9637374 8.25027933,45.2828353 8.25027933,47.1146667 C8.25027933,48.140094 8.13407937,49.0136853 7.90167598,49.7354667 C7.66927258,50.4572481 7.35940603,51.0023093 6.97206704,51.3706667 C6.35232465,51.968003 5.35010003,52.2666667 3.96536313,52.2666667 L1.27821229,52.2666667 L1.27821229,42.0522667 Z M3.87821229,51.4752 C5.0305458,51.4752 5.85847048,51.2213359 6.36201117,50.7136 C6.71061627,50.3651538 6.96480367,49.8972474 7.12458101,49.3098667 C7.28435834,48.722486 7.36424581,47.9907599 7.36424581,47.1146667 C7.36424581,46.2783958 7.29162084,45.5815139 7.14636872,45.024 C7.00111659,44.4664861 6.76871668,44.0184906 6.44916201,43.68 C6.15865777,43.3813318 5.78342874,43.1672895 5.32346369,43.0378667 C4.86349863,42.9084438 4.28976135,42.8437333 3.60223464,42.8437333 L2.14972067,42.8437333 L2.14972067,51.4752 L3.87821229,51.4752 Z M12.172067,52.4757333 C11.4554899,52.4757333 10.8793318,52.2816019 10.4435754,51.8933333 C10.0078191,51.5050647 9.78994413,50.9425815 9.78994413,50.2058667 C9.78994413,49.5388411 9.9739274,49.0261351 10.3418994,48.6677333 C10.5839863,48.4287988 10.8890112,48.2570672 11.2569832,48.1525333 C11.6249553,48.0479995 12.0849134,47.9957333 12.6368715,47.9957333 L14.350838,47.9957333 L14.350838,47.3984 C14.350838,46.7114632 14.2104297,46.2236459 13.9296089,45.9349333 C13.6584716,45.6462208 13.1791468,45.5018667 12.4916201,45.5018667 C11.8428273,45.5018667 11.1795192,45.5815103 10.501676,45.7408 L10.4435754,45.024 C11.1504691,44.8348435 11.8573521,44.7402667 12.5642458,44.7402667 C13.5229098,44.7402667 14.2055846,44.954309 14.6122905,45.3824 C14.9996295,45.8005354 15.1932961,46.4327069 15.1932961,47.2789333 L15.1932961,52.2666667 L14.5106145,52.2666667 L14.4670391,51.7738667 C14.1087505,51.99289 13.7311007,52.1646216 13.3340782,52.2890667 C12.9370557,52.4135117 12.5497226,52.4757333 12.172067,52.4757333 Z M12.3173184,51.7141333 C12.6465566,51.7141333 12.9999981,51.6643561 13.3776536,51.5648 C13.7553092,51.4652439 14.0797007,51.335823 14.350838,51.1765333 L14.350838,48.6976 L12.7675978,48.6976 C12.3221579,48.6976 11.9638747,48.7324441 11.6927374,48.8021333 C11.4216001,48.8718226 11.2037252,48.9763549 11.0391061,49.1157333 C10.7679688,49.3546679 10.6324022,49.7130643 10.6324022,50.1909333 C10.6324022,50.7086248 10.7776522,51.0919099 11.0681564,51.3408 C11.3586607,51.5896901 11.7750438,51.7141333 12.3173184,51.7141333 Z M19.652514,52.4757333 C18.9940377,52.4757333 18.5147129,52.3214238 18.2145251,52.0128 C18.0499061,51.8435547 17.9288644,51.6220458 17.8513966,51.3482667 C17.7739288,51.0744875 17.7351955,50.7285354 17.7351955,50.3104 L17.7351955,45.6362667 L16.427933,45.6362667 L16.427933,45.1136 L17.7351955,44.9493333 L17.7351955,43.2618667 C18.0256998,43.1722662 18.3065163,43.1125335 18.5776536,43.0826667 L18.5776536,44.9493333 L20.4659218,44.9493333 L20.4659218,45.6362667 L18.5776536,45.6362667 L18.5776536,50.0416 C18.5776536,50.419913 18.5945995,50.7061324 18.6284916,50.9002667 C18.6623838,51.094401 18.7325879,51.2561771 18.8391061,51.3856 C19.0327756,51.6046233 19.3474839,51.7141333 19.7832402,51.7141333 C20.1221618,51.7141333 20.4852867,51.6693338 20.8726257,51.5797333 L20.9307263,52.2816 C20.5530707,52.4110229 20.1270042,52.4757333 19.652514,52.4757333 Z M24.2715084,52.4757333 C23.5549312,52.4757333 22.9787731,52.2816019 22.5430168,51.8933333 C22.1072604,51.5050647 21.8893855,50.9425815 21.8893855,50.2058667 C21.8893855,49.5388411 22.0733687,49.0261351 22.4413408,48.6677333 C22.6834277,48.4287988 22.9884525,48.2570672 23.3564246,48.1525333 C23.7243966,48.0479995 24.1843548,47.9957333 24.7363128,47.9957333 L26.4502793,47.9957333 L26.4502793,47.3984 C26.4502793,46.7114632 26.3098711,46.2236459 26.0290503,45.9349333 C25.757913,45.6462208 25.2785882,45.5018667 24.5910615,45.5018667 C23.9422686,45.5018667 23.2789606,45.5815103 22.6011173,45.7408 L22.5430168,45.024 C23.2499104,44.8348435 23.9567935,44.7402667 24.6636872,44.7402667 C25.6223512,44.7402667 26.3050259,44.954309 26.7117318,45.3824 C27.0990708,45.8005354 27.2927374,46.4327069 27.2927374,47.2789333 L27.2927374,52.2666667 L26.6100559,52.2666667 L26.5664804,51.7738667 C26.2081919,51.99289 25.830542,52.1646216 25.4335196,52.2890667 C25.0364971,52.4135117 24.6491639,52.4757333 24.2715084,52.4757333 Z M24.4167598,51.7141333 C24.7459979,51.7141333 25.0994395,51.6643561 25.477095,51.5648 C25.8547505,51.4652439 26.179142,51.335823 26.4502793,51.1765333 L26.4502793,48.6976 L24.8670391,48.6976 C24.4215993,48.6976 24.0633161,48.7324441 23.7921788,48.8021333 C23.5210415,48.8718226 23.3031666,48.9763549 23.1385475,49.1157333 C22.8674102,49.3546679 22.7318436,49.7130643 22.7318436,50.1909333 C22.7318436,50.7086248 22.8770935,51.0919099 23.1675978,51.3408 C23.458102,51.5896901 23.8744852,51.7141333 24.4167598,51.7141333 Z M29.2826816,48.0106667 L31.9698324,48.0106667 L31.9698324,48.7722667 L29.2826816,48.7722667 L29.2826816,48.0106667 Z M34.2067039,42.0522667 L36.5452514,42.0522667 C37.4264476,42.0522667 38.1478557,42.136888 38.7094972,42.3061333 C39.2711387,42.4753786 39.7359386,42.7591091 40.1039106,43.1573333 C40.8204878,43.9637374 41.1787709,45.2828353 41.1787709,47.1146667 C41.1787709,48.140094 41.062571,49.0136853 40.8301676,49.7354667 C40.5977642,50.4572481 40.2878977,51.0023093 39.9005587,51.3706667 C39.2808163,51.968003 38.2785917,52.2666667 36.8938547,52.2666667 L34.2067039,52.2666667 L34.2067039,42.0522667 Z M36.8067039,51.4752 C37.9590374,51.4752 38.7869621,51.2213359 39.2905028,50.7136 C39.6391079,50.3651538 39.8932953,49.8972474 40.0530726,49.3098667 C40.21285,48.722486 40.2927374,47.9907599 40.2927374,47.1146667 C40.2927374,46.2783958 40.2201125,45.5815139 40.0748603,45.024 C39.9296082,44.4664861 39.6972083,44.0184906 39.3776536,43.68 C39.0871494,43.3813318 38.7119204,43.1672895 38.2519553,43.0378667 C37.7919903,42.9084438 37.218253,42.8437333 36.5307263,42.8437333 L35.0782123,42.8437333 L35.0782123,51.4752 L36.8067039,51.4752 Z M43.1251397,44.9493333 L43.7932961,44.9493333 L43.8659218,45.5765333 C44.1854765,45.307732 44.5316555,45.1011563 44.9044693,44.9568 C45.2772831,44.8124437 45.6331454,44.7402667 45.972067,44.7402667 C46.1076357,44.7402667 46.2238356,44.7452444 46.3206704,44.7552 L46.3206704,45.5616 C46.1657348,45.5516444 46.0011182,45.5466667 45.8268156,45.5466667 C45.1586559,45.5466667 44.5389228,45.7507535 43.9675978,46.1589333 L43.9675978,52.2666667 L43.1251397,52.2666667 L43.1251397,44.9493333 Z M48.1072626,43.4709333 C47.7586575,43.4709333 47.5843575,43.2768019 47.5843575,42.8885333 L47.5843575,42.8437333 C47.5843575,42.4554647 47.7586575,42.2613333 48.1072626,42.2613333 L48.1653631,42.2613333 C48.5139682,42.2613333 48.6882682,42.4554647 48.6882682,42.8437333 L48.6882682,42.8885333 C48.6882682,43.2768019 48.5139682,43.4709333 48.1653631,43.4709333 L48.1072626,43.4709333 Z M47.7150838,44.9493333 L48.5575419,44.9493333 L48.5575419,52.2666667 L47.7150838,52.2666667 L47.7150838,44.9493333 Z M49.9374302,44.9493333 L50.8234637,44.9493333 L52.9150838,51.3557333 L54.9631285,44.9493333 L55.8201117,44.9493333 L53.350838,52.2666667 L52.4502793,52.2666667 L49.9374302,44.9493333 Z M60.0324022,52.4906667 C58.8607018,52.4906667 58.0037271,52.1596478 57.4614525,51.4976 C56.9191779,50.8355522 56.6480447,49.8773396 56.6480447,48.6229333 C56.6480447,47.4282607 56.8925488,46.4849812 57.3815642,45.7930667 C57.8705797,45.1011521 58.5944086,44.7552 59.5530726,44.7552 C61.4219833,44.7552 62.3564246,46.0593647 62.3564246,48.6677333 L62.3564246,48.8021333 C62.3564246,48.861867 62.3443204,48.9041777 62.3201117,48.9290667 C62.295903,48.9539557 62.2499072,48.9664 62.1821229,48.9664 L57.5340782,48.9664 C57.5534452,49.8823157 57.7592159,50.5742199 58.1513966,51.0421333 C58.5435774,51.5100468 59.1899396,51.744 60.0905028,51.744 C60.6424609,51.744 61.2428273,51.6693341 61.8916201,51.52 L61.9642458,52.2218667 C61.7221589,52.3015115 61.4171341,52.366222 61.049162,52.416 C60.68119,52.465778 60.3422734,52.4906667 60.0324022,52.4906667 Z M61.5284916,48.2645333 C61.5284916,47.3884401 61.3662958,46.7040025 61.0418994,46.2112 C60.717503,45.7183975 60.2212324,45.472 59.5530726,45.472 C58.8849129,45.472 58.3813797,45.7183975 58.0424581,46.2112 C57.7035365,46.7040025 57.5292365,47.3884401 57.5195531,48.2645333 L61.5284916,48.2645333 Z M64.1865922,44.9493333 L64.8547486,44.9493333 L64.9128492,45.5018667 C65.7262611,44.9941308 66.5590274,44.7402667 67.4111732,44.7402667 C67.7888287,44.7402667 68.1325869,44.7925328 68.4424581,44.8970667 C68.7523293,45.0016005 69.0040959,45.1534212 69.1977654,45.3525333 C69.4011183,45.561601 69.5512099,45.8129763 69.6480447,46.1066667 C69.7448794,46.400357 69.7932961,46.76622 69.7932961,47.2042667 L69.7932961,52.2666667 L68.950838,52.2666667 L68.950838,47.4282667 C68.950838,47.0499537 68.9193672,46.7488011 68.8564246,46.5248 C68.793482,46.3007989 68.6893862,46.1141341 68.5441341,45.9648 C68.2633133,45.6760874 67.8420885,45.5317333 67.2804469,45.5317333 C66.9318418,45.5317333 66.5590336,45.5815106 66.1620112,45.6810667 C65.7649887,45.7806227 65.3873388,45.9249768 65.0290503,46.1141333 L65.0290503,52.2666667 L64.1865922,52.2666667 L64.1865922,44.9493333 Z M75.0078212,42.0522667 L77.3463687,42.0522667 C78.2275649,42.0522667 78.948973,42.136888 79.5106145,42.3061333 C80.0722561,42.4753786 80.5370559,42.7591091 80.9050279,43.1573333 C81.6216051,43.9637374 81.9798883,45.2828353 81.9798883,47.1146667 C81.9798883,48.140094 81.8636883,49.0136853 81.6312849,49.7354667 C81.3988815,50.4572481 81.089015,51.0023093 80.701676,51.3706667 C80.0819336,51.968003 79.079709,52.2666667 77.6949721,52.2666667 L75.0078212,52.2666667 L75.0078212,42.0522667 Z M77.6078212,51.4752 C78.7601547,51.4752 79.5880794,51.2213359 80.0916201,50.7136 C80.4402252,50.3651538 80.6944126,49.8972474 80.8541899,49.3098667 C81.0139673,48.722486 81.0938547,47.9907599 81.0938547,47.1146667 C81.0938547,46.2783958 81.0212298,45.5815139 80.8759777,45.024 C80.7307255,44.4664861 80.4983256,44.0184906 80.1787709,43.68 C79.8882667,43.3813318 79.5130377,43.1672895 79.0530726,43.0378667 C78.5931076,42.9084438 78.0193703,42.8437333 77.3318436,42.8437333 L75.8793296,42.8437333 L75.8793296,51.4752 L77.6078212,51.4752 Z M86.9620112,52.4906667 C85.7903107,52.4906667 84.933336,52.1596478 84.3910615,51.4976 C83.8487869,50.8355522 83.5776536,49.8773396 83.5776536,48.6229333 C83.5776536,47.4282607 83.8221577,46.4849812 84.3111732,45.7930667 C84.8001887,45.1011521 85.5240176,44.7552 86.4826816,44.7552 C88.3515922,44.7552 89.2860335,46.0593647 89.2860335,48.6677333 L89.2860335,48.8021333 C89.2860335,48.861867 89.2739294,48.9041777 89.2497207,48.9290667 C89.225512,48.9539557 89.1795162,48.9664 89.1117318,48.9664 L84.4636872,48.9664 C84.4830541,49.8823157 84.6888249,50.5742199 85.0810056,51.0421333 C85.4731863,51.5100468 86.1195486,51.744 87.0201117,51.744 C87.5720698,51.744 88.1724362,51.6693341 88.8212291,51.52 L88.8938547,52.2218667 C88.6517679,52.3015115 88.346743,52.366222 87.9787709,52.416 C87.6107989,52.465778 87.2718824,52.4906667 86.9620112,52.4906667 Z M88.4581006,48.2645333 C88.4581006,47.3884401 88.2959048,46.7040025 87.9715084,46.2112 C87.647112,45.7183975 87.1508413,45.472 86.4826816,45.472 C85.8145218,45.472 85.3109887,45.7183975 84.972067,46.2112 C84.6331454,46.7040025 84.4588455,47.3884401 84.449162,48.2645333 L88.4581006,48.2645333 Z M94.1810056,52.4757333 C93.048039,52.4757333 92.195906,52.1646253 91.624581,51.5424 C91.053256,50.9201747 90.7675978,49.9669398 90.7675978,48.6826667 C90.7675978,47.3784824 91.0508352,46.3953811 91.6173184,45.7333333 C92.1838017,45.0712856 93.0093056,44.7402667 94.0938547,44.7402667 C94.7135971,44.7402667 95.2655469,44.824888 95.7497207,44.9941333 L95.6916201,45.7109333 C95.139662,45.5615993 94.6458122,45.4869333 94.2100559,45.4869333 C93.2707588,45.4869333 92.6074507,45.7383086 92.2201117,46.2410667 C91.8327727,46.7438247 91.6391061,47.5477278 91.6391061,48.6528 C91.6391061,49.737961 91.8472977,50.5219531 92.2636872,51.0048 C92.6800766,51.4876469 93.382118,51.7290667 94.3698324,51.7290667 C94.5731854,51.7290667 94.8055853,51.7141335 95.0670391,51.6842667 C95.3284929,51.6543999 95.5463678,51.6195558 95.7206704,51.5797333 L95.7932961,52.2965333 C95.3091223,52.4160006 94.7716976,52.4757333 94.1810056,52.4757333 Z M97.8703911,43.4709333 C97.521786,43.4709333 97.347486,43.2768019 97.347486,42.8885333 L97.347486,42.8437333 C97.347486,42.4554647 97.521786,42.2613333 97.8703911,42.2613333 L97.9284916,42.2613333 C98.2770967,42.2613333 98.4513966,42.4554647 98.4513966,42.8437333 L98.4513966,42.8885333 C98.4513966,43.2768019 98.2770967,43.4709333 97.9284916,43.4709333 L97.8703911,43.4709333 Z M97.4782123,44.9493333 L98.3206704,44.9493333 L98.3206704,52.2666667 L97.4782123,52.2666667 L97.4782123,44.9493333 Z M102.169832,52.4757333 C101.821227,52.4757333 101.475048,52.4508447 101.131285,52.4010667 C100.787522,52.3512886 100.489759,52.2865782 100.237989,52.2069333 L100.310615,51.52 C100.901306,51.6792897 101.506515,51.7589333 102.126257,51.7589333 C102.765366,51.7589333 103.251954,51.6444456 103.586034,51.4154667 C103.920113,51.1864877 104.087151,50.85298 104.087151,50.4149333 C104.087151,50.1162652 104.007263,49.8723565 103.847486,49.6832 C103.687709,49.4940435 103.491621,49.3472005 103.259218,49.2426667 C103.026814,49.1381328 102.702423,49.0211562 102.286034,48.8917333 C101.80186,48.7324436 101.416947,48.5856007 101.131285,48.4512 C100.845622,48.3167993 100.601118,48.1152013 100.397765,47.8464 C100.194412,47.5775987 100.092737,47.22418 100.092737,46.7861333 C100.092737,46.1091522 100.317875,45.5989351 100.768156,45.2554667 C101.218438,44.9119983 101.850275,44.7402667 102.663687,44.7402667 C102.944508,44.7402667 103.247112,44.7626664 103.571508,44.8074667 C103.895905,44.8522669 104.179142,44.9144885 104.421229,44.9941333 L104.377654,45.6661333 C103.748228,45.5267549 103.181753,45.4570667 102.678212,45.4570667 C102.08752,45.4570667 101.642087,45.561599 101.341899,45.7706667 C101.041712,45.9797344 100.89162,46.3032867 100.89162,46.7413333 C100.89162,47.0200903 100.969087,47.2465769 101.124022,47.4208 C101.278958,47.5950231 101.470204,47.7343995 101.697765,47.8389333 C101.925327,47.9434672 102.242456,48.0604438 102.649162,48.1898667 C103.133336,48.3491564 103.52309,48.5034659 103.818436,48.6528 C104.113782,48.8021341 104.365548,49.0136875 104.573743,49.2874667 C104.781938,49.5612458 104.886034,49.9221311 104.886034,50.3701333 C104.886034,51.0471145 104.653634,51.5672871 104.188827,51.9306667 C103.72402,52.2940463 103.051029,52.4757333 102.169832,52.4757333 Z M106.963128,43.4709333 C106.614523,43.4709333 106.440223,43.2768019 106.440223,42.8885333 L106.440223,42.8437333 C106.440223,42.4554647 106.614523,42.2613333 106.963128,42.2613333 L107.021229,42.2613333 C107.369834,42.2613333 107.544134,42.4554647 107.544134,42.8437333 L107.544134,42.8885333 C107.544134,43.2768019 107.369834,43.4709333 107.021229,43.4709333 L106.963128,43.4709333 Z M106.57095,44.9493333 L107.413408,44.9493333 L107.413408,52.2666667 L106.57095,52.2666667 L106.57095,44.9493333 Z M112.30838,52.4757333 C110.265167,52.4757333 109.243575,51.1865018 109.243575,48.608 C109.243575,46.0294982 110.265167,44.7402667 112.30838,44.7402667 C114.351593,44.7402667 115.373184,46.0294982 115.373184,48.608 C115.373184,51.1865018 114.351593,52.4757333 112.30838,52.4757333 Z M112.30838,51.7290667 C113.092741,51.7290667 113.654374,51.4702248 113.993296,50.9525333 C114.332218,50.4348419 114.501676,49.6533386 114.501676,48.608 C114.501676,47.5626614 114.332218,46.7811581 113.993296,46.2634667 C113.654374,45.7457752 113.092741,45.4869333 112.30838,45.4869333 C111.524018,45.4869333 110.962385,45.7457752 110.623464,46.2634667 C110.284542,46.7811581 110.115084,47.5626614 110.115084,48.608 C110.115084,49.6533386 110.284542,50.4348419 110.623464,50.9525333 C110.962385,51.4702248 111.524018,51.7290667 112.30838,51.7290667 Z M117.174302,44.9493333 L117.842458,44.9493333 L117.900559,45.5018667 C118.713971,44.9941308 119.546737,44.7402667 120.398883,44.7402667 C120.776538,44.7402667 121.120296,44.7925328 121.430168,44.8970667 C121.740039,45.0016005 121.991805,45.1534212 122.185475,45.3525333 C122.388828,45.561601 122.538919,45.8129763 122.635754,46.1066667 C122.732589,46.400357 122.781006,46.76622 122.781006,47.2042667 L122.781006,52.2666667 L121.938547,52.2666667 L121.938547,47.4282667 C121.938547,47.0499537 121.907077,46.7488011 121.844134,46.5248 C121.781191,46.3007989 121.677096,46.1141341 121.531844,45.9648 C121.251023,45.6760874 120.829798,45.5317333 120.268156,45.5317333 C119.919551,45.5317333 119.546743,45.5815106 119.149721,45.6810667 C118.752698,45.7806227 118.375048,45.9249768 118.01676,46.1141333 L118.01676,52.2666667 L117.174302,52.2666667 L117.174302,44.9493333 Z M126.557542,52.4757333 C126.208937,52.4757333 125.862758,52.4508447 125.518994,52.4010667 C125.175231,52.3512886 124.877469,52.2865782 124.625698,52.2069333 L124.698324,51.52 C125.289016,51.6792897 125.894224,51.7589333 126.513966,51.7589333 C127.153076,51.7589333 127.639663,51.6444456 127.973743,51.4154667 C128.307823,51.1864877 128.47486,50.85298 128.47486,50.4149333 C128.47486,50.1162652 128.394973,49.8723565 128.235196,49.6832 C128.075418,49.4940435 127.879331,49.3472005 127.646927,49.2426667 C127.414524,49.1381328 127.090132,49.0211562 126.673743,48.8917333 C126.189569,48.7324436 125.804657,48.5856007 125.518994,48.4512 C125.233332,48.3167993 124.988828,48.1152013 124.785475,47.8464 C124.582122,47.5775987 124.480447,47.22418 124.480447,46.7861333 C124.480447,46.1091522 124.705584,45.5989351 125.155866,45.2554667 C125.606148,44.9119983 126.237985,44.7402667 127.051397,44.7402667 C127.332217,44.7402667 127.634821,44.7626664 127.959218,44.8074667 C128.283614,44.8522669 128.566852,44.9144885 128.808939,44.9941333 L128.765363,45.6661333 C128.135937,45.5267549 127.569462,45.4570667 127.065922,45.4570667 C126.47523,45.4570667 126.029797,45.561599 125.729609,45.7706667 C125.429421,45.9797344 125.27933,46.3032867 125.27933,46.7413333 C125.27933,47.0200903 125.356796,47.2465769 125.511732,47.4208 C125.666667,47.5950231 125.857913,47.7343995 126.085475,47.8389333 C126.313037,47.9434672 126.630166,48.0604438 127.036872,48.1898667 C127.521045,48.3491564 127.910799,48.5034659 128.206145,48.6528 C128.501491,48.8021341 128.753258,49.0136875 128.961453,49.2874667 C129.169647,49.5612458 129.273743,49.9221311 129.273743,50.3701333 C129.273743,51.0471145 129.041343,51.5672871 128.576536,51.9306667 C128.11173,52.2940463 127.438738,52.4757333 126.557542,52.4757333 Z" id="Data-Driven-Decision" fill="#4A4A4A"></path>
                </g>
            </g>
        </g>
    </g>
</svg>
