
<svg width="226px" height="34px" viewBox="0 0 226 34" version="1.1" xmlns="http://www.w3.org/2000/svg" xmlns:xlink="http://www.w3.org/1999/xlink">
    <!-- Generator: Sketch 49.3 (51167) - http://www.bohemiancoding.com/sketch -->
    <desc>Created with Sketch.</desc>
    <defs></defs>
    <g id="DESIGN-SYSTEM-HOME" stroke="none" stroke-width="1" fill="none" fill-rule="evenodd">
        <g id="Desktop-HD-1440-X-1024-NEW" transform="translate(-71.000000, -61.000000)">
            <g id="Logo-claim-2-Copy" transform="translate(71.000000, 61.000000)">
                <g>
                    <path d="M8.36457285,33.9720318 C7.49093822,33.9795279 6.64993745,33.6442737 6.02592212,33.0397587 L0.943128796,27.968193 C0.331655312,27.3512789 -0.00745789933,26.5198486 0.000124469414,25.6561557 L0.000124469414,0.932273101 C0.000124469414,0.417392885 0.422321887,9.45819614e-17 0.943128796,0 L7.70446982,0 C8.22527673,3.15273205e-17 8.64747415,0.417392885 8.64747415,0.932273101 L8.64747415,24.5933644 C8.62472379,24.9013608 8.73860687,25.2039094 8.9594867,25.4222757 C9.18036653,25.6406419 9.48639774,25.7532291 9.79793942,25.7307376 L22.0569957,25.7307376 C22.5778026,25.7307376 23,26.1481305 23,26.6630107 L23,33.0677269 C23,33.5826071 22.5778026,34 22.0569957,34 L8.36457285,33.9720318 Z" id="Shape" fill="#1D1D1B" fill-rule="nonzero"></path>
                    <path d="M51.9031221,33.9998768 C52.7516673,34.0073791 53.5685159,33.6718501 54.1746105,33.0668396 L59.0839564,27.9911171 C59.6778693,27.3736973 60.0072437,26.5415855 59.9998791,25.6771847 L59.9998791,0.933037235 C59.9998791,0.417734999 59.5898065,3.15531617e-17 59.0839564,0 L52.544268,0 C52.0384178,-3.15531617e-17 51.6283452,0.417734999 51.6283452,0.933037235 L51.6283452,24.6135223 C51.6504423,24.9217711 51.5398297,25.2245677 51.3252932,25.443113 C51.1107567,25.6616582 50.8135142,25.7743376 50.5109195,25.7518277 L41.5165582,25.7518277 C41.2139635,25.7743376 40.916721,25.6616582 40.7021845,25.443113 C40.487648,25.2245677 40.3770354,24.9217711 40.3991324,24.6135223 L40.3991324,0.933037235 C40.3991324,0.417734999 39.9890599,3.15531617e-17 39.4832097,0 L32.9160436,0 C32.4101935,-3.15531617e-17 32.0001209,0.417734999 32.0001209,0.933037235 L32.0001209,25.7238366 C31.9927563,26.5882373 32.3221307,27.4203491 32.9160436,28.0377689 L37.8253895,33.0388485 C38.4314841,33.643859 39.2483327,33.979388 40.0968779,33.9718857 L51.9031221,33.9998768 Z" id="Shape" fill="#1D1D1B" fill-rule="nonzero"></path>
                    <path d="M69.0001233,25.7451132 C68.9926141,26.6102176 69.3284546,27.4430068 69.9340269,28.0609292 L74.9584284,33.06608 C75.5764215,33.671583 76.4093059,34.0073851 77.2745093,33.9998767 L94.0380793,33.9998767 C94.55386,33.9998767 94.9719829,33.5818017 94.9719829,33.06608 L94.9719829,26.6975859 C94.9719829,26.1818642 94.55386,25.7637891 94.0380793,25.7637891 L78.6940428,25.7637891 C78.3855078,25.7863173 78.08243,25.6735462 77.8636818,25.4548231 C77.6449336,25.2360999 77.5321496,24.9330568 77.5546804,24.624557 L77.5546804,9.42234542 C77.5349892,9.1154095 77.6490292,8.81495861 77.8674299,8.59837289 C78.0858306,8.38178717 78.3872443,8.27023684 78.6940428,8.29245131 L94.0660964,8.29245131 C94.5818771,8.29245131 95,7.87437625 95,7.35865453 L95,0.934132665 C95,0.418410942 94.5818771,0.000335881863 94.0660964,0.000335881863 L77.2931874,0.000335881863 C76.4215371,-0.012151902 75.5810101,0.324020445 74.9584284,0.934132665 L69.962044,5.95795936 C69.3564717,6.57588177 69.0206312,7.40867096 69.0281404,8.27377538 L69.0001233,25.7451132 Z" id="Shape" fill="#1D1D1B" fill-rule="nonzero"></path>
                    <path d="M130.038591,5.94239361 L125.13083,0.93444255 C124.524931,0.328600756 123.708346,-0.00738921185 122.860074,0.000123323047 L111.094265,0.000123323047 C110.245994,-0.00738921185 109.429409,0.328600756 108.82351,0.93444255 L103.915748,5.94239361 C103.322027,6.56066174 102.992759,7.39391686 103.000121,8.25950529 L103.000121,33.0656808 C103.000121,33.581691 103.410061,34 103.915748,34 L110.489951,34 C110.995638,34 111.405578,33.581691 111.405578,33.0656808 L111.405578,23.3020448 C111.387966,23.0100222 111.488848,22.7234644 111.684545,22.5096346 C111.880243,22.2958048 112.153522,22.1735325 112.440237,22.1715186 L121.450009,22.1715186 C121.755349,22.1406183 122.058548,22.2483729 122.279014,22.4661411 C122.499481,22.6839093 122.614881,22.9896309 122.594542,23.3020448 L122.594542,33.0656808 C122.594542,33.581691 123.004483,34 123.51017,34 L130.084373,34 C130.59006,34 131,33.581691 131,33.0656808 L131,8.26884848 C130.997668,7.39330122 130.651354,6.55527572 130.038591,5.94239361 Z M122.594542,14.9398878 C122.616632,15.2485601 122.506056,15.5517728 122.291588,15.7706183 C122.077121,15.9894638 121.779974,16.102298 121.477477,16.0797572 L112.440237,16.0797572 C112.13774,16.102298 111.840593,15.9894638 111.626126,15.7706183 C111.411659,15.5517728 111.301082,15.2485601 111.323172,14.9398878 L111.323172,9.3339724 C111.312022,9.03160946 111.427423,8.73867695 111.640562,8.52831786 C111.853701,8.31795877 112.144459,8.21002825 112.440237,8.23147571 L121.450009,8.23147571 C121.752506,8.20893489 122.049652,8.3217691 122.264119,8.54061462 C122.478587,8.75946014 122.589164,9.0626728 122.567074,9.37134517 L122.594542,14.9398878 Z" id="Shape" fill="#1D1D1B" fill-rule="nonzero"></path>
                    <path d="M145,1 L147.764681,1 C148.80645,1 149.659314,1.09728086 150.323299,1.29184549 C150.987283,1.48641013 151.53678,1.81258712 151.971804,2.27038627 C152.818957,3.19742953 153.242527,4.71386644 153.242527,6.81974249 C153.242527,7.99857528 153.105153,9.00285708 152.830401,9.83261803 C152.555648,10.662379 152.189318,11.2889821 151.731397,11.7124464 C150.998724,12.3991451 149.813873,12.7424893 148.176807,12.7424893 L145,12.7424893 L145,1 Z M148.073776,11.832618 C149.436089,11.832618 150.414879,11.5407755 151.010176,10.9570815 C151.422304,10.5565073 151.72281,10.0186014 151.911702,9.34334764 C152.100595,8.66809391 152.195039,7.8269006 152.195039,6.81974249 C152.195039,5.85836429 152.10918,5.05722781 151.93746,4.41630901 C151.76574,3.77539021 151.490992,3.26037391 151.113208,2.87124464 C150.769767,2.52789528 150.326163,2.28183193 149.782383,2.13304721 C149.238602,1.98426249 148.560318,1.90987124 147.747509,1.90987124 L146.030316,1.90987124 L146.030316,11.832618 L148.073776,11.832618 Z M157.878948,12.9828326 C157.031796,12.9828326 156.350649,12.7596589 155.835489,12.3133047 C155.320328,11.8669506 155.062752,11.220319 155.062752,10.3733906 C155.062752,9.606577 155.280261,9.01716944 155.715285,8.60515021 C156.001485,8.33047073 156.362092,8.13304781 156.797117,8.01287554 C157.232141,7.89270326 157.775914,7.83261803 158.42845,7.83261803 L160.454738,7.83261803 L160.454738,7.14592275 C160.454738,6.35621923 160.288745,5.79542369 159.956752,5.46351931 C159.636208,5.13161494 159.06954,4.96566524 158.256731,4.96566524 C157.489714,4.96566524 156.705537,5.05722369 155.904176,5.24034335 L155.835489,4.41630901 C156.671193,4.19885442 157.506886,4.09012876 158.342591,4.09012876 C159.475944,4.09012876 160.283016,4.3361921 160.763833,4.82832618 C161.221753,5.30901528 161.45071,6.03576052 161.45071,7.00858369 L161.45071,12.7424893 L160.643629,12.7424893 L160.592114,12.1759657 C160.168537,12.4277552 159.722071,12.6251781 159.252703,12.7682403 C158.783335,12.9113026 158.325421,12.9828326 157.878948,12.9828326 Z M158.050668,12.1072961 C158.4399,12.1072961 158.857746,12.0500721 159.304219,11.9356223 C159.750691,11.8211725 160.134194,11.67239 160.454738,11.4892704 L160.454738,8.63948498 L158.582998,8.63948498 C158.056389,8.63948498 157.632819,8.6795418 157.312275,8.75965665 C156.99173,8.8397715 156.734154,8.95994197 156.539538,9.12017167 C156.218994,9.39485116 156.058724,9.80686421 156.058724,10.3562232 C156.058724,10.9513621 156.230441,11.3919871 156.573882,11.6781116 C156.917322,11.9642361 157.409579,12.1072961 158.050668,12.1072961 Z M166.722493,12.9828326 C165.944028,12.9828326 165.37736,12.8054381 165.022472,12.4506438 C164.827856,12.2560791 164.684758,12.0014322 164.593174,11.6866953 C164.50159,11.3719584 164.455798,10.9742513 164.455798,10.4935622 L164.455798,5.12017167 L162.910324,5.12017167 L162.910324,4.5193133 L164.455798,4.3304721 L164.455798,2.39055794 C164.799239,2.28755313 165.131226,2.21888429 165.45177,2.18454936 L165.45177,4.3304721 L167.684121,4.3304721 L167.684121,5.12017167 L165.45177,5.12017167 L165.45177,10.1845494 C165.45177,10.6194585 165.471804,10.9484967 165.511872,11.1716738 C165.55194,11.3948509 165.634937,11.580829 165.760865,11.7296137 C165.989825,11.9814033 166.36188,12.1072961 166.87704,12.1072961 C167.277721,12.1072961 167.707015,12.0557945 168.164935,11.9527897 L168.233623,12.7596567 C167.787151,12.9084414 167.283446,12.9828326 166.722493,12.9828326 Z M172.183167,12.9828326 C171.336014,12.9828326 170.654868,12.7596589 170.139707,12.3133047 C169.624547,11.8669506 169.366971,11.220319 169.366971,10.3733906 C169.366971,9.606577 169.584479,9.01716944 170.019504,8.60515021 C170.305704,8.33047073 170.666311,8.13304781 171.101336,8.01287554 C171.53636,7.89270326 172.080132,7.83261803 172.732669,7.83261803 L174.758957,7.83261803 L174.758957,7.14592275 C174.758957,6.35621923 174.592963,5.79542369 174.260971,5.46351931 C173.940427,5.13161494 173.373759,4.96566524 172.56095,4.96566524 C171.793933,4.96566524 171.009756,5.05722369 170.208395,5.24034335 L170.139707,4.41630901 C170.975412,4.19885442 171.811105,4.09012876 172.646809,4.09012876 C173.780163,4.09012876 174.587235,4.3361921 175.068052,4.82832618 C175.525972,5.30901528 175.754929,6.03576052 175.754929,7.00858369 L175.754929,12.7424893 L174.947848,12.7424893 L174.896332,12.1759657 C174.472756,12.4277552 174.02629,12.6251781 173.556922,12.7682403 C173.087553,12.9113026 172.62964,12.9828326 172.183167,12.9828326 Z M172.354887,12.1072961 C172.744119,12.1072961 173.161965,12.0500721 173.608438,11.9356223 C174.05491,11.8211725 174.438413,11.67239 174.758957,11.4892704 L174.758957,8.63948498 L172.887216,8.63948498 C172.360608,8.63948498 171.937038,8.6795418 171.616494,8.75965665 C171.295949,8.8397715 171.038373,8.95994197 170.843757,9.12017167 C170.523212,9.39485116 170.362943,9.80686421 170.362943,10.3562232 C170.362943,10.9513621 170.53466,11.3919871 170.8781,11.6781116 C171.221541,11.9642361 171.713798,12.1072961 172.354887,12.1072961 Z M178.107484,7.84978541 L181.284291,7.84978541 L181.284291,8.72532189 L178.107484,8.72532189 L178.107484,7.84978541 Z M183.928768,1 L186.693449,1 C187.735218,1 188.588082,1.09728086 189.252067,1.29184549 C189.916052,1.48641013 190.465548,1.81258712 190.900572,2.27038627 C191.747725,3.19742953 192.171295,4.71386644 192.171295,6.81974249 C192.171295,7.99857528 192.033921,9.00285708 191.759169,9.83261803 C191.484417,10.662379 191.118086,11.2889821 190.660165,11.7124464 C189.927493,12.3991451 188.742641,12.7424893 187.105576,12.7424893 L183.928768,12.7424893 L183.928768,1 Z M187.002544,11.832618 C188.364857,11.832618 189.343648,11.5407755 189.938944,10.9570815 C190.351073,10.5565073 190.651578,10.0186014 190.840471,9.34334764 C191.029363,8.66809391 191.123808,7.8269006 191.123808,6.81974249 C191.123808,5.85836429 191.037949,5.05722781 190.866229,4.41630901 C190.694508,3.77539021 190.41976,3.26037391 190.041976,2.87124464 C189.698535,2.52789528 189.254932,2.28183193 188.711151,2.13304721 C188.167371,1.98426249 187.489086,1.90987124 186.676277,1.90987124 L184.959084,1.90987124 L184.959084,11.832618 L187.002544,11.832618 Z M194.472334,4.3304721 L195.262243,4.3304721 L195.348103,5.05150215 C195.725887,4.74248773 196.135147,4.50500798 196.575896,4.33905579 C197.016644,4.17310361 197.437352,4.09012876 197.838033,4.09012876 C197.998305,4.09012876 198.135679,4.09585116 198.250159,4.10729614 L198.250159,5.03433476 C198.066991,5.02288979 197.872378,5.01716738 197.666313,5.01716738 C196.876401,5.01716738 196.143739,5.25178592 195.468306,5.72103004 L195.468306,12.7424893 L194.472334,12.7424893 L194.472334,4.3304721 Z M200.362307,2.63090129 C199.950178,2.63090129 199.744117,2.40772755 199.744117,1.96137339 L199.744117,1.90987124 C199.744117,1.46351708 199.950178,1.24034335 200.362307,1.24034335 L200.430994,1.24034335 C200.843123,1.24034335 201.049184,1.46351708 201.049184,1.90987124 L201.049184,1.96137339 C201.049184,2.40772755 200.843123,2.63090129 200.430994,2.63090129 L200.362307,2.63090129 Z M199.898664,4.3304721 L200.894636,4.3304721 L200.894636,12.7424893 L199.898664,12.7424893 L199.898664,4.3304721 Z M202.52597,4.3304721 L203.573458,4.3304721 L206.046216,11.695279 L208.467458,4.3304721 L209.480602,4.3304721 L206.561374,12.7424893 L205.496714,12.7424893 L202.52597,4.3304721 Z M214.460462,13 C213.075253,13 212.062119,12.6194602 211.42103,11.8583691 C210.779942,11.097278 210.459402,9.99571536 210.459402,8.55364807 C210.459402,7.18025064 210.74846,6.09585519 211.326585,5.30042918 C211.904709,4.50500318 212.760435,4.10729614 213.893788,4.10729614 C216.103255,4.10729614 217.207971,5.60656584 217.207971,8.60515021 L217.207971,8.75965665 C217.207971,8.82832652 217.193661,8.87696695 217.165041,8.9055794 C217.136421,8.93419185 217.082044,8.94849785 217.001908,8.94849785 L211.50689,8.94849785 C211.529786,10.0014359 211.773053,10.79685 212.236697,11.3347639 C212.700342,11.8726779 213.464485,12.1416309 214.52915,12.1416309 C215.181687,12.1416309 215.891453,12.0557948 216.658469,11.8841202 L216.744329,12.6909871 C216.458129,12.782547 216.097522,12.8569382 215.662497,12.9141631 C215.227473,12.971388 214.826799,13 214.460462,13 Z M216.229171,8.1416309 C216.229171,7.13447279 216.03742,6.34764232 215.653911,5.78111588 C215.270403,5.21458944 214.683701,4.93133047 213.893788,4.93133047 C213.103876,4.93133047 212.508588,5.21458944 212.107908,5.78111588 C211.707227,6.34764232 211.501166,7.13447279 211.489718,8.1416309 L216.229171,8.1416309 Z M219.371635,4.3304721 L220.161543,4.3304721 L220.230231,4.96566524 C221.191864,4.38197133 222.176378,4.09012876 223.183803,4.09012876 C223.630276,4.09012876 224.036674,4.15021399 224.40301,4.27038627 C224.769347,4.39055854 225.066991,4.56509185 225.295951,4.79399142 C225.536359,5.03433597 225.713801,5.32331734 225.828281,5.66094421 C225.942761,5.99857107 226,6.41916773 226,6.92274678 L226,12.7424893 L225.004028,12.7424893 L225.004028,7.18025751 C225.004028,6.74534833 224.966823,6.39914292 224.89241,6.1416309 C224.817998,5.88411888 224.694934,5.66952876 224.523214,5.49785408 C224.191222,5.1659497 223.693241,5 223.029256,5 C222.617127,5 222.176386,5.05722403 221.707017,5.17167382 C221.237649,5.28612361 220.791183,5.4520733 220.367607,5.6695279 L220.367607,12.7424893 L219.371635,12.7424893 L219.371635,4.3304721 Z" id="Data-Driven" fill="#4A4A4A"></path>
                    <path d="M145,22 L147.801124,22 C148.856626,22 149.720732,22.0972809 150.393469,22.2918455 C151.066206,22.4864101 151.622946,22.8125871 152.063704,23.2703863 C152.922024,24.1974295 153.351178,25.7138664 153.351178,27.8197425 C153.351178,28.9985753 153.211993,30.0028571 152.933619,30.832618 C152.655245,31.662379 152.284085,32.2889821 151.820128,32.7124464 C151.077798,33.3991451 149.877328,33.7424893 148.218683,33.7424893 L145,33.7424893 L145,22 Z M148.114293,32.832618 C149.494564,32.832618 150.486257,32.5407755 151.0894,31.9570815 C151.506961,31.5565073 151.811428,31.0186014 152.00281,30.3433476 C152.194193,29.6680939 152.289882,28.8269006 152.289882,27.8197425 C152.289882,26.8583643 152.202892,26.0572278 152.028908,25.416309 C151.854924,24.7753902 151.576554,24.2603739 151.19379,23.8712446 C150.845823,23.5278953 150.396371,23.2818319 149.845423,23.1330472 C149.294474,22.9842625 148.607249,22.9098712 147.783726,22.9098712 L146.043897,22.9098712 L146.043897,32.832618 L148.114293,32.832618 Z M159.31879,34 C157.915321,34 156.888833,33.6194602 156.239293,32.8583691 C155.589754,32.097278 155.264989,30.9957154 155.264989,29.5536481 C155.264989,28.1802506 155.557858,27.0958552 156.143603,26.3004292 C156.729348,25.5050032 157.596354,25.1072961 158.744647,25.1072961 C160.983237,25.1072961 162.102516,26.6065658 162.102516,29.6051502 L162.102516,29.7596567 C162.102516,29.8283265 162.088018,29.876967 162.05902,29.9055794 C162.030023,29.9341918 161.974929,29.9484979 161.893737,29.9484979 L156.326285,29.9484979 C156.349483,31.0014359 156.595956,31.79685 157.065712,32.3347639 C157.535468,32.8726779 158.309684,33.1416309 159.388383,33.1416309 C160.049522,33.1416309 160.768644,33.0557948 161.545771,32.8841202 L161.632762,33.6909871 C161.342789,33.782547 160.977429,33.8569382 160.53667,33.9141631 C160.095911,33.971388 159.689955,34 159.31879,34 Z M161.110814,29.1416309 C161.110814,28.1344728 160.916535,27.3476423 160.527971,26.7811159 C160.139407,26.2145894 159.544972,25.9313305 158.744647,25.9313305 C157.944321,25.9313305 157.341187,26.2145894 156.935225,26.7811159 C156.529263,27.3476423 156.320485,28.1344728 156.308887,29.1416309 L161.110814,29.1416309 Z M167.965739,33.9828326 C166.608666,33.9828326 165.587976,33.6251824 164.90364,32.9098712 C164.219304,32.1945601 163.877141,31.0987198 163.877141,29.6223176 C163.877141,28.1230254 164.216405,26.9928507 164.894941,26.2317597 C165.573478,25.4706686 166.56227,25.0901288 167.861349,25.0901288 C168.60368,25.0901288 169.264808,25.1874096 169.844754,25.3819742 L169.775161,26.2060086 C169.114022,26.0343339 168.522487,25.9484979 168.000535,25.9484979 C166.87544,25.9484979 166.080927,26.2374792 165.61697,26.8154506 C165.153013,27.3934221 164.921039,28.3175902 164.921039,29.5879828 C164.921039,30.8354855 165.170411,31.736764 165.669165,32.2918455 C166.167918,32.846927 167.008827,33.1244635 168.191916,33.1244635 C168.435494,33.1244635 168.713864,33.1072963 169.027034,33.0729614 C169.340205,33.0386264 169.601177,32.9985696 169.809957,32.9527897 L169.896949,33.776824 C169.317003,33.9141638 168.673273,33.9828326 167.965739,33.9828326 Z M172.384904,23.6309013 C171.967343,23.6309013 171.758565,23.4077276 171.758565,22.9613734 L171.758565,22.9098712 C171.758565,22.4635171 171.967343,22.2403433 172.384904,22.2403433 L172.454497,22.2403433 C172.872058,22.2403433 173.080835,22.4635171 173.080835,22.9098712 L173.080835,22.9613734 C173.080835,23.4077276 172.872058,23.6309013 172.454497,23.6309013 L172.384904,23.6309013 Z M171.91515,25.3304721 L172.924251,25.3304721 L172.924251,33.7424893 L171.91515,33.7424893 L171.91515,25.3304721 Z M177.534797,33.9828326 C177.117236,33.9828326 176.702581,33.9542206 176.290819,33.8969957 C175.879058,33.8397708 175.522396,33.7653796 175.220824,33.6738197 L175.307816,32.8841202 C176.01535,33.0672398 176.740271,33.1587983 177.482602,33.1587983 C178.24813,33.1587983 178.830967,33.027183 179.23113,32.7639485 C179.631292,32.500714 179.83137,32.117313 179.83137,31.6137339 C179.83137,31.2703845 179.735681,30.9899868 179.544299,30.7725322 C179.352917,30.5550776 179.118042,30.3862667 178.839668,30.2660944 C178.561294,30.1459221 178.172736,30.0114457 177.673983,29.8626609 C177.094037,29.6795413 176.632987,29.5107304 176.290819,29.3562232 C175.948651,29.201716 175.655783,28.9699586 175.412206,28.6609442 C175.168628,28.3519298 175.046842,27.9456391 175.046842,27.4420601 C175.046842,26.6638015 175.316512,26.0772552 175.855862,25.6824034 C176.395211,25.2875517 177.152029,25.0901288 178.126338,25.0901288 C178.462707,25.0901288 178.825168,25.1158796 179.213731,25.167382 C179.602295,25.2188844 179.941558,25.2904144 180.231531,25.3819742 L180.179336,26.1545064 C179.425407,25.9942767 178.74688,25.9141631 178.143737,25.9141631 C177.436203,25.9141631 176.902661,26.0343336 176.543094,26.2746781 C176.183528,26.5150227 176.003747,26.8869789 176.003747,27.3905579 C176.003747,27.7110173 176.096537,27.9713867 176.28212,28.1716738 C176.467703,28.3719609 176.696778,28.5321882 176.969352,28.6523605 C177.241927,28.7725328 177.621786,28.9070093 178.10894,29.055794 C178.688886,29.2389136 179.155735,29.4163082 179.509502,29.5879828 C179.863269,29.7596575 180.164836,30.0028597 180.414213,30.3175966 C180.66359,30.6323335 180.788276,31.0472077 180.788276,31.5622318 C180.788276,32.3404903 180.509906,32.9384815 179.953158,33.3562232 C179.39641,33.7739649 178.590298,33.9828326 177.534797,33.9828326 Z M183.276231,23.6309013 C182.85867,23.6309013 182.649893,23.4077276 182.649893,22.9613734 L182.649893,22.9098712 C182.649893,22.4635171 182.85867,22.2403433 183.276231,22.2403433 L183.345824,22.2403433 C183.763385,22.2403433 183.972163,22.4635171 183.972163,22.9098712 L183.972163,22.9613734 C183.972163,23.4077276 183.763385,23.6309013 183.345824,23.6309013 L183.276231,23.6309013 Z M182.806478,25.3304721 L183.815578,25.3304721 L183.815578,33.7424893 L182.806478,33.7424893 L182.806478,25.3304721 Z M189.678801,33.9828326 C187.23143,33.9828326 186.007762,32.5007301 186.007762,29.5364807 C186.007762,26.5722312 187.23143,25.0901288 189.678801,25.0901288 C192.126172,25.0901288 193.349839,26.5722312 193.349839,29.5364807 C193.349839,32.5007301 192.126172,33.9828326 189.678801,33.9828326 Z M189.678801,33.1244635 C190.618313,33.1244635 191.29104,32.8268985 191.697002,32.2317597 C192.102964,31.6366208 192.305942,30.7382034 192.305942,29.5364807 C192.305942,28.3347579 192.102964,27.4363406 191.697002,26.8412017 C191.29104,26.2460628 190.618313,25.9484979 189.678801,25.9484979 C188.739289,25.9484979 188.066562,26.2460628 187.6606,26.8412017 C187.254638,27.4363406 187.05166,28.3347579 187.05166,29.5364807 C187.05166,30.7382034 187.254638,31.6366208 187.6606,32.2317597 C188.066562,32.8268985 188.739289,33.1244635 189.678801,33.1244635 Z M195.507227,25.3304721 L196.307548,25.3304721 L196.377141,25.9656652 C197.35145,25.3819713 198.348942,25.0901288 199.369647,25.0901288 C199.822004,25.0901288 200.23376,25.150214 200.604925,25.2703863 C200.97609,25.3905585 201.277658,25.5650918 201.509636,25.7939914 C201.753213,26.034336 201.932994,26.3233173 202.048983,26.6609442 C202.164972,26.9985711 202.222966,27.4191677 202.222966,27.9227468 L202.222966,33.7424893 L201.213865,33.7424893 L201.213865,28.1802575 C201.213865,27.7453483 201.176169,27.3991429 201.100776,27.1416309 C201.025383,26.8841189 200.900697,26.6695288 200.726713,26.4978541 C200.390344,26.1659497 199.885799,26 199.213062,26 C198.795501,26 198.34895,26.057224 197.873394,26.1716738 C197.397838,26.2861236 196.945488,26.4520733 196.516328,26.6695279 L196.516328,33.7424893 L195.507227,33.7424893 L195.507227,25.3304721 Z M206.74652,33.9828326 C206.328959,33.9828326 205.914304,33.9542206 205.502543,33.8969957 C205.090781,33.8397708 204.73412,33.7653796 204.432548,33.6738197 L204.51954,32.8841202 C205.227073,33.0672398 205.951995,33.1587983 206.694325,33.1587983 C207.459854,33.1587983 208.042691,33.027183 208.442853,32.7639485 C208.843016,32.500714 209.043094,32.117313 209.043094,31.6137339 C209.043094,31.2703845 208.947405,30.9899868 208.756022,30.7725322 C208.56464,30.5550776 208.329766,30.3862667 208.051392,30.2660944 C207.773018,30.1459221 207.38446,30.0114457 206.885707,29.8626609 C206.305761,29.6795413 205.844711,29.5107304 205.502543,29.3562232 C205.160375,29.201716 204.867507,28.9699586 204.623929,28.6609442 C204.380352,28.3519298 204.258565,27.9456391 204.258565,27.4420601 C204.258565,26.6638015 204.528236,26.0772552 205.067586,25.6824034 C205.606935,25.2875517 206.363753,25.0901288 207.338062,25.0901288 C207.674431,25.0901288 208.036891,25.1158796 208.425455,25.167382 C208.814019,25.2188844 209.153282,25.2904144 209.443255,25.3819742 L209.39106,26.1545064 C208.63713,25.9942767 207.958604,25.9141631 207.35546,25.9141631 C206.647927,25.9141631 206.114384,26.0343336 205.754818,26.2746781 C205.395252,26.5150227 205.215471,26.8869789 205.215471,27.3905579 C205.215471,27.7110173 205.308261,27.9713867 205.493844,28.1716738 C205.679426,28.3719609 205.908501,28.5321882 206.181076,28.6523605 C206.453651,28.7725328 206.833509,28.9070093 207.320664,29.055794 C207.90061,29.2389136 208.367459,29.4163082 208.721226,29.5879828 C209.074993,29.7596575 209.37656,30.0028597 209.625937,30.3175966 C209.875314,30.6323335 210,31.0472077 210,31.5622318 C210,32.3404903 209.72163,32.9384815 209.164882,33.3562232 C208.608134,33.7739649 207.802022,33.9828326 206.74652,33.9828326 Z" id="Decisions" fill="#4A4A4A"></path>
                </g>
            </g>
        </g>
    </g>
</svg>
