
<svg width="38px" height="20px" viewBox="0 0 38 20" version="1.1" xmlns="http://www.w3.org/2000/svg" xmlns:xlink="http://www.w3.org/1999/xlink">
    <!-- Generator: Sketch 49.1 (51147) - http://www.bohemiancoding.com/sketch -->
    <desc>Created with Sketch.</desc>
    <defs></defs>
    <g id="DESIGN-SUYSTEM-HOME" stroke="none" stroke-width="1" fill="none" fill-rule="evenodd">
        <g id="Mobile-Copy-4" transform="translate(-12.000000, -14.000000)">
            <g id="LOGO-DESIGN-SYSTEM" transform="translate(12.000000, 14.000000)">
                <g>
                    <path d="M0.44353125,15.5064 L1.368,15.5064 C1.70643919,15.5064 1.98787388,15.5423996 2.2123125,15.6144 C2.43675112,15.6864004 2.62021804,15.8015992 2.76271875,15.96 C3.02278255,16.2480014 3.1528125,16.7051969 3.1528125,17.3316 C3.1528125,18.0120034 3.00675146,18.5015985 2.714625,18.8004 C2.58281184,18.9372007 2.4144854,19.0379997 2.20964063,19.1028 C2.00479585,19.1676003 1.75809519,19.2 1.46953125,19.2 L0.44353125,19.2 L0.44353125,15.5064 Z M1.4535,18.8166 C1.65656352,18.8166 1.82578057,18.7950002 1.96115625,18.7518 C2.09653193,18.7085998 2.21231202,18.6402005 2.3085,18.5466 C2.54362618,18.3197989 2.6611875,17.9166029 2.6611875,17.337 C2.6611875,16.8257974 2.57212589,16.4604011 2.394,16.2408 C2.2942495,16.1183994 2.16243832,16.0293003 1.9985625,15.9735 C1.83468668,15.9176997 1.61559512,15.8898 1.34128125,15.8898 L0.919125,15.8898 L0.919125,18.8166 L1.4535,18.8166 Z M3.89559375,15.5064 L5.99034375,15.5064 L5.94759375,15.8844 L4.3711875,15.8844 L4.3711875,17.1372 L5.64834375,17.1372 L5.64834375,17.526 L4.3711875,17.526 L4.3711875,18.822 L6.02240625,18.822 L6.02240625,19.2 L3.89559375,19.2 L3.89559375,15.5064 Z M7.64690625,19.2756 C7.47234288,19.2756 7.28976658,19.2594002 7.09917188,19.227 C6.90857717,19.1945998 6.74559443,19.1514003 6.61021875,19.0974 L6.690375,18.7302 C7.02525167,18.8274005 7.32984238,18.876 7.60415625,18.876 C7.89272019,18.876 8.10824929,18.8202006 8.25075,18.7086 C8.38256316,18.6041995 8.44846875,18.454801 8.44846875,18.2604 C8.44846875,18.1271993 8.41195349,18.0156005 8.33892188,17.9256 C8.26589026,17.8355995 8.17504742,17.7618003 8.06639063,17.7042 C7.95773383,17.6465997 7.80900094,17.5818004 7.6201875,17.5098 C7.39574888,17.4269996 7.21406319,17.3469004 7.075125,17.2695 C6.93618681,17.1920996 6.81773486,17.0850007 6.71976563,16.9482 C6.62179639,16.8113993 6.5728125,16.6368011 6.5728125,16.4244 C6.5728125,16.1039984 6.68146766,15.8592008 6.89878125,15.69 C7.11609484,15.5207992 7.41177938,15.4362 7.78584375,15.4362 C7.94259453,15.4362 8.09934297,15.4487999 8.25609375,15.474 C8.41284453,15.4992001 8.55534311,15.5333998 8.68359375,15.5766 L8.614125,15.9438 C8.33981113,15.8717996 8.07618876,15.8358 7.82325,15.8358 C7.28887233,15.8358 7.0216875,16.0211981 7.0216875,16.392 C7.0216875,16.5108006 7.05642153,16.6115996 7.12589063,16.6944 C7.19535972,16.7772004 7.2826401,16.8455997 7.38773438,16.8996 C7.49282865,16.9536003 7.63621784,17.0165996 7.81790625,17.0886 C8.04946991,17.1786004 8.2373899,17.2631996 8.38167188,17.3424 C8.52595385,17.4216004 8.64885887,17.5322993 8.75039062,17.6745 C8.85192238,17.8167007 8.9026875,17.9957989 8.9026875,18.2118 C8.9026875,18.5286016 8.80650096,18.7787991 8.614125,18.9624 C8.39681141,19.171201 8.07440839,19.2756 7.64690625,19.2756 Z M9.6508125,15.5064 L10.1264063,15.5064 L10.1264063,19.2 L9.6508125,19.2 L9.6508125,15.5064 Z M12.5791875,19.2756 C11.9984971,19.2756 11.5727826,19.1190016 11.3020312,18.8058 C11.0241549,18.4853984 10.8852187,18.021003 10.8852187,17.4126 C10.8852187,17.0561982 10.9297496,16.7475013 11.0188125,16.4865 C11.1078754,16.2254987 11.2325617,16.0140008 11.392875,15.852 C11.6707514,15.5747986 12.0644037,15.4362 12.5738437,15.4362 C12.719907,15.4362 12.8722023,15.4487999 13.0307344,15.474 C13.1892664,15.4992001 13.3308744,15.5333998 13.4555625,15.5766 L13.3914375,15.9438 C13.2738744,15.9113998 13.1447351,15.8853001 13.0040156,15.8655 C12.8632962,15.8456999 12.7341568,15.8358 12.6165937,15.8358 C12.4064052,15.8358 12.2273914,15.8636997 12.0795469,15.9195 C11.9317024,15.9753003 11.8079067,16.0625994 11.7081562,16.1814 C11.4908427,16.4334013 11.3821875,16.8347972 11.3821875,17.3856 C11.3821875,17.8932025 11.4765928,18.2693988 11.6654062,18.5142 C11.7615942,18.6402006 11.8862805,18.7328997 12.0394687,18.7923 C12.192657,18.8517003 12.3850301,18.8814 12.6165937,18.8814 C12.7875946,18.8814 12.9532492,18.8688001 13.1135625,18.8436 L13.1135625,17.7096 L12.4936875,17.7096 L12.4936875,17.3316 L13.5784687,17.3316 L13.5784687,19.1352 C13.4537806,19.1748002 13.2970322,19.2080999 13.1082187,19.2351 C12.9194053,19.2621001 12.7430633,19.2756 12.5791875,19.2756 Z M14.4495,15.5064 L14.7808125,15.5064 L16.7847187,18.3792 L16.7847187,15.5064 L17.206875,15.5064 L17.206875,19.2 L16.8435,19.2 L14.8716562,16.3866 L14.8716562,19.2 L14.4495,19.2 L14.4495,15.5064 Z M20.0978438,19.2756 C19.9232804,19.2756 19.7407041,19.2594002 19.5501094,19.227 C19.3595147,19.1945998 19.1965319,19.1514003 19.0611563,19.0974 L19.1413125,18.7302 C19.4761892,18.8274005 19.7807799,18.876 20.0550938,18.876 C20.3436577,18.876 20.5591868,18.8202006 20.7016875,18.7086 C20.8335007,18.6041995 20.8994063,18.454801 20.8994063,18.2604 C20.8994063,18.1271993 20.862891,18.0156005 20.7898594,17.9256 C20.7168278,17.8355995 20.6259849,17.7618003 20.5173281,17.7042 C20.4086713,17.6465997 20.2599384,17.5818004 20.071125,17.5098 C19.8466864,17.4269996 19.6650007,17.3469004 19.5260625,17.2695 C19.3871243,17.1920996 19.2686724,17.0850007 19.1707031,16.9482 C19.0727339,16.8113993 19.02375,16.6368011 19.02375,16.4244 C19.02375,16.1039984 19.1324052,15.8592008 19.3497188,15.69 C19.5670323,15.5207992 19.8627169,15.4362 20.2367813,15.4362 C20.393532,15.4362 20.5502805,15.4487999 20.7070313,15.474 C20.863782,15.4992001 21.0062806,15.5333998 21.1345313,15.5766 L21.0650625,15.9438 C20.7907486,15.8717996 20.5271263,15.8358 20.2741875,15.8358 C19.7398098,15.8358 19.472625,16.0211981 19.472625,16.392 C19.472625,16.5108006 19.507359,16.6115996 19.5768281,16.6944 C19.6462972,16.7772004 19.7335776,16.8455997 19.8386719,16.8996 C19.9437662,16.9536003 20.0871553,17.0165996 20.2688438,17.0886 C20.5004074,17.1786004 20.6883274,17.2631996 20.8326094,17.3424 C20.9768913,17.4216004 21.0997964,17.5322993 21.2013281,17.6745 C21.3028599,17.8167007 21.353625,17.9957989 21.353625,18.2118 C21.353625,18.5286016 21.2574385,18.7787991 21.0650625,18.9624 C20.8477489,19.171201 20.5253459,19.2756 20.0978438,19.2756 Z M22.914,17.688 L21.7276875,15.5064 L22.251375,15.5064 L23.1811875,17.283 L24.1484063,15.5064 L24.6293438,15.5064 L23.3895937,17.6988 L23.3895937,19.2 L22.914,19.2 L22.914,17.688 Z M26.0721562,19.2756 C25.8975929,19.2756 25.7150166,19.2594002 25.5244219,19.227 C25.3338272,19.1945998 25.1708444,19.1514003 25.0354687,19.0974 L25.115625,18.7302 C25.4505017,18.8274005 25.7550924,18.876 26.0294062,18.876 C26.3179702,18.876 26.5334993,18.8202006 26.676,18.7086 C26.8078132,18.6041995 26.8737188,18.454801 26.8737188,18.2604 C26.8737188,18.1271993 26.8372035,18.0156005 26.7641719,17.9256 C26.6911403,17.8355995 26.6002974,17.7618003 26.4916406,17.7042 C26.3829838,17.6465997 26.2342509,17.5818004 26.0454375,17.5098 C25.8209989,17.4269996 25.6393132,17.3469004 25.500375,17.2695 C25.3614368,17.1920996 25.2429849,17.0850007 25.1450156,16.9482 C25.0470464,16.8113993 24.9980625,16.6368011 24.9980625,16.4244 C24.9980625,16.1039984 25.1067177,15.8592008 25.3240313,15.69 C25.5413448,15.5207992 25.8370294,15.4362 26.2110937,15.4362 C26.3678445,15.4362 26.524593,15.4487999 26.6813437,15.474 C26.8380945,15.4992001 26.9805931,15.5333998 27.1088437,15.5766 L27.039375,15.9438 C26.7650611,15.8717996 26.5014388,15.8358 26.2485,15.8358 C25.7141223,15.8358 25.4469375,16.0211981 25.4469375,16.392 C25.4469375,16.5108006 25.4816715,16.6115996 25.5511406,16.6944 C25.6206097,16.7772004 25.7078901,16.8455997 25.8129844,16.8996 C25.9180787,16.9536003 26.0614678,17.0165996 26.2431562,17.0886 C26.4747199,17.1786004 26.6626399,17.2631996 26.8069219,17.3424 C26.9512038,17.4216004 27.0741089,17.5322993 27.1756406,17.6745 C27.2771724,17.8167007 27.3279375,17.9957989 27.3279375,18.2118 C27.3279375,18.5286016 27.231751,18.7787991 27.039375,18.9624 C26.8220614,19.171201 26.4996584,19.2756 26.0721562,19.2756 Z M28.706625,15.8844 L27.5416875,15.8844 L27.5416875,15.5064 L30.3685313,15.5064 L30.3257813,15.8844 L29.1822188,15.8844 L29.1822188,19.2 L28.706625,19.2 L28.706625,15.8844 Z M30.90825,15.5064 L33.003,15.5064 L32.96025,15.8844 L31.3838438,15.8844 L31.3838438,17.1372 L32.661,17.1372 L32.661,17.526 L31.3838438,17.526 L31.3838438,18.822 L33.0350625,18.822 L33.0350625,19.2 L30.90825,19.2 L30.90825,15.5064 Z M33.7457813,15.5064 L34.1625938,15.5064 L35.4344063,17.9364 L36.72225,15.5064 L37.128375,15.5064 L37.128375,19.2 L36.6795,19.2 L36.6795,16.4514 L35.6160938,18.417 L35.2206563,18.417 L34.1679375,16.4298 L34.1679375,19.2 L33.7457813,19.2 L33.7457813,15.5064 Z" id="DESIGN-SYSTEM" fill="#00AAEE"></path>
                    <g id="LOGO" fill="#1D1D1B">
                        <path d="M35.5699546,4.40606792 C35.5699546,4.60374783 35.4518542,4.74064354 35.2463209,4.74064354 L32.634606,4.74064354 C32.4289711,4.74064354 32.3109723,4.60374783 32.3109723,4.40606792 L32.3109723,2.76930345 C32.3109723,2.57162354 32.4289711,2.43483282 32.634606,2.43483282 L35.2463209,2.43483282 C35.4518542,2.43483282 35.5699546,2.57162354 35.5699546,2.76930345 L35.5699546,4.40606792 Z M32.2346081,0.00892341609 C31.9772853,0.00892341609 31.7442325,0.116739279 31.5756627,0.291113327 C31.3686061,0.505170332 30.3710994,1.53818697 30.1538881,1.76263713 C29.9852167,1.93701118 29.8809269,2.17783843 29.8809269,2.4439662 L29.8809269,9.72830823 C29.8809269,9.87801165 29.9983164,9.99937011 30.143124,9.99937011 L32.0487751,9.99937011 C32.1935827,9.99937011 32.3109723,9.87801165 32.3109723,9.72830823 L32.3109723,6.86273686 C32.3109723,6.66505695 32.4289711,6.52816125 32.634606,6.52816125 L35.2463209,6.52816125 C35.4518542,6.52816125 35.5699546,6.66505695 35.5699546,6.86273686 L35.5699546,9.72830823 C35.5699546,9.87801165 35.6872426,9.99937011 35.8320502,9.99937011 L37.7379044,9.99937011 C37.8826104,9.99937011 38,9.87801165 38,9.72830823 L38,2.4439662 C38,2.17783843 37.8956086,1.93701118 37.7270388,1.76263713 C37.509929,1.53818697 36.5123207,0.505170332 36.3052642,0.291113327 C36.1365928,0.116739279 35.90354,0.00892341609 35.6462172,0.00892341609 L32.2346081,0.00892341609 Z M19.7112935,7.56600703 C19.7112935,7.83202981 19.8155834,8.07285707 19.9842547,8.24723112 C20.1913112,8.46128812 21.1904427,9.49262506 21.4076541,9.71707522 C21.5763254,9.89144927 21.8092767,9.99937011 22.0665995,9.99937011 L26.8304227,9.99937011 C26.9751287,9.99937011 27.0926199,9.87801165 27.0926199,9.72830823 L27.0926199,7.84441762 C27.0926199,7.69481917 26.9751287,7.57346071 26.8304227,7.57346071 L22.4600983,7.57346071 C22.2688833,7.57346071 22.1365661,7.45136738 22.1365661,7.2388851 L22.1365661,2.76993334 C22.1365661,2.55755603 22.2688833,2.43546271 22.4600983,2.43546271 L26.8304227,2.43546271 C26.9751287,2.43546271 27.0926199,2.31410425 27.0926199,2.16440082 L27.0926199,0.270956905 C27.0926199,0.121358459 26.9751287,0 26.8304227,0 L22.0665995,0 C21.8092767,0 21.5763254,0.107815863 21.4076541,0.282189911 C21.1904427,0.506640071 20.1913112,1.53797701 19.9842547,1.75203401 C19.8155834,1.92640806 19.7112935,2.16723532 19.7112935,2.4332581 L19.7112935,7.56600703 Z M14.7193933,9.99937011 C14.9768176,9.99937011 15.2097689,9.89144927 15.3784403,9.71707522 C15.5854968,9.50301821 16.5830035,8.47000157 16.8002149,8.24555141 C16.9688862,8.07117737 17.0731761,7.83035011 17.0731761,7.56422235 L17.0731761,0.279880321 C17.0731761,0.130281875 16.9557865,0.00892341609 16.8110805,0.00892341609 L14.9052263,0.00892341609 C14.7605202,0.00892341609 14.6430291,0.130281875 14.6430291,0.279880321 L14.6430291,7.2388851 C14.6430291,7.43666999 14.5250303,7.57346071 14.319497,7.57346071 L11.7077821,7.57346071 C11.5022488,7.57346071 11.3841483,7.43666999 11.3841483,7.2388851 L11.3841483,0.279880321 C11.3841483,0.130281875 11.2667588,0.00892341609 11.1220528,0.00892341609 L9.21619852,0.00892341609 C9.07149252,0.00892341609 8.95410294,0.130281875 8.95410294,0.279880321 L8.95410294,7.56422235 C8.95410294,7.83035011 9.05839281,8.07117737 9.22706417,8.24555141 C9.44427549,8.47000157 10.4417822,9.50301821 10.6488387,9.71707522 C10.8175101,9.89144927 11.0504614,9.99937011 11.3078857,9.99937011 L14.7193933,9.99937011 Z M2.35368125,9.99937011 C2.09635843,9.99937011 1.86340715,9.89144927 1.6947358,9.71707522 C1.48767928,9.50301821 0.490172552,8.47000157 0.272961222,8.24555141 C0.104289872,8.07117737 0,7.83035011 0,7.56422235 L0,0.279880321 C0,0.130281875 0.117389573,0.00892341609 0.262197126,0.00892341609 L2.16794982,0.00892341609 C2.31275738,0.00892341609 2.4300454,0.130281875 2.4300454,0.279880321 L2.4300454,7.2388851 C2.4300454,7.43666999 2.54814581,7.57346071 2.75367911,7.57346071 L6.21311734,7.57346071 C6.35792489,7.57346071 6.47531446,7.69481917 6.47531446,7.84441762 L6.47531446,9.72893811 C6.47531446,9.87853656 6.35792489,10 6.21311734,10 C5.60403199,10 2.78729153,9.99937011 2.35368125,9.99937011 Z" id="Fill-1"></path>
                    </g>
                </g>
            </g>
        </g>
    </g>
</svg>
