
<svg width="286px" height="42px" viewBox="0 0 286 42" version="1.1" xmlns="http://www.w3.org/2000/svg" xmlns:xlink="http://www.w3.org/1999/xlink">
    <!-- Generator: Sketch 49.1 (51147) - http://www.bohemiancoding.com/sketch -->
    <desc>Created with Sketch.</desc>
    <defs></defs>
    <g id="Page-1" stroke="none" stroke-width="1" fill="none" fill-rule="evenodd">
        <g id="Brand" transform="translate(-184.000000, -3120.000000)" fill="#50535A" fill-rule="nonzero">
            <g id="Telefónica-dark-grey" transform="translate(184.000000, 3120.000000)">
                <path d="M0,40.9701194 C0,41.5213008 38.1992521,41.9908257 75.7931278,41.9908257 C113.387003,41.9908257 151.586256,41.5008866 151.586256,40.9701194 C151.586256,40.4393521 113.387003,39.949413 75.7931278,39.949413 C38.1992521,39.949413 0,40.4087309 0,40.9701194 Z M44.4548084,18.667686 C42.1947365,21.9951887 39.0265999,25.0062723 36.302406,25.0062723 C35.1521908,25.0062723 34.6376208,24.3734344 34.6578,23.0261021 C34.6806286,22.1748925 34.7991024,21.3290731 35.0109363,20.5049574 C37.7959943,19.2150708 40.3391673,17.4469328 42.5276935,15.278941 C43.7497477,14.1651672 44.5341953,12.6432336 44.7373174,10.9919744 C44.7373174,9.61402088 43.9099697,8.95056177 42.2149157,8.87911232 C39.742962,8.87911232 36.7867071,10.5530707 34.8696818,12.6251046 C32.34728,15.4116328 30.3999859,19.3515593 30.3495379,22.8321679 C30.3495379,25.3022772 31.4896634,27.2722404 34.6376208,27.1599627 C38.0176392,27.0578921 41.3371199,24.4244697 43.0523531,22.525956 C42.8484437,23.2471954 42.7332254,23.9911197 42.7093064,24.7408887 C42.5868452,26.8069636 43.9410567,28.6665239 45.9278911,29.1605471 L46.3516546,28.9666129 C46.1640109,28.3458712 46.098874,27.6938562 46.159952,27.047685 C46.5436886,24.3812247 47.3083989,21.785325 48.4301136,19.3413522 C50.780992,13.3293919 54.2114584,6.44983126 55.7248995,2.40783419 L52.1229098,3.09170743 C51.615209,3.23288556 51.205824,3.61284034 51.0231426,4.11241376 C49.2877302,7.83799187 47.5018698,11.8187466 45.2720666,17.0039347 C44.979468,17.5040808 44.7373174,18.0858834 44.4548084,18.667686 Z M41.0949693,10.6653484 C41.6498977,10.6653484 41.8516898,11.0532168 41.8516898,11.5431558 C41.8516898,13.8907804 38.9862414,16.88145 35.3539829,19.0657615 C36.2620476,15.4524611 38.8449869,10.6347272 41.0949693,10.6653484 Z M113.003598,6.49065951 C114.148133,6.36743221 115.078202,5.50114439 115.293939,4.35738328 C115.45002,3.88298016 115.370538,3.36155644 115.080437,2.95675918 C114.790336,2.55196193 114.325176,2.31340944 113.830946,2.31597062 C112.679646,2.42843427 111.74119,3.29870005 111.530516,4.44924685 C111.383336,4.92492326 111.467885,5.44302671 111.758386,5.84560594 C112.048887,6.24818517 112.510909,6.4875251 113.003598,6.49065951 Z M102.591124,24.628611 C102.591124,26.2821553 103.600085,27.3028616 105.618006,27.2518263 C107.872074,27.0236227 109.965056,25.9667647 111.500247,24.2815709 C111.833204,26.0678069 113.104494,27.3436898 115.707613,27.2824475 C118.459234,26.9827345 120.989824,25.6185939 122.770338,23.4752129 L122.770338,24.0468084 C122.770338,25.8942869 123.708671,27.2620333 125.79722,27.2620333 C128.037113,27.2620333 130.609963,25.5676608 132.648063,22.6280266 L132.71869,22.6280266 C132.485077,23.4957784 132.33638,24.3846679 132.274748,25.2818631 C132.132174,27.1684399 133.452377,28.8468087 135.30163,29.1299259 L135.745573,28.9564058 C135.079659,27.3538969 135.997813,23.3629352 136.381218,22.0360169 C137.693725,17.9493029 139.267664,13.9533042 141.093064,10.0733387 C140.101619,9.47882029 138.966293,9.17489833 137.813942,9.19553129 C133.162633,9.02201121 128.470966,10.9613532 125.060679,17.0753842 C124.404617,18.2283682 123.834648,19.4293416 123.355535,20.6682704 C122.984142,21.1780101 122.579666,21.6622118 122.144782,22.1176734 C120.91385,23.3221069 119.1179,24.8633735 117.382488,24.8837876 C116.373527,24.8837876 115.808509,24.1795002 115.828688,22.9036173 C115.828688,18.014434 120.116771,10.5734848 123.012489,10.5632778 C123.809567,10.5632778 124.142525,10.9103179 124.142525,11.5839841 C124.044467,12.6066112 123.568897,13.5542444 122.810696,14.2378206 L123.153743,14.5440325 C125.101037,13.7989168 126.907077,12.4311704 126.917166,10.9715603 C126.917166,9.30780898 125.02032,9.00159708 123.335356,9.01180415 C120.503096,9.17872809 117.857742,10.4965568 116.000212,12.6659328 C113.559219,15.3126628 111.962975,18.641908 111.41953,22.2197441 C110.12806,23.7508036 108.675157,24.791924 107.716644,24.8021311 C107.473715,24.8431232 107.225579,24.769672 107.04281,24.6026687 C106.860041,24.4356654 106.76264,24.1933851 106.778311,23.9447378 C106.902843,22.9454853 107.16785,21.9693554 107.5653,21.0459318 C108.816411,17.8919492 110.592182,13.9622299 112.852254,9.29760192 C112.852254,9.29760192 109.462146,9.86919747 108.977845,10.0120964 C108.501329,10.18747 108.127447,10.5694485 107.958795,11.0532168 C106.505891,14.1153358 104.790658,17.7592574 103.71107,20.433508 C103.117678,21.7620287 102.739526,23.1785115 102.591124,24.628611 Z M134.302759,11.2369439 C135.14653,10.8047406 136.108309,10.6683086 137.037042,10.8490755 C136.754533,11.4614993 135.452974,14.1153358 134.433924,16.5037886 C132.829676,20.2599879 130.398081,24.0366013 128.188457,24.5775757 C127.421647,24.8021311 126.967614,24.465298 126.977704,23.6895612 C127.048331,20.3722656 130.650321,12.9721447 134.302759,11.2369439 Z M15.0637832,12.8394529 L15.3160234,12.6251046 C14.9950563,11.9548073 14.8392748,11.2158622 14.8619911,10.4714142 C14.993156,5.5209885 20.1590348,2.71404609 28.24081,2.71404609 L32.7105059,2.71404609 C29.7828971,4.3550296 27.4974613,6.95877707 26.2329782,10.0937529 C25.5166161,11.7370901 22.0861497,20.596821 20.693784,24.5673686 C18.9583716,29.303446 17.8485148,31.4571364 16.4662386,32.2430802 L16.7083892,32.6717769 C20.5727087,32.9167464 22.8933183,30.916162 24.3764905,27.210998 C25.7890355,23.7201824 27.6657024,18.1471258 28.5838566,15.6770165 C31.5602907,7.70530004 32.86185,4.36759034 35.2429972,2.71404609 L41.7306145,2.71404609 C45.2821562,2.61197545 46.775418,1.69333976 47.9155436,0.325593274 L47.6633035,0.00917431193 C46.2313094,0.49302506 44.7207515,0.694005288 43.2137868,0.601183984 L27.2419389,0.601183984 C18.2117406,0.601183984 12.6725464,3.6020606 11.7745714,8.07275432 C11.5123095,9.15370207 11.7229865,10.2965527 12.352756,11.2092096 C12.9825256,12.1218664 13.9703603,12.7158888 15.0637832,12.8394529 Z M50.448035,22.852582 C50.448035,25.271656 51.6890567,27.2926545 54.9177309,27.1803768 C58.3784661,27.0783062 61.5365131,25.0573077 64.2707966,22.1585017 C63.5847033,24.0161872 62.9995061,25.6186961 62.6362803,26.4862965 C61.6273196,29.0380624 60.8806886,31.1100962 59.3268892,32.3145297 L59.4984125,32.6207416 C64.0690044,32.8861252 65.774148,29.6402791 67.6508149,24.3428132 C69.5274818,19.0453474 71.1216397,14.4317548 72.3626614,11.2369439 C74.5061035,11.331754 76.6536329,11.2326921 78.7796514,10.9409391 C74.6429126,12.7986246 71.1216397,19.4842511 71.5353136,23.8834954 C71.7270162,25.8432515 72.8772314,27.1803768 75.3290059,27.1803768 C80.0812108,27.1803768 84.0666055,21.4950426 85.6002258,17.7388433 C86.4368464,15.8983756 86.9588195,13.9276812 87.1439357,11.9106101 C88.2739716,11.7064689 89.3636492,11.5125347 89.8983984,11.4308782 C90.9073591,11.2879793 90.7358357,12.4515845 90.4129683,13.3293919 C88.4656742,18.820792 85.105835,26.7823014 85.0856558,26.9047861 L88.7885416,26.9047861 C90.4028787,23.5262482 91.4017498,21.3521437 92.6730403,19.0555544 C94.2167502,16.3404756 97.7178438,11.9106101 99.0395823,11.9106101 C99.533973,11.9106101 99.6651379,12.2270291 99.533973,12.696554 C99.3019121,14.5338254 94.8523954,21.5766991 94.9230226,25.0471006 C94.8488057,27.0677125 96.2477383,28.8389057 98.2122345,29.2115824 L98.6460876,28.9666129 C98.4029453,28.3836003 98.3025674,27.7498108 98.353489,27.1191345 C98.353489,24.8021311 100.179708,20.7499269 100.89607,19.1780392 C102.036196,16.7079299 104.084386,13.0538012 103.922952,11.1042521 C103.852325,10.0835458 103.135963,9.27718779 101.491357,9.26698073 C98.4644747,9.26698073 95.4375926,12.2270291 92.9252805,16.2077838 L92.8647428,16.2077838 C93.8737035,13.8907804 94.6707825,11.7370901 94.6405137,10.6857625 C94.6102448,9.63443501 94.0855853,9.34863724 92.9454597,9.34863724 C91.9461444,9.46141876 90.9596659,9.6698972 89.9992944,9.9712681 C88.495943,10.3591365 86.9724123,10.767419 85.2067311,11.1450804 C84.1372328,11.2879793 83.7740069,11.4819135 83.8042757,11.8697819 C84.0262471,17.9940199 79.919777,25.1389642 77.1955832,25.1389642 C76.0150991,25.1389642 75.7527694,24.2713638 75.7527694,23.0975515 C75.7527694,18.8922414 79.1630565,11.8085395 82.512806,10.6857625 L83.2695266,10.4816213 L83.7033797,9.33843017 C82.6124507,9.47790594 81.5137687,9.54609441 80.4141678,9.54257144 L73.1294715,9.54257144 C75.0666761,4.87794351 77.7807804,1.83623864 81.7661751,1.66271857 C84.2482184,1.58106206 85.9130036,2.53031895 86.0542581,3.95930781 C86.1789561,5.16580443 85.7339902,6.36114975 84.8535949,7.18473982 L85.1361039,7.46033053 C87.315459,6.43962419 88.8188104,4.64318105 88.8389896,3.3775052 C88.8389896,1.50961262 86.6293657,0.315386211 83.0677344,0.386835654 C78.5375009,0.386835654 72.9781274,1.40754198 69.0532703,9.63443501 C67.8661015,9.76962841 66.7648828,10.3266476 65.9456713,11.2063228 L66.1071051,11.56357 C66.8317039,11.3563751 67.5848681,11.2701837 68.3369082,11.3083934 C67.802159,12.6455187 66.7225711,15.5545317 65.6328935,18.5452013 C62.3537713,22.9342385 59.0544698,25.0266865 56.6329641,25.0266865 C55.3112256,25.0266865 54.7764764,24.3223991 54.7764764,23.0465162 C54.7816596,22.1945967 54.896987,21.3470237 55.119523,20.5253716 C57.9048758,19.2306419 60.4505893,17.4631102 62.6463699,15.2993551 C63.8648192,14.1827605 64.6485218,12.6622724 64.8559938,11.0123886 C64.8559938,9.63443501 64.0387356,8.97097589 62.3134128,8.89952645 C59.8616383,8.89952645 56.9053835,10.5734848 54.9681789,12.6455187 C52.4659564,15.4116328 50.498483,19.3515593 50.448035,22.852582 Z M61.1732872,10.6653484 C61.7383052,10.6653484 61.9602766,11.0532168 61.9602766,11.5431558 C61.9602766,13.8907804 59.1150074,16.88145 55.4323009,19.0657615 C56.3706343,15.4524611 58.9434841,10.6347272 61.1833768,10.6653484 L61.1732872,10.6653484 Z M156.136668,9.1649101 L161.272278,9.1649101 C163.865307,9.1649101 166.317082,9.61402088 167.739716,11.1552874 C168.853615,12.5198385 169.396674,14.270533 169.253157,16.0342637 C169.362388,18.9967413 168.339865,21.8880194 166.397799,24.1080508 C164.480773,26.0678069 161.968461,26.721059 158.457278,26.721059 L153.089607,26.721059 L156.136668,9.1649101 Z M158.881041,23.8018389 C161.020038,23.8018389 162.452762,23.2608645 163.562619,21.6277344 C164.617567,19.9816682 165.168625,18.0571427 165.146687,16.0955061 C165.238528,15.0396194 164.944134,13.9863509 164.31934,13.1354577 C163.477199,12.3371116 162.325735,11.9625558 161.181472,12.1147514 L159.567135,12.1147514 L157.549213,23.8324601 L158.881041,23.8018389 Z M177.677979,9.1649101 L182.036689,9.1649101 L185.265364,26.721059 L181.229521,26.721059 L180.533338,22.3116076 L174.913427,22.3116076 L172.804699,26.721059 L168.839484,26.721059 L177.677979,9.1649101 Z M180.059127,19.3719734 L179.20151,13.2477354 L176.336062,19.3719734 L180.059127,19.3719734 Z M193.094899,12.0228878 L187.717138,12.0228878 L188.221619,9.12408184 L203.123968,9.12408184 L202.29662,12.0228878 L197.060114,12.0228878 L194.517533,26.6802307 L190.552318,26.6802307 L193.094899,12.0228878 Z M208.774148,9.12408184 L213.142948,9.12408184 L216.371622,26.6802307 L212.335779,26.6802307 L211.649686,22.2707794 L206.019685,22.2707794 L203.921047,26.6802307 L199.955832,26.6802307 L208.774148,9.12408184 Z M211.155295,19.3311451 L210.297679,13.2069072 L207.43223,19.3311451 L211.155295,19.3311451 Z M227.026247,25.4553831 C225.82343,24.3725919 225.192199,22.7818105 225.321104,21.1582095 C225.335072,20.2082982 225.436405,19.2617639 225.623792,18.3308529 L227.258308,9.04242534 L231.132717,9.04242534 L229.336767,19.3617663 C229.227128,19.9374923 229.163024,20.521143 229.145065,21.1071742 C229.122357,21.7651432 229.309876,22.4129956 229.679814,22.9546526 C230.281156,23.6323403 231.164891,23.9808577 232.060961,23.8937024 C233.089598,23.9659743 234.096283,23.5690962 234.805334,22.8117537 C235.495766,21.8811118 235.918292,20.7754085 236.026177,19.6169429 L237.872575,9.04242534 L241.424116,9.04242534 L239.406195,20.8111693 C239.205534,22.5571252 238.375739,24.1669892 237.075496,25.3328984 C235.612176,26.4799755 233.788063,27.0527948 231.939886,26.9456144 C230.189115,27.1074427 228.439733,26.6214877 227.016157,25.5778679 L227.026247,25.4553831 Z M245.43978,9.04242534 L248.295139,9.04242534 L254.570874,20.5253716 L256.588796,9.04242534 L260.06971,9.04242534 L257.042828,26.5985742 L253.935229,26.5985742 L247.820927,15.6770165 L245.924081,26.5985742 L242.443167,26.5985742 L245.43978,9.04242534 Z M264.287166,9.04242534 L268.252381,9.04242534 L265.225499,26.5985742 L261.320821,26.5985742 L264.287166,9.04242534 Z M275.970931,12.0739231 L270.59317,12.0739231 L271.09765,9.17511716 L286,9.17511716 L285.172652,12.0739231 L279.936146,12.0739231 L277.403655,26.731266 L273.42835,26.731266 L275.970931,12.0739231 Z"></path>
            </g>
        </g>
    </g>
</svg>
