
<svg width="336px" height="60px" viewBox="0 0 336 60" version="1.1" xmlns="http://www.w3.org/2000/svg" xmlns:xlink="http://www.w3.org/1999/xlink">
    <!-- Generator: Sketch 49.1 (51147) - http://www.bohemiancoding.com/sketch -->
    <desc>Created with Sketch.</desc>
    <defs></defs>
    <g id="Page-1" stroke="none" stroke-width="1" fill="none" fill-rule="evenodd">
        <g id="Brand" transform="translate(-208.000000, -724.000000)">
            <g id="logo-sin-copy" transform="translate(208.000000, 724.000000)">
                <g stroke-width="1" fill-rule="evenodd" fill="#1D1D1B" id="Shape">
                    <path d="M15.2635773,59.9671952 C13.6691952,59.9829403 12.1334135,59.3930374 10.9932956,58.3269546 L1.71529387,49.4532531 C0.600638643,48.3628172 -0.0161411592,46.8939591 0.000321279207,45.3690541 L0.000321279207,1.64024057 C0.000321279207,0.734360717 0.768140661,1.66407429e-16 1.71529387,0 L14.0630965,0 C15.0102497,5.54691431e-17 15.7780691,0.734360717 15.7780691,1.64024057 L15.7780691,43.4171679 C15.7366947,43.9590565 15.9438055,44.4913603 16.3455034,44.8755537 C16.7472013,45.2597471 17.3037577,45.4578328 17.8703357,45.4182613 L40.2850274,45.4182613 C41.2321806,45.4182613 42,46.1526221 42,47.0585019 L42,58.3597594 C42,59.2656393 41.2321806,60 40.2850274,60 L15.2635773,59.9671952 Z" fill-rule="nonzero"></path>
                    <path d="M92.2813016,59.9996926 C93.8257085,60.0154462 95.3133518,59.4252236 96.4177332,58.3585631 L105.338471,49.5292867 C106.418188,48.4382598 107.015635,46.9686057 106.999689,45.4428744 L106.999689,1.64112945 C106.999689,0.734758681 106.255936,5.54992028e-17 105.338471,0 L93.3777052,0 C92.4602401,-5.54992028e-17 91.7164877,0.734758681 91.7164877,1.64112945 L91.7164877,43.4406964 C91.7565652,43.9828787 91.5559463,44.515471 91.1668394,44.8998726 C90.7777325,45.2842743 90.2386211,45.4824673 89.6898023,45.4428744 L73.3766464,45.4428744 C72.8168626,45.5030406 72.2590086,45.3139951 71.8544766,44.9270419 C71.4499447,44.5400887 71.2406942,43.9953637 71.2835123,43.4406964 L71.2835123,1.64112945 C71.2835123,0.734758681 70.5397599,5.54992028e-17 69.6222948,0 L57.6615287,0 C56.7440636,-5.54992028e-17 56.0003112,0.734758681 56.0003112,1.64112945 L56.0003112,45.3936405 C55.9843648,46.9193718 56.5818119,48.3890259 57.6615287,49.4800528 L66.5822668,58.3093292 C67.6866482,59.3759897 69.1742915,59.9662123 70.7186984,59.9504587 L92.2813016,59.9996926 Z" fill-rule="nonzero"></path>
                    <path d="M123.000316,45.4474189 C122.984128,46.9743954 123.590628,48.4452489 124.686706,49.5371662 L133.759483,58.3572235 C134.880599,59.4247545 136.390784,60.0154588 137.958594,59.9996923 L168.31361,59.9996923 C169.244978,59.9996923 170,59.264334 170,58.3572235 L170,47.1063124 C170,46.1992019 169.244978,45.4638436 168.31361,45.4638436 L140.53877,45.4638436 C139.970903,45.5286416 139.402888,45.3439021 138.988939,44.9597814 C138.57499,44.5756607 138.358063,44.03202 138.397055,43.4764564 L138.397055,16.6385165 C138.35637,16.0958917 138.560029,15.5628648 138.955032,15.1781494 C139.350035,14.7934341 139.897315,14.5950793 140.45445,14.6347045 L168.31361,14.6347045 C169.244978,14.6347045 170,13.8993462 170,12.9922358 L170,1.64277648 C170,0.735666018 169.244978,0.000307696502 168.31361,0.000307696502 L137.958594,0.000307696502 C136.390784,-0.0154587602 134.880599,0.575245474 133.759483,1.64277648 L124.754161,10.5285326 C123.658084,11.6204498 123.051583,13.0913034 123.067772,14.6182799 L123.000316,45.4474189 Z" fill-rule="nonzero"></path>
                    <path d="M234.189851,10.4879254 L225.271964,1.64413513 C224.167935,0.575721228 222.680767,-0.0154715453 221.136854,0.000307950981 L199.713995,0.000307950981 C198.170082,-0.0154715453 196.682914,0.575721228 195.578885,1.64413513 L186.660998,10.4879254 C185.581626,11.5807457 184.98437,13.0528157 185.000311,14.581055 L185.000311,58.3561728 C185.000311,59.2640335 185.743826,60 186.660998,60 L198.617942,60 C199.535114,60 200.278629,59.2640335 200.278629,58.3561728 L200.278629,41.128864 C200.238564,40.5857904 200.439119,40.0523227 200.828102,39.6672892 C201.217084,39.2822556 201.756023,39.0837368 202.304667,39.1233948 L218.695644,39.1233948 C219.244288,39.0837368 219.783227,39.2822556 220.17221,39.6672892 C220.561192,40.0523227 220.761747,40.5857904 220.721682,41.128864 L220.721682,58.3561728 C220.721682,59.2640335 221.465197,60 222.382369,60 L234.339313,60 C235.256485,60 236,59.2640335 236,58.3561728 L236,14.581055 C235.976466,13.0314091 235.324107,11.5562878 234.189851,10.4879254 Z M220.655255,26.3837342 C220.69532,26.9268077 220.494765,27.4602755 220.105782,27.845309 C219.7168,28.2303425 219.17786,28.4288613 218.629217,28.3892033 L202.238239,28.3892033 C201.689596,28.4288613 201.150657,28.2303425 200.761674,27.845309 C200.372692,27.4602755 200.172137,26.9268077 200.212201,26.3837342 L200.212201,16.5207711 C200.172137,15.9776976 200.372692,15.4442298 200.761674,15.0591963 C201.150657,14.6741628 201.689596,14.475644 202.238239,14.5153019 L218.629217,14.5153019 C219.17786,14.475644 219.7168,14.6741628 220.105782,15.0591963 C220.494765,15.4442298 220.69532,15.9776976 220.655255,16.5207711 L220.655255,26.3837342 Z" fill-rule="nonzero"></path>
                </g>
                <polygon id="label-arrow-copy-48" fill="#F2F2F2" fill-rule="evenodd" points="256 33 260 29 264 33 260 37"></polygon>
                <rect id="label-box-copy-49" fill="#F2F2F2" fill-rule="evenodd" x="260" y="16" width="76" height="33" rx="2"></rect>
                <text id="color-#000000-opacit" font-family="HelveticaNeue-Medium, Helvetica Neue" font-size="9" font-weight="400" fill="#999999">
                    <tspan x="264" y="30">color #000000 </tspan>
                    <tspan x="264" y="41">opacity: 100%</tspan>
                </text>
            </g>
        </g>
    </g>
</svg>
