
<svg width="130px" height="83px" viewBox="0 0 130 83" version="1.1" xmlns="http://www.w3.org/2000/svg" xmlns:xlink="http://www.w3.org/1999/xlink">
    <g id="Page-1" stroke="none" stroke-width="1" fill="none" fill-rule="evenodd">
        <g id="Brand" transform="translate(-164.000000, -1958.000000)">
            <g id="130-px-2" transform="translate(164.000000, 1958.000000)">
                <g id="130-px">
                    <g>
                        <g>
                            <g transform="translate(0.000000, 61.000000)">
                                <rect id="ruler-end" fill="#CCCCCC" x="129" y="8" width="1" height="5"></rect>
                                <rect id="ruler-end" fill="#CCCCCC" x="0" y="8" width="1" height="5"></rect>
                                <rect id="ruler-line" fill="#CCCCCC" x="1" y="10" width="129" height="1"></rect>
                                <rect id="label-box" fill="#CCCCCC" x="42" y="0" width="42" height="22" rx="2"></rect>
                                <text id="130px" font-family="HelveticaNeue-Medium, Helvetica Neue" font-size="12" font-weight="400" fill="#FFFFFF">
                                    <tspan x="46.104" y="15">130px</tspan>
                                </text>
                            </g>
                            <g id="LUCA-AI-Copy" fill="#000000" fill-rule="nonzero">
                                <path d="M3.58873239,41.8193043 L4.69647887,41.8193043 L8.18450704,52.304087 L7.22323944,52.304087 L6.30774648,49.4374783 L2.11021127,49.4374783 L1.24049296,52.304087 L0.325,52.304087 L3.58873239,41.8193043 Z M6.03767606,48.654 L4.11971831,42.7686957 L2.3528169,48.654 L6.03767606,48.654 Z" id="Shape"></path>
                                <polygon id="Shape" points="9.88732394 41.8193043 10.8028169 41.8193043 10.8028169 52.304087 9.88732394 52.304087"></polygon>
                                <path d="M16.5566901,41.8193043 L19.4496479,41.8193043 C19.9909832,41.8082728 20.5313483,41.870273 21.056338,42.0036522 C21.4786348,42.1158013 21.8639624,42.3383994 22.1732394,42.6488696 C22.4313899,42.9189647 22.6240759,43.2454536 22.7362676,43.6028696 C22.8738423,44.0361702 22.9403249,44.4891567 22.9330986,44.944 C23.0022724,45.8413979 22.7252006,46.7311058 22.159507,47.428087 C21.5093694,48.0358291 20.6361681,48.3416962 19.7517606,48.2714783 L17.4630282,48.2714783 L17.4630282,52.304087 L16.5475352,52.304087 L16.5566901,41.8193043 Z M19.3855634,47.4695652 C19.8183275,47.4831603 20.250946,47.4382082 20.671831,47.335913 C20.9571456,47.2611296 21.2177254,47.1116652 21.4271127,46.9026957 C21.6346621,46.6875123 21.7843241,46.4226272 21.8619718,46.1330435 C21.9512062,45.7543627 21.9881738,45.3651056 21.971831,44.9762609 C22.0153025,44.3501619 21.8314951,43.7294688 21.4545775,43.2295652 C21.2466408,43.0012471 20.9756427,42.8407488 20.6764085,42.7686957 C20.2381346,42.6686111 19.7889668,42.6252464 19.3397887,42.6396522 L17.4676056,42.6396522 L17.4676056,47.4695652 L19.3855634,47.4695652 Z" id="Shape"></path>
                                <path d="M23.8485915,48.548 C23.8485915,45.9026087 24.9166667,44.579913 27.0528169,44.579913 C29.1889671,44.579913 30.2570423,45.9026087 30.2570423,48.548 C30.2570423,51.1933913 29.1889671,52.516087 27.0528169,52.516087 C24.9166667,52.516087 23.8485915,51.1933913 23.8485915,48.548 Z M28.8380282,50.9537391 C29.2446998,50.2211663 29.43079,49.3852531 29.3735915,48.548 C29.43079,47.7107469 29.2446998,46.8748337 28.8380282,46.1422609 C28.4294622,45.5845268 27.7612011,45.2821945 27.0757042,45.3449565 C26.3887973,45.2814539 25.7188309,45.5837725 25.3088028,46.1422609 C24.9021312,46.8748337 24.716041,47.7107469 24.7732394,48.548 C24.716041,49.3852531 24.9021312,50.2211663 25.3088028,50.9537391 C25.7188309,51.5122275 26.3887973,51.8145461 27.0757042,51.7510435 C27.7612011,51.8138055 28.4294622,51.5114732 28.8380282,50.9537391 Z" id="Shape"></path>
                                <polygon id="Shape" points="31.1267606 44.791913 32.0422535 44.791913 33.8366197 51.3224348 35.5760563 44.791913 36.4915493 44.791913 38.4873239 51.4146087 40.1306338 44.791913 40.9683099 44.791913 38.9725352 52.304087 37.9929577 52.304087 36.0612676 45.944087 34.3309859 52.304087 33.3010563 52.304087"></polygon>
                                <path d="M42.6757042,51.5113913 C42.1080986,50.8354493 41.8242958,49.8522609 41.8242958,48.5618261 C41.7684387,47.5363927 42.0377402,46.5196217 42.5933099,45.6583478 C43.1273544,44.935433 43.989127,44.5345776 44.8820423,44.5937391 C46.8411972,44.5937391 47.8207746,45.9317971 47.8207746,48.607913 L47.8207746,48.7461739 C47.8246625,48.7922508 47.8116335,48.8381635 47.7841549,48.8752174 C47.7425939,48.9077957 47.6900109,48.9226856 47.6376761,48.9166957 L42.7535211,48.9166957 C42.7175863,49.6802319 42.9456785,50.4326968 43.3989437,51.045913 C43.8109155,51.5252174 44.4883803,51.7648696 45.431338,51.7648696 C46.0680882,51.7596318 46.7022352,51.6823347 47.321831,51.5344348 L47.3950704,52.258 C47.082182,52.3506473 46.7621823,52.4169337 46.4383803,52.4561739 C46.0849065,52.5053485 45.7286507,52.5315188 45.371831,52.5345217 C44.1450704,52.5375942 43.2463615,52.1965507 42.6757042,51.5113913 Z M46.9419014,48.1931304 C46.9817644,47.4554637 46.8033432,46.722474 46.4292254,46.0869565 C46.0764023,45.572069 45.4787137,45.2843439 44.8591549,45.3311304 C44.2411362,45.2989652 43.6487997,45.5832849 43.284507,46.0869565 C42.8965742,46.7178343 42.7067283,47.4518807 42.7397887,48.1931304 L46.9419014,48.1931304 Z" id="Shape"></path>
                                <path d="M49.725,44.791913 L50.4253521,44.791913 L50.503169,45.4371304 C50.8284486,45.1653042 51.1967009,44.9503229 51.5926056,44.8011304 C51.9485556,44.6599944 52.3269829,44.5850418 52.709507,44.579913 C52.8514085,44.579913 52.975,44.579913 53.0757042,44.579913 L53.0757042,45.4048696 C52.9109155,45.4048696 52.7415493,45.4048696 52.5584507,45.4048696 C51.8597106,45.4057242 51.1784256,45.6247076 50.6084507,46.0316522 L50.6084507,52.304087 L49.725,52.304087 L49.725,44.791913 Z" id="Shape"></path>
                                <path d="M54.6869718,51.5113913 C54.1193662,50.8354493 53.8355634,49.8522609 53.8355634,48.5618261 C53.7797063,47.5363927 54.0490078,46.5196217 54.6045775,45.6583478 C55.138622,44.935433 56.0003946,44.5345776 56.8933099,44.5937391 C58.8524648,44.5937391 59.8320423,45.9317971 59.8320423,48.607913 L59.8320423,48.7461739 C59.8359301,48.7922508 59.8229011,48.8381635 59.7954225,48.8752174 C59.7538615,48.9077957 59.7012785,48.9226856 59.6489437,48.9166957 L54.7647887,48.9166957 C54.7265432,49.6805211 54.9548688,50.4337559 55.4102113,51.045913 C55.8221831,51.5252174 56.4996479,51.7648696 57.4426056,51.7648696 C58.0793559,51.7596318 58.7135028,51.6823347 59.3330986,51.5344348 L59.406338,52.258 C59.0934496,52.3506473 58.7734499,52.4169337 58.4496479,52.4561739 C58.0961569,52.5051842 57.7399116,52.5313537 57.3830986,52.5345217 C56.156338,52.5391304 55.2545775,52.1934783 54.6869718,51.5113913 Z M58.953169,48.1931304 C58.993032,47.4554637 58.8146108,46.722474 58.440493,46.0869565 C58.0893738,45.5750366 57.4959753,45.2877014 56.8795775,45.3311304 C56.2583857,45.2957782 55.6618712,45.5804483 55.2957746,46.0869565 C54.9078418,46.7178343 54.7179959,47.4518807 54.7510563,48.1931304 L58.953169,48.1931304 Z" id="Shape"></path>
                                <path d="M61.3700704,48.5756522 C61.3090893,47.5358536 61.5766912,46.5033165 62.134507,45.626087 C62.6668889,44.9011137 63.5298451,44.4997078 64.4232394,44.5614783 C65.1455675,44.5679108 65.8561292,44.7463684 66.496831,45.0822609 L66.496831,41.3446087 L67.3802817,41.3446087 L67.3802817,52.304087 L66.6799296,52.304087 L66.6341549,51.8432174 C66.3064352,52.0514714 65.9523004,52.2142446 65.581338,52.3271304 C65.2066562,52.4472029 64.816409,52.510876 64.4232394,52.516087 C62.3877934,52.5314493 61.3700704,51.217971 61.3700704,48.5756522 Z M65.4897887,51.5989565 C65.8375394,51.5124725 66.1751314,51.3888742 66.496831,51.2302609 L66.496831,45.8334783 C65.9012635,45.546963 65.2524441,45.3899326 64.5926056,45.3726087 C63.9058515,45.3100288 63.2363147,45.6121535 62.8257042,46.169913 C62.4228447,46.9038186 62.2384993,47.7390331 62.2947183,48.5756522 C62.2341612,49.4094597 62.413757,50.2431573 62.8119718,50.9767826 C63.1878638,51.5136716 63.819106,51.8086225 64.4690141,51.7510435 C64.8103513,51.7478912 65.1500449,51.7030119 65.4806338,51.6173913 L65.4897887,51.5989565 Z" id="Shape"></path>
                                <path d="M72.8778169,41.8193043 L75.331338,41.8193043 C76.1027422,41.7976108 76.873309,41.8860548 77.6200704,42.082 C78.176717,42.2325534 78.6817426,42.5338106 79.0802817,42.9530435 C79.8309859,43.7826087 80.2109155,45.1329565 80.2109155,47.0133043 C80.2304024,47.9242826 80.106813,48.8326404 79.8447183,49.7047826 C79.6663268,50.3381918 79.3308021,50.9154889 78.8697183,51.3823478 C78.2197183,51.9968406 77.1699531,52.304087 75.7204225,52.304087 L72.9007042,52.304087 L72.8778169,41.8193043 Z M75.6242958,51.4975652 C76.828169,51.4975652 77.6978873,51.2394783 78.2242958,50.7186957 C78.6136252,50.3178701 78.8900901,49.8200192 79.0253521,49.2761739 C79.2073466,48.539373 79.2919972,47.7816176 79.2771127,47.0225217 C79.2916684,46.3012803 79.2147562,45.5811167 79.0482394,44.8794783 C78.9252799,44.3632397 78.6731502,43.8872711 78.3158451,43.4968696 C77.9865682,43.1764848 77.5792175,42.9491647 77.1348592,42.8378261 C76.544568,42.6944364 75.9384532,42.6278355 75.331338,42.6396522 L73.8116197,42.6396522 L73.8116197,51.4975652 L75.6242958,51.4975652 Z" id="Shape"></path>
                                <path d="M82.7147887,51.5113913 C82.1441315,50.8354493 81.8588028,49.8522609 81.8588028,48.5618261 C81.8029457,47.5363927 82.0722473,46.5196217 82.6278169,45.6583478 C83.1618614,44.935433 84.023634,44.5345776 84.9165493,44.5937391 C86.8757042,44.5937391 87.8552817,45.9317971 87.8552817,48.607913 L87.8552817,48.7461739 C87.8591696,48.7922508 87.8461406,48.8381635 87.818662,48.8752174 C87.7771009,48.9077957 87.7245179,48.9226856 87.6721831,48.9166957 L82.7880282,48.9166957 C82.7539861,49.6799923 82.9818885,50.4318315 83.4334507,51.045913 C83.8454225,51.5252174 84.5244131,51.7648696 85.4704225,51.7648696 C86.1056432,51.7593258 86.7382399,51.6820305 87.356338,51.5344348 L87.4295775,52.258 C87.116689,52.3506473 86.7966894,52.4169337 86.4728873,52.4561739 C86.1194136,52.5053485 85.7631577,52.5315188 85.406338,52.5345217 C84.1795775,52.5375942 83.2823944,52.1965507 82.7147887,51.5113913 Z M86.9764085,48.1931304 C87.0190768,47.455203 86.8404574,46.7213992 86.4637324,46.0869565 C86.1126132,45.5750366 85.5192148,45.2877014 84.9028169,45.3311304 C84.2772785,45.2862991 83.6736981,45.5726857 83.3098592,46.0869565 C82.9184523,46.7165091 82.7268465,47.4511863 82.7605634,48.1931304 L86.9764085,48.1931304 Z" id="Shape"></path>
                                <path d="M90.2950704,51.5574783 C89.6847418,50.9214783 89.3795775,49.9428986 89.3795775,48.6217391 C89.3795775,47.3005797 89.6847418,46.2928116 90.2950704,45.5984348 C90.9660055,44.8861427 91.9177664,44.5126431 92.890493,44.579913 C93.478952,44.5691315 94.0651357,44.6563353 94.6253521,44.838 L94.5658451,45.5753913 C94.0607005,45.4311759 93.5390727,45.3537147 93.0140845,45.3449565 C92.0284038,45.3449565 91.3326291,45.6030435 90.9267606,46.1192174 C90.520892,46.6353913 90.3179577,47.4603478 90.3179577,48.594087 C90.3179577,49.7032464 90.5361502,50.5082319 90.9725352,51.0090435 C91.4089202,51.5098551 92.1443662,51.7571884 93.1788732,51.7510435 C93.4236844,51.749952 93.6682266,51.7345638 93.9112676,51.7049565 C94.140289,51.6815716 94.3679449,51.6461903 94.5933099,51.5989565 L94.6711268,52.3317391 C94.1173694,52.4605157 93.5503443,52.5224012 92.9820423,52.516087 C91.7873239,52.5391304 90.8901408,52.198087 90.2950704,51.5574783 Z" id="Shape"></path>
                                <path d="M96.2915493,42.6765217 L96.2915493,42.6304348 C96.2915493,42.234087 96.4746479,42.035913 96.8408451,42.035913 L96.9003521,42.035913 C97.2665493,42.035913 97.4496479,42.234087 97.4496479,42.6304348 L97.4496479,42.6765217 C97.4496479,43.0774783 97.2665493,43.2756522 96.9003521,43.2756522 L96.8408451,43.2756522 C96.4746479,43.2756522 96.2915493,43.0774783 96.2915493,42.6765217 Z M96.4288732,44.791913 L97.3123239,44.791913 L97.3123239,52.304087 L96.4288732,52.304087 L96.4288732,44.791913 Z" id="Shape"></path>
                                <path d="M100.246479,52.4423478 C99.9367385,52.3977253 99.6307282,52.3299437 99.3309859,52.2395652 L99.4042254,51.5344348 C100.025521,51.7003898 100.665662,51.7840519 101.308451,51.7833043 C101.841506,51.8172081 102.372814,51.6938853 102.837324,51.4284348 C103.183197,51.2057298 103.384075,50.8135448 103.363732,50.4006957 C103.375776,50.1274442 103.285985,49.8595212 103.111972,49.6494783 C102.943365,49.4506595 102.732048,49.2930605 102.494014,49.1886087 C102.161893,49.050617 101.822676,48.9306193 101.477817,48.8291304 C101.064836,48.6996238 100.659792,48.545734 100.264789,48.3682609 C99.9624698,48.2261776 99.6986662,48.0127463 99.4957746,47.746087 C99.2707791,47.430005 99.1579204,47.0469138 99.1753521,46.6584348 C99.138572,46.0485693 99.404301,45.459977 99.8848592,45.0868696 C100.474572,44.703146 101.170592,44.5190731 101.871479,44.5614783 C102.190023,44.5631966 102.508099,44.5862913 102.823592,44.6306087 C103.124961,44.6646089 103.422357,44.7278892 103.71162,44.8195652 L103.665845,45.5108696 C103.081501,45.3759167 102.484664,45.3033132 101.885211,45.2942609 C101.396989,45.2611618 100.90988,45.3733525 100.484507,45.6168696 C100.171323,45.8467633 99.9982379,46.223177 100.026761,46.6123478 C100.015474,46.8679567 100.104225,47.1178242 100.273944,47.3082609 C100.442547,47.4921503 100.646574,47.6395501 100.873592,47.7414783 C101.199576,47.8792382 101.532687,47.9992377 101.871479,48.1009565 C102.289586,48.2240792 102.698091,48.3781213 103.093662,48.5618261 C103.404581,48.7129287 103.675849,48.935529 103.885563,49.2116522 C104.117465,49.5334819 104.233695,49.9251825 104.215141,50.3223478 C104.249277,50.9459689 103.975139,51.5462864 103.482746,51.9261739 C102.857262,52.3631837 102.105385,52.5787766 101.34507,52.5391304 C100.977077,52.5327622 100.609979,52.500422 100.246479,52.4423478 Z" id="Shape"></path>
                                <path d="M105.821831,42.6765217 L105.821831,42.6304348 C105.821831,42.234087 106.000352,42.035913 106.366549,42.035913 L106.430634,42.035913 C106.792254,42.035913 106.975352,42.234087 106.975352,42.6304348 L106.975352,42.6765217 C106.975352,43.0774783 106.792254,43.2756522 106.430634,43.2756522 L106.366549,43.2756522 C106.000352,43.2756522 105.821831,43.0774783 105.821831,42.6765217 Z M105.959155,44.791913 L106.838028,44.791913 L106.838028,52.304087 L105.959155,52.304087 L105.959155,44.791913 Z" id="Shape"></path>
                                <path d="M108.755986,48.548 C108.755986,45.9026087 109.824061,44.579913 111.960211,44.579913 C114.096362,44.579913 115.164437,45.9026087 115.164437,48.548 C115.164437,51.1933913 114.096362,52.516087 111.960211,52.516087 C109.824061,52.516087 108.755986,51.1933913 108.755986,48.548 Z M113.736268,50.9537391 C114.141101,50.2205871 114.325578,49.3847782 114.267254,48.548 C114.325578,47.7112218 114.141101,46.8754129 113.736268,46.1422609 C113.287226,45.6348645 112.644357,45.3446685 111.969366,45.3446685 C111.294376,45.3446685 110.651506,45.6348645 110.202465,46.1422609 C109.799605,46.8761665 109.61526,47.7113809 109.671479,48.548 C109.61526,49.3846191 109.799605,50.2198335 110.202465,50.9537391 C110.651506,51.4611355 111.294376,51.7513315 111.969366,51.7513315 C112.644357,51.7513315 113.287226,51.4611355 113.736268,50.9537391 L113.736268,50.9537391 Z" id="Shape"></path>
                                <path d="M117.068662,44.791913 L117.769014,44.791913 L117.828521,45.3587826 C118.612595,44.8595631 119.519185,44.5898795 120.446831,44.579913 C120.814368,44.5746459 121.180447,44.6275219 121.53169,44.7366087 C121.825508,44.8279935 122.09477,44.9856093 122.319014,45.1974783 C122.529151,45.4163464 122.685859,45.6814134 122.776761,45.9717391 C122.886387,46.3360632 122.937384,46.7157064 122.927817,47.0962609 L122.927817,52.2948696 L122.044366,52.2948696 L122.044366,47.335913 C122.053513,47.0254475 122.019618,46.7152143 121.943662,46.4141739 C121.886774,46.1970211 121.774775,45.9984955 121.618662,45.838087 C121.254589,45.5129519 120.776934,45.3471196 120.291197,45.3772174 C119.896012,45.3814359 119.502695,45.4324829 119.119366,45.5293043 C118.707358,45.6348404 118.30935,45.7895601 117.933803,45.9901739 L117.933803,52.3086957 L117.050352,52.3086957 L117.068662,44.791913 Z" id="Shape"></path>
                                <path d="M125.816197,52.4423478 C125.498874,52.3980948 125.185228,52.3303164 124.877817,52.2395652 L124.955634,51.5344348 C125.575297,51.7007706 126.213975,51.7844427 126.855282,51.7833043 C127.389737,51.8165096 127.922315,51.693261 128.388732,51.4284348 C128.732133,51.2039415 128.930928,50.8124182 128.910563,50.4006957 C128.921716,50.1283474 128.83383,49.8612532 128.66338,49.6494783 C128.492896,49.4526963 128.282069,49.2954626 128.045423,49.1886087 C127.711712,49.0507075 127.370976,48.930713 127.024648,48.8291304 C126.612838,48.7005654 126.209261,48.5466524 125.816197,48.3682609 C125.512391,48.2285943 125.248051,48.0147288 125.047183,47.746087 C124.820209,47.4309831 124.707141,47.0471798 124.726761,46.6584348 C124.692899,46.0573991 124.952648,45.4775793 125.422535,45.1053043 C126.012508,44.7221758 126.708332,44.5381549 127.409155,44.579913 C127.727705,44.5814661 128.045792,44.6045616 128.361268,44.6490435 C128.664128,44.6830913 128.963038,44.7463677 129.253873,44.838 L129.208099,45.5293043 C128.623708,45.3946202 128.026899,45.3220201 127.427465,45.3126957 C126.939243,45.2795966 126.452133,45.3917872 126.026761,45.6353043 C125.712159,45.8640242 125.538685,46.2412831 125.569014,46.6307826 C125.555983,46.8858283 125.643127,47.1357983 125.81162,47.3266957 C125.980224,47.5105851 126.18425,47.6579849 126.411268,47.759913 C126.737252,47.897673 127.070363,48.0176725 127.409155,48.1193913 C127.828447,48.2434271 128.238409,48.3974418 128.635915,48.5802609 C128.94514,48.7340308 129.21585,48.9561728 129.427817,49.230087 C129.65614,49.5534696 129.770536,49.9444201 129.752817,50.3407826 C129.78642,50.9632691 129.514394,51.5627082 129.025,51.9446087 C128.397158,52.3566474 127.653427,52.5523395 126.905634,52.5022609 C126.541545,52.5079022 126.17751,52.4878823 125.816197,52.4423478 Z" id="Shape"></path>
                                <path d="M8.14788732,33.7033913 C7.290063,33.7053055 6.46667862,33.3637566 5.85915493,32.754 L0.942957746,27.7904348 C0.334743997,27.1805048 -0.00495539409,26.3503663 -3.55726733e-16,25.486087 L-3.55726733e-16,0.944782609 C-4.6846343e-16,0.435720144 0.409880159,0.0230434783 0.915492958,0.0230434783 L7.50246479,0.0230434783 C8.00807759,0.0230434783 8.41795775,0.435720144 8.41795775,0.944782609 L8.41795775,24.3984348 C8.39429802,24.7045824 8.50483223,25.0058312 8.72049422,25.2229646 C8.9361562,25.440098 9.2353636,25.5513864 9.53943662,25.5275652 L21.5140845,25.5275652 C22.0196973,25.5275652 22.4295775,25.9402419 22.4295775,26.4493043 L22.4295775,32.7908696 C22.4295775,33.299932 22.0196973,33.7126087 21.5140845,33.7126087 L8.14788732,33.7033913 Z" id="Shape"></path>
                                <path d="M50.9426056,33.7033913 C51.8010281,33.7083805 52.6255412,33.3663634 53.231338,32.754 L58.1338028,27.7904348 C58.7420166,27.1805048 59.081716,26.3503663 59.0767606,25.486087 L59.0767606,0.944782609 C59.0767606,0.435720144 58.6668804,0.0230434783 58.1612676,0.0230434783 L51.5834507,0.0230434783 C51.0778379,0.0230434783 50.6679577,0.435720144 50.6679577,0.944782609 L50.6679577,24.3984348 C50.6916175,24.7045824 50.5810833,25.0058312 50.3654213,25.2229646 C50.1497593,25.440098 49.8505519,25.5513864 49.5464789,25.5275652 L40.5197183,25.5275652 C40.2156453,25.5513864 39.9164379,25.440098 39.7007759,25.2229646 C39.4851139,25.0058312 39.3745797,24.7045824 39.3982394,24.3984348 L39.3982394,0.944782609 C39.3982394,0.435720144 38.9883593,0.0230434783 38.4827465,0.0230434783 L31.8957746,0.0230434783 C31.3901618,0.0230434783 30.9802817,0.435720144 30.9802817,0.944782609 L30.9802817,25.4953043 C30.9753263,26.3595836 31.3150257,27.1897222 31.9232394,27.7996522 L36.853169,32.754 C37.4606927,33.3637566 38.2840771,33.7053055 39.1419014,33.7033913 L50.9426056,33.7033913 Z" id="Shape"></path>
                                <path d="M67.6320423,25.499913 C67.630141,26.3635901 67.9693754,27.1925922 68.575,27.8042609 L73.5049296,32.7586087 C74.1107264,33.3709721 74.9352395,33.7129892 75.793662,33.708 L92.2725352,33.708 C92.778148,33.708 93.1880282,33.2953233 93.1880282,32.7862609 L93.1880282,26.440087 C93.1880282,25.9310245 92.778148,25.5183478 92.2725352,25.5183478 L77.1440141,25.5183478 C76.8407045,25.5407503 76.5427769,25.428834 76.3281686,25.2118758 C76.1135602,24.9949177 76.0036217,24.6945022 76.0271127,24.3892174 L76.0271127,9.33721739 C76.0036217,9.03193256 76.1135602,8.73151712 76.3281686,8.51455896 C76.5427769,8.29760081 76.8407045,8.18568447 77.1440141,8.20808696 L92.2725352,8.20808696 C92.778148,8.20808696 93.1880282,7.79541029 93.1880282,7.28634783 L93.1880282,0.92173913 C93.1880282,0.412676665 92.778148,-4.20311301e-16 92.2725352,-4.51482113e-16 L75.793662,-4.51482113e-16 C74.9352395,-0.00498920347 74.1107264,0.337027869 73.5049296,0.949391304 L68.575,5.90373913 C67.9693754,6.5154078 67.630141,7.34440992 67.6320423,8.20808696 L67.6320423,25.499913 Z" id="Shape"></path>
                                <path d="M128.809859,5.9406087 C128.059155,5.18478261 124.607746,1.7006087 123.889085,0.981652174 C123.283288,0.369288739 122.458775,0.0272716661 121.600352,0.0322608696 L109.804225,0.0322608696 C108.945803,0.0272716661 108.12129,0.369288739 107.515493,0.981652174 C106.801408,1.7006087 103.35,5.18478261 102.594718,5.9406087 C101.989094,6.55227737 101.649859,7.38127949 101.651761,8.24495652 L101.651761,32.7908696 C101.651761,33.299932 102.061641,33.7126087 102.567254,33.7126087 L109.16338,33.7126087 C109.668993,33.7126087 110.078873,33.299932 110.078873,32.7908696 L110.078873,23.1126087 C110.055214,22.8064611 110.165748,22.5052122 110.38141,22.2880789 C110.597072,22.0709455 110.896279,21.9596571 111.200352,21.9834783 L120.240845,21.9834783 C120.544155,21.9610758 120.842082,22.0729921 121.056691,22.2899503 C121.271299,22.5069084 121.381237,22.8073239 121.357746,23.1126087 L121.357746,32.7908696 C121.357746,33.299932 121.767627,33.7126087 122.273239,33.7126087 L128.864789,33.7126087 C129.370402,33.7126087 129.780282,33.299932 129.780282,32.7908696 L129.780282,8.23573913 C129.77554,7.3706386 129.425897,6.54370336 128.809859,5.9406087 Z M121.344014,14.8492174 C121.367505,15.1545022 121.257567,15.4549177 121.042958,15.6718758 C120.82835,15.888834 120.530422,16.0007503 120.227113,15.9783478 L111.18662,15.9783478 C110.882547,16.002169 110.583339,15.8908806 110.367677,15.6737472 C110.152015,15.4566138 110.041481,15.155365 110.065141,14.8492174 L110.065141,9.31878261 C110.04289,9.0134036 110.154048,8.71344338 110.369536,8.49737077 C110.585024,8.28129816 110.883404,8.17060958 111.18662,8.19426087 L120.227113,8.19426087 C120.529973,8.17042511 120.828026,8.28122304 121.042833,8.49749643 C121.257641,8.71376983 121.367688,9.01385603 121.344014,9.31878261 L121.344014,14.8492174 Z" id="Shape"></path>
                                <path d="M128.809859,5.9406087 C128.059155,5.18478261 124.607746,1.7006087 123.889085,0.981652174 C123.283288,0.369288739 122.458775,0.0272716661 121.600352,0.0322608696 L109.804225,0.0322608696 C108.945803,0.0272716661 108.12129,0.369288739 107.515493,0.981652174 C106.801408,1.7006087 103.35,5.18478261 102.594718,5.9406087 C101.989094,6.55227737 101.649859,7.38127949 101.651761,8.24495652 L101.651761,32.7908696 C101.651761,33.299932 102.061641,33.7126087 102.567254,33.7126087 L109.16338,33.7126087 C109.668993,33.7126087 110.078873,33.299932 110.078873,32.7908696 L110.078873,23.1126087 C110.055214,22.8064611 110.165748,22.5052122 110.38141,22.2880789 C110.597072,22.0709455 110.896279,21.9596571 111.200352,21.9834783 L120.240845,21.9834783 C120.544155,21.9610758 120.842082,22.0729921 121.056691,22.2899503 C121.271299,22.5069084 121.381237,22.8073239 121.357746,23.1126087 L121.357746,32.7908696 C121.357746,33.299932 121.767627,33.7126087 122.273239,33.7126087 L128.864789,33.7126087 C129.370402,33.7126087 129.780282,33.299932 129.780282,32.7908696 L129.780282,8.23573913 C129.77554,7.3706386 129.425897,6.54370336 128.809859,5.9406087 Z M121.344014,14.8492174 C121.367505,15.1545022 121.257567,15.4549177 121.042958,15.6718758 C120.82835,15.888834 120.530422,16.0007503 120.227113,15.9783478 L111.18662,15.9783478 C110.882547,16.002169 110.583339,15.8908806 110.367677,15.6737472 C110.152015,15.4566138 110.041481,15.155365 110.065141,14.8492174 L110.065141,9.31878261 C110.04289,9.0134036 110.154048,8.71344338 110.369536,8.49737077 C110.585024,8.28129816 110.883404,8.17060958 111.18662,8.19426087 L120.227113,8.19426087 C120.529973,8.17042511 120.828026,8.28122304 121.042833,8.49749643 C121.257641,8.71376983 121.367688,9.01385603 121.344014,9.31878261 L121.344014,14.8492174 Z" id="Shape"></path>
                            </g>
                        </g>
                    </g>
                </g>
            </g>
        </g>
    </g>
</svg>  
