
<svg width="402px" height="69px" viewBox="0 0 402 69" version="1.1" xmlns="http://www.w3.org/2000/svg" xmlns:xlink="http://www.w3.org/1999/xlink">
    <!-- Generator: Sketch 49.1 (51147) - http://www.bohemiancoding.com/sketch -->
    <desc>Created with Sketch.</desc>
    <defs></defs>
    <g id="Page-1" stroke="none" stroke-width="1" fill="none" fill-rule="evenodd">
        <g id="Brand" transform="translate(-211.000000, -3164.000000)">
            <g id="endoso" transform="translate(209.000000, 3157.000000)">
                <g>
                    <path d="M182.909091,69.9573892 C181.355816,69.9538035 179.867001,69.3180928 178.767677,68.1890429 L169.718687,58.9212039 C168.621343,57.7901165 168.003485,56.2582836 168,54.6601285 L168,8.70443017 C168,7.76309938 168.74167,7 169.656566,7 L181.728788,7 C182.643684,7 183.385354,7.76309938 183.385354,8.70443017 L183.385354,52.5722016 C183.333803,53.1518964 183.535346,53.7251759 183.935405,54.1367943 C184.335465,54.5484127 184.892645,54.7557795 185.456061,54.7027393 L207.343434,54.7027393 C208.25833,54.7027393 209,55.4658386 209,56.4071694 L209,68.2955698 C209,69.2369006 208.25833,70 207.343434,70 L182.909091,69.9573892 Z" id="Shape" fill="#1D1D1B" fill-rule="nonzero"></path>
                    <path d="M259.981496,70 C261.550529,69.9964118 263.054448,69.3602709 264.164924,68.2304569 L273.263878,58.9563452 C274.372353,57.8244922 274.99648,56.2916225 275,54.6923858 L275,8.70558376 C275,7.76361586 274.250806,7 273.326629,7 L261.131939,7 C260.207762,7 259.458568,7.76361586 259.458568,8.70558376 L259.458568,52.6030457 C259.510642,53.1831329 259.307054,53.7568004 258.902936,54.1686974 C258.498818,54.5805944 257.935986,54.7881015 257.366854,54.7350254 L240.633146,54.7350254 C240.064014,54.7881015 239.501182,54.5805944 239.097064,54.1686974 C238.692946,53.7568004 238.489358,53.1831329 238.541432,52.6030457 L238.541432,8.70558376 C238.541432,7.76361586 237.792238,7 236.868061,7 L224.673371,7 C223.749194,7 223,7.76361586 223,8.70558376 L223,54.6497462 C223.00352,56.2489829 223.627647,57.7818526 224.736122,58.9137056 L233.835076,68.1878173 C234.945552,69.3176313 236.449471,69.9537722 238.018504,69.9573604 L259.981496,70 Z" id="Shape" fill="#1D1D1B" fill-rule="nonzero"></path>
                    <path d="M291,54.7027393 C291.003499,56.3008943 291.62375,57.8327272 292.725343,58.9638147 L301.767802,68.2316537 C302.871383,69.3607036 304.365964,69.9964143 305.925254,70 L336.212295,70 C337.130734,70 337.875276,69.2369006 337.875276,68.2955698 L337.875276,56.4497802 C337.875276,55.5084494 337.130734,54.74535 336.212295,54.74535 L308.544449,54.74535 C307.978852,54.7983903 307.419514,54.5910235 307.017905,54.1794051 C306.616297,53.7677866 306.413973,53.1945072 306.465723,52.6148123 L306.465723,24.4704092 C306.413973,23.8907143 306.616297,23.3174349 307.017905,22.9058165 C307.419514,22.494198 307.978852,22.2868312 308.544449,22.3398715 L336.337019,22.3398715 C337.255458,22.3398715 338,21.5767721 338,20.6354413 L338,8.70443017 C338,7.76309938 337.255458,7 336.337019,7 L306.049978,7 C304.490688,7.00358575 302.996107,7.63929641 301.892525,8.7683463 L292.850066,18.0361853 C291.748473,19.1672728 291.128222,20.6991057 291.124724,22.2972607 L291,54.7027393 Z" id="Shape" fill="#1D1D1B" fill-rule="nonzero"></path>
                    <path d="M402.159292,18.0649746 L393.060338,8.76954315 C391.949862,7.6397291 390.445943,7.00358817 388.876911,7 L367.018504,7 C365.449471,7.00358817 363.945552,7.6397291 362.835076,8.76954315 L353.736122,18.0436548 C352.627647,19.1755078 352.00352,20.7083775 352,22.3076142 L352,68.2944162 C352,69.2363841 352.749194,70 353.673371,70 L365.868061,70 C366.792238,70 367.541432,69.2363841 367.541432,68.2944162 L367.541432,50.2152284 C367.489358,49.6351412 367.692946,49.0614737 368.097064,48.6495767 C368.501182,48.2376797 369.064014,48.0301726 369.633146,48.0832487 L386.366854,48.0832487 C386.935986,48.0301726 387.498818,48.2376797 387.902936,48.6495767 C388.307054,49.0614737 388.510642,49.6351412 388.458568,50.2152284 L388.458568,68.2944162 C388.458568,69.2363841 389.207762,70 390.131939,70 L402.326629,70 C403.250806,70 404,69.2363841 404,68.2944162 L404,22.3502538 C403.974452,20.7281675 403.311329,19.1843779 402.159292,18.0649746 Z M388.353982,34.6517766 C388.406056,35.2318639 388.202468,35.8055313 387.79835,36.2174283 C387.394233,36.6293253 386.8314,36.8368325 386.262269,36.7837563 L369.52856,36.7837563 C368.959429,36.8368325 368.396596,36.6293253 367.992478,36.2174283 C367.588361,35.8055313 367.384773,35.2318639 367.436846,34.6517766 L367.436846,24.3969543 C367.384773,23.8168671 367.588361,23.2431996 367.992478,22.8313026 C368.396596,22.4194056 368.959429,22.2118985 369.52856,22.2649746 L386.262269,22.2649746 C386.8314,22.2118985 387.394233,22.4194056 387.79835,22.8313026 C388.202468,23.2431996 388.406056,23.8168671 388.353982,24.3969543 L388.353982,34.6517766 Z" id="Shape" fill="#1D1D1B" fill-rule="nonzero"></path>
                    <text id="Data-Driven" font-family="Telefonica-Light, Telefonica" font-size="31" font-weight="300" letter-spacing="-0.200000003" fill="#4A4A4A">
                        <tspan x="0" y="31">Data-Drive</tspan>
                        <tspan x="132.695" y="31">n</tspan>
                    </text>
                    <text id="Decisions-by" font-family="Telefonica-Light, Telefonica" font-size="31" font-weight="300" letter-spacing="-0.699999988" fill="#4A4A4A">
                        <tspan x="0" y="68">Decisions b</tspan>
                        <tspan x="134.249" y="68">y</tspan>
                    </text>
                </g>
            </g>
        </g>
    </g>
</svg>
