
<svg width="19px" height="21px" viewBox="0 0 19 21" version="1.1" xmlns="http://www.w3.org/2000/svg" xmlns:xlink="http://www.w3.org/1999/xlink">
    <!-- Generator: Sketch 49.1 (51147) - http://www.bohemiancoding.com/sketch -->
    <desc>Created with Sketch.</desc>
    <defs></defs>
    <g id="Page-1" stroke="none" stroke-width="1" fill="none" fill-rule="evenodd">
        <g id="Info-navigation-ok" transform="translate(-502.000000, -507.000000)">
            <g id="PDF" transform="translate(502.000000, 507.000000)">
                <g transform="translate(0.000000, 0.272078)">
                    <path d="M17.0999786,8.01123596 L1.89999762,8.01123596 C0.85065791,8.01123596 0,9.01733764 0,10.258427 L0,14.752809 C0,15.9938983 0.85065791,17 1.89999762,17 L17.0999786,17 C18.1493183,17 18.9999762,15.9938983 18.9999762,14.752809 L18.9999762,10.258427 C19.002504,9.66049046 18.8034428,9.08601786 18.4468497,8.66215454 C18.0902567,8.23829122 17.6055396,7.99999253 17.0999786,8 L17.0999786,8.01123596 Z" id="Path" fill="#999999"></path>
                    <path d="M16.3846154,8.16470588 L16.3846154,2.55686275 C16.3866632,2.19148308 16.2457412,1.84035157 15.993066,1.58124988 C15.7403909,1.32214819 15.3968205,1.17646462 15.0384615,1.17647059 L5.96923077,1.17647059 L5.96923077,2.96470588 C5.96501177,4.15412189 5.02038878,5.1172669 3.85384615,5.12156863 L2.15384615,5.12156863 L2.15384615,17.4509804 C2.15384615,18.2090183 2.75653976,18.8235294 3.5,18.8235294 L15.0384615,18.8235294 C15.7819218,18.8235294 16.3846154,18.2090183 16.3846154,17.4509804 L16.3846154,15.0666667 L17.5384615,15.0666667 L17.5384615,17.4509804 C17.5342381,18.8569775 16.4174202,19.9956937 15.0384615,20 L3.5,20 C2.12104134,19.9956937 1.00422349,18.8569775 1,17.4509804 L1,4.64313725 C1.00096602,4.48735065 1.0617112,4.33814056 1.16923077,4.22745098 L5.14615385,0.17254902 C5.25424412,0.0622019707 5.40088819,0.000137295718 5.55384615,0 L15.0384615,0 C16.4174202,0.00430629999 17.5342381,1.14302254 17.5384615,2.54901961 L17.5384615,8.15686275 L16.3846154,8.16470588 Z" id="Shape-Copy-2" fill="#999999" fill-rule="nonzero"></path>
                    <text font-family="Telefonica-Bold, Telefonica" font-size="8" font-weight="bold" fill="#FFFFFF">
                        <tspan x="2" y="15">PDF</tspan>
                    </text>
                </g>
            </g>
        </g>
    </g>
</svg>
