
<svg width="21px" height="21px" viewBox="0 0 21 21" version="1.1" xmlns="http://www.w3.org/2000/svg" xmlns:xlink="http://www.w3.org/1999/xlink">
    <!-- Generator: Sketch 49.1 (51147) - http://www.bohemiancoding.com/sketch -->
    <desc>Created with Sketch.</desc>
    <defs></defs>
    <g id="Page-1" stroke="none" stroke-width="1" fill="none" fill-rule="evenodd">
        <g id="Info-navigation-ok" transform="translate(-457.000000, -507.000000)">
            <g id="xlsx" transform="translate(457.000000, 507.000000)">
                <g transform="translate(0.000000, 0.272078)">
                    <path d="M18.8999763,8.01123596 L2.09999737,8.01123596 C0.940200848,8.01123596 0,9.01733764 0,10.258427 L0,14.752809 C0,15.9938983 0.940200848,17 2.09999737,17 L18.8999763,17 C20.0597729,17 20.9999737,15.9938983 20.9999737,14.752809 L20.9999737,10.258427 C21.0027676,9.66049046 20.7827525,9.08601786 20.3886234,8.66215454 C19.9944943,8.23829122 19.4587543,7.99999253 18.8999763,8 L18.8999763,8.01123596 Z" id="Path" fill="#999999"></path>
                    <path d="M17.3846154,8.16470588 L17.3846154,2.55686275 C17.3866632,2.19148308 17.2457412,1.84035157 16.993066,1.58124988 C16.7403909,1.32214819 16.3968205,1.17646462 16.0384615,1.17647059 L6.96923077,1.17647059 L6.96923077,2.96470588 C6.96501177,4.15412189 6.02038878,5.1172669 4.85384615,5.12156863 L3.15384615,5.12156863 L3.15384615,17.4509804 C3.15384615,18.2090183 3.75653976,18.8235294 4.5,18.8235294 L16.0384615,18.8235294 C16.7819218,18.8235294 17.3846154,18.2090183 17.3846154,17.4509804 L17.3846154,16.0666667 L18.5384615,16.0666667 L18.5384615,17.4509804 C18.5342381,18.8569775 17.4174202,19.9956937 16.0384615,20 L4.5,20 C3.12104134,19.9956937 2.00422349,18.8569775 2,17.4509804 L2,4.64313725 C2.00096602,4.48735065 2.0617112,4.33814056 2.16923077,4.22745098 L6.14615385,0.17254902 C6.25424412,0.0622019707 6.40088819,0.000137295718 6.55384615,0 L16.0384615,0 C17.4174202,0.00430629999 18.5342381,1.14302254 18.5384615,2.54901961 L18.5384615,8.15686275 L17.3846154,8.16470588 Z" id="Shape-Copy-2" fill="#999999" fill-rule="nonzero"></path>
                    <text id="XLSX" font-family="Telefonica-Bold, Telefonica" font-size="8" font-weight="bold" fill="#FFFFFF">
                        <tspan x="1" y="15">XLSX</tspan>
                    </text>
                </g>
            </g>
        </g>
    </g>
</svg>
