
<svg width="286px" height="42px" viewBox="0 0 286 42" version="1.1" xmlns="http://www.w3.org/2000/svg" xmlns:xlink="http://www.w3.org/1999/xlink">
    <!-- Generator: Sketch 49.1 (51147) - http://www.bohemiancoding.com/sketch -->
    <desc>Created with Sketch.</desc>
    <defs></defs>
    <g id="Page-1" stroke="none" stroke-width="1" fill="none" fill-rule="evenodd">
        <g id="Brand" transform="translate(-178.000000, -3368.000000)" fill="#2C2C2C" fill-rule="nonzero">
            <g id="Telefónica-black" transform="translate(178.000000, 3368.000000)">
                <path d="M0,40.960945 C0,41.5121265 38.1992521,41.9816514 75.7931278,41.9816514 C113.387003,41.9816514 151.586256,41.4917123 151.586256,40.960945 C151.586256,40.4301778 113.387003,39.9402387 75.7931278,39.9402387 C38.1992521,39.9402387 0,40.3995566 0,40.960945 Z M44.4548084,18.6585117 C42.1947365,21.9860144 39.0265999,24.997098 36.302406,24.997098 C35.1521908,24.997098 34.6376208,24.3642601 34.6578,23.0169278 C34.6806286,22.1657182 34.7991024,21.3198987 35.0109363,20.4957831 C37.7959943,19.2058965 40.3391673,17.4377585 42.5276935,15.2697667 C43.7497477,14.1559929 44.5341953,12.6340593 44.7373174,10.9828001 C44.7373174,9.60484657 43.9099697,8.94138746 42.2149157,8.86993801 C39.742962,8.86993801 36.7867071,10.5438964 34.8696818,12.6159302 C32.34728,15.4024585 30.3999859,19.342385 30.3495379,22.8229936 C30.3495379,25.2931029 31.4896634,27.2630661 34.6376208,27.1507884 C38.0176392,27.0487178 41.3371199,24.4152954 43.0523531,22.5167817 C42.8484437,23.2380211 42.7332254,23.9819454 42.7093064,24.7317144 C42.5868452,26.7977893 43.9410567,28.6573495 45.9278911,29.1513728 L46.3516546,28.9574386 C46.1640109,28.3366968 46.098874,27.6846818 46.159952,27.0385107 C46.5436886,24.3720504 47.3083989,21.7761507 48.4301136,19.3321779 C50.780992,13.3202176 54.2114584,6.44065695 55.7248995,2.39865988 L52.1229098,3.08253312 C51.615209,3.22371124 51.205824,3.60366603 51.0231426,4.10323945 C49.2877302,7.82881756 47.5018698,11.8095722 45.2720666,16.9947604 C44.979468,17.4949065 44.7373174,18.0767091 44.4548084,18.6585117 Z M41.0949693,10.6561741 C41.6498977,10.6561741 41.8516898,11.0440425 41.8516898,11.5339815 C41.8516898,13.8816061 38.9862414,16.8722756 35.3539829,19.0565872 C36.2620476,15.4432868 38.8449869,10.6255529 41.0949693,10.6561741 Z M113.003598,6.4814852 C114.148133,6.3582579 115.078202,5.49197008 115.293939,4.34820897 C115.45002,3.87380585 115.370538,3.35238212 115.080437,2.94758487 C114.790336,2.54278762 114.325176,2.30423513 113.830946,2.30679631 C112.679646,2.41925995 111.74119,3.28952574 111.530516,4.44007254 C111.383336,4.91574895 111.467885,5.4338524 111.758386,5.83643163 C112.048887,6.23901086 112.510909,6.47835078 113.003598,6.4814852 Z M102.591124,24.6194367 C102.591124,26.2729809 103.600085,27.2936873 105.618006,27.242652 C107.872074,27.0144484 109.965056,25.9575904 111.500247,24.2723965 C111.833204,26.0586326 113.104494,27.3345155 115.707613,27.2732732 C118.459234,26.9735602 120.989824,25.6094196 122.770338,23.4660385 L122.770338,24.0376341 C122.770338,25.8851125 123.708671,27.252859 125.79722,27.252859 C128.037113,27.252859 130.609963,25.5584865 132.648063,22.6188523 L132.71869,22.6188523 C132.485077,23.4866041 132.33638,24.3754936 132.274748,25.2726887 C132.132174,27.1592656 133.452377,28.8376344 135.30163,29.1207516 L135.745573,28.9472315 C135.079659,27.3447226 135.997813,23.3537608 136.381218,22.0268426 C137.693725,17.9401286 139.267664,13.9441299 141.093064,10.0641644 C140.101619,9.46964598 138.966293,9.16572402 137.813942,9.18635698 C133.162633,9.0128369 128.470966,10.9521789 125.060679,17.0662098 C124.404617,18.2191939 123.834648,19.4201673 123.355535,20.6590961 C122.984142,21.1688358 122.579666,21.6530375 122.144782,22.1084991 C120.91385,23.3129326 119.1179,24.8541991 117.382488,24.8746133 C116.373527,24.8746133 115.808509,24.1703259 115.828688,22.894443 C115.828688,18.0052597 120.116771,10.5643105 123.012489,10.5541035 C123.809567,10.5541035 124.142525,10.9011436 124.142525,11.5748098 C124.044467,12.5974369 123.568897,13.5450701 122.810696,14.2286462 L123.153743,14.5348581 C125.101037,13.7897425 126.907077,12.421996 126.917166,10.962386 C126.917166,9.29863467 125.02032,8.99242277 123.335356,9.00262984 C120.503096,9.16955378 117.857742,10.4873825 116.000212,12.6567585 C113.559219,15.3034885 111.962975,18.6327337 111.41953,22.2105698 C110.12806,23.7416292 108.675157,24.7827497 107.716644,24.7929568 C107.473715,24.8339489 107.225579,24.7604977 107.04281,24.5934944 C106.860041,24.4264911 106.76264,24.1842108 106.778311,23.9355635 C106.902843,22.9363109 107.16785,21.9601811 107.5653,21.0367575 C108.816411,17.8827749 110.592182,13.9530555 112.852254,9.28842761 C112.852254,9.28842761 109.462146,9.86002315 108.977845,10.002922 C108.501329,10.1782957 108.127447,10.5602742 107.958795,11.0440425 C106.505891,14.1061615 104.790658,17.7500831 103.71107,20.4243337 C103.117678,21.7528544 102.739526,23.1693372 102.591124,24.6194367 Z M134.302759,11.2277696 C135.14653,10.7955663 136.108309,10.6591343 137.037042,10.8399012 C136.754533,11.452325 135.452974,14.1061615 134.433924,16.4946143 C132.829676,20.2508136 130.398081,24.027427 128.188457,24.5684014 C127.421647,24.7929568 126.967614,24.4561237 126.977704,23.6803869 C127.048331,20.3630913 130.650321,12.9629704 134.302759,11.2277696 Z M15.0637832,12.8302786 L15.3160234,12.6159302 C14.9950563,11.945633 14.8392748,11.2066878 14.8619911,10.4622399 C14.993156,5.51181419 20.1590348,2.70487178 28.24081,2.70487178 L32.7105059,2.70487178 C29.7828971,4.34585529 27.4974613,6.94960276 26.2329782,10.0845785 C25.5166161,11.7279157 22.0861497,20.5876467 20.693784,24.5581943 C18.9583716,29.2942717 17.8485148,31.447962 16.4662386,32.2339059 L16.7083892,32.6626026 C20.5727087,32.9075721 22.8933183,30.9069877 24.3764905,27.2018237 C25.7890355,23.7110081 27.6657024,18.1379515 28.5838566,15.6678422 C31.5602907,7.69612573 32.86185,4.35841603 35.2429972,2.70487178 L41.7306145,2.70487178 C45.2821562,2.60280114 46.775418,1.68416545 47.9155436,0.316418962 L47.6633035,0 C46.2313094,0.483850748 44.7207515,0.684830976 43.2137868,0.592009672 L27.2419389,0.592009672 C18.2117406,0.592009672 12.6725464,3.59288628 11.7745714,8.06358001 C11.5123095,9.14452776 11.7229865,10.2873784 12.352756,11.2000353 C12.9825256,12.1126921 13.9703603,12.7067145 15.0637832,12.8302786 Z M50.448035,22.8434077 C50.448035,25.2624817 51.6890567,27.2834802 54.9177309,27.1712025 C58.3784661,27.0691319 61.5365131,25.0481334 64.2707966,22.1493274 C63.5847033,24.0070129 62.9995061,25.6095218 62.6362803,26.4771222 C61.6273196,29.028888 60.8806886,31.1009219 59.3268892,32.3053554 L59.4984125,32.6115673 C64.0690044,32.8769509 65.774148,29.6311048 67.6508149,24.3336389 C69.5274818,19.0361731 71.1216397,14.4225805 72.3626614,11.2277696 C74.5061035,11.3225797 76.6536329,11.2235178 78.7796514,10.9317648 C74.6429126,12.7894503 71.1216397,19.4750768 71.5353136,23.8743211 C71.7270162,25.8340772 72.8772314,27.1712025 75.3290059,27.1712025 C80.0812108,27.1712025 84.0666055,21.4858683 85.6002258,17.729669 C86.4368464,15.8892013 86.9588195,13.9185069 87.1439357,11.9014358 C88.2739716,11.6972945 89.3636492,11.5033603 89.8983984,11.4217038 C90.9073591,11.278805 90.7358357,12.4424102 90.4129683,13.3202176 C88.4656742,18.8116177 85.105835,26.7731271 85.0856558,26.8956118 L88.7885416,26.8956118 C90.4028787,23.5170739 91.4017498,21.3429694 92.6730403,19.0463801 C94.2167502,16.3313013 97.7178438,11.9014358 99.0395823,11.9014358 C99.533973,11.9014358 99.6651379,12.2178548 99.533973,12.6873797 C99.3019121,14.5246511 94.8523954,21.5675248 94.9230226,25.0379263 C94.8488057,27.0585382 96.2477383,28.8297314 98.2122345,29.2024081 L98.6460876,28.9574386 C98.4029453,28.374426 98.3025674,27.7406364 98.353489,27.1099601 C98.353489,24.7929568 100.179708,20.7407526 100.89607,19.1688649 C102.036196,16.6987556 104.084386,13.0446269 103.922952,11.0950778 C103.852325,10.0743715 103.135963,9.26801348 101.491357,9.25780642 C98.4644747,9.25780642 95.4375926,12.2178548 92.9252805,16.1986095 L92.8647428,16.1986095 C93.8737035,13.8816061 94.6707825,11.7279157 94.6405137,10.6765882 C94.6102448,9.6252607 94.0855853,9.33946292 92.9454597,9.33946292 C91.9461444,9.45224444 90.9596659,9.66072289 89.9992944,9.96209379 C88.495943,10.3499622 86.9724123,10.7582447 85.2067311,11.1359061 C84.1372328,11.278805 83.7740069,11.4727392 83.8042757,11.8606076 C84.0262471,17.9848455 79.919777,25.1297899 77.1955832,25.1297899 C76.0150991,25.1297899 75.7527694,24.2621895 75.7527694,23.0883772 C75.7527694,18.8830671 79.1630565,11.7993652 82.512806,10.6765882 L83.2695266,10.472447 L83.7033797,9.32925586 C82.6124507,9.46873163 81.5137687,9.5369201 80.4141678,9.53339713 L73.1294715,9.53339713 C75.0666761,4.8687692 77.7807804,1.82706433 81.7661751,1.65354426 C84.2482184,1.57188775 85.9130036,2.52114464 86.0542581,3.9501335 C86.1789561,5.15663012 85.7339902,6.35197544 84.8535949,7.1755655 L85.1361039,7.45115621 C87.315459,6.43044988 88.8188104,4.63400674 88.8389896,3.36833089 C88.8389896,1.50043831 86.6293657,0.306211899 83.0677344,0.377661342 C78.5375009,0.377661342 72.9781274,1.39836767 69.0532703,9.6252607 C67.8661015,9.7604541 66.7648828,10.3174733 65.9456713,11.1971484 L66.1071051,11.5543957 C66.8317039,11.3472007 67.5848681,11.2610093 68.3369082,11.2992191 C67.802159,12.6363444 66.7225711,15.5453574 65.6328935,18.536027 C62.3537713,22.9250642 59.0544698,25.0175122 56.6329641,25.0175122 C55.3112256,25.0175122 54.7764764,24.3132248 54.7764764,23.0373419 C54.7816596,22.1854224 54.896987,21.3378494 55.119523,20.5161972 C57.9048758,19.2214676 60.4505893,17.4539358 62.6463699,15.2901808 C63.8648192,14.1735862 64.6485218,12.6530981 64.8559938,11.0032142 C64.8559938,9.6252607 64.0387356,8.96180158 62.3134128,8.89035214 C59.8616383,8.89035214 56.9053835,10.5643105 54.9681789,12.6363444 C52.4659564,15.4024585 50.498483,19.342385 50.448035,22.8434077 Z M61.1732872,10.6561741 C61.7383052,10.6561741 61.9602766,11.0440425 61.9602766,11.5339815 C61.9602766,13.8816061 59.1150074,16.8722756 55.4323009,19.0565872 C56.3706343,15.4432868 58.9434841,10.6255529 61.1833768,10.6561741 L61.1732872,10.6561741 Z M156.136668,9.15573579 L161.272278,9.15573579 C163.865307,9.15573579 166.317082,9.60484657 167.739716,11.1461131 C168.853615,12.5106642 169.396674,14.2613587 169.253157,16.0250894 C169.362388,18.987567 168.339865,21.878845 166.397799,24.0988765 C164.480773,26.0586326 161.968461,26.7118847 158.457278,26.7118847 L153.089607,26.7118847 L156.136668,9.15573579 Z M158.881041,23.7926646 C161.020038,23.7926646 162.452762,23.2516902 163.562619,21.6185601 C164.617567,19.9724938 165.168625,18.0479683 165.146687,16.0863318 C165.238528,15.0304451 164.944134,13.9771766 164.31934,13.1262834 C163.477199,12.3279373 162.325735,11.9533814 161.181472,12.1055771 L159.567135,12.1055771 L157.549213,23.8232858 L158.881041,23.7926646 Z M177.677979,9.15573579 L182.036689,9.15573579 L185.265364,26.7118847 L181.229521,26.7118847 L180.533338,22.3024333 L174.913427,22.3024333 L172.804699,26.7118847 L168.839484,26.7118847 L177.677979,9.15573579 Z M180.059127,19.3627991 L179.20151,13.2385611 L176.336062,19.3627991 L180.059127,19.3627991 Z M193.094899,12.0137135 L187.717138,12.0137135 L188.221619,9.11490753 L203.123968,9.11490753 L202.29662,12.0137135 L197.060114,12.0137135 L194.517533,26.6710564 L190.552318,26.6710564 L193.094899,12.0137135 Z M208.774148,9.11490753 L213.142948,9.11490753 L216.371622,26.6710564 L212.335779,26.6710564 L211.649686,22.2616051 L206.019685,22.2616051 L203.921047,26.6710564 L199.955832,26.6710564 L208.774148,9.11490753 Z M211.155295,19.3219708 L210.297679,13.1977329 L207.43223,19.3219708 L211.155295,19.3219708 Z M227.026247,25.4462088 C225.82343,24.3634176 225.192199,22.7726362 225.321104,21.1490352 C225.335072,20.1991239 225.436405,19.2525896 225.623792,18.3216786 L227.258308,9.03325103 L231.132717,9.03325103 L229.336767,19.352592 C229.227128,19.928318 229.163024,20.5119687 229.145065,21.0979999 C229.122357,21.7559689 229.309876,22.4038213 229.679814,22.9454783 C230.281156,23.623166 231.164891,23.9716834 232.060961,23.8845281 C233.089598,23.9568 234.096283,23.5599219 234.805334,22.8025794 C235.495766,21.8719375 235.918292,20.7662342 236.026177,19.6077686 L237.872575,9.03325103 L241.424116,9.03325103 L239.406195,20.801995 C239.205534,22.5479509 238.375739,24.1578148 237.075496,25.3237241 C235.612176,26.4708012 233.788063,27.0436205 231.939886,26.9364401 C230.189115,27.0982684 228.439733,26.6123134 227.016157,25.5686936 L227.026247,25.4462088 Z M245.43978,9.03325103 L248.295139,9.03325103 L254.570874,20.5161972 L256.588796,9.03325103 L260.06971,9.03325103 L257.042828,26.5893999 L253.935229,26.5893999 L247.820927,15.6678422 L245.924081,26.5893999 L242.443167,26.5893999 L245.43978,9.03325103 Z M264.287166,9.03325103 L268.252381,9.03325103 L265.225499,26.5893999 L261.320821,26.5893999 L264.287166,9.03325103 Z M275.970931,12.0647488 L270.59317,12.0647488 L271.09765,9.16594285 L286,9.16594285 L285.172652,12.0647488 L279.936146,12.0647488 L277.403655,26.7220917 L273.42835,26.7220917 L275.970931,12.0647488 Z"></path>
            </g>
        </g>
    </g>
</svg>
