
<svg width="281px" height="94px" viewBox="0 0 281 94" version="1.1" xmlns="http://www.w3.org/2000/svg" xmlns:xlink="http://www.w3.org/1999/xlink">
    <!-- Generator: Sketch 49.1 (51147) - http://www.bohemiancoding.com/sketch -->
    <desc>Created with Sketch.</desc>
    <defs></defs>
    <g id="Page-1" stroke="none" stroke-width="1" fill="none" fill-rule="evenodd">
        <g id="Brand" transform="translate(-132.000000, -994.000000)">
            <g id="LUCA-AI-Copy" transform="translate(132.000000, 994.000000)">
                <g fill="#2C2C2C" id="Shape">
                    <path d="M6.40450704,74.170087 L8.38140845,74.170087 L14.6061972,92.7657391 L12.8907042,92.7657391 L11.2569014,87.6815652 L3.76591549,87.6815652 L2.21380282,92.7657391 L0.58,92.7657391 L6.40450704,74.170087 Z M10.7749296,86.292 L7.35211268,75.853913 L4.19887324,86.292 L10.7749296,86.292 Z" fill-rule="nonzero"></path>
                    <polygon fill-rule="nonzero" points="17.6450704 74.170087 19.2788732 74.170087 19.2788732 92.7657391 17.6450704 92.7657391"></polygon>
                    <path d="M29.5473239,74.170087 L34.7101408,74.170087 C35.6762162,74.1505215 36.64056,74.2604842 37.5774648,74.4970435 C38.3311021,74.6959495 39.0187636,75.090746 39.5707042,75.6413913 C40.0314035,76.120428 40.3752739,76.6994837 40.575493,77.3333913 C40.8210109,78.1018867 40.9396567,78.9052968 40.9267606,79.712 C41.0502092,81.3036114 40.5557426,82.8815838 39.5461972,84.1177391 C38.3859515,85.1956214 36.827623,85.7381026 35.2492958,85.6135652 L31.1647887,85.6135652 L31.1647887,92.7657391 L29.5309859,92.7657391 L29.5473239,74.170087 Z M34.5957746,84.1913043 C35.3680921,84.2154164 36.1401498,84.13569 36.8912676,83.9542609 C37.4004445,83.8216261 37.8654792,83.5565383 38.2391549,83.185913 C38.6095508,82.804267 38.8766399,82.3344709 39.0152113,81.8208696 C39.1744603,81.149247 39.2404332,80.4588665 39.2112676,79.7692174 C39.2888476,78.6587776 38.960822,77.5579257 38.288169,76.6713043 C37.9170821,76.2663628 37.4334547,75.9817055 36.8994366,75.853913 C36.1172863,75.6764046 35.3156945,75.5994936 34.5140845,75.6250435 L31.1729577,75.6250435 L31.1729577,84.1913043 L34.5957746,84.1913043 Z" fill-rule="nonzero"></path>
                    <path d="M42.5605634,86.104 C42.5605634,81.4121739 44.4666667,79.0662609 48.2788732,79.0662609 C52.0910798,79.0662609 53.9971831,81.4121739 53.9971831,86.104 C53.9971831,90.7958261 52.0910798,93.1417391 48.2788732,93.1417391 C44.4666667,93.1417391 42.5605634,90.7958261 42.5605634,86.104 Z M51.4647887,90.3707826 C52.1905411,89.0715025 52.5226406,87.5889394 52.4205634,86.104 C52.5226406,84.6190606 52.1905411,83.1364975 51.4647887,81.8372174 C50.7356556,80.8480286 49.5430666,80.3118166 48.3197183,80.4231304 C47.0938536,80.3105032 45.8982213,80.8466909 45.1664789,81.8372174 C44.4407265,83.1364975 44.108627,84.6190606 44.2107042,86.104 C44.108627,87.5889394 44.4407265,89.0715025 45.1664789,90.3707826 C45.8982213,91.3613091 47.0938536,91.8974968 48.3197183,91.7848696 C49.5430666,91.8961834 50.7356556,91.3599714 51.4647887,90.3707826 Z" fill-rule="nonzero"></path>
                    <polygon fill-rule="nonzero" points="55.5492958 79.4422609 57.1830986 79.4422609 60.3853521 91.0246957 63.4895775 79.4422609 65.1233803 79.4422609 68.6850704 91.1881739 71.6177465 79.4422609 73.1126761 79.4422609 69.5509859 92.7657391 67.8028169 92.7657391 64.355493 81.4857391 61.2676056 92.7657391 59.4295775 92.7657391"></polygon>
                    <path d="M76.1597183,91.3598261 C75.1467606,90.1609855 74.6402817,88.4172174 74.6402817,86.1285217 C74.5405982,84.3098285 75.0211979,82.5064988 76.0126761,80.9789565 C76.9657401,79.6968056 78.5036727,78.9858547 80.0971831,79.0907826 C83.5935211,79.0907826 85.3416901,81.463942 85.3416901,86.2102609 L85.3416901,86.4554783 C85.3486285,86.5371995 85.3253767,86.6186296 85.276338,86.6843478 C85.2021676,86.7421282 85.1083271,86.7685366 85.0149296,86.757913 L76.2985915,86.757913 C76.2344617,88.1121093 76.6415185,89.4466698 77.4504225,90.5342609 C78.1856338,91.3843478 79.3946479,91.8093913 81.0774648,91.8093913 C82.213819,91.8001016 83.3455274,91.6630087 84.4512676,91.4006957 L84.5819718,92.684 C84.0235863,92.8483178 83.45251,92.9658825 82.8746479,93.0354783 C82.2438332,93.1226936 81.6080535,93.1691088 80.9712676,93.1744348 C78.7819718,93.1798841 77.1781221,92.5750145 76.1597183,91.3598261 Z M83.7732394,85.4746087 C83.8443796,84.1662941 83.5259662,82.8662747 82.8583099,81.7391304 C82.2286564,80.8259336 81.1620121,80.3156287 80.056338,80.3986087 C78.9534124,80.341561 77.8963195,80.8458261 77.2461972,81.7391304 C76.5538863,82.8580457 76.2150843,84.1599393 76.2740845,85.4746087 L83.7732394,85.4746087 Z" fill-rule="nonzero"></path>
                    <path d="M88.74,79.4422609 L89.9898592,79.4422609 L90.1287324,80.5866087 C90.7092314,80.1045017 91.3664201,79.7232142 92.0729577,79.4586087 C92.7081915,79.208292 93.3835387,79.0753571 94.0661972,79.0662609 C94.3194366,79.0662609 94.54,79.0662609 94.7197183,79.0662609 L94.7197183,80.5293913 C94.4256338,80.5293913 94.1233803,80.5293913 93.7966197,80.5293913 C92.5496373,80.5309071 91.3338057,80.9192927 90.3166197,81.6410435 L90.3166197,92.7657391 L88.74,92.7657391 L88.74,79.4422609 Z" fill-rule="nonzero"></path>
                    <path d="M97.5952113,91.3598261 C96.5822535,90.1609855 96.0757746,88.4172174 96.0757746,86.1285217 C95.9760912,84.3098285 96.4566909,82.5064988 97.448169,80.9789565 C98.401233,79.6968056 99.9391657,78.9858547 101.532676,79.0907826 C105.029014,79.0907826 106.777183,81.463942 106.777183,86.2102609 L106.777183,86.4554783 C106.784121,86.5371995 106.76087,86.6186296 106.711831,86.6843478 C106.637661,86.7421282 106.54382,86.7685366 106.450423,86.757913 L97.7340845,86.757913 C97.6658309,88.1126223 98.0733042,89.4485482 98.8859155,90.5342609 C99.6211268,91.3843478 100.830141,91.8093913 102.512958,91.8093913 C103.649312,91.8001016 104.78102,91.6630087 105.886761,91.4006957 L106.017465,92.684 C105.459079,92.8483178 104.888003,92.9658825 104.310141,93.0354783 C103.679295,93.1224022 103.043535,93.168816 102.406761,93.1744348 C100.217465,93.1826087 98.608169,92.5695652 97.5952113,91.3598261 Z M105.208732,85.4746087 C105.279873,84.1662941 104.961459,82.8662747 104.293803,81.7391304 C103.66719,80.8311971 102.608202,80.3215836 101.508169,80.3986087 C100.399581,80.3359085 99.3350317,80.840795 98.6816901,81.7391304 C97.9893792,82.8580457 97.6505773,84.1599393 97.7095775,85.4746087 L105.208732,85.4746087 Z" fill-rule="nonzero"></path>
                    <path d="M109.521972,86.1530435 C109.413144,84.3088725 109.89071,82.4775803 110.886197,80.9217391 C111.836294,79.6359375 113.376339,78.9240101 114.970704,79.0335652 C116.259782,79.0449738 117.527861,79.3614835 118.671268,79.9572174 L118.671268,73.3281739 L120.247887,73.3281739 L120.247887,92.7657391 L118.998028,92.7657391 L118.916338,91.9483478 C118.331484,92.3177039 117.69949,92.6063961 117.037465,92.8066087 C116.368802,93.0195674 115.672361,93.1324971 114.970704,93.1417391 C111.338216,93.1689855 109.521972,90.8394203 109.521972,86.1530435 Z M116.874085,91.5151304 C117.494686,91.3617436 118.097158,91.1425316 118.671268,90.8612174 L118.671268,81.2895652 C117.608409,80.781406 116.450516,80.5028994 115.272958,80.4721739 C114.047366,80.3611832 112.8525,80.897027 112.119718,81.8862609 C111.400769,83.1879047 111.071783,84.6692285 111.172113,86.1530435 C111.064042,87.6318719 111.384551,89.1105054 112.095211,90.4116522 C112.766034,91.3638703 113.892558,91.8869908 115.052394,91.7848696 C115.66155,91.7792788 116.267772,91.6996816 116.857746,91.5478261 L116.874085,91.5151304 Z" fill-rule="nonzero"></path>
                    <path d="M130.058873,74.170087 L134.437465,74.170087 C135.814124,74.1316117 137.18929,74.2884746 138.521972,74.636 C139.515372,74.9030192 140.416648,75.4373245 141.127887,76.1808696 C142.467606,77.6521739 143.145634,80.0471304 143.145634,83.382087 C143.18041,84.9977842 142.959851,86.6088339 142.492113,88.1556522 C142.173753,89.2790572 141.57497,90.3029425 140.752113,91.1309565 C139.592113,92.2208116 137.718685,92.7657391 135.131831,92.7657391 L130.099718,92.7657391 L130.058873,74.170087 Z M134.960282,91.3353043 C137.108732,91.3353043 138.660845,90.8775652 139.600282,89.953913 C140.295085,89.2430149 140.788469,88.360034 141.029859,87.3954783 C141.354649,86.0886993 141.505718,84.7447557 141.479155,83.3984348 C141.505131,82.1192519 141.367873,80.8419805 141.070704,79.5975652 C140.851269,78.6819724 140.401314,77.8378015 139.763662,77.1453913 C139.176029,76.5771617 138.449065,76.1739902 137.656056,75.9765217 C136.602614,75.7222079 135.520932,75.6040855 134.437465,75.6250435 L131.725352,75.6250435 L131.725352,91.3353043 L134.960282,91.3353043 Z" fill-rule="nonzero"></path>
                    <path d="M147.614085,91.3598261 C146.595681,90.1609855 146.086479,88.4172174 146.086479,86.1285217 C145.986795,84.3098285 146.467395,82.5064988 147.458873,80.9789565 C148.411937,79.6968056 149.94987,78.9858547 151.54338,79.0907826 C155.039718,79.0907826 156.787887,81.463942 156.787887,86.2102609 L156.787887,86.4554783 C156.794826,86.5371995 156.771574,86.6186296 156.722535,86.6843478 C156.648365,86.7421282 156.554524,86.7685366 156.461127,86.757913 L147.744789,86.757913 C147.684037,88.1116845 148.090755,89.445135 148.89662,90.5342609 C149.631831,91.3843478 150.843568,91.8093913 152.531831,91.8093913 C153.665456,91.7995589 154.794397,91.6624693 155.897465,91.4006957 L156.028169,92.684 C155.469783,92.8483178 154.898707,92.9658825 154.320845,93.0354783 C153.69003,93.1226936 153.054251,93.1691088 152.417465,93.1744348 C150.228169,93.1798841 148.627042,92.5750145 147.614085,91.3598261 Z M155.219437,85.4746087 C155.295583,84.1658317 154.976816,82.8643684 154.304507,81.7391304 C153.677894,80.8311971 152.618906,80.3215836 151.518873,80.3986087 C150.402528,80.3190965 149.325369,80.8270274 148.676056,81.7391304 C147.977546,82.8556955 147.635603,84.1587079 147.695775,85.4746087 L155.219437,85.4746087 Z" fill-rule="nonzero"></path>
                    <path d="M161.141972,91.4415652 C160.05277,90.3135652 159.508169,88.577971 159.508169,86.2347826 C159.508169,83.8915942 160.05277,82.1042319 161.141972,80.8726957 C162.339333,79.6093851 164.03786,78.9469519 165.773803,79.0662609 C166.823976,79.0471388 167.870088,79.2018022 168.869859,79.524 L168.763662,80.8318261 C167.862173,80.5760478 166.931268,80.4386639 165.994366,80.4231304 C164.235305,80.4231304 162.993615,80.8808696 162.269296,81.7963478 C161.544977,82.7118261 161.182817,84.1749565 161.182817,86.1857391 C161.182817,88.1529275 161.572207,89.5806377 162.350986,90.4688696 C163.129765,91.3571014 164.442254,91.7957681 166.288451,91.7848696 C166.725344,91.7829337 167.161758,91.7556415 167.595493,91.7031304 C168.004208,91.6616553 168.410486,91.5989036 168.812676,91.5151304 L168.951549,92.8147826 C167.963305,93.0431789 166.951384,93.1529381 165.937183,93.1417391 C163.80507,93.1826087 162.203944,92.5777391 161.141972,91.4415652 Z" fill-rule="nonzero"></path>
                    <path d="M171.84338,75.6904348 L171.84338,75.6086957 C171.84338,74.9057391 172.170141,74.5542609 172.823662,74.5542609 L172.929859,74.5542609 C173.58338,74.5542609 173.910141,74.9057391 173.910141,75.6086957 L173.910141,75.6904348 C173.910141,76.4015652 173.58338,76.7530435 172.929859,76.7530435 L172.823662,76.7530435 C172.170141,76.7530435 171.84338,76.4015652 171.84338,75.6904348 Z M172.088451,79.4422609 L173.66507,79.4422609 L173.66507,92.7657391 L172.088451,92.7657391 L172.088451,79.4422609 Z" fill-rule="nonzero"></path>
                    <path d="M178.901408,93.0109565 C178.348641,92.9318147 177.80253,92.8115983 177.267606,92.6513043 L177.39831,91.4006957 C178.507084,91.695031 179.649489,91.8434128 180.79662,91.842087 C181.747918,91.9022181 182.696098,91.6834946 183.52507,91.2126957 C184.142321,90.8177095 184.50081,90.122136 184.464507,89.389913 C184.486001,88.9052785 184.325759,88.4300942 184.015211,88.0575652 C183.714313,87.7049433 183.337194,87.4254281 182.912394,87.2401739 C182.319687,86.9954338 181.714314,86.7826078 181.098873,86.6026087 C180.361861,86.3729177 179.639013,86.0999811 178.934085,85.7852174 C178.394561,85.5332206 177.923774,85.1546821 177.56169,84.6817391 C177.16016,84.1211409 176.95875,83.4416961 176.989859,82.7526957 C176.924221,81.6710473 177.398445,80.6271289 178.256056,79.9653913 C179.308467,79.2848251 180.550595,78.958356 181.801408,79.0335652 C182.369887,79.0366128 182.93753,79.0775732 183.500563,79.1561739 C184.038393,79.2164761 184.569129,79.3287092 185.085352,79.4913043 L185.003662,80.7173913 C183.960833,80.478041 182.895707,80.3492726 181.825915,80.3332174 C180.954627,80.2745134 180.085323,80.4734931 179.326197,80.9053913 C178.767283,81.3131274 178.458394,81.9807289 178.509296,82.6709565 C178.489153,83.1243006 178.647539,83.5674618 178.950423,83.9052174 C179.251316,84.2313609 179.615425,84.492787 180.020563,84.6735652 C180.60232,84.9178941 181.196794,85.1307235 181.801408,85.3111304 C182.547569,85.529499 183.276593,85.8027058 183.982535,86.1285217 C184.537406,86.3965151 185.021516,86.7913156 185.395775,87.2810435 C185.809631,87.8518359 186.017056,88.5465501 185.983944,89.2509565 C186.044863,90.3570015 185.555633,91.4217156 184.676901,92.0954783 C183.560652,92.8705522 182.218841,93.2529245 180.861972,93.1826087 C180.205244,93.1713141 179.550117,93.113956 178.901408,93.0109565 Z" fill-rule="nonzero"></path>
                    <path d="M188.851268,75.6904348 L188.851268,75.6086957 C188.851268,74.9057391 189.169859,74.5542609 189.82338,74.5542609 L189.937746,74.5542609 C190.583099,74.5542609 190.909859,74.9057391 190.909859,75.6086957 L190.909859,75.6904348 C190.909859,76.4015652 190.583099,76.7530435 189.937746,76.7530435 L189.82338,76.7530435 C189.169859,76.7530435 188.851268,76.4015652 188.851268,75.6904348 Z M189.096338,79.4422609 L190.664789,79.4422609 L190.664789,92.7657391 L189.096338,92.7657391 L189.096338,79.4422609 Z" fill-rule="nonzero"></path>
                    <path d="M194.087606,86.104 C194.087606,81.4121739 195.993709,79.0662609 199.805915,79.0662609 C203.618122,79.0662609 205.524225,81.4121739 205.524225,86.104 C205.524225,90.7958261 203.618122,93.1417391 199.805915,93.1417391 C195.993709,93.1417391 194.087606,90.7958261 194.087606,86.104 Z M202.975493,90.3707826 C203.697965,89.0704753 204.027185,87.5880972 203.923099,86.104 C204.027185,84.6199028 203.697965,83.1375247 202.975493,81.8372174 C202.174126,80.9373069 201.026852,80.4226195 199.822254,80.4226195 C198.617655,80.4226195 197.470381,80.9373069 196.669014,81.8372174 C195.950065,83.1388613 195.621079,84.620185 195.721408,86.104 C195.621079,87.587815 195.950065,89.0691387 196.669014,90.3707826 C197.470381,91.2706931 198.617655,91.7853805 199.822254,91.7853805 C201.026852,91.7853805 202.174126,91.2706931 202.975493,90.3707826 Z" fill-rule="nonzero"></path>
                    <path d="M208.922535,79.4422609 L210.172394,79.4422609 L210.278592,80.4476522 C211.677862,79.562244 213.295776,79.0839372 214.951268,79.0662609 C215.60718,79.0569192 216.26049,79.1506992 216.887324,79.3441739 C217.411676,79.5062526 217.892205,79.7857976 218.292394,80.1615652 C218.667407,80.5497464 218.947072,81.0198652 219.109296,81.5347826 C219.304936,82.1809423 219.395947,82.8542717 219.378873,83.5292174 L219.378873,92.7493913 L217.802254,92.7493913 L217.802254,83.9542609 C217.818576,83.4036239 217.758088,82.8533989 217.622535,82.3194783 C217.521011,81.9343394 217.321137,81.5822373 217.042535,81.2977391 C216.392805,80.7210845 215.540375,80.4269668 214.673521,80.4803478 C213.968268,80.4878297 213.266348,80.5783659 212.582254,80.750087 C211.846978,80.9372641 211.136686,81.2116727 210.466479,81.5674783 L210.466479,92.773913 L208.889859,92.773913 L208.922535,79.4422609 Z" fill-rule="nonzero"></path>
                    <path d="M224.533521,93.0109565 C223.967221,92.9324701 223.407484,92.8122593 222.858873,92.6513043 L222.997746,91.4006957 C224.103606,91.6957064 225.243401,91.8441059 226.387887,91.842087 C227.341685,91.9009793 228.292132,91.6823874 229.124507,91.2126957 C229.737345,90.8145377 230.092117,90.1201379 230.055775,89.389913 C230.075677,88.9068804 229.918836,88.4331661 229.614648,88.0575652 C229.310399,87.7085557 228.934154,87.4296883 228.511831,87.2401739 C227.916286,86.9955944 227.308203,86.7827741 226.690141,86.6026087 C225.955219,86.3745878 225.234989,86.1016099 224.533521,85.7852174 C223.991344,85.5375068 223.519598,85.1581983 223.161127,84.6817391 C222.756066,84.1228758 222.554282,83.442168 222.589296,82.7526957 C222.528865,81.6867078 222.992417,80.6583483 223.830986,79.998087 C224.883861,79.3185759 226.125638,78.9921992 227.376338,79.0662609 C227.944828,79.0690154 228.512491,79.1099772 229.075493,79.1888696 C229.615983,79.2492562 230.149421,79.3614823 230.668451,79.524 L230.586761,80.750087 C229.543849,80.5112131 228.478773,80.3824508 227.409014,80.365913 C226.537726,80.3072091 225.668422,80.5061887 224.909296,80.938087 C224.347852,81.343741 224.038269,82.0128417 224.092394,82.7036522 C224.06914,83.1559973 224.224657,83.5993404 224.525352,83.937913 C224.826245,84.2640565 225.190355,84.5254827 225.595493,84.7062609 C226.17725,84.9505898 226.771724,85.1634192 227.376338,85.3438261 C228.124613,85.5638141 228.856238,85.8369722 229.565634,86.1612174 C230.11748,86.4339414 230.600594,86.8279291 230.978873,87.3137391 C231.386342,87.8872857 231.590494,88.5806696 231.558873,89.2836522 C231.618842,90.3876848 231.13338,91.450841 230.26,92.1281739 C229.139543,92.8589596 227.81227,93.2060361 226.477746,93.1172174 C225.827988,93.1272228 225.178325,93.0917158 224.533521,93.0109565 Z" fill-rule="nonzero"></path>
                    <path d="M14.5408451,59.7758261 C13.0099586,59.779221 11.5405342,59.1734551 10.456338,58.092 L1.6828169,49.2886957 C0.597389287,48.206933 -0.00884347253,46.7346118 -6.34868135e-16,45.2017391 L-6.34868135e-16,1.67565217 C-8.360554e-16,0.77278667 0.731478437,0.0408695652 1.63380282,0.0408695652 L13.3890141,0.0408695652 C14.2913385,0.0408695652 15.0228169,0.77278667 15.0228169,1.67565217 L15.0228169,43.2726957 C14.9805934,43.8156745 15.1778544,44.3499648 15.5627281,44.7350693 C15.9476018,45.1201738 16.481572,45.3175532 17.0242254,45.2753043 L38.3943662,45.2753043 C39.2966906,45.2753043 40.028169,46.0072215 40.028169,46.910087 L40.028169,58.1573913 C40.028169,59.0602568 39.2966906,59.7921739 38.3943662,59.7921739 L14.5408451,59.7758261 Z" fill-rule="nonzero"></path>
                    <path d="M90.9129577,59.7758261 C92.4449117,59.7846749 93.9163505,59.1780785 94.9974648,58.092 L103.746479,49.2886957 C104.831906,48.206933 105.438139,46.7346118 105.429296,45.2017391 L105.429296,1.67565217 C105.429296,0.77278667 104.697817,0.0408695652 103.795493,0.0408695652 L92.0566197,0.0408695652 C91.1542953,0.0408695652 90.4228169,0.77278667 90.4228169,1.67565217 L90.4228169,43.2726957 C90.4650404,43.8156745 90.2677794,44.3499648 89.8829057,44.7350693 C89.498032,45.1201738 88.9640618,45.3175532 88.4214085,45.2753043 L72.3121127,45.2753043 C71.7694593,45.3175532 71.2354892,45.1201738 70.8506155,44.7350693 C70.4657418,44.3499648 70.2684807,43.8156745 70.3107042,43.2726957 L70.3107042,1.67565217 C70.3107042,0.77278667 69.5792258,0.0408695652 68.6769014,0.0408695652 L56.9216901,0.0408695652 C56.0193658,0.0408695652 55.2878873,0.77278667 55.2878873,1.67565217 L55.2878873,45.218087 C55.2790439,46.7509597 55.8852766,48.2232808 56.9707042,49.3050435 L65.7687324,58.092 C66.8529285,59.1734551 68.322353,59.779221 69.8532394,59.7758261 L90.9129577,59.7758261 Z" fill-rule="nonzero"></path>
                    <path d="M120.697183,45.2262609 C120.69379,46.7580654 121.299193,48.2283711 122.38,49.3132174 L131.178028,58.1001739 C132.259142,59.1862525 133.730581,59.7928488 135.262535,59.784 L164.670986,59.784 C165.57331,59.784 166.304789,59.0520829 166.304789,58.1492174 L166.304789,46.8937391 C166.304789,45.9908736 165.57331,45.2589565 164.670986,45.2589565 L137.672394,45.2589565 C137.131103,45.2986892 136.599417,45.1001961 136.216424,44.7154024 C135.83343,44.3306087 135.637232,43.7977964 135.679155,43.2563478 L135.679155,16.5603478 C135.637232,16.0188993 135.83343,15.486087 136.216424,15.1012933 C136.599417,14.7164996 137.131103,14.5180064 137.672394,14.5577391 L164.670986,14.5577391 C165.57331,14.5577391 166.304789,13.825822 166.304789,12.9229565 L166.304789,1.63478261 C166.304789,0.731917105 165.57331,-7.45429651e-16 164.670986,-8.00723962e-16 L135.262535,-8.00723962e-16 C133.730581,-0.00884877596 132.259142,0.597747541 131.178028,1.68382609 L122.38,10.4707826 C121.299193,11.5556289 120.69379,13.0259346 120.697183,14.5577391 L120.697183,45.2262609 Z" fill-rule="nonzero"></path>
                    <path d="M229.876056,10.5361739 C228.536338,9.19565217 222.376901,3.01617391 221.094366,1.74104348 C220.013252,0.654964933 218.541813,0.0483686153 217.009859,0.0572173913 L195.95831,0.0572173913 C194.426356,0.0483686153 192.954917,0.654964933 191.873803,1.74104348 C190.599437,3.01617391 184.44,9.19565217 183.092113,10.5361739 C182.011306,11.6210202 181.405903,13.0913259 181.409296,14.6231304 L181.409296,58.1573913 C181.409296,59.0602568 182.140774,59.7921739 183.043099,59.7921739 L194.814648,59.7921739 C195.716972,59.7921739 196.448451,59.0602568 196.448451,58.1573913 L196.448451,40.9921739 C196.406227,40.4491951 196.603488,39.9149047 196.988362,39.5298002 C197.373236,39.1446957 197.907206,38.9473164 198.449859,38.9895652 L214.583662,38.9895652 C215.124953,38.9498325 215.656639,39.1483256 216.039632,39.5331193 C216.422626,39.9179131 216.618824,40.4507253 216.576901,40.9921739 L216.576901,58.1573913 C216.576901,59.0602568 217.30838,59.7921739 218.210704,59.7921739 L229.974085,59.7921739 C230.876409,59.7921739 231.607887,59.0602568 231.607887,58.1573913 L231.607887,14.6067826 C231.599425,13.0724534 230.975447,11.6058135 229.876056,10.5361739 Z M216.552394,26.3363478 C216.594317,26.8777964 216.398119,27.4106087 216.015125,27.7954024 C215.632132,28.1801961 215.100446,28.3786892 214.559155,28.3389565 L198.425352,28.3389565 C197.882699,28.3812054 197.348729,28.183826 196.963855,27.7987215 C196.578981,27.413617 196.38172,26.8793266 196.423944,26.3363478 L196.423944,16.5276522 C196.384235,15.9860366 196.582609,15.4540317 196.967172,15.0708085 C197.351735,14.6875854 197.884228,14.4912698 198.425352,14.5332174 L214.559155,14.5332174 C215.099644,14.4909426 215.631553,14.6874522 216.014903,15.0710314 C216.398252,15.4546106 216.594644,15.986839 216.552394,16.5276522 L216.552394,26.3363478 Z" fill-rule="nonzero"></path>
                    <path d="M229.876056,10.5361739 C228.536338,9.19565217 222.376901,3.01617391 221.094366,1.74104348 C220.013252,0.654964933 218.541813,0.0483686153 217.009859,0.0572173913 L195.95831,0.0572173913 C194.426356,0.0483686153 192.954917,0.654964933 191.873803,1.74104348 C190.599437,3.01617391 184.44,9.19565217 183.092113,10.5361739 C182.011306,11.6210202 181.405903,13.0913259 181.409296,14.6231304 L181.409296,58.1573913 C181.409296,59.0602568 182.140774,59.7921739 183.043099,59.7921739 L194.814648,59.7921739 C195.716972,59.7921739 196.448451,59.0602568 196.448451,58.1573913 L196.448451,40.9921739 C196.406227,40.4491951 196.603488,39.9149047 196.988362,39.5298002 C197.373236,39.1446957 197.907206,38.9473164 198.449859,38.9895652 L214.583662,38.9895652 C215.124953,38.9498325 215.656639,39.1483256 216.039632,39.5331193 C216.422626,39.9179131 216.618824,40.4507253 216.576901,40.9921739 L216.576901,58.1573913 C216.576901,59.0602568 217.30838,59.7921739 218.210704,59.7921739 L229.974085,59.7921739 C230.876409,59.7921739 231.607887,59.0602568 231.607887,58.1573913 L231.607887,14.6067826 C231.599425,13.0724534 230.975447,11.6058135 229.876056,10.5361739 Z M216.552394,26.3363478 C216.594317,26.8777964 216.398119,27.4106087 216.015125,27.7954024 C215.632132,28.1801961 215.100446,28.3786892 214.559155,28.3389565 L198.425352,28.3389565 C197.882699,28.3812054 197.348729,28.183826 196.963855,27.7987215 C196.578981,27.413617 196.38172,26.8793266 196.423944,26.3363478 L196.423944,16.5276522 C196.384235,15.9860366 196.582609,15.4540317 196.967172,15.0708085 C197.351735,14.6875854 197.884228,14.4912698 198.425352,14.5332174 L214.559155,14.5332174 C215.099644,14.4909426 215.631553,14.6874522 216.014903,15.0710314 C216.398252,15.4546106 216.594644,15.986839 216.552394,16.5276522 L216.552394,26.3363478 Z" fill-rule="nonzero"></path>
                </g>
                <g id="rulers" transform="translate(0.000000, 45.000000)" fill="#FBA6D9">
                    <rect id="ruler-line-copy-3" x="0" y="29" width="281" height="1"></rect>
                    <rect id="ruler-line-copy-4" x="0" y="15" width="281" height="1"></rect>
                    <rect id="ruler-line-copy-5" x="0" y="0" width="281" height="1"></rect>
                    <text id="X-Copy" font-family="HelveticaNeue-Bold, Helvetica Neue" font-size="7" font-weight="bold">
                        <tspan x="273.1655" y="26">X</tspan>
                    </text>
                    <text id="X-Copy-2" font-family="HelveticaNeue-Bold, Helvetica Neue" font-size="7" font-weight="bold">
                        <tspan x="273.1655" y="11">X</tspan>
                    </text>
                </g>
            </g>
        </g>
    </g>
</svg>
