
<svg width="75px" height="30px" viewBox="0 0 75 30" version="1.1" xmlns="http://www.w3.org/2000/svg" xmlns:xlink="http://www.w3.org/1999/xlink">
    <!-- Generator: Sketch 49.3 (51167) - http://www.bohemiancoding.com/sketch -->
    <desc>Created with Sketch.</desc>
    <defs></defs>
    <g id="DESIGN-SYSTEM-HOME" stroke="none" stroke-width="1" fill="none" fill-rule="evenodd">
        <g id="Desk–HD-1440-X-1024-interaction-new" transform="translate(-16.000000, -29.000000)">
            <g id="header-&gt;-search" transform="translate(16.000000, 0.000000)">
                <g id="Logo-claim-1" transform="translate(0.000000, 29.000000)">
                    <g>
                        <g id="LUCA" transform="translate(0.422535, 0.000000)" fill="#1D1D1B" fill-rule="nonzero">
                            <path d="M4.76027059,19.0036886 C4.2630287,19.0086783 3.78406257,18.8217372 3.42849258,18.4838941 L0.534950804,15.6718056 C0.187321911,15.3262449 -0.00503396312,14.8607617 0.00010019774,14.3775172 L0.00010019774,0.519794546 C0.00010019774,0.232719945 0.239560971,5.27347487e-17 0.534950804,0 L4.38587517,0 C4.681265,1.75782496e-17 4.92072578,0.232719945 4.92072578,0.519794546 L4.92072578,13.7589616 C4.90782229,13.9306869 4.97241418,14.0993747 5.0976922,14.2211262 C5.22297022,14.3428776 5.39654416,14.4056512 5.57324352,14.393111 L12.5637409,14.393111 C12.8591308,14.393111 13.0985915,14.6258309 13.0985915,14.9129055 L13.0985915,18.49429 C13.0985915,18.7813646 12.8591308,19.0140845 12.5637409,19.0140845 L4.76027059,19.0036886 Z" id="Shape"></path>
                            <path d="M29.1689268,19.0139871 C29.6551526,19.0189794 30.1235076,18.8319371 30.4712002,18.4939108 L33.2797176,15.6959007 C33.619645,15.3501528 33.8077393,14.8844173 33.8027189,14.4009109 L33.8027189,0.520076233 C33.8027189,0.232846061 33.5685632,1.75877756e-17 33.2797176,0 L29.5141077,0 C29.225262,-1.75877756e-17 28.9911063,0.232846061 28.9911063,0.520076233 L28.9911063,13.7664179 C29.0037239,13.9382362 28.940563,14.1070155 28.8180605,14.2288329 C28.6955579,14.3506503 28.5258294,14.4134579 28.3530446,14.4009109 L23.2171712,14.4009109 C23.0409344,14.4199776 22.8653051,14.3600689 22.7379462,14.2374429 C22.6105874,14.1148168 22.544709,13.9421927 22.5581895,13.7664179 L22.5581895,0.520076233 C22.5581895,0.232846061 22.3240338,1.75877756e-17 22.0351881,0 L18.2695782,0 C17.9807325,-1.75877756e-17 17.7465769,0.232846061 17.7465769,0.520076233 L17.7465769,14.3853086 C17.7415564,14.868815 17.9296508,15.3345505 18.2695782,15.6802984 L21.0780956,18.4783086 C21.4257882,18.8163348 21.8941431,19.0033771 22.380369,18.9983848 L29.1689268,19.0139871 Z" id="Shape"></path>
                            <path d="M38.8733388,14.4023511 C38.8682452,14.8862521 39.0590828,15.3523676 39.4039679,15.6983977 L42.2587525,18.4934863 C42.611516,18.8317884 43.0867017,19.0189834 43.580019,19.013987 L53.1313427,19.013987 C53.4244011,19.013987 53.6619718,18.7809509 53.6619718,18.4934863 L53.6619718,14.9280567 C53.6619718,14.6405922 53.4244011,14.4075561 53.1313427,14.4075561 L44.3918815,14.4075561 C44.2131999,14.4280907 44.0344717,14.3695465 43.904221,14.2478181 C43.7739703,14.1260897 43.7057137,13.9538092 43.7179825,13.7777503 L43.7179825,5.2727693 C43.7051809,5.10081075 43.769263,4.93189376 43.8935522,4.80997693 C44.0178414,4.6880601 44.1900453,4.62520119 44.36535,4.63775848 L53.1313427,4.63775848 C53.4244011,4.63775848 53.6619718,4.40472239 53.6619718,4.11725781 L53.6619718,0.52059818 C53.6619718,0.233133597 53.4244011,9.75094549e-05 53.1313427,9.75094549e-05 L43.580019,9.75094549e-05 C43.0867017,-0.00489890289 42.611516,0.182296101 42.2587525,0.52059818 L39.4251931,3.33650681 C39.080308,3.68253692 38.8894704,4.14865248 38.894564,4.63255348 L38.8733388,14.4023511 Z" id="Shape"></path>
                            <path d="M73.7963078,3.32363832 L70.9886879,0.521028739 C70.6411064,0.182446868 70.1729011,-0.00490295451 69.6868306,9.75900997e-05 L62.9422686,9.75900997e-05 C62.4561981,-0.00490295451 61.9879928,0.182446868 61.6404113,0.521028739 L58.8327914,3.32363832 C58.4929726,3.66995461 58.3049383,4.13645567 58.3099571,4.62075688 L58.3099571,18.4931534 C58.3099571,18.7808557 58.544038,19.0140845 58.8327914,19.0140845 L62.597198,19.0140845 C62.8859514,19.0140845 63.1200323,18.7808557 63.1200323,18.4931534 L63.1200323,13.0337949 C63.1074187,12.8616942 63.1705594,12.6926375 63.2930228,12.5706198 C63.4154863,12.4486021 63.5851606,12.3856912 63.7578901,12.3982589 L68.9182642,12.3982589 C69.0909937,12.3856912 69.260668,12.4486021 69.3831314,12.5706198 C69.5055949,12.6926375 69.5687356,12.8616942 69.556122,13.0337949 L69.556122,18.4931534 C69.556122,18.7808557 69.7902029,19.0140845 70.0789563,19.0140845 L73.8433629,19.0140845 C74.1321163,19.0140845 74.3661972,18.7808557 74.3661972,18.4931534 L74.3661972,4.62075688 C74.358788,4.12967191 74.1534058,3.66220388 73.7963078,3.32363832 Z M69.2942148,8.43528699 C69.3066301,8.61313888 69.244482,8.78784496 69.1239438,8.9139401 C69.0034056,9.04003525 68.8363987,9.10504845 68.6663847,9.0920608 L63.5871364,9.0920608 C63.4171224,9.10504845 63.2501155,9.04003525 63.1295774,8.9139401 C63.0090392,8.78784496 62.9468911,8.61313888 62.9593064,8.43528699 L62.9593064,5.20525189 C62.9468911,5.02740001 63.0090392,4.85269393 63.1295774,4.72659878 C63.2501155,4.60050363 63.4171224,4.53549044 63.5871364,4.54847809 L68.6663847,4.54847809 C68.8363987,4.53549044 69.0034056,4.60050363 69.1239438,4.72659878 C69.244482,4.85269393 69.3066301,5.02740001 69.2942148,5.20525189 L69.2942148,8.43528699 Z" id="Shape"></path>
                        </g>
                        <path d="M0.321126761,23.7971831 L1.68169014,23.7971831 C2.19436876,23.7971831 2.61408287,23.8450699 2.94084507,23.9408451 C3.26760727,24.0366202 3.5380271,24.197182 3.75211268,24.4225352 C4.16901617,24.8788755 4.37746479,25.6253469 4.37746479,26.6619718 C4.37746479,27.2422564 4.30985983,27.7366177 4.17464789,28.1450704 C4.03943594,28.5535232 3.85915606,28.8619708 3.63380282,29.0704225 C3.27323763,29.4084524 2.69014487,29.5774648 1.88450704,29.5774648 L0.321126761,29.5774648 L0.321126761,23.7971831 Z M1.83380282,29.1295775 C2.5042287,29.1295775 2.98591403,28.9859169 3.27887324,28.6985915 C3.48169115,28.5014075 3.629577,28.2366214 3.72253521,27.9042254 C3.81549342,27.5718293 3.86197183,27.157749 3.86197183,26.6619718 C3.86197183,26.18873 3.81971873,25.7943678 3.73521127,25.4788732 C3.6507038,25.1633787 3.51549389,24.9098601 3.32957746,24.7183099 C3.16056254,24.5492949 2.94225486,24.4281694 2.67464789,24.3549296 C2.40704092,24.2816898 2.07324144,24.2450704 1.67323944,24.2450704 L0.828169014,24.2450704 L0.828169014,29.1295775 L1.83380282,29.1295775 Z M6.65915493,29.6957746 C6.24225144,29.6957746 5.90704352,29.5859166 5.65352113,29.3661972 C5.39999873,29.1464778 5.27323944,28.8281711 5.27323944,28.4112676 C5.27323944,28.0338009 5.38028062,27.743663 5.5943662,27.5408451 C5.73521197,27.4056331 5.91267499,27.308451 6.12676056,27.2492958 C6.34084614,27.1901405 6.6084491,27.1605634 6.92957746,27.1605634 L7.92676056,27.1605634 L7.92676056,26.8225352 C7.92676056,26.4338009 7.84507124,26.1577473 7.68169014,25.9943662 C7.52394287,25.8309851 7.24507242,25.7492958 6.84507042,25.7492958 C6.46760375,25.7492958 6.08169211,25.7943657 5.68732394,25.884507 L5.65352113,25.4788732 C6.06479079,25.3718305 6.47605428,25.3183099 6.88732394,25.3183099 C7.44507321,25.3183099 7.84225234,25.4394354 8.07887324,25.6816901 C8.30422648,25.918311 8.41690141,26.2760539 8.41690141,26.7549296 L8.41690141,29.5774648 L8.01971831,29.5774648 L7.9943662,29.2985915 C7.78591445,29.4225358 7.56619834,29.519718 7.33521127,29.5901408 C7.1042242,29.6605637 6.87887434,29.6957746 6.65915493,29.6957746 Z M6.74366197,29.2647887 C6.93521223,29.2647887 7.14084397,29.23662 7.36056338,29.1802817 C7.58028279,29.1239434 7.7690133,29.0507047 7.92676056,28.9605634 L7.92676056,27.5577465 L7.0056338,27.5577465 C6.74647758,27.5577465 6.53802896,27.5774646 6.38028169,27.6169014 C6.22253442,27.6563382 6.09577513,27.7154926 6,27.7943662 C5.84225273,27.9295781 5.76338028,28.132393 5.76338028,28.4028169 C5.76338028,28.6957761 5.84788648,28.9126754 6.01690141,29.0535211 C6.18591634,29.1943669 6.42816744,29.2647887 6.74366197,29.2647887 Z M11.0112676,29.6957746 C10.6281671,29.6957746 10.3492966,29.6084516 10.1746479,29.4338028 C10.0788728,29.3380277 10.0084509,29.2126768 9.96338028,29.0577465 C9.91830963,28.9028161 9.89577465,28.7070434 9.89577465,28.4704225 L9.89577465,25.8253521 L9.13521127,25.8253521 L9.13521127,25.5295775 L9.89577465,25.4366197 L9.89577465,24.4816901 C10.0647896,24.4309857 10.2281682,24.3971832 10.3859155,24.3802817 L10.3859155,25.4366197 L11.484507,25.4366197 L11.484507,25.8253521 L10.3859155,25.8253521 L10.3859155,28.3183099 C10.3859155,28.5323954 10.3957745,28.6943656 10.415493,28.8042254 C10.4352114,28.9140851 10.476056,29.0056334 10.5380282,29.0788732 C10.6507048,29.2028175 10.8338015,29.2647887 11.0873239,29.2647887 C11.284508,29.2647887 11.4957735,29.2394369 11.7211268,29.1887324 L11.7549296,29.5859155 C11.5352102,29.6591553 11.2873253,29.6957746 11.0112676,29.6957746 Z M13.6985915,29.6957746 C13.2816881,29.6957746 12.9464801,29.5859166 12.6929577,29.3661972 C12.4394354,29.1464778 12.3126761,28.8281711 12.3126761,28.4112676 C12.3126761,28.0338009 12.4197172,27.743663 12.6338028,27.5408451 C12.7746486,27.4056331 12.9521116,27.308451 13.1661972,27.2492958 C13.3802828,27.1901405 13.6478857,27.1605634 13.9690141,27.1605634 L14.9661972,27.1605634 L14.9661972,26.8225352 C14.9661972,26.4338009 14.8845079,26.1577473 14.7211268,25.9943662 C14.5633795,25.8309851 14.284509,25.7492958 13.884507,25.7492958 C13.5070404,25.7492958 13.1211287,25.7943657 12.7267606,25.884507 L12.6929577,25.4788732 C13.1042274,25.3718305 13.5154909,25.3183099 13.9267606,25.3183099 C14.4845098,25.3183099 14.881689,25.4394354 15.1183099,25.6816901 C15.3436631,25.918311 15.456338,26.2760539 15.456338,26.7549296 L15.456338,29.5774648 L15.0591549,29.5774648 L15.0338028,29.2985915 C14.8253511,29.4225358 14.605635,29.519718 14.3746479,29.5901408 C14.1436608,29.6605637 13.918311,29.6957746 13.6985915,29.6957746 Z M13.7830986,29.2647887 C13.9746488,29.2647887 14.1802806,29.23662 14.4,29.1802817 C14.6197194,29.1239434 14.8084499,29.0507047 14.9661972,28.9605634 L14.9661972,27.5577465 L14.0450704,27.5577465 C13.7859142,27.5577465 13.5774656,27.5774646 13.4197183,27.6169014 C13.261971,27.6563382 13.1352117,27.7154926 13.0394366,27.7943662 C12.8816894,27.9295781 12.8028169,28.132393 12.8028169,28.4028169 C12.8028169,28.6957761 12.8873231,28.9126754 13.056338,29.0535211 C13.225353,29.1943669 13.4676041,29.2647887 13.7830986,29.2647887 Z M16.6140845,27.1690141 L18.1774648,27.1690141 L18.1774648,27.6 L16.6140845,27.6 L16.6140845,27.1690141 Z M19.4788732,23.7971831 L20.8394366,23.7971831 C21.3521152,23.7971831 21.7718294,23.8450699 22.0985915,23.9408451 C22.4253537,24.0366202 22.6957736,24.197182 22.9098592,24.4225352 C23.3267626,24.8788755 23.5352113,25.6253469 23.5352113,26.6619718 C23.5352113,27.2422564 23.4676063,27.7366177 23.3323944,28.1450704 C23.1971824,28.5535232 23.0169025,28.8619708 22.7915493,29.0704225 C22.4309841,29.4084524 21.8478914,29.5774648 21.0422535,29.5774648 L19.4788732,29.5774648 L19.4788732,23.7971831 Z M20.9915493,29.1295775 C21.6619752,29.1295775 22.1436605,28.9859169 22.4366197,28.6985915 C22.6394376,28.5014075 22.7873235,28.2366214 22.8802817,27.9042254 C22.9732399,27.5718293 23.0197183,27.157749 23.0197183,26.6619718 C23.0197183,26.18873 22.9774652,25.7943678 22.8929577,25.4788732 C22.8084503,25.1633787 22.6732404,24.9098601 22.4873239,24.7183099 C22.318309,24.5492949 22.1000013,24.4281694 21.8323944,24.3549296 C21.5647874,24.2816898 21.2309879,24.2450704 20.8309859,24.2450704 L19.9859155,24.2450704 L19.9859155,29.1295775 L20.9915493,29.1295775 Z M24.6676056,25.4366197 L25.056338,25.4366197 L25.0985915,25.7915493 C25.284508,25.6394359 25.4859144,25.5225356 25.7028169,25.4408451 C25.9197194,25.3591545 26.1267596,25.3183099 26.3239437,25.3183099 C26.4028173,25.3183099 26.4704223,25.3211267 26.5267606,25.3267606 L26.5267606,25.7830986 C26.4366193,25.7774648 26.3408456,25.7746479 26.2394366,25.7746479 C25.8507023,25.7746479 25.4901425,25.8901397 25.1577465,26.1211268 L25.1577465,29.5774648 L24.6676056,29.5774648 L24.6676056,25.4366197 Z M27.5661972,24.6 C27.3633793,24.6 27.2619718,24.4901419 27.2619718,24.2704225 L27.2619718,24.2450704 C27.2619718,24.025351 27.3633793,23.915493 27.5661972,23.915493 L27.6,23.915493 C27.8028179,23.915493 27.9042254,24.025351 27.9042254,24.2450704 L27.9042254,24.2704225 C27.9042254,24.4901419 27.8028179,24.6 27.6,24.6 L27.5661972,24.6 Z M27.3380282,25.4366197 L27.828169,25.4366197 L27.828169,29.5774648 L27.3380282,29.5774648 L27.3380282,25.4366197 Z M28.6309859,25.4366197 L29.1464789,25.4366197 L30.3633803,29.0619718 L31.5549296,25.4366197 L32.0535211,25.4366197 L30.6169014,29.5774648 L30.0929577,29.5774648 L28.6309859,25.4366197 Z M34.5042254,29.7042254 C33.8225318,29.7042254 33.3239452,29.5169033 33.0084507,29.1422535 C32.6929562,28.7676038 32.5352113,28.2253557 32.5352113,27.515493 C32.5352113,26.8394332 32.6774634,26.3056358 32.9619718,25.9140845 C33.2464803,25.5225333 33.6676028,25.3267606 34.2253521,25.3267606 C35.3126815,25.3267606 35.856338,26.0647814 35.856338,27.5408451 L35.856338,27.6169014 C35.856338,27.6507044 35.8492958,27.6746478 35.8352113,27.6887324 C35.8211267,27.702817 35.7943664,27.7098592 35.7549296,27.7098592 L33.0507042,27.7098592 C33.0619719,28.2281716 33.181689,28.619717 33.4098592,28.884507 C33.6380293,29.1492971 34.0140819,29.2816901 34.5380282,29.2816901 C34.8591565,29.2816901 35.2084488,29.239437 35.5859155,29.1549296 L35.628169,29.5521127 C35.4873232,29.5971833 35.3098602,29.6338027 35.0957746,29.6619718 C34.8816891,29.690141 34.6845079,29.7042254 34.5042254,29.7042254 Z M35.3746479,27.3126761 C35.3746479,26.8168989 35.2802826,26.4295789 35.0915493,26.1507042 C34.902816,25.8718296 34.6140865,25.7323944 34.2253521,25.7323944 C33.8366178,25.7323944 33.543663,25.8718296 33.3464789,26.1507042 C33.1492948,26.4295789 33.0478874,26.8168989 33.0422535,27.3126761 L35.3746479,27.3126761 Z M36.9211268,25.4366197 L37.3098592,25.4366197 L37.343662,25.7492958 C37.8169038,25.4619704 38.301406,25.3183099 38.7971831,25.3183099 C39.0169025,25.3183099 39.2169005,25.347887 39.3971831,25.4070423 C39.5774657,25.4661975 39.7239431,25.5521121 39.8366197,25.6647887 C39.9549302,25.7830992 40.0422532,25.9253513 40.0985915,26.0915493 C40.1549299,26.2577473 40.1830986,26.4647875 40.1830986,26.7126761 L40.1830986,29.5774648 L39.6929577,29.5774648 L39.6929577,26.8394366 C39.6929577,26.625351 39.6746481,26.4549302 39.6380282,26.328169 C39.6014083,26.2014078 39.5408455,26.0957751 39.456338,26.0112676 C39.2929569,25.8478865 39.047889,25.7661972 38.7211268,25.7661972 C38.5183088,25.7661972 38.3014096,25.7943659 38.0704225,25.8507042 C37.8394355,25.9070425 37.6197194,25.9887319 37.4112676,26.0957746 L37.4112676,29.5774648 L36.9211268,29.5774648 L36.9211268,25.4366197 Z M43.2169014,23.7971831 L44.5774648,23.7971831 C45.0901434,23.7971831 45.5098575,23.8450699 45.8366197,23.9408451 C46.1633819,24.0366202 46.4338017,24.197182 46.6478873,24.4225352 C47.0647908,24.8788755 47.2732394,25.6253469 47.2732394,26.6619718 C47.2732394,27.2422564 47.2056345,27.7366177 47.0704225,28.1450704 C46.9352106,28.5535232 46.7549307,28.8619708 46.5295775,29.0704225 C46.1690123,29.4084524 45.5859195,29.5774648 44.7802817,29.5774648 L43.2169014,29.5774648 L43.2169014,23.7971831 Z M44.7295775,29.1295775 C45.4000034,29.1295775 45.8816887,28.9859169 46.1746479,28.6985915 C46.3774658,28.5014075 46.5253516,28.2366214 46.6183099,27.9042254 C46.7112681,27.5718293 46.7577465,27.157749 46.7577465,26.6619718 C46.7577465,26.18873 46.7154934,25.7943678 46.6309859,25.4788732 C46.5464785,25.1633787 46.4112685,24.9098601 46.2253521,24.7183099 C46.0563372,24.5492949 45.8380295,24.4281694 45.5704225,24.3549296 C45.3028156,24.2816898 44.9690161,24.2450704 44.5690141,24.2450704 L43.7239437,24.2450704 L43.7239437,29.1295775 L44.7295775,29.1295775 Z M50.171831,29.7042254 C49.4901374,29.7042254 48.9915509,29.5169033 48.6760563,29.1422535 C48.3605618,28.7676038 48.2028169,28.2253557 48.2028169,27.515493 C48.2028169,26.8394332 48.345069,26.3056358 48.6295775,25.9140845 C48.9140859,25.5225333 49.3352085,25.3267606 49.8929577,25.3267606 C50.9802871,25.3267606 51.5239437,26.0647814 51.5239437,27.5408451 L51.5239437,27.6169014 C51.5239437,27.6507044 51.5169015,27.6746478 51.5028169,27.6887324 C51.4887323,27.702817 51.461972,27.7098592 51.4225352,27.7098592 L48.7183099,27.7098592 C48.7295775,28.2281716 48.8492946,28.619717 49.0774648,28.884507 C49.3056349,29.1492971 49.6816875,29.2816901 50.2056338,29.2816901 C50.5267622,29.2816901 50.8760545,29.239437 51.2535211,29.1549296 L51.2957746,29.5521127 C51.1549289,29.5971833 50.9774659,29.6338027 50.7633803,29.6619718 C50.5492947,29.690141 50.3521136,29.7042254 50.171831,29.7042254 Z M51.0422535,27.3126761 C51.0422535,26.8168989 50.9478883,26.4295789 50.7591549,26.1507042 C50.5704216,25.8718296 50.2816921,25.7323944 49.8929577,25.7323944 C49.5042234,25.7323944 49.2112686,25.8718296 49.0140845,26.1507042 C48.8169004,26.4295789 48.715493,26.8168989 48.7098592,27.3126761 L51.0422535,27.3126761 Z M54.371831,29.6957746 C53.7126728,29.6957746 53.2169031,29.5197201 52.884507,29.1676056 C52.552111,28.8154912 52.3859155,28.27606 52.3859155,27.5492958 C52.3859155,26.8112639 52.5507026,26.2549315 52.8802817,25.8802817 C53.2098608,25.5056319 53.6901377,25.3183099 54.3211268,25.3183099 C54.6816919,25.3183099 55.0028155,25.3661967 55.284507,25.4619718 L55.2507042,25.8676056 C54.9295759,25.7830982 54.6422548,25.7408451 54.3887324,25.7408451 C53.8422508,25.7408451 53.4563392,25.8830972 53.2309859,26.1676056 C53.0056327,26.4521141 52.8929577,26.9070391 52.8929577,27.5323944 C52.8929577,28.1464819 53.0140833,28.5901395 53.256338,28.8633803 C53.4985928,29.1366211 53.9070394,29.2732394 54.4816901,29.2732394 C54.6000006,29.2732394 54.7352105,29.2647888 54.8873239,29.2478873 C55.0394374,29.2309858 55.1661967,29.2112677 55.2676056,29.1887324 L55.3098592,29.5943662 C55.0281676,29.6619722 54.7154947,29.6957746 54.371831,29.6957746 Z M56.5183099,24.6 C56.3154919,24.6 56.2140845,24.4901419 56.2140845,24.2704225 L56.2140845,24.2450704 C56.2140845,24.025351 56.3154919,23.915493 56.5183099,23.915493 L56.5521127,23.915493 C56.7549306,23.915493 56.856338,24.025351 56.856338,24.2450704 L56.856338,24.2704225 C56.856338,24.4901419 56.7549306,24.6 56.5521127,24.6 L56.5183099,24.6 Z M56.2901408,25.4366197 L56.7802817,25.4366197 L56.7802817,29.5774648 L56.2901408,29.5774648 L56.2901408,25.4366197 Z M59.0197183,29.6957746 C58.8169004,29.6957746 58.615494,29.6816903 58.415493,29.6535211 C58.215492,29.625352 58.0422543,29.5887326 57.8957746,29.543662 L57.9380282,29.1549296 C58.2816919,29.2450709 58.633801,29.2901408 58.9943662,29.2901408 C59.366199,29.2901408 59.6492948,29.2253528 59.843662,29.0957746 C60.0380291,28.9661965 60.1352113,28.777466 60.1352113,28.5295775 C60.1352113,28.3605625 60.0887329,28.2225357 59.9957746,28.115493 C59.9028164,28.0084502 59.7887331,27.9253524 59.6535211,27.8661972 C59.5183092,27.807042 59.3295787,27.7408454 59.0873239,27.6676056 C58.8056324,27.5774643 58.581691,27.4943666 58.415493,27.4183099 C58.2492949,27.3422531 58.1070428,27.2281698 57.9887324,27.0760563 C57.8704219,26.9239429 57.8112676,26.7239449 57.8112676,26.4760563 C57.8112676,26.0929558 57.9422522,25.8042263 58.2042254,25.6098592 C58.4661985,25.415492 58.8338005,25.3183099 59.3070423,25.3183099 C59.4704234,25.3183099 59.6464779,25.3309858 59.8352113,25.356338 C60.0239446,25.3816903 60.1887317,25.4169012 60.3295775,25.4619718 L60.3042254,25.8422535 C59.9380263,25.7633799 59.6084522,25.7239437 59.315493,25.7239437 C58.9718293,25.7239437 58.7126769,25.783098 58.5380282,25.9014085 C58.3633794,26.0197189 58.2760563,26.2028157 58.2760563,26.4507042 C58.2760563,26.6084515 58.3211263,26.7366192 58.4112676,26.8352113 C58.5014089,26.9338033 58.6126754,27.0126758 58.7450704,27.071831 C58.8774655,27.1309862 59.0619706,27.1971827 59.2985915,27.2704225 C59.5802831,27.3605638 59.8070414,27.4478869 59.9788732,27.5323944 C60.1507051,27.6169018 60.2971825,27.7366189 60.4183099,27.8915493 C60.5394372,28.0464796 60.6,28.250703 60.6,28.5042254 C60.6,28.8873259 60.4647901,29.1816891 60.1943662,29.3873239 C59.9239423,29.5929588 59.5323969,29.6957746 59.0197183,29.6957746 Z M61.8084507,24.6 C61.6056328,24.6 61.5042254,24.4901419 61.5042254,24.2704225 L61.5042254,24.2450704 C61.5042254,24.025351 61.6056328,23.915493 61.8084507,23.915493 L61.8422535,23.915493 C62.0450714,23.915493 62.1464789,24.025351 62.1464789,24.2450704 L62.1464789,24.2704225 C62.1464789,24.4901419 62.0450714,24.6 61.8422535,24.6 L61.8084507,24.6 Z M61.5802817,25.4366197 L62.0704225,25.4366197 L62.0704225,29.5774648 L61.5802817,29.5774648 L61.5802817,25.4366197 Z M64.9183099,29.6957746 C63.7295715,29.6957746 63.1352113,28.9662045 63.1352113,27.5070423 C63.1352113,26.04788 63.7295715,25.3183099 64.9183099,25.3183099 C66.1070482,25.3183099 66.7014085,26.04788 66.7014085,27.5070423 C66.7014085,28.9662045 66.1070482,29.6957746 64.9183099,29.6957746 Z M64.9183099,29.2732394 C65.3746502,29.2732394 65.7014075,29.126762 65.8985915,28.8338028 C66.0957756,28.5408436 66.1943662,28.0985945 66.1943662,27.5070423 C66.1943662,26.91549 66.0957756,26.4732409 65.8985915,26.1802817 C65.7014075,25.8873225 65.3746502,25.7408451 64.9183099,25.7408451 C64.4619695,25.7408451 64.1352123,25.8873225 63.9380282,26.1802817 C63.7408441,26.4732409 63.6422535,26.91549 63.6422535,27.5070423 C63.6422535,28.0985945 63.7408441,28.5408436 63.9380282,28.8338028 C64.1352123,29.126762 64.4619695,29.2732394 64.9183099,29.2732394 Z M67.7492958,25.4366197 L68.1380282,25.4366197 L68.171831,25.7492958 C68.6450728,25.4619704 69.129575,25.3183099 69.6253521,25.3183099 C69.8450715,25.3183099 70.0450695,25.347887 70.2253521,25.4070423 C70.4056347,25.4661975 70.5521121,25.5521121 70.6647887,25.6647887 C70.7830992,25.7830992 70.8704223,25.9253513 70.9267606,26.0915493 C70.9830989,26.2577473 71.0112676,26.4647875 71.0112676,26.7126761 L71.0112676,29.5774648 L70.5211268,29.5774648 L70.5211268,26.8394366 C70.5211268,26.625351 70.5028171,26.4549302 70.4661972,26.328169 C70.4295773,26.2014078 70.3690145,26.0957751 70.284507,26.0112676 C70.1211259,25.8478865 69.876058,25.7661972 69.5492958,25.7661972 C69.3464779,25.7661972 69.1295786,25.7943659 68.8985915,25.8507042 C68.6676045,25.9070425 68.4478884,25.9887319 68.2394366,26.0957746 L68.2394366,29.5774648 L67.7492958,29.5774648 L67.7492958,25.4366197 Z M73.2084507,29.6957746 C73.0056328,29.6957746 72.8042264,29.6816903 72.6042254,29.6535211 C72.4042244,29.625352 72.2309866,29.5887326 72.084507,29.543662 L72.1267606,29.1549296 C72.4704243,29.2450709 72.8225334,29.2901408 73.1830986,29.2901408 C73.5549314,29.2901408 73.8380272,29.2253528 74.0323944,29.0957746 C74.2267615,28.9661965 74.3239437,28.777466 74.3239437,28.5295775 C74.3239437,28.3605625 74.2774653,28.2225357 74.184507,28.115493 C74.0915488,28.0084502 73.9774655,27.9253524 73.8422535,27.8661972 C73.7070416,27.807042 73.5183111,27.7408454 73.2760563,27.6676056 C72.9943648,27.5774643 72.7704234,27.4943666 72.6042254,27.4183099 C72.4380273,27.3422531 72.2957752,27.2281698 72.1774648,27.0760563 C72.0591543,26.9239429 72,26.7239449 72,26.4760563 C72,26.0929558 72.1309846,25.8042263 72.3929577,25.6098592 C72.6549309,25.415492 73.0225328,25.3183099 73.4957746,25.3183099 C73.6591557,25.3183099 73.8352103,25.3309858 74.0239437,25.356338 C74.212677,25.3816903 74.3774641,25.4169012 74.5183099,25.4619718 L74.4929577,25.8422535 C74.1267587,25.7633799 73.7971846,25.7239437 73.5042254,25.7239437 C73.1605617,25.7239437 72.9014093,25.783098 72.7267606,25.9014085 C72.5521118,26.0197189 72.4647887,26.2028157 72.4647887,26.4507042 C72.4647887,26.6084515 72.5098587,26.7366192 72.6,26.8352113 C72.6901413,26.9338033 72.8014078,27.0126758 72.9338028,27.071831 C73.0661978,27.1309862 73.250703,27.1971827 73.4873239,27.2704225 C73.7690155,27.3605638 73.9957738,27.4478869 74.1676056,27.5323944 C74.3394375,27.6169018 74.4859149,27.7366189 74.6070423,27.8915493 C74.7281696,28.0464796 74.7887324,28.250703 74.7887324,28.5042254 C74.7887324,28.8873259 74.6535225,29.1816891 74.3830986,29.3873239 C74.1126747,29.5929588 73.7211293,29.6957746 73.2084507,29.6957746 Z" id="Data-Driven-Decision" fill="#4A4A4A"></path>
                    </g>
                </g>
            </g>
        </g>
    </g>
</svg>
