
<svg width="310px" height="167px" viewBox="0 0 310 167" version="1.1" xmlns="http://www.w3.org/2000/svg" xmlns:xlink="http://www.w3.org/1999/xlink">
    <!-- Generator: Sketch 49.1 (51147) - http://www.bohemiancoding.com/sketch -->
    <desc>Created with Sketch.</desc>
    <defs></defs>
    <g id="Page-1" stroke="none" stroke-width="1" fill="none" fill-rule="evenodd">
        <g id="Brand" transform="translate(-132.000000, -1611.000000)">
            <g id="LUCA-AI-Copy" transform="translate(132.000000, 1611.000000)">
                <g transform="translate(32.000000, 42.000000)" fill="#2C2C2C" id="Shape">
                    <path d="M6.48732394,74.9591304 L8.48978873,74.9591304 L14.7950704,93.7526087 L13.0573944,93.7526087 L11.4024648,88.6143478 L3.81461268,88.6143478 L2.24242958,93.7526087 L0.5875,93.7526087 L6.48732394,74.9591304 Z M10.9142606,87.21 L7.4471831,76.6608696 L4.25316901,87.21 L10.9142606,87.21 Z" fill-rule="nonzero"></path>
                    <polygon fill-rule="nonzero" points="17.8732394 74.9591304 19.528169 74.9591304 19.528169 93.7526087 17.8732394 93.7526087"></polygon>
                    <path d="M29.9294014,74.9591304 L35.1589789,74.9591304 C36.1375466,74.9393569 37.1143603,75.0504893 38.0633803,75.2895652 C38.8267629,75.4905873 39.5233166,75.8895837 40.0823944,76.446087 C40.549051,76.9302198 40.8973679,77.5154357 41.1001761,78.156087 C41.3488688,78.9327579 41.4690488,79.7447148 41.4559859,80.56 C41.5810309,82.1685434 41.0801703,83.7633028 40.0575704,85.0126087 C38.8823216,86.1019578 37.3038423,86.6502101 35.7051056,86.5243478 L31.5677817,86.5243478 L31.5677817,93.7526087 L29.9128521,93.7526087 L29.9294014,74.9591304 Z M35.0431338,85.0869565 C35.8254382,85.1113251 36.6074794,85.0307506 37.3683099,84.8473913 C37.8840709,84.7133455 38.3551191,84.4454377 38.7336268,84.0708696 C39.1088122,83.6851635 39.3793551,83.2103695 39.5197183,82.6913043 C39.6810266,82.0125369 39.7478526,81.3148119 39.7183099,80.6178261 C39.796893,79.4955732 39.4646257,78.38301 38.7832746,77.4869565 C38.4073892,77.0777071 37.917508,76.7900215 37.3765845,76.6608696 C36.5843202,76.4814728 35.772363,76.4037435 34.9603873,76.4295652 L31.5760563,76.4295652 L31.5760563,85.0869565 L35.0431338,85.0869565 Z" fill-rule="nonzero"></path>
                    <path d="M43.1109155,87.02 C43.1109155,82.2782609 45.0416667,79.9073913 48.903169,79.9073913 C52.7646714,79.9073913 54.6954225,82.2782609 54.6954225,87.02 C54.6954225,91.7617391 52.7646714,94.1326087 48.903169,94.1326087 C45.0416667,94.1326087 43.1109155,91.7617391 43.1109155,87.02 Z M52.1302817,91.3321739 C52.8654188,90.0190717 53.2018127,88.5207366 53.0984155,87.02 C53.2018127,85.5192634 52.8654188,84.0209283 52.1302817,82.7078261 C51.3917201,81.708114 50.1837097,81.1661976 48.9445423,81.2786957 C47.7028258,81.1648703 46.4917327,81.706762 45.7505282,82.7078261 C45.0153911,84.0209283 44.6789972,85.5192634 44.7823944,87.02 C44.6789972,88.5207366 45.0153911,90.0190717 45.7505282,91.3321739 C46.4917327,92.333238 47.7028258,92.8751297 48.9445423,92.7613043 C50.1837097,92.8738024 51.3917201,92.331886 52.1302817,91.3321739 Z" fill-rule="nonzero"></path>
                    <polygon fill-rule="nonzero" points="56.2676056 80.2873913 57.9225352 80.2873913 61.1661972 91.9930435 64.3105634 80.2873913 65.965493 80.2873913 69.5732394 92.1582609 72.543838 80.2873913 74.0580986 80.2873913 70.4503521 93.7526087 68.6795775 93.7526087 65.1876761 82.3526087 62.0598592 93.7526087 60.1980634 93.7526087"></polygon>
                    <path d="M77.1445423,92.3317391 C76.1184859,91.1201449 75.6054577,89.3578261 75.6054577,87.0447826 C75.5044853,85.2067416 75.9912996,83.3842275 76.9955986,81.8404348 C77.9609867,80.544644 79.5188064,79.8261297 81.1329225,79.9321739 C84.6744718,79.9321739 86.4452465,82.3305797 86.4452465,87.1273913 L86.4452465,87.3752174 C86.4522746,87.457808 86.4287221,87.5401044 86.3790493,87.6065217 C86.3039197,87.6649168 86.2088658,87.6916062 86.1142606,87.6808696 L77.2852113,87.6808696 C77.2202522,89.0494722 77.6325726,90.3982301 78.4519366,91.4973913 C79.1966549,92.3565217 80.4213028,92.786087 82.1258803,92.786087 C83.2769288,92.7766984 84.4232713,92.6381471 85.5433099,92.3730435 L85.6757042,93.67 C85.1100982,93.8360659 84.5316373,93.9548812 83.9463028,94.0252174 C83.307331,94.1133605 82.66333,94.1602695 82.0183099,94.1656522 C79.8007042,94.1711594 78.176115,93.5598551 77.1445423,92.3317391 Z M84.8565141,86.383913 C84.9285742,85.0616802 84.6060434,83.7478308 83.9297535,82.6086957 C83.291958,81.685784 82.2115208,81.1700503 81.0915493,81.253913 C79.9743617,81.1962584 78.9035995,81.705888 78.2450704,82.6086957 C77.5438072,83.7395142 77.2006242,85.0552578 77.2603873,86.383913 L84.8565141,86.383913 Z" fill-rule="nonzero"></path>
                    <path d="M89.8875,80.2873913 L91.1535211,80.2873913 L91.2941901,81.443913 C91.8821956,80.9566773 92.5478824,80.5713335 93.2635563,80.303913 C93.9070043,80.0509334 94.5910844,79.9165843 95.2825704,79.9073913 C95.5390845,79.9073913 95.7625,79.9073913 95.9445423,79.9073913 L95.9445423,81.386087 C95.6466549,81.386087 95.340493,81.386087 95.009507,81.386087 C93.7463999,81.3876189 92.5148463,81.7801362 91.484507,82.5095652 L91.484507,93.7526087 L89.8875,93.7526087 L89.8875,80.2873913 Z" fill-rule="nonzero"></path>
                    <path d="M98.8572183,92.3317391 C97.831162,91.1201449 97.3181338,89.3578261 97.3181338,87.0447826 C97.2171613,85.2067416 97.7039757,83.3842275 98.7082746,81.8404348 C99.6736628,80.544644 101.231482,79.8261297 102.845599,79.9321739 C106.387148,79.9321739 108.157923,82.3305797 108.157923,87.1273913 L108.157923,87.3752174 C108.164951,87.457808 108.141398,87.5401044 108.091725,87.6065217 C108.016596,87.6649168 107.921542,87.6916062 107.826937,87.6808696 L98.9978873,87.6808696 C98.9287512,89.0499906 99.3414935,90.4001285 100.164613,91.4973913 C100.909331,92.3565217 102.133979,92.786087 103.838556,92.786087 C104.989605,92.7766984 106.135947,92.6381471 107.255986,92.3730435 L107.38838,93.67 C106.822774,93.8360659 106.244313,93.9548812 105.658979,94.0252174 C105.019976,94.113066 104.375994,94.1599736 103.730986,94.1656522 C101.51338,94.173913 99.8832746,93.5543478 98.8572183,92.3317391 Z M106.56919,86.383913 C106.64125,85.0616802 106.318719,83.7478308 105.64243,82.6086957 C105.007714,81.6911034 103.935032,81.1760685 102.820775,81.253913 C101.697851,81.1905459 100.619536,81.7008035 99.9577465,82.6086957 C99.2564833,83.7395142 98.9133002,85.0552578 98.9730634,86.383913 L106.56919,86.383913 Z" fill-rule="nonzero"></path>
                    <path d="M110.938204,87.0695652 C110.827969,85.2057754 111.311711,83.3550013 112.32007,81.7826087 C113.282453,80.4831283 114.842412,79.7636273 116.457394,79.8743478 C117.763141,79.8858778 119.047618,80.2057546 120.20581,80.8078261 L120.20581,74.1082609 L121.802817,74.1082609 L121.802817,93.7526087 L120.536796,93.7526087 L120.454049,92.9265217 C119.861633,93.2998071 119.221466,93.5915705 118.55088,93.793913 C117.873571,94.0091373 117.168124,94.1232683 116.457394,94.1326087 C112.777934,94.1601449 110.938204,91.8057971 110.938204,87.0695652 Z M118.385387,92.4886957 C119.014014,92.3336771 119.624276,92.112133 120.20581,91.8278261 L120.20581,82.1543478 C119.129207,81.6407826 117.956341,81.3593132 116.763556,81.3282609 C115.522116,81.2160894 114.3118,81.7576337 113.569542,82.7573913 C112.841296,84.0728825 112.508056,85.569965 112.609683,87.0695652 C112.500214,88.5641259 112.824868,90.0584895 113.544718,91.3734783 C114.224215,92.3358264 115.365307,92.864512 116.540141,92.7613043 C117.157173,92.7556541 117.771235,92.6752101 118.368838,92.5217391 L118.385387,92.4886957 Z" fill-rule="nonzero"></path>
                    <path d="M131.740669,74.9591304 L136.17588,74.9591304 C137.570342,74.9202459 138.963289,75.0787775 140.313204,75.43 C141.31945,75.6998598 142.232381,76.2398493 142.952817,76.9913043 C144.309859,78.4782609 144.996655,80.8986957 144.996655,84.2691304 C145.031881,85.9020159 144.80847,87.5302044 144.334683,89.0934783 C144.012206,90.2288344 143.405681,91.2636121 142.572183,92.1004348 C141.397183,93.2018841 139.499531,93.7526087 136.879225,93.7526087 L131.782042,93.7526087 L131.740669,74.9591304 Z M136.705458,92.3069565 C138.88169,92.3069565 140.453873,91.8443478 141.405458,90.9108696 C142.109246,90.1924086 142.609009,89.3000343 142.853521,88.3252174 C143.182511,87.0045365 143.335533,85.6462956 143.308627,84.2856522 C143.334939,82.992861 143.195905,81.7020016 142.894894,80.4443478 C142.672621,79.5190146 142.216848,78.6658632 141.570951,77.966087 C140.97572,77.3918124 140.239355,76.9843518 139.436092,76.7847826 C138.369027,76.5277633 137.273358,76.4083843 136.17588,76.4295652 L133.428697,76.4295652 L133.428697,92.3069565 L136.705458,92.3069565 Z" fill-rule="nonzero"></path>
                    <path d="M149.522887,92.3317391 C148.491315,91.1201449 147.975528,89.3578261 147.975528,87.0447826 C147.874556,85.2067416 148.36137,83.3842275 149.365669,81.8404348 C150.331057,80.544644 151.888877,79.8261297 153.502993,79.9321739 C157.044542,79.9321739 158.815317,82.3305797 158.815317,87.1273913 L158.815317,87.3752174 C158.822345,87.457808 158.798793,87.5401044 158.74912,87.6065217 C158.67399,87.6649168 158.578936,87.6916062 158.484331,87.6808696 L149.655282,87.6808696 C149.593744,89.0490428 150.005722,90.396679 150.822007,91.4973913 C151.566725,92.3565217 152.794131,92.786087 154.504225,92.786087 C155.652509,92.77615 156.796049,92.6376019 157.91338,92.3730435 L158.045775,93.67 C157.480169,93.8360659 156.901708,93.9548812 156.316373,94.0252174 C155.677401,94.1133605 155.0334,94.1602695 154.38838,94.1656522 C152.170775,94.1711594 150.548944,93.5598551 149.522887,92.3317391 Z M157.226585,86.383913 C157.303716,85.0612129 156.980827,83.7459043 156.299824,82.6086957 C155.665109,81.6911034 154.592427,81.1760685 153.478169,81.253913 C152.347388,81.1735549 151.2563,81.6868894 150.598592,82.6086957 C149.891048,83.737139 149.544684,85.0540133 149.605634,86.383913 L157.226585,86.383913 Z" fill-rule="nonzero"></path>
                    <path d="M163.225704,92.4143478 C162.122418,91.2743478 161.570775,89.5202899 161.570775,87.1521739 C161.570775,84.784058 162.122418,82.9776812 163.225704,81.7330435 C164.438548,80.4562934 166.159039,79.7868131 167.91743,79.9073913 C168.981182,79.8880658 170.040822,80.0443746 171.053521,80.37 L170.945951,81.6917391 C170.032805,81.4332398 169.089862,81.2943944 168.140845,81.2786957 C166.359038,81.2786957 165.101291,81.7413043 164.367606,82.6665217 C163.63392,83.5917391 163.267077,85.0704348 163.267077,87.1026087 C163.267077,89.0907246 163.661502,90.5336232 164.450352,91.4313043 C165.239202,92.3289855 166.568662,92.7723188 168.438732,92.7613043 C168.881276,92.7593479 169.323333,92.7317654 169.762676,92.6786957 C170.176676,92.6367793 170.588208,92.57336 170.995599,92.4886957 L171.136268,93.8021739 C170.135245,94.0329999 169.110238,94.1439268 168.082923,94.1326087 C165.923239,94.173913 164.301408,93.5626087 163.225704,92.4143478 Z" fill-rule="nonzero"></path>
                    <path d="M174.065493,76.4956522 L174.065493,76.4130435 C174.065493,75.7026087 174.396479,75.3473913 175.058451,75.3473913 L175.166021,75.3473913 C175.827993,75.3473913 176.158979,75.7026087 176.158979,76.4130435 L176.158979,76.4956522 C176.158979,77.2143478 175.827993,77.5695652 175.166021,77.5695652 L175.058451,77.5695652 C174.396479,77.5695652 174.065493,77.2143478 174.065493,76.4956522 Z M174.313732,80.2873913 L175.910739,80.2873913 L175.910739,93.7526087 L174.313732,93.7526087 L174.313732,80.2873913 Z" fill-rule="nonzero"></path>
                    <path d="M181.214789,94.0004348 C180.654873,93.920451 180.101701,93.7989557 179.559859,93.6369565 L179.692254,92.3730435 C180.815366,92.67051 181.972543,92.8204704 183.134507,92.8191304 C184.098107,92.8799013 185.058548,92.658851 185.898239,92.1830435 C186.523472,91.7838553 186.886597,91.0808821 186.849824,90.3408696 C186.871596,89.8510793 186.709281,89.3708399 186.394718,88.9943478 C186.08993,88.6379746 185.707934,88.3554859 185.277641,88.1682609 C184.677269,87.9209172 184.064068,87.705827 183.440669,87.523913 C182.694127,87.2917785 181.961931,87.0159384 181.247887,86.6978261 C180.701388,86.4431485 180.224512,86.060583 179.857746,85.5826087 C179.451024,85.0160466 179.24701,84.3293737 179.278521,83.6330435 C179.212034,82.5398883 179.69239,81.4848644 180.561092,80.816087 C181.627111,80.1282806 182.885301,79.7983385 184.152289,79.8743478 C184.728118,79.8774279 185.303102,79.918824 185.873415,79.9982609 C186.418199,80.0592046 186.955798,80.1726317 187.478697,80.3369565 L187.395951,81.576087 C186.339637,81.3341904 185.260738,81.204052 184.177113,81.1878261 C183.294558,81.1284976 182.414013,81.329594 181.64507,81.766087 C181.078929,82.1781606 180.766045,82.8528644 180.817606,83.5504348 C180.797202,84.0086017 180.957637,84.4564774 181.264437,84.7978261 C181.56922,85.1274392 181.938038,85.3916464 182.348415,85.5743478 C182.937695,85.821276 183.539856,86.0363695 184.152289,86.2186957 C184.908098,86.4393873 185.646549,86.7155005 186.36162,87.0447826 C186.923665,87.3156269 187.414036,87.7146275 187.793134,88.2095652 C188.212341,88.7864299 188.422449,89.4885347 188.388908,90.2004348 C188.450615,91.3182462 187.955059,92.394287 187.064965,93.0752174 C185.934281,93.8585368 184.575119,94.2449769 183.200704,94.173913 C182.535485,94.1624983 181.871885,94.10453 181.214789,94.0004348 Z" fill-rule="nonzero"></path>
                    <path d="M191.29331,76.4956522 L191.29331,76.4130435 C191.29331,75.7026087 191.616021,75.3473913 192.277993,75.3473913 L192.393838,75.3473913 C193.047535,75.3473913 193.378521,75.7026087 193.378521,76.4130435 L193.378521,76.4956522 C193.378521,77.2143478 193.047535,77.5695652 192.393838,77.5695652 L192.277993,77.5695652 C191.616021,77.5695652 191.29331,77.2143478 191.29331,76.4956522 Z M191.541549,80.2873913 L193.130282,80.2873913 L193.130282,93.7526087 L191.541549,93.7526087 L191.541549,80.2873913 Z" fill-rule="nonzero"></path>
                    <path d="M196.597359,87.02 C196.597359,82.2782609 198.52811,79.9073913 202.389613,79.9073913 C206.251115,79.9073913 208.181866,82.2782609 208.181866,87.02 C208.181866,91.7617391 206.251115,94.1326087 202.389613,94.1326087 C198.52811,94.1326087 196.597359,91.7617391 196.597359,87.02 Z M205.600176,91.3321739 C206.331991,90.0180335 206.665468,88.5198855 206.560035,87.02 C206.665468,85.5201145 206.331991,84.0219665 205.600176,82.7078261 C204.788447,81.798342 203.626337,81.2781793 202.406162,81.2781793 C201.185987,81.2781793 200.023877,81.798342 199.212148,82.7078261 C198.483902,84.0233172 198.150662,85.5203998 198.252289,87.02 C198.150662,88.5196002 198.483902,90.0166828 199.212148,91.3321739 C200.023877,92.241658 201.185987,92.7618207 202.406162,92.7618207 C203.626337,92.7618207 204.788447,92.241658 205.600176,91.3321739 Z" fill-rule="nonzero"></path>
                    <path d="M211.62412,80.2873913 L212.890141,80.2873913 L212.997711,81.3034783 C214.415075,80.4086508 216.053911,79.9252557 217.73081,79.9073913 C218.395204,79.8979502 219.056962,79.9927279 219.691901,80.1882609 C220.223034,80.3520638 220.709777,80.6345827 221.115141,81.0143478 C221.495003,81.4066586 221.778284,81.8817787 221.942606,82.4021739 C222.140776,83.0552077 222.232963,83.7357001 222.215669,84.4178261 L222.215669,93.736087 L220.618662,93.736087 L220.618662,84.8473913 C220.635196,84.2908965 220.573925,83.734818 220.43662,83.1952174 C220.333783,82.8059813 220.131324,82.4501334 219.84912,82.1626087 C219.190988,81.5798194 218.327535,81.2825729 217.449472,81.3365217 C216.735099,81.3440832 216.024102,81.4355825 215.331162,81.6091304 C214.586379,81.7982989 213.866902,82.0756266 213.188028,82.4352174 L213.188028,93.7608696 L211.591021,93.7608696 L211.62412,80.2873913 Z" fill-rule="nonzero"></path>
                    <path d="M227.436972,94.0004348 C226.863349,93.9211134 226.296374,93.7996238 225.740669,93.6369565 L225.881338,92.3730435 C227.001498,92.6711926 228.156031,92.8211709 229.315317,92.8191304 C230.281448,92.8786493 231.244185,92.6577319 232.087324,92.1830435 C232.708087,91.7806498 233.067446,91.0788628 233.030634,90.3408696 C233.050794,89.8526982 232.891924,89.3739445 232.583803,88.9943478 C232.27562,88.6416255 231.894509,88.3597914 231.466725,88.1682609 C230.863479,87.9210794 230.247533,87.7059951 229.621479,87.523913 C228.877053,87.2934663 228.147511,87.0175845 227.436972,86.6978261 C226.887784,86.4474803 226.409938,86.0641366 226.046831,85.5826087 C225.636532,85.0178 225.432139,84.3298507 225.467606,83.6330435 C225.406394,82.5557154 225.87594,81.5164158 226.725352,80.8491304 C227.791842,80.1623906 229.049677,79.8325418 230.316549,79.9073913 C230.89239,79.9101752 231.467394,79.9515727 232.037676,80.0313043 C232.585155,80.0923334 233.125492,80.2057534 233.651232,80.37 L233.568486,81.6091304 C232.512088,81.3677154 231.43324,81.2375832 230.349648,81.2208696 C229.467093,81.1615411 228.586548,81.3626375 227.817606,81.7991304 C227.248902,82.2091 226.935316,82.8853187 226.990141,83.5834783 C226.966585,84.0406356 227.124114,84.4886951 227.428697,84.8308696 C227.733481,85.1604827 228.102299,85.4246899 228.512676,85.6073913 C229.101955,85.8543194 229.704117,86.069413 230.316549,86.2517391 C231.0745,86.4740675 231.815586,86.7501315 232.534155,87.0778261 C233.093137,87.3534514 233.582498,87.7516305 233.965669,88.2426087 C234.378407,88.8222569 234.585199,89.5230171 234.553169,90.2334783 C234.613913,91.3492559 234.122174,92.4237223 233.2375,93.1082609 C232.102555,93.8468208 230.758118,94.1975896 229.406338,94.1078261 C228.748177,94.1179379 228.090114,94.0820532 227.436972,94.0004348 Z" fill-rule="nonzero"></path>
                    <path d="M14.7288732,60.4117391 C13.1781908,60.4151702 11.6897652,59.80296 10.5915493,58.71 L1.70457746,49.8130435 C0.605114148,48.7197727 -0.00895782778,47.2317886 -6.43040309e-16,45.6826087 L-6.43040309e-16,1.69347826 C-8.46829659e-16,0.781007805 0.74093721,0.0413043478 1.65492958,0.0413043478 L13.5621479,0.0413043478 C14.4761403,0.0413043478 15.2170775,0.781007805 15.2170775,1.69347826 L15.2170775,43.7330435 C15.174308,44.2817987 15.3741198,44.821773 15.7639703,45.2109743 C16.1538208,45.6001757 16.6946957,45.7996548 17.2443662,45.7569565 L38.8908451,45.7569565 C39.8048374,45.7569565 40.5457746,46.49666 40.5457746,47.4091304 L40.5457746,58.776087 C40.5457746,59.6885574 39.8048374,60.4282609 38.8908451,60.4282609 L14.7288732,60.4117391 Z" fill-rule="nonzero"></path>
                    <path d="M92.0885563,60.4117391 C93.6403201,60.420682 95.130786,59.8076326 96.2258803,58.71 L105.088028,49.8130435 C106.187491,48.7197727 106.801563,47.2317886 106.792606,45.6826087 L106.792606,1.69347826 C106.792606,0.781007805 106.051668,0.0413043478 105.137676,0.0413043478 L93.247007,0.0413043478 C92.3330147,0.0413043478 91.5920775,0.781007805 91.5920775,1.69347826 L91.5920775,43.7330435 C91.634847,44.2817987 91.4350351,44.821773 91.0451846,45.2109743 C90.6553341,45.6001757 90.1144592,45.7996548 89.5647887,45.7569565 L73.2471831,45.7569565 C72.6975126,45.7996548 72.1566377,45.6001757 71.7667872,45.2109743 C71.3769367,44.821773 71.1771249,44.2817987 71.2198944,43.7330435 L71.2198944,1.69347826 C71.2198944,0.781007805 70.4789572,0.0413043478 69.5649648,0.0413043478 L57.6577465,0.0413043478 C56.7437541,0.0413043478 56.0028169,0.781007805 56.0028169,1.69347826 L56.0028169,45.6991304 C55.9938591,47.2483103 56.607931,48.7362945 57.7073944,49.8295652 L66.6191901,58.71 C67.717406,59.80296 69.2058317,60.4151702 70.7565141,60.4117391 L92.0885563,60.4117391 Z" fill-rule="nonzero"></path>
                    <path d="M122.257923,45.7073913 C122.254486,47.2554917 122.867717,48.7414388 123.9625,49.8378261 L132.874296,58.7182609 C133.96939,59.8158934 135.459856,60.4289429 137.01162,60.42 L166.800352,60.42 C167.714344,60.42 168.455282,59.6802965 168.455282,58.7678261 L168.455282,47.3926087 C168.455282,46.4801382 167.714344,45.7404348 166.800352,45.7404348 L139.452641,45.7404348 C138.90435,45.7805902 138.365789,45.5799854 137.977843,45.1910982 C137.589897,44.8022109 137.391162,44.2637304 137.433627,43.7165217 L137.433627,16.7365217 C137.391162,16.1893131 137.589897,15.6508326 137.977843,15.2619453 C138.365789,14.8730581 138.90435,14.6724533 139.452641,14.7126087 L166.800352,14.7126087 C167.714344,14.7126087 168.455282,13.9729052 168.455282,13.0604348 L168.455282,1.65217391 C168.455282,0.739703457 167.714344,-7.5341209e-16 166.800352,-8.09289159e-16 L137.01162,-8.09289159e-16 C135.459856,-0.00894291188 133.96939,0.604106558 132.874296,1.70173913 L123.9625,10.5821739 C122.867717,11.6785612 122.254486,13.1645083 122.257923,14.7126087 L122.257923,45.7073913 Z" fill-rule="nonzero"></path>
                    <path d="M232.848592,10.6482609 C231.491549,9.29347826 225.252465,3.04826087 223.953345,1.75956522 C222.858251,0.661932645 221.367785,0.0488831751 219.816021,0.057826087 L198.492254,0.057826087 C196.94049,0.0488831751 195.450024,0.661932645 194.35493,1.75956522 C193.064085,3.04826087 186.825,9.29347826 185.459683,10.6482609 C184.3649,11.7446481 183.751669,13.2305953 183.755106,14.7786957 L183.755106,58.776087 C183.755106,59.6885574 184.496043,60.4282609 185.410035,60.4282609 L197.333803,60.4282609 C198.247795,60.4282609 198.988732,59.6885574 198.988732,58.776087 L198.988732,41.4282609 C198.945963,40.8795057 199.145775,40.3395314 199.535625,39.95033 C199.925476,39.5611287 200.466351,39.3616495 201.016021,39.4043478 L217.358451,39.4043478 C217.906741,39.3641924 218.445302,39.5647972 218.833248,39.9536844 C219.221194,40.3425717 219.419929,40.8810522 219.377465,41.4282609 L219.377465,58.776087 C219.377465,59.6885574 220.118402,60.4282609 221.032394,60.4282609 L232.947887,60.4282609 C233.86188,60.4282609 234.602817,59.6885574 234.602817,58.776087 L234.602817,14.7621739 C234.594245,13.211522 233.962198,11.7292796 232.848592,10.6482609 Z M219.352641,26.6165217 C219.395105,27.1637304 219.19637,27.7022109 218.808424,28.0910982 C218.420479,28.4799854 217.881917,28.6805902 217.333627,28.6404348 L200.991197,28.6404348 C200.441527,28.6831331 199.900652,28.4836539 199.510801,28.0944526 C199.120951,27.7052512 198.921139,27.1652769 198.963908,26.6165217 L198.963908,16.7034783 C198.923686,16.1561008 199.124625,15.6184362 199.514161,15.2311363 C199.903697,14.8438363 200.443076,14.6454323 200.991197,14.6878261 L217.333627,14.6878261 C217.881105,14.6451016 218.419892,14.8437017 218.808199,15.2313615 C219.196505,15.6190214 219.395437,16.1569117 219.352641,16.7034783 L219.352641,26.6165217 Z" fill-rule="nonzero"></path>
                    <path d="M232.848592,10.6482609 C231.491549,9.29347826 225.252465,3.04826087 223.953345,1.75956522 C222.858251,0.661932645 221.367785,0.0488831751 219.816021,0.057826087 L198.492254,0.057826087 C196.94049,0.0488831751 195.450024,0.661932645 194.35493,1.75956522 C193.064085,3.04826087 186.825,9.29347826 185.459683,10.6482609 C184.3649,11.7446481 183.751669,13.2305953 183.755106,14.7786957 L183.755106,58.776087 C183.755106,59.6885574 184.496043,60.4282609 185.410035,60.4282609 L197.333803,60.4282609 C198.247795,60.4282609 198.988732,59.6885574 198.988732,58.776087 L198.988732,41.4282609 C198.945963,40.8795057 199.145775,40.3395314 199.535625,39.95033 C199.925476,39.5611287 200.466351,39.3616495 201.016021,39.4043478 L217.358451,39.4043478 C217.906741,39.3641924 218.445302,39.5647972 218.833248,39.9536844 C219.221194,40.3425717 219.419929,40.8810522 219.377465,41.4282609 L219.377465,58.776087 C219.377465,59.6885574 220.118402,60.4282609 221.032394,60.4282609 L232.947887,60.4282609 C233.86188,60.4282609 234.602817,59.6885574 234.602817,58.776087 L234.602817,14.7621739 C234.594245,13.211522 233.962198,11.7292796 232.848592,10.6482609 Z M219.352641,26.6165217 C219.395105,27.1637304 219.19637,27.7022109 218.808424,28.0910982 C218.420479,28.4799854 217.881917,28.6805902 217.333627,28.6404348 L200.991197,28.6404348 C200.441527,28.6831331 199.900652,28.4836539 199.510801,28.0944526 C199.120951,27.7052512 198.921139,27.1652769 198.963908,26.6165217 L198.963908,16.7034783 C198.923686,16.1561008 199.124625,15.6184362 199.514161,15.2311363 C199.903697,14.8438363 200.443076,14.6454323 200.991197,14.6878261 L217.333627,14.6878261 C217.881105,14.6451016 218.419892,14.8437017 218.808199,15.2313615 C219.196505,15.6190214 219.395437,16.1569117 219.352641,16.7034783 L219.352641,26.6165217 Z" fill-rule="nonzero"></path>
                </g>
                <g id="protection-area-copy" fill="#FBA6D9">
                    <rect id="Rectangle-2" opacity="0.2" x="1" y="12" width="30" height="153"></rect>
                    <rect id="Rectangle-2" opacity="0.2" x="267" y="12" width="30" height="153"></rect>
                    <rect id="Rectangle" opacity="0.2" x="0" y="12" width="297" height="29"></rect>
                    <rect id="Rectangle" opacity="0.2" x="0" y="137" width="297" height="29"></rect>
                    <text id="X-Copy" font-family="HelveticaNeue-Bold, Helvetica Neue" font-size="7" font-weight="bold">
                        <tspan x="302.1655" y="113">X</tspan>
                    </text>
                    <text id="X-Copy-2" font-family="HelveticaNeue-Bold, Helvetica Neue" font-size="7" font-weight="bold">
                        <tspan x="302.1655" y="98">X</tspan>
                    </text>
                    <text id="2X" font-family="HelveticaNeue-Bold, Helvetica Neue" font-size="7" font-weight="bold">
                        <tspan x="299.7195" y="30">2X</tspan>
                    </text>
                    <text id="2X" font-family="HelveticaNeue-Bold, Helvetica Neue" font-size="7" font-weight="bold">
                        <tspan x="299.7195" y="154">2X</tspan>
                    </text>
                    <text id="2X" font-family="HelveticaNeue-Bold, Helvetica Neue" font-size="7" font-weight="bold">
                        <tspan x="278.7195" y="9">2X</tspan>
                    </text>
                    <text id="2X" font-family="HelveticaNeue-Bold, Helvetica Neue" font-size="7" font-weight="bold">
                        <tspan x="11.7195" y="9">2X</tspan>
                    </text>
                    <g id="medio" transform="translate(0.000000, 87.000000)">
                        <rect id="ruler-line-copy-3" x="0" y="29" width="310" height="1"></rect>
                        <rect id="ruler-line-copy-4" x="0" y="15" width="310" height="1"></rect>
                        <rect id="ruler-line-copy-5" x="0" y="0" width="310" height="1"></rect>
                    </g>
                    <g id="izq">
                        <rect id="ruler-line-copy-3" transform="translate(0.500000, 83.500000) rotate(-90.000000) translate(-0.500000, -83.500000) " x="-83" y="83" width="167" height="1"></rect>
                        <rect id="ruler-line-copy-3" transform="translate(15.500000, 89.500000) rotate(-90.000000) translate(-15.500000, -89.500000) " x="-61" y="89" width="153" height="1"></rect>
                        <rect id="ruler-line-copy-4" transform="translate(30.500000, 83.500000) rotate(-90.000000) translate(-30.500000, -83.500000) " x="-53" y="83" width="167" height="1"></rect>
                    </g>
                    <g id="dcha" transform="translate(266.000000, 0.000000)">
                        <rect id="ruler-line-copy-7" transform="translate(31.500000, 83.500000) rotate(-90.000000) translate(-31.500000, -83.500000) " x="-52" y="83" width="167" height="1"></rect>
                        <rect id="ruler-line-copy-6" transform="translate(16.500000, 89.500000) rotate(-90.000000) translate(-16.500000, -89.500000) " x="-60" y="89" width="153" height="1"></rect>
                        <rect id="ruler-line-copy-8" transform="translate(1.450000, 83.025000) rotate(-90.000000) translate(-1.450000, -83.025000) " x="-81.575" y="82.525" width="166.05" height="1"></rect>
                    </g>
                    <g id="abajo" transform="translate(0.000000, 136.000000)">
                        <rect id="ruler-line-copy-3" x="0" y="29" width="310" height="1"></rect>
                        <rect id="ruler-line-copy-4" x="0" y="15" width="298" height="1"></rect>
                        <rect id="ruler-line-copy-5" x="0" y="0" width="310" height="1"></rect>
                    </g>
                    <g id="arriba" transform="translate(0.000000, 12.000000)">
                        <rect id="ruler-line-copy-3" x="0" y="29" width="310" height="1"></rect>
                        <rect id="ruler-line-copy-4" x="0" y="15" width="298" height="1"></rect>
                        <rect id="ruler-line-copy-5" x="0" y="0" width="310" height="1"></rect>
                    </g>
                </g>
            </g>
        </g>
    </g>
</svg>
