
<svg width="404px" height="63px" viewBox="0 0 404 63" version="1.1" xmlns="http://www.w3.org/2000/svg" xmlns:xlink="http://www.w3.org/1999/xlink">
    <!-- Generator: Sketch 49.1 (51147) - http://www.bohemiancoding.com/sketch -->
    <desc>Created with Sketch.</desc>
    <defs></defs>
    <g id="Page-1" stroke="none" stroke-width="1" fill="none" fill-rule="evenodd">
        <g id="Brand" transform="translate(-132.000000, -2854.000000)" fill="#2C2C2C">
            <g id="endoso_luca_ai_izq" transform="translate(132.000000, 2854.000000)">
                <g id="Shape">
                    <path d="M6.25198347,0.9156 L8.34710744,0.9156 L15.0247934,21.0252 L13.1884298,21.0252 L11.4021488,15.5232 L3.41396694,15.5232 L1.75289256,21 L0,21 L6.25198347,0.9156 Z M10.9597521,14.028 L7.30371901,2.7384 L3.88140496,14.028 L10.9597521,14.028 Z" fill-rule="nonzero"></path>
                    <polygon fill-rule="nonzero" points="18.3636364 0.9156 20.1165289 0.9156 20.1165289 21 18.3636364 21"></polygon>
                    <path d="M31.0595868,0.9156 L36.6104132,0.9156 C37.6477128,0.893079045 38.6834088,1.00888558 39.6904959,1.26 C40.503814,1.48144198 41.2441107,1.91625972 41.8357025,2.52 C42.3333577,3.03766661 42.7048139,3.6645171 42.9208264,4.3512 C43.1831514,5.18484974 43.3099905,6.05565718 43.2964463,6.93 C43.2964463,9.0468 42.8011846,10.6344 41.8106612,11.6928 C40.8201377,12.7512 39.2814876,13.2888 37.1947107,13.3056 L32.8124793,13.3056 L32.8124793,21 L31.0595868,21 L31.0595868,0.9156 Z M36.4935537,11.76 C37.3357258,11.7896535 38.1780256,11.7048898 38.997686,11.508 C40.1150349,11.2068296 40.9853359,10.3245975 41.2764463,9.198 C41.4428986,8.46845086 41.5130622,7.72000408 41.485124,6.972 C41.5741793,5.76736804 41.2207218,4.57174718 40.4918182,3.612 C40.1010781,3.15955897 39.5829169,2.8373179 39.0060331,2.688 C38.1620144,2.50241703 37.2987313,2.42061882 36.435124,2.4444 L32.8124793,2.4444 L32.8124793,11.76 L36.4935537,11.76 Z" fill-rule="nonzero"></path>
                    <path d="M45.0242975,13.818 C45.0242975,8.7444 47.0804683,6.2076 51.1928099,6.2076 C55.3051515,6.2076 57.3585399,8.7444 57.3529752,13.818 C57.3529752,18.8972 55.2995868,21.4368 51.1928099,21.4368 C47.0860331,21.4368 45.0298623,18.8972 45.0242975,13.818 Z M54.5817355,18.48 C55.35414,17.0700356 55.7076183,15.466388 55.6000826,13.86 C55.7076183,12.253612 55.35414,10.6499644 54.5817355,9.24 C53.7976306,8.16561321 52.5120291,7.58247071 51.1928099,7.7028 C49.8727397,7.57734611 48.5847375,8.16157758 47.8038843,9.24 C47.0190452,10.6311247 46.6508846,12.2210378 46.7438017,13.818 C46.6374033,15.442816 47.0059139,17.063441 47.8038843,18.48 C48.5888259,19.5525607 49.8748898,20.1327253 51.1928099,20.0088 C52.5101716,20.129345 53.7946579,19.5498922 54.5817355,18.48 Z" fill-rule="nonzero"></path>
                    <polygon fill-rule="nonzero" points="58.9639669 6.6108 60.7168595 6.6108 64.1642149 19.1436 67.5030579 6.6108 69.2809917 6.6108 73.1039669 19.32 76.2591736 6.6108 77.8618182 6.6108 74.038843 21 72.1106612 21 68.3961983 8.82 65.107438 21 63.1375207 21"></polygon>
                    <path d="M81.108843,19.5048 C79.9958953,18.2056 79.4394215,16.3212 79.4394215,13.8516 C79.34861,11.8765031 79.8834956,9.92341783 80.9669421,8.274 C81.9804936,6.88830744 83.6264697,6.11869622 85.3324793,6.2328 C89.0886777,6.2328 90.9695592,8.8004 90.975124,13.9356 L90.975124,14.2044 C90.9858701,14.2926766 90.958522,14.3813566 90.9,14.448 C90.8208765,14.507122 90.7225402,14.534111 90.6245455,14.5236 L81.2507438,14.5236 C81.1854629,15.9905632 81.624712,17.435327 82.4944628,18.6144 C83.3291736,19.53 84.5812397,19.992 86.4009091,19.992 C87.6179733,19.9806351 88.8300748,19.8341486 90.0152066,19.5552 L90.1654545,20.9328 C89.5657018,21.1152446 88.9512381,21.2445375 88.3290909,21.3192 C87.6481503,21.4087742 86.962414,21.4564628 86.2757025,21.462 C83.9218182,21.462 82.202314,20.8152 81.108843,19.5048 Z M89.2890083,13.146 C89.3681632,11.7289373 89.0283235,10.3200427 88.3123967,9.0972 C87.6414726,8.11091033 86.500401,7.55755026 85.3157851,7.644 C84.1225018,7.5726387 82.9759792,8.12100485 82.277438,9.0972 C81.5266107,10.3080844 81.1597786,11.7202551 81.2257025,13.146 L89.2890083,13.146 Z" fill-rule="nonzero"></path>
                    <path d="M94.6061157,6.6108 L95.9917355,6.6108 L96.1336364,7.854 C96.762197,7.33486347 97.4695952,6.92078143 98.2287603,6.6276 C98.9124185,6.35720544 99.6394387,6.21486556 100.373967,6.2076 C100.646639,6.2076 100.880358,6.2076 101.075124,6.2076 L101.075124,7.8204 C100.766281,7.8204 100.432397,7.8204 100.081818,7.8204 C98.7410823,7.81688228 97.4330814,8.23703711 96.342314,9.0216 L96.342314,21 L94.6728926,21 L94.6061157,6.6108 Z" fill-rule="nonzero"></path>
                    <path d="M104.105124,19.5048 C102.992176,18.2056 102.435702,16.3212 102.435702,13.8516 C102.327613,11.8829073 102.8419,9.93034494 103.904793,8.274 C104.927033,6.89439612 106.571841,6.12679896 108.278678,6.2328 C112.034876,6.2328 113.912975,8.8004 113.912975,13.9356 L113.912975,14.2044 C113.923721,14.2926766 113.896373,14.3813566 113.837851,14.448 C113.760372,14.5104477 113.660653,14.5378162 113.562397,14.5236 L104.213636,14.5236 C104.144195,15.991091 104.583862,17.4372326 105.457355,18.6144 C106.241983,19.5328 107.54135,19.992 109.355455,19.992 C110.575273,19.980638 111.790141,19.8341555 112.978099,19.5552 L113.128347,20.9328 C112.52574,21.1151833 111.90851,21.2444706 111.283636,21.3192 C110.605519,21.4090402 109.922544,21.4567306 109.238595,21.462 C106.918099,21.462 105.173554,20.8152 104.105124,19.5048 Z M112.285289,13.146 C112.366515,11.7276619 112.023433,10.3173802 111.300331,9.0972 C110.630953,8.11361831 109.493798,7.56061705 108.312066,7.644 C107.118472,7.57102887 105.971216,8.11974585 105.273719,9.0972 C104.522892,10.3080844 104.15606,11.7202551 104.221983,13.146 L112.285289,13.146 Z" fill-rule="nonzero"></path>
                    <path d="M116.90124,13.8768 C116.788036,11.8929044 117.299173,9.92358128 118.361983,8.2488 C119.378803,6.85785808 121.032451,6.08760515 122.744215,6.2076 C124.128563,6.21971727 125.490288,6.56230556 126.717438,7.2072 L126.717438,0 L128.38686,0 L128.38686,21 L127.042975,21 L126.976198,20.16 C126.351353,20.56017 125.674345,20.8711363 124.964545,21.084 C124.247075,21.3186945 123.498568,21.4432922 122.744215,21.4536 C118.821074,21.4424 116.873416,18.9168 116.90124,13.8768 Z M124.789256,19.6728 C125.455663,19.509177 126.102249,19.2725651 126.717438,18.9672 L126.717438,8.6184 C125.578301,8.05235593 124.331304,7.74006373 123.061405,7.7028 C121.742468,7.58415944 120.457654,8.16694472 119.672479,9.24 C118.900075,10.6499644 118.546597,12.253612 118.654132,13.86 C118.532249,15.4644044 118.87741,17.0697956 119.647438,18.48 C120.372994,19.5050723 121.581289,20.069963 122.827686,19.9668 C123.491059,19.95023 124.149877,19.8514864 124.789256,19.6728 Z" fill-rule="nonzero"></path>
                    <path d="M0,35.28 L4.7077686,35.28 C6.17326116,35.2401825 7.6370784,35.4070011 9.05661157,35.7756 C10.1249113,36.0708727 11.0939891,36.6513599 11.8612397,37.4556 C13.3025069,39.046 14.0231405,41.6416 14.0231405,45.2424 C14.0730859,46.9863247 13.847693,48.7271766 13.3553719,50.4 C13.0099557,51.6156248 12.3670938,52.7246571 11.4856198,53.6256 C10.2419008,54.8016 8.22190083,55.3896 5.44231405,55.3896 L0,55.3896 L0,35.28 Z M5.23363636,53.8188 C7.54578512,53.8188 9.21520661,53.3232 10.2419008,52.3236 C10.9803368,51.5523926 11.5042493,50.5993187 11.7610744,49.56 C12.1150815,48.1464796 12.2779283,46.6913503 12.2452066,45.234 C12.273233,43.8486079 12.1245541,42.4653201 11.8028099,41.118 C11.5704784,40.128856 11.0873276,39.2172079 10.4004959,38.472 C9.77000588,37.8569507 8.98990748,37.419529 8.13842975,37.2036 C7.00482558,36.9275126 5.8404425,36.8004542 4.67438017,36.8256 L1.75289256,36.8256 L1.75289256,53.8188 L5.23363636,53.8188 Z" fill-rule="nonzero"></path>
                    <path d="M18.8477686,53.8608 C17.7348209,52.556 17.1783471,50.6716 17.1783471,48.2076 C17.0709911,46.2378139 17.5883616,44.2846452 18.6557851,42.63 C19.6693366,41.2443074 21.3153126,40.4746962 23.0213223,40.5888 C26.7775207,40.5888 28.6556198,43.1564 28.6556198,48.2916 L28.6556198,48.5604 C28.6663659,48.6486766 28.6390178,48.7373566 28.5804959,48.804 C28.5030165,48.8664477 28.4032974,48.8938162 28.3050413,48.8796 L18.9896694,48.8796 C18.9243885,50.3465632 19.3636376,51.791327 20.2333884,52.9704 C21.0680992,53.886 22.3201653,54.348 24.1314876,54.348 C25.3513062,54.336638 26.5661737,54.1901555 27.7541322,53.9112 L27.9043802,55.2888 C27.3019844,55.4720199 26.6846809,55.6013226 26.0596694,55.6752 C25.3815521,55.7650402 24.6985766,55.8127306 24.0146281,55.818 C21.7024793,55.818 19.9328926,55.1712 18.8477686,53.8608 Z M27.0279339,47.502 C27.1070888,46.0849373 26.7672491,44.6760427 26.0513223,43.4532 C25.3736416,42.4748584 24.2373591,41.9238207 23.0547107,42 C21.8668982,41.9329126 20.7273094,42.4809737 20.0330579,43.4532 C19.2822306,44.6640844 18.9153984,46.0762551 18.9813223,47.502 L27.0279339,47.502 Z" fill-rule="nonzero"></path>
                    <path d="M33.3884298,53.9532 C32.2476584,52.7268 31.6744904,50.8508 31.6689256,48.3252 C31.6689256,45.7548 32.2365289,43.8228 33.3800826,42.5124 C34.6752176,41.1407488 36.5131479,40.4255792 38.3883471,40.5636 C39.5209299,40.5409222 40.6493457,40.7084182 41.7271901,41.0592 L41.6186777,42.4704 C40.6248906,42.18103 39.5979374,42.0229049 38.5636364,42 C36.6771901,42 35.3416529,42.504 34.5653719,43.4868 C33.7890909,44.4696 33.3884298,46.0908 33.3884298,48.2664 C33.3884298,50.442 33.8057851,51.9456 34.6404959,52.8948 C35.4752066,53.844 36.8942149,54.3228 38.8808264,54.3228 C39.3495821,54.3175723 39.8177096,54.2867269 40.2831405,54.2304 C40.7230707,54.1854784 41.1604614,54.1181924 41.5936364,54.0288 L41.7355372,55.44 C40.6706839,55.6853045 39.5808556,55.8037179 38.4885124,55.7928 C36.201405,55.7928 34.5013774,55.1796 33.3884298,53.9532 Z" fill-rule="nonzero"></path>
                    <path d="M44.8490083,36.9096 L44.8490083,36.8256 C44.8490083,36.0612 45.1995868,35.6748 45.9007438,35.6748 L46.0176033,35.6748 C46.7187603,35.6748 47.0693388,36.0612 47.0693388,36.8256 L47.0693388,36.9096 C47.0693388,37.6824 46.7187603,38.0604 46.0176033,38.0604 L45.9090909,38.0604 C45.1995868,38.0604 44.8490083,37.6824 44.8490083,36.9096 Z M45.1161157,40.9668 L46.7855372,40.9668 L46.7855372,55.3812 L45.1161157,55.3812 L45.1161157,40.9668 Z" fill-rule="nonzero"></path>
                    <path d="M52.4281818,55.6416 C51.8212706,55.5618302 51.2213113,55.4354616 50.6335537,55.2636 L50.7838017,53.9112 C51.974772,54.2239821 53.2006283,54.3820667 54.4314876,54.3816 C55.4557211,54.4462921 56.4765498,54.209897 57.3696694,53.7012 C58.0316459,53.2751281 58.4168398,52.5254874 58.3796694,51.7356 C58.3990671,51.2106585 58.226856,50.6967272 57.8955372,50.2908 C57.5685891,49.9242664 57.1633413,49.6370722 56.7102479,49.4508 C56.0745235,49.1675132 55.4222411,48.9234612 54.7570248,48.72 C53.965599,48.4844965 53.1880715,48.2040468 52.4281818,47.88 C51.8496911,47.6119017 51.3452879,47.2052454 50.9590909,46.6956 C50.5277065,46.0869669 50.3103442,45.3509375 50.341405,44.604 C50.2657723,43.4331713 50.7762706,42.3016979 51.7019835,41.5884 C52.8340913,40.8514374 54.1707676,40.4982262 55.5166116,40.5804 C56.1252046,40.5836575 56.7329802,40.625742 57.336281,40.7064 C57.9022033,40.781505 58.4607103,40.9051551 59.0057025,41.076 L58.9222314,42.4032 C57.799129,42.1446229 56.6519409,42.0066512 55.4999174,41.9916 C54.5637672,41.9281727 53.6295923,42.1412997 52.8121488,42.6048 C52.2152865,43.0502598 51.8900165,43.7748374 51.9523967,44.52 C51.9294498,45.0094676 52.0971506,45.4886354 52.4198347,45.8556 C52.7412647,46.2135158 53.1336662,46.4996665 53.5717355,46.6956 C54.1957447,46.9606102 54.8338886,47.1905638 55.4832231,47.3844 C56.2891857,47.6308508 57.075955,47.9368837 57.8371074,48.3 C58.4309837,48.5925459 58.9505951,49.0177645 59.356281,49.5432 C59.7996537,50.1622291 60.0204396,50.9146953 59.982314,51.6768 C60.0471532,52.8715888 59.5225375,54.0217437 58.58,54.7512 C57.3793735,55.5427376 55.9556121,55.9200961 54.5233058,55.8264 C53.8214334,55.8153946 53.1212547,55.7536355 52.4281818,55.6416 Z" fill-rule="nonzero"></path>
                    <path d="M63.0790909,36.9096 L63.0790909,36.8256 C63.0790909,36.0612 63.4296694,35.6748 64.1308264,35.6748 L64.2727273,35.6748 C64.9738843,35.6748 65.3244628,36.0612 65.3244628,36.8256 L65.3244628,36.9096 C65.3244628,37.6824 64.9738843,38.0604 64.2727273,38.0604 L64.1558678,38.0604 C63.4380165,38.0604 63.0790909,37.6824 63.0790909,36.9096 Z M63.3461983,40.9668 L65.0156198,40.9668 L65.0156198,55.3812 L63.3461983,55.3812 L63.3461983,40.9668 Z" fill-rule="nonzero"></path>
                    <path d="M68.6883471,48.174 C68.6883471,43.1004 70.7445179,40.5636 74.8568595,40.5636 C78.9692011,40.5636 81.0225895,43.1004 81.0170248,48.174 C81.0170248,53.2532 78.9636364,55.7928 74.8568595,55.7928 C70.7500826,55.7928 68.6939118,53.2532 68.6883471,48.174 Z M78.2457851,52.794 C79.0324635,51.3885671 79.3977621,49.7839057 79.2975207,48.174 C79.4091688,46.5699821 79.0553847,44.9678656 78.2791736,43.5624 C77.4204442,42.5852707 76.1864777,42.0257498 74.8902479,42.0257498 C73.5940182,42.0257498 72.3600517,42.5852707 71.5013223,43.5624 C70.7217599,44.9668107 70.3650337,46.569117 70.4746281,48.174 C70.366295,49.7814654 70.7228909,51.386104 71.5013223,52.794 C72.3628847,53.766198 73.5958009,54.3221503 74.8902479,54.3221503 C76.184695,54.3221503 77.4176111,53.766198 78.2791736,52.794 L78.2457851,52.794 Z" fill-rule="nonzero"></path>
                    <path d="M84.6146281,40.9668 L85.9752066,40.9668 L86.0920661,42.0588 C87.5909302,41.1016177 89.3252573,40.5838404 91.1003306,40.5636 C91.8018594,40.5543387 92.500456,40.6563905 93.1704132,40.866 C93.7408554,41.0392308 94.2617752,41.3474265 94.6895868,41.7648 C95.1075453,42.1793331 95.4196945,42.6894297 95.5994215,43.2516 C95.8102735,43.9509846 95.9088959,44.6797437 95.8915702,45.4104 L95.8915702,55.3812 L94.2221488,55.3812 L94.2221488,45.8556 C94.2381172,45.256009 94.1735389,44.6569944 94.0301653,44.0748 C93.92021,43.6594216 93.7044195,43.2801192 93.4041322,42.9744 C92.7027621,42.3604234 91.7847192,42.0575184 90.8582645,42.1344 C90.100897,42.1428328 89.3471883,42.2415204 88.6128926,42.4284 C87.8217772,42.612717 87.0563722,42.8948617 86.3341322,43.2684 L86.3341322,55.3812 L84.6647107,55.3812 L84.6146281,40.9668 Z" fill-rule="nonzero"></path>
                    <path d="M101.367273,55.6416 C100.760361,55.5618302 100.160402,55.4354616 99.5726446,55.2636 L99.7145455,53.9112 C100.908462,54.2234295 102.137007,54.3814991 103.370579,54.3816 C104.394812,54.4462921 105.415641,54.209897 106.30876,53.7012 C106.968115,53.2727265 107.352468,52.5247225 107.31876,51.7356 C107.338158,51.2106585 107.165947,50.6967272 106.834628,50.2908 C106.505434,49.9268196 106.1008,49.640061 105.649339,49.4508 C105.012664,49.1817693 104.360398,48.9517491 103.696116,48.762 C102.90469,48.5264965 102.127162,48.2460468 101.367273,47.922 C100.786001,47.6584514 100.280573,47.250969 99.8981818,46.7376 C99.4602159,46.1322208 99.2421559,45.3938289 99.2804959,44.646 C99.2048633,43.4751713 99.7153615,42.3436979 100.641074,41.6304 C101.773182,40.8934374 103.109858,40.5402262 104.455702,40.6224 C105.064295,40.6256575 105.672071,40.667742 106.275372,40.7484 C106.855268,40.821792 107.427781,40.9454515 107.986529,41.118 L107.903058,42.4452 C106.779955,42.1866229 105.632767,42.0486512 104.480744,42.0336 C103.544594,41.9701727 102.610419,42.1832997 101.792975,42.6468 C101.193472,43.0745814 100.8533,43.7814246 100.891488,44.52 C100.869729,45.0078175 101.033951,45.4855763 101.350579,45.8556 C101.676845,46.2117411 102.071567,46.4975132 102.510826,46.6956 C103.134836,46.9606102 103.772979,47.1905638 104.422314,47.3844 C105.228277,47.6308508 106.015046,47.9368837 106.776198,48.3 C107.370075,48.5925459 107.889686,49.0177645 108.295372,49.5432 C108.738745,50.1622291 108.959531,50.9146953 108.921405,51.6768 C108.986244,52.8715888 108.461628,54.0217437 107.519091,54.7512 C106.315887,55.5439448 104.889096,55.9213299 103.45405,55.8264 C102.754962,55.8150796 102.057581,55.7533212 101.367273,55.6416 Z" fill-rule="nonzero"></path>
                    <path d="M121.600661,55.3812 C120.853507,55.1360812 120.138754,54.8004163 119.472149,54.3816 L119.363636,55.3812 L118.019752,55.3812 L118.019752,34.3812 L119.689174,34.3812 L119.689174,41.7312 C120.340406,41.3688993 121.032638,41.0868675 121.750909,40.8912 C122.449891,40.6970601 123.17103,40.5954044 123.896116,40.5888 C125.491613,40.4954034 127.02953,41.2031756 128.002893,42.4788 C128.946116,43.7472 129.421901,45.6288 129.421901,48.1404 C129.421901,51.002 128.84595,53.0712 127.69405,54.348 C126.70873,55.3616375 125.336334,55.897538 123.929504,55.818 C123.135402,55.7949025 122.349714,55.647538 121.600661,55.3812 Z M125.565537,53.9112 C126.103323,53.6670119 126.548338,53.2545326 126.834298,52.7352 C127.503969,51.2836593 127.805123,49.687533 127.710744,48.09 C127.710744,45.948 127.335124,44.3772 126.600579,43.3524 C125.878227,42.4554528 124.764679,41.9720546 123.620661,42.0588 C122.954062,42.0695709 122.291757,42.1684165 121.650744,42.3528 C120.986313,42.5292145 120.342665,42.77704 119.730909,43.092 L119.730909,53.1132 C120.334783,53.4760357 120.982933,53.7583979 121.659091,53.9532 C122.333607,54.157119 123.033268,54.264571 123.737521,54.2724 C124.365428,54.2839367 124.988581,54.1608071 125.565537,53.9112 Z" fill-rule="nonzero"></path>
                    <path d="M136.625455,62.202 L136.416777,60.7572 C137.093067,60.864972 137.777138,60.9155488 138.461818,60.9084 C139.10986,60.9205526 139.757062,60.8557042 140.39,60.7152 C140.842071,60.6178145 141.263435,60.4101246 141.617025,60.1104 C141.938894,59.7979449 142.1698,59.4029177 142.284793,58.968 C142.447118,58.3033169 142.517342,57.6192401 142.493471,56.9352 L142.493471,54.4152 C141.053167,55.2891317 139.408893,55.7643852 137.727273,55.7928 C137.02263,55.7984221 136.321416,55.6935654 135.648843,55.482 C134.496305,55.1441937 133.58788,54.2489266 133.228182,53.0964 C133.016768,52.3971389 132.918133,51.6682884 132.936033,50.9376 L132.936033,40.9668 L134.605455,40.9668 L134.605455,50.5008 C134.589933,51.0976009 134.65451,51.6937803 134.797438,52.2732 C134.908195,52.6907023 135.123776,53.0725288 135.423471,53.382 C136.115764,53.9827994 137.015559,54.2846317 137.927603,54.222 C138.679829,54.2187501 139.428639,54.1199695 140.156281,53.928 C140.934346,53.7358214 141.687783,53.4539583 142.401653,53.088 L142.401653,40.9668 L144.071074,40.9668 L144.071074,56.994 C144.090075,57.8176114 143.997403,58.6399846 143.79562,59.4384 C143.634634,60.0418977 143.327808,60.5959517 142.902479,61.0512 C142.026033,61.9584 140.607025,62.4036 138.637107,62.4036 C137.961301,62.4094435 137.286843,62.3418519 136.625455,62.202 Z" fill-rule="nonzero"></path>
                    <path d="M182.083802,62.37 C180.51724,62.376873 179.01355,61.7504007 177.910248,60.6312 C176.608099,59.3208 170.31438,52.9704 168.937107,51.5928 C167.832738,50.4779473 167.214136,48.9669736 167.217603,47.3928 L167.217603,2.6544 C167.217603,1.72656162 167.965029,0.9744 168.887025,0.9744 L180.915207,0.9744 C181.837203,0.9744 182.584628,1.72656162 182.584628,2.6544 L182.584628,45.4104 C182.544053,45.9669965 182.746752,46.5137164 183.139699,46.9075393 C183.532646,47.3013622 184.076748,47.5031078 184.629669,47.46 L206.465702,47.46 C207.387699,47.46 208.135124,48.2121616 208.135124,49.14 L208.135124,60.7068 C208.135124,61.6346384 207.387699,62.3868 206.465702,62.3868 L182.083802,62.37 Z" fill-rule="nonzero"></path>
                    <path d="M260.120909,62.37 C261.687471,62.376873 263.19116,61.7504007 264.294463,60.6312 C265.604959,59.3208 271.898678,52.9704 273.267603,51.5928 C274.376694,50.4811163 274.996144,48.9680713 274.987107,47.3928 L274.987107,2.6544 C274.987107,1.72656162 274.239682,0.9744 273.317686,0.9744 L261.264463,0.9744 C260.342467,0.9744 259.595041,1.72656162 259.595041,2.6544 L259.595041,45.4104 C259.638212,45.9661718 259.437539,46.5131214 259.045832,46.9073103 C258.654125,47.3014991 258.110619,47.503444 257.558347,47.46 L241.114545,47.46 C240.561624,47.5031078 240.017522,47.3013622 239.624575,46.9075393 C239.231628,46.5137164 239.02893,45.9669965 239.069504,45.4104 L239.069504,2.6544 C239.069504,1.72656162 238.322079,0.9744 237.400083,0.9744 L225.371901,0.9744 C224.449905,0.9744 223.702479,1.72656162 223.702479,2.6544 L223.702479,47.4096 C223.699012,48.9837736 224.317614,50.4947473 225.421983,51.6096 L234.395124,60.648 C235.498426,61.7672007 237.002116,62.393673 238.568678,62.3868 L260.120909,62.37 Z" fill-rule="nonzero"></path>
                    <path d="M290.554463,47.418 C290.545427,48.9932713 291.164876,50.5063163 292.273967,51.618 L301.263802,60.648 C302.367104,61.7672007 303.870794,62.393673 305.437355,62.3868 L335.486942,62.3868 C336.408938,62.3868 337.156364,61.6346384 337.156364,60.7068 L337.156364,49.1316 C337.156364,48.2037616 336.408938,47.4516 335.486942,47.4516 L307.899752,47.4516 C307.34748,47.495044 306.803974,47.2930991 306.412267,46.8989103 C306.020561,46.5047214 305.819887,45.9577718 305.863058,45.402 L305.863058,17.9508 C305.819887,17.3950282 306.020561,16.8480786 306.412267,16.4538897 C306.803974,16.0597009 307.34748,15.857756 307.899752,15.9012 L335.486942,15.9012 C336.408938,15.9012 337.156364,15.1490384 337.156364,14.2212 L337.156364,2.604 C337.156364,1.67616162 336.408938,0.924 335.486942,0.924 L305.437355,0.924 C303.872003,0.914906471 302.368485,1.53828098 301.263802,2.6544 L292.273967,11.7012 C291.164876,12.8128837 290.545427,14.3259287 290.554463,15.9012 L290.554463,47.418 Z" fill-rule="nonzero"></path>
                    <path d="M402.113554,11.76 C400.744628,10.3824 394.450909,4.032 393.140413,2.7216 C392.037111,1.60239927 390.533421,0.975927 388.96686,0.9828 L367.456364,0.9828 C365.889802,0.975927 364.386112,1.60239927 363.28281,2.7216 C361.980661,4.032 355.686942,10.3824 354.309669,11.76 C353.200578,12.8716837 352.581129,14.3847287 352.590165,15.96 L352.590165,60.6984 C352.590165,61.6262384 353.337591,62.3784 354.259587,62.3784 L366.287769,62.3784 C367.209765,62.3784 367.95719,61.6262384 367.95719,60.6984 L367.95719,43.0584 C367.914046,42.5004026 368.115608,41.951334 368.508872,41.5555777 C368.902136,41.1598214 369.447748,40.9569826 370.002231,41.0004 L386.471074,41.0004 C387.024166,40.9595683 387.567443,41.1635517 387.958787,41.5589886 C388.35013,41.9544255 388.550605,42.5019752 388.507769,43.0584 L388.507769,60.6984 C388.507769,61.6262384 389.255194,62.3784 390.17719,62.3784 L402.197025,62.3784 C403.119021,62.3784 403.866446,61.6262384 403.866446,60.6984 L403.866446,15.96 C403.866671,14.3798486 403.234902,12.866106 402.113554,11.76 Z M388.499421,28.0056 C388.541963,28.5604593 388.342575,29.106501 387.953148,29.5016213 C387.563721,29.8967416 387.02277,30.1018615 386.471074,30.0636 L369.97719,30.0636 C369.422706,30.1070174 368.877095,29.9041786 368.483831,29.5084223 C368.090566,29.112666 367.889005,28.5635974 367.932149,28.0056 L367.932149,17.9256 C367.889005,17.3676026 368.090566,16.818534 368.483831,16.4227777 C368.877095,16.0270214 369.422706,15.8241826 369.97719,15.8676 L386.471074,15.8676 C387.024166,15.8267683 387.567443,16.0307517 387.958787,16.4261886 C388.35013,16.8216255 388.550605,17.3691752 388.507769,17.9256 L388.499421,28.0056 Z" fill-rule="nonzero"></path>
                    <path d="M402.113554,11.76 C400.744628,10.3824 394.450909,4.032 393.140413,2.7216 C392.037111,1.60239927 390.533421,0.975927 388.96686,0.9828 L367.456364,0.9828 C365.889802,0.975927 364.386112,1.60239927 363.28281,2.7216 C361.980661,4.032 355.686942,10.3824 354.309669,11.76 C353.200578,12.8716837 352.581129,14.3847287 352.590165,15.96 L352.590165,60.6984 C352.590165,61.6262384 353.337591,62.3784 354.259587,62.3784 L366.287769,62.3784 C367.209765,62.3784 367.95719,61.6262384 367.95719,60.6984 L367.95719,43.0584 C367.914046,42.5004026 368.115608,41.951334 368.508872,41.5555777 C368.902136,41.1598214 369.447748,40.9569826 370.002231,41.0004 L386.471074,41.0004 C387.024166,40.9595683 387.567443,41.1635517 387.958787,41.5589886 C388.35013,41.9544255 388.550605,42.5019752 388.507769,43.0584 L388.507769,60.6984 C388.507769,61.6262384 389.255194,62.3784 390.17719,62.3784 L402.197025,62.3784 C403.119021,62.3784 403.866446,61.6262384 403.866446,60.6984 L403.866446,15.96 C403.866671,14.3798486 403.234902,12.866106 402.113554,11.76 Z M388.499421,28.0056 C388.541963,28.5604593 388.342575,29.106501 387.953148,29.5016213 C387.563721,29.8967416 387.02277,30.1018615 386.471074,30.0636 L369.97719,30.0636 C369.422706,30.1070174 368.877095,29.9041786 368.483831,29.5084223 C368.090566,29.112666 367.889005,28.5635974 367.932149,28.0056 L367.932149,17.9256 C367.889005,17.3676026 368.090566,16.818534 368.483831,16.4227777 C368.877095,16.0270214 369.422706,15.8241826 369.97719,15.8676 L386.471074,15.8676 C387.024166,15.8267683 387.567443,16.0307517 387.958787,16.4261886 C388.35013,16.8216255 388.550605,17.3691752 388.507769,17.9256 L388.499421,28.0056 Z" fill-rule="nonzero"></path>
                </g>
            </g>
        </g>
    </g>
</svg>
