
<svg width="179px" height="72px" viewBox="0 0 179 72" version="1.1" xmlns="http://www.w3.org/2000/svg" xmlns:xlink="http://www.w3.org/1999/xlink">
    <!-- Generator: Sketch 49.1 (51147) - http://www.bohemiancoding.com/sketch -->
    <desc>Created with Sketch.</desc>
    <defs></defs>
    <g id="Page-1" stroke="none" stroke-width="1" fill="none" fill-rule="evenodd">
        <g id="Brand" transform="translate(-469.000000, -723.000000)" fill="#2C2C2C">
            <g id="LUCA-AI" transform="translate(469.000000, 723.000000)">
                <g id="Shape">
                    <path d="M4.94140845,56.8111304 L6.46669014,56.8111304 L11.2694366,71.0546087 L9.94584507,71.0546087 L8.68528169,67.1603478 L2.90559859,67.1603478 L1.70806338,71.0546087 L0.4475,71.0546087 L4.94140845,56.8111304 Z M8.31341549,66.096 L5.67253521,58.1008696 L3.23964789,66.096 L8.31341549,66.096 Z" fill-rule="nonzero"></path>
                    <polygon fill-rule="nonzero" points="13.6140845 56.8111304 14.8746479 56.8111304 14.8746479 71.0546087 13.6140845 71.0546087"></polygon>
                    <path d="M22.7972887,56.8111304 L26.780669,56.8111304 C27.5260461,56.7961441 28.2700872,56.8803708 28.9929577,57.0615652 C29.5744279,57.2139188 30.1049943,57.5163161 30.5308451,57.938087 C30.8862984,58.3050087 31.1516122,58.7485407 31.3060915,59.234087 C31.4955213,59.8227217 31.5870627,60.4380997 31.5771127,61.056 C31.6723597,62.2751066 31.2908531,63.4837663 30.5119366,64.4306087 C29.6167471,65.2562206 28.414416,65.6717382 27.1966549,65.5763478 L24.0452465,65.5763478 L24.0452465,71.0546087 L22.7846831,71.0546087 L22.7972887,56.8111304 Z M26.6924296,64.4869565 C27.2883125,64.5054253 27.8839949,64.4443583 28.4635211,64.3053913 C28.8563774,64.2037987 29.2151758,64.0007528 29.5034859,63.7168696 C29.7892655,63.424545 29.9953385,63.0647011 30.1022535,62.6713043 C30.2251224,62.1568701 30.2760239,61.6280679 30.2535211,61.0998261 C30.3133781,60.2492765 30.0602894,59.4060708 29.5413028,58.7269565 C29.2549901,58.4167885 28.8818465,58.1987531 28.4698239,58.1008696 C27.8663545,57.9649057 27.247885,57.9059951 26.6294014,57.9255652 L24.0515493,57.9255652 L24.0515493,64.4869565 L26.6924296,64.4869565 Z" fill-rule="nonzero"></path>
                    <path d="M32.8376761,65.952 C32.8376761,62.3582609 34.3083333,60.5613913 37.2496479,60.5613913 C40.1909624,60.5613913 41.6616197,62.3582609 41.6616197,65.952 C41.6616197,69.5457391 40.1909624,71.3426087 37.2496479,71.3426087 C34.3083333,71.3426087 32.8376761,69.5457391 32.8376761,65.952 Z M39.7077465,69.2201739 C40.267702,68.2249806 40.5239339,67.0894004 40.4451761,65.952 C40.5239339,64.8145996 40.267702,63.6790194 39.7077465,62.6838261 C39.1451826,61.9261496 38.2250384,61.515434 37.281162,61.6006957 C36.3353439,61.514428 35.4128517,61.9251249 34.8482746,62.6838261 C34.2883191,63.6790194 34.0320872,64.8145996 34.1108451,65.952 C34.0320872,67.0894004 34.2883191,68.2249806 34.8482746,69.2201739 C35.4128517,69.9788751 36.3353439,70.389572 37.281162,70.3033043 C38.2250384,70.388566 39.1451826,69.9778504 39.7077465,69.2201739 Z" fill-rule="nonzero"></path>
                    <polygon fill-rule="nonzero" points="42.8591549 60.8493913 44.1197183 60.8493913 46.5904225 69.7210435 48.985493 60.8493913 50.2460563 60.8493913 52.9940845 69.8462609 55.2567958 60.8493913 56.4102113 60.8493913 53.6621831 71.0546087 52.3133803 71.0546087 49.6535915 62.4146087 47.2711268 71.0546087 45.852993 71.0546087"></polygon>
                    <path d="M58.761162,69.9777391 C57.9796127,69.0594783 57.588838,67.7238261 57.588838,65.9707826 C57.5119271,64.577741 57.8827346,63.1964672 58.6477113,62.0264348 C59.3830495,61.0443618 60.569644,60.4998036 61.7991197,60.5801739 C64.4967254,60.5801739 65.8455282,62.397913 65.8455282,66.0333913 L65.8455282,66.2212174 C65.8508815,66.2838124 65.8329415,66.3461844 65.7951056,66.3965217 C65.7378793,66.440779 65.6654765,66.4610068 65.5934155,66.4528696 L58.8683099,66.4528696 C58.8188304,67.4901263 59.1328958,68.5123428 59.757007,69.3453913 C60.3242606,69.9965217 61.2570775,70.322087 62.5554577,70.322087 C63.4322138,70.3149714 64.3053854,70.2099641 65.1585211,70.0090435 L65.2593662,70.992 C64.8285429,71.1178605 64.387928,71.20791 63.9420775,71.2612174 C63.4553713,71.3280206 62.9648344,71.3635727 62.4735211,71.3676522 C60.7843662,71.3718261 59.5469131,70.9085217 58.761162,69.9777391 Z M64.6353873,65.469913 C64.6902756,64.4677997 64.4446033,63.4720402 63.9294718,62.6086957 C63.4436617,61.9092258 62.6206903,61.5183539 61.7676056,61.581913 C60.9166414,61.5382169 60.1010396,61.9244625 59.5994366,62.6086957 C59.0652829,63.4657371 58.8038797,64.4629323 58.8494014,65.469913 L64.6353873,65.469913 Z" fill-rule="nonzero"></path>
                    <path d="M68.4675,60.8493913 L69.431831,60.8493913 L69.5389789,61.725913 C69.9868639,61.3566396 70.4939189,61.0645896 71.0390493,60.861913 C71.529165,60.6701811 72.0502303,60.5683586 72.5769366,60.5613913 C72.7723239,60.5613913 72.9425,60.5613913 73.081162,60.5613913 L73.081162,61.682087 C72.8542606,61.682087 72.6210563,61.682087 72.3689437,61.682087 C71.4068322,61.683248 70.4687553,61.9807348 69.6839437,62.5335652 L69.6839437,71.0546087 L68.4675,71.0546087 L68.4675,60.8493913 Z" fill-rule="nonzero"></path>
                    <path d="M75.2997535,69.9777391 C74.5182042,69.0594783 74.1274296,67.7238261 74.1274296,65.9707826 C74.0505186,64.577741 74.4213262,63.1964672 75.1863028,62.0264348 C75.921641,61.0443618 77.1082356,60.4998036 78.3377113,60.5801739 C81.0353169,60.5801739 82.3841197,62.397913 82.3841197,66.0333913 L82.3841197,66.2212174 C82.389473,66.2838124 82.3715331,66.3461844 82.3336972,66.3965217 C82.2764708,66.440779 82.2040681,66.4610068 82.132007,66.4528696 L75.4069014,66.4528696 C75.3542403,67.4905192 75.668627,68.5137816 76.2955986,69.3453913 C76.8628521,69.9965217 77.795669,70.322087 79.0940493,70.322087 C79.9708054,70.3149714 80.8439769,70.2099641 81.6971127,70.0090435 L81.7979577,70.992 C81.3671344,71.1178605 80.9265195,71.20791 80.480669,71.2612174 C79.9939392,71.3277974 79.5034167,71.3633484 79.0121127,71.3676522 C77.3229577,71.373913 76.0813028,70.9043478 75.2997535,69.9777391 Z M81.1739789,65.469913 C81.2288672,64.4677997 80.9831948,63.4720402 80.4680634,62.6086957 C79.9845993,61.9132573 79.1675352,61.5229151 78.3188028,61.581913 C77.4634696,61.5338874 76.642115,61.920609 76.1380282,62.6086957 C75.6038745,63.4657371 75.3424712,64.4629323 75.387993,65.469913 L81.1739789,65.469913 Z" fill-rule="nonzero"></path>
                    <path d="M84.5018662,65.9895652 C84.4178999,64.5770087 84.7863671,63.1743168 85.5544366,61.9826087 C86.2874855,60.9977394 87.4757097,60.4524333 88.7058451,60.5363478 C89.7004352,60.5450863 90.6788241,60.7875193 91.5610211,61.2438261 L91.5610211,56.1662609 L92.7774648,56.1662609 L92.7774648,71.0546087 L91.8131338,71.0546087 L91.7501056,70.4285217 C91.2988607,70.7114328 90.8112444,70.9325587 90.3004577,71.085913 C89.7845497,71.2490304 89.2472094,71.3355297 88.7058451,71.3426087 C85.9031925,71.3634783 84.5018662,69.5791304 84.5018662,65.9895652 Z M90.1744014,70.0966957 C90.6532274,69.9792079 91.1180655,69.8113008 91.5610211,69.5958261 L91.5610211,62.2643478 C90.7409705,61.8751195 89.8475961,61.6617953 88.9390493,61.6382609 C87.9934417,61.5532467 87.071541,61.9636803 86.506162,62.7213913 C85.9514555,63.7183951 85.6976259,64.8530261 85.7750352,65.9895652 C85.6916527,67.1222849 85.9389424,68.2548552 86.4872535,69.2514783 C87.0048278,69.9808368 87.8739998,70.3815249 88.7688732,70.3033043 C89.2388683,70.2990221 89.7066003,70.238054 90.1617958,70.1217391 L90.1744014,70.0966957 Z" fill-rule="nonzero"></path>
                    <path d="M100.347148,56.8111304 L103.725458,56.8111304 C104.787622,56.78166 105.848633,56.9018103 106.876866,57.168 C107.643326,57.3725253 108.338707,57.7817805 108.887465,58.3513043 C109.921127,59.4782609 110.444261,61.3126957 110.444261,63.8671304 C110.471092,65.1046858 110.300919,66.3386813 109.940035,67.5234783 C109.694404,68.3839587 109.232412,69.1682113 108.597535,69.8024348 C107.702535,70.6372174 106.257089,71.0546087 104.261197,71.0546087 L100.378662,71.0546087 L100.347148,56.8111304 Z M104.128838,69.9589565 C105.786479,69.9589565 106.984014,69.6083478 107.708838,68.9008696 C108.244915,68.3563518 108.625586,67.680026 108.811831,66.9412174 C109.062423,65.9402803 109.178981,64.9108767 109.158486,63.8796522 C109.178528,62.8998525 109.072626,61.921517 108.843345,60.9683478 C108.674039,60.2670427 108.326876,59.6204437 107.834894,59.090087 C107.381506,58.6548473 106.820615,58.346035 106.208768,58.1947826 C105.395982,57.999989 104.561409,57.9095123 103.725458,57.9255652 L101.632923,57.9255652 L101.632923,69.9589565 L104.128838,69.9589565 Z" fill-rule="nonzero"></path>
                    <path d="M113.891901,69.9777391 C113.10615,69.0594783 112.713275,67.7238261 112.713275,65.9707826 C112.636364,64.577741 113.007171,63.1964672 113.772148,62.0264348 C114.507486,61.0443618 115.694081,60.4998036 116.923556,60.5801739 C119.621162,60.5801739 120.969965,62.397913 120.969965,66.0333913 L120.969965,66.2212174 C120.975318,66.2838124 120.957378,66.3461844 120.919542,66.3965217 C120.862316,66.440779 120.789913,66.4610068 120.717852,66.4528696 L113.992746,66.4528696 C113.945873,67.4898009 114.259677,68.5111673 114.881444,69.3453913 C115.448697,69.9965217 116.383615,70.322087 117.686197,70.322087 C118.560847,70.3145558 119.431884,70.2095509 120.282958,70.0090435 L120.383803,70.992 C119.95298,71.1178605 119.512365,71.20791 119.066514,71.2612174 C118.579808,71.3280206 118.089271,71.3635727 117.597958,71.3676522 C115.908803,71.3718261 114.673451,70.9085217 113.891901,69.9777391 Z M119.759824,65.469913 C119.818575,64.4674456 119.57263,63.4705801 119.053908,62.6086957 C118.570444,61.9132573 117.75338,61.5229151 116.904648,61.581913 C116.04333,61.5210101 115.212246,61.9100636 114.711268,62.6086957 C114.172331,63.463937 113.908504,64.461989 113.95493,65.469913 L119.759824,65.469913 Z" fill-rule="nonzero"></path>
                    <path d="M124.329366,70.0403478 C123.488991,69.1763478 123.068803,67.8469565 123.068803,66.0521739 C123.068803,64.2573913 123.488991,62.8883478 124.329366,61.9450435 C125.253192,60.9774013 126.563694,60.4700057 127.903063,60.5613913 C128.713326,60.5467446 129.520456,60.6652102 130.291831,60.912 L130.209894,61.9137391 C129.514349,61.7178239 128.796108,61.6125936 128.073239,61.6006957 C126.716033,61.6006957 125.758005,61.9513043 125.199155,62.6525217 C124.640305,63.3537391 124.36088,64.4744348 124.36088,66.0146087 C124.36088,67.5213913 124.661315,68.6149565 125.262183,69.2953043 C125.863052,69.9756522 126.875704,70.3116522 128.300141,70.3033043 C128.637227,70.3018216 128.973943,70.2809169 129.308592,70.2406957 C129.623936,70.2089275 129.937401,70.1608624 130.247711,70.0966957 L130.354859,71.0921739 C129.592378,71.2671157 128.811628,71.3511866 128.02912,71.3426087 C126.384085,71.373913 125.148732,70.9106087 124.329366,70.0403478 Z" fill-rule="nonzero"></path>
                    <path d="M132.586056,57.9756522 L132.586056,57.9130435 C132.586056,57.3746087 132.838169,57.1053913 133.342394,57.1053913 L133.424331,57.1053913 C133.928556,57.1053913 134.180669,57.3746087 134.180669,57.9130435 L134.180669,57.9756522 C134.180669,58.5203478 133.928556,58.7895652 133.424331,58.7895652 L133.342394,58.7895652 C132.838169,58.7895652 132.586056,58.5203478 132.586056,57.9756522 Z M132.775141,60.8493913 L133.991585,60.8493913 L133.991585,71.0546087 L132.775141,71.0546087 L132.775141,60.8493913 Z" fill-rule="nonzero"></path>
                    <path d="M138.03169,71.2424348 C137.605201,71.1818155 137.183849,71.0897349 136.771127,70.9669565 L136.871972,70.0090435 C137.727449,70.2344918 138.608873,70.348146 139.493944,70.3471304 C140.22792,70.3931883 140.95949,70.2256555 141.599085,69.8650435 C142.075326,69.5625009 142.351918,69.0297212 142.323908,68.4688696 C142.340492,68.0976601 142.216857,67.7336892 141.977254,67.4483478 C141.745095,67.1782544 141.454128,66.9641577 141.126373,66.8222609 C140.669069,66.6348004 140.201992,66.4717847 139.727148,66.333913 C139.158505,66.1579795 138.60079,65.9489217 138.056901,65.7078261 C137.640631,65.5148073 137.277394,65.2248629 136.998028,64.8626087 C136.688227,64.4332143 136.532829,63.9127885 136.556831,63.3850435 C136.506188,62.5565469 136.872076,61.7569498 137.533768,61.250087 C138.345757,60.7288022 139.304123,60.4787408 140.26919,60.5363478 C140.707801,60.5386822 141.145767,60.5700561 141.580176,60.6302609 C141.995139,60.6764498 142.404629,60.7624156 142.802923,60.8869565 L142.739894,61.826087 C141.935298,61.6427548 141.113498,61.5441237 140.288099,61.5318261 C139.615855,61.4868614 138.945142,61.6392713 138.359437,61.970087 C137.928206,62.2823954 137.689881,62.7937498 137.729155,63.3224348 C137.713614,63.669677 137.835817,64.0091197 138.069507,64.2678261 C138.301662,64.5176381 138.582591,64.7178794 138.895176,64.8563478 C139.344031,65.0434934 139.802699,65.2065116 140.26919,65.3446957 C140.844891,65.5119567 141.407372,65.7212214 141.952042,65.9707826 C142.380153,66.1760541 142.75367,66.4784545 143.04243,66.8535652 C143.361741,67.2907679 143.52178,67.8228894 143.496232,68.3624348 C143.543235,69.2096182 143.165768,70.0251438 142.487782,70.5412174 C141.626538,71.134891 140.591261,71.427772 139.544366,71.373913 C139.037667,71.3652619 138.532202,71.321328 138.03169,71.2424348 Z" fill-rule="nonzero"></path>
                    <path d="M145.708521,57.9756522 L145.708521,57.9130435 C145.708521,57.3746087 145.954331,57.1053913 146.458556,57.1053913 L146.546796,57.1053913 C147.044718,57.1053913 147.296831,57.3746087 147.296831,57.9130435 L147.296831,57.9756522 C147.296831,58.5203478 147.044718,58.7895652 146.546796,58.7895652 L146.458556,58.7895652 C145.954331,58.7895652 145.708521,58.5203478 145.708521,57.9756522 Z M145.897606,60.8493913 L147.107746,60.8493913 L147.107746,71.0546087 L145.897606,71.0546087 L145.897606,60.8493913 Z" fill-rule="nonzero"></path>
                    <path d="M149.748627,65.952 C149.748627,62.3582609 151.219284,60.5613913 154.160599,60.5613913 C157.101913,60.5613913 158.57257,62.3582609 158.57257,65.952 C158.57257,69.5457391 157.101913,71.3426087 154.160599,71.3426087 C151.219284,71.3426087 149.748627,69.5457391 149.748627,65.952 Z M156.606092,69.2201739 C157.163516,68.2241938 157.417526,67.0887553 157.337218,65.952 C157.417526,64.8152447 157.163516,63.6798062 156.606092,62.6838261 C155.987796,61.9945329 155.102614,61.6003043 154.173204,61.6003043 C153.243794,61.6003043 152.358613,61.9945329 151.740317,62.6838261 C151.18561,63.6808299 150.931781,64.8154609 151.00919,65.952 C150.931781,67.0885391 151.18561,68.2231701 151.740317,69.2201739 C152.358613,69.9094671 153.243794,70.3036957 154.173204,70.3036957 C155.102614,70.3036957 155.987796,69.9094671 156.606092,69.2201739 Z" fill-rule="nonzero"></path>
                    <path d="M161.194542,60.8493913 L162.158873,60.8493913 L162.24081,61.6194783 C163.320419,60.9412933 164.568724,60.5749307 165.846021,60.5613913 C166.352092,60.5542359 166.856154,60.6260674 167.339789,60.7742609 C167.744354,60.8984063 168.115107,61.1125258 168.423873,61.4003478 C168.713215,61.6976781 168.928991,62.0577691 169.054155,62.4521739 C169.205102,62.9471048 169.275321,63.4628464 169.262148,63.9798261 L169.262148,71.042087 L168.045704,71.042087 L168.045704,64.3053913 C168.058298,63.8836268 168.011628,63.4621779 167.907042,63.0532174 C167.828711,62.7582174 167.674498,62.4885222 167.459542,62.2706087 C166.958242,61.8289158 166.300548,61.6036342 165.631725,61.6445217 C165.087586,61.6502525 164.546018,61.7195994 164.018204,61.8511304 C163.450901,61.9945002 162.902874,62.2046854 162.385775,62.4772174 L162.385775,71.0608696 L161.169331,71.0608696 L161.194542,60.8493913 Z" fill-rule="nonzero"></path>
                    <path d="M173.239225,71.2424348 C172.802295,71.1823175 172.370429,71.0902412 171.947148,70.9669565 L172.054296,70.0090435 C172.907524,70.2350091 173.786934,70.3486769 174.669965,70.3471304 C175.405869,70.3922395 176.139188,70.2248073 176.781408,69.8650435 C177.254245,69.5600714 177.527969,69.0281907 177.49993,68.4688696 C177.515286,68.0988871 177.394274,67.7360421 177.159577,67.4483478 C176.924834,67.1810214 176.634541,66.9674208 176.308697,66.8222609 C175.849203,66.6349234 175.380036,66.471912 174.903169,66.333913 C174.336139,66.1592587 173.780444,65.9501693 173.239225,65.7078261 C172.820908,65.5180903 172.456932,65.2275561 172.180352,64.8626087 C171.867827,64.4345431 171.71214,63.91315 171.739155,63.3850435 C171.69253,62.5685422 172.050184,61.7808625 172.697183,61.2751304 C173.509531,60.7546539 174.467626,60.5046632 175.432606,60.5613913 C175.871225,60.5635012 176.309206,60.5948761 176.743592,60.6553043 C177.160608,60.7015579 177.572183,60.7875184 177.972641,60.912 L177.909613,61.8511304 C177.104952,61.6681632 176.283191,61.5695367 175.457817,61.5568696 C174.785573,61.5119048 174.11486,61.6643148 173.529155,61.9951304 C173.095972,62.3058442 172.857113,62.8183468 172.898873,63.3474783 C172.880931,63.6939554 173.000921,64.0335373 173.232923,64.2928696 C173.465077,64.5426816 173.746006,64.7429229 174.058592,64.8813913 C174.507447,65.0685368 174.966115,65.2315551 175.432606,65.3697391 C176.009938,65.5382406 176.574425,65.7474681 177.121761,65.9958261 C177.547539,66.204721 177.920286,66.5064989 178.212148,66.8786087 C178.526531,67.317921 178.684045,67.8490235 178.659648,68.3874783 C178.705917,69.2331203 178.331358,70.0474527 177.6575,70.5662609 C176.79301,71.1260116 175.768949,71.3918574 174.739296,71.3238261 C174.237973,71.3314898 173.736725,71.3042929 173.239225,71.2424348 Z" fill-rule="nonzero"></path>
                    <path d="M11.2190141,45.7857391 C10.037856,45.7883395 8.90411903,45.3243486 8.06760563,44.496 L1.29838028,37.7530435 C0.460916734,36.9244593 -0.00682319648,35.796724 -4.89842542e-16,34.6226087 L-4.89842542e-16,1.28347826 C-6.45073188e-16,0.591921705 0.564373449,0.0313043478 1.26056338,0.0313043478 L10.3303169,0.0313043478 C11.0265068,0.0313043478 11.5908803,0.591921705 11.5908803,1.28347826 L11.5908803,33.1450435 C11.5583027,33.5609421 11.7104998,33.9701858 12.0074497,34.2651595 C12.3043997,34.5601331 12.7163853,34.7113173 13.1350704,34.6789565 L29.6232394,34.6789565 C30.3194294,34.6789565 30.8838028,35.2395739 30.8838028,35.9311304 L30.8838028,44.546087 C30.8838028,45.2376435 30.3194294,45.7982609 29.6232394,45.7982609 L11.2190141,45.7857391 Z" fill-rule="nonzero"></path>
                    <path d="M70.1440493,45.7857391 C71.326031,45.7925169 72.4613221,45.3278899 73.2954577,44.496 L80.0457746,37.7530435 C80.8832382,36.9244593 81.3509781,35.796724 81.3441549,34.6226087 L81.3441549,1.28347826 C81.3441549,0.591921705 80.7797815,0.0313043478 80.0835915,0.0313043478 L71.0264437,0.0313043478 C70.3302537,0.0313043478 69.7658803,0.591921705 69.7658803,1.28347826 L69.7658803,33.1450435 C69.7984579,33.5609421 69.6462608,33.9701858 69.3493108,34.2651595 C69.0523609,34.5601331 68.6403753,34.7113173 68.2216901,34.6789565 L55.7925352,34.6789565 C55.3738501,34.7113173 54.9618645,34.5601331 54.6649145,34.2651595 C54.3679646,33.9701858 54.2157675,33.5609421 54.2483451,33.1450435 L54.2483451,1.28347826 C54.2483451,0.591921705 53.6839716,0.0313043478 52.9877817,0.0313043478 L43.9180282,0.0313043478 C43.2218382,0.0313043478 42.6574648,0.591921705 42.6574648,1.28347826 L42.6574648,34.6351304 C42.6506416,35.8092457 43.1183815,36.9369811 43.9558451,37.7655652 L50.7439789,44.496 C51.5804923,45.3243486 52.7142292,45.7883395 53.8953873,45.7857391 L70.1440493,45.7857391 Z" fill-rule="nonzero"></path>
                    <path d="M93.1241197,34.6413913 C93.1215019,35.8146884 93.5886015,36.94088 94.4225,37.7718261 L101.210634,44.5022609 C102.044769,45.3341508 103.180061,45.7987778 104.362042,45.792 L127.052183,45.792 C127.748373,45.792 128.312746,45.2313826 128.312746,44.5398261 L128.312746,35.9186087 C128.312746,35.2270521 127.748373,34.6664348 127.052183,34.6664348 L106.221373,34.6664348 C105.803739,34.6968684 105.393516,34.5448311 105.098017,34.2500955 C104.802517,33.9553598 104.651141,33.5472483 104.683486,33.1325217 L104.683486,12.6845217 C104.651141,12.2697952 104.802517,11.8616836 105.098017,11.566948 C105.393516,11.2722124 105.803739,11.1201751 106.221373,11.1506087 L127.052183,11.1506087 C127.748373,11.1506087 128.312746,10.5899913 128.312746,9.89843478 L128.312746,1.25217391 C128.312746,0.560617357 127.748373,-5.71022179e-16 127.052183,-6.13373827e-16 L104.362042,-6.13373827e-16 C103.180061,-0.00677778584 102.044769,0.457849181 101.210634,1.28973913 L94.4225,8.02017391 C93.5886015,8.85112003 93.1215019,9.97731159 93.1241197,11.1506087 L93.1241197,34.6413913 Z" fill-rule="nonzero"></path>
                    <path d="M177.361268,8.07026087 C176.327606,7.04347826 171.575282,2.31026087 170.585739,1.33356522 C169.751604,0.501675268 168.616313,0.0370483011 167.434331,0.043826087 L151.191972,0.043826087 C150.00999,0.0370483011 148.874699,0.501675268 148.040563,1.33356522 C147.057324,2.31026087 142.305,7.04347826 141.265035,8.07026087 C140.431137,8.90120699 139.964037,10.0273985 139.966655,11.2006957 L139.966655,44.546087 C139.966655,45.2376435 140.531028,45.7982609 141.227218,45.7982609 L150.309577,45.7982609 C151.005767,45.7982609 151.570141,45.2376435 151.570141,44.546087 L151.570141,31.3982609 C151.537563,30.9823622 151.68976,30.5731185 151.98671,30.2781449 C152.28366,29.9831712 152.695646,29.831987 153.114331,29.8643478 L165.562394,29.8643478 C165.980028,29.8339143 166.390252,29.9859516 166.685751,30.2806872 C166.98125,30.5754228 167.132627,30.9835343 167.100282,31.3982609 L167.100282,44.546087 C167.100282,45.2376435 167.664655,45.7982609 168.360845,45.7982609 L177.436901,45.7982609 C178.133091,45.7982609 178.697465,45.2376435 178.697465,44.546087 L178.697465,11.1881739 C178.690936,10.012943 178.209504,8.88955928 177.361268,8.07026087 Z M167.081373,20.1725217 C167.113719,20.5872483 166.962342,20.9953598 166.666842,21.2900955 C166.371343,21.5848311 165.96112,21.7368684 165.543486,21.7064348 L153.095423,21.7064348 C152.676737,21.7387956 152.264752,21.5876114 151.967802,21.2926377 C151.670852,20.9976641 151.518655,20.5884204 151.551232,20.1725217 L151.551232,12.6594783 C151.520595,12.2446238 151.673651,11.8371306 151.970361,11.543598 C152.267071,11.2500654 152.677917,11.099696 153.095423,11.1318261 L165.543486,11.1318261 C165.960501,11.0994454 166.370897,11.2499634 166.666671,11.5437687 C166.962444,11.8375741 167.113971,12.2452384 167.081373,12.6594783 L167.081373,20.1725217 Z" fill-rule="nonzero"></path>
                    <path d="M177.361268,8.07026087 C176.327606,7.04347826 171.575282,2.31026087 170.585739,1.33356522 C169.751604,0.501675268 168.616313,0.0370483011 167.434331,0.043826087 L151.191972,0.043826087 C150.00999,0.0370483011 148.874699,0.501675268 148.040563,1.33356522 C147.057324,2.31026087 142.305,7.04347826 141.265035,8.07026087 C140.431137,8.90120699 139.964037,10.0273985 139.966655,11.2006957 L139.966655,44.546087 C139.966655,45.2376435 140.531028,45.7982609 141.227218,45.7982609 L150.309577,45.7982609 C151.005767,45.7982609 151.570141,45.2376435 151.570141,44.546087 L151.570141,31.3982609 C151.537563,30.9823622 151.68976,30.5731185 151.98671,30.2781449 C152.28366,29.9831712 152.695646,29.831987 153.114331,29.8643478 L165.562394,29.8643478 C165.980028,29.8339143 166.390252,29.9859516 166.685751,30.2806872 C166.98125,30.5754228 167.132627,30.9835343 167.100282,31.3982609 L167.100282,44.546087 C167.100282,45.2376435 167.664655,45.7982609 168.360845,45.7982609 L177.436901,45.7982609 C178.133091,45.7982609 178.697465,45.2376435 178.697465,44.546087 L178.697465,11.1881739 C178.690936,10.012943 178.209504,8.88955928 177.361268,8.07026087 Z M167.081373,20.1725217 C167.113719,20.5872483 166.962342,20.9953598 166.666842,21.2900955 C166.371343,21.5848311 165.96112,21.7368684 165.543486,21.7064348 L153.095423,21.7064348 C152.676737,21.7387956 152.264752,21.5876114 151.967802,21.2926377 C151.670852,20.9976641 151.518655,20.5884204 151.551232,20.1725217 L151.551232,12.6594783 C151.520595,12.2446238 151.673651,11.8371306 151.970361,11.543598 C152.267071,11.2500654 152.677917,11.099696 153.095423,11.1318261 L165.543486,11.1318261 C165.960501,11.0994454 166.370897,11.2499634 166.666671,11.5437687 C166.962444,11.8375741 167.113971,12.2452384 167.081373,12.6594783 L167.081373,20.1725217 Z" fill-rule="nonzero"></path>
                </g>
            </g>
        </g>
    </g>
</svg>
