<svg xmlns="http://www.w3.org/2000/svg" width="24" height="24" viewBox="0 0 24 24">
    <path fill="#4A4A4A" fill-rule="evenodd" d="M6.536 14.787c.278 0 .504.226.504.504v.149c0 .28-.226.504-.504.504h-2.25a.503.503 0 0 1-.503-.504v-.132c0-.088.023-.176.067-.253l1.58-2.722H4.263a.504.504 0 0 1-.504-.504v-.149c0-.278.226-.504.504-.504h2.233c.278 0 .504.226.504.504v.128a.518.518 0 0 1-.068.253l-1.58 2.726h1.183zm1.8-3.611c.278 0 .504.226.504.504v3.76a.504.504 0 0 1-.504.505h-.164a.504.504 0 0 1-.504-.505v-3.76c0-.278.226-.504.504-.504h.164zm3.241 2.053c.038-.045.08-.117.08-.405 0-.235-.05-.375-.096-.428-.001-.001-.07-.063-.348-.063h-.354v.959h.424c.24 0 .271-.035.294-.063zm-.343-2.053c.536 0 .926.138 1.194.423.27.284.412.704.412 1.213 0 .512-.124.9-.38 1.189-.253.295-.629.449-1.111.449h-.49v.99c0 .28-.226.504-.504.504h-.164a.504.504 0 0 1-.503-.504v-3.76c0-.28.225-.504.503-.504h1.043zM22.499 22.99c.254 0 .494-.224.494-.46V8.046h-3.13c-1.196 0-2.226-.385-2.98-1.116-.758-.733-1.16-1.74-1.16-2.907V1.009H7.338c-.221 0-.494.254-.494.461V8.2h8.174a2.767 2.767 0 0 1 2.761 2.766v5.096a2.767 2.767 0 0 1-2.761 2.766H6.888l-.045 3.71c0 .221.249.453.494.453h15.162zm-21.492-6.93c0 .97.787 1.758 1.755 1.758h12.255c.968 0 1.754-.788 1.754-1.757v-5.096c0-.97-.786-1.758-1.754-1.758H2.762c-.968 0-1.755.788-1.755 1.758v5.096zM22.73 7.038L16.73 1.231v2.792c0 .887.294 1.642.852 2.182.563.544 1.35.832 2.28.832h2.866zm1.23-.021a.48.48 0 0 1 .041.198V22.53c0 .796-.687 1.469-1.5 1.469H7.336c-.8 0-1.501-.687-1.501-1.469l.045-3.703h-3.12A2.768 2.768 0 0 1 0 16.062v-5.096a2.768 2.768 0 0 1 2.762-2.767h3.074V1.47C5.836.7 6.55 0 7.336 0h9.23c.22 0 .437.088.592.241l6.59 6.378c.111.108.173.25.21.397z"/>
</svg>
