
<svg width="26px" height="18px" viewBox="0 0 26 18" version="1.1" xmlns="http://www.w3.org/2000/svg" xmlns:xlink="http://www.w3.org/1999/xlink">
    <!-- Generator: Sketch 49.1 (51147) - http://www.bohemiancoding.com/sketch -->
    <desc>Created with Sketch.</desc>
    <defs></defs>
    <g id="Page-1" stroke="none" stroke-width="1" fill="none" fill-rule="evenodd">
        <g id="Switch-Copy-8" transform="translate(-369.000000, -433.000000)" fill="#676767">
            <g id="Aa" transform="translate(369.000000, 433.000000)">
                <path d="M5.58613861,0 L8.21188119,0 L14.2871287,17.6389685 L11.8930693,17.6389685 L10.3485149,12.9455587 L3.68118812,12.9455587 L2.23960396,17.6389685 L0,17.6389685 L5.58613861,0 Z M9.75643564,11.1404011 L6.92475248,2.42406877 L6.8990099,2.42406877 L4.24752475,11.1404011 L9.75643564,11.1404011 Z M20.1821782,18 C18.7577487,18 17.6594098,17.5959926 16.8871287,16.7879656 C16.2178184,16.083091 15.8831683,15.1719254 15.8831683,14.0544413 C15.8831683,12.902573 16.2435608,11.9914074 16.9643564,11.3209169 C17.8396083,10.5128899 19.2640165,10.1088825 21.2376238,10.1088825 L23.8633663,10.1088825 L23.8633663,9.30945559 C23.8633663,8.7936937 23.8118817,8.36389857 23.7089109,8.02005731 C23.6059401,7.67621605 23.4429054,7.39255126 23.219802,7.16905444 C22.7049479,6.67048461 21.8297091,6.42120344 20.5940594,6.42120344 C19.5643513,6.42120344 18.4316893,6.52435427 17.1960396,6.73065903 L17.1188119,5.08022923 C18.3372998,4.78796415 19.6158349,4.64183381 20.9544554,4.64183381 C22.7564447,4.64183381 24.0693028,5.02864943 24.8930693,5.80229226 C25.2877908,6.18051765 25.5709562,6.64039844 25.7425743,7.18194842 C25.9141923,7.72349841 26,8.40687266 26,9.23209169 L26,17.6389685 L24.2752475,17.6389685 L24.1465347,16.7879656 C22.9108849,17.5959926 21.589446,18 20.1821782,18 Z M20.6455446,16.2722063 C21.1432368,16.2722063 21.6838255,16.1948432 22.2673267,16.0401146 C22.850828,15.885386 23.3828359,15.6876803 23.8633663,15.4469914 L23.8633663,11.6819484 L21.5465347,11.6819484 C20.2250759,11.6819484 19.2897717,11.896846 18.7405941,12.3266476 C18.2772254,12.704873 18.0455446,13.2636066 18.0455446,14.0028653 C18.0455446,14.7593161 18.2686446,15.3266457 18.7148515,15.7048711 C19.1610583,16.0830964 19.8046163,16.2722063 20.6455446,16.2722063 Z"></path>
            </g>
        </g>
    </g>
</svg>
