
<svg width="215px" height="184px" viewBox="0 0 215 184" version="1.1" xmlns="http://www.w3.org/2000/svg" xmlns:xlink="http://www.w3.org/1999/xlink">
    <!-- Generator: Sketch 49.1 (51147) - http://www.bohemiancoding.com/sketch -->
    <desc>Created with Sketch.</desc>
    <defs></defs>
    <g id="Page-1" stroke="none" stroke-width="1" fill="none" fill-rule="evenodd">
        <g id="Desktop" transform="translate(-570.000000, -1498.000000)">
            <g id="Bar-chart" transform="translate(570.000000, 1498.000000)">
                <g>
                    <path d="M23,183 C22.2926173,183 21.7824443,182.794892 21.4694656,182.384669 C21.156487,181.974447 21,181.347402 21,180.503516 C21,179.65963 21.156487,179.031413 21.4694656,178.618847 C21.7824443,178.20628 22.2926173,178 23,178 C23.7073827,178 24.2175557,178.20628 24.5305344,178.618847 C24.843513,179.031413 25,179.65963 25,180.503516 C25,181.347402 24.843513,181.974447 24.5305344,182.384669 C24.2175557,182.794892 23.7073827,183 23,183 Z M23,182.19128 C23.2137415,182.19128 23.3816788,182.142054 23.5038168,182.043601 C23.6259548,181.945147 23.7162847,181.774028 23.7748092,181.530239 C23.8333336,181.28645 23.8625954,180.944212 23.8625954,180.503516 C23.8625954,180.058132 23.8333336,179.70769 23.7748092,179.45218 C23.7162847,179.19667 23.6246826,179.013831 23.5,178.903657 C23.3753174,178.793483 23.2086524,178.738397 23,178.738397 C22.7913476,178.738397 22.6246826,178.793483 22.5,178.903657 C22.3753174,179.013831 22.2837153,179.19667 22.2251908,179.45218 C22.1666664,179.70769 22.1374046,180.058132 22.1374046,180.503516 C22.1374046,180.944212 22.1666664,181.28645 22.2251908,181.530239 C22.2837153,181.774028 22.3740452,181.945147 22.4961832,182.043601 C22.6183212,182.142054 22.7862585,182.19128 23,182.19128 Z" id="0" fill="#999999"></path>
                    <path d="M58.0272727,183 C58.0090908,182.947393 58,182.870876 58,182.770445 C58,182.62219 58.0204543,182.490675 58.0613636,182.375897 C58.1022729,182.261119 58.1727268,182.14156 58.2727273,182.017217 L59.1795455,180.855093 C59.461365,180.496411 59.6545449,180.222622 59.7590909,180.033716 C59.8636369,179.84481 59.9159091,179.654712 59.9159091,179.463415 C59.9159091,179.252988 59.8545461,179.09517 59.7318182,178.989957 C59.5954539,178.865614 59.3590926,178.803443 59.0227273,178.803443 C58.7318167,178.803443 58.4272743,178.834529 58.1090909,178.8967 L58.1090909,178.136298 C58.2545462,178.098039 58.4261354,178.065758 58.6238636,178.039455 C58.8215919,178.013151 59.0113627,178 59.1931818,178 C59.8340941,178 60.2999985,178.153035 60.5909091,178.45911 C60.8136375,178.693449 60.925,179.011476 60.925,179.413199 C60.925,179.714492 60.8522735,180.002629 60.7068182,180.277618 C60.5613629,180.552608 60.3022746,180.905306 59.9295455,181.335725 L59.1181818,182.268293 L61,182.268293 L61,183 L58.0272727,183 Z" id="2" fill="#999999"></path>
                    <path d="M97.3106061,182.852339 L95.030303,182.852339 C95.0101009,182.784113 95,182.698831 95,182.596491 C95,182.372319 95.0530298,182.11891 95.1590909,181.836257 L96.2348485,179 L97.280303,179 L96.1136364,182.070175 L97.3106061,182.070175 L97.3106061,180.878655 L98.3939394,180.878655 L98.3939394,182.070175 L99,182.070175 L99,182.852339 L98.3939394,182.852339 L98.3939394,184 L97.3106061,184 L97.3106061,182.852339 Z" id="4" fill="#999999"></path>
                    <path d="M133.521385,183 C132.979631,183 132.590633,182.808956 132.354379,182.426864 C132.118125,182.044771 132,181.476328 132,180.721519 C132,179.652597 132.189407,178.900143 132.568228,178.464135 C132.706722,178.304734 132.875763,178.18753 133.075356,178.112518 C133.27495,178.037505 133.515274,178 133.796334,178 C134.065174,178 134.352341,178.030473 134.657841,178.091421 L134.657841,178.857947 C134.421587,178.811064 134.20163,178.787623 133.997963,178.787623 C133.790223,178.787623 133.6222,178.806376 133.49389,178.843882 C133.36558,178.881388 133.260693,178.947023 133.179226,179.040788 C133.089613,179.143929 133.025458,179.277543 132.986762,179.441632 C132.948065,179.60572 132.924644,179.814345 132.916497,180.067511 C133.046844,179.98781 133.192464,179.926864 133.35336,179.884669 C133.514257,179.842475 133.67006,179.821378 133.820774,179.821378 C134.195521,179.821378 134.485742,179.951475 134.691446,180.211674 C134.89715,180.471872 135,180.841067 135,181.319269 C135,181.858418 134.873728,182.273323 134.621181,182.563994 C134.368634,182.854666 134.002039,183 133.521385,183 Z M133.539715,182.233474 C133.934829,182.233474 134.132383,181.940462 134.132383,181.35443 C134.132383,181.054382 134.086559,180.850446 133.994908,180.742616 C133.903258,180.634786 133.743382,180.580872 133.515275,180.580872 C133.425661,180.580872 133.322811,180.587904 133.206721,180.601969 C133.090631,180.616034 132.989817,180.632442 132.904277,180.651195 L132.904277,180.918425 C132.904277,181.38725 132.95112,181.723628 133.044807,181.927567 C133.138493,182.131506 133.303461,182.233474 133.539715,182.233474 Z" id="6" fill="#999999"></path>
                    <path d="M171.481633,183 C171.159182,183 170.887756,182.943742 170.667347,182.831224 C170.446938,182.718705 170.280613,182.563995 170.168367,182.367089 C170.056122,182.170182 170,181.947493 170,181.699015 C170,181.159866 170.234692,180.74965 170.704082,180.468354 C170.504081,180.323018 170.360205,180.161276 170.272449,179.983122 C170.184693,179.804969 170.140816,179.594 170.140816,179.350211 C170.140816,179.078292 170.196938,178.840367 170.309184,178.636428 C170.421429,178.432488 170.579591,178.275434 170.783673,178.16526 C170.987756,178.055086 171.224488,178 171.493878,178 C171.902043,178 172.223468,178.110172 172.458163,178.33052 C172.692858,178.550868 172.810204,178.846224 172.810204,179.216596 C172.810204,179.436944 172.756123,179.643225 172.647959,179.835443 C172.539795,180.027662 172.393878,180.189404 172.210204,180.320675 C172.49592,180.484764 172.698979,180.661743 172.819388,180.851617 C172.939797,181.041492 173,181.284105 173,181.579466 C173,182.02485 172.866328,182.372948 172.59898,182.623769 C172.331631,182.874591 171.959186,183 171.481633,183 Z M171.622449,180.004219 C171.744899,179.89639 171.840816,179.782701 171.910204,179.66315 C171.979592,179.5436 172.014286,179.425223 172.014286,179.308017 C172.014286,179.143928 171.968368,179.011487 171.876531,178.910689 C171.784693,178.809892 171.655103,178.759494 171.487755,178.759494 C171.336734,178.759494 171.211225,178.802859 171.111224,178.889592 C171.011224,178.976325 170.961224,179.09939 170.961224,179.25879 C170.961224,179.399438 171.004081,179.522503 171.089796,179.627989 C171.175511,179.733475 171.322448,179.842475 171.530612,179.954993 L171.622449,180.004219 Z M171.493878,182.219409 C171.693879,182.219409 171.849999,182.166667 171.962245,182.061181 C172.07449,181.955696 172.130612,181.82091 172.130612,181.656821 C172.130612,181.511485 172.087756,181.386076 172.002041,181.280591 C171.916326,181.175105 171.755103,181.059072 171.518367,180.932489 L171.24898,180.791842 C171.12653,180.913737 171.031633,181.045006 170.964286,181.185654 C170.896938,181.326302 170.863265,181.469291 170.863265,181.614627 C170.863265,181.802158 170.918367,181.949835 171.028571,182.057665 C171.138776,182.165495 171.293877,182.219409 171.493878,182.219409 Z" id="8" fill="#999999"></path>
                    <path d="M207,182.184248 L207.894027,182.184248 L207.894027,178.787623 L207.038536,178.787623 L207.038536,178.105485 C207.208093,178.082044 207.409761,178.062119 207.643545,178.04571 C207.877329,178.029301 208.084135,178.021097 208.263969,178.021097 C208.536289,178.021097 208.726396,178.056258 208.834297,178.126582 C208.942197,178.196906 208.996146,178.321143 208.996146,178.499297 L208.996146,182.184248 L209.751445,182.184248 L209.751445,182.901547 L207,182.901547 L207,182.184248 Z M212.980732,183 C212.266535,183 211.751447,182.794892 211.435453,182.384669 C211.119459,181.974447 210.961464,181.347402 210.961464,180.503516 C210.961464,179.65963 211.119459,179.031413 211.435453,178.618847 C211.751447,178.20628 212.266535,178 212.980732,178 C213.69493,178 214.210018,178.20628 214.526012,178.618847 C214.842005,179.031413 215,179.65963 215,180.503516 C215,181.347402 214.842005,181.974447 214.526012,182.384669 C214.210018,182.794892 213.69493,183 212.980732,183 Z M212.980732,182.19128 C213.196533,182.19128 213.366088,182.142054 213.489403,182.043601 C213.612717,181.945147 213.703917,181.774028 213.763006,181.530239 C213.822094,181.28645 213.851638,180.944212 213.851638,180.503516 C213.851638,180.058132 213.822094,179.70769 213.763006,179.45218 C213.703917,179.19667 213.611433,179.013831 213.485549,178.903657 C213.359665,178.793483 213.191395,178.738397 212.980732,178.738397 C212.77007,178.738397 212.601799,178.793483 212.475915,178.903657 C212.350031,179.013831 212.257547,179.19667 212.198459,179.45218 C212.13937,179.70769 212.109827,180.058132 212.109827,180.503516 C212.109827,180.944212 212.13937,181.28645 212.198459,181.530239 C212.257547,181.774028 212.348747,181.945147 212.472062,182.043601 C212.595376,182.142054 212.764931,182.19128 212.980732,182.19128 Z" id="10" fill="#999999"></path>
                    <rect id="Rectangle" fill="#00AAEE" x="22" y="0" width="88" height="25"></rect>
                    <rect id="Rectangle-Copy" fill="#00AAEE" x="22" y="42" width="66" height="25"></rect>
                    <rect id="Rectangle-Copy-2" fill="#00AAEE" x="22" y="86" width="161" height="25"></rect>
                    <rect id="Rectangle-Copy-3" fill="#00AAEE" x="22" y="129" width="134" height="25"></rect>
                    <path d="M2.12037037,9 L3.71296296,9 L6,15 L4.4537037,15 L3.92592593,13.4912281 L1.87037037,13.4912281 L1.37962963,15 L0,15 L2.12037037,9 Z M3.57407407,12.5 L2.87962963,10.5 L2.86111111,10.5 L2.2037037,12.5 L3.57407407,12.5 Z" id="A" fill="#999999"></path>
                    <path d="M1,53 L3.15667311,53 C3.62089207,53 4.00612355,53.0365493 4.31237911,53.1096491 C4.61863467,53.1827489 4.86847099,53.2953209 5.06189555,53.4473684 C5.37137485,53.6929837 5.52611219,54.0350855 5.52611219,54.4736842 C5.52611219,54.7777793 5.44874352,55.0365486 5.29400387,55.25 C5.13926422,55.4634514 4.90715822,55.6403502 4.59767892,55.7807018 C5.01676547,55.8333336 5.35525338,55.9897648 5.6131528,56.25 C5.87105222,56.5102352 6,56.8333314 6,57.2192982 C6,57.7807046 5.81624942,58.2105248 5.44874275,58.5087719 C5.23597573,58.6783634 4.9619617,58.8026312 4.62669246,58.8815789 C4.29142321,58.9605267 3.86589555,59 3.35009671,59 L1,59 L1,53 Z M3.0212766,55.3859649 C3.23404362,55.3859649 3.40328757,55.3728071 3.52901354,55.3464912 C3.65473951,55.3201753 3.75628588,55.2719302 3.83365571,55.2017544 C3.96260542,55.0847947 4.0270793,54.9064339 4.0270793,54.6666667 C4.0270793,54.4444433 3.96582911,54.2777783 3.84332689,54.1666667 C3.77240455,54.1023389 3.67569371,54.0570177 3.55319149,54.0307018 C3.43068926,54.0043858 3.26628085,53.9912281 3.05996132,53.9912281 L2.50870406,53.9912281 L2.50870406,55.3859649 L3.0212766,55.3859649 Z M3.12765957,58.0087719 C3.41779642,58.0087719 3.64990242,57.9926902 3.82398453,57.9605263 C3.99806663,57.9283624 4.1302381,57.8713454 4.2205029,57.7894737 C4.36234758,57.6608181 4.43326886,57.4795333 4.43326886,57.245614 C4.43326886,56.929823 4.3494528,56.707603 4.18181818,56.5789474 C4.0851059,56.5029236 3.95615812,56.4502925 3.79497099,56.4210526 C3.63378385,56.3918127 3.41134894,56.377193 3.12765957,56.377193 L2.50870406,56.377193 L2.50870406,58.0087719 L3.12765957,58.0087719 Z" id="B" fill="#999999"></path>
                    <path d="M3.24509804,102 C2.66339578,102 2.17647255,101.932725 1.78431373,101.798172 C1.3921549,101.663619 1.06862873,101.458511 0.81372549,101.182841 C0.532678333,100.880917 0.326798039,100.511723 0.196078431,100.075246 C0.0653588235,99.6387695 0,99.121897 0,98.5246132 C0,97.4219354 0.264703235,96.5588404 0.794117647,95.9353024 C1.32353206,95.3117643 2.14051735,95 3.24509804,95 C3.53268118,95 3.84313559,95.0295356 4.17647059,95.0886076 C4.50980559,95.1476796 4.78431265,95.2198777 5,95.3052039 L4.80392157,96.4275668 C4.24836324,96.2700414 3.76797588,96.1912799 3.3627451,96.1912799 C2.68953912,96.1912799 2.22549147,96.3881837 1.97058824,96.7819972 C1.715685,97.1758107 1.58823529,97.74355 1.58823529,98.4852321 C1.58823529,99.3516218 1.74836441,99.9653053 2.06862745,100.326301 C2.218955,100.496954 2.40849559,100.620018 2.6372549,100.695499 C2.86601422,100.77098 3.1666648,100.80872 3.53921569,100.80872 C3.7026152,100.80872 3.90032564,100.795593 4.13235294,100.769339 C4.36438025,100.743085 4.57843039,100.710267 4.7745098,100.670886 L4.93137255,101.793249 C4.72875716,101.852321 4.46568789,101.901547 4.14215686,101.940928 C3.81862583,101.98031 3.51960922,102 3.24509804,102 Z" id="C" fill="#999999"></path>
                    <path d="M1,138 L3.23280423,138 C3.93827513,138 4.52204354,138.051169 4.98412698,138.153509 C5.44621042,138.255848 5.82539534,138.429823 6.12169312,138.675439 C6.70723397,139.149125 7,139.915199 7,140.973684 C7,141.517547 6.92769032,141.980992 6.78306878,142.364035 C6.63844725,142.747078 6.4179909,143.06725 6.12169312,143.324561 C5.85361418,143.552633 5.50264767,143.722222 5.06878307,143.833333 C4.63491847,143.944445 4.09700497,144 3.45502646,144 L1,144 L1,138 Z M3.34920635,143 C4.0970055,143 4.61551884,142.821639 4.9047619,142.464912 C5.04585608,142.289473 5.14462053,142.090644 5.2010582,141.868421 C5.25749587,141.646198 5.28571429,141.347955 5.28571429,140.973684 C5.28571429,140.552629 5.24691397,140.225147 5.16931217,139.991228 C5.09171037,139.757309 4.96120021,139.55848 4.77777778,139.394737 C4.61551947,139.254385 4.40740868,139.153509 4.15343915,139.092105 C3.89946963,139.030701 3.56790328,139 3.15873016,139 L2.65079365,139 L2.65079365,143 L3.34920635,143 Z" id="D" fill="#999999"></path>
                    <polyline id="Path-3" stroke="#979797" points="23 167 23 171 211 171 211 167.071245"></polyline>
                    <path d="M60,170.535534 L60,167" id="Path-4" stroke="#979797"></path>
                    <path d="M40,170.782865 L40,168.237692" id="Path-4-Copy-4" stroke="#979797"></path>
                    <path d="M80,170.782865 L80,168.237692" id="Path-4-Copy-5" stroke="#979797"></path>
                    <path d="M117,170.782865 L117,168.237692" id="Path-4-Copy-6" stroke="#979797"></path>
                    <path d="M153,170.782865 L153,168.237692" id="Path-4-Copy-7" stroke="#979797"></path>
                    <path d="M190,170.782865 L190,168.237692" id="Path-4-Copy-8" stroke="#979797"></path>
                    <path d="M97,170.535534 L97,167" id="Path-4-Copy" stroke="#979797"></path>
                    <path d="M133,170.535534 L133,167" id="Path-4-Copy-2" stroke="#979797"></path>
                    <path d="M171,171.527693 L171,167" id="Path-4-Copy-3" stroke="#979797"></path>
                </g>
            </g>
        </g>
    </g>
</svg>
