
<svg width="226px" height="177px" viewBox="0 0 226 177" version="1.1" xmlns="http://www.w3.org/2000/svg" xmlns:xlink="http://www.w3.org/1999/xlink">
    <!-- Generator: Sketch 49.1 (51147) - http://www.bohemiancoding.com/sketch -->
    <desc>Created with Sketch.</desc>
    <defs></defs>
    <g id="Page-1" stroke="none" stroke-width="1" fill="none" fill-rule="evenodd">
        <g id="Desktop" transform="translate(-556.000000, -2791.000000)">
            <g id="Bar-chart-vert" transform="translate(556.000000, 2791.000000)">
                <g>
                    <path d="M3.5,163 C2.61577166,163 1.97805539,162.75387 1.58683206,162.261603 C1.19560873,161.769336 1,161.016883 1,160.004219 C1,158.991556 1.19560873,158.237696 1.58683206,157.742616 C1.97805539,157.247536 2.61577166,157 3.5,157 C4.38422834,157 5.02194461,157.247536 5.41316794,157.742616 C5.80439127,158.237696 6,158.991556 6,160.004219 C6,161.016883 5.80439127,161.769336 5.41316794,162.261603 C5.02194461,162.75387 4.38422834,163 3.5,163 Z M3.5,162.029536 C3.76717691,162.029536 3.97709847,161.970465 4.12977099,161.852321 C4.28244351,161.734177 4.39535587,161.528834 4.46851145,161.236287 C4.54166703,160.94374 4.57824427,160.533055 4.57824427,160.004219 C4.57824427,159.469758 4.54166703,159.049228 4.46851145,158.742616 C4.39535587,158.436004 4.2808532,158.216597 4.125,158.084388 C3.9691468,157.952179 3.76081555,157.886076 3.5,157.886076 C3.23918445,157.886076 3.0308532,157.952179 2.875,158.084388 C2.7191468,158.216597 2.60464413,158.436004 2.53148855,158.742616 C2.45833297,159.049228 2.42175573,159.469758 2.42175573,160.004219 C2.42175573,160.533055 2.45833297,160.94374 2.53148855,161.236287 C2.60464413,161.528834 2.71755649,161.734177 2.87022901,161.852321 C3.02290153,161.970465 3.23282309,162.029536 3.5,162.029536 Z" id="0" fill="#999999"></path>
                    <path d="M2.03636364,131 C2.01212109,130.936872 2,130.845051 2,130.724534 C2,130.546628 2.02727245,130.38881 2.08181818,130.251076 C2.13636391,130.113342 2.23030236,129.969872 2.36363636,129.82066 L3.57272727,128.426112 C3.94848673,127.995694 4.20605991,127.667146 4.34545455,127.440459 C4.48484918,127.213772 4.55454545,126.985654 4.55454545,126.756098 C4.55454545,126.503586 4.47272809,126.314204 4.30909091,126.187948 C4.12727182,126.038737 3.81212345,125.964132 3.36363636,125.964132 C2.97575564,125.964132 2.56969909,126.001434 2.14545455,126.07604 L2.14545455,125.163558 C2.33939491,125.117647 2.5681805,125.07891 2.83181818,125.047346 C3.09545586,125.015782 3.34848364,125 3.59090909,125 C4.44545882,125 5.06666473,125.183642 5.45454545,125.550933 C5.75151664,125.832139 5.9,126.213771 5.9,126.695839 C5.9,127.057391 5.80303127,127.403155 5.60909091,127.733142 C5.41515055,128.063129 5.06969945,128.486368 4.57272727,129.002869 L3.49090909,130.121951 L6,130.121951 L6,131 L2.03636364,131 Z" id="2" fill="#999999"></path>
                    <path d="M3.88825758,96.622807 L1.03787879,96.622807 C1.01262614,96.5409353 1,96.4385971 1,96.3157895 C1,96.0467823 1.06628722,95.7426918 1.19886364,95.4035088 L2.54356061,92 L3.85037879,92 L2.39204545,95.6842105 L3.88825758,95.6842105 L3.88825758,94.254386 L5.24242424,94.254386 L5.24242424,95.6842105 L6,95.6842105 L6,96.622807 L5.24242424,96.622807 L5.24242424,98 L3.88825758,98 L3.88825758,96.622807 Z" id="4" fill="#999999"></path>
                    <path d="M4.02851324,67 C3.30617426,67 2.78751006,66.7707477 2.47250509,66.3122363 C2.15750012,65.8537249 2,65.1715938 2,64.2658228 C2,62.9831159 2.2525433,62.0801714 2.75763747,61.556962 C2.94229556,61.3656812 3.16768367,61.2250356 3.43380855,61.1350211 C3.69993344,61.0450066 4.02036473,61 4.39511202,61 C4.75356595,61 5.13645418,61.0365678 5.54378819,61.1097046 L5.54378819,62.0295359 C5.22878322,61.9732768 4.93550713,61.9451477 4.66395112,61.9451477 C4.38696399,61.9451477 4.16293365,61.967651 3.99185336,62.0126582 C3.82077308,62.0576655 3.68092383,62.136427 3.57230143,62.2489451 C3.45281678,62.3727151 3.36727792,62.5330511 3.31568228,62.7299578 C3.26408664,62.9268646 3.23285817,63.1772137 3.22199593,63.4810127 C3.39579177,63.3853722 3.58995141,63.3122365 3.80448065,63.2616034 C4.0190099,63.2109702 4.22674713,63.185654 4.42769857,63.185654 C4.92736163,63.185654 5.31432314,63.3417706 5.5885947,63.6540084 C5.86286627,63.9662463 6,64.4092798 6,64.9831224 C6,65.6301017 5.8316378,66.127987 5.49490835,66.4767932 C5.1581789,66.8255995 4.66938542,67 4.02851324,67 Z M4.05295316,66.0801688 C4.57977181,66.0801688 4.84317719,65.7285549 4.84317719,65.0253165 C4.84317719,64.6652584 4.782078,64.4205351 4.6598778,64.2911392 C4.5376776,64.1617434 4.32450933,64.0970464 4.0203666,64.0970464 C3.90088196,64.0970464 3.76374823,64.1054851 3.6089613,64.1223629 C3.45417438,64.1392406 3.31975617,64.158931 3.20570265,64.1814346 L3.20570265,64.5021097 C3.20570265,65.0647004 3.26815959,65.4683532 3.39307536,65.7130802 C3.51799112,65.9578071 3.73794819,66.0801688 4.05295316,66.0801688 Z" id="6" fill="#999999"></path>
                    <path d="M2.9755102,36 C2.54557608,36 2.18367494,35.9324901 1.88979592,35.7974684 C1.5959169,35.6624466 1.37415041,35.4767944 1.2244898,35.2405063 C1.07482918,35.0042182 1,34.7369916 1,34.4388186 C1,33.7918392 1.31292204,33.2995797 1.93877551,32.9620253 C1.67210751,32.7876222 1.48027269,32.5935313 1.36326531,32.3797468 C1.24625792,32.1659624 1.1877551,31.9128003 1.1877551,31.6202532 C1.1877551,31.2939505 1.26258429,31.00844 1.4122449,30.7637131 C1.56190551,30.5189861 1.77278776,30.3305211 2.04489796,30.1983122 C2.31700816,30.0661034 2.63265127,30 2.99183673,30 C3.53605714,30 3.96462429,30.1322068 4.27755102,30.3966245 C4.59047776,30.6610421 4.74693878,31.0154689 4.74693878,31.4599156 C4.74693878,31.7243332 4.67483065,31.9718695 4.53061224,32.2025316 C4.38639384,32.4331938 4.19183796,32.6272847 3.94693878,32.7848101 C4.32789306,32.9817169 4.59863865,33.1940917 4.75918367,33.4219409 C4.91972869,33.6497902 5,33.9409265 5,34.2953586 C5,34.8298198 4.82177049,35.2475372 4.46530612,35.5485232 C4.10884176,35.8495092 3.61224808,36 2.9755102,36 Z M3.16326531,32.4050633 C3.32653143,32.2756674 3.45442131,32.1392412 3.54693878,31.9957806 C3.63945624,31.85232 3.68571429,31.7102679 3.68571429,31.5696203 C3.68571429,31.3727135 3.62449041,31.213784 3.50204082,31.092827 C3.37959122,30.97187 3.20680384,30.9113924 2.98367347,30.9113924 C2.78231192,30.9113924 2.61496665,30.9634313 2.48163265,31.0675105 C2.34829865,31.1715898 2.28163265,31.3192677 2.28163265,31.5105485 C2.28163265,31.6793257 2.33877494,31.8270036 2.45306122,31.9535865 C2.56734751,32.0801694 2.76326392,32.2109698 3.04081633,32.3459916 L3.16326531,32.4050633 Z M2.99183673,35.0632911 C3.25850473,35.0632911 3.46666592,35.0000006 3.61632653,34.8734177 C3.76598714,34.7468348 3.84081633,34.5850924 3.84081633,34.3881857 C3.84081633,34.2137825 3.78367404,34.0632918 3.66938776,33.9367089 C3.55510147,33.8101259 3.34013763,33.6708868 3.0244898,33.5189873 L2.66530612,33.350211 C2.50204,33.4964846 2.37551065,33.6540076 2.28571429,33.8227848 C2.19591792,33.991562 2.15102041,34.1631496 2.15102041,34.3375527 C2.15102041,34.562589 2.22448906,34.7398024 2.37142857,34.8691983 C2.51836808,34.9985942 2.72516873,35.0632911 2.99183673,35.0632911 Z" id="8" fill="#999999"></path>
                    <path d="M0,5.02109705 L1.00578035,5.02109705 L1.00578035,0.945147679 L0.0433526012,0.945147679 L0.0433526012,0.126582278 C0.234105,0.0984527426 0.460981344,0.0745429958 0.723988439,0.0548523207 C0.986995535,0.0351616456 1.21965217,0.0253164557 1.42196532,0.0253164557 C1.72832523,0.0253164557 1.94219592,0.0675101266 2.06358382,0.151898734 C2.18497171,0.236287342 2.24566474,0.385371646 2.24566474,0.599156118 L2.24566474,5.02109705 L3.09537572,5.02109705 L3.09537572,5.88185654 L0,5.88185654 L0,5.02109705 Z M6.7283237,6 C5.92485147,6 5.3453775,5.75387025 4.98988439,5.26160338 C4.63439129,4.7693365 4.4566474,4.0168827 4.4566474,3.00421941 C4.4566474,1.99155612 4.63439129,1.23769586 4.98988439,0.742616034 C5.3453775,0.247536203 5.92485147,0 6.7283237,0 C7.53179592,0 8.1112699,0.247536203 8.46676301,0.742616034 C8.82225611,1.23769586 9,1.99155612 9,3.00421941 C9,4.0168827 8.82225611,4.7693365 8.46676301,5.26160338 C8.1112699,5.75387025 7.53179592,6 6.7283237,6 Z M6.7283237,5.02953586 C6.97109948,5.02953586 7.16184902,4.97046473 7.30057803,4.85232068 C7.43930705,4.73417662 7.54190718,4.52883409 7.6083815,4.23628692 C7.67485582,3.94373975 7.70809249,3.53305468 7.70809249,3.00421941 C7.70809249,2.46975823 7.67485582,2.04922797 7.6083815,1.74261603 C7.54190718,1.43600409 7.43786198,1.216597 7.29624277,1.08438819 C7.15462357,0.952179367 6.9653191,0.886075949 6.7283237,0.886075949 C6.49132829,0.886075949 6.30202383,0.952179367 6.16040462,1.08438819 C6.01878542,1.216597 5.91474022,1.43600409 5.8482659,1.74261603 C5.78179158,2.04922797 5.74855491,2.46975823 5.74855491,3.00421941 C5.74855491,3.53305468 5.78179158,3.94373975 5.8482659,4.23628692 C5.91474022,4.52883409 6.01734035,4.73417662 6.15606936,4.85232068 C6.29479838,4.97046473 6.48554792,5.02953586 6.7283237,5.02953586 Z" id="10" fill="#999999"></path>
                    <rect id="Rectangle" fill="#00AAEE" transform="translate(104.500000, 106.500000) rotate(-90.000000) translate(-104.500000, -106.500000) " x="53" y="92" width="103" height="29"></rect>
                    <rect id="Rectangle-Copy" fill="#00AAEE" transform="translate(52.500000, 119.500000) rotate(-90.000000) translate(-52.500000, -119.500000) " x="14" y="105" width="77" height="29"></rect>
                    <rect id="Rectangle-Copy-2" fill="#00AAEE" transform="translate(158.000000, 82.500000) rotate(-90.000000) translate(-158.000000, -82.500000) " x="83" y="68" width="150" height="29"></rect>
                    <rect id="Rectangle-Copy-3" fill="#00AAEE" transform="translate(211.000000, 94.500000) rotate(-90.000000) translate(-211.000000, -94.500000) " x="148" y="80" width="126" height="29"></rect>
                    <path d="M50.4737654,169 L52.3317901,169 L55,177 L53.1959877,177 L52.5802469,174.988304 L50.1820988,174.988304 L49.6095679,177 L48,177 L50.4737654,169 Z M52.1697531,173.666667 L51.3595679,171 L51.337963,171 L50.5709877,173.666667 L52.1697531,173.666667 Z" id="A" fill="#999999"></path>
                    <path d="M103,169 L105.588008,169 C106.14507,169 106.607348,169.048732 106.974855,169.146199 C107.342362,169.243665 107.642165,169.393761 107.874275,169.596491 C108.24565,169.923978 108.431335,170.380114 108.431335,170.964912 C108.431335,171.370372 108.338492,171.715398 108.152805,172 C107.967117,172.284602 107.68859,172.520467 107.317215,172.707602 C107.820119,172.777778 108.226304,172.986353 108.535783,173.333333 C108.845263,173.680314 109,174.111109 109,174.625731 C109,175.374273 108.779499,175.947366 108.338491,176.345029 C108.083171,176.571151 107.754354,176.736842 107.352031,176.842105 C106.949708,176.947369 106.439075,177 105.820116,177 L103,177 L103,169 Z M105.425532,172.181287 C105.680852,172.181287 105.883945,172.163743 106.034816,172.128655 C106.185687,172.093567 106.307543,172.02924 106.400387,171.935673 C106.555126,171.779726 106.632495,171.541912 106.632495,171.222222 C106.632495,170.925924 106.558995,170.703704 106.411992,170.555556 C106.326885,170.469785 106.210832,170.409357 106.06383,170.374269 C105.916827,170.339181 105.719537,170.321637 105.471954,170.321637 L104.810445,170.321637 L104.810445,172.181287 L105.425532,172.181287 Z M105.553191,175.678363 C105.901356,175.678363 106.179883,175.65692 106.388781,175.614035 C106.59768,175.57115 106.756286,175.495127 106.864603,175.385965 C107.034817,175.214424 107.119923,174.972711 107.119923,174.660819 C107.119923,174.239764 107.019343,173.943471 106.818182,173.77193 C106.702127,173.670565 106.54739,173.60039 106.353965,173.561404 C106.160541,173.522417 105.893619,173.502924 105.553191,173.502924 L104.810445,173.502924 L104.810445,175.678363 L105.553191,175.678363 Z" id="B" fill="#999999"></path>
                    <path d="M159.894118,176 C159.196075,176 158.611767,175.923114 158.141176,175.769339 C157.670586,175.615564 157.282354,175.381155 156.976471,175.066104 C156.639214,174.721048 156.392158,174.299112 156.235294,173.800281 C156.078431,173.301451 156,172.710739 156,172.028129 C156,170.767926 156.317644,169.781532 156.952941,169.068917 C157.588238,168.356302 158.568621,168 159.894118,168 C160.239217,168 160.611763,168.033755 161.011765,168.101266 C161.411767,168.168777 161.741175,168.251289 162,168.348805 L161.764706,169.631505 C161.098036,169.451476 160.521571,169.361463 160.035294,169.361463 C159.227447,169.361463 158.67059,169.586496 158.364706,170.036568 C158.058822,170.486641 157.905882,171.135486 157.905882,171.983122 C157.905882,172.973282 158.098037,173.674635 158.482353,174.087201 C158.662746,174.282233 158.890195,174.422878 159.164706,174.509142 C159.439217,174.595406 159.799998,174.638537 160.247059,174.638537 C160.443138,174.638537 160.680391,174.623535 160.958824,174.59353 C161.237256,174.563525 161.494116,174.52602 161.729412,174.481013 L161.917647,175.763713 C161.674509,175.831224 161.358825,175.887482 160.970588,175.932489 C160.582351,175.977497 160.223531,176 159.894118,176 Z" id="C" fill="#999999"></path>
                    <path d="M208,169 L210.232804,169 C210.938275,169 211.522044,169.068225 211.984127,169.204678 C212.44621,169.341131 212.825395,169.573098 213.121693,169.900585 C213.707234,170.532167 214,171.553599 214,172.964912 C214,173.690062 213.92769,174.30799 213.783069,174.818713 C213.638447,175.329437 213.417991,175.756334 213.121693,176.099415 C212.853614,176.40351 212.502648,176.629629 212.068783,176.777778 C211.634918,176.925927 211.097005,177 210.455026,177 L208,177 L208,169 Z M210.349206,175.666667 C211.097006,175.666667 211.615519,175.428852 211.904762,174.953216 C212.045856,174.719297 212.144621,174.454193 212.201058,174.157895 C212.257496,173.861597 212.285714,173.46394 212.285714,172.964912 C212.285714,172.403506 212.246914,171.966863 212.169312,171.654971 C212.09171,171.343078 211.9612,171.077974 211.777778,170.859649 C211.615519,170.672514 211.407409,170.538012 211.153439,170.45614 C210.89947,170.374269 210.567903,170.333333 210.15873,170.333333 L209.650794,170.333333 L209.650794,175.666667 L210.349206,175.666667 Z" id="D" fill="#999999"></path>
                    <path d="M17,160 L226,160 L17,160 Z" id="Path-3" stroke="#979797"></path>
                    <path d="M17,128.5 L22,128.5" id="Path-57" stroke="#979797"></path>
                    <path d="M17,95.5 L22,95.5" id="Path-57-Copy" stroke="#979797"></path>
                    <path d="M17,63.5 L22,63.5" id="Path-57-Copy-2" stroke="#979797"></path>
                    <path d="M17,32.5 L22,32.5" id="Path-57-Copy-3" stroke="#979797"></path>
                    <path d="M17,2.5 L22,2.5" id="Path-57-Copy-4" stroke="#979797"></path>
                </g>
            </g>
        </g>
    </g>
</svg>
