<?xml version="1.0" encoding="UTF-8"?>
<svg width="212px" height="176px" viewBox="0 0 212 176" version="1.1" xmlns="http://www.w3.org/2000/svg" xmlns:xlink="http://www.w3.org/1999/xlink">
    <!-- Generator: Sketch 50.2 (55047) - http://www.bohemiancoding.com/sketch -->
    <title>Group</title>
    <desc>Created with Sketch.</desc>
    <defs></defs>
    <g id="Page-1" stroke="none" stroke-width="1" fill="none" fill-rule="evenodd">
        <g id="Desktop--spacing" transform="translate(-963.000000, -1293.000000)">
            <g id="Bubble-chart" transform="translate(920.000000, 1241.000000)">
                <g id="Group" transform="translate(43.000000, 52.000000)">
                    <ellipse id="Oval" fill="#0088CC" cx="165.5" cy="65" rx="46.5" ry="47"></ellipse>
                    <circle id="Oval-Copy-10" fill-opacity="0.8" fill="#00AAEE" cx="36" cy="94" r="36"></circle>
                    <circle id="Oval-Copy" fill="#0088CC" cx="140" cy="139" r="29"></circle>
                    <circle id="Oval-Copy-4" fill-opacity="0.2" fill="#00AAEE" cx="101" cy="99" r="23"></circle>
                    <circle id="Oval-Copy-5" fill-opacity="0.2" fill="#00AAEE" cx="99.5" cy="26.5" r="26.5"></circle>
                    <circle id="Oval-Copy-6" fill-opacity="0.2" fill="#00AAEE" cx="79.5" cy="64.5" r="13.5"></circle>
                    <circle id="Oval-Copy-11" fill-opacity="0.8" fill="#00AAEE" cx="75.5" cy="128.5" r="13.5"></circle>
                    <circle id="Oval-Copy-12" fill-opacity="0.8" fill="#00AAEE" cx="23.5" cy="48.5" r="9.5"></circle>
                    <circle id="Oval-Copy-7" fill-opacity="0.2" fill="#00AAEE" cx="107.5" cy="64.5" r="8.5"></circle>
                    <circle id="Oval-Copy-8" fill-opacity="0.8" fill="#00AAEE" cx="53" cy="38" r="20"></circle>
                    <circle id="Oval-Copy-9" fill-opacity="0.8" fill="#00AAEE" cx="49.5" cy="148.5" r="17.5"></circle>
                    <circle id="Oval-Copy-2" fill-opacity="0.8" fill="#00AAEE" opacity="0.6" cx="93" cy="159" r="17"></circle>
                    <circle id="Oval-Copy-3" fill="#0088CC" cx="100.5" cy="132.5" r="8.5"></circle>
                    <path d="M34.9737654,90 L36.8317901,90 L39.5,98 L37.6959877,98 L37.0802469,95.9883041 L34.6820988,95.9883041 L34.1095679,98 L32.5,98 L34.9737654,90 Z M36.6697531,94.6666667 L35.8595679,92 L35.837963,92 L35.0709877,94.6666667 L36.6697531,94.6666667 Z" id="A" fill="#FFFFFF"></path>
                    <polygon id="K" fill="#FFFFFF" points="162.5 61 164.142105 61 164.142105 64.3450292 166.552632 61 168.426316 61 165.878947 64.2397661 168.5 69 166.552632 69 164.815789 65.5964912 164.142105 66.4502924 164.142105 69 162.5 69"></polygon>
                    <polygon id="L" fill="#FFFFFF" points="137.5 135 139.199346 135 139.199346 141.678363 142.5 141.678363 142.5 143 137.5 143"></polygon>
                    <path d="M47.5,145.5 L49.2253385,145.5 C49.5967137,145.5 49.9048988,145.536549 50.1499033,145.609649 C50.3949077,145.682749 50.5947768,145.795321 50.7495164,145.947368 C50.9970999,146.192984 51.1208897,146.535086 51.1208897,146.973684 C51.1208897,147.277779 51.0589948,147.536549 50.9352031,147.75 C50.8114114,147.963451 50.6257266,148.14035 50.3781431,148.280702 C50.7134124,148.333334 50.9842027,148.489765 51.1905222,148.75 C51.3968418,149.010235 51.5,149.333331 51.5,149.719298 C51.5,150.280705 51.3529995,150.710525 51.0589942,151.008772 C50.8887806,151.178363 50.6695694,151.302631 50.401354,151.381579 C50.1331386,151.460527 49.7927164,151.5 49.3800774,151.5 L47.5,151.5 L47.5,145.5 Z M49.1170213,147.885965 C49.2872349,147.885965 49.4226301,147.872807 49.5232108,147.846491 C49.6237916,147.820175 49.7050287,147.77193 49.7669246,147.701754 C49.8700843,147.584795 49.9216634,147.406434 49.9216634,147.166667 C49.9216634,146.944443 49.8726633,146.777778 49.7746615,146.666667 C49.7179236,146.602339 49.640555,146.557018 49.5425532,146.530702 C49.4445514,146.504386 49.3130247,146.491228 49.1479691,146.491228 L48.7069632,146.491228 L48.7069632,147.885965 L49.1170213,147.885965 Z M49.2021277,150.508772 C49.4342371,150.508772 49.6199219,150.49269 49.7591876,150.460526 C49.8984533,150.428362 50.0041905,150.371345 50.0764023,150.289474 C50.1898781,150.160818 50.2466151,149.979533 50.2466151,149.745614 C50.2466151,149.429823 50.1795622,149.207603 50.0454545,149.078947 C49.9680847,149.002924 49.8649265,148.950293 49.7359768,148.921053 C49.6070271,148.891813 49.4290791,148.877193 49.2021277,148.877193 L48.7069632,148.877193 L48.7069632,150.508772 L49.2021277,150.508772 Z" id="B" fill="#FFFFFF"></path>
                    <polygon id="E" fill="#FFFFFF" points="73.5 125.5 77.4571734 125.5 77.3543897 126.491228 74.8361884 126.491228 74.8361884 127.947368 76.8490364 127.947368 76.8490364 128.973684 74.8361884 128.973684 74.8361884 130.508772 77.5 130.508772 77.5 131.5 73.5 131.5"></polygon>
                    <polygon id="M" fill="#FFFFFF" points="76.5 61.5 77.5821114 61.5 79.4824047 64.8508772 81.4442815 61.5 82.5 61.5 82.5 67.5 81.2419355 67.5 81.2419355 64.0438596 79.9926686 66.1315789 78.9369501 66.1315789 77.6524927 64.0087719 77.6524927 67.5 76.5 67.5"></polygon>
                    <polygon id="I" fill="#FFFFFF" points="92 156 94 156 94 162 92 162"></polygon>
                    <path d="M101.894118,103 C101.196075,103 100.611767,102.923114 100.141176,102.769339 C99.6705859,102.615564 99.2823545,102.381155 98.9764706,102.066104 C98.639214,101.721048 98.3921576,101.299112 98.2352941,100.800281 C98.0784306,100.301451 98,99.7107395 98,99.0281294 C98,97.7679262 98.3176439,96.7815319 98.9529412,96.068917 C99.5882385,95.3563021 100.568621,95 101.894118,95 C102.239217,95 102.611763,95.0337549 103.011765,95.1012658 C103.411767,95.1687767 103.741175,95.2512888 104,95.3488045 L103.764706,96.6315049 C103.098036,96.4514759 102.521571,96.3614627 102.035294,96.3614627 C101.227447,96.3614627 100.67059,96.5864956 100.364706,97.0365682 C100.058822,97.4866408 99.9058824,98.1354857 99.9058824,98.9831224 C99.9058824,99.973282 100.098037,100.674635 100.482353,101.087201 C100.662746,101.282233 100.890195,101.422878 101.164706,101.509142 C101.439217,101.595406 101.799998,101.638537 102.247059,101.638537 C102.443138,101.638537 102.680391,101.623535 102.958824,101.59353 C103.237256,101.563525 103.494116,101.52602 103.729412,101.481013 L103.917647,102.763713 C103.674509,102.831224 103.358825,102.887482 102.970588,102.932489 C102.582351,102.977497 102.223531,103 101.894118,103 Z" id="C" fill="#FFFFFF"></path>
                    <path d="M21,45.5 L22.8606702,45.5 C23.4485626,45.5 23.9350363,45.5511691 24.3201058,45.6535088 C24.7051754,45.7558485 25.0211628,45.9298233 25.2680776,46.1754386 C25.7560283,46.6491252 26,47.4151994 26,48.4736842 C26,49.0175466 25.9397419,49.4809922 25.819224,49.8640351 C25.698706,50.2470779 25.5149924,50.5672502 25.2680776,50.8245614 C25.0446785,51.0526327 24.7522064,51.2222217 24.3906526,51.3333333 C24.0290987,51.444445 23.5808375,51.5 23.0458554,51.5 L21,51.5 L21,45.5 Z M22.957672,50.5 C23.5808379,50.5 24.0129324,50.3216392 24.2539683,49.9649123 C24.3715467,49.7894728 24.4538504,49.5906444 24.5008818,49.3684211 C24.5479132,49.1461977 24.5714286,48.8479551 24.5714286,48.4736842 C24.5714286,48.0526295 24.539095,47.7251474 24.4744268,47.4912281 C24.4097586,47.2573088 24.3010002,47.0584804 24.1481481,46.8947368 C24.0129329,46.7543853 23.8395072,46.6535091 23.627866,46.5921053 C23.4162247,46.5307014 23.1399194,46.5 22.7989418,46.5 L22.3756614,46.5 L22.3756614,50.5 L22.957672,50.5 Z" id="D" fill="#FFFFFF"></path>
                    <polygon id="F" fill="#FFFFFF" points="51.5 35 54.5 35 54.4201774 35.9912281 52.537694 35.9912281 52.537694 37.4473684 54.0277162 37.4473684 54.0277162 38.4736842 52.537694 38.4736842 52.537694 41 51.5 41"></polygon>
                    <path d="M107.793706,67 C106.973189,67 106.385783,66.7890316 106.031469,66.3670886 C105.677154,65.9451456 105.5,65.3309932 105.5,64.5246132 C105.5,63.7463627 105.705126,63.1310384 106.115385,62.6786217 C106.525643,62.226205 107.127036,62 107.91958,62 C108.157344,62 108.403262,62.0222689 108.657343,62.0668073 C108.911423,62.1113457 109.115384,62.1664319 109.269231,62.2320675 L109.129371,63.0337553 C108.719112,62.9165489 108.341494,62.8579466 107.996503,62.8579466 C107.525639,62.8579466 107.180654,62.9939039 106.961538,63.2658228 C106.742423,63.5377416 106.632867,63.9432697 106.632867,64.4824191 C106.632867,65.0731394 106.726106,65.4997643 106.912587,65.7623066 C107.094407,66.0201607 107.402096,66.1490858 107.835664,66.1490858 C108.026807,66.1490858 108.220279,66.1326771 108.416084,66.0998594 L108.416084,65.0872011 L107.744755,65.0872011 L107.744755,64.2995781 L109.5,64.2995781 L109.5,66.7538678 C109.271561,66.8241916 108.99534,66.882794 108.671329,66.9296765 C108.347318,66.9765591 108.05478,67 107.793706,67 Z" id="G" fill="#FFFFFF"></path>
                    <path d="M100.083333,135 C99.8178999,135 99.4907427,134.97851 99.1018519,134.93553 L99,134.083095 C99.2530877,134.121299 99.5030852,134.140401 99.75,134.140401 C99.9598776,134.140401 100.121913,134.121299 100.236111,134.083095 C100.350309,134.04489 100.432099,133.978033 100.481481,133.882521 C100.530864,133.78701 100.555556,133.64852 100.555556,133.467049 L100.555556,130 L102,130 L102,133.495702 C102,133.796563 101.964507,134.03892 101.893519,134.222779 C101.822531,134.406639 101.706791,134.560649 101.546296,134.684814 C101.40432,134.794652 101.214507,134.874642 100.976852,134.924785 C100.739196,134.974929 100.44136,135 100.083333,135 Z" id="J" fill="#FFFFFF"></path>
                    <polygon id="H" fill="#FFFFFF" points="96 23 97.6925859 23 97.6925859 26.2631579 100.307414 26.2631579 100.307414 23 102 23 102 31 100.307414 31 100.307414 27.6315789 97.6925859 27.6315789 97.6925859 31 96 31"></polygon>
                </g>
            </g>
        </g>
    </g>
</svg>
