<?xml version="1.0" encoding="UTF-8"?>
<svg width="216px" height="184px" viewBox="0 0 216 184" version="1.1" xmlns="http://www.w3.org/2000/svg" xmlns:xlink="http://www.w3.org/1999/xlink">
    <!-- Generator: Sketch 50.2 (55047) - http://www.bohemiancoding.com/sketch -->
    <title>Group 2</title>
    <desc>Created with Sketch.</desc>
    <defs></defs>
    <g id="Page-1" stroke="none" stroke-width="1" fill="none" fill-rule="evenodd">
        <g id="Desktop--spacing" transform="translate(-957.000000, -2076.000000)">
            <g id="Heat-map" transform="translate(920.000000, 2030.000000)">
                <g id="Group-2" transform="translate(37.000000, 46.000000)">
                    <rect id="Rectangle-2" fill="#0088CC" x="11" y="15" width="49" height="17"></rect>
                    <rect id="Rectangle-2-Copy-4" fill="#00AAEE" x="11" y="34" width="49" height="17"></rect>
                    <rect id="Rectangle-2-Copy-8" fill-opacity="0.600000024" fill="#00AAEE" x="11" y="53" width="49" height="17"></rect>
                    <rect id="Rectangle-2-Copy-12" fill="#00AAEE" x="11" y="72" width="49" height="17"></rect>
                    <rect id="Rectangle-2-Copy-16" fill-opacity="0.8" fill="#00AAEE" opacity="0.6" x="11" y="91" width="49" height="17"></rect>
                    <rect id="Rectangle-2-Copy-20" fill="#00AAEE" x="11" y="110" width="49" height="17"></rect>
                    <rect id="Rectangle-2-Copy-24" fill="#0088CC" x="11" y="129" width="49" height="17"></rect>
                    <rect id="Rectangle-2-Copy-28" fill-opacity="0.600000024" fill="#00AAEE" x="11" y="148" width="49" height="17"></rect>
                    <rect id="Rectangle-2-Copy-32" fill="#00AAEE" x="11" y="167" width="49" height="17"></rect>
                    <rect id="Rectangle-2-Copy" fill-opacity="0.2" fill="#00AAEE" x="63" y="15" width="49" height="17"></rect>
                    <rect id="Rectangle-2-Copy-5" fill-opacity="0.600000024" fill="#00AAEE" x="63" y="34" width="49" height="17"></rect>
                    <rect id="Rectangle-2-Copy-9" fill="#00AAEE" x="63" y="53" width="49" height="17"></rect>
                    <rect id="Rectangle-2-Copy-13" fill-opacity="0.8" fill="#00AAEE" opacity="0.6" x="63" y="72" width="49" height="17"></rect>
                    <rect id="Rectangle-2-Copy-17" fill="#00AAEE" x="63" y="91" width="49" height="17"></rect>
                    <rect id="Rectangle-2-Copy-21" fill-opacity="0.2" fill="#00AAEE" x="63" y="110" width="49" height="17"></rect>
                    <rect id="Rectangle-2-Copy-25" fill-opacity="0.600000024" fill="#00AAEE" x="63" y="129" width="49" height="17"></rect>
                    <rect id="Rectangle-2-Copy-29" fill-opacity="0.600000024" fill="#00AAEE" x="63" y="148" width="49" height="17"></rect>
                    <rect id="Rectangle-2-Copy-33" fill-opacity="0.8" fill="#00AAEE" opacity="0.6" x="63" y="167" width="49" height="17"></rect>
                    <rect id="Rectangle-2-Copy-2" fill-opacity="0.2" fill="#00AAEE" x="115" y="15" width="49" height="17"></rect>
                    <rect id="Rectangle-2-Copy-6" fill="#00AAEE" x="115" y="34" width="49" height="17"></rect>
                    <rect id="Rectangle-2-Copy-10" fill="#00AAEE" x="115" y="53" width="49" height="17"></rect>
                    <rect id="Rectangle-2-Copy-14" fill-opacity="0.2" fill="#00AAEE" x="115" y="72" width="49" height="17"></rect>
                    <rect id="Rectangle-2-Copy-18" fill-opacity="0.2" fill="#00AAEE" x="115" y="91" width="49" height="17"></rect>
                    <rect id="Rectangle-2-Copy-22" fill-opacity="0.600000024" fill="#00AAEE" x="115" y="110" width="49" height="17"></rect>
                    <rect id="Rectangle-2-Copy-26" fill-opacity="0.2" fill="#00AAEE" x="115" y="129" width="49" height="17"></rect>
                    <rect id="Rectangle-2-Copy-30" fill="#0088CC" x="115" y="148" width="49" height="17"></rect>
                    <rect id="Rectangle-2-Copy-34" fill="#0088CC" x="115" y="167" width="49" height="17"></rect>
                    <rect id="Rectangle-2-Copy-3" fill="#00AAEE" x="167" y="15" width="49" height="17"></rect>
                    <rect id="Rectangle-2-Copy-7" fill-opacity="0.2" fill="#00AAEE" x="167" y="34" width="49" height="17"></rect>
                    <rect id="Rectangle-2-Copy-11" fill-opacity="0.2" fill="#00AAEE" x="167" y="53" width="49" height="17"></rect>
                    <rect id="Rectangle-2-Copy-15" fill="#0088CC" x="167" y="72" width="49" height="17"></rect>
                    <rect id="Rectangle-2-Copy-19" fill-opacity="0.8" fill="#00AAEE" opacity="0.6" x="167" y="91" width="49" height="17"></rect>
                    <rect id="Rectangle-2-Copy-23" fill="#00AAEE" x="167" y="110" width="49" height="17"></rect>
                    <rect id="Rectangle-2-Copy-27" fill="#00AAEE" x="167" y="129" width="49" height="17"></rect>
                    <rect id="Rectangle-2-Copy-31" fill-opacity="0.2" fill="#00AAEE" x="167" y="148" width="49" height="17"></rect>
                    <rect id="Rectangle-2-Copy-35" fill-opacity="0.600000024" fill="#00AAEE" x="167" y="167" width="49" height="17"></rect>
                    <path d="M35.4737654,0 L37.3317901,0 L40,8 L38.1959877,8 L37.5802469,5.98830409 L35.1820988,5.98830409 L34.6095679,8 L33,8 L35.4737654,0 Z M37.1697531,4.66666667 L36.3595679,2 L36.337963,2 L35.5709877,4.66666667 L37.1697531,4.66666667 Z" id="A" fill="#999999"></path>
                    <path d="M85,0 L87.5880077,0 C88.1450705,0 88.6073483,0.0487324561 88.9748549,0.14619883 C89.3423616,0.243665205 89.6421652,0.39376117 89.8742747,0.596491228 C90.2456498,0.923978246 90.4313346,1.38011404 90.4313346,1.96491228 C90.4313346,2.3703724 90.3384922,2.71539819 90.1528046,3 C89.9671171,3.28460181 89.6885899,3.5204669 89.3172147,3.70760234 C89.8201186,3.77777813 90.2263041,3.98635304 90.5357834,4.33333333 C90.8452627,4.68031363 91,5.11110854 91,5.62573099 C91,6.37427275 90.7794993,6.94736643 90.3384913,7.34502924 C90.0831709,7.57115123 89.754354,7.73684158 89.3520309,7.84210526 C88.9497079,7.94736895 88.4390747,8 87.8201161,8 L85,8 L85,0 Z M87.4255319,3.18128655 C87.6808523,3.18128655 87.8839451,3.16374287 88.0348162,3.12865497 C88.1856874,3.09356708 88.3075431,3.02924023 88.4003868,2.93567251 C88.5551265,2.77972632 88.6324952,2.54191193 88.6324952,2.22222222 C88.6324952,1.92592444 88.5589949,1.70370444 88.4119923,1.55555556 C88.3268855,1.46978515 88.2108325,1.4093569 88.0638298,1.37426901 C87.9168271,1.33918111 87.719537,1.32163743 87.4719536,1.32163743 L86.8104449,1.32163743 L86.8104449,3.18128655 L87.4255319,3.18128655 Z M87.5531915,6.67836257 C87.9013557,6.67836257 88.1798829,6.65692029 88.3887814,6.61403509 C88.59768,6.57114988 88.7562857,6.49512725 88.8646035,6.38596491 C89.0348171,6.21442409 89.1199226,5.97271111 89.1199226,5.66081871 C89.1199226,5.23976398 89.0193434,4.94347064 88.8181818,4.77192982 C88.7021271,4.6705648 88.5473897,4.60039006 88.3539652,4.56140351 C88.1605406,4.52241696 87.8936187,4.50292398 87.5531915,4.50292398 L86.8104449,4.50292398 L86.8104449,6.67836257 L87.5531915,6.67836257 Z" id="B" fill="#999999"></path>
                    <path d="M139.894118,8 C139.196075,8 138.611767,7.92311376 138.141176,7.76933896 C137.670586,7.61556416 137.282354,7.38115488 136.976471,7.06610408 C136.639214,6.72104844 136.392158,6.29911173 136.235294,5.80028129 C136.078431,5.30145086 136,4.71073947 136,4.0281294 C136,2.76792619 136.317644,1.78153193 136.952941,1.06891702 C137.588238,0.35630211 138.568621,0 139.894118,0 C140.239217,0 140.611763,0.0337549367 141.011765,0.101265823 C141.411767,0.168776709 141.741175,0.251288776 142,0.348804501 L141.764706,1.63150492 C141.098036,1.45147589 140.521571,1.36146273 140.035294,1.36146273 C139.227447,1.36146273 138.67059,1.58649564 138.364706,2.03656821 C138.058822,2.48664079 137.905882,3.13548568 137.905882,3.98312236 C137.905882,4.97328203 138.098037,5.6746346 138.482353,6.08720113 C138.662746,6.28223257 138.890195,6.42287814 139.164706,6.50914205 C139.439217,6.59540596 139.799998,6.63853727 140.247059,6.63853727 C140.443138,6.63853727 140.680391,6.62353508 140.958824,6.59353024 C141.237256,6.5635254 141.494116,6.52601992 141.729412,6.48101266 L141.917647,7.76371308 C141.674509,7.83122397 141.358825,7.88748219 140.970588,7.93248945 C140.582351,7.97749671 140.223531,8 139.894118,8 Z" id="C" fill="#999999"></path>
                    <path d="M187,0 L189.232804,0 C189.938275,0 190.522044,0.0682254386 190.984127,0.204678363 C191.44621,0.341131287 191.825395,0.573097778 192.121693,0.900584795 C192.707234,1.5321669 193,2.55359918 193,3.96491228 C193,4.69006211 192.92769,5.30798965 192.783069,5.81871345 C192.638447,6.32943725 192.417991,6.75633357 192.121693,7.0994152 C191.853614,7.40351029 191.502648,7.62962889 191.068783,7.77777778 C190.634918,7.92592667 190.097005,8 189.455026,8 L187,8 L187,0 Z M189.349206,6.66666667 C190.097006,6.66666667 190.615519,6.42885228 190.904762,5.95321637 C191.045856,5.71929708 191.144621,5.45419251 191.201058,5.15789474 C191.257496,4.86159696 191.285714,4.46394012 191.285714,3.96491228 C191.285714,3.40350596 191.246914,2.96686316 191.169312,2.65497076 C191.09171,2.34307836 190.9612,2.0779738 190.777778,1.85964912 C190.615519,1.67251368 190.407409,1.53801211 190.153439,1.45614035 C189.89947,1.3742686 189.567903,1.33333333 189.15873,1.33333333 L188.650794,1.33333333 L188.650794,6.66666667 L189.349206,6.66666667 Z" id="D" fill="#999999"></path>
                    <path d="M1,177.118156 L1.97478992,177.118156 L1.97478992,172.942363 L1.04201681,172.942363 L1.04201681,172.103746 C1.22689168,172.074928 1.44677744,172.050432 1.70168067,172.030259 C1.95658391,172.010086 2.18207185,172 2.37815126,172 C2.67507151,172 2.88235235,172.043227 3,172.129683 C3.11764765,172.216139 3.17647059,172.368875 3.17647059,172.587896 L3.17647059,177.118156 L4,177.118156 L4,178 L1,178 L1,177.118156 Z" id="1" fill="#999999"></path>
                    <path d="M0.0363636364,159 C0.0121210909,158.936872 0,158.845051 0,158.724534 C0,158.546628 0.0272724545,158.38881 0.0818181818,158.251076 C0.136363909,158.113342 0.230302364,157.969872 0.363636364,157.82066 L1.57272727,156.426112 C1.94848673,155.995694 2.20605991,155.667146 2.34545455,155.440459 C2.48484918,155.213772 2.55454545,154.985654 2.55454545,154.756098 C2.55454545,154.503586 2.47272809,154.314204 2.30909091,154.187948 C2.12727182,154.038737 1.81212345,153.964132 1.36363636,153.964132 C0.975755636,153.964132 0.569699091,154.001434 0.145454545,154.07604 L0.145454545,153.163558 C0.339394909,153.117647 0.5681805,153.07891 0.831818182,153.047346 C1.09545586,153.015782 1.34848364,153 1.59090909,153 C2.44545882,153 3.06666473,153.183642 3.45454545,153.550933 C3.75151664,153.832139 3.9,154.213771 3.9,154.695839 C3.9,155.057391 3.80303127,155.403155 3.60909091,155.733142 C3.41515055,156.063129 3.06969945,156.486368 2.57272727,157.002869 L1.49090909,158.121951 L4,158.121951 L4,159 L0.0363636364,159 Z" id="2" fill="#999999"></path>
                    <path d="M1.51724138,140 C0.959384184,140 0.453642115,139.954993 0,139.864979 L0,138.953586 C0.422990621,139.021097 0.842909793,139.054852 1.25977011,139.054852 C1.51724267,139.054852 1.72720225,139.039381 1.88965517,139.008439 C2.05210809,138.977496 2.1885052,138.92827 2.29885057,138.860759 C2.52567163,138.720112 2.63908046,138.497892 2.63908046,138.194093 C2.63908046,137.907172 2.53486694,137.696203 2.32643678,137.561181 C2.2160914,137.488045 2.06590133,137.436006 1.87586207,137.405063 C1.6858228,137.374121 1.42835411,137.35865 1.10344828,137.35865 L0.928735632,137.35865 L0.928735632,136.514768 L1.14942529,136.514768 C1.43754933,136.514768 1.66436699,136.496484 1.82988506,136.459916 C1.99540313,136.423347 2.13333278,136.360057 2.24367816,136.270042 C2.40919623,136.13502 2.49195402,135.938117 2.49195402,135.679325 C2.49195402,135.443037 2.42145664,135.268636 2.28045977,135.156118 C2.1026811,135.009845 1.77164993,134.936709 1.28735632,134.936709 C0.876626299,134.936709 0.465902437,134.964838 0.0551724138,135.021097 L0.0551724138,134.126582 C0.478163034,134.042194 0.959384276,134 1.49885057,134 C1.9034503,134 2.26513251,134.0436 2.58390805,134.130802 C2.90268359,134.218003 3.15708717,134.348804 3.34712644,134.523207 C3.63525048,134.787624 3.77931034,135.142051 3.77931034,135.586498 C3.77931034,136.177218 3.50038593,136.601968 2.94252874,136.860759 C3.6475131,137.097048 4,137.57243 4,138.28692 C4,138.748244 3.85287503,139.119549 3.55862069,139.400844 C3.14176037,139.800283 2.4613074,140 1.51724138,140 Z" id="3" fill="#999999"></path>
                    <path d="M2.88825758,119.622807 L0.0378787879,119.622807 C0.0126261364,119.540935 0,119.438597 0,119.315789 C0,119.046782 0.0662872159,118.742692 0.198863636,118.403509 L1.54356061,115 L2.85037879,115 L1.39204545,118.684211 L2.88825758,118.684211 L2.88825758,117.254386 L4.24242424,117.254386 L4.24242424,118.684211 L5,118.684211 L5,119.622807 L4.24242424,119.622807 L4.24242424,121 L2.88825758,121 L2.88825758,119.622807 Z" id="4" fill="#999999"></path>
                    <path d="M2.50819672,102 C1.95237817,102 1.44965096,101.954155 1,101.862464 L1,100.942693 C1.35597368,101.005731 1.74941237,101.037249 2.18032787,101.037249 C2.70492066,101.037249 3.07494037,100.957021 3.29039813,100.796562 C3.50585588,100.636102 3.61358314,100.401148 3.61358314,100.091691 C3.61358314,99.8739244 3.57923532,99.6977084 3.51053864,99.5630372 C3.44184197,99.4283661 3.3169408,99.3266479 3.13583138,99.2578797 C2.95472197,99.1891114 2.69555204,99.1547278 2.35831382,99.1547278 L1.05620609,99.1547278 C1.01249002,98.9999992 0.996877377,98.7793711 1.00936768,98.4928367 L1.12177986,96 L4.62529274,96 L4.62529274,96.8767908 L2.27400468,96.8767908 L2.21779859,98.2005731 L2.55503513,98.2005731 C3.39188553,98.2005731 4.00858506,98.3510014 4.40515222,98.6518625 C4.80171939,98.9527236 5,99.4154697 5,100.040115 C5,100.681952 4.80171939,101.169053 4.40515222,101.501433 C4.00858506,101.833813 3.37627288,102 2.50819672,102 Z" id="5" fill="#999999"></path>
                    <path d="M2.02851324,83 C1.30617426,83 0.787510061,82.7707477 0.472505092,82.3122363 C0.157500122,81.8537249 0,81.1715938 0,80.2658228 C0,78.9831159 0.252543299,78.0801714 0.757637475,77.556962 C0.94229556,77.3656812 1.16768367,77.2250356 1.43380855,77.1350211 C1.69993344,77.0450066 2.02036473,77 2.39511202,77 C2.75356595,77 3.13645418,77.0365678 3.54378819,77.1097046 L3.54378819,78.0295359 C3.22878322,77.9732768 2.93550713,77.9451477 2.66395112,77.9451477 C2.38696399,77.9451477 2.16293365,77.967651 1.99185336,78.0126582 C1.82077308,78.0576655 1.68092383,78.136427 1.57230143,78.2489451 C1.45281678,78.3727151 1.36727792,78.5330511 1.31568228,78.7299578 C1.26408664,78.9268646 1.23285817,79.1772137 1.22199593,79.4810127 C1.39579177,79.3853722 1.58995141,79.3122365 1.80448065,79.2616034 C2.0190099,79.2109702 2.22674713,79.185654 2.42769857,79.185654 C2.92736163,79.185654 3.31432314,79.3417706 3.5885947,79.6540084 C3.86286627,79.9662463 4,80.4092798 4,80.9831224 C4,81.6301017 3.8316378,82.127987 3.49490835,82.4767932 C3.1581789,82.8255995 2.66938542,83 2.02851324,83 Z M2.05295316,82.0801688 C2.57977181,82.0801688 2.84317719,81.7285549 2.84317719,81.0253165 C2.84317719,80.6652584 2.782078,80.4205351 2.6598778,80.2911392 C2.5376776,80.1617434 2.32450933,80.0970464 2.0203666,80.0970464 C1.90088196,80.0970464 1.76374823,80.1054851 1.6089613,80.1223629 C1.45417438,80.1392406 1.31975617,80.158931 1.20570265,80.1814346 L1.20570265,80.5021097 C1.20570265,81.0647004 1.26815959,81.4683532 1.39307536,81.7130802 C1.51799112,81.9578071 1.73794819,82.0801688 2.05295316,82.0801688 Z" id="6" fill="#999999"></path>
                    <path d="M2.81677704,58.8947368 L0,58.8947368 L0,58 L3.93818985,58 C3.97939682,58.0643278 4,58.1842096 4,58.3596491 C4,58.6754402 3.95290702,58.961987 3.85871965,59.2192982 L2.16335541,64 L0.812362031,64 L2.81677704,58.8947368 Z" id="7" fill="#999999"></path>
                    <path d="M1.9755102,45 C1.54557608,45 1.18367494,44.9324901 0.889795918,44.7974684 C0.595916898,44.6624466 0.374150408,44.4767944 0.224489796,44.2405063 C0.0748291837,44.0042182 0,43.7369916 0,43.4388186 C0,42.7918392 0.312922041,42.2995797 0.93877551,41.9620253 C0.67210751,41.7876222 0.480272694,41.5935313 0.363265306,41.3797468 C0.246257918,41.1659624 0.187755102,40.9128003 0.187755102,40.6202532 C0.187755102,40.2939505 0.262584286,40.00844 0.412244898,39.7637131 C0.56190551,39.5189861 0.772787755,39.3305211 1.04489796,39.1983122 C1.31700816,39.0661034 1.63265127,39 1.99183673,39 C2.53605714,39 2.96462429,39.1322068 3.27755102,39.3966245 C3.59047776,39.6610421 3.74693878,40.0154689 3.74693878,40.4599156 C3.74693878,40.7243332 3.67483065,40.9718695 3.53061224,41.2025316 C3.38639384,41.4331938 3.19183796,41.6272847 2.94693878,41.7848101 C3.32789306,41.9817169 3.59863865,42.1940917 3.75918367,42.4219409 C3.91972869,42.6497902 4,42.9409265 4,43.2953586 C4,43.8298198 3.82177049,44.2475372 3.46530612,44.5485232 C3.10884176,44.8495092 2.61224808,45 1.9755102,45 Z M2.16326531,41.4050633 C2.32653143,41.2756674 2.45442131,41.1392412 2.54693878,40.9957806 C2.63945624,40.85232 2.68571429,40.7102679 2.68571429,40.5696203 C2.68571429,40.3727135 2.62449041,40.213784 2.50204082,40.092827 C2.37959122,39.97187 2.20680384,39.9113924 1.98367347,39.9113924 C1.78231192,39.9113924 1.61496665,39.9634313 1.48163265,40.0675105 C1.34829865,40.1715898 1.28163265,40.3192677 1.28163265,40.5105485 C1.28163265,40.6793257 1.33877494,40.8270036 1.45306122,40.9535865 C1.56734751,41.0801694 1.76326392,41.2109698 2.04081633,41.3459916 L2.16326531,41.4050633 Z M1.99183673,44.0632911 C2.25850473,44.0632911 2.46666592,44.0000006 2.61632653,43.8734177 C2.76598714,43.7468348 2.84081633,43.5850924 2.84081633,43.3881857 C2.84081633,43.2137825 2.78367404,43.0632918 2.66938776,42.9367089 C2.55510147,42.8101259 2.34013763,42.6708868 2.0244898,42.5189873 L1.66530612,42.350211 C1.50204,42.4964846 1.37551065,42.6540076 1.28571429,42.8227848 C1.19591792,42.991562 1.15102041,43.1631496 1.15102041,43.3375527 C1.15102041,43.562589 1.22448906,43.7398024 1.37142857,43.8691983 C1.51836808,43.9985942 1.72516873,44.0632911 1.99183673,44.0632911 Z" id="8" fill="#999999"></path>
                    <path d="M1.60488798,26 C1.24643405,26 0.863545825,25.9634322 0.456211813,25.8902954 L0.456211813,24.9704641 C0.771216782,25.0267232 1.06449287,25.0548523 1.33604888,25.0548523 C1.61303601,25.0548523 1.83706635,25.032349 2.00814664,24.9873418 C2.17922692,24.9423345 2.31907617,24.863573 2.42769857,24.7510549 C2.54718322,24.6272849 2.63272208,24.4669489 2.68431772,24.2700422 C2.73591336,24.0731354 2.76714183,23.8227863 2.77800407,23.5189873 C2.60420823,23.6146278 2.41004859,23.6877635 2.19551935,23.7383966 C1.9809901,23.7890298 1.77325287,23.814346 1.57230143,23.814346 C1.07263837,23.814346 0.685676864,23.6582294 0.411405295,23.3459916 C0.137133727,23.0337537 0,22.5907202 0,22.0168776 C0,21.3698983 0.1683622,20.872013 0.50509165,20.5232068 C0.8418211,20.1744005 1.33061458,20 1.97148676,20 C2.69382574,20 3.21248994,20.2292523 3.52749491,20.6877637 C3.84249988,21.1462751 4,21.8284062 4,22.7341772 C4,24.0168841 3.7474567,24.9198286 3.24236253,25.443038 C3.05770444,25.6343188 2.83231633,25.7749644 2.56619145,25.8649789 C2.30006656,25.9549934 1.97963527,26 1.60488798,26 Z M1.9796334,22.9029536 C2.09911804,22.9029536 2.23625177,22.8945149 2.3910387,22.8776371 C2.54582562,22.8607594 2.68024383,22.841069 2.79429735,22.8185654 L2.79429735,22.4978903 C2.79429735,21.9352996 2.73184041,21.5316468 2.60692464,21.2869198 C2.48200888,21.0421929 2.26205181,20.9198312 1.94704684,20.9198312 C1.42022819,20.9198312 1.15682281,21.2714451 1.15682281,21.9746835 C1.15682281,22.3347416 1.217922,22.5794649 1.3401222,22.7088608 C1.4623224,22.8382566 1.67549067,22.9029536 1.9796334,22.9029536 Z" id="9" fill="#999999"></path>
                </g>
            </g>
        </g>
    </g>
</svg>
