
<svg width="184px" height="175px" viewBox="0 0 184 175" version="1.1" xmlns="http://www.w3.org/2000/svg" xmlns:xlink="http://www.w3.org/1999/xlink">
    <!-- Generator: Sketch 49.1 (51147) - http://www.bohemiancoding.com/sketch -->
    <desc>Created with Sketch.</desc>
    <defs></defs>
    <g id="Page-1" stroke="none" stroke-width="1" fill="none" fill-rule="evenodd">
        <g id="Desktop" transform="translate(-977.000000, -1928.000000)">
            <g id="Parallel" transform="translate(977.000000, 1928.000000)">
                <g>
                    <polygon id="Path-6" fill-opacity="0.2" fill="#00AAEE" transform="translate(63.500000, 86.500000) scale(-1, 1) translate(-63.500000, -86.500000) " points="106 17 77.8480166 17 21 156 49.5576591 156"></polygon>
                    <polygon id="Path-5" fill="#00AAEE" points="55.58342 17 106 17 75.7387138 156 26 156"></polygon>
                    <rect id="Rectangle-3" fill-opacity="0.2" fill="#00AAEE" x="0" y="17" width="21" height="139"></rect>
                    <polygon id="Path-6" fill="#0088CC" points="177 17 148.738489 17 106 156 134.668765 156"></polygon>
                    <polygon id="Path-2" fill="#00AAEE" points="148.10543 17 106 17 140.256876 156 183 156"></polygon>
                    <path d="M0,13.5 L49,13.5" id="Path-7" stroke="#979797"></path>
                    <path d="M141,159.5 L184,159.5" id="Path-7" stroke="#979797"></path>
                    <path d="M1,159.5 L20.6993006,159.5" id="Path-7" stroke="#979797"></path>
                    <path d="M0,13.5 L49,13.5" id="Path-7" stroke="#979797"></path>
                    <path d="M57,13.5 L178,13.5" id="Path-7" stroke="#979797"></path>
                    <path d="M27,159.5 L136,159.5" id="Path-7" stroke="#979797"></path>
                    <polygon id="X" fill="#999999" points="22.6177924 4.01169591 20.2075783 0 22.0873147 0 23.6556837 2.64327485 25.0856672 0 27 0 24.416804 3.91812865 26.9308072 8 24.9357496 8 23.3673806 5.28654971 21.9489292 8 20 8"></polygon>
                    <path d="M64,167 L66.5880077,167 C67.1450705,167 67.6073483,167.048732 67.9748549,167.146199 C68.3423616,167.243665 68.6421652,167.393761 68.8742747,167.596491 C69.2456498,167.923978 69.4313346,168.380114 69.4313346,168.964912 C69.4313346,169.370372 69.3384922,169.715398 69.1528046,170 C68.9671171,170.284602 68.6885899,170.520467 68.3172147,170.707602 C68.8201186,170.777778 69.2263041,170.986353 69.5357834,171.333333 C69.8452627,171.680314 70,172.111109 70,172.625731 C70,173.374273 69.7794993,173.947366 69.3384913,174.345029 C69.0831709,174.571151 68.754354,174.736842 68.3520309,174.842105 C67.9497079,174.947369 67.4390747,175 66.8201161,175 L64,175 L64,167 Z M66.4255319,170.181287 C66.6808523,170.181287 66.8839451,170.163743 67.0348162,170.128655 C67.1856874,170.093567 67.3075431,170.02924 67.4003868,169.935673 C67.5551265,169.779726 67.6324952,169.541912 67.6324952,169.222222 C67.6324952,168.925924 67.5589949,168.703704 67.4119923,168.555556 C67.3268855,168.469785 67.2108325,168.409357 67.0638298,168.374269 C66.9168271,168.339181 66.719537,168.321637 66.4719536,168.321637 L65.8104449,168.321637 L65.8104449,170.181287 L66.4255319,170.181287 Z M66.5531915,173.678363 C66.9013557,173.678363 67.1798829,173.65692 67.3887814,173.614035 C67.59768,173.57115 67.7562857,173.495127 67.8646035,173.385965 C68.0348171,173.214424 68.1199226,172.972711 68.1199226,172.660819 C68.1199226,172.239764 68.0193434,171.943471 67.8181818,171.77193 C67.7021271,171.670565 67.5473897,171.60039 67.3539652,171.561404 C67.1605406,171.522417 66.8936187,171.502924 66.5531915,171.502924 L65.8104449,171.502924 L65.8104449,173.678363 L66.5531915,173.678363 Z" id="B" fill="#999999"></path>
                    <path d="M9.47376543,167 L11.3317901,167 L14,175 L12.1959877,175 L11.5802469,172.988304 L9.18209877,172.988304 L8.6095679,175 L7,175 L9.47376543,167 Z M11.1697531,171.666667 L10.3595679,169 L10.337963,169 L9.57098765,171.666667 L11.1697531,171.666667 Z" id="A" fill="#999999"></path>
                    <polygon id="Y" fill="#999999" points="115.589342 4.73684211 113 0 114.931034 0 116.576803 3.22807018 118.288401 0 120 0 117.30094 4.74853801 117.30094 8 115.589342 8"></polygon>
                    <path d="M159.894118,175 C159.196075,175 158.611767,174.923114 158.141176,174.769339 C157.670586,174.615564 157.282354,174.381155 156.976471,174.066104 C156.639214,173.721048 156.392158,173.299112 156.235294,172.800281 C156.078431,172.301451 156,171.710739 156,171.028129 C156,169.767926 156.317644,168.781532 156.952941,168.068917 C157.588238,167.356302 158.568621,167 159.894118,167 C160.239217,167 160.611763,167.033755 161.011765,167.101266 C161.411767,167.168777 161.741175,167.251289 162,167.348805 L161.764706,168.631505 C161.098036,168.451476 160.521571,168.361463 160.035294,168.361463 C159.227447,168.361463 158.67059,168.586496 158.364706,169.036568 C158.058822,169.486641 157.905882,170.135486 157.905882,170.983122 C157.905882,171.973282 158.098037,172.674635 158.482353,173.087201 C158.662746,173.282233 158.890195,173.422878 159.164706,173.509142 C159.439217,173.595406 159.799998,173.638537 160.247059,173.638537 C160.443138,173.638537 160.680391,173.623535 160.958824,173.59353 C161.237256,173.563525 161.494116,173.52602 161.729412,173.481013 L161.917647,174.763713 C161.674509,174.831224 161.358825,174.887482 160.970588,174.932489 C160.582351,174.977497 160.223531,175 159.894118,175 Z" id="C" fill="#999999"></path>
                </g>
            </g>
        </g>
    </g>
</svg>
