
<svg width="177px" height="185px" viewBox="0 0 177 185" version="1.1" xmlns="http://www.w3.org/2000/svg" xmlns:xlink="http://www.w3.org/1999/xlink">
    <!-- Generator: Sketch 49.1 (51147) - http://www.bohemiancoding.com/sketch -->
    <desc>Created with Sketch.</desc>
    <defs></defs>
    <g id="Page-1" stroke="none" stroke-width="1" fill="none" fill-rule="evenodd">
        <g id="Desktop" transform="translate(-984.000000, -2770.000000)">
            <g id="Pie-chart" transform="translate(984.000000, 2770.000000)">
                <g>
                    <circle id="Oval-9" fill="#00AAEE" opacity="0.45859375" cx="85.5" cy="95.5" r="85.5"></circle>
                    <path d="M84.9868164,10.0015078 C85.1577592,10.0005031 85.3288208,10 85.5,10 C132.720346,10 171,48.2796539 171,95.5 C171,135.127276 144.041352,168.458022 107.463689,178.152606 L84.9868164,95.0351563 L84.9868164,10.0015078 Z" id="Combined-Shape" fill="#00AAEE"></path>
                    <path d="M47.0111106,19.1323539 C58.439863,13.3609714 71.3405067,10.07965 85,10.0014313 L85,95 L47.0111106,19.1323539 Z" id="Combined-Shape" fill="#88CCFF"></path>
                    <path d="M3.70873104,70.5137161 C10.5771485,48.0020915 26.4845345,29.4332677 47.2017515,19.0363821 L85,95 L3.70873104,70.5137161 Z" id="Combined-Shape" fill="#0088CC" opacity="0.45859375"></path>
                    <path d="M171.82716,29 L173.950617,29 L177,37 L174.938272,37 L174.234568,34.9883041 L171.493827,34.9883041 L170.839506,37 L169,37 L171.82716,29 Z M173.765432,33.6666667 L172.839506,31 L172.814815,31 L171.938272,33.6666667 L173.765432,33.6666667 Z" id="A" fill="#999999"></path>
                    <path d="M11,177 L13.5880077,177 C14.1450705,177 14.6073483,177.048732 14.9748549,177.146199 C15.3423616,177.243665 15.6421652,177.393761 15.8742747,177.596491 C16.2456498,177.923978 16.4313346,178.380114 16.4313346,178.964912 C16.4313346,179.370372 16.3384922,179.715398 16.1528046,180 C15.9671171,180.284602 15.6885899,180.520467 15.3172147,180.707602 C15.8201186,180.777778 16.2263041,180.986353 16.5357834,181.333333 C16.8452627,181.680314 17,182.111109 17,182.625731 C17,183.374273 16.7794993,183.947366 16.3384913,184.345029 C16.0831709,184.571151 15.754354,184.736842 15.3520309,184.842105 C14.9497079,184.947369 14.4390747,185 13.8201161,185 L11,185 L11,177 Z M13.4255319,180.181287 C13.6808523,180.181287 13.8839451,180.163743 14.0348162,180.128655 C14.1856874,180.093567 14.3075431,180.02924 14.4003868,179.935673 C14.5551265,179.779726 14.6324952,179.541912 14.6324952,179.222222 C14.6324952,178.925924 14.5589949,178.703704 14.4119923,178.555556 C14.3268855,178.469785 14.2108325,178.409357 14.0638298,178.374269 C13.9168271,178.339181 13.719537,178.321637 13.4719536,178.321637 L12.8104449,178.321637 L12.8104449,180.181287 L13.4255319,180.181287 Z M13.5531915,183.678363 C13.9013557,183.678363 14.1798829,183.65692 14.3887814,183.614035 C14.59768,183.57115 14.7562857,183.495127 14.8646035,183.385965 C15.0348171,183.214424 15.1199226,182.972711 15.1199226,182.660819 C15.1199226,182.239764 15.0193434,181.943471 14.8181818,181.77193 C14.7021271,181.670565 14.5473897,181.60039 14.3539652,181.561404 C14.1605406,181.522417 13.8936187,181.502924 13.5531915,181.502924 L12.8104449,181.502924 L12.8104449,183.678363 L13.5531915,183.678363 Z" id="B" fill="#999999"></path>
                    <path d="M6.89411765,38 C6.19607494,38 5.61176706,37.913503 5.14117647,37.7405063 C4.67058588,37.5675097 4.28235447,37.3037992 3.97647059,36.9493671 C3.639214,36.5611795 3.39215765,36.0865007 3.23529412,35.5253165 C3.07843059,34.9641322 3,34.2995819 3,33.5316456 C3,32.113917 3.31764388,31.0042234 3.95294118,30.2025316 C4.58823847,29.4008399 5.56862082,29 6.89411765,29 C7.23921741,29 7.61176271,29.0379743 8.01176471,29.1139241 C8.41176671,29.1898738 8.74117518,29.2826999 9,29.3924051 L8.76470588,30.835443 C8.09803588,30.6329104 7.52157106,30.5316456 7.03529412,30.5316456 C6.22744694,30.5316456 5.67058976,30.7848076 5.36470588,31.2911392 C5.058822,31.7974709 4.90588235,32.5274214 4.90588235,33.4810127 C4.90588235,34.5949423 5.09803729,35.3839639 5.48235294,35.8481013 C5.662746,36.0675116 5.89019471,36.2257379 6.16470588,36.3227848 C6.43921706,36.4198317 6.79999776,36.4683544 7.24705882,36.4683544 C7.44313824,36.4683544 7.68039076,36.451477 7.95882353,36.4177215 C8.23725629,36.3839661 8.49411647,36.3417724 8.72941176,36.2911392 L8.91764706,37.7341772 C8.67450859,37.810127 8.35882547,37.8734175 7.97058824,37.9240506 C7.582351,37.9746838 7.22353106,38 6.89411765,38 Z" id="C" fill="#999999"></path>
                    <path d="M56,0 L58.6049383,0 C59.4279877,0 60.1090508,0.0682254386 60.6481481,0.204678363 C61.1872455,0.341131287 61.6296279,0.573097778 61.9753086,0.900584795 C62.6584396,1.5321669 63,2.55359918 63,3.96491228 C63,4.69006211 62.9156387,5.30798965 62.7469136,5.81871345 C62.5781885,6.32943725 62.3209894,6.75633357 61.9753086,7.0994152 C61.6625499,7.40351029 61.253089,7.62962889 60.7469136,7.77777778 C60.2407382,7.92592667 59.6131725,8 58.8641975,8 L56,8 L56,0 Z M58.7407407,6.66666667 C59.6131731,6.66666667 60.2181053,6.42885228 60.5555556,5.95321637 C60.7201654,5.71929708 60.8353906,5.45419251 60.9012346,5.15789474 C60.9670785,4.86159696 61,4.46394012 61,3.96491228 C61,3.40350596 60.954733,2.96686316 60.8641975,2.65497076 C60.7736621,2.34307836 60.6214002,2.0779738 60.4074074,1.85964912 C60.218106,1.67251368 59.9753101,1.53801211 59.6790123,1.45614035 C59.3827146,1.3742686 58.9958872,1.33333333 58.5185185,1.33333333 L57.9259259,1.33333333 L57.9259259,6.66666667 L58.7407407,6.66666667 Z" id="D" fill="#999999"></path>
                </g>
            </g>
        </g>
    </g>
</svg>
