<?xml version="1.0" encoding="UTF-8"?>
<svg width="202px" height="199px" viewBox="0 0 202 199" version="1.1" xmlns="http://www.w3.org/2000/svg" xmlns:xlink="http://www.w3.org/1999/xlink">
    <!-- Generator: Sketch 50.2 (55047) - http://www.bohemiancoding.com/sketch -->
    <title>Group 3</title>
    <desc>Created with Sketch.</desc>
    <defs></defs>
    <g id="Page-1" stroke="none" stroke-width="1" fill="none" fill-rule="evenodd">
        <g id="Desktop--spacing" transform="translate(-179.000000, -1281.000000)">
            <g id="Pie-Chart" transform="translate(132.000000, 1241.000000)">
                <g id="Group-3" transform="translate(48.000000, 40.000000)">
                    <circle id="Oval-2" fill="#00AAEE" opacity="0.599999964" cx="101.5" cy="98.5" r="92.5"></circle>
                    <path d="M102,6 L102,67.9309733 C89.5986858,67.8956925 80.6898468,73.2611522 75.2734829,84.0273523 C69.8571191,94.7935524 70.6057413,105.752868 77.5193496,116.9053 L27.1077714,153 C15.7250829,137.696227 9,118.794054 9,98.3383396 C9,47.4598038 50.6042351,6.19214249 102,6 Z" id="Combined-Shape" fill="#CCEEFF"></path>
                    <ellipse id="Oval-3" stroke="#FFFFFF" stroke-width="2" cx="102" cy="98.5" rx="63" ry="62.5"></ellipse>
                    <circle id="Oval-3" stroke="#FFFFFF" stroke-width="2" fill="#0088CC" cx="100.5" cy="98.5" r="30.5"></circle>
                    <path d="M100.666667,0 L100.666667,67.4846095" id="Path-9" stroke="#FFFFFF" stroke-width="2"></path>
                    <path d="M100.666667,161 L100.666667,198.297877" id="Path-9" stroke="#FFFFFF" stroke-width="2"></path>
                    <path d="M163,113 L200,122 L163,113 Z" id="Path-8" stroke="#FFFFFF" stroke-width="2"></path>
                    <path d="M128,42 L144,6" id="Path-10" stroke="#FFFFFF" stroke-width="2"></path>
                    <path d="M39,91 L0,86" id="Path-11" stroke="#FFFFFF" stroke-width="2"></path>
                    <path d="M76,116 L20,157 L76,116 Z" id="Path-12" stroke="#FFFFFF" stroke-width="2"></path>
                    <path d="M44,124 L12,138" id="Path-13" stroke="#FFFFFF" stroke-width="2"></path>
                    <path d="M116.473765,19 L118.33179,19 L121,26 L119.195988,26 L118.580247,24.2397661 L116.182099,24.2397661 L115.609568,26 L114,26 L116.473765,19 Z M118.169753,23.0833333 L117.359568,20.75 L117.337963,20.75 L116.570988,23.0833333 L118.169753,23.0833333 Z" id="A" fill="#FFFFFF"></path>
                    <path d="M167,58 L169.588008,58 C170.14507,58 170.607348,58.0426409 170.974855,58.127924 C171.342362,58.2132071 171.642165,58.344541 171.874275,58.5219298 C172.24565,58.808481 172.431335,59.2075998 172.431335,59.7192982 C172.431335,60.0740758 172.338492,60.3759734 172.152805,60.625 C171.967117,60.8740266 171.68859,61.0804085 171.317215,61.244152 C171.820119,61.3055559 172.226304,61.4880589 172.535783,61.7916667 C172.845263,62.0952744 173,62.47222 173,62.9225146 C173,63.5774887 172.779499,64.0789456 172.338491,64.4269006 C172.083171,64.6247573 171.754354,64.7697364 171.352031,64.8618421 C170.949708,64.9539478 170.439075,65 169.820116,65 L167,65 L167,58 Z M169.425532,60.7836257 C169.680852,60.7836257 169.883945,60.768275 170.034816,60.7375731 C170.185687,60.7068712 170.307543,60.6505852 170.400387,60.5687135 C170.555126,60.4322605 170.632495,60.2241729 170.632495,59.9444444 C170.632495,59.6851839 170.558995,59.4907414 170.411992,59.3611111 C170.326885,59.286062 170.210832,59.2331873 170.06383,59.2024854 C169.916827,59.1717835 169.719537,59.1564327 169.471954,59.1564327 L168.810445,59.1564327 L168.810445,60.7836257 L169.425532,60.7836257 Z M169.553191,63.8435673 C169.901356,63.8435673 170.179883,63.8248053 170.388781,63.7872807 C170.59768,63.7497561 170.756286,63.6832363 170.864603,63.5877193 C171.034817,63.4376211 171.119923,63.2261222 171.119923,62.9532164 C171.119923,62.5847935 171.019343,62.3255368 170.818182,62.1754386 C170.702127,62.0867442 170.54739,62.0253413 170.353965,61.9912281 C170.160541,61.9571148 169.893619,61.9400585 169.553191,61.9400585 L168.810445,61.9400585 L168.810445,63.8435673 L169.553191,63.8435673 Z" id="B" fill="#FFFFFF"></path>
                    <path d="M152.245098,160 C151.663396,160 151.176473,159.932725 150.784314,159.798172 C150.392155,159.663619 150.068629,159.458511 149.813725,159.182841 C149.532678,158.880917 149.326798,158.511723 149.196078,158.075246 C149.065359,157.63877 149,157.121897 149,156.524613 C149,155.421935 149.264703,154.55884 149.794118,153.935302 C150.323532,153.311764 151.140517,153 152.245098,153 C152.532681,153 152.843136,153.029536 153.176471,153.088608 C153.509806,153.14768 153.784313,153.219878 154,153.305204 L153.803922,154.427567 C153.248363,154.270041 152.767976,154.19128 152.362745,154.19128 C151.689539,154.19128 151.225491,154.388184 150.970588,154.781997 C150.715685,155.175811 150.588235,155.74355 150.588235,156.485232 C150.588235,157.351622 150.748364,157.965305 151.068627,158.326301 C151.218955,158.496954 151.408496,158.620018 151.637255,158.695499 C151.866014,158.77098 152.166665,158.80872 152.539216,158.80872 C152.702615,158.80872 152.900326,158.795593 153.132353,158.769339 C153.36438,158.743085 153.57843,158.710267 153.77451,158.670886 L153.931373,159.793249 C153.728757,159.852321 153.465688,159.901547 153.142157,159.940928 C152.818626,159.98031 152.519609,160 152.245098,160 Z" id="C" fill="#FFFFFF"></path>
                    <path d="M63,164 L65.2328042,164 C65.9382751,164 66.5220435,164.059697 66.984127,164.179094 C67.4462104,164.29849 67.8253953,164.501461 68.1216931,164.788012 C68.707234,165.340646 69,166.234399 69,167.469298 C69,168.103804 68.9276903,168.644491 68.7830688,169.091374 C68.6384472,169.538258 68.4179909,169.911792 68.1216931,170.211988 C67.8536142,170.478072 67.5026477,170.675925 67.0687831,170.805556 C66.6349185,170.935186 66.097005,171 65.4550265,171 L63,171 L63,164 Z M65.3492063,169.833333 C66.0970055,169.833333 66.6155188,169.625246 66.9047619,169.209064 C67.0458561,169.004385 67.1446205,168.772418 67.2010582,168.513158 C67.2574959,168.253897 67.2857143,167.905948 67.2857143,167.469298 C67.2857143,166.978068 67.246914,166.596005 67.1693122,166.323099 C67.0917104,166.050194 66.9612002,165.818227 66.7777778,165.627193 C66.6155195,165.463449 66.4074087,165.345761 66.1534392,165.274123 C65.8994696,165.202485 65.5679033,165.166667 65.1587302,165.166667 L64.6507937,165.166667 L64.6507937,169.833333 L65.3492063,169.833333 Z" id="D" fill="#FFFFFF"></path>
                    <polygon id="E" fill="#FFFFFF" points="29 135 33.9464668 135 33.8179872 136.156433 30.6702355 136.156433 30.6702355 137.855263 33.1862955 137.855263 33.1862955 139.052632 30.6702355 139.052632 30.6702355 140.843567 34 140.843567 34 142 29 142"></polygon>
                    <polygon id="F" fill="#FFFFFF" points="22 107 27 107 26.8669623 108.156433 23.72949 108.156433 23.72949 109.855263 26.2128603 109.855263 26.2128603 111.052632 23.72949 111.052632 23.72949 114 22 114"></polygon>
                    <path d="M50.4405594,44 C49.2097841,44 48.328674,43.7046443 47.7972028,43.1139241 C47.2657316,42.5232038 47,41.6633905 47,40.5344585 C47,39.4449078 47.3076892,38.5834537 47.9230769,37.9500703 C48.5384646,37.3166869 49.4405535,37 50.6293706,37 C50.9860158,37 51.3548932,37.0311764 51.736014,37.0935302 C52.1171348,37.155884 52.4230758,37.2330047 52.6538462,37.3248945 L52.4440559,38.4472574 C51.8286683,38.2831684 51.2622403,38.2011252 50.7447552,38.2011252 C50.038458,38.2011252 49.5209807,38.3914655 49.1923077,38.7721519 C48.8636347,39.1528383 48.6993007,39.7205776 48.6993007,40.4753868 C48.6993007,41.3023951 48.8391594,41.89967 49.1188811,42.2672293 C49.3916098,42.628225 49.8531436,42.8087201 50.5034965,42.8087201 C50.7902112,42.8087201 51.0804181,42.785748 51.3741259,42.7398031 L51.3741259,41.3220816 L50.3671329,41.3220816 L50.3671329,40.2194093 L53,40.2194093 L53,43.6554149 C52.6573409,43.7538683 52.2430094,43.8359115 51.756993,43.9015471 C51.2709766,43.9671827 50.8321698,44 50.4405594,44 Z" id="G" fill="#FFFFFF"></path>
                    <polygon id="X" fill="#FFFFFF" points="99.7438221 98.5102339 97.6779242 95 99.2891269 95 100.633443 97.3128655 101.859143 95 103.5 95 101.285832 98.4283626 103.440692 102 101.730643 102 100.386326 99.625731 99.1705107 102 97.5 102"></polygon>
                    <polygon id="Y" fill="#FFFFFF" points="144.589342 116.144737 142 112 143.931034 112 145.576803 114.824561 147.288401 112 149 112 146.30094 116.154971 146.30094 119 144.589342 119"></polygon>
                    <polygon id="Z" fill="#FFFFFF" points="58 78.0584795 61.7870722 73.1769006 58.1140684 73.1769006 58.1140684 72 63.9771863 72 63.9771863 72.9824561 60.2471483 77.8230994 64 77.8230994 64 79 58 79"></polygon>
                </g>
            </g>
        </g>
    </g>
</svg>
