
<svg width="195px" height="224px" viewBox="0 0 195 224" version="1.1" xmlns="http://www.w3.org/2000/svg" xmlns:xlink="http://www.w3.org/1999/xlink">
    <!-- Generator: Sketch 49.1 (51147) - http://www.bohemiancoding.com/sketch -->
    <desc>Created with Sketch.</desc>
    <defs></defs>
    <g id="Page-1" stroke="none" stroke-width="1" fill="none" fill-rule="evenodd">
        <g id="Desktop" transform="translate(-572.000000, -2325.000000)">
            <g id="Sunburst" transform="translate(572.000000, 2326.000000)">
                <g>
                    <path d="M98,6.73916997 C102.098707,6.25106375 106.269718,6 110.499078,6 C117.51449,6 124.369357,6.69078207 131,8.00835461 L110.198661,111 L98,6.73916997 Z" id="Combined-Shape" fill="#66CCFF"></path>
                    <path d="M120.071618,6 C123.772641,6.33771644 127.418716,6.86543538 131,7.57331629 L110,111 L120.071618,6 Z" id="Combined-Shape" fill="#006699"></path>
                    <path d="M117.020014,107.229766 C128.455238,105.455375 139.971999,105.599823 151.136083,107.512503 L133.606197,213.373063 L117.020014,107.229766 Z" id="Combined-Shape" fill="#CCEEFF" transform="translate(134.078048, 159.678455) scale(1, -1) rotate(26.000000) translate(-134.078048, -159.678455) "></path>
                    <path d="M95.968012,112.108927 C103.534976,111.766439 111.253681,112.234154 119.021613,113.584039 L100.344435,219.251207 L95.968012,112.108927 Z" id="Combined-Shape" fill="#00AAEE" transform="translate(107.494812, 165.626111) scale(1, -1) rotate(-10.000000) translate(-107.494812, -165.626111) "></path>
                    <path d="M96.14665,111.087111 C99.7428937,110.94722 103.37344,110.988198 107.027311,111.217638 L100.407718,216.847368 L96.14665,111.087111 Z" id="Combined-Shape" fill="#66CCFF" transform="translate(101.586981, 163.926883) scale(1, -1) rotate(-10.000000) translate(-101.586981, -163.926883) "></path>
                    <path d="M188.274156,40 C190.648083,42.6125544 192.893382,45.3448638 195,48.1868416 L110,111 L188.274156,40 Z" id="Combined-Shape" fill="#66CCFF"></path>
                    <path d="M99.4677692,45.9797599 C101.770148,48.5402028 103.950622,51.2165115 105.998939,54.0004106 L20.9743427,116.001345 L99.4677692,45.9797599 Z" id="Combined-Shape" fill="#004466" transform="translate(63.486641, 80.990552) scale(-1, 1) rotate(6.000000) translate(-63.486641, -80.990552) "></path>
                    <path d="M91.2176043,83.9267849 C93.6218986,86.5511995 95.8718544,89.2727951 97.966634,92.0791958 L12.8470429,156.069707 L91.2176043,83.9267849 Z" id="Combined-Shape" fill="#004466" transform="translate(55.406838, 119.998246) scale(-1, 1) rotate(49.000000) translate(-55.406838, -119.998246) "></path>
                    <path d="M110,196 C63.608081,196 26,158.391919 26,112 C26,65.608081 63.608081,28 110,28 C156.391919,28 194,65.608081 194,112 C194,158.391919 156.391919,196 110,196 Z M79.0072668,34.3550092 L85.6831629,52.7661994 C86.2422775,52.0964363 88.4396293,51.2248543 92.2752183,50.1514534 C96.1108073,49.0780525 99.6122147,48.4083316 102.77944,48.1422909 L99.9047277,28.769043 C93.823474,29.8919503 89.4354053,30.847172 86.7405216,31.6347082 C84.0456379,32.4222444 81.4678862,33.3290114 79.0072668,34.3550092 Z" id="Combined-Shape" stroke="#FFFFFF" stroke-width="2" fill="#00AAEE"></path>
                    <path d="M100,28.5703746 C103.219383,28.1936841 106.494662,28 109.815163,28 C130.963851,28 150.278073,35.8569419 165,48.812062 L109.815163,111 L100,28.5703746 Z" id="Combined-Shape" stroke="#FFFFFF" stroke-width="2" fill="#CCEEFF"></path>
                    <path d="M69.3483976,37.7638483 C72.6306072,35.9995141 76.0439524,34.4474008 79.5700542,33.1258787 L111.339844,110 L69.3483976,37.7638483 Z" id="Combined-Shape" stroke="#FFFFFF" stroke-width="2" fill="#004466"></path>
                    <path d="M49.763091,170 C39.0184968,158.876366 31.3162576,144.785362 28,129.07304 L110,111 L49.763091,170 Z" id="Combined-Shape" stroke="#FFFFFF" stroke-width="2" fill="#66CCFF"></path>
                    <path d="M91.9925188,120.688879 C92.0788769,120.646401 92.1653396,120.604051 92.251907,120.561829 C108.623177,112.577027 126.313279,110.368884 143.013426,113.141723 L129.250503,197.037657 L91.9925188,120.688879 Z" id="Combined-Shape" fill="#66CCFF" transform="translate(117.502972, 154.519146) scale(1, -1) rotate(26.000000) translate(-117.502972, -154.519146) "></path>
                    <path d="M78.3093153,116.847467 C78.3093153,116.847467 110,158.403284 110,112.150868 C110,89.5724931 101.241295,105.124385 89.4584099,93.5845656 C77.1037333,81.4847498 61.5297854,42.9913869 53.9181805,49.801265 C36.7806973,65.133665 26,87.3870688 26,112.150868 C26,118.139958 26.2908028,124.06544 27.8291327,129.615241 C28.0043851,130.247495 46.6219208,125.259365 50.535185,124.445616 C64.2583993,121.591923 78.3093153,116.847467 78.3093153,116.847467 Z" id="Oval-2" fill="#004466"></path>
                    <polygon id="Path" stroke="#FFFFFF" stroke-width="2" fill="#FFFFFF" points="60.3966012 42 73 58.7703368 67.3213151 63 53 47.3281465"></polygon>
                    <circle id="Oval-2" stroke="#FFFFFF" stroke-width="2" fill="#0088CC" cx="110" cy="112" r="64"></circle>
                    <path d="M109.692308,176 C109.692308,176 109.794872,154.518916 110,111.556748 C105.36413,69.2595692 102.94363,48.1109796 102.738502,48.1109796 C100.388674,48.1109796 105.022373,47.8612754 102.738502,48.1109796 C70.8334446,51.59928 46,78.8127595 46,111.866572 C46,147.286486 74.5160175,176 109.692308,176 Z" id="Oval-2" stroke="#FFFFFF" stroke-width="2" fill="#006699"></path>
                    <path d="M94,49.6269952 C96.8149708,48.9326652 99.7032784,48.4208939 102.651242,48.1051747 C102.752965,48.0942804 102.841129,48.084345 102.916931,48.0753053 L102.908454,48 C102.278082,48.0212458 101.266527,48.1051747 102.651242,48.1051747 C102.809141,48.1051747 104.26411,60.2341248 107.016151,84.492025 L110,111 L94,49.6269952 Z" id="Combined-Shape" stroke="#FFFFFF" stroke-width="2" fill="#66CCFF"></path>
                    <path d="M109.571548,219 L109.428452,111" id="Path-28" stroke="#FFFFFF" stroke-width="2"></path>
                    <circle id="Oval-2" fill="#FFFFFF" cx="109.5" cy="111.5" r="42.5"></circle>
                    <path d="M97,0 L110,111" id="Path-25" stroke="#FFFFFF" stroke-width="2"></path>
                    <path d="M166,47 L152,63" id="Path-26" stroke="#FFFFFF" stroke-width="2"></path>
                    <path d="M172,199 L147,164" id="Path-27" stroke="#FFFFFF" stroke-width="2"></path>
                    <path d="M98,222 C98,222 99,213.333333 101,196" id="Path-29" stroke="#FFFFFF" stroke-width="2"></path>
                    <path d="M63,157 L45,175 L63,157 Z" id="Path-30" stroke="#FFFFFF" stroke-width="2"></path>
                    <path d="M1,123 L46,118" id="Path-31" stroke="#FFFFFF" stroke-width="2"></path>
                    <path d="M6,134 L47,125" id="Path-32" stroke="#FFFFFF" stroke-width="2"></path>
                    <path d="M121,0 L118,29" id="Path-33" stroke="#FFFFFF" stroke-width="2"></path>
                    <path d="M60,42 L86,79" id="Path-35" stroke="#FFFFFF" stroke-width="2"></path>
                    <path d="M67,33 L79,55" id="Path-36" stroke="#FFFFFF" stroke-width="2"></path>
                    <path d="M93,45 L110,111" id="Path-37" stroke="#FFFFFF" stroke-width="2"></path>
                    <circle id="Oval-2" stroke="#FFFFFF" stroke-width="2" cx="110" cy="112" r="84"></circle>
                </g>
            </g>
        </g>
    </g>
</svg>
