
<svg width="216px" height="147px" viewBox="0 0 216 147" version="1.1" xmlns="http://www.w3.org/2000/svg" xmlns:xlink="http://www.w3.org/1999/xlink">
    <!-- Generator: Sketch 49.1 (51147) - http://www.bohemiancoding.com/sketch -->
    <desc>Created with Sketch.</desc>
    <defs></defs>
    <g id="Page-1" stroke="none" stroke-width="1" fill="none" fill-rule="evenodd">
        <g id="Desktop" transform="translate(-169.000000, -2790.000000)">
            <g id="Tree-map" transform="translate(169.000000, 2790.000000)">
                <g>
                    <rect id="Rectangle-6" fill-opacity="0.8" fill="#00AAEE" x="0" y="83" width="115" height="64"></rect>
                    <rect id="Rectangle-7" fill="#0088CC" x="117" y="0" width="61" height="61"></rect>
                    <rect id="Rectangle-8" fill="#00AAEE" x="180" y="0" width="35" height="61"></rect>
                    <rect id="Rectangle-8-Copy" fill="#00AAEE" x="117" y="63" width="44" height="84"></rect>
                    <rect id="Rectangle-8-Copy-2" fill-opacity="0.8" fill="#00AAEE" x="163" y="63" width="26" height="44"></rect>
                    <rect id="Rectangle-8-Copy-3" fill="#CCEEFF" x="191" y="63" width="25" height="44"></rect>
                    <rect id="Rectangle-8-Copy-4" fill-opacity="0.8" fill="#00AAEE" x="163" y="109" width="39" height="30"></rect>
                    <rect id="Rectangle-8-Copy-6" fill="#00AAEE" x="204" y="109" width="12" height="18"></rect>
                    <rect id="Rectangle-8-Copy-7" fill="#CCEEFF" x="204" y="128" width="12" height="18"></rect>
                    <rect id="Rectangle-8-Copy-5" fill="#00AAEE" x="163" y="141" width="39" height="6"></rect>
                    <rect id="Rectangle-5" fill="#CCEEFF" x="0" y="0" width="115" height="81"></rect>
                    <path d="M55.4737654,37 L57.3317901,37 L60,45 L58.1959877,45 L57.5802469,42.9883041 L55.1820988,42.9883041 L54.6095679,45 L53,45 L55.4737654,37 Z M57.1697531,41.6666667 L56.3595679,39 L56.337963,39 L55.5709877,41.6666667 L57.1697531,41.6666667 Z" id="A" fill="#FFFFFF"></path>
                    <path d="M54,111 L56.5880077,111 C57.1450705,111 57.6073483,111.048732 57.9748549,111.146199 C58.3423616,111.243665 58.6421652,111.393761 58.8742747,111.596491 C59.2456498,111.923978 59.4313346,112.380114 59.4313346,112.964912 C59.4313346,113.370372 59.3384922,113.715398 59.1528046,114 C58.9671171,114.284602 58.6885899,114.520467 58.3172147,114.707602 C58.8201186,114.777778 59.2263041,114.986353 59.5357834,115.333333 C59.8452627,115.680314 60,116.111109 60,116.625731 C60,117.374273 59.7794993,117.947366 59.3384913,118.345029 C59.0831709,118.571151 58.754354,118.736842 58.3520309,118.842105 C57.9497079,118.947369 57.4390747,119 56.8201161,119 L54,119 L54,111 Z M56.4255319,114.181287 C56.6808523,114.181287 56.8839451,114.163743 57.0348162,114.128655 C57.1856874,114.093567 57.3075431,114.02924 57.4003868,113.935673 C57.5551265,113.779726 57.6324952,113.541912 57.6324952,113.222222 C57.6324952,112.925924 57.5589949,112.703704 57.4119923,112.555556 C57.3268855,112.469785 57.2108325,112.409357 57.0638298,112.374269 C56.9168271,112.339181 56.719537,112.321637 56.4719536,112.321637 L55.8104449,112.321637 L55.8104449,114.181287 L56.4255319,114.181287 Z M56.5531915,117.678363 C56.9013557,117.678363 57.1798829,117.65692 57.3887814,117.614035 C57.59768,117.57115 57.7562857,117.495127 57.8646035,117.385965 C58.0348171,117.214424 58.1199226,116.972711 58.1199226,116.660819 C58.1199226,116.239764 58.0193434,115.943471 57.8181818,115.77193 C57.7021271,115.670565 57.5473897,115.60039 57.3539652,115.561404 C57.1605406,115.522417 56.8936187,115.502924 56.5531915,115.502924 L55.8104449,115.502924 L55.8104449,117.678363 L56.5531915,117.678363 Z" id="B" fill="#FFFFFF"></path>
                    <path d="M148.894118,35 C148.196075,35 147.611767,34.9231138 147.141176,34.769339 C146.670586,34.6155642 146.282354,34.3811549 145.976471,34.0661041 C145.639214,33.7210484 145.392158,33.2991117 145.235294,32.8002813 C145.078431,32.3014509 145,31.7107395 145,31.0281294 C145,29.7679262 145.317644,28.7815319 145.952941,28.068917 C146.588238,27.3563021 147.568621,27 148.894118,27 C149.239217,27 149.611763,27.0337549 150.011765,27.1012658 C150.411767,27.1687767 150.741175,27.2512888 151,27.3488045 L150.764706,28.6315049 C150.098036,28.4514759 149.521571,28.3614627 149.035294,28.3614627 C148.227447,28.3614627 147.67059,28.5864956 147.364706,29.0365682 C147.058822,29.4866408 146.905882,30.1354857 146.905882,30.9831224 C146.905882,31.973282 147.098037,32.6746346 147.482353,33.0872011 C147.662746,33.2822326 147.890195,33.4228781 148.164706,33.5091421 C148.439217,33.595406 148.799998,33.6385373 149.247059,33.6385373 C149.443138,33.6385373 149.680391,33.6235351 149.958824,33.5935302 C150.237256,33.5635254 150.494116,33.5260199 150.729412,33.4810127 L150.917647,34.7637131 C150.674509,34.831224 150.358825,34.8874822 149.970588,34.9324895 C149.582351,34.9774967 149.223531,35 148.894118,35 Z" id="C" fill="#FFFFFF"></path>
                    <path d="M195,27 L197.232804,27 C197.938275,27 198.522044,27.0682254 198.984127,27.2046784 C199.44621,27.3411313 199.825395,27.5730978 200.121693,27.9005848 C200.707234,28.5321669 201,29.5535992 201,30.9649123 C201,31.6900621 200.92769,32.3079896 200.783069,32.8187135 C200.638447,33.3294373 200.417991,33.7563336 200.121693,34.0994152 C199.853614,34.4035103 199.502648,34.6296289 199.068783,34.7777778 C198.634918,34.9259267 198.097005,35 197.455026,35 L195,35 L195,27 Z M197.349206,33.6666667 C198.097006,33.6666667 198.615519,33.4288523 198.904762,32.9532164 C199.045856,32.7192971 199.144621,32.4541925 199.201058,32.1578947 C199.257496,31.861597 199.285714,31.4639401 199.285714,30.9649123 C199.285714,30.403506 199.246914,29.9668632 199.169312,29.6549708 C199.09171,29.3430784 198.9612,29.0779738 198.777778,28.8596491 C198.615519,28.6725137 198.407409,28.5380121 198.153439,28.4561404 C197.89947,28.3742686 197.567903,28.3333333 197.15873,28.3333333 L196.650794,28.3333333 L196.650794,33.6666667 L197.349206,33.6666667 Z" id="D" fill="#FFFFFF"></path>
                    <polygon id="E" fill="#FFFFFF" points="137 101 141.946467 101 141.817987 102.321637 138.670236 102.321637 138.670236 104.263158 141.186296 104.263158 141.186296 105.631579 138.670236 105.631579 138.670236 107.678363 142 107.678363 142 109 137 109"></polygon>
                    <polygon id="F" fill="#FFFFFF" points="174 81 179 81 178.866962 82.3216374 175.72949 82.3216374 175.72949 84.2631579 178.21286 84.2631579 178.21286 85.6315789 175.72949 85.6315789 175.72949 89 174 89"></polygon>
                    <path d="M202.440559,89 C201.209784,89 200.328674,88.6624506 199.797203,87.9873418 C199.265732,87.3122329 199,86.3295892 199,85.0393812 C199,83.7941804 199.307689,82.8096614 199.923077,82.0857947 C200.538465,81.3619279 201.440553,81 202.629371,81 C202.986016,81 203.354893,81.0356302 203.736014,81.1068917 C204.117135,81.1781532 204.423076,81.2662911 204.653846,81.371308 L204.444056,82.6540084 C203.828668,82.4664782 203.26224,82.3727145 202.744755,82.3727145 C202.038458,82.3727145 201.520981,82.5902463 201.192308,83.0253165 C200.863635,83.4603866 200.699301,84.1092315 200.699301,84.9718706 C200.699301,85.917023 200.839159,86.5996228 201.118881,87.0196906 C201.39161,87.4322571 201.853144,87.6385373 202.503497,87.6385373 C202.790211,87.6385373 203.080418,87.6122834 203.374126,87.559775 L203.374126,85.9395218 L202.367133,85.9395218 L202.367133,84.6793249 L205,84.6793249 L205,88.6061885 C204.657341,88.7187066 204.243009,88.8124703 203.756993,88.8874824 C203.270977,88.9624945 202.83217,89 202.440559,89 Z" id="G" fill="#FFFFFF"></path>
                    <polygon id="H-Copy" fill="#FFFFFF" points="179 121 180.692586 121 180.692586 124.263158 183.307414 124.263158 183.307414 121 185 121 185 129 183.307414 129 183.307414 125.631579 180.692586 125.631579 180.692586 129 179 129"></polygon>
                </g>
            </g>
        </g>
    </g>
</svg>
