
<svg width="600px" height="468px" viewBox="0 0 600 468" version="1.1" xmlns="http://www.w3.org/2000/svg" xmlns:xlink="http://www.w3.org/1999/xlink">
    <!-- Generator: Sketch 49.1 (51147) - http://www.bohemiancoding.com/sketch -->
    <desc>Created with Sketch.</desc>
    <defs>
        <path d="M62,203 L382,203 C383.104569,203 384,203.895431 384,205 L384,435 C384,436.104569 383.104569,437 382,437 L62,437 C60.8954305,437 60,436.104569 60,435 L60,205 C60,203.895431 60.8954305,203 62,203 Z" id="path-1"></path>
        <mask id="mask-2" maskContentUnits="userSpaceOnUse" maskUnits="objectBoundingBox" x="0" y="0" width="324" height="234" fill="white">
            <use xlink:href="#path-1"></use>
        </mask>
    </defs>
    <g id="Page-1" stroke="none" stroke-width="1" fill="none" fill-rule="evenodd">
        <g id="GRAPHIC-&amp;-VISUALIZATIONS-rules" transform="translate(-780.000000, -1856.000000)">
            <g id="bg--copy-29" transform="translate(780.000000, 1845.000000)">
                <rect fill="#60CCCC" fill-rule="evenodd" opacity="0.6" style="mix-blend-mode: multiply;" x="400" y="202" width="176" height="235" rx="2"></rect>
                <use id="Rectangle-2-Copy" stroke="#60CCCC" mask="url(#mask-2)" stroke-width="4" stroke-dasharray="4,6" xlink:href="#path-1"></use>
                <rect id="bg--copy-28" fill="#60CCCC" fill-rule="evenodd" opacity="0.2" style="mix-blend-mode: multiply;" x="24" y="437" width="552" height="18" rx="2"></rect>
                <rect id="bg--copy-30" fill="#60CCCC" fill-rule="evenodd" opacity="0.1" style="mix-blend-mode: multiply;" x="24" y="203" width="36" height="252" rx="2"></rect>
                <text id="title-copy-27" font-family="Telefonica-Regular, Telefonica" font-size="16" font-weight="normal" line-spacing="24" fill="#212B36">
                    <tspan x="126.136" y="327">Chart / Graph / KPI + Icon</tspan>
                </text>
                <rect id="Rectangle-Copy-11" fill-opacity="0.25" fill="#FBA6D9" fill-rule="evenodd" transform="translate(392.000000, 329.500000) rotate(-270.000000) translate(-392.000000, -329.500000) " x="242.5" y="320.5" width="299" height="18"></rect>
                <rect id="bg--copy-22" fill="#60CCCC" fill-rule="evenodd" x="0" y="53" width="600" height="48" rx="2"></rect>
                <rect id="bg--copy-23" fill-opacity="0.75" fill="#60CCCC" fill-rule="evenodd" x="0" y="107" width="600" height="66" rx="2"></rect>
                <text id="title-copy-24" font-family="Telefonica-Bold, Telefonica" font-size="16" font-weight="bold" line-spacing="24" fill="#FFFFFF">
                    <tspan x="22" y="81">TITLE AREA</tspan>
                </text>
                <text id="title-copy-23" font-family="Telefonica-Regular, Telefonica" font-size="16" font-weight="normal" line-spacing="24" fill="#FFFFFF">
                    <tspan x="22" y="144">Context / explanation</tspan>
                </text>
                <text id="Label-Copy-6" font-family="Telefonica-Light, Telefonica" font-size="36" font-weight="300" letter-spacing="-0.15" fill="#60CCCC">
                    <tspan x="579.558" y="36">B</tspan>
                </text>
                <rect id="Rectangle-Copy-4" fill-opacity="0.25" fill="#FBA6D9" fill-rule="evenodd" x="0" y="455" width="600" height="24"></rect>
                <rect id="Rectangle-Copy-5" fill-opacity="0.25" fill="#FBA6D9" fill-rule="evenodd" x="0" y="179" width="600" height="24"></rect>
                <rect id="Rectangle-Copy-7" fill-opacity="0.25" fill="#FBA6D9" fill-rule="evenodd" transform="translate(12.000000, 329.500000) rotate(-270.000000) translate(-12.000000, -329.500000) " x="-137.5" y="317.5" width="299" height="24"></rect>
                <rect id="Rectangle-Copy-6" fill-opacity="0.25" fill="#FBA6D9" fill-rule="evenodd" transform="translate(588.000000, 329.500000) rotate(-270.000000) translate(-588.000000, -329.500000) " x="438.5" y="317.5" width="299" height="24"></rect>
                <rect id="label-box-copy-6" fill="#FF77FF" fill-rule="evenodd" style="mix-blend-mode: multiply;" x="442" y="301" width="95" height="23" rx="2"></rect>
                <text id="20%-–-30%" font-family="HelveticaNeue-Medium, Helvetica Neue" font-size="12" font-weight="400" fill="#FFFFFF">
                    <tspan x="458.32" y="317">20% – 30%</tspan>
                </text>
                <text id="title-copy-22" font-family="Telefonica-Bold, Telefonica" font-size="14" font-weight="bold" line-spacing="24" fill="#FFFFFF">
                    <tspan x="515.038" y="222">Legend</tspan>
                </text>
                <rect id="ruler-line-copy" fill="#FF77FF" fill-rule="evenodd" style="mix-blend-mode: multiply;" transform="translate(488.000000, 328.000000) rotate(-270.000000) translate(-488.000000, -328.000000) " x="487" y="240" width="2" height="176"></rect>
            </g>
        </g>
    </g>
</svg>
