
<svg width="243px" height="171px" viewBox="0 0 243 171" version="1.1" xmlns="http://www.w3.org/2000/svg" xmlns:xlink="http://www.w3.org/1999/xlink">
    <!-- Generator: Sketch 49.1 (51147) - http://www.bohemiancoding.com/sketch -->
    <desc>Created with Sketch.</desc>
    <defs></defs>
    <g id="LAYOUT,-GRID-&amp;-BREAKPOINTS" stroke="none" stroke-width="1" fill="none" fill-rule="evenodd">
        <g id="Layout,-grid-&amp;-breakpoints-SPECS" transform="translate(-137.000000, -959.000000)">
            <g id="left-sidebar-copy" transform="translate(137.000000, 959.000000)">
                <g id="Rectangle-149-Copy-5">
                    <rect fill-opacity="0.7" fill="#FF77FF" x="0" y="41" width="14" height="130" rx="2"></rect>
                    <g id="Rectangle-149-Copy">
                        <rect fill="#854D9F" x="0" y="0" width="243" height="23" rx="2"></rect>
                        <path d="M21.5638852,41 L240.436115,41 C241.327634,41 241.65092,41.0928256 241.976846,41.2671327 C242.302772,41.4414398 242.55856,41.6972284 242.732867,42.0231543 C242.907174,42.3490802 243,42.6723665 243,43.5638852 L243,168.436115 C243,169.327634 242.907174,169.65092 242.732867,169.976846 C242.55856,170.302772 242.302772,170.55856 241.976846,170.732867 C241.65092,170.907174 241.327634,171 240.436115,171 L21.5638852,171 C20.6723665,171 20.3490802,170.907174 20.0231543,170.732867 C19.6972284,170.55856 19.4414398,170.302772 19.2671327,169.976846 C19.0928256,169.65092 19,169.327634 19,168.436115 L19,92.671875 L19,43.5638852 C19,42.6723665 19.0928256,42.3490802 19.2671327,42.0231543 C19.4414398,41.6972284 19.6972284,41.4414398 20.0231543,41.2671327 C20.3490802,41.0928256 20.6723665,41 21.5638852,41 Z" id="Rectangle-149-Copy-3" fill="#DFF5F5"></path>
                        <rect id="Rectangle-149-Copy-2" fill-opacity="0.5" fill="#854D9F" x="0" y="25" width="243" height="10" rx="2"></rect>
                    </g>
                </g>
            </g>
        </g>
    </g>
</svg>
