
<svg width="26px" height="106px" viewBox="0 0 26 106" version="1.1" xmlns="http://www.w3.org/2000/svg" xmlns:xlink="http://www.w3.org/1999/xlink">
    <!-- Generator: Sketch 49.3 (51167) - http://www.bohemiancoding.com/sketch -->
    <desc>Created with Sketch.</desc>
    <defs></defs>
    <g id="Page-1" stroke="none" stroke-width="1" fill="none" fill-rule="evenodd">
        <g id="Preguntas" transform="translate(-1375.000000, -295.000000)">
            <g id="Group-5" transform="translate(1376.000000, 296.000000)">
                <g transform="translate(0.000000, 40.000000)">
                    <path d="M23.0229846,12.0050154 C23.0229846,5.87223883 18.1378071,0.987061378 12.0050305,0.987061378 C5.87225386,0.987061378 0.987076409,5.87223883 0.987076409,12.0050154 C0.987076409,18.137742 5.87225386,23.0229194 12.0050305,23.0229194 C18.1378071,23.0229194 23.0229846,18.137742 23.0229846,12.0050154 M23.9849386,12.0050154 C23.9849386,18.6187942 18.6188092,23.9849737 12.0050305,23.9849737 C5.39125177,23.9849737 0.0250722338,18.6187942 0.0250722338,12.0050154 C0.0250722338,5.39123674 5.39125177,0.0250070981 12.0050305,0.0250070981 C18.6137987,0.0250070981 23.9849386,5.39123674 23.9849386,12.0050154 M16.3140075,7.69097787 C15.7879115,7.69097787 15.3570138,8.12192568 15.3570138,8.64802171 C15.3570138,9.17411775 15.7879115,9.60501545 16.3140075,9.60501545 C16.8401035,9.60501545 17.2710013,9.17411775 17.2710013,8.64802171 C17.2710013,8.12192568 16.8401035,7.69097787 16.3140075,7.69097787 M8.64803674,8.64802171 C8.64803674,8.12192568 8.21713904,7.69097787 7.69104301,7.69097787 C7.16494697,7.69097787 6.73399916,8.12192568 6.73399916,8.64802171 C6.73399916,9.17411775 7.16494697,9.60501545 7.69104301,9.60501545 C8.21713904,9.60501545 8.64803674,9.17411775 8.64803674,8.64802171 M7.26560668,16.3139925 L16.7844376,16.3139925 C17.0780994,16.3139925 17.3160952,16.5281887 17.3160952,16.7924894 C17.3160952,17.0567399 17.0780994,17.2709862 16.7844376,17.2709862 L7.26560668,17.2709862 C6.97204509,17.2709862 6.73399916,17.0567399 6.73399916,16.7924894 C6.73399916,16.5281887 6.97204509,16.3139925 7.26560668,16.3139925" id="Fill-1" fill="#000000"></path>
                    <path d="M23.0229846,12.0050154 C23.0229846,5.87223883 18.1378071,0.987061378 12.0050305,0.987061378 C5.87225386,0.987061378 0.987076409,5.87223883 0.987076409,12.0050154 C0.987076409,18.137742 5.87225386,23.0229194 12.0050305,23.0229194 C18.1378071,23.0229194 23.0229846,18.137742 23.0229846,12.0050154 Z M23.9849386,12.0050154 C23.9849386,18.6187942 18.6188092,23.9849737 12.0050305,23.9849737 C5.39125177,23.9849737 0.0250722338,18.6187942 0.0250722338,12.0050154 C0.0250722338,5.39123674 5.39125177,0.0250070981 12.0050305,0.0250070981 C18.6137987,0.0250070981 23.9849386,5.39123674 23.9849386,12.0050154 Z M16.3140075,7.69097787 C15.7879115,7.69097787 15.3570138,8.12192568 15.3570138,8.64802171 C15.3570138,9.17411775 15.7879115,9.60501545 16.3140075,9.60501545 C16.8401035,9.60501545 17.2710013,9.17411775 17.2710013,8.64802171 C17.2710013,8.12192568 16.8401035,7.69097787 16.3140075,7.69097787 Z M8.64803674,8.64802171 C8.64803674,8.12192568 8.21713904,7.69097787 7.69104301,7.69097787 C7.16494697,7.69097787 6.73399916,8.12192568 6.73399916,8.64802171 C6.73399916,9.17411775 7.16494697,9.60501545 7.69104301,9.60501545 C8.21713904,9.60501545 8.64803674,9.17411775 8.64803674,8.64802171 Z M7.26560668,16.3139925 L16.7844376,16.3139925 C17.0780994,16.3139925 17.3160952,16.5281887 17.3160952,16.7924894 C17.3160952,17.0567399 17.0780994,17.2709862 16.7844376,17.2709862 L7.26560668,17.2709862 C6.97204509,17.2709862 6.73399916,17.0567399 6.73399916,16.7924894 C6.73399916,16.5281887 6.97204509,16.3139925 7.26560668,16.3139925 Z" id="Stroke-3" stroke="#4A4A4A" stroke-width="0.5"></path>
                </g>
                <g>
                    <path d="M23.0229795,12.0050205 C23.0229795,5.87224384 18.1378021,0.987066388 12.0050255,0.987066388 C5.87224885,0.987066388 0.987071399,5.87224384 0.987071399,12.0050205 C0.987071399,18.1377971 5.87224885,23.0229745 12.0050255,23.0229745 C18.1378021,23.0229745 23.0229795,18.1377971 23.0229795,12.0050205 M23.9849837,12.0050205 C23.9849837,18.6187491 18.6188042,23.9849787 12.0050255,23.9849787 C5.39124676,23.9849787 0.0250672234,18.6187491 0.0250672234,12.0050205 C0.0250672234,5.39124175 5.39124676,0.0250622129 12.0050255,0.0250622129 C18.6137937,0.0250622129 23.9849837,5.39124175 23.9849837,12.0050205 M6.73404426,16.1465987 C6.73404426,16.2564276 6.78129269,16.360795 6.86441587,16.4326948 C7.34767265,16.8504651 9.15704217,18.227985 12.0050255,18.227985 C14.8529587,18.227985 16.6623783,16.8504651 17.145585,16.4326948 C17.2287081,16.360795 17.2760067,16.2564276 17.2760067,16.1465987 C17.2760067,15.8402104 16.9312384,15.6597344 16.6805161,15.8357511 C15.872633,16.4026322 14.2661862,17.459985 12.0050255,17.459985 C9.74386472,17.459985 8.13741795,16.4026322 7.32953486,15.8357511 C7.07876242,15.6597344 6.73404426,15.8402104 6.73404426,16.1465987 M7.691038,9.60502046 C8.21713403,9.60502046 8.64803173,9.17412276 8.64803173,8.64802672 C8.64803173,8.12193069 8.21713403,7.69103299 7.691038,7.69103299 C7.16494196,7.69103299 6.73404426,8.12193069 6.73404426,8.64802672 C6.73404426,9.17412276 7.16494196,9.60502046 7.691038,9.60502046 M15.3570088,8.64802672 C15.3570088,8.12193069 15.7879065,7.69103299 16.3140025,7.69103299 C16.8400985,7.69103299 17.2710463,8.12193069 17.2710463,8.64802672 C17.2710463,9.17412276 16.8400985,9.60502046 16.3140025,9.60502046 C15.7879065,9.60502046 15.3570088,9.17412276 15.3570088,8.64802672" id="Fill-1" fill="#000000"></path>
                    <path d="M23.0229795,12.0050205 C23.0229795,5.87224384 18.1378021,0.987066388 12.0050255,0.987066388 C5.87224885,0.987066388 0.987071399,5.87224384 0.987071399,12.0050205 C0.987071399,18.1377971 5.87224885,23.0229745 12.0050255,23.0229745 C18.1378021,23.0229745 23.0229795,18.1377971 23.0229795,12.0050205 Z M23.9849837,12.0050205 C23.9849837,18.6187491 18.6188042,23.9849787 12.0050255,23.9849787 C5.39124676,23.9849787 0.0250672234,18.6187491 0.0250672234,12.0050205 C0.0250672234,5.39124175 5.39124676,0.0250622129 12.0050255,0.0250622129 C18.6137937,0.0250622129 23.9849837,5.39124175 23.9849837,12.0050205 Z M6.73404426,16.1465987 C6.73404426,16.2564276 6.78129269,16.360795 6.86441587,16.4326948 C7.34767265,16.8504651 9.15704217,18.227985 12.0050255,18.227985 C14.8529587,18.227985 16.6623783,16.8504651 17.145585,16.4326948 C17.2287081,16.360795 17.2760067,16.2564276 17.2760067,16.1465987 C17.2760067,15.8402104 16.9312384,15.6597344 16.6805161,15.8357511 C15.872633,16.4026322 14.2661862,17.459985 12.0050255,17.459985 C9.74386472,17.459985 8.13741795,16.4026322 7.32953486,15.8357511 C7.07876242,15.6597344 6.73404426,15.8402104 6.73404426,16.1465987 Z M7.691038,9.60502046 C8.21713403,9.60502046 8.64803173,9.17412276 8.64803173,8.64802672 C8.64803173,8.12193069 8.21713403,7.69103299 7.691038,7.69103299 C7.16494196,7.69103299 6.73404426,8.12193069 6.73404426,8.64802672 C6.73404426,9.17412276 7.16494196,9.60502046 7.691038,9.60502046 Z M15.3570088,8.64802672 C15.3570088,8.12193069 15.7879065,7.69103299 16.3140025,7.69103299 C16.8400985,7.69103299 17.2710463,8.12193069 17.2710463,8.64802672 C17.2710463,9.17412276 16.8400985,9.60502046 16.3140025,9.60502046 C15.7879065,9.60502046 15.3570088,9.17412276 15.3570088,8.64802672 Z" id="Stroke-3" stroke="#4A4A4A" stroke-width="0.5"></path>
                </g>
                <g transform="translate(0.000000, 80.000000)">
                    <path d="M6.73401921,17.4434154 C6.73401921,17.7497035 7.07873737,17.9302296 7.32950981,17.754263 C8.1373929,17.187382 9.74388977,16.319023 12.0050004,16.319023 C14.2661612,16.319023 15.872658,17.187382 16.680491,17.754263 C16.9312635,17.9302296 17.2759816,17.7497035 17.2759816,17.4434154 C17.2759816,17.3335365 17.2287332,17.2291691 17.14561,17.1573194 C16.6623532,16.7395491 14.8529837,15.3620292 12.0050004,15.3620292 C9.15706722,15.3620292 7.3476476,16.7395491 6.86444092,17.1573194 C6.78131775,17.2291691 6.73401921,17.3335365 6.73401921,17.4434154 M16.3139775,10.5670397 C16.8400735,10.5670397 17.2710213,10.1360919 17.2710213,9.60999582 C17.2710213,9.08389979 16.8400735,8.65305219 16.3139775,8.65305219 C15.7878814,8.65305219 15.3570338,9.08389979 15.3570338,9.60999582 C15.3570338,10.1360919 15.7878814,10.5670397 16.3139775,10.5670397 M23.0230046,12.0050355 C23.0230046,5.87225887 18.1378271,0.98708142 12.0050004,0.98708142 C5.8722238,0.98708142 0.987046347,5.87225887 0.987046347,12.0050355 C0.987046347,18.137762 5.8722238,23.0229395 12.0050004,23.0229395 C18.1378271,23.0229395 23.0230046,18.137762 23.0230046,12.0050355 M23.9849587,12.0050355 C23.9849587,18.6188142 18.6187791,23.9849937 12.0050004,23.9849937 C5.39122171,23.9849937 0.0250421712,18.6188142 0.0250421712,12.0050355 C0.0250421712,5.39125678 5.39122171,0.0250271399 12.0050004,0.0250271399 C18.6138188,0.0250271399 23.9849587,5.39125678 23.9849587,12.0050355 M6.73401921,9.60999582 C6.73401921,9.08389979 7.16491691,8.65305219 7.69101294,8.65305219 C8.21710898,8.65305219 8.64800668,9.08389979 8.64800668,9.60999582 C8.64800668,10.1360919 8.21710898,10.5670397 7.69101294,10.5670397 C7.16491691,10.5670397 6.73401921,10.1360919 6.73401921,9.60999582" id="Fill-1" fill="#000000"></path>
                    <path d="M6.73401921,17.4434154 C6.73401921,17.7497035 7.07873737,17.9302296 7.32950981,17.754263 C8.1373929,17.187382 9.74388977,16.319023 12.0050004,16.319023 C14.2661612,16.319023 15.872658,17.187382 16.680491,17.754263 C16.9312635,17.9302296 17.2759816,17.7497035 17.2759816,17.4434154 C17.2759816,17.3335365 17.2287332,17.2291691 17.14561,17.1573194 C16.6623532,16.7395491 14.8529837,15.3620292 12.0050004,15.3620292 C9.15706722,15.3620292 7.3476476,16.7395491 6.86444092,17.1573194 C6.78131775,17.2291691 6.73401921,17.3335365 6.73401921,17.4434154 Z M16.3139775,10.5670397 C16.8400735,10.5670397 17.2710213,10.1360919 17.2710213,9.60999582 C17.2710213,9.08389979 16.8400735,8.65305219 16.3139775,8.65305219 C15.7878814,8.65305219 15.3570338,9.08389979 15.3570338,9.60999582 C15.3570338,10.1360919 15.7878814,10.5670397 16.3139775,10.5670397 Z M23.0230046,12.0050355 C23.0230046,5.87225887 18.1378271,0.98708142 12.0050004,0.98708142 C5.8722238,0.98708142 0.987046347,5.87225887 0.987046347,12.0050355 C0.987046347,18.137762 5.8722238,23.0229395 12.0050004,23.0229395 C18.1378271,23.0229395 23.0230046,18.137762 23.0230046,12.0050355 Z M23.9849587,12.0050355 C23.9849587,18.6188142 18.6187791,23.9849937 12.0050004,23.9849937 C5.39122171,23.9849937 0.0250421712,18.6188142 0.0250421712,12.0050355 C0.0250421712,5.39125678 5.39122171,0.0250271399 12.0050004,0.0250271399 C18.6138188,0.0250271399 23.9849587,5.39125678 23.9849587,12.0050355 Z M6.73401921,9.60999582 C6.73401921,9.08389979 7.16491691,8.65305219 7.69101294,8.65305219 C8.21710898,8.65305219 8.64800668,9.08389979 8.64800668,9.60999582 C8.64800668,10.1360919 8.21710898,10.5670397 7.69101294,10.5670397 C7.16491691,10.5670397 6.73401921,10.1360919 6.73401921,9.60999582 Z" id="Stroke-3" stroke="#4A4A4A" stroke-width="0.5"></path>
                </g>
            </g>
        </g>
    </g>
</svg>
