<svg xmlns="http://www.w3.org/2000/svg" width="24" height="24" viewBox="0 0 24 24">
    <path fill="#4A4A4A" fill-rule="evenodd" d="M5.214 13.23c.039-.046.08-.12.08-.407 0-.234-.052-.376-.096-.426-.002-.003-.071-.065-.35-.065h-.352v.96h.424c.24 0 .271-.036.294-.063zm-.344-2.054c.538 0 .93.14 1.196.424.272.287.411.696.411 1.212 0 .51-.124.9-.378 1.187-.258.297-.634.45-1.113.45h-.49v.99c0 .279-.225.504-.503.504h-.165a.504.504 0 0 1-.503-.504V11.68c0-.28.225-.504.503-.504H4.87zm4.301 3.452c.088-.083.233-.337.233-1.108 0-.549-.07-.89-.208-1.017-.134-.123-.348-.17-.758-.17h-.166v2.454h.259c.474 0 .599-.12.64-.159zm-.749-3.452c.512 0 1.097.034 1.564.452.416.374.601.966.601 1.92 0 .942-.187 1.56-.592 1.94-.425.408-1.012.456-1.415.456h-.976a.504.504 0 0 1-.504-.505V11.68c0-.278.226-.504.504-.504h.818zm5.087 0a.502.502 0 0 1 .492.612l-.033.149a.504.504 0 0 1-.491.395h-1.034v.62h.758c.279 0 .503.224.503.504v.147c0 .28-.224.505-.503.505h-.758v1.331a.504.504 0 0 1-.503.505h-.165a.504.504 0 0 1-.504-.505V11.68c0-.278.226-.504.504-.504h1.734zm8.99 11.815c.254 0 .494-.224.494-.46V8.046h-3.13c-1.196 0-2.226-.385-2.98-1.116-.758-.733-1.16-1.74-1.16-2.907V1.009H7.338c-.221 0-.494.254-.494.461V8.2h8.174a2.767 2.767 0 0 1 2.761 2.766v5.096a2.767 2.767 0 0 1-2.761 2.766H6.888l-.045 3.71c0 .221.249.453.494.453h15.162zm-21.492-6.93c0 .97.787 1.758 1.755 1.758h12.255c.968 0 1.754-.788 1.754-1.757v-5.096c0-.97-.786-1.758-1.754-1.758H2.762c-.968 0-1.755.788-1.755 1.758v5.096zM22.73 7.038L16.73 1.231v2.792c0 .887.294 1.642.852 2.182.563.544 1.35.832 2.28.832h2.866zm1.23-.021a.48.48 0 0 1 .041.198V22.53c0 .796-.687 1.469-1.5 1.469H7.336c-.8 0-1.501-.687-1.501-1.469l.045-3.703h-3.12A2.768 2.768 0 0 1 0 16.062v-5.096a2.768 2.768 0 0 1 2.762-2.767h3.074V1.47C5.836.7 6.55 0 7.336 0h9.23c.22 0 .437.088.592.241l6.59 6.378c.111.108.173.25.21.397z"/>
</svg>
