<svg xmlns="http://www.w3.org/2000/svg" width="24" height="24" viewBox="0 0 24 24">
    <path fill="#4A4A4A" fill-rule="evenodd" d="M7.59 13.726h.126l-.065-.201-.061.2zm.633-2.204l1.228 3.76a.505.505 0 0 1-.48.66l-.175.001a.502.502 0 0 1-.48-.35l-.227-.711h-.856l-.215.705a.505.505 0 0 1-.483.356H6.36a.501.501 0 0 1-.48-.654l1.168-3.76a.504.504 0 0 1 .48-.354h.215c.218 0 .412.14.48.347zm2.397-.347c.278 0 .503.226.503.504v3.76a.504.504 0 0 1-.503.505h-.166a.504.504 0 0 1-.503-.505v-3.76c0-.278.225-.504.503-.504h.166zM22.5 22.99c.253 0 .493-.224.493-.461V8.045h-3.13c-1.197 0-2.227-.386-2.98-1.116-.758-.733-1.16-1.74-1.16-2.907V1.009H7.336c-.225 0-.493.25-.493.46v6.73h8.173a2.767 2.767 0 0 1 2.762 2.766v5.096a2.767 2.767 0 0 1-2.762 2.766H6.888l-.045 3.71c0 .222.25.454.493.454h15.163zm-21.493-6.93c0 .97.787 1.757 1.755 1.757h12.254c.968 0 1.755-.788 1.755-1.757v-5.096c0-.97-.787-1.758-1.755-1.758H2.762c-.968 0-1.755.788-1.755 1.758v5.096zM22.73 7.036L16.73 1.23v2.792c0 .887.295 1.642.853 2.182.56.544 1.348.832 2.278.832h2.867zm1.23-.02a.48.48 0 0 1 .041.197V22.53c0 .797-.687 1.47-1.5 1.47H7.335c-.799 0-1.5-.687-1.5-1.47l.044-3.703H2.762A2.768 2.768 0 0 1 0 16.061v-5.096a2.768 2.768 0 0 1 2.762-2.767h3.074V1.47C5.836.7 6.551 0 7.336 0h9.23c.219 0 .434.087.589.237l6.592 6.381a.808.808 0 0 1 .213.398z"/>
</svg>
