
<svg width="58px" height="62px" viewBox="0 0 58 62" version="1.1" xmlns="http://www.w3.org/2000/svg" xmlns:xlink="http://www.w3.org/1999/xlink">
    <!-- Generator: Sketch 49.1 (51147) - http://www.bohemiancoding.com/sketch -->
    <desc>Created with Sketch.</desc>
    <defs></defs>
    <g id="Tooltips" stroke="none" stroke-width="1" fill="none" fill-rule="evenodd">
        <g id="Desk–HD-1440px-TOOLTIPS-look-&amp;-feel" transform="translate(-391.000000, -2247.000000)" fill="#9B9B9B">
            <g id="PDF-DOWNLOAD" transform="translate(391.000000, 2247.000000)">
                <text id="PDF" font-family="Telefonica-Bold, Telefonica" font-size="11" font-weight="bold">
                    <tspan x="29" y="47">PDF</tspan>
                </text>
                <path d="M54.0231487,47.8209263 C54.0231487,48.9972375 53.0430182,49.9550909 51.8355823,49.9550909 L26.0804835,49.9550909 C24.8737103,49.9550909 23.8922544,48.9978838 23.8922544,47.8209263 L23.8922544,38.3160737 C23.8922544,37.1397625 24.8737103,36.1819092 26.0804835,36.1819092 L51.8355823,36.1819092 C53.0423555,36.1819092 54.0231487,37.1391162 54.0231487,38.3160737 L54.0231487,47.8209263 Z M46.8819141,53.8621243 C46.8819141,56.2108687 44.9223158,58.1220511 42.5127455,58.1220511 L8.34469442,58.1220511 C5.93578684,58.1220511 3.97618857,56.2108687 3.97618857,53.8621243 L3.97618857,8.138522 C3.97618857,5.78913132 5.93578684,3.87794886 8.34469442,3.87794886 L32.2694211,3.87794886 L32.2694211,19.8053311 L46.8819141,19.8053311 L46.8819141,32.3046066 L26.0804835,32.3046066 C22.681505,32.3046066 19.9160659,35.0017201 19.9160659,38.31672 L19.9160659,47.8215727 C19.9160659,51.1365726 22.681505,53.833686 26.0804835,53.833686 L46.8819141,53.833686 L46.8819141,53.8621243 Z M36.2456096,7.01456316 L44.4233041,15.9273823 L36.2456096,15.9273823 L36.2456096,7.01456316 Z M51.8355823,32.3046066 L50.8574399,32.3046066 L50.8574399,17.1256685 L35.1475189,0 L8.34469442,0 C3.74358154,0 0,3.65044252 0,8.138522 L0,53.8621243 C0,58.3495575 3.74291884,62 8.34469442,62 L42.5127455,62 C47.1138584,62 50.8581026,58.3502038 50.8581026,53.8621243 L50.8581026,53.8330397 L51.836245,53.8330397 C55.2352235,53.8330397 58,51.1359263 58,47.8209263 L58,38.3160737 C57.9993373,35.0010737 55.2345608,32.3046066 51.8355823,32.3046066 Z" id="Fill-1" fill-rule="evenodd"></path>
            </g>
        </g>
    </g>
</svg>
