<?xml version="1.0" encoding="UTF-8"?>
<svg width="17px" height="18px" viewBox="0 0 17 18" version="1.1" xmlns="http://www.w3.org/2000/svg" xmlns:xlink="http://www.w3.org/1999/xlink">
    <!-- Generator: Sketch 51.3 (57544) - http://www.bohemiancoding.com/sketch -->
    <title>ic-PDF</title>
    <desc>Created with Sketch.</desc>
    <defs></defs>
    <g id="Page-1" stroke="none" stroke-width="1" fill="none" fill-rule="evenodd">
        <g id="Downloads-2" transform="translate(-654.000000, -471.000000)">
            <g id="Download-PDF" transform="translate(654.000000, 471.000000)">
                <g id="ic-PDF">
                    <path d="M15.2999808,7.19013975 L1.69999787,7.19013975 C0.761114973,7.19013975 0,8.09312298 0,9.20700924 L0,13.2407482 C0,14.3546345 0.761114973,15.2576177 1.69999787,15.2576177 L15.2999808,15.2576177 C16.2388637,15.2576177 16.9999787,14.3546345 16.9999787,13.2407482 L16.9999787,9.20700924 C17.0022404,8.67035709 16.824133,8.15476395 16.5050761,7.77434369 C16.1860192,7.39392342 15.7523249,7.18004869 15.2999808,7.1800554 L15.2999808,7.19013975 Z" id="Path" fill="#999999"></path>
                    <path d="M14.659919,7.32788007 L14.659919,2.29480202 C14.6617512,1.96687124 14.5356631,1.65172828 14.3095854,1.41918272 C14.0835077,1.18663716 13.7761026,1.05588515 13.4554656,1.0558905 L5.34089069,1.0558905 L5.34089069,2.66084406 C5.33711579,3.72835317 4.4919268,4.59278248 3.44817814,4.59664331 L1.92712551,4.59664331 L1.92712551,15.6623758 C1.92712551,16.34272 2.46637768,16.894248 3.13157895,16.894248 L13.4554656,16.894248 C14.1206669,16.894248 14.659919,16.34272 14.659919,15.6623758 L14.659919,13.5224377 L15.6923077,13.5224377 L15.6923077,15.6623758 C15.6885288,16.9242679 14.6892707,17.9462736 13.4554656,17.9501385 L3.13157895,17.9501385 C1.89777383,17.9462736 0.898515751,16.9242679 0.894736842,15.6623758 L0.894736842,4.16724784 C0.895601177,4.02742828 0.949952127,3.8935112 1.04615385,3.79416653 L4.60445344,0.15486394 C4.70116579,0.0558266995 4.83237365,0.000123223857 4.96923077,0 L13.4554656,0 C14.6892707,0.00386493406 15.6885288,1.02587065 15.6923077,2.28776275 L15.6923077,7.3208408 L14.659919,7.32788007 Z" id="Shape-Copy-2" fill="#999999" fill-rule="nonzero"></path>
                    <text id="PDF" font-family="Telefonica-Bold, Telefonica" font-size="7" font-weight="bold" fill="#FFFFFF">
                        <tspan x="1.997" y="13.3947368">PDF</tspan>
                    </text>
                </g>
            </g>
        </g>
    </g>
</svg>