
<svg width="20px" height="20px" viewBox="0 0 20 20" version="1.1" xmlns="http://www.w3.org/2000/svg" xmlns:xlink="http://www.w3.org/1999/xlink">
    <g id="Page-1" stroke="none" stroke-width="1" fill="none" fill-rule="evenodd">
        <g id="ic-search">
            <g>
                <g id="path-1-link" fill="#999999">
                    <path d="M19.167161,17.4903785 L15.143404,13.5190289 C16.275357,12.0979742 16.956485,10.3100962 16.956485,8.3670633 C16.956485,3.7535162 13.153252,0 8.478785,0 C3.803232,0 0,3.7535162 0,8.3670633 C0,12.9795829 3.803232,16.7330991 8.478785,16.7330991 C10.310333,16.7330991 12.003918,16.14947 13.392244,15.1712747 L17.454023,19.1806424 C17.690842,19.4138885 18.000445,19.5299979 18.311135,19.5299979 C18.620738,19.5299979 18.930341,19.4138885 19.167161,19.1806424 C19.639713,18.7141501 19.639713,17.9578983 19.167161,17.4903785 L19.167161,17.4903785 Z M2.421424,8.3670633 C2.421424,5.0718193 5.139415,2.3910299 8.478785,2.3910299 C11.818156,2.3910299 14.533974,5.0718193 14.533974,8.3670633 C14.533974,11.6623073 11.818156,14.3420692 8.478785,14.3420692 C5.139415,14.3420692 2.421424,11.6623073 2.421424,8.3670633 L2.421424,8.3670633 Z" id="path-1"></path>
                </g>
                <path d="M18.464101,18.2015097 L13.801062,13.5992041 L14.361224,12.8959766 C15.389141,11.6055292 15.956485,10.0269607 15.956485,8.3670633 C15.956485,4.308793 12.603917,1 8.478785,1 C4.352716,1 1,4.3086471 1,8.3670633 C1,12.4245919 4.352859,15.7330991 8.478785,15.7330991 C10.049718,15.7330991 11.550207,15.2458573 12.816269,14.3538079 L13.499728,13.8722522 L14.094745,14.4595913 L18.155734,18.4681811 C18.19672,18.5085486 18.250484,18.5299979 18.311135,18.5299979 C18.370725,18.5299979 18.42448,18.5085322 18.464632,18.4689871 C18.540604,18.3939898 18.540687,18.2775339 18.464101,18.2015097 Z M1.421424,8.3670633 C1.421424,4.5167123 4.589903,1.3910299 8.478785,1.3910299 C12.367363,1.3910299 15.533974,4.5164168 15.533974,8.3670633 C15.533974,12.2175682 12.367509,15.3420692 8.478785,15.3420692 C4.589757,15.3420692 1.421424,12.2172728 1.421424,8.3670633 Z" id="Shape" stroke="#999999" stroke-width="2"></path>
            </g>
        </g>
    </g>
</svg>
