<?xml version="1.0" encoding="UTF-8"?>
<svg width="57px" height="61px" viewBox="0 0 57 61" version="1.1" xmlns="http://www.w3.org/2000/svg" xmlns:xlink="http://www.w3.org/1999/xlink">
    <!-- Generator: Sketch 51.3 (57544) - http://www.bohemiancoding.com/sketch -->
    <title>ic-pdf</title>
    <desc>Created with Sketch.</desc>
    <defs></defs>
    <g id="Page-1" stroke="none" stroke-width="1" fill="none" fill-rule="evenodd">
        <g id="Downloads-1" transform="translate(-1016.000000, -907.000000)" fill="#9B9B9B">
            <g id="PDF-Copy" transform="translate(992.000000, 907.000000)">
                <g id="ic-pdf" transform="translate(24.000000, 0.000000)">
                    <g id="PDF" transform="translate(30.000000, 35.000000)" font-family="Telefonica-Bold, Telefonica" font-size="11" font-weight="bold">
                        <text id="ZIP">
                            <tspan x="0" y="11">ZIP</tspan>
                        </text>
                    </g>
                    <path d="M53.0917151,47.049621 C53.0917151,48.2069595 52.1284834,49.1493636 50.9418654,49.1493636 L25.63082,49.1493636 C24.4448532,49.1493636 23.480319,48.2075954 23.480319,47.049621 L23.480319,37.6980725 C23.480319,36.5407341 24.4448532,35.59833 25.63082,35.59833 L50.9418654,35.59833 C52.1278321,35.59833 53.0917151,36.5400982 53.0917151,37.6980725 L53.0917151,47.049621 Z M46.0736052,52.9933804 C46.0736052,55.3042418 44.1477931,57.1845987 41.7797671,57.1845987 L8.20082038,57.1845987 C5.83344569,57.1845987 3.90763359,55.3042418 3.90763359,52.9933804 L3.90763359,8.00725552 C3.90763359,5.69575823 5.83344569,3.8154013 8.20082038,3.8154013 L31.7130518,3.8154013 L31.7130518,19.4858903 L46.0736052,19.4858903 L46.0736052,31.7835646 L25.63082,31.7835646 C22.2904446,31.7835646 19.5726855,34.4371762 19.5726855,37.6987084 L19.5726855,47.050257 C19.5726855,50.3117892 22.2904446,52.9654007 25.63082,52.9654007 L46.0736052,52.9654007 L46.0736052,52.9933804 Z M35.6206853,6.90142504 L43.6573851,15.670489 L35.6206853,15.670489 L35.6206853,6.90142504 Z M50.9418654,31.7835646 L49.9805875,31.7835646 L49.9805875,16.849448 L34.5415272,0 L8.20082038,0 C3.67903703,0 0,3.59156441 0,8.00725552 L0,52.9933804 C0,57.4084356 3.67838576,61 8.20082038,61 L41.7797671,61 C46.3015505,61 49.9812388,57.4090715 49.9812388,52.9933804 L49.9812388,52.9647649 L50.9425166,52.9647649 C54.2828921,52.9647649 57,50.3111533 57,47.049621 L57,37.6980725 C56.9993487,34.4365403 54.2822408,31.7835646 50.9418654,31.7835646 Z" id="Fill-1" fill-rule="nonzero"></path>
                </g>
            </g>
        </g>
    </g>
</svg>