<?xml version="1.0" encoding="UTF-8"?>
<svg width="15px" height="18px" viewBox="0 0 15 18" version="1.1" xmlns="http://www.w3.org/2000/svg" xmlns:xlink="http://www.w3.org/1999/xlink">
    <!-- Generator: Sketch 51.3 (57544) - http://www.bohemiancoding.com/sketch -->
    <title>Group 2 Copy</title>
    <desc>Created with Sketch.</desc>
    <defs></defs>
    <g id="Page-1" stroke="none" stroke-width="1" fill="none" fill-rule="evenodd">
        <g id="Downloads-2" transform="translate(-655.000000, -534.000000)" fill="#999999">
            <g id="Group-2-Copy" transform="translate(654.000000, 534.000000)">
                <path d="M14.7651822,7.32788007 L14.7651822,2.29480202 C14.7670144,1.96687124 14.6409263,1.65172828 14.4148486,1.41918272 C14.1887708,1.18663716 13.8813657,1.05588515 13.5607287,1.0558905 L5.44615385,1.0558905 L5.44615385,2.66084406 C5.44237895,3.72835317 4.59718996,4.59278248 3.5534413,4.59664331 L2.03238866,4.59664331 L2.03238866,15.6623758 C2.03238866,16.34272 2.57164084,16.894248 3.23684211,16.894248 L13.5607287,16.894248 C14.22593,16.894248 14.7651822,16.34272 14.7651822,15.6623758 L14.7651822,6.52243767 L15.7975709,6.52243767 L15.7975709,15.6623758 C15.7937919,16.9242679 14.7945339,17.9462736 13.5607287,17.9501385 L3.23684211,17.9501385 C2.00303699,17.9462736 1.00377891,16.9242679 1,15.6623758 L1,4.16724784 C1.00086434,4.02742828 1.05521529,3.8935112 1.151417,3.79416653 L4.7097166,0.15486394 C4.80642895,0.0558266995 4.9376368,0.000123223857 5.07449393,0 L13.5607287,0 C14.7945339,0.00386493406 15.7937919,1.02587065 15.7975709,2.28776275 L15.7975709,7.3208408 L14.7651822,7.32788007 Z" id="Shape-Copy-2" fill-rule="nonzero"></path>
                <text id="ZIP" font-family="Telefonica-Bold, Telefonica" font-size="6" font-weight="bold">
                    <tspan x="3.931" y="12">ZIP</tspan>
                </text>
            </g>
        </g>
    </g>
</svg>