<svg xmlns="http://www.w3.org/2000/svg"><symbol viewBox="0 0 14 14" id="ic-add"><!-- Generator: Sketch 49.1 (51147) - http://www.bohemiancoding.com/sketch -->
    <desc>Created with Sketch.</desc>
    <defs/>
    <g stroke="none" stroke-width="1" fill="none" fill-rule="evenodd">
        <g transform="translate(-1048.000000, -729.000000)" fill="#CCCCCC">
            <g transform="translate(211.000000, 724.000000)">
                <g transform="translate(832.000000, 0.000000)">
                    <polygon points="11 5 11 11 5 11 5 13 11 13 11 19 13 19 13 13 19 13 19 11 13 11 13 5"/>
                </g>
            </g>
        </g>
    </g></symbol>
<symbol viewBox="0 0 16 16" id="ic-arrow_back"><!-- Generator: Sketch 49.1 (51147) - http://www.bohemiancoding.com/sketch -->
    <desc>Created with Sketch.</desc>
    <defs/>
    <g stroke="none" stroke-width="1" fill="none" fill-rule="evenodd">
        <g transform="translate(-267.000000, -728.000000)" fill="#CCCCCC">
            <g transform="translate(211.000000, 724.000000)">
                <g transform="translate(52.000000, 0.000000)">
                    <polygon points="20 11 7.8 11 13.4 5.4 12 4 4 12 12 20 13.4 18.6 7.8 13 20 13"/>
                </g>
            </g>
        </g>
    </g></symbol>
<symbol viewBox="0 0 10 5" id="ic-arrow_drop_down"><!-- Generator: Sketch 49.1 (51147) - http://www.bohemiancoding.com/sketch -->
    <desc>Created with Sketch.</desc>
    <defs/>
    <g stroke="none" stroke-width="1" fill="none" fill-rule="evenodd">
        <g transform="translate(-321.000000, -734.000000)" fill="#CCCCCC">
            <g transform="translate(211.000000, 724.000000)">
                <g transform="translate(103.000000, 0.000000)">
                    <polygon points="7 10 12 15 17 10"/>
                </g>
            </g>
        </g>
    </g></symbol>
<symbol viewBox="0 0 10 5" id="ic-arrow_drop_up"><!-- Generator: Sketch 49.1 (51147) - http://www.bohemiancoding.com/sketch -->
    <desc>Created with Sketch.</desc>
    <defs/>
    <g stroke="none" stroke-width="1" fill="none" fill-rule="evenodd">
        <g transform="translate(-374.000000, -733.000000)" fill="#CCCCCC">
            <g transform="translate(211.000000, 724.000000)">
                <g transform="translate(156.000000, 0.000000)">
                    <polygon points="7 14 12 9 17 14"/>
                </g>
            </g>
        </g>
    </g></symbol>
<symbol viewBox="0 0 16 16" id="ic-arrow_forward"><!-- Generator: Sketch 49.1 (51147) - http://www.bohemiancoding.com/sketch -->
    <desc>Created with Sketch.</desc>
    <defs/>
    <g stroke="none" stroke-width="1" fill="none" fill-rule="evenodd">
        <g transform="translate(-423.000000, -728.000000)" fill="#CCCCCC">
            <g transform="translate(211.000000, 724.000000)">
                <g transform="translate(208.000000, 0.000000)">
                    <polygon points="12 4 10.6 5.4 16.2 11 4 11 4 13 16.2 13 10.6 18.6 12 20 20 12"/>
                </g>
            </g>
        </g>
    </g></symbol>
<symbol viewBox="0 0 18 14" id="ic-check"><!-- Generator: Sketch 49.1 (51147) - http://www.bohemiancoding.com/sketch -->
    <desc>Created with Sketch.</desc>
    <defs/>
    <g stroke="none" stroke-width="1" fill="none" fill-rule="evenodd">
        <g transform="translate(-474.000000, -729.000000)" fill="#CCCCCC">
            <g transform="translate(211.000000, 724.000000)">
                <g transform="translate(260.000000, 0.000000)">
                    <polygon points="8.9999939 16.2 4.7999939 12 3.3999939 13.4 8.9999939 19 20.9999939 7 19.5999939 5.6"/>
                </g>
            </g>
        </g>
    </g></symbol>
<symbol viewBox="0 0 8 12" id="ic-chevron_left"><!-- Generator: Sketch 49.1 (51147) - http://www.bohemiancoding.com/sketch -->
    <desc>Created with Sketch.</desc>
    <defs/>
    <g stroke="none" stroke-width="1" fill="none" fill-rule="evenodd">
        <g transform="translate(-531.000000, -730.000000)" fill="#CCCCCC">
            <g transform="translate(211.000000, 724.000000)">
                <g transform="translate(312.000000, 0.000000)">
                    <polygon points="15.4 7.4 14 6 8 12 14 18 15.4 16.6 10.8 12"/>
                </g>
            </g>
        </g>
    </g></symbol>
<symbol viewBox="0 0 8 12" id="ic-chevron_right"><!-- Generator: Sketch 49.1 (51147) - http://www.bohemiancoding.com/sketch -->
    <desc>Created with Sketch.</desc>
    <defs/>
    <g stroke="none" stroke-width="1" fill="none" fill-rule="evenodd">
        <g transform="translate(-583.000000, -730.000000)" fill="#CCCCCC">
            <g transform="translate(211.000000, 724.000000)">
                <g transform="translate(364.000000, 0.000000)">
                    <polygon points="8.59997559 7.4 9.99997559 6 15.9999756 12 9.99997559 18 8.59997559 16.6 13.1999756 12"/>
                </g>
            </g>
        </g>
    </g></symbol>
<symbol viewBox="0 0 14 14" id="ic-close"><!-- Generator: Sketch 49.1 (51147) - http://www.bohemiancoding.com/sketch -->
    <desc>Created with Sketch.</desc>
    <defs/>
    <g stroke="none" stroke-width="1" fill="none" fill-rule="evenodd">
        <g transform="translate(-632.000000, -729.000000)" fill="#CCCCCC">
            <g transform="translate(211.000000, 724.000000)">
                <g transform="translate(416.000000, 0.000000)">
                    <polygon points="19 6.4 17.6 5 12 10.6 6.4 5 5 6.4 10.6 12 5 17.6 6.4 19 12 13.4 17.6 19 19 17.6 13.4 12"/>
                </g>
            </g>
        </g>
    </g></symbol>
<symbol viewBox="0 0 12 8" id="ic-expand_less"><!-- Generator: Sketch 49.1 (51147) - http://www.bohemiancoding.com/sketch -->
    <desc>Created with Sketch.</desc>
    <defs/>
    <g stroke="none" stroke-width="1" fill="none" fill-rule="evenodd">
        <g transform="translate(-685.000000, -732.000000)" fill="#CCCCCC">
            <g transform="translate(211.000000, 724.000000)">
                <g transform="translate(468.000000, 0.000000)">
                    <polygon points="12 8 6 14 7.4 15.4 12 10.8 16.6 15.4 18 14"/>
                </g>
            </g>
        </g>
    </g></symbol>
<symbol viewBox="0 0 12 8" id="ic-expand_more"><!-- Generator: Sketch 49.1 (51147) - http://www.bohemiancoding.com/sketch -->
    <desc>Created with Sketch.</desc>
    <defs/>
    <g stroke="none" stroke-width="1" fill="none" fill-rule="evenodd">
        <g transform="translate(-736.000000, -732.000000)" fill="#CCCCCC">
            <g transform="translate(211.000000, 724.000000)">
                <g transform="translate(519.000000, 0.000000)">
                    <polygon points="16.6 8.59997559 12 13.1999756 7.4 8.59997559 6 9.99997559 12 15.9999756 18 9.99997559"/>
                </g>
            </g>
        </g>
    </g></symbol>
<symbol viewBox="0 0 18 16" id="ic-favorite"><!-- Generator: Sketch 49.1 (51147) - http://www.bohemiancoding.com/sketch -->
    <desc>Created with Sketch.</desc>
    <defs/>
    <g stroke="none" stroke-width="1" fill="none" fill-rule="evenodd">
        <g transform="translate(-1098.000000, -729.000000)" fill="#CCCCCC">
            <g transform="translate(211.000000, 724.000000)">
                <g transform="translate(884.000000, 0.000000)">
                    <path d="M12,8 C11.33,6.268 9.453,5 7.5,5 C4.957,5 3,6.932 3,9.5 C3,13.029 6.793,15.758 12,21 C17.207,15.758 21,13.029 21,9.5 C21,6.932 19.043,5 16.5,5 C14.545,5 12.67,6.268 12,8 Z"/>
                </g>
            </g>
        </g>
    </g></symbol>
<symbol viewBox="0 0 14 14" id="ic-fullscreen"><!-- Generator: Sketch 49.1 (51147) - http://www.bohemiancoding.com/sketch -->
    <desc>Created with Sketch.</desc>
    <defs/>
    <g stroke="none" stroke-width="1" fill="none" fill-rule="evenodd">
        <g transform="translate(-788.000000, -729.000000)" fill="#D8D8D8">
            <g transform="translate(211.000000, 724.000000)">
                <g transform="translate(572.000000, 0.000000)">
                    <path d="M7,14 L5,14 L5,19 L10,19 L10,17 L7,17 L7,14 L7,14 Z M5,10 L7,10 L7,7 L10,7 L10,5 L5,5 L5,10 L5,10 Z M17,17 L14,17 L14,19 L19,19 L19,14 L17,14 L17,17 L17,17 Z M14,5 L14,7 L17,7 L17,10 L19,10 L19,5 L14,5 L14,5 Z"/>
                </g>
            </g>
        </g>
    </g></symbol>
<symbol viewBox="0 0 14 14" id="ic-fullscreen_exit"><!-- Generator: Sketch 49.1 (51147) - http://www.bohemiancoding.com/sketch -->
    <desc>Created with Sketch.</desc>
    <defs/>
    <g stroke="none" stroke-width="1" fill="none" fill-rule="evenodd">
        <g transform="translate(-840.000000, -729.000000)" fill="#CCCCCC">
            <g transform="translate(211.000000, 724.000000)">
                <g transform="translate(624.000000, 0.000000)">
                    <path d="M5,16 L8,16 L8,19 L10,19 L10,14 L5,14 L5,16 L5,16 Z M8,8 L5,8 L5,10 L10,10 L10,5 L8,5 L8,8 L8,8 Z M14,19 L16,19 L16,16 L19,16 L19,14 L14,14 L14,19 L14,19 Z M16,8 L16,5 L14,5 L14,10 L19,10 L19,8 L16,8 L16,8 Z"/>
                </g>
            </g>
        </g>
    </g></symbol>
<symbol viewBox="0 0 18 12" id="ic-hamburguer"><!-- Generator: Sketch 49.1 (51147) - http://www.bohemiancoding.com/sketch -->
    <desc>Created with Sketch.</desc>
    <defs/>
    <g stroke="none" stroke-width="1" fill="none" fill-rule="evenodd">
        <g transform="translate(-890.000000, -730.000000)" fill="#CCCCCC">
            <g transform="translate(211.000000, 724.000000)">
                <g transform="translate(676.000000, 0.000000)">
                    <path d="M3,18 L21,18 L21,16 L3,16 L3,18 L3,18 Z M3,13 L21,13 L21,11 L3,11 L3,13 L3,13 Z M3,6 L3,8 L21,8 L21,6 L3,6 L3,6 Z"/>
                </g>
            </g>
        </g>
    </g></symbol>
<symbol viewBox="0 0 16 16" id="ic-menu"><!-- Generator: Sketch 49.1 (51147) - http://www.bohemiancoding.com/sketch -->
    <desc>Created with Sketch.</desc>
    <defs/>
    <g stroke="none" stroke-width="1" fill="none" fill-rule="evenodd">
        <g transform="translate(-215.000000, -728.000000)" fill="#CCCCCC">
            <g transform="translate(211.000000, 724.000000)">
                <g>
                    <path d="M4,8 L8,8 L8,4 L4,4 L4,8 L4,8 Z M10,20 L14,20 L14,16 L10,16 L10,20 L10,20 Z M4,20 L8,20 L8,16 L4,16 L4,20 L4,20 Z M4,14 L8,14 L8,10 L4,10 L4,14 L4,14 Z M10,14 L14,14 L14,10 L10,10 L10,14 L10,14 Z M16,4 L16,8 L20,8 L20,4 L16,4 L16,4 Z M10,8 L14,8 L14,4 L10,4 L10,8 L10,8 Z M16,14 L20,14 L20,10 L16,10 L16,14 L16,14 Z M16,20 L20,20 L20,16 L16,16 L16,20 L16,20 Z"/>
                </g>
            </g>
        </g>
    </g></symbol>
<symbol viewBox="0 0 4 16" id="ic-more"><!-- Generator: Sketch 49.1 (51147) - http://www.bohemiancoding.com/sketch -->
    <desc>Created with Sketch.</desc>
    <defs/>
    <g stroke="none" stroke-width="1" fill="none" fill-rule="evenodd">
        <g transform="translate(-949.000000, -728.000000)" fill="#CCCCCC">
            <g transform="translate(211.000000, 724.000000)">
                <g transform="translate(734.000000, 0.000000)">
                    <path d="M6,8 C7.1,8 8,7.1 8,6 C8,4.9 7.1,4 6,4 C4.9,4 4,4.9 4,6 C4,7.1 4.9,8 6,8 L6,8 Z M6,10 C4.9,10 4,10.9 4,12 C4,13.1 4.9,14 6,14 C7.1,14 8,13.1 8,12 C8,10.9 7.1,10 6,10 L6,10 Z M6,16 C4.9,16 4,16.9 4,18 C4,19.1 4.9,20 6,20 C7.1,20 8,19.1 8,18 C8,16.9 7.1,16 6,16 L6,16 Z"/>
                </g>
            </g>
        </g>
    </g></symbol>
<symbol viewBox="0 0 16 16" id="ic-refresh"><!-- Generator: Sketch 49.1 (51147) - http://www.bohemiancoding.com/sketch -->
    <desc>Created with Sketch.</desc>
    <defs/>
    <g stroke="none" stroke-width="1" fill="none" fill-rule="evenodd">
        <g transform="translate(-995.000000, -728.000000)" fill="#CCCCCC">
            <g transform="translate(211.000000, 724.000000)">
                <g transform="translate(780.000000, 0.000000)">
                    <path d="M12,4 C7.6,4 4,7.6 4,12 C4,16.4 7.6,20 12,20 C15.7,20 18.8,17.4 20,14 L18,14 C16.8,16.3 14.6,18 12,18 C8.7,18 6,15.3 6,12 C6,8.7 8.7,6 12,6 C13.7,6 15.1,6.7 16,8 L13,11 L20,11 L20,4 L18,6 C16.2,5 14.2,4 12,4 Z"/>
                </g>
            </g>
        </g>
    </g></symbol></svg>