
<svg width="209px" height="196px" viewBox="0 0 209 196" version="1.1" xmlns="http://www.w3.org/2000/svg" xmlns:xlink="http://www.w3.org/1999/xlink" style="">
    <g id="Onboarding---DEF" stroke="none" stroke-width="1" fill="none" fill-rule="evenodd">
        <g id="Desktop-HD-1440-X-1024-HOME-Copy-6" transform="translate(-617.000000, -180.000000)">
            <g id="Group-3" transform="translate(270.000000, 100.000000)">
                <g id="Group-2" transform="translate(346.000000, 82.000000)">
                    <g>
                        <path id="Rectangle-2" fill="#CCFBEE" fill-rule="nonzero" width="154.740984" height="155.102898" d="M8.46557377 37.4151729 L163.20655777 37.4151729 L163.20655777 192.5180709 L8.46557377 192.5180709 Z" class="zpjAhTzX_0"></path>
                        <g id="arrow-forward-copy-6" transform="translate(56.991803, 62.925518) rotate(90.000000) translate(-56.991803, -62.925518) translate(47.150820, 53.061518)" fill="#FFFFFF">
                            <path id="Shape" d="M9.84098361,0.0720001164L8.12738361,1.78560012L14.9817836,8.64000012L0.0489836066,8.64000012L0.0489836066,11.0880001L14.9817836,11.0880001L8.12738361,17.9424001L9.84098361,19.6560001L19.6329836,9.86400012Z" class="zpjAhTzX_1"></path>
                        </g>
                        <g id="arrow-forward-copy-10" transform="translate(56.991803, 143.198071) rotate(90.000000) translate(-56.991803, -143.198071) translate(47.150820, 133.334071)" fill="#FFFFFF">
                            <path id="Shape" d="M9.84098361,0.0720001164L8.12738361,1.78560012L14.9817836,8.64000012L0.0489836066,8.64000012L0.0489836066,11.0880001L14.9817836,11.0880001L8.12738361,17.9424001L9.84098361,19.6560001L19.6329836,9.86400012Z" class="zpjAhTzX_2"></path>
                        </g>
                        <g id="arrow-forward-copy-3" transform="translate(103.142623, 62.925518) rotate(90.000000) translate(-103.142623, -62.925518) translate(93.301639, 53.061518)" fill="#FFFFFF">
                            <path id="Shape" d="M9.84098361,0.0720001164L8.12738361,1.78560012L14.9817836,8.64000012L0.0489836066,8.64000012L0.0489836066,11.0880001L14.9817836,11.0880001L8.12738361,17.9424001L9.84098361,19.6560001L19.6329836,9.86400012Z" class="zpjAhTzX_3"></path>
                        </g>
                        <g id="arrow-forward-copy-7" transform="translate(10.840984, 62.925518) rotate(90.000000) translate(-10.840984, -62.925518) translate(1.000000, 53.061518)" fill="#FFFFFF">
                            <path id="Shape" d="M9.84098361,0.0720001164L8.12738361,1.78560012L14.9817836,8.64000012L0.0489836066,8.64000012L0.0489836066,11.0880001L14.9817836,11.0880001L8.12738361,17.9424001L9.84098361,19.6560001L19.6329836,9.86400012Z" class="zpjAhTzX_4"></path>
                        </g>
                        <g id="arrow-forward-copy-11" transform="translate(10.840984, 143.198071) rotate(90.000000) translate(-10.840984, -143.198071) translate(1.000000, 133.334071)" fill="#FFFFFF">
                            <path id="Shape" d="M9.84098361,0.0720001164L8.12738361,1.78560012L14.9817836,8.64000012L0.0489836066,8.64000012L0.0489836066,11.0880001L14.9817836,11.0880001L8.12738361,17.9424001L9.84098361,19.6560001L19.6329836,9.86400012Z" class="zpjAhTzX_5"></path>
                        </g>
                        <g id="arrow-forward-copy" transform="translate(126.218033, 103.061794) rotate(90.000000) translate(-126.218033, -103.061794) translate(116.377049, 93.197794)" fill="#FFFFFF">
                            <path id="Shape" d="M9.84098361,0.0720001164L8.12738361,1.78560012L14.9817836,8.64000012L0.0489836066,8.64000012L0.0489836066,11.0880001L14.9817836,11.0880001L8.12738361,17.9424001L9.84098361,19.6560001L19.6329836,9.86400012Z" class="zpjAhTzX_6"></path>
                        </g>
                        <g id="arrow-forward-copy-12" transform="translate(126.218033, 183.334347) rotate(90.000000) translate(-126.218033, -183.334347) translate(116.377049, 173.470347)" fill="#FFFFFF">
                            <path id="Shape" d="M9.84098361,0.0720001164L8.12738361,1.78560012L14.9817836,8.64000012L0.0489836066,8.64000012L0.0489836066,11.0880001L14.9817836,11.0880001L8.12738361,17.9424001L9.84098361,19.6560001L19.6329836,9.86400012Z" class="zpjAhTzX_7"></path>
                        </g>
                        <g id="arrow-forward-copy-8" transform="translate(33.916393, 103.061794) rotate(90.000000) translate(-33.916393, -103.061794) translate(24.075410, 93.197794)" fill="#FFFFFF">
                            <path id="Shape" d="M9.84098361,0.0720001164L8.12738361,1.78560012L14.9817836,8.64000012L0.0489836066,8.64000012L0.0489836066,11.0880001L14.9817836,11.0880001L8.12738361,17.9424001L9.84098361,19.6560001L19.6329836,9.86400012Z" class="zpjAhTzX_8"></path>
                        </g>
                        <g id="arrow-forward-copy-13" transform="translate(33.916393, 183.334347) rotate(90.000000) translate(-33.916393, -183.334347) translate(24.075410, 173.470347)" fill="#FFFFFF">
                            <path id="Shape" d="M9.84098361,0.0720001164L8.12738361,1.78560012L14.9817836,8.64000012L0.0489836066,8.64000012L0.0489836066,11.0880001L14.9817836,11.0880001L8.12738361,17.9424001L9.84098361,19.6560001L19.6329836,9.86400012Z" class="zpjAhTzX_9"></path>
                        </g>
                        <g id="arrow-forward-copy-5" transform="translate(80.067213, 103.061794) rotate(90.000000) translate(-80.067213, -103.061794) translate(70.226230, 93.197794)" fill="#FFFFFF">
                            <path id="Shape" d="M9.84098361,0.0720001164L8.12738361,1.78560012L14.9817836,8.64000012L0.0489836066,8.64000012L0.0489836066,11.0880001L14.9817836,11.0880001L8.12738361,17.9424001L9.84098361,19.6560001L19.6329836,9.86400012Z" class="zpjAhTzX_10"></path>
                        </g>
                        <g id="arrow-forward-copy-5" transform="translate(83.324656, 101.860259) rotate(90.000000) translate(-83.324656, -101.860259) translate(73.324656, 91.860259)">
                            <path id="Shape" fill="#999999" d="M9.7136,0L8,1.7136L14.8544,8.568L14.8544,11.016L8,17.8704L9.7136,19.584L19.5056,9.792Z" class="zpjAhTzX_11"></path>
                            <path d="M16.5,9.82465585 L0.139741027,9.82465585" id="Path-2" stroke="#979797" stroke-width="2.5" class="zpjAhTzX_12"></path>
                        </g>
                        <g id="arrow-forward-copy-15" transform="translate(61.000000, 142.000000) rotate(90.000000) translate(-61.000000, -142.000000) translate(51.000000, 132.000000)">
                            <path id="Shape" fill="#999999" d="M9.7136,0L8,1.7136L14.8544,8.568L14.8544,11.016L8,17.8704L9.7136,19.584L19.5056,9.792Z" class="zpjAhTzX_13"></path>
                            <path d="M16.5,9.82465585 L0.139741027,9.82465585" id="Path-2" stroke="#979797" stroke-width="2.5" class="zpjAhTzX_14"></path>
                        </g>
                        <g id="arrow-forward-copy-16" transform="translate(61.000000, 62.000000) rotate(90.000000) translate(-61.000000, -62.000000) translate(51.000000, 52.000000)">
                            <path id="Shape" fill="#999999" d="M9.7136,0L8,1.7136L14.8544,8.568L14.8544,11.016L8,17.8704L9.7136,19.584L19.5056,9.792Z" class="zpjAhTzX_15"></path>
                            <path d="M16.5,9.82465585 L0.139741027,9.82465585" id="Path-2" stroke="#979797" stroke-width="2.5" class="zpjAhTzX_16"></path>
                        </g>
                        <g id="arrow-forward-copy-14" transform="translate(80.067213, 183.334347) rotate(90.000000) translate(-80.067213, -183.334347) translate(70.226230, 173.470347)" fill="#FFFFFF">
                            <path id="Shape" d="M9.84098361,0.0720001164L8.12738361,1.78560012L14.9817836,8.64000012L0.0489836066,8.64000012L0.0489836066,11.0880001L14.9817836,11.0880001L8.12738361,17.9424001L9.84098361,19.6560001L19.6329836,9.86400012Z" class="zpjAhTzX_17"></path>
                        </g>
                        <g id="arrow-forward-copy-2" transform="translate(149.293443, 143.198071) rotate(90.000000) translate(-149.293443, -143.198071) translate(139.452459, 133.334071)" fill="#FFFFFF">
                            <path id="Shape" d="M9.84098361,0.0720001164L8.12738361,1.78560012L14.9817836,8.64000012L0.0489836066,8.64000012L0.0489836066,11.0880001L14.9817836,11.0880001L8.12738361,17.9424001L9.84098361,19.6560001L19.6329836,9.86400012Z" class="zpjAhTzX_18"></path>
                        </g>
                        <g id="arrow-forward-copy-4" transform="translate(103.142623, 143.198071) rotate(90.000000) translate(-103.142623, -143.198071) translate(93.301639, 133.334071)" fill="#FFFFFF">
                            <path id="Shape" d="M9.84098361,0.0720001164L8.12738361,1.78560012L14.9817836,8.64000012L0.0489836066,8.64000012L0.0489836066,11.0880001L14.9817836,11.0880001L8.12738361,17.9424001L9.84098361,19.6560001L19.6329836,9.86400012Z" class="zpjAhTzX_19"></path>
                        </g>
                        <path id="Rectangle-2-Copy" stroke="#979797" stroke-width="1.36" fill-rule="nonzero" width="154.740984" height="155.102898" d="M25.4327869 21.7688278 L180.1737709 21.7688278 L180.1737709 176.8717258 L25.4327869 176.8717258 Z" class="zpjAhTzX_20"></path>
                        <path id="Rectangle-2-Copy-2" stroke="#CCFBEE" stroke-width="3.4" fill="#FFFFFF" fill-rule="nonzero" width="81.442623" height="81.6331044" d="M126.557377 0 L208 0 L208 81.6331044 L126.557377 81.6331044 Z" class="zpjAhTzX_21"></path>
                        <g id="arrow-forward" transform="translate(149.293443, 62.925518) rotate(90.000000) translate(-149.293443, -62.925518) translate(139.452459, 53.061518)" fill="#CCFBEE" fill-rule="nonzero">
                            <path id="Shape" d="M9.84098361,0.0720001164L8.12738361,1.78560012L14.9817836,8.64000012L0.0489836066,8.64000012L0.0489836066,11.0880001L14.9817836,11.0880001L8.12738361,17.9424001L9.84098361,19.6560001L19.6329836,9.86400012Z" class="zpjAhTzX_22"></path>
                        </g>
                    </g>
                </g>
            </g>
        </g>
    </g>
<style data-made-with="vivus-instant">.zpjAhTzX_0{stroke-dasharray:620 622;stroke-dashoffset:621;animation:zpjAhTzX_draw 1000ms linear 0ms forwards;}.zpjAhTzX_1{stroke-dasharray:85 87;stroke-dashoffset:86;animation:zpjAhTzX_draw 1000ms linear 22ms forwards;}.zpjAhTzX_2{stroke-dasharray:85 87;stroke-dashoffset:86;animation:zpjAhTzX_draw 1000ms linear 45ms forwards;}.zpjAhTzX_3{stroke-dasharray:85 87;stroke-dashoffset:86;animation:zpjAhTzX_draw 1000ms linear 68ms forwards;}.zpjAhTzX_4{stroke-dasharray:85 87;stroke-dashoffset:86;animation:zpjAhTzX_draw 1000ms linear 90ms forwards;}.zpjAhTzX_5{stroke-dasharray:85 87;stroke-dashoffset:86;animation:zpjAhTzX_draw 1000ms linear 113ms forwards;}.zpjAhTzX_6{stroke-dasharray:85 87;stroke-dashoffset:86;animation:zpjAhTzX_draw 1000ms linear 136ms forwards;}.zpjAhTzX_7{stroke-dasharray:85 87;stroke-dashoffset:86;animation:zpjAhTzX_draw 1000ms linear 159ms forwards;}.zpjAhTzX_8{stroke-dasharray:85 87;stroke-dashoffset:86;animation:zpjAhTzX_draw 1000ms linear 181ms forwards;}.zpjAhTzX_9{stroke-dasharray:85 87;stroke-dashoffset:86;animation:zpjAhTzX_draw 1000ms linear 204ms forwards;}.zpjAhTzX_10{stroke-dasharray:85 87;stroke-dashoffset:86;animation:zpjAhTzX_draw 1000ms linear 227ms forwards;}.zpjAhTzX_11{stroke-dasharray:55 57;stroke-dashoffset:56;animation:zpjAhTzX_draw 1000ms linear 250ms forwards;}.zpjAhTzX_12{stroke-dasharray:17 19;stroke-dashoffset:18;animation:zpjAhTzX_draw 1000ms linear 272ms forwards;}.zpjAhTzX_13{stroke-dasharray:55 57;stroke-dashoffset:56;animation:zpjAhTzX_draw 1000ms linear 295ms forwards;}.zpjAhTzX_14{stroke-dasharray:17 19;stroke-dashoffset:18;animation:zpjAhTzX_draw 1000ms linear 318ms forwards;}.zpjAhTzX_15{stroke-dasharray:55 57;stroke-dashoffset:56;animation:zpjAhTzX_draw 1000ms linear 340ms forwards;}.zpjAhTzX_16{stroke-dasharray:17 19;stroke-dashoffset:18;animation:zpjAhTzX_draw 1000ms linear 363ms forwards;}.zpjAhTzX_17{stroke-dasharray:85 87;stroke-dashoffset:86;animation:zpjAhTzX_draw 1000ms linear 386ms forwards;}.zpjAhTzX_18{stroke-dasharray:85 87;stroke-dashoffset:86;animation:zpjAhTzX_draw 1000ms linear 409ms forwards;}.zpjAhTzX_19{stroke-dasharray:85 87;stroke-dashoffset:86;animation:zpjAhTzX_draw 1000ms linear 431ms forwards;}.zpjAhTzX_20{stroke-dasharray:620 622;stroke-dashoffset:621;animation:zpjAhTzX_draw 1000ms linear 454ms forwards;}.zpjAhTzX_21{stroke-dasharray:327 329;stroke-dashoffset:328;animation:zpjAhTzX_draw 1000ms linear 477ms forwards;}.zpjAhTzX_22{stroke-dasharray:85 87;stroke-dashoffset:86;animation:zpjAhTzX_draw 1000ms linear 500ms forwards;}@keyframes zpjAhTzX_draw{100%{stroke-dashoffset:0;}}@keyframes zpjAhTzX_fade{0%{stroke-opacity:1;}92.98245614035088%{stroke-opacity:1;}100%{stroke-opacity:0;}}</style></svg>
