
<svg width="209px" height="196px" viewBox="0 0 209 196" version="1.1" xmlns="http://www.w3.org/2000/svg" xmlns:xlink="http://www.w3.org/1999/xlink" style="">
    <g id="Onboarding---DEF" stroke="none" stroke-width="1" fill="none" fill-rule="evenodd">
        <g id="Desktop-HD-1440-X-1024-HOME-Copy-6" transform="translate(-617.000000, -180.000000)">
            <g id="Group-3" transform="translate(270.000000, 100.000000)">
                <g id="Group-2" transform="translate(346.000000, 82.000000)">
                    <g>
                        <path id="Rectangle-2" fill="#CCFBEE" fill-rule="nonzero" width="154.740984" height="155.102898" d="M8.46557377 37.4151729 L163.20655777 37.4151729 L163.20655777 192.5180709 L8.46557377 192.5180709 Z" class="WqfNxret_0"></path>
                        <g id="arrow-forward-copy-6" transform="translate(56.991803, 62.925518) rotate(90.000000) translate(-56.991803, -62.925518) translate(47.150820, 53.061518)" fill="#FFFFFF">
                            <path id="Shape" d="M9.84098361,0.0720001164L8.12738361,1.78560012L14.9817836,8.64000012L0.0489836066,8.64000012L0.0489836066,11.0880001L14.9817836,11.0880001L8.12738361,17.9424001L9.84098361,19.6560001L19.6329836,9.86400012Z" class="WqfNxret_1"></path>
                        </g>
                        <g id="arrow-forward-copy-10" transform="translate(56.991803, 143.198071) rotate(90.000000) translate(-56.991803, -143.198071) translate(47.150820, 133.334071)" fill="#FFFFFF">
                            <path id="Shape" d="M9.84098361,0.0720001164L8.12738361,1.78560012L14.9817836,8.64000012L0.0489836066,8.64000012L0.0489836066,11.0880001L14.9817836,11.0880001L8.12738361,17.9424001L9.84098361,19.6560001L19.6329836,9.86400012Z" class="WqfNxret_2"></path>
                        </g>
                        <g id="arrow-forward-copy-3" transform="translate(103.142623, 62.925518) rotate(90.000000) translate(-103.142623, -62.925518) translate(93.301639, 53.061518)" fill="#FFFFFF">
                            <path id="Shape" d="M9.84098361,0.0720001164L8.12738361,1.78560012L14.9817836,8.64000012L0.0489836066,8.64000012L0.0489836066,11.0880001L14.9817836,11.0880001L8.12738361,17.9424001L9.84098361,19.6560001L19.6329836,9.86400012Z" class="WqfNxret_3"></path>
                        </g>
                        <g id="arrow-forward-copy-7" transform="translate(10.840984, 62.925518) rotate(90.000000) translate(-10.840984, -62.925518) translate(1.000000, 53.061518)" fill="#FFFFFF">
                            <path id="Shape" d="M9.84098361,0.0720001164L8.12738361,1.78560012L14.9817836,8.64000012L0.0489836066,8.64000012L0.0489836066,11.0880001L14.9817836,11.0880001L8.12738361,17.9424001L9.84098361,19.6560001L19.6329836,9.86400012Z" class="WqfNxret_4"></path>
                        </g>
                        <g id="arrow-forward-copy-11" transform="translate(10.840984, 143.198071) rotate(90.000000) translate(-10.840984, -143.198071) translate(1.000000, 133.334071)" fill="#FFFFFF">
                            <path id="Shape" d="M9.84098361,0.0720001164L8.12738361,1.78560012L14.9817836,8.64000012L0.0489836066,8.64000012L0.0489836066,11.0880001L14.9817836,11.0880001L8.12738361,17.9424001L9.84098361,19.6560001L19.6329836,9.86400012Z" class="WqfNxret_5"></path>
                        </g>
                        <g id="arrow-forward-copy" transform="translate(126.218033, 103.061794) rotate(90.000000) translate(-126.218033, -103.061794) translate(116.377049, 93.197794)" fill="#FFFFFF">
                            <path id="Shape" d="M9.84098361,0.0720001164L8.12738361,1.78560012L14.9817836,8.64000012L0.0489836066,8.64000012L0.0489836066,11.0880001L14.9817836,11.0880001L8.12738361,17.9424001L9.84098361,19.6560001L19.6329836,9.86400012Z" class="WqfNxret_6"></path>
                        </g>
                        <g id="arrow-forward-copy-12" transform="translate(126.218033, 183.334347) rotate(90.000000) translate(-126.218033, -183.334347) translate(116.377049, 173.470347)" fill="#FFFFFF">
                            <path id="Shape" d="M9.84098361,0.0720001164L8.12738361,1.78560012L14.9817836,8.64000012L0.0489836066,8.64000012L0.0489836066,11.0880001L14.9817836,11.0880001L8.12738361,17.9424001L9.84098361,19.6560001L19.6329836,9.86400012Z" class="WqfNxret_7"></path>
                        </g>
                        <g id="arrow-forward-copy-8" transform="translate(33.916393, 103.061794) rotate(90.000000) translate(-33.916393, -103.061794) translate(24.075410, 93.197794)" fill="#FFFFFF">
                            <path id="Shape" d="M9.84098361,0.0720001164L8.12738361,1.78560012L14.9817836,8.64000012L0.0489836066,8.64000012L0.0489836066,11.0880001L14.9817836,11.0880001L8.12738361,17.9424001L9.84098361,19.6560001L19.6329836,9.86400012Z" class="WqfNxret_8"></path>
                        </g>
                        <g id="arrow-forward-copy-13" transform="translate(33.916393, 183.334347) rotate(90.000000) translate(-33.916393, -183.334347) translate(24.075410, 173.470347)" fill="#FFFFFF">
                            <path id="Shape" d="M9.84098361,0.0720001164L8.12738361,1.78560012L14.9817836,8.64000012L0.0489836066,8.64000012L0.0489836066,11.0880001L14.9817836,11.0880001L8.12738361,17.9424001L9.84098361,19.6560001L19.6329836,9.86400012Z" class="WqfNxret_9"></path>
                        </g>
                        <g id="arrow-forward-copy-5" transform="translate(80.067213, 103.061794) rotate(90.000000) translate(-80.067213, -103.061794) translate(70.226230, 93.197794)" fill="#FFFFFF">
                            <path id="Shape" d="M9.84098361,0.0720001164L8.12738361,1.78560012L14.9817836,8.64000012L0.0489836066,8.64000012L0.0489836066,11.0880001L14.9817836,11.0880001L8.12738361,17.9424001L9.84098361,19.6560001L19.6329836,9.86400012Z" class="WqfNxret_10"></path>
                        </g>
                        <g id="arrow-forward-copy-5" transform="translate(83.460656, 101.701243) rotate(90.000000) translate(-83.460656, -101.701243) translate(73.619672, 91.837242)" fill="#979797">
                            <path id="Shape" d="M9.84098361,0.0720001164L8.12738361,1.78560012L14.9817836,8.64000012L0.0489836066,8.64000012L0.0489836066,11.0880001L14.9817836,11.0880001L8.12738361,17.9424001L9.84098361,19.6560001L19.6329836,9.86400012Z" class="WqfNxret_11"></path>
                        </g>
                        <g id="arrow-forward-copy-9" transform="translate(60.385246, 141.157243) rotate(90.000000) translate(-60.385246, -141.157243) translate(50.544262, 131.293243)" fill="#979797">
                            <path id="Shape" d="M9.84098361,0.0720001164L8.12738361,1.78560012L14.9817836,8.64000012L0.0489836066,8.64000012L0.0489836066,11.0880001L14.9817836,11.0880001L8.12738361,17.9424001L9.84098361,19.6560001L19.6329836,9.86400012Z" class="WqfNxret_12"></path>
                        </g>
                        <g id="arrow-forward-copy-15" transform="translate(60.385246, 60.884690) rotate(90.000000) translate(-60.385246, -60.884690) translate(50.544262, 51.020690)" fill="#979797">
                            <path id="Shape" d="M9.84098361,0.0720001164L8.12738361,1.78560012L14.9817836,8.64000012L0.0489836066,8.64000012L0.0489836066,11.0880001L14.9817836,11.0880001L8.12738361,17.9424001L9.84098361,19.6560001L19.6329836,9.86400012Z" class="WqfNxret_13"></path>
                        </g>
                        <g id="arrow-forward-copy-14" transform="translate(80.067213, 183.334347) rotate(90.000000) translate(-80.067213, -183.334347) translate(70.226230, 173.470347)" fill="#FFFFFF">
                            <path id="Shape" d="M9.84098361,0.0720001164L8.12738361,1.78560012L14.9817836,8.64000012L0.0489836066,8.64000012L0.0489836066,11.0880001L14.9817836,11.0880001L8.12738361,17.9424001L9.84098361,19.6560001L19.6329836,9.86400012Z" class="WqfNxret_14"></path>
                        </g>
                        <g id="arrow-forward-copy-2" transform="translate(149.293443, 143.198071) rotate(90.000000) translate(-149.293443, -143.198071) translate(139.452459, 133.334071)" fill="#FFFFFF">
                            <path id="Shape" d="M9.84098361,0.0720001164L8.12738361,1.78560012L14.9817836,8.64000012L0.0489836066,8.64000012L0.0489836066,11.0880001L14.9817836,11.0880001L8.12738361,17.9424001L9.84098361,19.6560001L19.6329836,9.86400012Z" class="WqfNxret_15"></path>
                        </g>
                        <g id="arrow-forward-copy-4" transform="translate(103.142623, 143.198071) rotate(90.000000) translate(-103.142623, -143.198071) translate(93.301639, 133.334071)" fill="#FFFFFF">
                            <path id="Shape" d="M9.84098361,0.0720001164L8.12738361,1.78560012L14.9817836,8.64000012L0.0489836066,8.64000012L0.0489836066,11.0880001L14.9817836,11.0880001L8.12738361,17.9424001L9.84098361,19.6560001L19.6329836,9.86400012Z" class="WqfNxret_16"></path>
                        </g>
                        <path id="Rectangle-2-Copy" stroke="#979797" stroke-width="1.36" fill-rule="nonzero" width="154.740984" height="155.102898" d="M25.4327869 21.7688278 L180.1737709 21.7688278 L180.1737709 176.8717258 L25.4327869 176.8717258 Z" class="WqfNxret_17"></path>
                        <path id="Rectangle-2-Copy-2" stroke="#CCFBEE" stroke-width="3.4" fill="#FFFFFF" fill-rule="nonzero" width="81.442623" height="81.6331044" d="M126.557377 0 L208 0 L208 81.6331044 L126.557377 81.6331044 Z" class="WqfNxret_18"></path>
                        <g id="arrow-forward" transform="translate(149.293443, 62.925518) rotate(90.000000) translate(-149.293443, -62.925518) translate(139.452459, 53.061518)" fill="#CCFBEE" fill-rule="nonzero">
                            <path id="Shape" d="M9.84098361,0.0720001164L8.12738361,1.78560012L14.9817836,8.64000012L0.0489836066,8.64000012L0.0489836066,11.0880001L14.9817836,11.0880001L8.12738361,17.9424001L9.84098361,19.6560001L19.6329836,9.86400012Z" class="WqfNxret_19"></path>
                        </g>
                    </g>
                </g>
            </g>
        </g>
    </g>
<style data-made-with="vivus-instant">.WqfNxret_0{stroke-dasharray:620 622;stroke-dashoffset:621;animation:WqfNxret_draw 1333ms linear 0ms forwards;}.WqfNxret_1{stroke-dasharray:85 87;stroke-dashoffset:86;animation:WqfNxret_draw 1333ms linear 35ms forwards;}.WqfNxret_2{stroke-dasharray:85 87;stroke-dashoffset:86;animation:WqfNxret_draw 1333ms linear 70ms forwards;}.WqfNxret_3{stroke-dasharray:85 87;stroke-dashoffset:86;animation:WqfNxret_draw 1333ms linear 105ms forwards;}.WqfNxret_4{stroke-dasharray:85 87;stroke-dashoffset:86;animation:WqfNxret_draw 1333ms linear 140ms forwards;}.WqfNxret_5{stroke-dasharray:85 87;stroke-dashoffset:86;animation:WqfNxret_draw 1333ms linear 175ms forwards;}.WqfNxret_6{stroke-dasharray:85 87;stroke-dashoffset:86;animation:WqfNxret_draw 1333ms linear 210ms forwards;}.WqfNxret_7{stroke-dasharray:85 87;stroke-dashoffset:86;animation:WqfNxret_draw 1333ms linear 245ms forwards;}.WqfNxret_8{stroke-dasharray:85 87;stroke-dashoffset:86;animation:WqfNxret_draw 1333ms linear 280ms forwards;}.WqfNxret_9{stroke-dasharray:85 87;stroke-dashoffset:86;animation:WqfNxret_draw 1333ms linear 315ms forwards;}.WqfNxret_10{stroke-dasharray:85 87;stroke-dashoffset:86;animation:WqfNxret_draw 1333ms linear 350ms forwards;}.WqfNxret_11{stroke-dasharray:85 87;stroke-dashoffset:86;animation:WqfNxret_draw 1333ms linear 385ms forwards;}.WqfNxret_12{stroke-dasharray:85 87;stroke-dashoffset:86;animation:WqfNxret_draw 1333ms linear 421ms forwards;}.WqfNxret_13{stroke-dasharray:85 87;stroke-dashoffset:86;animation:WqfNxret_draw 1333ms linear 456ms forwards;}.WqfNxret_14{stroke-dasharray:85 87;stroke-dashoffset:86;animation:WqfNxret_draw 1333ms linear 491ms forwards;}.WqfNxret_15{stroke-dasharray:85 87;stroke-dashoffset:86;animation:WqfNxret_draw 1333ms linear 526ms forwards;}.WqfNxret_16{stroke-dasharray:85 87;stroke-dashoffset:86;animation:WqfNxret_draw 1333ms linear 561ms forwards;}.WqfNxret_17{stroke-dasharray:620 622;stroke-dashoffset:621;animation:WqfNxret_draw 1333ms linear 596ms forwards;}.WqfNxret_18{stroke-dasharray:327 329;stroke-dashoffset:328;animation:WqfNxret_draw 1333ms linear 631ms forwards;}.WqfNxret_19{stroke-dasharray:85 87;stroke-dashoffset:86;animation:WqfNxret_draw 1333ms linear 666ms forwards;}@keyframes WqfNxret_draw{100%{stroke-dashoffset:0;}}@keyframes WqfNxret_fade{0%{stroke-opacity:1;}93.54838709677419%{stroke-opacity:1;}100%{stroke-opacity:0;}}</style></svg>
