
<svg width="447px" height="190px" viewBox="0 0 447 190" version="1.1" xmlns="http://www.w3.org/2000/svg" xmlns:xlink="http://www.w3.org/1999/xlink" style="display: none;">
    <g id="Onboarding---DEF" stroke="none" stroke-width="1" fill="none" fill-rule="evenodd">
        <g id="Desktop-HD-1440-X-1024-HOME-Copy-2" transform="translate(-497.000000, -182.000000)">
            <path fill="#FFFFFF" width="1440" height="800" d="M0 0 L1440 0 L1440 800 L0 800 Z" class="kvctBlLZ_0"></path>
            <g id="Group-3" transform="translate(270.000000, 100.000000)">
                <g id="Group" transform="translate(228.000000, 83.000000)">
                    <g>
                        <path d="M203.549459,34.4364407 L107.248201,91.8726158" id="Path-13-Copy" stroke="#979797" fill-rule="nonzero" class="kvctBlLZ_1"></path>
                        <path d="M100.81406,95.5417274 L31.323453,73.59663" id="Path-13-Copy-2" stroke="#979797" fill-rule="nonzero" class="kvctBlLZ_2"></path>
                        <path id="Path-12-Copy" stroke="#979797" fill-rule="nonzero" d="M200.851631,28.6490665L268.509629,150.869509L394.794805,60.8102452Z" class="kvctBlLZ_3"></path>
                        <path id="downloads-copy-2" fill="#E5FBF5" fill-rule="nonzero" d="M175.89784,60.4837222L230.375363,60.4837222L230.375363,6.11633146L175.89784,6.11633146Z" class="kvctBlLZ_4"></path>
                        <path id="downloads-copy-3" stroke="#979797" stroke-width="1.156" fill-rule="nonzero" d="M182.026561,54.3673908L236.504084,54.3673908L236.504084,0L182.026561,0Z" class="kvctBlLZ_5"></path>
                        <path d="M436.372918,62.4238034 C436.372918,89.8230902 414.116968,112.034048 386.662179,112.034048 C359.207389,112.034048 336.951439,89.8230902 336.951439,62.4238034 C336.951439,35.0245166 359.207389,12.8135593 386.662179,12.8135593 C414.116968,12.8135593 436.372918,35.0245166 436.372918,62.4238034 Z" id="components-copy-5" stroke="#CCFBEE" stroke-width="3.4" fill="#CCFBEE" fill-rule="nonzero" class="kvctBlLZ_6"></path>
                        <path d="M42.4190647,68.0720339 C42.4190647,79.1295532 33.4608568,88.0932203 22.4100719,88.0932203 C11.3592871,88.0932203 2.40107914,79.1295532 2.40107914,68.0720339 C2.40107914,57.0145146 11.3592871,48.0508475 22.4100719,48.0508475 C33.4608568,48.0508475 42.4190647,57.0145146 42.4190647,68.0720339 Z" id="components-copy-7" fill="#CCFBEE" fill-rule="nonzero" class="kvctBlLZ_7"></path>
                        <path d="M444.376515,58.4195661 C444.376515,85.8188529 422.120565,108.02981 394.665776,108.02981 C367.210986,108.02981 344.955036,85.8188529 344.955036,58.4195661 C344.955036,31.0202793 367.210986,8.80932203 394.665776,8.80932203 C422.120565,8.80932203 444.376515,31.0202793 444.376515,58.4195661 Z" id="components-copy-6" stroke="#979797" stroke-width="1.3872" fill-rule="nonzero" class="kvctBlLZ_8"></path>
                        <path d="M40.0179856,64.0677966 C40.0179856,75.1253159 31.0597776,84.0889831 20.0089928,84.0889831 C8.95820798,84.0889831 0,75.1253159 0,64.0677966 C0,53.0102773 8.95820798,44.0466102 20.0089928,44.0466102 C31.0597776,44.0466102 40.0179856,53.0102773 40.0179856,64.0677966 Z" id="components-copy-8" stroke="#979797" fill-rule="nonzero" class="kvctBlLZ_9"></path>
                        <path id="viz-rules-copy-4" fill="#CCFBEE" fill-rule="nonzero" d="M278.125,112.919492L244.910072,131.939619L244.910072,169.979873L278.125,189L311.339928,169.979873L311.339928,131.939619Z" class="kvctBlLZ_10"></path>
                        <path id="viz-rules-copy-5" stroke="#979797" fill-rule="nonzero" d="M273.322842,104.911017L240.107914,123.931144L240.107914,161.971398L273.322842,180.991525L306.53777,161.971398L306.53777,123.931144Z" class="kvctBlLZ_11"></path>
                        <path id="guidelines-copy-3" fill="#CCFBEE" fill-rule="nonzero" d="M104.396091,67.2796461L80.5621746,108.055189L128.230007,108.055189Z" class="kvctBlLZ_12"></path>
                        <path id="guidelines-copy-4" stroke="#979797" stroke-width="0.9826" fill-rule="nonzero" d="M98.2673695,71.3572004L74.4334532,112.132743L122.101286,112.132743Z" class="kvctBlLZ_13"></path>
                    </g>
                </g>
            </g>
        </g>
    </g>
<style data-made-with="vivus-instant">.kvctBlLZ_0{stroke-dasharray:4480 4482;stroke-dashoffset:4481;animation:kvctBlLZ_draw 1333ms linear 0ms forwards;}.kvctBlLZ_1{stroke-dasharray:113 115;stroke-dashoffset:114;animation:kvctBlLZ_draw 1333ms linear 51ms forwards;}.kvctBlLZ_2{stroke-dasharray:73 75;stroke-dashoffset:74;animation:kvctBlLZ_draw 1333ms linear 102ms forwards;}.kvctBlLZ_3{stroke-dasharray:492 494;stroke-dashoffset:493;animation:kvctBlLZ_draw 1333ms linear 153ms forwards;}.kvctBlLZ_4{stroke-dasharray:218 220;stroke-dashoffset:219;animation:kvctBlLZ_draw 1333ms linear 205ms forwards;}.kvctBlLZ_5{stroke-dasharray:218 220;stroke-dashoffset:219;animation:kvctBlLZ_draw 1333ms linear 256ms forwards;}.kvctBlLZ_6{stroke-dasharray:313 315;stroke-dashoffset:314;animation:kvctBlLZ_draw 1333ms linear 307ms forwards;}.kvctBlLZ_7{stroke-dasharray:126 128;stroke-dashoffset:127;animation:kvctBlLZ_draw 1333ms linear 358ms forwards;}.kvctBlLZ_8{stroke-dasharray:313 315;stroke-dashoffset:314;animation:kvctBlLZ_draw 1333ms linear 410ms forwards;}.kvctBlLZ_9{stroke-dasharray:126 128;stroke-dashoffset:127;animation:kvctBlLZ_draw 1333ms linear 461ms forwards;}.kvctBlLZ_10{stroke-dasharray:230 232;stroke-dashoffset:231;animation:kvctBlLZ_draw 1333ms linear 512ms forwards;}.kvctBlLZ_11{stroke-dasharray:230 232;stroke-dashoffset:231;animation:kvctBlLZ_draw 1333ms linear 564ms forwards;}.kvctBlLZ_12{stroke-dasharray:143 145;stroke-dashoffset:144;animation:kvctBlLZ_draw 1333ms linear 615ms forwards;}.kvctBlLZ_13{stroke-dasharray:143 145;stroke-dashoffset:144;animation:kvctBlLZ_draw 1333ms linear 666ms forwards;}@keyframes kvctBlLZ_draw{100%{stroke-dashoffset:0;}}@keyframes kvctBlLZ_fade{0%{stroke-opacity:1;}93.54838709677419%{stroke-opacity:1;}100%{stroke-opacity:0;}}</style></svg>
