<?xml version="1.0" encoding="UTF-8"?>
<svg width="24px" height="24px" viewBox="0 0 24 24" version="1.1" xmlns="http://www.w3.org/2000/svg" xmlns:xlink="http://www.w3.org/1999/xlink">
    <!-- Generator: sketchtool 52.3 (67297) - http://www.bohemiancoding.com/sketch -->
    <title>88E0CB67-C094-475A-BA1C-2D85A4F5DD4F</title>
    <desc>Created with sketchtool.</desc>
    <g id="Symbols" stroke="none" stroke-width="1" fill="none" fill-rule="evenodd">
        <g id="ic_close" fill="#CCCCCC">
            <path d="M18.8275343,17.9995299 C18.9379134,18.1090153 19,18.2580515 19,18.413526 C19,18.5690005 18.9379134,18.7180367 18.8275343,18.8275221 C18.7180567,18.9379089 18.5690311,19 18.4135677,19 C18.2581042,19 18.1090786,18.9379089 17.999601,18.8275221 L12,12.8274946 L6.00039897,18.8275221 C5.89092135,18.9379089 5.74189577,19 5.58643233,19 C5.43096888,19 5.28194331,18.9379089 5.17246569,18.8275221 C5.06208664,18.7180367 5,18.5690005 5,18.413526 C5,18.2580515 5.06208664,18.1090153 5.17246569,17.9995299 L11.1720667,11.9995024 L5.17246569,5.99947492 C4.94383823,5.7708312 4.94383823,5.4001265 5.17246569,5.17148279 C5.40109315,4.94283907 5.77177151,4.94283907 6.00039897,5.17148279 L12,11.1715103 L17.999601,5.17148279 C18.2282285,4.94283907 18.5989068,4.94283907 18.8275343,5.17148279 C19.0561618,5.4001265 19.0561618,5.7708312 18.8275343,5.99947492 L12.8279333,11.9995024 L18.8275343,17.9995299 Z" id="Path"></path>
        </g>
    </g>
</svg>