<svg xmlns="http://www.w3.org/2000/svg" width="24" height="24" viewBox="0 0 24 24">
    <path fill="#CCC" fill-rule="evenodd" d="M11.587 15.807L6.92 11.14a.667.667 0 1 1 .94-.947l3.533 3.534v-9.06a.667.667 0 0 1 1.334 0v9.006l3.466-3.473a.667.667 0 1 1 .947.94l-4.58 4.58a.667.667 0 0 1-.5.227.46.46 0 0 1-.167 0 .22.22 0 0 1-.093 0 .667.667 0 0 1-.213-.14zm7.746-.474c.369 0 .667.299.667.667v3.333a.667.667 0 0 1-.667.667H4.667A.667.667 0 0 1 4 19.333V16a.667.667 0 0 1 1.333 0v2.667h13.334V16c0-.368.298-.667.666-.667z"/>
</svg>
