<svg xmlns="http://www.w3.org/2000/svg" width="24" height="24" viewBox="0 0 24 24">
    <path fill="#CCC" fill-rule="evenodd" d="M6.401 17.478h.02a1.388 1.388 0 0 1-1.334-1.829l1.248-3.643c.075-.238.213-.45.4-.614 3.39-2.99 7.034-6.226 7.274-6.467a3.083 3.083 0 0 1 4.404 0c.59.595.923 1.398.928 2.236a3.043 3.043 0 0 1-.935 2.169c-.46.453-7.327 6.526-7.4 6.586a1.335 1.335 0 0 1-.5.28l-3.67 1.208c-.14.048-.287.072-.435.074zm1.195-5.085l-1.261 3.683.08.067 3.69-1.221c1.368-1.208 6.973-6.18 7.34-6.547.341-.318.536-.761.54-1.227-.009-.482-.2-.941-.533-1.288a1.822 1.822 0 0 0-1.274-.528 1.742 1.742 0 0 0-1.242.534c-.407.414-7.267 6.467-7.34 6.527zm11.651 6.986a.667.667 0 0 1-.667.668l-12.913-.034a.667.667 0 0 1 0-1.334H18.58a.667.667 0 0 1 .667.7z"/>
</svg>
