<svg xmlns="http://www.w3.org/2000/svg" width="24" height="24" viewBox="0 0 24 24">
    <path fill="#CCC" fill-rule="evenodd" d="M19.323 4.697a2.34 2.34 0 0 0-3.333 0l-.36.334H7.523c-2.14 0-3.52 1.333-3.52 3.333v8.406a3.146 3.146 0 0 0 .9 2.36 3.613 3.613 0 0 0 2.607.913h7.333a3.613 3.613 0 0 0 2.613-.913c.621-.624.953-1.48.913-2.36V8.884c.494-.447.854-.767.94-.853.436-.437.681-1.03.68-1.647 0-.626-.239-1.23-.666-1.687zM17.036 16.77a1.84 1.84 0 0 1-.506 1.4 2.327 2.327 0 0 1-1.68.54H7.517a2.327 2.327 0 0 1-1.68-.54 1.84 1.84 0 0 1-.513-1.4V8.33c0-1.72 1.373-2 2.186-2h6.666l-3.24 2.847a1.333 1.333 0 0 0-.3.473l-.846 2.527a1.16 1.16 0 0 0 1.1 1.533.927.927 0 0 0 .36-.06l2.52-.826c.157-.045.301-.128.42-.24l2.846-2.514v6.7zm1.333-9.686c-.246.247-4.206 3.753-5.026 4.48l-2.173.713.727-2.16c1.62-1.426 4.8-4.24 5.04-4.473a1 1 0 0 1 1.44 0c.18.204.279.468.28.74a.973.973 0 0 1-.294.7h.006z"/>
</svg>
