<svg xmlns="http://www.w3.org/2000/svg" width="24" height="24" viewBox="0 0 24 24">
    <path fill="#CCC" fill-rule="evenodd" d="M9.027 4a.667.667 0 0 1 0 1.333H5.333v3.694a.667.667 0 1 1-1.333 0v-4.36C4 4.298 4.298 4 4.667 4h4.36zm0 14.667a.667.667 0 1 1 0 1.333h-4.36A.667.667 0 0 1 4 19.333v-4.36a.667.667 0 0 1 1.333 0v3.694h3.694zm10.306-4.374c.369 0 .667.299.667.667v4.373a.667.667 0 0 1-.667.667h-4.38a.667.667 0 0 1 0-1.333h3.714V14.96c0-.368.298-.667.666-.667zm0-10.293c.369 0 .667.298.667.667v4.38a.667.667 0 1 1-1.333 0V5.333h-3.714a.667.667 0 0 1 0-1.333h4.38z"/>
</svg>
