<svg xmlns="http://www.w3.org/2000/svg" width="24" height="24" viewBox="0 0 24 24">
    <path fill="#CCC" fill-rule="evenodd" d="M19.333 14.307a.667.667 0 1 1 0 1.333H15.64v3.693a.667.667 0 0 1-1.333 0v-4.36c0-.368.298-.666.666-.666h4.36zm-10.3 0a.667.667 0 0 1 .667.666v4.36a.667.667 0 0 1-1.333 0V15.64h-3.7a.667.667 0 1 1 0-1.333h4.366zM9.033 4a.667.667 0 0 1 .667.667v4.36a.667.667 0 0 1-.667.666H4.667a.667.667 0 1 1 0-1.333h3.7V4.667c0-.369.298-.667.666-.667zm5.94 5.693a.667.667 0 0 1-.666-.666v-4.36a.667.667 0 1 1 1.333 0V8.36h3.693a.667.667 0 1 1 0 1.333h-4.36z"/>
</svg>
