<svg xmlns="http://www.w3.org/2000/svg" width="24" height="24" viewBox="0 0 24 24">
    <path fill="#CCC" fill-rule="evenodd" d="M7.86 9.747a.667.667 0 0 1-.94 0 .667.667 0 0 1 0-.94l4.607-4.627a.667.667 0 0 1 .213-.14.4.4 0 0 1 .127-.04H12c.175 0 .342.07.467.193l4.666 4.667a.667.667 0 1 1-.94.947l-3.526-3.534v9.06a.667.667 0 0 1-1.334 0v-9.06L7.86 9.747zm11.473 5.586c.369 0 .667.299.667.667v3.333a.667.667 0 0 1-.667.667H4.667A.667.667 0 0 1 4 19.333V16a.667.667 0 0 1 1.333 0v2.667h13.334V16c0-.368.298-.667.666-.667z"/>
</svg>
