<svg xmlns="http://www.w3.org/2000/svg" width="24" height="24" viewBox="0 0 24 24">
    <path fill="#0AE" fill-rule="evenodd" d="M5.607 11.834c0 .739-.614.799-.767.799h-.073c-.16 0-.767-.06-.767-.8 0-.746.6-.8.76-.8h.08c.153 0 .767.067.767.8zm1.013-4c0-.368.293-.667.667-.667h12.04c.366 0 .666.3.666.667 0 .373-.3.666-.666.666H7.287a.66.66 0 0 1-.667-.666zm13.367 8.02c0 .366-.3.666-.667.666H7.28a.668.668 0 0 1-.667-.667c0-.373.3-.667.667-.667h12.04c.367 0 .667.294.667.667zm0-4.02c0 .366-.3.666-.667.666H7.28a.664.664 0 0 1-.667-.666c0-.368.294-.667.667-.667h12.04c.367 0 .667.3.667.667zM5.667 7.84c0 .766-.634.827-.794.827H4.8c-.167 0-.8-.06-.8-.834C4 7.06 4.627 7 4.793 7h.08c.16.007.794.073.794.84zm-.06 8.013c0 .74-.607.8-.76.8h-.074c-.16 0-.766-.06-.766-.807 0-.74.6-.792.76-.792.026-.008.053 0 .073 0 .16 0 .767.066.767.8z"/>
</svg>
