<svg xmlns="http://www.w3.org/2000/svg" width="24" height="24" viewBox="0 0 24 24">
    <path fill="#CCC" fill-rule="evenodd" d="M19.742 4.054a.495.495 0 0 0-.55.093l-1.924 1.894a7.926 7.926 0 0 0-9.413-.895 8.018 8.018 0 0 0-3.62 8.78 7.97 7.97 0 0 0 7.283 6.062 7.958 7.958 0 0 0 7.906-5.214.67.67 0 0 0-.392-.86.664.664 0 0 0-.855.393c-1.163 3.18-4.515 4.978-7.79 4.178-3.277-.8-5.434-3.944-5.015-7.306.418-3.362 3.28-5.874 6.65-5.838a6.533 6.533 0 0 1 4.324 1.626l-2.095 2.047a.488.488 0 0 0-.106.553c.079.183.259.3.457.3l4.643-.173a.492.492 0 0 0 .477-.467l.272-4.666a.487.487 0 0 0-.252-.507z"/>
</svg>
