<svg xmlns="http://www.w3.org/2000/svg" width="24" height="24" viewBox="0 0 24 24">
    <path fill="#4A4A4A" fill-rule="evenodd" d="M5.1 13.227c.037-.044.078-.116.078-.403 0-.236-.05-.375-.096-.427-.017-.02-.115-.065-.35-.065H4.38v.959h.425c.24 0 .27-.035.296-.064zm-.346-2.052c.537 0 .928.138 1.195.423.27.285.411.705.411 1.213 0 .511-.123.9-.378 1.187-.255.298-.632.45-1.112.45h-.49v.99c0 .28-.225.505-.504.505h-.164a.504.504 0 0 1-.503-.504v-3.76c0-.279.225-.504.503-.504h1.042zm4.119 2.055c.04-.047.081-.12.081-.407 0-.234-.05-.374-.096-.428-.012-.013-.104-.063-.349-.063h-.353v.96h.424c.24 0 .27-.036.293-.062zm-.343-2.055c.536 0 .927.138 1.195.423.273.287.413.696.413 1.213 0 .512-.124.9-.381 1.189-.254.295-.63.449-1.111.449h-.49v.99c0 .279-.225.504-.503.504h-.165a.504.504 0 0 1-.504-.504v-3.76c0-.278.226-.504.504-.504H8.53zm4.907 0c.153 0 .298.07.394.188.094.122.13.278.096.426l-.033.15a.503.503 0 0 1-.49.393h-.693v3.107a.504.504 0 0 1-.504.505h-.164a.504.504 0 0 1-.504-.505v-3.107h-.714a.504.504 0 0 1-.504-.504v-.149c0-.278.226-.504.504-.504h2.612zm9.062 11.816c.254 0 .494-.224.494-.461V8.045h-3.13c-1.197 0-2.227-.386-2.98-1.116-.758-.733-1.16-1.74-1.16-2.907V1.009H7.336c-.225 0-.493.25-.493.46v6.73h8.173a2.767 2.767 0 0 1 2.762 2.766v5.096a2.767 2.767 0 0 1-2.762 2.766H6.888l-.045 3.71c0 .222.25.454.493.454h15.163zm-21.492-6.93c0 .97.787 1.757 1.755 1.757h12.254c.968 0 1.755-.788 1.755-1.757v-5.096c0-.97-.787-1.758-1.755-1.758H2.762c-.968 0-1.755.788-1.755 1.758v5.096zM22.73 7.036L16.73 1.23v2.792c0 .887.295 1.642.853 2.182.56.544 1.348.832 2.278.832h2.867zm1.23-.02c.027.062.041.127.041.197V22.53c0 .797-.687 1.47-1.5 1.47H7.335c-.799 0-1.5-.687-1.5-1.47l.044-3.703H2.762A2.768 2.768 0 0 1 0 16.061v-5.096a2.768 2.768 0 0 1 2.762-2.767h3.074V1.47C5.836.7 6.551 0 7.336 0h9.23c.219 0 .434.087.589.237l6.592 6.381a.808.808 0 0 1 .213.398z"/>
</svg>
