
<svg width="14px" height="14px" viewBox="0 0 14 14" version="1.1" xmlns="http://www.w3.org/2000/svg" xmlns:xlink="http://www.w3.org/1999/xlink">
    <g id="Page-1" stroke="none" stroke-width="1" fill="none" fill-rule="evenodd">
        <g id="ZOOM" transform="translate(-764.000000, -511.000000)" fill="#FFFFFF">
            <path d="M764,522 L767,522 L767,525 L769,525 L769,520 L764,520 L764,522 L764,522 Z M767,514 L764,514 L764,516 L769,516 L769,511 L767,511 L767,514 L767,514 Z M773,525 L775,525 L775,522 L778,522 L778,520 L773,520 L773,525 L773,525 Z M775,514 L775,511 L773,511 L773,516 L778,516 L778,514 L775,514 L775,514 Z" id="Shape"></path>
        </g>
    </g>
</svg>
