
<svg width="204px" height="171px" viewBox="0 0 204 171" version="1.1" xmlns="http://www.w3.org/2000/svg" xmlns:xlink="http://www.w3.org/1999/xlink">
    <!-- Generator: Sketch 49.1 (51147) - http://www.bohemiancoding.com/sketch -->
    <desc>Created with Sketch.</desc>
    <defs></defs>
    <g id="Page-1" stroke="none" stroke-width="1" fill="none" fill-rule="evenodd">
        <g id="Desktop" transform="translate(-571.000000, -1927.000000)">
            <g id="Population-Pyramid" transform="translate(571.000000, 1927.000000)">
                <g>
                    <g id="dcha" transform="translate(110.000000, 0.000000)" fill="#0088CC">
                        <rect id="Rectangle-4" x="0" y="0" width="21.1428571" height="16.7468354"></rect>
                        <rect id="Rectangle-4" x="0" y="18.6075949" width="24.8739496" height="16.7468354"></rect>
                        <rect id="Rectangle-4-Copy" x="0" y="37.2151899" width="32.3361345" height="16.7468354"></rect>
                        <rect id="Rectangle-4-Copy-2" x="0" y="55.8227848" width="47.8823529" height="16.7468354"></rect>
                        <rect id="Rectangle-4-Copy-3" x="0" y="74.4303797" width="68.4033613" height="16.7468354"></rect>
                        <rect id="Rectangle-4-Copy-4" x="0" y="93.0379747" width="74" height="16.7468354"></rect>
                        <rect id="Rectangle-4-Copy-5" x="0" y="111.64557" width="63.4285714" height="16.7468354"></rect>
                        <rect id="Rectangle-4-Copy-6" x="0" y="130.253165" width="56.5882353" height="16.7468354"></rect>
                    </g>
                    <g id="izq" transform="translate(70.000000, 73.500000) scale(-1, 1) translate(-70.000000, -73.500000) translate(33.000000, 0.000000)" fill="#CCEEFF">
                        <rect id="Rectangle-4" x="0" y="0" width="21.1428571" height="16.7468354"></rect>
                        <rect id="Rectangle-4" x="0" y="18.6075949" width="24.8739496" height="16.7468354"></rect>
                        <rect id="Rectangle-4-Copy" x="0" y="37.2151899" width="32.3361345" height="16.7468354"></rect>
                        <rect id="Rectangle-4-Copy-2" x="0" y="55.8227848" width="47.8823529" height="16.7468354"></rect>
                        <rect id="Rectangle-4-Copy-3" x="0" y="74.4303797" width="68.4033613" height="16.7468354"></rect>
                        <rect id="Rectangle-4-Copy-4" x="0" y="93.0379747" width="74" height="16.7468354"></rect>
                        <rect id="Rectangle-4-Copy-5" x="0" y="111.64557" width="63.4285714" height="16.7468354"></rect>
                        <rect id="Rectangle-4-Copy-6" x="0" y="130.253165" width="56.5882353" height="16.7468354"></rect>
                    </g>
                    <polyline id="Path-15" stroke="#979797" points="20 160.723558 20 155 195 155 195 161"></polyline>
                    <path d="M64.6666667,155 L64.6666667,160.707889" id="Path-16" stroke="#979797"></path>
                    <path d="M108.666667,155 L108.666667,160.707889" id="Path-16-Copy" stroke="#979797"></path>
                    <path d="M152.666667,155 L152.666667,160.707889" id="Path-16-Copy-2" stroke="#979797"></path>
                    <path d="M13.026962,170.901547 C13.0089872,170.849976 13,170.774965 13,170.676512 C13,170.531176 13.0202213,170.402251 13.0606644,170.289733 C13.1011076,170.177215 13.1707586,170.06001 13.2696196,169.938115 L14.166105,168.798875 C14.4447133,168.447256 14.635692,168.178857 14.7390467,167.993671 C14.8424014,167.808485 14.894078,167.622129 14.894078,167.434599 C14.894078,167.228316 14.8334142,167.073606 14.7120847,166.970464 C14.5772742,166.848569 14.3436062,166.787623 14.0110737,166.787623 C13.7234779,166.787623 13.4224057,166.818096 13.1078479,166.879044 L13.1078479,166.133615 C13.2516457,166.096109 13.4212797,166.064463 13.6167549,166.038678 C13.8122302,166.012893 13.9998386,166 14.1795859,166 C14.8131953,166 15.2737909,166.150022 15.5613866,166.45007 C15.7815771,166.679795 15.8916707,166.991559 15.8916707,167.385373 C15.8916707,167.680733 15.8197728,167.963196 15.675975,168.232771 C15.5321771,168.502345 15.276041,168.848099 14.907559,169.270042 L14.1054405,170.184248 L15.9658161,170.184248 L15.9658161,170.901547 L13.026962,170.901547 Z M18.5811266,171 C17.9565047,171 17.5060197,170.794892 17.2296582,170.384669 C16.9532966,169.974447 16.815118,169.347402 16.815118,168.503516 C16.815118,167.65963 16.9532966,167.031413 17.2296582,166.618847 C17.5060197,166.20628 17.9565047,166 18.5811266,166 C19.2057486,166 19.6562336,166.20628 19.9325951,166.618847 C20.2089566,167.031413 20.3471353,167.65963 20.3471353,168.503516 C20.3471353,169.347402 20.2089566,169.974447 19.9325951,170.384669 C19.6562336,170.794892 19.2057486,171 18.5811266,171 Z M18.5811266,170.19128 C18.7698613,170.19128 18.9181506,170.142054 19.025999,170.043601 C19.1338474,169.945147 19.2136091,169.774028 19.2652865,169.530239 C19.3169638,169.28645 19.3428021,168.944212 19.3428021,168.503516 C19.3428021,168.058132 19.3169638,167.70769 19.2652865,167.45218 C19.2136091,167.19667 19.132724,167.013831 19.0226288,166.903657 C18.9125336,166.793483 18.7653676,166.738397 18.5811266,166.738397 C18.3968856,166.738397 18.2497197,166.793483 18.1396245,166.903657 C18.0295292,167.013831 17.9486441,167.19667 17.8969668,167.45218 C17.8452894,167.70769 17.8194511,168.058132 17.8194511,168.503516 C17.8194511,168.944212 17.8452894,169.28645 17.8969668,169.530239 C17.9486441,169.774028 18.0284058,169.945147 18.1362542,170.043601 C18.2441026,170.142054 18.3923919,170.19128 18.5811266,170.19128 Z M22.1401059,168.932489 C21.7401681,168.932489 21.4402193,168.80708 21.2402504,168.556259 C21.0402815,168.305437 20.9402985,167.940931 20.9402985,167.462729 C20.9402985,166.989215 21.0402815,166.627052 21.2402504,166.376231 C21.4402193,166.125409 21.7401681,166 22.1401059,166 C22.5400437,166 22.8422394,166.125409 23.046702,166.376231 C23.2511646,166.627052 23.3533943,166.989215 23.3533943,167.462729 C23.3533943,167.936242 23.2511646,168.299577 23.046702,168.552743 C22.8422394,168.805908 22.5400437,168.932489 22.1401059,168.932489 Z M24.7823784,166 L25.6114588,166 L23.1511796,171 L22.3220992,171 L24.7823784,166 Z M22.1401059,168.264416 C22.2973848,168.264416 22.4074784,168.198782 22.47039,168.067511 C22.5333016,167.936239 22.5647569,167.734647 22.5647569,167.462729 C22.5647569,167.195498 22.5333016,166.99625 22.47039,166.864979 C22.4074784,166.733708 22.2973848,166.668073 22.1401059,166.668073 C21.982827,166.668073 21.8738568,166.732536 21.8131921,166.861463 C21.7525274,166.99039 21.7221955,167.19081 21.7221955,167.462729 C21.7221955,167.734647 21.7525274,167.936239 21.8131921,168.067511 C21.8738568,168.198782 21.982827,168.264416 22.1401059,168.264416 Z M25.7934521,171 C25.3935143,171 25.092442,170.874591 24.8902263,170.623769 C24.6880105,170.372948 24.5869042,170.010785 24.5869042,169.537271 C24.5869042,169.059069 24.6880105,168.694563 24.8902263,168.443741 C25.092442,168.19292 25.3935143,168.067511 25.7934521,168.067511 C26.1933899,168.067511 26.4944622,168.19292 26.6966779,168.443741 C26.8988936,168.694563 27,169.059069 27,169.537271 C27,170.010785 26.8988936,170.372948 26.6966779,170.623769 C26.4944622,170.874591 26.1933899,171 25.7934521,171 Z M25.7934521,170.331927 C25.950731,170.331927 26.0608246,170.266292 26.1237362,170.135021 C26.1866477,170.00375 26.218103,169.804502 26.218103,169.537271 C26.218103,169.265353 26.1866477,169.063761 26.1237362,168.932489 C26.0608246,168.801218 25.950731,168.735584 25.7934521,168.735584 C25.6316795,168.735584 25.5215859,168.800046 25.463168,168.928973 C25.4047501,169.0579 25.3755416,169.260664 25.3755416,169.537271 C25.3755416,169.80919 25.4047501,170.00961 25.463168,170.138537 C25.5215859,170.267464 25.6316795,170.331927 25.7934521,170.331927 Z" id="20%" fill="#9B9B9B"></path>
                    <path d="M57,170.184248 L57.8019753,170.184248 L57.8019753,166.787623 L57.0345679,166.787623 L57.0345679,166.105485 C57.1866674,166.082044 57.367571,166.062119 57.577284,166.04571 C57.7869969,166.029301 57.9725095,166.021097 58.1338272,166.021097 C58.3781082,166.021097 58.5486415,166.056258 58.6454321,166.126582 C58.7422227,166.196906 58.7906173,166.321143 58.7906173,166.499297 L58.7906173,170.184248 L59.4681481,170.184248 L59.4681481,170.901547 L57,170.901547 L57,170.184248 Z M62.3649383,171 C61.7242766,171 61.2622236,170.794892 60.9787654,170.384669 C60.6953072,169.974447 60.5535802,169.347402 60.5535802,168.503516 C60.5535802,167.65963 60.6953072,167.031413 60.9787654,166.618847 C61.2622236,166.20628 61.7242766,166 62.3649383,166 C63.0055999,166 63.4676529,166.20628 63.7511111,166.618847 C64.0345693,167.031413 64.1762963,167.65963 64.1762963,168.503516 C64.1762963,169.347402 64.0345693,169.974447 63.7511111,170.384669 C63.4676529,170.794892 63.0055999,171 62.3649383,171 Z M62.3649383,170.19128 C62.5585195,170.19128 62.7106167,170.142054 62.8212346,170.043601 C62.9318524,169.945147 63.0136623,169.774028 63.0666667,169.530239 C63.119671,169.28645 63.1461728,168.944212 63.1461728,168.503516 C63.1461728,168.058132 63.119671,167.70769 63.0666667,167.45218 C63.0136623,167.19667 62.9307002,167.013831 62.8177778,166.903657 C62.7048554,166.793483 62.5539104,166.738397 62.3649383,166.738397 C62.1759661,166.738397 62.0250211,166.793483 61.9120988,166.903657 C61.7991764,167.013831 61.7162143,167.19667 61.6632099,167.45218 C61.6102055,167.70769 61.5837037,168.058132 61.5837037,168.503516 C61.5837037,168.944212 61.6102055,169.28645 61.6632099,169.530239 C61.7162143,169.774028 61.7980241,169.945147 61.908642,170.043601 C62.0192598,170.142054 62.1713571,170.19128 62.3649383,170.19128 Z M66.0153086,168.932489 C65.6051008,168.932489 65.2974496,168.80708 65.0923457,168.556259 C64.8872418,168.305437 64.7846914,167.940931 64.7846914,167.462729 C64.7846914,166.989215 64.8872418,166.627052 65.0923457,166.376231 C65.2974496,166.125409 65.6051008,166 66.0153086,166 C66.4255165,166 66.7354722,166.125409 66.9451852,166.376231 C67.1548982,166.627052 67.2597531,166.989215 67.2597531,167.462729 C67.2597531,167.936242 67.1548982,168.299577 66.9451852,168.552743 C66.7354722,168.805908 66.4255165,168.932489 66.0153086,168.932489 Z M68.7254321,166 L69.5758025,166 L67.0523457,171 L66.2019753,171 L68.7254321,166 Z M66.0153086,168.264416 C66.1766263,168.264416 66.289547,168.198782 66.3540741,168.067511 C66.4186011,167.936239 66.4508642,167.734647 66.4508642,167.462729 C66.4508642,167.195498 66.4186011,166.99625 66.3540741,166.864979 C66.289547,166.733708 66.1766263,166.668073 66.0153086,166.668073 C65.853991,166.668073 65.7422225,166.732536 65.68,166.861463 C65.6177775,166.99039 65.5866667,167.19081 65.5866667,167.462729 C65.5866667,167.734647 65.6177775,167.936239 65.68,168.067511 C65.7422225,168.198782 65.853991,168.264416 66.0153086,168.264416 Z M69.7624691,171 C69.3522613,171 69.0434578,170.874591 68.8360494,170.623769 C68.6286409,170.372948 68.5249383,170.010785 68.5249383,169.537271 C68.5249383,169.059069 68.6286409,168.694563 68.8360494,168.443741 C69.0434578,168.19292 69.3522613,168.067511 69.7624691,168.067511 C70.1726769,168.067511 70.4814804,168.19292 70.6888889,168.443741 C70.8962973,168.694563 71,169.059069 71,169.537271 C71,170.010785 70.8962973,170.372948 70.6888889,170.623769 C70.4814804,170.874591 70.1726769,171 69.7624691,171 Z M69.7624691,170.331927 C69.9237868,170.331927 70.0367075,170.266292 70.1012346,170.135021 C70.1657616,170.00375 70.1980247,169.804502 70.1980247,169.537271 C70.1980247,169.265353 70.1657616,169.063761 70.1012346,168.932489 C70.0367075,168.801218 69.9237868,168.735584 69.7624691,168.735584 C69.5965424,168.735584 69.4836217,168.800046 69.4237037,168.928973 C69.3637857,169.0579 69.3338272,169.260664 69.3338272,169.537271 C69.3338272,169.80919 69.3637857,170.00961 69.4237037,170.138537 C69.4836217,170.267464 69.5965424,170.331927 69.7624691,170.331927 Z" id="10%" fill="#9B9B9B"></path>
                    <path d="M103.733951,171 C103.120668,171 102.67836,170.794892 102.407015,170.384669 C102.13567,169.974447 102,169.347402 102,168.503516 C102,167.65963 102.13567,167.031413 102.407015,166.618847 C102.67836,166.20628 103.120668,166 103.733951,166 C104.347234,166 104.789542,166.20628 105.060887,166.618847 C105.332232,167.031413 105.467902,167.65963 105.467902,168.503516 C105.467902,169.347402 105.332232,169.974447 105.060887,170.384669 C104.789542,170.794892 104.347234,171 103.733951,171 Z M103.733951,170.19128 C103.91926,170.19128 104.064857,170.142054 104.170748,170.043601 C104.276639,169.945147 104.354952,169.774028 104.405692,169.530239 C104.456431,169.28645 104.4818,168.944212 104.4818,168.503516 C104.4818,168.058132 104.456431,167.70769 104.405692,167.45218 C104.354952,167.19667 104.275536,167.013831 104.167439,166.903657 C104.059342,166.793483 103.914848,166.738397 103.733951,166.738397 C103.553054,166.738397 103.40856,166.793483 103.300463,166.903657 C103.192367,167.013831 103.11295,167.19667 103.06221,167.45218 C103.011471,167.70769 102.986102,168.058132 102.986102,168.503516 C102.986102,168.944212 103.011471,169.28645 103.06221,169.530239 C103.11295,169.774028 103.191264,169.945147 103.297154,170.043601 C103.403045,170.142054 103.548642,170.19128 103.733951,170.19128 Z M107.228326,168.932489 C106.835648,168.932489 106.541144,168.80708 106.344805,168.556259 C106.148466,168.305437 106.050298,167.940931 106.050298,167.462729 C106.050298,166.989215 106.148466,166.627052 106.344805,166.376231 C106.541144,166.125409 106.835648,166 107.228326,166 C107.621004,166 107.917714,166.125409 108.118465,166.376231 C108.319216,166.627052 108.41959,166.989215 108.41959,167.462729 C108.41959,167.936242 108.319216,168.299577 108.118465,168.552743 C107.917714,168.805908 107.621004,168.932489 107.228326,168.932489 Z M109.822634,166 L110.636664,166 L108.221046,171 L107.407015,171 L109.822634,166 Z M107.228326,168.264416 C107.38275,168.264416 107.490845,168.198782 107.552614,168.067511 C107.614384,167.936239 107.645268,167.734647 107.645268,167.462729 C107.645268,167.195498 107.614384,166.99625 107.552614,166.864979 C107.490845,166.733708 107.38275,166.668073 107.228326,166.668073 C107.073902,166.668073 106.96691,166.732536 106.907346,166.861463 C106.847783,166.99039 106.818001,167.19081 106.818001,167.462729 C106.818001,167.734647 106.847783,167.936239 106.907346,168.067511 C106.96691,168.198782 107.073902,168.264416 107.228326,168.264416 Z M110.815354,171 C110.422676,171 110.127069,170.874591 109.928524,170.623769 C109.729979,170.372948 109.630708,170.010785 109.630708,169.537271 C109.630708,169.059069 109.729979,168.694563 109.928524,168.443741 C110.127069,168.19292 110.422676,168.067511 110.815354,168.067511 C111.208032,168.067511 111.503639,168.19292 111.702184,168.443741 C111.900729,168.694563 112,169.059069 112,169.537271 C112,170.010785 111.900729,170.372948 111.702184,170.623769 C111.503639,170.874591 111.208032,171 110.815354,171 Z M110.815354,170.331927 C110.969778,170.331927 111.077873,170.266292 111.139643,170.135021 C111.201412,170.00375 111.232296,169.804502 111.232296,169.537271 C111.232296,169.265353 111.201412,169.063761 111.139643,168.932489 C111.077873,168.801218 110.969778,168.735584 110.815354,168.735584 C110.656518,168.735584 110.548423,168.800046 110.491066,168.928973 C110.433708,169.0579 110.40503,169.260664 110.40503,169.537271 C110.40503,169.80919 110.433708,170.00961 110.491066,170.138537 C110.548423,170.267464 110.656518,170.331927 110.815354,170.331927 Z" id="0%" fill="#9B9B9B"></path>
                    <path d="M145,170.184248 L145.801975,170.184248 L145.801975,166.787623 L145.034568,166.787623 L145.034568,166.105485 C145.186667,166.082044 145.367571,166.062119 145.577284,166.04571 C145.786997,166.029301 145.972509,166.021097 146.133827,166.021097 C146.378108,166.021097 146.548641,166.056258 146.645432,166.126582 C146.742223,166.196906 146.790617,166.321143 146.790617,166.499297 L146.790617,170.184248 L147.468148,170.184248 L147.468148,170.901547 L145,170.901547 L145,170.184248 Z M150.364938,171 C149.724277,171 149.262224,170.794892 148.978765,170.384669 C148.695307,169.974447 148.55358,169.347402 148.55358,168.503516 C148.55358,167.65963 148.695307,167.031413 148.978765,166.618847 C149.262224,166.20628 149.724277,166 150.364938,166 C151.0056,166 151.467653,166.20628 151.751111,166.618847 C152.034569,167.031413 152.176296,167.65963 152.176296,168.503516 C152.176296,169.347402 152.034569,169.974447 151.751111,170.384669 C151.467653,170.794892 151.0056,171 150.364938,171 Z M150.364938,170.19128 C150.558519,170.19128 150.710617,170.142054 150.821235,170.043601 C150.931852,169.945147 151.013662,169.774028 151.066667,169.530239 C151.119671,169.28645 151.146173,168.944212 151.146173,168.503516 C151.146173,168.058132 151.119671,167.70769 151.066667,167.45218 C151.013662,167.19667 150.9307,167.013831 150.817778,166.903657 C150.704855,166.793483 150.55391,166.738397 150.364938,166.738397 C150.175966,166.738397 150.025021,166.793483 149.912099,166.903657 C149.799176,167.013831 149.716214,167.19667 149.66321,167.45218 C149.610205,167.70769 149.583704,168.058132 149.583704,168.503516 C149.583704,168.944212 149.610205,169.28645 149.66321,169.530239 C149.716214,169.774028 149.798024,169.945147 149.908642,170.043601 C150.01926,170.142054 150.171357,170.19128 150.364938,170.19128 Z M154.015309,168.932489 C153.605101,168.932489 153.29745,168.80708 153.092346,168.556259 C152.887242,168.305437 152.784691,167.940931 152.784691,167.462729 C152.784691,166.989215 152.887242,166.627052 153.092346,166.376231 C153.29745,166.125409 153.605101,166 154.015309,166 C154.425516,166 154.735472,166.125409 154.945185,166.376231 C155.154898,166.627052 155.259753,166.989215 155.259753,167.462729 C155.259753,167.936242 155.154898,168.299577 154.945185,168.552743 C154.735472,168.805908 154.425516,168.932489 154.015309,168.932489 Z M156.725432,166 L157.575802,166 L155.052346,171 L154.201975,171 L156.725432,166 Z M154.015309,168.264416 C154.176626,168.264416 154.289547,168.198782 154.354074,168.067511 C154.418601,167.936239 154.450864,167.734647 154.450864,167.462729 C154.450864,167.195498 154.418601,166.99625 154.354074,166.864979 C154.289547,166.733708 154.176626,166.668073 154.015309,166.668073 C153.853991,166.668073 153.742223,166.732536 153.68,166.861463 C153.617777,166.99039 153.586667,167.19081 153.586667,167.462729 C153.586667,167.734647 153.617777,167.936239 153.68,168.067511 C153.742223,168.198782 153.853991,168.264416 154.015309,168.264416 Z M157.762469,171 C157.352261,171 157.043458,170.874591 156.836049,170.623769 C156.628641,170.372948 156.524938,170.010785 156.524938,169.537271 C156.524938,169.059069 156.628641,168.694563 156.836049,168.443741 C157.043458,168.19292 157.352261,168.067511 157.762469,168.067511 C158.172677,168.067511 158.48148,168.19292 158.688889,168.443741 C158.896297,168.694563 159,169.059069 159,169.537271 C159,170.010785 158.896297,170.372948 158.688889,170.623769 C158.48148,170.874591 158.172677,171 157.762469,171 Z M157.762469,170.331927 C157.923787,170.331927 158.036707,170.266292 158.101235,170.135021 C158.165762,170.00375 158.198025,169.804502 158.198025,169.537271 C158.198025,169.265353 158.165762,169.063761 158.101235,168.932489 C158.036707,168.801218 157.923787,168.735584 157.762469,168.735584 C157.596542,168.735584 157.483622,168.800046 157.423704,168.928973 C157.363786,169.0579 157.333827,169.260664 157.333827,169.537271 C157.333827,169.80919 157.363786,170.00961 157.423704,170.138537 C157.483622,170.267464 157.596542,170.331927 157.762469,170.331927 Z" id="10%" fill="#9B9B9B"></path>
                    <path d="M190.026962,170.901547 C190.008987,170.849976 190,170.774965 190,170.676512 C190,170.531176 190.020221,170.402251 190.060664,170.289733 C190.101108,170.177215 190.170759,170.06001 190.26962,169.938115 L191.166105,168.798875 C191.444713,168.447256 191.635692,168.178857 191.739047,167.993671 C191.842401,167.808485 191.894078,167.622129 191.894078,167.434599 C191.894078,167.228316 191.833414,167.073606 191.712085,166.970464 C191.577274,166.848569 191.343606,166.787623 191.011074,166.787623 C190.723478,166.787623 190.422406,166.818096 190.107848,166.879044 L190.107848,166.133615 C190.251646,166.096109 190.42128,166.064463 190.616755,166.038678 C190.81223,166.012893 190.999839,166 191.179586,166 C191.813195,166 192.273791,166.150022 192.561387,166.45007 C192.781577,166.679795 192.891671,166.991559 192.891671,167.385373 C192.891671,167.680733 192.819773,167.963196 192.675975,168.232771 C192.532177,168.502345 192.276041,168.848099 191.907559,169.270042 L191.105441,170.184248 L192.965816,170.184248 L192.965816,170.901547 L190.026962,170.901547 Z M195.581127,171 C194.956505,171 194.50602,170.794892 194.229658,170.384669 C193.953297,169.974447 193.815118,169.347402 193.815118,168.503516 C193.815118,167.65963 193.953297,167.031413 194.229658,166.618847 C194.50602,166.20628 194.956505,166 195.581127,166 C196.205749,166 196.656234,166.20628 196.932595,166.618847 C197.208957,167.031413 197.347135,167.65963 197.347135,168.503516 C197.347135,169.347402 197.208957,169.974447 196.932595,170.384669 C196.656234,170.794892 196.205749,171 195.581127,171 Z M195.581127,170.19128 C195.769861,170.19128 195.918151,170.142054 196.025999,170.043601 C196.133847,169.945147 196.213609,169.774028 196.265286,169.530239 C196.316964,169.28645 196.342802,168.944212 196.342802,168.503516 C196.342802,168.058132 196.316964,167.70769 196.265286,167.45218 C196.213609,167.19667 196.132724,167.013831 196.022629,166.903657 C195.912534,166.793483 195.765368,166.738397 195.581127,166.738397 C195.396886,166.738397 195.24972,166.793483 195.139624,166.903657 C195.029529,167.013831 194.948644,167.19667 194.896967,167.45218 C194.845289,167.70769 194.819451,168.058132 194.819451,168.503516 C194.819451,168.944212 194.845289,169.28645 194.896967,169.530239 C194.948644,169.774028 195.028406,169.945147 195.136254,170.043601 C195.244103,170.142054 195.392392,170.19128 195.581127,170.19128 Z M199.140106,168.932489 C198.740168,168.932489 198.440219,168.80708 198.24025,168.556259 C198.040281,168.305437 197.940299,167.940931 197.940299,167.462729 C197.940299,166.989215 198.040281,166.627052 198.24025,166.376231 C198.440219,166.125409 198.740168,166 199.140106,166 C199.540044,166 199.842239,166.125409 200.046702,166.376231 C200.251165,166.627052 200.353394,166.989215 200.353394,167.462729 C200.353394,167.936242 200.251165,168.299577 200.046702,168.552743 C199.842239,168.805908 199.540044,168.932489 199.140106,168.932489 Z M201.782378,166 L202.611459,166 L200.15118,171 L199.322099,171 L201.782378,166 Z M199.140106,168.264416 C199.297385,168.264416 199.407478,168.198782 199.47039,168.067511 C199.533302,167.936239 199.564757,167.734647 199.564757,167.462729 C199.564757,167.195498 199.533302,166.99625 199.47039,166.864979 C199.407478,166.733708 199.297385,166.668073 199.140106,166.668073 C198.982827,166.668073 198.873857,166.732536 198.813192,166.861463 C198.752527,166.99039 198.722195,167.19081 198.722195,167.462729 C198.722195,167.734647 198.752527,167.936239 198.813192,168.067511 C198.873857,168.198782 198.982827,168.264416 199.140106,168.264416 Z M202.793452,171 C202.393514,171 202.092442,170.874591 201.890226,170.623769 C201.688011,170.372948 201.586904,170.010785 201.586904,169.537271 C201.586904,169.059069 201.688011,168.694563 201.890226,168.443741 C202.092442,168.19292 202.393514,168.067511 202.793452,168.067511 C203.19339,168.067511 203.494462,168.19292 203.696678,168.443741 C203.898894,168.694563 204,169.059069 204,169.537271 C204,170.010785 203.898894,170.372948 203.696678,170.623769 C203.494462,170.874591 203.19339,171 202.793452,171 Z M202.793452,170.331927 C202.950731,170.331927 203.060825,170.266292 203.123736,170.135021 C203.186648,170.00375 203.218103,169.804502 203.218103,169.537271 C203.218103,169.265353 203.186648,169.063761 203.123736,168.932489 C203.060825,168.801218 202.950731,168.735584 202.793452,168.735584 C202.631679,168.735584 202.521586,168.800046 202.463168,168.928973 C202.40475,169.0579 202.375542,169.260664 202.375542,169.537271 C202.375542,169.80919 202.40475,170.00961 202.463168,170.138537 C202.521586,170.267464 202.631679,170.331927 202.793452,170.331927 Z" id="20%" fill="#9B9B9B"></path>
                    <path d="M2.40038873,10 C1.90508337,10 1.5478631,9.8359135 1.3287172,9.50773558 C1.1095713,9.17955767 1,8.6779218 1,8.00281294 C1,7.32770408 1.1095713,6.82513058 1.3287172,6.49507736 C1.5478631,6.16502414 1.90508337,6 2.40038873,6 C2.89569409,6 3.25291436,6.16502414 3.47206025,6.49507736 C3.69120615,6.82513058 3.80077745,7.32770408 3.80077745,8.00281294 C3.80077745,8.6779218 3.69120615,9.17955767 3.47206025,9.50773558 C3.25291436,9.8359135 2.89569409,10 2.40038873,10 Z M2.40038873,9.35302391 C2.55004934,9.35302391 2.66763806,9.31364315 2.75315841,9.23488045 C2.83867876,9.15611775 2.90192723,9.01922273 2.94290573,8.82419128 C2.98388423,8.62915983 3.00437318,8.35536979 3.00437318,8.00281294 C3.00437318,7.64650549 2.98388423,7.36615198 2.94290573,7.16174402 C2.90192723,6.95733606 2.83778793,6.81106467 2.75048591,6.72292546 C2.66318388,6.63478624 2.54648599,6.5907173 2.40038873,6.5907173 C2.25429146,6.5907173 2.13759357,6.63478624 2.05029155,6.72292546 C1.96298952,6.81106467 1.89885022,6.95733606 1.85787172,7.16174402 C1.81689322,7.36615198 1.79640428,7.64650549 1.79640428,8.00281294 C1.79640428,8.35536979 1.81689322,8.62915983 1.85787172,8.82419128 C1.89885022,9.01922273 1.9620987,9.15611775 2.04761905,9.23488045 C2.1331394,9.31364315 2.25072811,9.35302391 2.40038873,9.35302391 Z M4.24975705,8.12658228 L5.54324587,8.12658228 L5.54324587,8.79606188 L4.24975705,8.79606188 L4.24975705,8.12658228 Z M6.45189504,9.34739803 L7.07191448,9.34739803 L7.07191448,6.63009845 L6.47862002,6.63009845 L6.47862002,6.08438819 C6.5962105,6.06563516 6.73606981,6.04969533 6.89820214,6.03656821 C7.06033447,6.0234411 7.20375707,6.01687764 7.32847425,6.01687764 C7.51733169,6.01687764 7.64917358,6.04500675 7.72400389,6.10126582 C7.79883419,6.15752489 7.83624879,6.25691443 7.83624879,6.39943741 L7.83624879,9.34739803 L8.36005831,9.34739803 L8.36005831,9.92123769 L6.45189504,9.92123769 L6.45189504,9.34739803 Z M10.5996113,10 C10.1043059,10 9.74708564,9.8359135 9.52793975,9.50773558 C9.30879385,9.17955767 9.19922255,8.6779218 9.19922255,8.00281294 C9.19922255,7.32770408 9.30879385,6.82513058 9.52793975,6.49507736 C9.74708564,6.16502414 10.1043059,6 10.5996113,6 C11.0949166,6 11.4521369,6.16502414 11.6712828,6.49507736 C11.8904287,6.82513058 12,7.32770408 12,8.00281294 C12,8.6779218 11.8904287,9.17955767 11.6712828,9.50773558 C11.4521369,9.8359135 11.0949166,10 10.5996113,10 Z M10.5996113,9.35302391 C10.7492719,9.35302391 10.8668606,9.31364315 10.952381,9.23488045 C11.0379013,9.15611775 11.1011498,9.01922273 11.1421283,8.82419128 C11.1831068,8.62915983 11.2035957,8.35536979 11.2035957,8.00281294 C11.2035957,7.64650549 11.1831068,7.36615198 11.1421283,7.16174402 C11.1011498,6.95733606 11.0370105,6.81106467 10.9497085,6.72292546 C10.8624064,6.63478624 10.7457085,6.5907173 10.5996113,6.5907173 C10.453514,6.5907173 10.3368161,6.63478624 10.2495141,6.72292546 C10.1622121,6.81106467 10.0980728,6.95733606 10.0570943,7.16174402 C10.0161158,7.36615198 9.99562682,7.64650549 9.99562682,8.00281294 C9.99562682,8.35536979 10.0161158,8.62915983 10.0570943,8.82419128 C10.0980728,9.01922273 10.1613212,9.15611775 10.2468416,9.23488045 C10.3323619,9.31364315 10.4499507,9.35302391 10.5996113,9.35302391 Z" id="0-10" fill="#9B9B9B"></path>
                    <path d="M0,28.347398 L0.631415241,28.347398 L0.631415241,25.6300985 L0.0272161742,25.6300985 L0.0272161742,25.0843882 C0.146967939,25.0656352 0.289397827,25.0496953 0.454510109,25.0365682 C0.619622391,25.0234411 0.765681065,25.0168776 0.892690513,25.0168776 C1.08501911,25.0168776 1.21928422,25.0450068 1.29548989,25.1012658 C1.37169556,25.1575249 1.40979782,25.2569144 1.40979782,25.3994374 L1.40979782,28.347398 L1.94323484,28.347398 L1.94323484,28.9212377 L0,28.9212377 L0,28.347398 Z M4.22395023,29 C3.71954128,29 3.35575539,28.8359135 3.13258165,28.5077356 C2.9094079,28.1795577 2.79782271,27.6779218 2.79782271,27.0028129 C2.79782271,26.3277041 2.9094079,25.8251306 3.13258165,25.4950774 C3.35575539,25.1650241 3.71954128,25 4.22395023,25 C4.72835918,25 5.09214507,25.1650241 5.31531882,25.4950774 C5.53849256,25.8251306 5.65007776,26.3277041 5.65007776,27.0028129 C5.65007776,27.6779218 5.53849256,28.1795577 5.31531882,28.5077356 C5.09214507,28.8359135 4.72835918,29 4.22395023,29 Z M4.22395023,28.3530239 C4.37636157,28.3530239 4.49611154,28.3136432 4.58320373,28.2348805 C4.67029593,28.1561177 4.73470689,28.0192227 4.77643857,27.8241913 C4.81817024,27.6291598 4.83903577,27.3553698 4.83903577,27.0028129 C4.83903577,26.6465055 4.81817024,26.366152 4.77643857,26.161744 C4.73470689,25.9573361 4.66938873,25.8110647 4.58048212,25.7229255 C4.4915755,25.6347862 4.37273273,25.5907173 4.22395023,25.5907173 C4.07516774,25.5907173 3.95632497,25.6347862 3.86741835,25.7229255 C3.77851174,25.8110647 3.71319357,25.9573361 3.6714619,26.161744 C3.62973022,26.366152 3.6088647,26.6465055 3.6088647,27.0028129 C3.6088647,27.3553698 3.62973022,27.6291598 3.6714619,27.8241913 C3.71319357,28.0192227 3.77760454,28.1561177 3.86469673,28.2348805 C3.95178893,28.3136432 4.0715389,28.3530239 4.22395023,28.3530239 Z M6.10730949,27.1265823 L7.42457232,27.1265823 L7.42457232,27.7960619 L6.10730949,27.7960619 L6.10730949,27.1265823 Z M8.08864697,28.9212377 C8.0741316,28.879981 8.06687403,28.8199723 8.06687403,28.7412096 C8.06687403,28.6249408 8.08320357,28.5218007 8.11586314,28.4317862 C8.14852271,28.3417717 8.20476891,28.248008 8.28460342,28.1504923 L9.00855365,27.2390999 C9.23354182,26.9578045 9.38776526,26.7430856 9.47122862,26.5949367 C9.55469197,26.4467878 9.59642302,26.2977035 9.59642302,26.1476793 C9.59642302,25.9826527 9.54743439,25.8588846 9.44945568,25.7763713 C9.34059044,25.6788556 9.15189351,25.6300985 8.88335925,25.6300985 C8.65111341,25.6300985 8.40798468,25.654477 8.15396579,25.7032349 L8.15396579,25.1068917 C8.27008871,25.0768869 8.40707542,25.0515707 8.56493002,25.0309423 C8.72278462,25.010314 8.87428647,25 9.01944012,25 C9.53110676,25 9.90305742,25.1200176 10.1353033,25.3600563 C10.3131165,25.5438359 10.4020218,25.7932474 10.4020218,26.1082982 C10.4020218,26.3445863 10.3439612,26.5705568 10.2278383,26.7862166 C10.1117153,27.0018764 9.90487448,27.2784793 9.60730949,27.6160338 L8.95956454,28.347398 L10.4618974,28.347398 L10.4618974,28.9212377 L8.08864697,28.9212377 Z M12.5738725,29 C12.0694635,29 11.7056776,28.8359135 11.4825039,28.5077356 C11.2593301,28.1795577 11.1477449,27.6779218 11.1477449,27.0028129 C11.1477449,26.3277041 11.2593301,25.8251306 11.4825039,25.4950774 C11.7056776,25.1650241 12.0694635,25 12.5738725,25 C13.0782814,25 13.4420673,25.1650241 13.6652411,25.4950774 C13.8884148,25.8251306 14,26.3277041 14,27.0028129 C14,27.6779218 13.8884148,28.1795577 13.6652411,28.5077356 C13.4420673,28.8359135 13.0782814,29 12.5738725,29 Z M12.5738725,28.3530239 C12.7262838,28.3530239 12.8460338,28.3136432 12.933126,28.2348805 C13.0202182,28.1561177 13.0846291,28.0192227 13.1263608,27.8241913 C13.1680925,27.6291598 13.188958,27.3553698 13.188958,27.0028129 C13.188958,26.6465055 13.1680925,26.366152 13.1263608,26.161744 C13.0846291,25.9573361 13.019311,25.8110647 12.9304044,25.7229255 C12.8414977,25.6347862 12.722655,25.5907173 12.5738725,25.5907173 C12.42509,25.5907173 12.3062472,25.6347862 12.2173406,25.7229255 C12.128434,25.8110647 12.0631158,25.9573361 12.0213841,26.161744 C11.9796525,26.366152 11.9587869,26.6465055 11.9587869,27.0028129 C11.9587869,27.3553698 11.9796525,27.6291598 12.0213841,27.8241913 C12.0631158,28.0192227 12.1275268,28.1561177 12.214619,28.2348805 C12.3017112,28.3136432 12.4214611,28.3530239 12.5738725,28.3530239 Z" id="10-20" fill="#9B9B9B"></path>
                    <path d="M0.0228658537,46.9212377 C0.007621875,46.879981 0,46.8199723 0,46.7412096 C0,46.6249408 0.0171492187,46.5218007 0.0514481707,46.4317862 C0.0857471227,46.3417717 0.144816654,46.248008 0.228658537,46.1504923 L0.988948171,45.2390999 C1.22522984,44.9578045 1.38719468,44.7430856 1.47484756,44.5949367 C1.56250044,44.4467878 1.60632622,44.2977035 1.60632622,44.1476793 C1.60632622,43.9826527 1.55487856,43.8588846 1.45198171,43.7763713 C1.33765187,43.6788556 1.13948312,43.6300985 0.857469512,43.6300985 C0.613565854,43.6300985 0.358233041,43.654477 0.0914634146,43.7032349 L0.0914634146,43.1068917 C0.213415244,43.0768869 0.357278135,43.0515707 0.523056402,43.0309423 C0.68883467,43.010314 0.847941311,43 1.0003811,43 C1.53773135,43 1.92835244,43.1200176 2.1722561,43.3600563 C2.35899484,43.5438359 2.4523628,43.7932474 2.4523628,44.1082982 C2.4523628,44.3445863 2.3913878,44.5705568 2.26943598,44.7862166 C2.14748415,45.0018764 1.93026071,45.2784793 1.61775915,45.6160338 L0.9375,46.347398 L2.5152439,46.347398 L2.5152439,46.9212377 L0.0228658537,46.9212377 Z M4.73323171,47 C4.20350345,47 3.82145696,46.8359135 3.58708079,46.5077356 C3.35270462,46.1795577 3.23551829,45.6779218 3.23551829,45.0028129 C3.23551829,44.3277041 3.35270462,43.8251306 3.58708079,43.4950774 C3.82145696,43.1650241 4.20350345,43 4.73323171,43 C5.26295997,43 5.64500645,43.1650241 5.87938262,43.4950774 C6.11375879,43.8251306 6.23094512,44.3277041 6.23094512,45.0028129 C6.23094512,45.6779218 6.11375879,46.1795577 5.87938262,46.5077356 C5.64500645,46.8359135 5.26295997,47 4.73323171,47 Z M4.73323171,46.3530239 C4.89329348,46.3530239 5.01905442,46.3136432 5.11051829,46.2348805 C5.20198216,46.1561177 5.26962631,46.0192227 5.31345274,45.8241913 C5.35727918,45.6291598 5.37919207,45.3553698 5.37919207,45.0028129 C5.37919207,44.6465055 5.35727918,44.366152 5.31345274,44.161744 C5.26962631,43.9573361 5.20102943,43.8110647 5.10766006,43.7229255 C5.01429069,43.6347862 4.88948249,43.5907173 4.73323171,43.5907173 C4.57698093,43.5907173 4.45217272,43.6347862 4.35880335,43.7229255 C4.26543398,43.8110647 4.19683711,43.9573361 4.15301067,44.161744 C4.10918423,44.366152 4.08727134,44.6465055 4.08727134,45.0028129 C4.08727134,45.3553698 4.10918423,45.6291598 4.15301067,45.8241913 C4.19683711,46.0192227 4.26448125,46.1561177 4.35594512,46.2348805 C4.44740899,46.3136432 4.57316993,46.3530239 4.73323171,46.3530239 Z M6.71112805,45.1265823 L8.0945122,45.1265823 L8.0945122,45.7960619 L6.71112805,45.7960619 L6.71112805,45.1265823 Z M9.80373476,47 C9.45693424,47 9.1425319,46.9699956 8.86051829,46.9099859 L8.86051829,46.302391 C9.12347692,46.3473983 9.38452614,46.3699015 9.64367378,46.3699015 C9.80373556,46.3699015 9.93426017,46.3595875 10.0352515,46.3389592 C10.1362429,46.3183309 10.2210362,46.2855136 10.2896341,46.2405063 C10.4306409,46.1467412 10.5011433,45.9985945 10.5011433,45.7960619 C10.5011433,45.604781 10.4363574,45.4641355 10.3067835,45.374121 C10.2381856,45.3253631 10.1448177,45.2906705 10.0266768,45.2700422 C9.90853599,45.2494139 9.74847662,45.2390999 9.5464939,45.2390999 L9.4378811,45.2390999 L9.4378811,44.676512 L9.57507622,44.676512 C9.75419297,44.676512 9.89519766,44.6643227 9.99809451,44.6399437 C10.1009914,44.6155648 10.1867375,44.5733711 10.2553354,44.5133615 C10.3582322,44.4233469 10.4096799,44.2920777 10.4096799,44.1195499 C10.4096799,43.9620245 10.3658541,43.8457575 10.2782012,43.7707454 C10.1676824,43.6732297 9.96189175,43.6244726 9.66082317,43.6244726 C9.40548653,43.6244726 9.15015372,43.6432253 8.89481707,43.6807314 L8.89481707,43.0843882 C9.15777571,43.0281291 9.4569343,43 9.79230183,43 C10.0438275,43 10.2686728,43.0290668 10.4668445,43.0872011 C10.6650162,43.1453355 10.8231701,43.2325358 10.941311,43.3488045 C11.1204277,43.5250829 11.2099848,43.7613675 11.2099848,44.0576653 C11.2099848,44.4514788 11.0365871,44.7346452 10.6897866,44.907173 C11.128051,45.0646984 11.3471799,45.3816197 11.3471799,45.8579466 C11.3471799,46.1654961 11.2557174,46.4130323 11.0727896,46.6005626 C10.813642,46.8668555 10.3906279,47 9.80373476,47 Z M13.5022866,47 C12.9725583,47 12.5905118,46.8359135 12.3561357,46.5077356 C12.1217595,46.1795577 12.0045732,45.6779218 12.0045732,45.0028129 C12.0045732,44.3277041 12.1217595,43.8251306 12.3561357,43.4950774 C12.5905118,43.1650241 12.9725583,43 13.5022866,43 C14.0320148,43 14.4140613,43.1650241 14.6484375,43.4950774 C14.8828137,43.8251306 15,44.3277041 15,45.0028129 C15,45.6779218 14.8828137,46.1795577 14.6484375,46.5077356 C14.4140613,46.8359135 14.0320148,47 13.5022866,47 Z M13.5022866,46.3530239 C13.6623484,46.3530239 13.7881093,46.3136432 13.8795732,46.2348805 C13.971037,46.1561177 14.0386812,46.0192227 14.0825076,45.8241913 C14.1263341,45.6291598 14.148247,45.3553698 14.148247,45.0028129 C14.148247,44.6465055 14.1263341,44.366152 14.0825076,44.161744 C14.0386812,43.9573361 13.9700843,43.8110647 13.8767149,43.7229255 C13.7833456,43.6347862 13.6585374,43.5907173 13.5022866,43.5907173 C13.3460358,43.5907173 13.2212276,43.6347862 13.1278582,43.7229255 C13.0344889,43.8110647 12.965892,43.9573361 12.9220655,44.161744 C12.8782391,44.366152 12.8563262,44.6465055 12.8563262,45.0028129 C12.8563262,45.3553698 12.8782391,45.6291598 12.9220655,45.8241913 C12.965892,46.0192227 13.0335361,46.1561177 13.125,46.2348805 C13.2164639,46.3136432 13.3422248,46.3530239 13.5022866,46.3530239 Z" id="20-30" fill="#9B9B9B"></path>
                    <path d="M0.949003067,66 C0.600074942,66 0.28374375,65.9699956 0,65.9099859 L0,65.302391 C0.264571875,65.3473983 0.527222623,65.3699015 0.787960123,65.3699015 C0.949003873,65.3699015 1.08032925,65.3595875 1.18194018,65.3389592 C1.28355112,65.3183309 1.36886469,65.2855136 1.43788344,65.2405063 C1.57975531,65.1467412 1.65069018,64.9985945 1.65069018,64.7960619 C1.65069018,64.604781 1.58550679,64.4641355 1.45513804,64.374121 C1.38611929,64.3253631 1.29217851,64.2906705 1.17331288,64.2700422 C1.05444726,64.2494139 0.893405924,64.2390999 0.690184049,64.2390999 L0.580904908,64.2390999 L0.580904908,63.676512 L0.718941718,63.676512 C0.899157343,63.676512 1.04102709,63.6643227 1.14455521,63.6399437 C1.24808334,63.6155648 1.33435548,63.5733711 1.40337423,63.5133615 C1.50690236,63.4233469 1.55866564,63.2920777 1.55866564,63.1195499 C1.55866564,62.9620245 1.51457099,62.8457575 1.42638037,62.7707454 C1.31518349,62.6732297 1.10813035,62.6244726 0.805214724,62.6244726 C0.548311599,62.6244726 0.291412327,62.6432253 0.0345092025,62.6807314 L0.0345092025,62.0843882 C0.299081077,62.0281291 0.600075,62 0.9375,62 C1.19056875,62 1.41679348,62.0290668 1.61618098,62.0872011 C1.81556848,62.1453355 1.97469266,62.2325358 2.09355828,62.3488045 C2.27377391,62.5250829 2.36388037,62.7613675 2.36388037,63.0576653 C2.36388037,63.4514788 2.18941892,63.7346452 1.8404908,63.907173 C2.28144392,64.0646984 2.50191718,64.3816197 2.50191718,64.8579466 C2.50191718,65.1654961 2.40989356,65.4130323 2.22584356,65.6005626 C1.96510606,65.8668555 1.53949682,66 0.949003067,66 Z M4.6702454,66 C4.13726727,66 3.75287695,65.8359135 3.51706288,65.5077356 C3.28124882,65.1795577 3.16334356,64.6779218 3.16334356,64.0028129 C3.16334356,63.3277041 3.28124882,62.8251306 3.51706288,62.4950774 C3.75287695,62.1650241 4.13726727,62 4.6702454,62 C5.20322352,62 5.58761385,62.1650241 5.82342791,62.4950774 C6.05924198,62.8251306 6.17714724,63.3277041 6.17714724,64.0028129 C6.17714724,64.6779218 6.05924198,65.1795577 5.82342791,65.5077356 C5.58761385,65.8359135 5.20322352,66 4.6702454,66 Z M4.6702454,65.3530239 C4.83128915,65.3530239 4.95782163,65.3136432 5.04984663,65.2348805 C5.14187163,65.1561177 5.20993076,65.0192227 5.25402607,64.8241913 C5.29812139,64.6291598 5.32016871,64.3553698 5.32016871,64.0028129 C5.32016871,63.6465055 5.29812139,63.366152 5.25402607,63.161744 C5.20993076,62.9573361 5.14091305,62.8110647 5.04697086,62.7229255 C4.95302867,62.6347862 4.82745477,62.5907173 4.6702454,62.5907173 C4.51303602,62.5907173 4.38746213,62.6347862 4.29351994,62.7229255 C4.19957775,62.8110647 4.13056004,62.9573361 4.08646472,63.161744 C4.04236941,63.366152 4.02032209,63.6465055 4.02032209,64.0028129 C4.02032209,64.3553698 4.04236941,64.6291598 4.08646472,64.8241913 C4.13056004,65.0192227 4.19861917,65.1561177 4.29064417,65.2348805 C4.38266917,65.3136432 4.50920165,65.3530239 4.6702454,65.3530239 Z M6.66027607,64.1265823 L8.05214724,64.1265823 L8.05214724,64.7960619 L6.66027607,64.7960619 L6.66027607,64.1265823 Z M10.3009969,65.0379747 L8.56978528,65.0379747 C8.55444778,64.9854662 8.54677914,64.9198316 8.54677914,64.8410689 C8.54677914,64.6685411 8.58703947,64.4735126 8.66756135,64.2559775 L9.48427914,62.0731364 L10.2779908,62.0731364 L9.3922546,64.4360056 L10.3009969,64.4360056 L10.3009969,63.5189873 L11.1234663,63.5189873 L11.1234663,64.4360056 L11.583589,64.4360056 L11.583589,65.0379747 L11.1234663,65.0379747 L11.1234663,65.9212377 L10.3009969,65.9212377 L10.3009969,65.0379747 Z M13.4930982,66 C12.96012,66 12.5757297,65.8359135 12.3399156,65.5077356 C12.1041016,65.1795577 11.9861963,64.6779218 11.9861963,64.0028129 C11.9861963,63.3277041 12.1041016,62.8251306 12.3399156,62.4950774 C12.5757297,62.1650241 12.96012,62 13.4930982,62 C14.0260763,62 14.4104666,62.1650241 14.6462807,62.4950774 C14.8820947,62.8251306 15,63.3277041 15,64.0028129 C15,64.6779218 14.8820947,65.1795577 14.6462807,65.5077356 C14.4104666,65.8359135 14.0260763,66 13.4930982,66 Z M13.4930982,65.3530239 C13.6541419,65.3530239 13.7806744,65.3136432 13.8726994,65.2348805 C13.9647244,65.1561177 14.0327835,65.0192227 14.0768788,64.8241913 C14.1209741,64.6291598 14.1430215,64.3553698 14.1430215,64.0028129 C14.1430215,63.6465055 14.1209741,63.366152 14.0768788,63.161744 C14.0327835,62.9573361 13.9637658,62.8110647 13.8698236,62.7229255 C13.7758814,62.6347862 13.6503075,62.5907173 13.4930982,62.5907173 C13.3358888,62.5907173 13.2103149,62.6347862 13.1163727,62.7229255 C13.0224305,62.8110647 12.9534128,62.9573361 12.9093175,63.161744 C12.8652222,63.366152 12.8431748,63.6465055 12.8431748,64.0028129 C12.8431748,64.3553698 12.8652222,64.6291598 12.9093175,64.8241913 C12.9534128,65.0192227 13.0214719,65.1561177 13.1134969,65.2348805 C13.2055219,65.3136432 13.3320544,65.3530239 13.4930982,65.3530239 Z" id="30-40" fill="#9B9B9B"></path>
                    <path d="M1.72251506,83.0379747 L0.0225903614,83.0379747 C0.00753004518,82.9854662 0,82.9198316 0,82.8410689 C0,82.6685411 0.0395327372,82.4735126 0.118599398,82.2559775 L0.920557229,80.0731364 L1.6999247,80.0731364 L0.830195783,82.4360056 L1.72251506,82.4360056 L1.72251506,81.5189873 L2.53012048,81.5189873 L2.53012048,82.4360056 L2.98192771,82.4360056 L2.98192771,83.0379747 L2.53012048,83.0379747 L2.53012048,83.9212377 L1.72251506,83.9212377 L1.72251506,83.0379747 Z M4.85692771,84 C4.33358172,84 3.95613821,83.8359135 3.72458584,83.5077356 C3.49303348,83.1795577 3.37725904,82.6779218 3.37725904,82.0028129 C3.37725904,81.3277041 3.49303348,80.8251306 3.72458584,80.4950774 C3.95613821,80.1650241 4.33358172,80 4.85692771,80 C5.3802737,80 5.75771722,80.1650241 5.98926958,80.4950774 C6.22082194,80.8251306 6.33659639,81.3277041 6.33659639,82.0028129 C6.33659639,82.6779218 6.22082194,83.1795577 5.98926958,83.5077356 C5.75771722,83.8359135 5.3802737,84 4.85692771,84 Z M4.85692771,83.3530239 C5.01506103,83.3530239 5.13930678,83.3136432 5.22966867,83.2348805 C5.32003057,83.1561177 5.38685972,83.0192227 5.43015813,82.8241913 C5.47345654,82.6291598 5.49510542,82.3553698 5.49510542,82.0028129 C5.49510542,81.6465055 5.47345654,81.366152 5.43015813,81.161744 C5.38685972,80.9573361 5.31908932,80.8110647 5.22684488,80.7229255 C5.13460044,80.6347862 5.01129595,80.5907173 4.85692771,80.5907173 C4.70255947,80.5907173 4.57925498,80.6347862 4.48701054,80.7229255 C4.39476611,80.8110647 4.3269957,80.9573361 4.28369729,81.161744 C4.24039888,81.366152 4.21875,81.6465055 4.21875,82.0028129 C4.21875,82.3553698 4.24039888,82.6291598 4.28369729,82.8241913 C4.3269957,83.0192227 4.39382485,83.1561177 4.48418675,83.2348805 C4.57454864,83.3136432 4.69879439,83.3530239 4.85692771,83.3530239 Z M6.81099398,82.1265823 L8.17771084,82.1265823 L8.17771084,82.7960619 L6.81099398,82.7960619 L6.81099398,82.1265823 Z M9.92846386,84 C9.59337182,84 9.2902875,83.9699956 9.01920181,83.9099859 L9.01920181,83.3080169 C9.23381131,83.3492735 9.47100774,83.3699015 9.73079819,83.3699015 C10.0470648,83.3699015 10.2701424,83.3173939 10.4000377,83.2123769 C10.5299329,83.10736 10.5948795,82.9535875 10.5948795,82.7510549 C10.5948795,82.6085319 10.5741719,82.4932025 10.532756,82.4050633 C10.4913402,82.3169241 10.4160397,82.2503518 10.3068524,82.2053446 C10.1976651,82.1603373 10.0414167,82.137834 9.83810241,82.137834 L9.05308735,82.137834 C9.0267318,82.0365677 9.01731924,81.8921716 9.0248494,81.7046414 L9.09262048,80.0731364 L11.2048193,80.0731364 L11.2048193,80.6469761 L9.7872741,80.6469761 L9.75338855,81.5133615 L9.95670181,81.5133615 C10.4612224,81.5133615 10.8330184,81.6118134 11.0721009,81.8087201 C11.3111834,82.0056269 11.4307229,82.3084837 11.4307229,82.7172996 C11.4307229,83.1373673 11.3111834,83.4561639 11.0721009,83.673699 C10.8330184,83.8912341 10.4518098,84 9.92846386,84 Z M13.5203313,84 C12.9969853,84 12.6195418,83.8359135 12.3879895,83.5077356 C12.1564371,83.1795577 12.0406627,82.6779218 12.0406627,82.0028129 C12.0406627,81.3277041 12.1564371,80.8251306 12.3879895,80.4950774 C12.6195418,80.1650241 12.9969853,80 13.5203313,80 C14.0436773,80 14.4211208,80.1650241 14.6526732,80.4950774 C14.8842256,80.8251306 15,81.3277041 15,82.0028129 C15,82.6779218 14.8842256,83.1795577 14.6526732,83.5077356 C14.4211208,83.8359135 14.0436773,84 13.5203313,84 Z M13.5203313,83.3530239 C13.6784646,83.3530239 13.8027104,83.3136432 13.8930723,83.2348805 C13.9834342,83.1561177 14.0502633,83.0192227 14.0935617,82.8241913 C14.1368602,82.6291598 14.158509,82.3553698 14.158509,82.0028129 C14.158509,81.6465055 14.1368602,81.366152 14.0935617,81.161744 C14.0502633,80.9573361 13.9824929,80.8110647 13.8902485,80.7229255 C13.7980041,80.6347862 13.6746996,80.5907173 13.5203313,80.5907173 C13.3659631,80.5907173 13.2426586,80.6347862 13.1504142,80.7229255 C13.0581697,80.8110647 12.9903993,80.9573361 12.9471009,81.161744 C12.9038025,81.366152 12.8821536,81.6465055 12.8821536,82.0028129 C12.8821536,82.3553698 12.9038025,82.6291598 12.9471009,82.8241913 C12.9903993,83.0192227 13.0572285,83.1561177 13.1475904,83.2348805 C13.2379523,83.3136432 13.362198,83.3530239 13.5203313,83.3530239 Z" id="40-50" fill="#9B9B9B"></path>
                    <path d="M0.869263401,103 C0.54891214,103 0.259160571,102.969996 0,102.909986 L0,102.308017 C0.205168785,102.349274 0.431930883,102.369902 0.680293097,102.369902 C0.982647096,102.369902 1.19591145,102.317394 1.32009256,102.212377 C1.44427366,102.10736 1.50636329,101.953588 1.50636329,101.751055 C1.50636329,101.608532 1.48656659,101.493203 1.44697262,101.405063 C1.40737864,101.316924 1.33539067,101.250352 1.23100656,101.205345 C1.12662244,101.160337 0.977247405,101.137834 0.782876976,101.137834 L0.0323949094,101.137834 C0.00719874277,101.036568 -0.00179975318,100.892172 0.00539915156,100.704641 L0.0701889703,99.0731364 L2.08947165,99.0731364 L2.08947165,99.6469761 L0.734284612,99.6469761 L0.701889703,100.513361 L0.896259159,100.513361 C1.37858578,100.513361 1.73402637,100.611813 1.96259159,100.80872 C2.19115682,101.005627 2.30543772,101.308484 2.30543772,101.7173 C2.30543772,102.137367 2.19115682,102.456164 1.96259159,102.673699 C1.73402637,102.891234 1.36958728,103 0.869263401,103 Z M4.30312379,103 C3.80279992,103 3.44196023,102.835914 3.22059391,102.507736 C2.99922759,102.179558 2.88854609,101.677922 2.88854609,101.002813 C2.88854609,100.327704 2.99922759,99.8251306 3.22059391,99.4950774 C3.44196023,99.1650241 3.80279992,99 4.30312379,99 C4.80344767,99 5.16428736,99.1650241 5.38565368,99.4950774 C5.60702,99.8251306 5.7177015,100.327704 5.7177015,101.002813 C5.7177015,101.677922 5.60702,102.179558 5.38565368,102.507736 C5.16428736,102.835914 4.80344767,103 4.30312379,103 Z M4.30312379,102.353024 C4.45430079,102.353024 4.57308094,102.313643 4.6594678,102.23488 C4.74585465,102.156118 4.80974398,102.019223 4.85113768,101.824191 C4.89253138,101.62916 4.91322792,101.35537 4.91322792,101.002813 C4.91322792,100.646505 4.89253138,100.366152 4.85113768,100.161744 C4.80974398,99.9573361 4.74495481,99.8110647 4.65676822,99.7229255 C4.56858164,99.6347862 4.45070134,99.5907173 4.30312379,99.5907173 C4.15554625,99.5907173 4.03766595,99.6347862 3.94947937,99.7229255 C3.86129278,99.8110647 3.79650361,99.9573361 3.75510991,100.161744 C3.71371621,100.366152 3.69301967,100.646505 3.69301967,101.002813 C3.69301967,101.35537 3.71371621,101.62916 3.75510991,101.824191 C3.79650361,102.019223 3.86039293,102.156118 3.94677979,102.23488 C4.03316665,102.313643 4.1519468,102.353024 4.30312379,102.353024 Z M6.17123024,101.126582 L7.47782491,101.126582 L7.47782491,101.796062 L6.17123024,101.796062 L6.17123024,101.126582 Z M9.40532202,103 C8.92659486,103 8.58285231,102.847165 8.37408407,102.541491 C8.16531583,102.235817 8.06093328,101.781063 8.06093328,101.177215 C8.06093328,100.322077 8.22830531,99.7201143 8.56305438,99.371308 C8.68543576,99.2437875 8.83481079,99.1500237 9.01118396,99.0900141 C9.18755712,99.0300044 9.39992163,99 9.64828384,99 C9.8858477,99 10.1396053,99.0243786 10.4095642,99.0731364 L10.4095642,99.6863572 C10.200796,99.6488512 10.0064285,99.6300985 9.82645584,99.6300985 C9.64288377,99.6300985 9.49440859,99.6451006 9.38102584,99.6751055 C9.26764309,99.7051103 9.17495858,99.757618 9.10296953,99.8326301 C9.02378158,99.9151434 8.96709106,100.022034 8.93289626,100.153305 C8.89870146,100.284576 8.87800492,100.451476 8.87080602,100.654008 C8.98598849,100.590248 9.11466698,100.541491 9.25684535,100.507736 C9.39902372,100.47398 9.53670071,100.457103 9.66988045,100.457103 C10.0010301,100.457103 10.2574872,100.56118 10.4392595,100.769339 C10.6210319,100.977498 10.7119167,101.272853 10.7119167,101.655415 C10.7119167,102.086734 10.6003353,102.418658 10.3771693,102.651195 C10.1540033,102.883733 9.8300574,103 9.40532202,103 Z M9.42151948,102.386779 C9.77066636,102.386779 9.94523718,102.15237 9.94523718,101.683544 C9.94523718,101.443506 9.90474395,101.280357 9.82375627,101.194093 C9.74276859,101.107829 9.6014922,101.064698 9.39992287,101.064698 C9.32073492,101.064698 9.22985011,101.070323 9.12726572,101.081575 C9.02468132,101.092827 8.93559621,101.105954 8.86000771,101.120956 L8.86000771,101.33474 C8.86000771,101.7098 8.90140079,101.978902 8.9841882,102.142053 C9.0669756,102.305205 9.21275124,102.386779 9.42151948,102.386779 Z M12.5854223,103 C12.0850984,103 11.7242587,102.835914 11.5028924,102.507736 C11.2815261,102.179558 11.1708446,101.677922 11.1708446,101.002813 C11.1708446,100.327704 11.2815261,99.8251306 11.5028924,99.4950774 C11.7242587,99.1650241 12.0850984,99 12.5854223,99 C13.0857462,99 13.4465859,99.1650241 13.6679522,99.4950774 C13.8893185,99.8251306 14,100.327704 14,101.002813 C14,101.677922 13.8893185,102.179558 13.6679522,102.507736 C13.4465859,102.835914 13.0857462,103 12.5854223,103 Z M12.5854223,102.353024 C12.7365993,102.353024 12.8553794,102.313643 12.9417663,102.23488 C13.0281532,102.156118 13.0920425,102.019223 13.1334362,101.824191 C13.1748299,101.62916 13.1955264,101.35537 13.1955264,101.002813 C13.1955264,100.646505 13.1748299,100.366152 13.1334362,100.161744 C13.0920425,99.9573361 13.0272533,99.8110647 12.9390667,99.7229255 C12.8508801,99.6347862 12.7329998,99.5907173 12.5854223,99.5907173 C12.4378447,99.5907173 12.3199644,99.6347862 12.2317779,99.7229255 C12.1435913,99.8110647 12.0788021,99.9573361 12.0374084,100.161744 C11.9960147,100.366152 11.9753182,100.646505 11.9753182,101.002813 C11.9753182,101.35537 11.9960147,101.62916 12.0374084,101.824191 C12.0788021,102.019223 12.1426914,102.156118 12.2290783,102.23488 C12.3154651,102.313643 12.4342453,102.353024 12.5854223,102.353024 Z" id="50-60" fill="#9B9B9B"></path>
                    <path d="M1.41799544,122 C0.91305746,122 0.550494647,121.847165 0.330296128,121.541491 C0.110097608,121.235817 0,120.781063 0,120.177215 C0,119.322077 0.17653582,118.720114 0.529612756,118.371308 C0.658694647,118.243787 0.816248121,118.150024 1.0022779,118.090014 C1.18830769,118.030004 1.41229937,118 1.67425968,118 C1.92483041,118 2.19248149,118.024379 2.47722096,118.073136 L2.47722096,118.686357 C2.25702244,118.648851 2.0520131,118.630098 1.86218679,118.630098 C1.66856395,118.630098 1.5119596,118.645101 1.39236902,118.675105 C1.27277845,118.70511 1.17501936,118.757618 1.09908884,118.83263 C1.01556526,118.915143 0.955770871,119.022034 0.919703872,119.153305 C0.883636874,119.284576 0.861807175,119.451476 0.854214123,119.654008 C0.975702961,119.590248 1.11142674,119.541491 1.26138952,119.507736 C1.41135231,119.47398 1.55656726,119.457103 1.69703872,119.457103 C2.04631913,119.457103 2.31681757,119.56118 2.50854214,119.769339 C2.70026671,119.977498 2.79612756,120.272853 2.79612756,120.655415 C2.79612756,121.086734 2.67843702,121.418658 2.44305239,121.651195 C2.20766777,121.883733 1.86598554,122 1.41799544,122 Z M1.43507973,121.386779 C1.80334277,121.386779 1.98747153,121.15237 1.98747153,120.683544 C1.98747153,120.443506 1.94476125,120.280357 1.85933941,120.194093 C1.77391757,120.107829 1.62490615,120.064698 1.41230068,120.064698 C1.32877711,120.064698 1.23291626,120.070323 1.12471526,120.081575 C1.01651427,120.092827 0.922551651,120.105954 0.842824601,120.120956 L0.842824601,120.33474 C0.842824601,120.7098 0.886483998,120.978902 0.9738041,121.142053 C1.0611242,121.305205 1.21488121,121.386779 1.43507973,121.386779 Z M4.77220957,122 C4.24449243,122 3.86389638,121.835914 3.63041002,121.507736 C3.39692366,121.179558 3.28018223,120.677922 3.28018223,120.002813 C3.28018223,119.327704 3.39692366,118.825131 3.63041002,118.495077 C3.86389638,118.165024 4.24449243,118 4.77220957,118 C5.29992671,118 5.68052275,118.165024 5.91400911,118.495077 C6.14749547,118.825131 6.2642369,119.327704 6.2642369,120.002813 C6.2642369,120.677922 6.14749547,121.179558 5.91400911,121.507736 C5.68052275,121.835914 5.29992671,122 4.77220957,122 Z M4.77220957,121.353024 C4.93166367,121.353024 5.05694715,121.313643 5.14806378,121.23488 C5.23918041,121.156118 5.30656774,121.019223 5.35022779,120.824191 C5.39388784,120.62916 5.41571754,120.35537 5.41571754,120.002813 C5.41571754,119.646505 5.39388784,119.366152 5.35022779,119.161744 C5.30656774,118.957336 5.23823129,118.811065 5.1452164,118.722925 C5.05220151,118.634786 4.92786714,118.590717 4.77220957,118.590717 C4.61655199,118.590717 4.49221763,118.634786 4.39920273,118.722925 C4.30618784,118.811065 4.2378514,118.957336 4.19419134,119.161744 C4.15053129,119.366152 4.12870159,119.646505 4.12870159,120.002813 C4.12870159,120.35537 4.15053129,120.62916 4.19419134,120.824191 C4.2378514,121.019223 4.30523872,121.156118 4.39635535,121.23488 C4.48747198,121.313643 4.61275547,121.353024 4.77220957,121.353024 Z M6.74259681,120.126582 L8.12072893,120.126582 L8.12072893,120.796062 L6.74259681,120.796062 L6.74259681,120.126582 Z M10.6719818,118.646976 L8.85535308,118.646976 L8.85535308,118.073136 L11.3952164,118.073136 C11.4217921,118.114393 11.4350797,118.191279 11.4350797,118.303797 C11.4350797,118.50633 11.404708,118.690107 11.3439636,118.855134 L10.2505695,121.921238 L9.37927107,121.921238 L10.6719818,118.646976 Z M13.5079727,122 C12.9802555,122 12.5996595,121.835914 12.3661731,121.507736 C12.1326868,121.179558 12.0159453,120.677922 12.0159453,120.002813 C12.0159453,119.327704 12.1326868,118.825131 12.3661731,118.495077 C12.5996595,118.165024 12.9802555,118 13.5079727,118 C14.0356898,118 14.4162858,118.165024 14.6497722,118.495077 C14.8832586,118.825131 15,119.327704 15,120.002813 C15,120.677922 14.8832586,121.179558 14.6497722,121.507736 C14.4162858,121.835914 14.0356898,122 13.5079727,122 Z M13.5079727,121.353024 C13.6674268,121.353024 13.7927103,121.313643 13.8838269,121.23488 C13.9749435,121.156118 14.0423308,121.019223 14.0859909,120.824191 C14.1296509,120.62916 14.1514806,120.35537 14.1514806,120.002813 C14.1514806,119.646505 14.1296509,119.366152 14.0859909,119.161744 C14.0423308,118.957336 13.9739944,118.811065 13.8809795,118.722925 C13.7879646,118.634786 13.6636302,118.590717 13.5079727,118.590717 C13.3523151,118.590717 13.2279807,118.634786 13.1349658,118.722925 C13.0419509,118.811065 12.9736145,118.957336 12.9299544,119.161744 C12.8862944,119.366152 12.8644647,119.646505 12.8644647,120.002813 C12.8644647,120.35537 12.8862944,120.62916 12.9299544,120.824191 C12.9736145,121.019223 13.0410018,121.156118 13.1321185,121.23488 C13.2232351,121.313643 13.3485186,121.353024 13.5079727,121.353024 Z" id="60-70" fill="#9B9B9B"></path>
                    <path d="M1.83122847,136.646976 L0,136.646976 L0,136.073136 L2.56027555,136.073136 C2.58706481,136.114393 2.60045924,136.191279 2.60045924,136.303797 C2.60045924,136.50633 2.5698434,136.690107 2.50861079,136.855134 L1.40642939,139.921238 L0.528128588,139.921238 L1.83122847,136.646976 Z M4.69001148,140 C4.15805321,140 3.77439842,139.835914 3.53903559,139.507736 C3.30367276,139.179558 3.18599311,138.677922 3.18599311,138.002813 C3.18599311,137.327704 3.30367276,136.825131 3.53903559,136.495077 C3.77439842,136.165024 4.15805321,136 4.69001148,136 C5.22196975,136 5.60562454,136.165024 5.84098737,136.495077 C6.0763502,136.825131 6.19402985,137.327704 6.19402985,138.002813 C6.19402985,138.677922 6.0763502,139.179558 5.84098737,139.507736 C5.60562454,139.835914 5.22196975,140 4.69001148,140 Z M4.69001148,139.353024 C4.85074707,139.353024 4.97703743,139.313643 5.06888634,139.23488 C5.16073525,139.156118 5.22866415,139.019223 5.27267509,138.824191 C5.31668602,138.62916 5.33869116,138.35537 5.33869116,138.002813 C5.33869116,137.646505 5.31668602,137.366152 5.27267509,137.161744 C5.22866415,136.957336 5.1597785,136.811065 5.06601607,136.722925 C4.97225365,136.634786 4.84692003,136.590717 4.69001148,136.590717 C4.53310293,136.590717 4.40776932,136.634786 4.31400689,136.722925 C4.22024446,136.811065 4.15135881,136.957336 4.10734788,137.161744 C4.06333694,137.366152 4.0413318,137.646505 4.0413318,138.002813 C4.0413318,138.35537 4.06333694,138.62916 4.10734788,138.824191 C4.15135881,139.019223 4.21928772,139.156118 4.31113662,139.23488 C4.40298553,139.313643 4.52927589,139.353024 4.69001148,139.353024 Z M6.67623421,138.126582 L8.06544202,138.126582 L8.06544202,138.796062 L6.67623421,138.796062 L6.67623421,138.126582 Z M10.0344432,140 C9.73210718,140 9.47761297,139.954993 9.27095293,139.864979 C9.06429288,139.774964 8.90834343,139.651196 8.80309989,139.493671 C8.69785634,139.336145 8.64523536,139.157994 8.64523536,138.959212 C8.64523536,138.527893 8.86528674,138.19972 9.3053961,137.974684 C9.11787124,137.858415 8.98297018,137.729021 8.90068886,137.586498 C8.81840755,137.443975 8.77726751,137.2752 8.77726751,137.080169 C8.77726751,136.862634 8.82988849,136.672293 8.93513203,136.509142 C9.04037557,136.345991 9.18867107,136.220347 9.38002296,136.132208 C9.57137486,136.044069 9.79333972,136 10.0459242,136 C10.428628,136 10.7300027,136.088138 10.9500574,136.264416 C11.1701121,136.440695 11.2801378,136.676979 11.2801378,136.973277 C11.2801378,137.149555 11.2294303,137.31458 11.1280138,137.468354 C11.0265973,137.622129 10.8897827,137.751523 10.717566,137.85654 C10.9854587,137.987811 11.1758509,138.129394 11.2887486,138.281294 C11.4016462,138.433193 11.4580941,138.627284 11.4580941,138.863572 C11.4580941,139.21988 11.3327605,139.498358 11.0820896,139.699015 C10.8314186,139.899673 10.4822066,140 10.0344432,140 Z M10.1664753,137.603376 C10.2812865,137.517112 10.3712205,137.426161 10.4362801,137.33052 C10.5013398,137.23488 10.5338691,137.140179 10.5338691,137.046414 C10.5338691,136.915142 10.4908156,136.809189 10.4047072,136.728551 C10.3185989,136.647913 10.1970923,136.607595 10.0401837,136.607595 C9.8985833,136.607595 9.78090365,136.642288 9.68714122,136.711674 C9.59337879,136.78106 9.54649828,136.879512 9.54649828,137.007032 C9.54649828,137.11955 9.58668157,137.218002 9.66704937,137.302391 C9.74741716,137.38678 9.88518846,137.47398 10.0803674,137.563994 L10.1664753,137.603376 Z M10.0459242,139.375527 C10.2334491,139.375527 10.3798311,139.333334 10.4850746,139.248945 C10.5903182,139.164557 10.6429392,139.056728 10.6429392,138.925457 C10.6429392,138.809188 10.6027559,138.708861 10.5223881,138.624473 C10.4420203,138.540084 10.2908545,138.447258 10.0688863,138.345992 L9.8163031,138.233474 C9.70149196,138.33099 9.61251467,138.436005 9.54936854,138.548523 C9.48622242,138.661041 9.45464983,138.775433 9.45464983,138.891702 C9.45464983,139.041726 9.50631406,139.159868 9.60964409,139.246132 C9.71297411,139.332396 9.85839937,139.375527 10.0459242,139.375527 Z M13.4959816,140 C12.9640234,140 12.5803686,139.835914 12.3450057,139.507736 C12.1096429,139.179558 11.9919633,138.677922 11.9919633,138.002813 C11.9919633,137.327704 12.1096429,136.825131 12.3450057,136.495077 C12.5803686,136.165024 12.9640234,136 13.4959816,136 C14.0279399,136 14.4115947,136.165024 14.6469575,136.495077 C14.8823204,136.825131 15,137.327704 15,138.002813 C15,138.677922 14.8823204,139.179558 14.6469575,139.507736 C14.4115947,139.835914 14.0279399,140 13.4959816,140 Z M13.4959816,139.353024 C13.6567172,139.353024 13.7830076,139.313643 13.8748565,139.23488 C13.9667054,139.156118 14.0346343,139.019223 14.0786452,138.824191 C14.1226562,138.62916 14.1446613,138.35537 14.1446613,138.002813 C14.1446613,137.646505 14.1226562,137.366152 14.0786452,137.161744 C14.0346343,136.957336 13.9657487,136.811065 13.8719862,136.722925 C13.7782238,136.634786 13.6528902,136.590717 13.4959816,136.590717 C13.3390731,136.590717 13.2137395,136.634786 13.119977,136.722925 C13.0262146,136.811065 12.957329,136.957336 12.913318,137.161744 C12.8693071,137.366152 12.847302,137.646505 12.847302,138.002813 C12.847302,138.35537 12.8693071,138.62916 12.913318,138.824191 C12.957329,139.019223 13.0252579,139.156118 13.1171068,139.23488 C13.2089557,139.313643 13.335246,139.353024 13.4959816,139.353024 Z" id="70-80" fill="#9B9B9B"></path>
                </g>
            </g>
        </g>
    </g>
</svg>
