
<svg width="214px" height="139px" viewBox="0 0 214 139" version="1.1" xmlns="http://www.w3.org/2000/svg" xmlns:xlink="http://www.w3.org/1999/xlink">
    <!-- Generator: Sketch 49.1 (51147) - http://www.bohemiancoding.com/sketch -->
    <desc>Created with Sketch.</desc>
    <defs></defs>
    <g id="Page-1" stroke="none" stroke-width="1" fill="none" fill-rule="evenodd">
        <g id="Desktop" transform="translate(-172.000000, -1950.000000)">
            <g id="Sankey" transform="translate(172.000000, 1950.000000)">
                <g>
                    <path d="M10.2987942,8.56419121 C55.8799208,2.8547304 86.3081073,1.88529473e-13 101.583354,0 C124.496224,-2.82777479e-13 168.750251,6.0910427 176.052604,6.74401219 C180.920839,7.17932518 190.158492,7.50424151 203.765564,7.71876116 L204.237124,20.3021602 C193.697862,20.4140747 183.064914,20.0624446 172.33828,19.2472699 C161.611646,18.4320952 149.138901,17.2859329 134.920044,15.808783 C157.657051,19.8113959 172.16383,22.305794 178.440383,23.2919773 C187.855212,24.7712522 195.560374,25.7171624 203.186791,25.1400843 C208.27107,24.7553656 208.27107,28.9138088 203.186791,37.615414 C190.54,38.7292972 172.322127,37.4235606 148.533173,33.6982042 C129.256201,30.6794254 114.293851,28.4166802 101.583354,28.2167211 C90.7655633,28.0465378 81.5809944,29.6106963 72.7335933,30.8981156 C59.9050837,32.7648414 45.9328588,34.2612171 30.8169187,35.3872429 L7,35.3872429 L10.2987942,8.56419121 Z" id="Path-17" fill="#99DDFF"></path>
                    <path d="M8.58669625,34.3523063 C42.0602601,33.7554986 63.9034728,32.9600188 74.1163345,31.9658669 C89.4356271,30.4746391 115.402729,30.8987961 124.147578,31.9658669 C129.924502,32.6707833 159.987835,37.2416492 182.891904,39.9153222 C194.658989,41.2889358 205.099382,41.7846997 208.211878,41.7846997 C214.325759,41.7846997 213.038966,47.8564665 204.351499,60 C169.839021,53.7052219 149.519791,50.0444317 143.393808,49.0176296 C134.204835,47.4774263 125.287388,45.1892346 101.396601,45.1892346 C77.5058142,45.1892346 13.7600887,49.1782039 8.58669625,47.2687613 C5.13776792,45.9957995 5.13776792,41.6903146 8.58669625,34.3523063 Z" id="Path-18" fill="#99DDFF"></path>
                    <path d="M7.28292114,69 C28.4556486,74.5335059 43.5871004,77.3002588 52.6772766,77.3002588 C80.1267645,77.3002588 92.6406788,75.8078805 99.8821508,75.8078805 C111.78613,75.8078805 199.563136,82.9210064 203.854379,80.3907935 C206.715207,78.7039849 206.715207,85.5737204 203.854379,101 C151.722519,98.5431266 117.06511,97.3146899 99.8821508,97.3146899 C64.37031,97.3146899 52.1471875,93.3622145 41.5441539,93.3622145 C23.7861241,93.3622145 11.2714061,93.0938403 4,92.5570919 L7.28292114,69 Z" id="Path-21" fill="#99DDFF"></path>
                    <path d="M10.5440209,52.2399757 C40.4304694,50.6381004 58.9034879,49.6121205 65.9630762,49.1620361 C76.5524588,48.4869095 108.969853,47.3419112 119.832745,48.4869095 C130.695638,49.6319077 177.394043,56.2966421 184.872591,56.2966421 C189.858289,56.2966421 197.567426,57.1538895 208,58.8683844 L203.509856,70 C173.621196,64.5844172 155.332729,61.3324293 148.644454,60.2440361 C138.612042,58.6114464 118.868978,53.7331691 91.1078842,55.0149056 C63.3467907,56.2966421 15.2802335,63.5092155 8.07549697,61.8766258 C3.27233928,60.7882327 4.09518058,57.576016 10.5440209,52.2399757 Z" id="Path-19" fill="#99DDFF"></path>
                    <path d="M9.68012242,60.3146155 C22.9994523,59.0852002 34.269423,61.4589019 43.4900346,67.4357207 C57.3209519,76.4009488 74.1943099,99.8589211 96.1155315,100.682407 C110.729679,101.231398 147.024502,99.9972303 205,96.9799054 L204.712909,109.589096 C140.226408,113.4476 105.426022,115.242486 100.311752,114.973753 C92.640348,114.570655 81.0044418,116.77147 58.0137015,96.9799054 C35.0229612,77.1883408 19.0403673,70.9328815 9.68012242,72.0320759 C3.43995919,72.7648721 3.43995919,68.859052 9.68012242,60.3146155 Z" id="Path-20" fill="#99DDFF"></path>
                    <path d="M60.8793263,81.1046133 C71.3912935,90.3394947 83.0444618,100.122929 96.5051059,100.448121 C106.8766,100.698682 103.598598,103.983796 103.184395,107.418235 C102.738991,111.111377 104.628654,114.9625 101.361427,114.9625 C95.0558404,114.9625 81.1036819,116.69449 58.0608136,96.6170653 C50.6608137,90.1693896 52.5838859,93.0830732 52.1171663,90.1555634 C51.1305672,83.9670969 56.5762801,77.3243388 60.8793263,81.1046133 Z" id="Path-20" stroke="#FFFFFF"></path>
                    <path d="M10.9301642,97.1121562 C20.5095648,97.9497213 36.8378413,89.5014988 59.9149937,71.7674886 C76.416998,59.086257 92.2898944,58 102.660863,58 C113.031831,58 120.841958,58.6303295 127.40335,59.4591098 C139.942315,61.0429272 201.322564,67.4933347 208.175297,71.1550154 C212.743785,73.5961358 211.770695,78.2666427 205.256026,85.1665362 C152.157925,76.2338378 117.728655,71.7674886 101.968216,71.7674886 C78.3275574,71.7674886 69.6882065,84.0265226 49.0731946,97.5643337 C35.3298533,106.589541 21.9721218,110.702203 9,109.902319 L10.9301642,97.1121562 Z" id="Path-22" fill="#99DDFF"></path>
                    <path d="M10.9349854,97.1121562 C20.3387659,97.9497213 36.6080535,89.5014988 59.7428482,71.7674886 C76.2860714,59.086257 95.5373406,58 102.89481,58 C107.534571,58 102.913704,61.7762295 102.200432,65.8209958 C101.782639,68.1901887 110.954648,71.7674886 102.200432,71.7674886 C78.5007243,71.7674886 69.839794,84.0265226 49.1732897,97.5643337 C35.3956202,106.589541 22.0045236,110.702203 9,109.902319 L10.9349854,97.1121562 Z" id="Path-22" stroke="#FFFFFF"></path>
                    <path d="M10.3205554,110.435262 C34.3995616,110.97052 52.7307573,112.393311 65.3141423,114.703636 C75.7811178,116.625386 87.9278164,117.814406 99.8665497,118.073405 C109.456912,118.281459 136.336035,116.472587 152.236878,114.703636 C176.740155,111.977674 202.706137,106.420527 208.020916,108.427895 C213.335695,110.435262 211.249472,117.216789 204.063828,117.451689 C196.878184,117.686589 172.547574,120.497465 154.218292,122.341779 C135.889009,124.186094 120.475364,125.316597 99.3132038,124.921344 C87.3440652,124.697792 64.6082413,121.382716 44.7421774,118.965669 C29.4838399,117.109232 15.692421,117.579369 10.3205554,117.451689 C-3.45828759,117.12419 3.69961271,114.740882 5.14169636,113.172143 C5.85391016,112.397376 7.5801965,111.485083 10.3205554,110.435262 Z" id="Path" fill="#99DDFF"></path>
                    <rect id="Rectangle-9" fill="#00AAEE" x="0" y="8" width="12" height="41"></rect>
                    <rect id="Rectangle-9-Copy-4" fill="#00AAEE" x="202" y="24" width="12" height="13"></rect>
                    <rect id="Rectangle-9-Copy-5" fill="#00AAEE" x="202" y="7" width="12" height="13"></rect>
                    <rect id="Rectangle-9-Copy-7" fill="#00AAEE" x="96" y="31" width="12" height="15"></rect>
                    <rect id="Rectangle-9-Copy-8" fill="#00AAEE" x="96" y="48" width="12" height="7"></rect>
                    <rect id="Rectangle-9-Copy-9" fill="#00AAEE" x="96" y="58" width="12" height="15"></rect>
                    <rect id="Rectangle-9-Copy-10" fill="#00AAEE" x="96" y="75" width="12" height="22"></rect>
                    <rect id="Rectangle-9-Copy-11" fill="#00AAEE" x="96" y="100" width="12" height="15"></rect>
                    <rect id="Rectangle-9-Copy-12" fill="#00AAEE" x="96" y="118" width="12" height="7"></rect>
                    <rect id="Rectangle-9-Copy-6" fill="#00AAEE" x="96" y="0" width="12" height="28"></rect>
                    <rect id="Rectangle-9-Copy" fill="#00AAEE" x="0" y="53" width="12" height="41"></rect>
                    <rect id="Rectangle-9-Copy-2" fill="#00AAEE" x="0" y="97" width="12" height="20"></rect>
                    <rect id="Rectangle-9-Copy-3" fill="#00AAEE" x="202" y="41" width="12" height="76"></rect>
                    <path d="M4.76697531,133 L6.0941358,133 L8,139 L6.71141975,139 L6.27160494,137.491228 L4.55864198,137.491228 L4.14969136,139 L3,139 L4.76697531,133 Z M5.97839506,136.5 L5.39969136,134.5 L5.38425926,134.5 L4.83641975,136.5 L5.97839506,136.5 Z" id="A" fill="#9B9B9B"></path>
                    <path d="M99,133 L100.725338,133 C101.096714,133 101.404899,133.036549 101.649903,133.109649 C101.894908,133.182749 102.094777,133.295321 102.249516,133.447368 C102.4971,133.692984 102.62089,134.035086 102.62089,134.473684 C102.62089,134.777779 102.558995,135.036549 102.435203,135.25 C102.311411,135.463451 102.125727,135.64035 101.878143,135.780702 C102.213412,135.833334 102.484203,135.989765 102.690522,136.25 C102.896842,136.510235 103,136.833331 103,137.219298 C103,137.780705 102.853,138.210525 102.558994,138.508772 C102.388781,138.678363 102.169569,138.802631 101.901354,138.881579 C101.633139,138.960527 101.292716,139 100.880077,139 L99,139 L99,133 Z M100.617021,135.385965 C100.787235,135.385965 100.92263,135.372807 101.023211,135.346491 C101.123792,135.320175 101.205029,135.27193 101.266925,135.201754 C101.370084,135.084795 101.421663,134.906434 101.421663,134.666667 C101.421663,134.444443 101.372663,134.277778 101.274662,134.166667 C101.217924,134.102339 101.140555,134.057018 101.042553,134.030702 C100.944551,134.004386 100.813025,133.991228 100.647969,133.991228 L100.206963,133.991228 L100.206963,135.385965 L100.617021,135.385965 Z M100.702128,138.008772 C100.934237,138.008772 101.119922,137.99269 101.259188,137.960526 C101.398453,137.928362 101.50419,137.871345 101.576402,137.789474 C101.689878,137.660818 101.746615,137.479533 101.746615,137.245614 C101.746615,136.929823 101.679562,136.707603 101.545455,136.578947 C101.468085,136.502924 101.364926,136.450293 101.235977,136.421053 C101.107027,136.391813 100.929079,136.377193 100.702128,136.377193 L100.206963,136.377193 L100.206963,138.008772 L100.702128,138.008772 Z" id="B" fill="#9B9B9B"></path>
                    <path d="M208.596078,139 C208.130717,139 207.741178,138.942335 207.427451,138.827004 C207.113724,138.711673 206.854903,138.535866 206.65098,138.299578 C206.426143,138.040786 206.261438,137.724334 206.156863,137.350211 C206.052287,136.976088 206,136.533055 206,136.021097 C206,135.075945 206.211763,134.336149 206.635294,133.801688 C207.058826,133.267227 207.712414,133 208.596078,133 C208.826145,133 209.074508,133.025316 209.341176,133.075949 C209.607844,133.126583 209.82745,133.188467 210,133.261603 L209.843137,134.223629 C209.398691,134.088607 209.014381,134.021097 208.690196,134.021097 C208.151631,134.021097 207.780393,134.189872 207.576471,134.527426 C207.372548,134.864981 207.270588,135.351614 207.270588,135.987342 C207.270588,136.729962 207.398692,137.255976 207.654902,137.565401 C207.775164,137.711674 207.926796,137.817159 208.109804,137.881857 C208.292811,137.946554 208.533332,137.978903 208.831373,137.978903 C208.962092,137.978903 209.120261,137.967651 209.305882,137.945148 C209.491504,137.922644 209.662744,137.894515 209.819608,137.860759 L209.945098,138.822785 C209.783006,138.873418 209.57255,138.915612 209.313725,138.949367 C209.054901,138.983123 208.815687,139 208.596078,139 Z" id="C" fill="#9B9B9B"></path>
                </g>
            </g>
        </g>
    </g>
</svg>
